<?xml version="1.0" encoding="utf-8" standalone="no"?>
<!DOCTYPE svg PUBLIC "-//W3C//DTD SVG 1.1//EN"
  "http://www.w3.org/Graphics/SVG/1.1/DTD/svg11.dtd">
<svg xmlns:xlink="http://www.w3.org/1999/xlink" width="172.990668pt" height="170.547136pt" viewBox="0 0 172.990668 170.547136" xmlns="http://www.w3.org/2000/svg" version="1.1">
 <metadata>
  <rdf:RDF xmlns:dc="http://purl.org/dc/elements/1.1/" xmlns:cc="http://creativecommons.org/ns#" xmlns:rdf="http://www.w3.org/1999/02/22-rdf-syntax-ns#">
   <cc:Work>
    <dc:type rdf:resource="http://purl.org/dc/dcmitype/StillImage"/>
    <dc:date>2024-08-16T06:09:51.159810</dc:date>
    <dc:format>image/svg+xml</dc:format>
    <dc:creator>
     <cc:Agent>
      <dc:title>Matplotlib v3.5.3, https://matplotlib.org/</dc:title>
     </cc:Agent>
    </dc:creator>
   </cc:Work>
  </rdf:RDF>
 </metadata>
 <defs>
  <style type="text/css">*{stroke-linejoin: round; stroke-linecap: butt}</style>
 </defs>
 <g id="figure_1">
  <g id="patch_1">
   <path d="M 0 170.547136 
L 172.990668 170.547136 
L 172.990668 0 
L 0 0 
z
" style="fill: #ffffff"/>
  </g>
  <g id="axes_1">
   <g id="patch_2">
    <path d="M 57.377031 116.483699 
L 165.790668 116.483699 
L 165.790668 7.2 
L 57.377031 7.2 
z
" style="fill: #ffffff"/>
   </g>
   <g id="line2d_1">
    <path d="M 57.336083 73.282109 
L 57.458672 73.28241 
L 57.620947 74.134398 
L 57.701582 73.858462 
L 57.941525 71.321233 
L 58.17857 66.016199 
L 58.2178 66.766786 
L 58.412785 72.783693 
L 58.451552 72.371651 
L 58.490243 72.286024 
L 58.605856 74.402227 
L 58.644243 74.203263 
L 58.873002 67.174774 
L 58.948666 67.690223 
L 59.211219 73.921149 
L 59.285596 73.525459 
L 59.543711 68.966084 
L 59.689696 69.526663 
L 59.726023 69.363372 
L 59.762284 69.50609 
L 59.906659 73.038603 
L 59.978449 72.206696 
L 60.085647 70.093159 
L 60.121251 70.637719 
L 60.227673 72.681307 
L 60.263019 72.570224 
L 60.368679 71.288745 
L 60.438804 71.598925 
L 60.473772 71.841901 
L 60.50868 71.718361 
L 60.785721 67.853074 
L 60.820076 68.162534 
L 61.092789 71.523848 
L 61.194087 71.678673 
L 61.227739 71.574314 
L 61.294866 71.224047 
L 61.328345 71.635649 
L 61.428438 75.530914 
L 61.461689 75.240989 
L 61.594136 68.56119 
L 61.627106 69.916661 
L 61.725692 74.667101 
L 61.758445 73.805187 
L 61.921392 67.717163 
L 61.953819 67.941634 
L 62.179325 71.806254 
L 62.243283 71.644261 
L 62.338831 70.891671 
L 62.497051 67.823414 
L 62.528542 68.156389 
L 62.716438 71.648804 
L 62.747579 71.452122 
L 62.933401 70.595965 
L 62.994952 71.450755 
L 63.147993 74.22858 
L 63.178458 73.877469 
L 63.33008 70.213447 
L 63.390402 70.55621 
L 63.510495 71.159288 
L 63.629856 72.913923 
L 63.659584 72.588235 
L 63.778044 70.347241 
L 63.807549 70.657749 
L 63.925124 72.469648 
L 63.954408 72.106115 
L 64.216018 68.232943 
L 64.331179 70.591987 
L 64.388506 70.009537 
L 64.445668 69.234062 
L 64.502664 69.678413 
L 64.559495 70.44212 
L 64.587849 70.282184 
L 64.700855 68.169569 
L 64.729007 68.764508 
L 64.813217 70.624089 
L 64.869157 70.174516 
L 64.924938 70.959407 
L 65.17401 74.617617 
L 65.256337 73.289122 
L 65.392787 69.495874 
L 65.447101 70.098701 
L 65.609152 71.944936 
L 65.689677 73.883005 
L 65.743179 73.06366 
L 65.769875 72.707161 
L 65.823159 73.275424 
L 65.876298 74.489542 
L 65.929293 73.379086 
L 66.061161 67.607275 
L 66.11366 67.738604 
L 66.166022 67.432406 
L 66.192149 67.625883 
L 66.502998 71.767535 
L 66.579949 72.181352 
L 66.605531 72.163608 
L 66.707532 68.556463 
L 66.758333 67.611308 
L 66.809003 68.669955 
L 66.909955 72.270103 
L 66.98533 71.563511 
L 67.035418 72.267457 
L 67.110315 73.514372 
L 67.160084 73.238222 
L 67.283966 70.884718 
L 67.333299 70.406853 
L 67.382511 71.011229 
L 67.480562 72.088723 
L 67.529407 71.638054 
L 67.602444 70.542916 
L 67.626731 70.916293 
L 67.699406 72.245864 
L 67.74771 71.520613 
L 67.91584 70.375462 
L 67.96361 70.123062 
L 68.011269 70.476643 
L 68.035056 70.643587 
L 68.08254 70.255662 
L 68.200751 69.326792 
L 68.224309 69.439057 
L 68.504813 71.661501 
L 68.528009 71.521234 
L 68.574318 71.307736 
L 68.597432 71.559082 
L 68.689613 73.244567 
L 68.735545 72.864467 
L 68.827082 69.693558 
L 68.895459 70.570274 
L 68.986255 70.901615 
L 69.008889 70.84811 
L 69.099164 69.6875 
L 69.144148 70.242542 
L 69.323055 71.541191 
L 69.389727 71.059225 
L 69.434049 71.330526 
L 69.456174 71.484415 
L 69.500346 71.293538 
L 69.697907 69.920428 
L 69.763318 70.302399 
L 69.958263 71.57268 
L 70.108558 72.625899 
L 70.129936 72.388633 
L 70.321288 70.149395 
L 70.384663 70.596552 
L 70.426797 70.335912 
L 70.573563 69.801747 
L 70.594439 69.842382 
L 70.84325 71.040202 
L 70.863841 70.960565 
L 70.884411 70.904661 
L 70.92549 71.011577 
L 70.986945 71.280296 
L 71.027808 71.039727 
L 71.068586 70.684847 
L 71.109281 71.012828 
L 71.149893 71.549773 
L 71.210649 70.952502 
L 71.251051 70.592958 
L 71.311496 70.891508 
L 71.531555 72.891578 
L 71.591145 72.385702 
L 71.905941 69.027829 
L 72.061466 71.48594 
L 72.119472 70.737266 
L 72.292468 67.337391 
L 72.311597 68.409315 
L 72.387924 73.152657 
L 72.444973 71.720264 
L 72.50186 70.012404 
L 72.53969 71.319982 
L 72.596304 73.041694 
L 72.633954 71.751256 
L 72.671532 70.840212 
L 72.727766 71.795395 
L 72.783841 72.188604 
L 72.821132 71.853265 
L 72.895509 69.798837 
L 72.951105 70.776056 
L 73.043417 71.38649 
L 73.061828 71.301189 
L 73.135299 69.68731 
L 73.171931 70.58727 
L 73.226752 71.668169 
L 73.263215 70.791195 
L 73.29961 70.063385 
L 73.335936 70.889212 
L 73.372198 71.621436 
L 73.426461 70.797286 
L 73.516573 70.263821 
L 73.552501 70.471796 
L 73.570441 70.643858 
L 73.588363 70.464359 
L 73.642036 69.155712 
L 73.677736 70.810525 
L 73.71337 72.078268 
L 73.802176 72.072097 
L 73.872933 72.97083 
L 73.908217 72.388831 
L 74.048718 69.112102 
L 74.083686 69.451727 
L 74.18822 71.02205 
L 74.257602 71.007712 
L 74.32674 71.678521 
L 74.361217 71.300864 
L 74.549768 70.304244 
L 74.56682 70.271675 
L 74.583858 70.352381 
L 74.651857 71.472215 
L 74.719622 70.796396 
L 74.770293 70.212644 
L 74.804001 70.57098 
L 74.954977 71.780416 
L 74.988369 71.883522 
L 75.038352 71.707068 
L 75.187542 70.265232 
L 75.220541 70.523586 
L 75.253485 70.785501 
L 75.286376 70.242949 
L 75.3028 70.008056 
L 75.351989 70.841498 
L 75.384715 71.58317 
L 75.45 70.778732 
L 75.482562 71.064013 
L 75.515071 71.48603 
L 75.563733 70.751244 
L 75.676809 70.452781 
L 75.69291 70.478657 
L 75.725073 70.690117 
L 75.789239 71.709939 
L 75.837226 71.040067 
L 75.853197 71.005305 
L 75.869154 71.134487 
L 75.901029 71.361993 
L 75.932851 70.901165 
L 75.980491 70.217448 
L 76.043829 70.800353 
L 76.248279 71.602209 
L 76.279546 71.192444 
L 76.326351 69.641898 
L 76.373045 71.679902 
L 76.404113 72.210721 
L 76.435133 71.217506 
L 76.497023 68.312374 
L 76.543315 71.164247 
L 76.574113 73.262277 
L 76.63557 70.334675 
L 76.650903 70.206874 
L 76.666224 70.747515 
L 76.71212 72.584392 
L 76.757906 70.874274 
L 76.788371 69.709088 
L 76.849161 71.703206 
L 76.894629 72.608507 
L 76.939994 71.135201 
L 76.970178 70.615382 
L 77.045437 71.101717 
L 77.090453 71.311885 
L 77.120408 70.925092 
L 77.254639 68.602635 
L 77.284344 69.621108 
L 77.34362 71.504426 
L 77.37319 70.221671 
L 77.417463 67.80879 
L 77.476339 70.577124 
L 77.593562 73.073463 
L 77.622759 72.685367 
L 77.724608 71.590424 
L 77.75361 72.248176 
L 77.782571 72.936551 
L 77.854785 72.158448 
L 78.055582 69.385557 
L 78.169409 69.758902 
L 78.226075 70.586455 
L 78.296678 70.281147 
L 78.33892 69.743416 
L 78.381071 70.395193 
L 78.43713 71.653861 
L 78.479071 70.530252 
L 78.50698 69.861435 
L 78.562683 70.879903 
L 78.632089 72.326027 
L 78.70125 71.754589 
L 78.728846 71.910437 
L 78.756405 71.615082 
L 78.797668 71.16254 
L 78.852554 71.815908 
L 78.920945 71.082254 
L 78.975485 71.465644 
L 79.0027 71.593073 
L 79.029876 71.342921 
L 79.151707 70.324377 
L 79.165196 70.534855 
L 79.219066 71.815436 
L 79.286194 71.251394 
L 79.366445 69.093407 
L 79.419766 70.315329 
L 79.499475 70.5836 
L 79.539207 70.427203 
L 79.552434 70.396985 
L 79.565652 70.473191 
L 79.592061 70.734688 
L 79.618434 70.027228 
L 79.671075 64.535511 
L 79.710463 70.319948 
L 79.815113 76.245705 
L 79.841189 75.175849 
L 79.958102 70.808386 
L 79.971051 71.276228 
L 80.009841 73.646217 
L 80.061446 70.789757 
L 80.112912 69.437044 
L 80.151426 70.876961 
L 80.177057 71.825527 
L 80.240993 70.075332 
L 80.26651 70.200164 
L 80.279258 69.955815 
L 80.317446 68.409902 
L 80.368247 70.79259 
L 80.393597 71.367731 
L 80.431564 69.603884 
L 80.456835 68.596577 
L 80.519869 70.430471 
L 80.645332 72.630396 
L 80.670329 77.815836 
L 80.682817 71.681667 
L 80.720229 15.694728 
L 80.757567 95.105515 
L 80.769998 114.319861 
L 80.819645 81.143535 
L 80.856797 82.735732 
L 80.955528 66.715533 
L 80.980132 60.844061 
L 81.041511 69.995614 
L 81.078247 80.598033 
L 81.127119 61.223176 
L 81.200205 76.616447 
L 81.321408 70.57219 
L 81.357623 42.83755 
L 81.417834 78.44434 
L 81.441867 82.892707 
L 81.51379 76.562344 
L 81.525753 76.335457 
L 81.549653 77.992078 
L 81.561594 76.647436 
L 81.609278 34.562105 
L 81.633079 72.051437 
L 81.656851 108.230108 
L 81.739823 70.144368 
L 81.775276 65.373633 
L 81.810665 75.521914 
L 81.822448 76.959812 
L 81.845992 71.18996 
L 81.881254 64.949996 
L 81.928169 77.674728 
L 81.939882 78.061412 
L 81.998337 60.204925 
L 82.044976 76.570193 
L 82.056619 77.134572 
L 82.068252 74.255224 
L 82.207345 58.643596 
L 82.218891 58.09041 
L 82.23043 62.028881 
L 82.276521 87.037858 
L 82.345458 68.462957 
L 82.368384 66.94577 
L 82.41415 73.345037 
L 82.425577 72.354164 
L 82.505372 69.752757 
L 82.459814 73.261921 
L 82.516744 71.726615 
L 82.596168 70.266974 
L 82.64141 78.719288 
L 82.675275 72.259393 
L 82.720332 64.98821 
L 82.765291 73.748829 
L 82.787731 76.648636 
L 82.832534 66.187149 
L 82.84372 65.936725 
L 82.866069 67.743804 
L 82.888393 69.702878 
L 82.932968 63.750352 
L 82.944095 63.276901 
L 82.966333 65.079279 
L 83.032892 74.079332 
L 83.088187 67.465469 
L 83.11026 69.08317 
L 83.154335 73.096864 
L 83.231227 71.117277 
L 83.264088 72.323579 
L 83.30782 69.105523 
L 83.329648 67.993566 
L 83.351451 71.369592 
L 83.394989 81.813161 
L 83.481772 77.16332 
L 83.525022 67.835682 
L 83.546611 64.295059 
L 83.60048 68.412073 
L 83.643466 65.22229 
L 83.782533 74.12938 
L 83.80384 72.339125 
L 83.846387 64.234111 
L 83.899441 73.691608 
L 83.910033 73.502666 
L 83.994576 68.664728 
L 83.941779 73.830908 
L 84.057745 71.880311 
L 84.11023 75.473525 
L 84.131186 77.33428 
L 84.17303 71.654458 
L 84.204352 68.702133 
L 84.277249 70.847513 
L 84.308408 73.613778 
L 84.360227 68.910364 
L 84.370575 68.828518 
L 84.411913 72.694967 
L 84.484044 69.678001 
L 84.58663 67.369803 
L 84.617302 69.405419 
L 84.729357 72.412161 
L 84.668314 69.030907 
L 84.759806 71.510752 
L 84.769945 71.368678 
L 84.790207 72.352818 
L 84.820563 74.690645 
L 84.871052 70.240718 
L 84.901283 69.698112 
L 84.961605 70.822348 
L 85.071716 73.958864 
L 85.031749 70.081303 
L 85.101642 72.723923 
L 85.13152 73.072972 
L 85.151414 71.719135 
L 85.25058 68.890469 
L 85.19114 72.570186 
L 85.290106 69.846345 
L 85.299977 69.886464 
L 85.339402 67.827409 
L 85.378752 71.186106 
L 85.427828 72.747756 
L 85.447424 70.886661 
L 85.476779 67.477937 
L 85.56459 68.772401 
L 85.71973 76.273082 
L 85.603488 68.735609 
L 85.758324 72.590005 
L 85.854481 67.934138 
L 85.892809 70.202667 
L 85.931067 72.075145 
L 85.997837 70.057941 
L 86.007355 69.780474 
L 86.035887 71.934549 
L 86.054886 73.088339 
L 86.121238 70.327173 
L 86.196792 65.965495 
L 86.234462 70.018532 
L 86.328319 74.056832 
L 86.356389 72.529044 
L 86.449667 69.690133 
L 86.477564 70.591493 
L 86.523972 74.661721 
L 86.597997 72.929024 
L 86.634904 70.262616 
L 86.717694 67.092341 
L 86.763538 67.196437 
L 86.772694 66.254708 
L 86.809274 73.240227 
L 86.82754 75.736362 
L 86.891335 69.826792 
L 86.900431 70.137241 
L 86.936775 74.015182 
L 86.991166 69.051073 
L 87.000217 68.808819 
L 87.027343 70.551981 
L 87.135476 74.497057 
L 87.081482 69.090818 
L 87.153439 73.184089 
L 87.216184 69.056501 
L 87.269809 71.55829 
L 87.296564 73.126303 
L 87.332184 68.224339 
L 87.474017 72.960939 
L 87.535747 70.622004 
L 87.570937 68.541345 
L 87.606061 71.923346 
L 87.64988 69.960472 
L 87.676122 73.022039 
L 87.772052 71.752651 
L 87.832856 69.537498 
L 87.867516 72.196665 
L 87.902114 70.079784 
L 87.910754 69.994149 
L 87.919392 70.329035 
L 88.05706 72.728676 
L 88.099885 67.73298 
L 88.185254 71.383559 
L 88.193771 71.345893 
L 88.210794 71.581796 
L 88.2363 72.34534 
L 88.26177 70.144037 
L 88.278734 68.780674 
L 88.321079 71.592832 
L 88.354888 71.195123 
L 88.363332 71.251421 
L 88.413915 70.972453 
L 88.447566 69.84058 
L 88.514693 70.706907 
L 88.573243 73.140102 
L 88.598283 70.328041 
L 88.623289 67.227823 
L 88.681517 73.920655 
L 88.706418 76.230351 
L 88.756127 70.306752 
L 88.830455 68.562325 
L 88.863399 70.179212 
L 88.871628 70.248535 
L 88.879851 69.79387 
L 88.904503 68.436337 
L 88.937324 70.700219 
L 88.978272 69.40023 
L 89.010969 72.725023 
L 89.084341 69.363595 
L 89.100609 68.667729 
L 89.15744 72.030384 
L 89.173646 72.029078 
L 89.246414 74.052484 
L 89.262548 72.407802 
L 89.286722 70.561991 
L 89.383131 70.840445 
L 89.407158 72.4665 
L 89.44714 68.566499 
L 89.471092 69.588115 
L 89.495012 68.766691 
L 89.542765 70.519933 
L 89.661645 72.99423 
L 89.598333 68.413777 
L 89.677442 72.505138 
L 89.708998 69.325185 
L 89.756234 73.108382 
L 89.795512 70.320686 
L 89.826879 73.574758 
L 89.920676 71.96248 
L 90.076016 69.153899 
L 90.13781 70.053066 
L 90.160931 72.460415 
L 90.253152 70.83062 
L 90.291448 69.765416 
L 90.34494 71.041334 
L 90.451487 73.093319 
L 90.421103 70.751049 
L 90.481821 72.425691 
L 90.549908 68.054676 
L 90.580092 71.878734 
L 90.595165 72.68927 
L 90.670367 69.937001 
L 90.71535 69.601002 
L 90.730322 70.225031 
L 90.827358 71.668468 
L 90.775168 69.780148 
L 90.849683 71.174862 
L 90.871983 72.00828 
L 90.886836 72.347045 
L 90.923917 69.962633 
L 90.938731 69.300069 
L 91.005252 71.102325 
L 91.071549 72.739964 
L 91.115623 71.405302 
L 91.130292 71.675861 
L 91.159599 69.553185 
L 91.166919 69.30211 
L 91.210779 71.095885 
L 91.225378 71.057559 
L 91.290937 71.36195 
L 91.261827 70.768082 
L 91.298208 71.034158 
L 91.320004 69.390665 
L 91.392485 71.702261 
L 91.399718 71.927769 
L 91.435845 69.999821 
L 91.471906 70.725493 
L 91.493511 69.299977 
L 91.551006 73.413275 
L 91.558181 73.728745 
L 91.608334 71.707507 
L 91.67263 69.518808 
L 91.736715 70.031907 
L 91.76513 72.147475 
L 91.857196 70.856952 
L 91.885439 68.933287 
L 91.955865 71.464985 
L 92.005013 73.038313 
L 92.040045 70.715771 
L 92.061034 71.328851 
L 92.130834 69.651533 
L 92.151726 71.238885 
L 92.165642 72.084174 
L 92.248929 70.114377 
L 92.262777 70.010667 
L 92.283529 69.337149 
L 92.318066 71.33996 
L 92.33876 70.95127 
L 92.393837 70.280311 
L 92.359433 71.039716 
L 92.414452 70.937555 
L 92.435044 72.556412 
L 92.50353 70.433934 
L 92.524029 70.892556 
L 92.551329 70.177963 
L 92.57859 71.513021 
L 92.687258 72.732071 
L 92.63979 70.904894 
L 92.7008 72.55271 
L 92.748122 68.756828 
L 92.835703 71.021394 
L 92.842423 71.043264 
L 92.855857 70.741555 
L 92.936274 70.063276 
L 92.896107 71.434923 
L 92.956326 70.943146 
L 93.096126 73.389065 
L 92.996371 70.516242 
L 93.109389 73.179519 
L 93.168957 69.868595 
L 93.254686 70.829605 
L 93.261265 70.844354 
L 93.267841 70.62993 
L 93.287559 69.756563 
L 93.366229 71.127178 
L 93.379312 71.310439 
L 93.392384 70.828796 
L 93.418502 65.135157 
L 93.470636 75.70302 
L 93.477145 75.684105 
L 93.55506 66.739151 
L 93.639123 70.935162 
L 93.684237 73.304052 
L 93.735673 70.312631 
L 93.818965 69.000222 
L 93.78697 70.99225 
L 93.838137 70.127948 
L 93.87005 72.089274 
L 93.920999 68.462636 
L 93.952778 70.143489 
L 94.066748 74.027243 
L 94.091987 72.334869 
L 94.180063 67.611091 
L 94.211426 70.576989 
L 94.261498 72.85804 
L 94.317678 70.260727 
L 94.323911 70.271398 
L 94.373698 69.995397 
L 94.472895 72.65828 
L 94.509967 68.783409 
L 94.602338 71.210612 
L 94.68816 71.823662 
L 94.706502 71.466032 
L 94.737033 69.860735 
L 94.791871 72.752109 
L 94.804036 73.20628 
L 94.852623 70.839571 
L 94.919233 69.488297 
L 94.985618 70.162813 
L 95.111736 71.76053 
L 95.045777 69.989963 
L 95.123704 71.307643 
L 95.171508 70.0644 
L 95.195364 72.479957 
L 95.213239 74.28772 
L 95.290507 70.003425 
L 95.302367 69.732575 
L 95.331986 71.468467 
L 95.391093 70.113737 
L 95.520504 71.373579 
L 95.444136 69.378615 
L 95.532225 70.974603 
L 95.549796 69.565681 
L 95.573199 73.733817 
L 95.631585 71.931265 
L 95.718839 69.682658 
L 95.695608 72.331485 
L 95.74204 71.821027 
L 95.747837 72.004567 
L 95.794145 70.412336 
L 95.823032 69.402292 
L 95.897942 70.512415 
L 95.972568 72.541827 
L 96.001194 70.606686 
L 96.052617 69.272624 
L 96.075427 71.984535 
L 96.081126 72.095742 
L 96.143705 71.303746 
L 96.22306 69.501183 
L 96.183421 71.671711 
L 96.245673 71.458058 
L 96.262619 70.194356 
L 96.330246 69.668252 
L 96.302096 71.650658 
L 96.352738 71.174677 
L 96.397645 69.052864 
L 96.481567 72.805661 
L 96.531749 69.042974 
L 96.637267 70.673084 
L 96.670474 73.058183 
L 96.736713 70.33664 
L 96.742223 70.370506 
L 96.824689 71.623764 
L 96.84114 70.642925 
L 96.8521 69.877774 
L 96.939561 71.782522 
L 96.950466 71.944575 
L 96.972259 70.946821 
L 97.010336 70.947489 
L 97.042916 69.325945 
L 97.091685 71.625908 
L 97.107917 72.105385 
L 97.134936 70.81147 
L 97.194247 71.448621 
L 97.269478 69.769617 
L 97.317688 71.020449 
L 97.34442 72.506864 
L 97.397777 70.307919 
L 97.419079 70.66866 
L 97.440357 70.383952 
L 97.472231 70.778032 
L 97.498756 72.160258 
L 97.55698 70.110464 
L 97.583388 70.99127 
L 97.599216 70.302979 
L 97.641362 71.518137 
L 97.693919 71.035881 
L 97.699165 71.060205 
L 97.709658 70.755462 
L 97.725385 70.361088 
L 97.751568 71.58159 
L 97.79861 71.3713 
L 97.80905 71.763277 
L 97.881964 69.88261 
L 97.887163 69.829219 
L 97.918321 70.343409 
L 97.939067 72.257317 
L 97.996002 70.948434 
" clip-path="url(#pb09527a507)" style="fill: none; stroke: #c0c0c0; stroke-linecap: square"/>
   </g>
   <g id="line2d_2">
    <path d="M 98.001168 70.802741 
L 98.124788 70.861512 
L 98.329109 70.981377 
L 98.7265 70.960438 
L 100.290854 70.953628 
L 101.520668 70.948868 
L 104.17492 70.944509 
L 106.174879 70.949245 
L 110.516723 70.948824 
L 165.790505 70.948824 
L 165.790505 70.948824 
" clip-path="url(#pb09527a507)" style="fill: none; stroke: #808080; stroke-linecap: square"/>
   </g>
   <g id="line2d_3">
    <path d="M 57.377031 25.41395 
L 165.790668 25.41395 
" clip-path="url(#pb09527a507)" style="fill: none; stroke-dasharray: 6.4,1.6,1,1.6; stroke-dashoffset: 0; stroke: #808080"/>
   </g>
   <g id="matplotlib.axis_1">
    <g id="xtick_1">
     <g id="line2d_4">
      <defs>
       <path id="m8ca5f05ffa" d="M 0 0 
L 0 6 
" style="stroke: #000000"/>
      </defs>
      <g>
       <use xlink:href="#m8ca5f05ffa" x="57.377031" y="116.483699" style="stroke: #000000"/>
      </g>
     </g>
     <g id="text_1">
      <!-- $\mathdefault{10^{1}}$ -->
      <g transform="translate(44.032031 140.014949)scale(0.17 -0.17)">
       <defs>
        <path id="ArialMT-31" d="M 2384 0 
L 1822 0 
L 1822 3584 
Q 1619 3391 1289 3197 
Q 959 3003 697 2906 
L 697 3450 
Q 1169 3672 1522 3987 
Q 1875 4303 2022 4600 
L 2384 4600 
L 2384 0 
z
" transform="scale(0.015625)"/>
        <path id="ArialMT-30" d="M 266 2259 
Q 266 3072 433 3567 
Q 600 4063 929 4331 
Q 1259 4600 1759 4600 
Q 2128 4600 2406 4451 
Q 2684 4303 2865 4023 
Q 3047 3744 3150 3342 
Q 3253 2941 3253 2259 
Q 3253 1453 3087 958 
Q 2922 463 2592 192 
Q 2263 -78 1759 -78 
Q 1097 -78 719 397 
Q 266 969 266 2259 
z
M 844 2259 
Q 844 1131 1108 757 
Q 1372 384 1759 384 
Q 2147 384 2411 759 
Q 2675 1134 2675 2259 
Q 2675 3391 2411 3762 
Q 2147 4134 1753 4134 
Q 1366 4134 1134 3806 
Q 844 3388 844 2259 
z
" transform="scale(0.015625)"/>
       </defs>
       <use xlink:href="#ArialMT-31" transform="translate(0 0.99375)"/>
       <use xlink:href="#ArialMT-30" transform="translate(55.615234 0.99375)"/>
       <use xlink:href="#ArialMT-31" transform="translate(112.972813 70.6875)scale(0.7)"/>
      </g>
     </g>
    </g>
    <g id="xtick_2">
     <g id="line2d_5">
      <g>
       <use xlink:href="#m8ca5f05ffa" x="102.588186" y="116.483699" style="stroke: #000000"/>
      </g>
     </g>
     <g id="text_2">
      <!-- $\mathdefault{10^{2}}$ -->
      <g transform="translate(89.243186 140.014949)scale(0.17 -0.17)">
       <defs>
        <path id="ArialMT-32" d="M 3222 541 
L 3222 0 
L 194 0 
Q 188 203 259 391 
Q 375 700 629 1000 
Q 884 1300 1366 1694 
Q 2113 2306 2375 2664 
Q 2638 3022 2638 3341 
Q 2638 3675 2398 3904 
Q 2159 4134 1775 4134 
Q 1369 4134 1125 3890 
Q 881 3647 878 3216 
L 300 3275 
Q 359 3922 746 4261 
Q 1134 4600 1788 4600 
Q 2447 4600 2831 4234 
Q 3216 3869 3216 3328 
Q 3216 3053 3103 2787 
Q 2991 2522 2730 2228 
Q 2469 1934 1863 1422 
Q 1356 997 1212 845 
Q 1069 694 975 541 
L 3222 541 
z
" transform="scale(0.015625)"/>
       </defs>
       <use xlink:href="#ArialMT-31" transform="translate(0 0.99375)"/>
       <use xlink:href="#ArialMT-30" transform="translate(55.615234 0.99375)"/>
       <use xlink:href="#ArialMT-32" transform="translate(112.972813 70.6875)scale(0.7)"/>
      </g>
     </g>
    </g>
    <g id="xtick_3">
     <g id="line2d_6">
      <g>
       <use xlink:href="#m8ca5f05ffa" x="147.79934" y="116.483699" style="stroke: #000000"/>
      </g>
     </g>
     <g id="text_3">
      <!-- $\mathdefault{10^{3}}$ -->
      <g transform="translate(134.45434 140.014949)scale(0.17 -0.17)">
       <defs>
        <path id="ArialMT-33" d="M 269 1209 
L 831 1284 
Q 928 806 1161 595 
Q 1394 384 1728 384 
Q 2125 384 2398 659 
Q 2672 934 2672 1341 
Q 2672 1728 2419 1979 
Q 2166 2231 1775 2231 
Q 1616 2231 1378 2169 
L 1441 2663 
Q 1497 2656 1531 2656 
Q 1891 2656 2178 2843 
Q 2466 3031 2466 3422 
Q 2466 3731 2256 3934 
Q 2047 4138 1716 4138 
Q 1388 4138 1169 3931 
Q 950 3725 888 3313 
L 325 3413 
Q 428 3978 793 4289 
Q 1159 4600 1703 4600 
Q 2078 4600 2393 4439 
Q 2709 4278 2876 4000 
Q 3044 3722 3044 3409 
Q 3044 3113 2884 2869 
Q 2725 2625 2413 2481 
Q 2819 2388 3044 2092 
Q 3269 1797 3269 1353 
Q 3269 753 2831 336 
Q 2394 -81 1725 -81 
Q 1122 -81 723 278 
Q 325 638 269 1209 
z
" transform="scale(0.015625)"/>
       </defs>
       <use xlink:href="#ArialMT-31" transform="translate(0 0.99375)"/>
       <use xlink:href="#ArialMT-30" transform="translate(55.615234 0.99375)"/>
       <use xlink:href="#ArialMT-33" transform="translate(112.972813 70.6875)scale(0.7)"/>
      </g>
     </g>
    </g>
    <g id="xtick_4">
     <g id="line2d_7">
      <defs>
       <path id="m0aecbc822a" d="M 0 0 
L 0 3 
" style="stroke: #000000"/>
      </defs>
      <g>
       <use xlink:href="#m0aecbc822a" x="70.986945" y="116.483699" style="stroke: #000000"/>
      </g>
     </g>
    </g>
    <g id="xtick_5">
     <g id="line2d_8">
      <g>
       <use xlink:href="#m0aecbc822a" x="78.948234" y="116.483699" style="stroke: #000000"/>
      </g>
     </g>
    </g>
    <g id="xtick_6">
     <g id="line2d_9">
      <g>
       <use xlink:href="#m0aecbc822a" x="84.596859" y="116.483699" style="stroke: #000000"/>
      </g>
     </g>
    </g>
    <g id="xtick_7">
     <g id="line2d_10">
      <g>
       <use xlink:href="#m0aecbc822a" x="88.978272" y="116.483699" style="stroke: #000000"/>
      </g>
     </g>
    </g>
    <g id="xtick_8">
     <g id="line2d_11">
      <g>
       <use xlink:href="#m0aecbc822a" x="92.558148" y="116.483699" style="stroke: #000000"/>
      </g>
     </g>
    </g>
    <g id="xtick_9">
     <g id="line2d_12">
      <g>
       <use xlink:href="#m0aecbc822a" x="95.584889" y="116.483699" style="stroke: #000000"/>
      </g>
     </g>
    </g>
    <g id="xtick_10">
     <g id="line2d_13">
      <g>
       <use xlink:href="#m0aecbc822a" x="98.206772" y="116.483699" style="stroke: #000000"/>
      </g>
     </g>
    </g>
    <g id="xtick_11">
     <g id="line2d_14">
      <g>
       <use xlink:href="#m0aecbc822a" x="100.519437" y="116.483699" style="stroke: #000000"/>
      </g>
     </g>
    </g>
    <g id="xtick_12">
     <g id="line2d_15">
      <g>
       <use xlink:href="#m0aecbc822a" x="116.198099" y="116.483699" style="stroke: #000000"/>
      </g>
     </g>
    </g>
    <g id="xtick_13">
     <g id="line2d_16">
      <g>
       <use xlink:href="#m0aecbc822a" x="124.159389" y="116.483699" style="stroke: #000000"/>
      </g>
     </g>
    </g>
    <g id="xtick_14">
     <g id="line2d_17">
      <g>
       <use xlink:href="#m0aecbc822a" x="129.808013" y="116.483699" style="stroke: #000000"/>
      </g>
     </g>
    </g>
    <g id="xtick_15">
     <g id="line2d_18">
      <g>
       <use xlink:href="#m0aecbc822a" x="134.189427" y="116.483699" style="stroke: #000000"/>
      </g>
     </g>
    </g>
    <g id="xtick_16">
     <g id="line2d_19">
      <g>
       <use xlink:href="#m0aecbc822a" x="137.769302" y="116.483699" style="stroke: #000000"/>
      </g>
     </g>
    </g>
    <g id="xtick_17">
     <g id="line2d_20">
      <g>
       <use xlink:href="#m0aecbc822a" x="140.796044" y="116.483699" style="stroke: #000000"/>
      </g>
     </g>
    </g>
    <g id="xtick_18">
     <g id="line2d_21">
      <g>
       <use xlink:href="#m0aecbc822a" x="143.417927" y="116.483699" style="stroke: #000000"/>
      </g>
     </g>
    </g>
    <g id="xtick_19">
     <g id="line2d_22">
      <g>
       <use xlink:href="#m0aecbc822a" x="145.730591" y="116.483699" style="stroke: #000000"/>
      </g>
     </g>
    </g>
    <g id="xtick_20">
     <g id="line2d_23">
      <g>
       <use xlink:href="#m0aecbc822a" x="161.409254" y="116.483699" style="stroke: #000000"/>
      </g>
     </g>
    </g>
    <g id="text_4">
     <!-- Time (ms) -->
     <g transform="translate(73.663224 159.769168)scale(0.17 -0.17)">
      <defs>
       <path id="ArialMT-54" d="M 1659 0 
L 1659 4041 
L 150 4041 
L 150 4581 
L 3781 4581 
L 3781 4041 
L 2266 4041 
L 2266 0 
L 1659 0 
z
" transform="scale(0.015625)"/>
       <path id="ArialMT-69" d="M 425 3934 
L 425 4581 
L 988 4581 
L 988 3934 
L 425 3934 
z
M 425 0 
L 425 3319 
L 988 3319 
L 988 0 
L 425 0 
z
" transform="scale(0.015625)"/>
       <path id="ArialMT-6d" d="M 422 0 
L 422 3319 
L 925 3319 
L 925 2853 
Q 1081 3097 1340 3245 
Q 1600 3394 1931 3394 
Q 2300 3394 2536 3241 
Q 2772 3088 2869 2813 
Q 3263 3394 3894 3394 
Q 4388 3394 4653 3120 
Q 4919 2847 4919 2278 
L 4919 0 
L 4359 0 
L 4359 2091 
Q 4359 2428 4304 2576 
Q 4250 2725 4106 2815 
Q 3963 2906 3769 2906 
Q 3419 2906 3187 2673 
Q 2956 2441 2956 1928 
L 2956 0 
L 2394 0 
L 2394 2156 
Q 2394 2531 2256 2718 
Q 2119 2906 1806 2906 
Q 1569 2906 1367 2781 
Q 1166 2656 1075 2415 
Q 984 2175 984 1722 
L 984 0 
L 422 0 
z
" transform="scale(0.015625)"/>
       <path id="ArialMT-65" d="M 2694 1069 
L 3275 997 
Q 3138 488 2766 206 
Q 2394 -75 1816 -75 
Q 1088 -75 661 373 
Q 234 822 234 1631 
Q 234 2469 665 2931 
Q 1097 3394 1784 3394 
Q 2450 3394 2872 2941 
Q 3294 2488 3294 1666 
Q 3294 1616 3291 1516 
L 816 1516 
Q 847 969 1125 678 
Q 1403 388 1819 388 
Q 2128 388 2347 550 
Q 2566 713 2694 1069 
z
M 847 1978 
L 2700 1978 
Q 2663 2397 2488 2606 
Q 2219 2931 1791 2931 
Q 1403 2931 1139 2672 
Q 875 2413 847 1978 
z
" transform="scale(0.015625)"/>
       <path id="ArialMT-20" transform="scale(0.015625)"/>
       <path id="ArialMT-28" d="M 1497 -1347 
Q 1031 -759 709 28 
Q 388 816 388 1659 
Q 388 2403 628 3084 
Q 909 3875 1497 4659 
L 1900 4659 
Q 1522 4009 1400 3731 
Q 1209 3300 1100 2831 
Q 966 2247 966 1656 
Q 966 153 1900 -1347 
L 1497 -1347 
z
" transform="scale(0.015625)"/>
       <path id="ArialMT-73" d="M 197 991 
L 753 1078 
Q 800 744 1014 566 
Q 1228 388 1613 388 
Q 2000 388 2187 545 
Q 2375 703 2375 916 
Q 2375 1106 2209 1216 
Q 2094 1291 1634 1406 
Q 1016 1563 777 1677 
Q 538 1791 414 1992 
Q 291 2194 291 2438 
Q 291 2659 392 2848 
Q 494 3038 669 3163 
Q 800 3259 1026 3326 
Q 1253 3394 1513 3394 
Q 1903 3394 2198 3281 
Q 2494 3169 2634 2976 
Q 2775 2784 2828 2463 
L 2278 2388 
Q 2241 2644 2061 2787 
Q 1881 2931 1553 2931 
Q 1166 2931 1000 2803 
Q 834 2675 834 2503 
Q 834 2394 903 2306 
Q 972 2216 1119 2156 
Q 1203 2125 1616 2013 
Q 2213 1853 2448 1751 
Q 2684 1650 2818 1456 
Q 2953 1263 2953 975 
Q 2953 694 2789 445 
Q 2625 197 2315 61 
Q 2006 -75 1616 -75 
Q 969 -75 630 194 
Q 291 463 197 991 
z
" transform="scale(0.015625)"/>
       <path id="ArialMT-29" d="M 791 -1347 
L 388 -1347 
Q 1322 153 1322 1656 
Q 1322 2244 1188 2822 
Q 1081 3291 891 3722 
Q 769 4003 388 4659 
L 791 4659 
Q 1378 3875 1659 3084 
Q 1900 2403 1900 1659 
Q 1900 816 1576 28 
Q 1253 -759 791 -1347 
z
" transform="scale(0.015625)"/>
      </defs>
      <use xlink:href="#ArialMT-54"/>
      <use xlink:href="#ArialMT-69" x="57.333984"/>
      <use xlink:href="#ArialMT-6d" x="79.550781"/>
      <use xlink:href="#ArialMT-65" x="162.851562"/>
      <use xlink:href="#ArialMT-20" x="218.466797"/>
      <use xlink:href="#ArialMT-28" x="246.25"/>
      <use xlink:href="#ArialMT-6d" x="279.550781"/>
      <use xlink:href="#ArialMT-73" x="362.851562"/>
      <use xlink:href="#ArialMT-29" x="412.851562"/>
     </g>
    </g>
   </g>
   <g id="matplotlib.axis_2">
    <g id="ytick_1">
     <g id="line2d_24">
      <defs>
       <path id="mebb25971ee" d="M 0 0 
L -6 0 
" style="stroke: #000000"/>
      </defs>
      <g>
       <use xlink:href="#mebb25971ee" x="57.377031" y="116.483699" style="stroke: #000000"/>
      </g>
     </g>
     <g id="text_5">
      <!-- 0.0 -->
      <g transform="translate(26.747031 122.567839)scale(0.17 -0.17)">
       <defs>
        <path id="ArialMT-2e" d="M 581 0 
L 581 641 
L 1222 641 
L 1222 0 
L 581 0 
z
" transform="scale(0.015625)"/>
       </defs>
       <use xlink:href="#ArialMT-30"/>
       <use xlink:href="#ArialMT-2e" x="55.615234"/>
       <use xlink:href="#ArialMT-30" x="83.398438"/>
      </g>
     </g>
    </g>
    <g id="ytick_2">
     <g id="line2d_25">
      <g>
       <use xlink:href="#mebb25971ee" x="57.377031" y="70.948824" style="stroke: #000000"/>
      </g>
     </g>
     <g id="text_6">
      <!-- 0.5 -->
      <g transform="translate(26.747031 77.032965)scale(0.17 -0.17)">
       <defs>
        <path id="ArialMT-35" d="M 266 1200 
L 856 1250 
Q 922 819 1161 601 
Q 1400 384 1738 384 
Q 2144 384 2425 690 
Q 2706 997 2706 1503 
Q 2706 1984 2436 2262 
Q 2166 2541 1728 2541 
Q 1456 2541 1237 2417 
Q 1019 2294 894 2097 
L 366 2166 
L 809 4519 
L 3088 4519 
L 3088 3981 
L 1259 3981 
L 1013 2750 
Q 1425 3038 1878 3038 
Q 2478 3038 2890 2622 
Q 3303 2206 3303 1553 
Q 3303 931 2941 478 
Q 2500 -78 1738 -78 
Q 1113 -78 717 272 
Q 322 622 266 1200 
z
" transform="scale(0.015625)"/>
       </defs>
       <use xlink:href="#ArialMT-30"/>
       <use xlink:href="#ArialMT-2e" x="55.615234"/>
       <use xlink:href="#ArialMT-35" x="83.398438"/>
      </g>
     </g>
    </g>
    <g id="ytick_3">
     <g id="line2d_26">
      <g>
       <use xlink:href="#mebb25971ee" x="57.377031" y="25.41395" style="stroke: #000000"/>
      </g>
     </g>
     <g id="text_7">
      <!-- 1.0 -->
      <g transform="translate(26.747031 31.49809)scale(0.17 -0.17)">
       <use xlink:href="#ArialMT-31"/>
       <use xlink:href="#ArialMT-2e" x="55.615234"/>
       <use xlink:href="#ArialMT-30" x="83.398438"/>
      </g>
     </g>
    </g>
    <g id="text_8">
     <!-- DR-NED -->
     <g transform="translate(19.368281 94.896224)rotate(-90)scale(0.17 -0.17)">
      <defs>
       <path id="ArialMT-44" d="M 494 0 
L 494 4581 
L 2072 4581 
Q 2606 4581 2888 4516 
Q 3281 4425 3559 4188 
Q 3922 3881 4101 3404 
Q 4281 2928 4281 2316 
Q 4281 1794 4159 1391 
Q 4038 988 3847 723 
Q 3656 459 3429 307 
Q 3203 156 2883 78 
Q 2563 0 2147 0 
L 494 0 
z
M 1100 541 
L 2078 541 
Q 2531 541 2789 625 
Q 3047 709 3200 863 
Q 3416 1078 3536 1442 
Q 3656 1806 3656 2325 
Q 3656 3044 3420 3430 
Q 3184 3816 2847 3947 
Q 2603 4041 2063 4041 
L 1100 4041 
L 1100 541 
z
" transform="scale(0.015625)"/>
       <path id="ArialMT-52" d="M 503 0 
L 503 4581 
L 2534 4581 
Q 3147 4581 3465 4457 
Q 3784 4334 3975 4021 
Q 4166 3709 4166 3331 
Q 4166 2844 3850 2509 
Q 3534 2175 2875 2084 
Q 3116 1969 3241 1856 
Q 3506 1613 3744 1247 
L 4541 0 
L 3778 0 
L 3172 953 
Q 2906 1366 2734 1584 
Q 2563 1803 2427 1890 
Q 2291 1978 2150 2013 
Q 2047 2034 1813 2034 
L 1109 2034 
L 1109 0 
L 503 0 
z
M 1109 2559 
L 2413 2559 
Q 2828 2559 3062 2645 
Q 3297 2731 3419 2920 
Q 3541 3109 3541 3331 
Q 3541 3656 3305 3865 
Q 3069 4075 2559 4075 
L 1109 4075 
L 1109 2559 
z
" transform="scale(0.015625)"/>
       <path id="ArialMT-2d" d="M 203 1375 
L 203 1941 
L 1931 1941 
L 1931 1375 
L 203 1375 
z
" transform="scale(0.015625)"/>
       <path id="ArialMT-4e" d="M 488 0 
L 488 4581 
L 1109 4581 
L 3516 984 
L 3516 4581 
L 4097 4581 
L 4097 0 
L 3475 0 
L 1069 3600 
L 1069 0 
L 488 0 
z
" transform="scale(0.015625)"/>
       <path id="ArialMT-45" d="M 506 0 
L 506 4581 
L 3819 4581 
L 3819 4041 
L 1113 4041 
L 1113 2638 
L 3647 2638 
L 3647 2100 
L 1113 2100 
L 1113 541 
L 3925 541 
L 3925 0 
L 506 0 
z
" transform="scale(0.015625)"/>
      </defs>
      <use xlink:href="#ArialMT-44"/>
      <use xlink:href="#ArialMT-52" x="72.216797"/>
      <use xlink:href="#ArialMT-2d" x="144.433594"/>
      <use xlink:href="#ArialMT-4e" x="177.734375"/>
      <use xlink:href="#ArialMT-45" x="249.951172"/>
      <use xlink:href="#ArialMT-44" x="316.650391"/>
     </g>
    </g>
   </g>
   <g id="line2d_27">
    <path d="M 54.987518 60.234303 
L 64.071109 43.013999 
L 70.257712 35.743201 
L 74.954977 41.483301 
L 78.742631 78.602631 
L 81.91645 75.92392 
L 84.647924 75.92392 
L 87.045406 34.977849 
L 89.181745 29.23775 
L 91.108284 31.151118 
L 92.862572 35.743201 
L 94.472895 37.273888 
L 95.961104 30.768437 
L 97.34442 34.977849 
" clip-path="url(#pb09527a507)" style="fill: none; stroke: #ff0000; stroke-width: 1.5; stroke-linecap: square"/>
   </g>
   <g id="line2d_28">
    <path d="M 97.34442 34.977849 
L 98.636658 25.41395 
L 165.655211 25.41395 
L 165.655211 25.41395 
" clip-path="url(#pb09527a507)" style="fill: none; stroke-dasharray: 5.55,2.4; stroke-dashoffset: 0; stroke: #ff0000; stroke-width: 1.5"/>
   </g>
   <g id="line2d_29">
    <path d="M 98.001169 116.483699 
L 98.001169 7.2 
" clip-path="url(#pb09527a507)" style="fill: none; stroke-dasharray: 10,3; stroke-dashoffset: 5; stroke: #000000"/>
   </g>
   <g id="patch_3">
    <path d="M 57.377031 116.483699 
L 57.377031 7.2 
" style="fill: none; stroke: #000000; stroke-linejoin: miter; stroke-linecap: square"/>
   </g>
   <g id="patch_4">
    <path d="M 165.790668 116.483699 
L 165.790668 7.2 
" style="fill: none; stroke: #000000; stroke-linejoin: miter; stroke-linecap: square"/>
   </g>
   <g id="patch_5">
    <path d="M 57.377031 116.483699 
L 165.790668 116.483699 
" style="fill: none; stroke: #000000; stroke-linejoin: miter; stroke-linecap: square"/>
   </g>
   <g id="patch_6">
    <path d="M 57.377031 7.2 
L 165.790668 7.2 
" style="fill: none; stroke: #000000; stroke-linejoin: miter; stroke-linecap: square"/>
   </g>
  </g>
 </g>
 <defs>
  <clipPath id="pb09527a507">
   <rect x="57.377031" y="7.2" width="108.413636" height="109.283699"/>
  </clipPath>
 </defs>
</svg>
