<?xml version="1.0" encoding="utf-8" standalone="no"?>
<!DOCTYPE svg PUBLIC "-//W3C//DTD SVG 1.1//EN"
  "http://www.w3.org/Graphics/SVG/1.1/DTD/svg11.dtd">
<svg xmlns:xlink="http://www.w3.org/1999/xlink" width="172.990668pt" height="170.547136pt" viewBox="0 0 172.990668 170.547136" xmlns="http://www.w3.org/2000/svg" version="1.1">
 <metadata>
  <rdf:RDF xmlns:dc="http://purl.org/dc/elements/1.1/" xmlns:cc="http://creativecommons.org/ns#" xmlns:rdf="http://www.w3.org/1999/02/22-rdf-syntax-ns#">
   <cc:Work>
    <dc:type rdf:resource="http://purl.org/dc/dcmitype/StillImage"/>
    <dc:date>2024-08-16T06:09:56.213814</dc:date>
    <dc:format>image/svg+xml</dc:format>
    <dc:creator>
     <cc:Agent>
      <dc:title>Matplotlib v3.5.3, https://matplotlib.org/</dc:title>
     </cc:Agent>
    </dc:creator>
   </cc:Work>
  </rdf:RDF>
 </metadata>
 <defs>
  <style type="text/css">*{stroke-linejoin: round; stroke-linecap: butt}</style>
 </defs>
 <g id="figure_1">
  <g id="patch_1">
   <path d="M 0 170.547136 
L 172.990668 170.547136 
L 172.990668 0 
L 0 0 
z
" style="fill: #ffffff"/>
  </g>
  <g id="axes_1">
   <g id="patch_2">
    <path d="M 57.377031 116.483699 
L 165.790668 116.483699 
L 165.790668 7.2 
L 57.377031 7.2 
z
" style="fill: #ffffff"/>
   </g>
   <g id="line2d_1">
    <path d="M 57.336083 76.974576 
L 57.417894 72.164707 
L 57.458672 74.265659 
L 57.580503 76.49925 
L 57.620947 75.911495 
L 57.781889 65.890841 
L 57.821921 66.952137 
L 57.86187 67.163961 
L 57.901737 64.58957 
L 57.941525 64.838897 
L 57.981231 67.507092 
L 58.020857 64.44429 
L 58.060405 59.208453 
L 58.099872 64.450039 
L 58.17857 64.009613 
L 58.256952 70.142224 
L 58.335024 66.774445 
L 58.373945 69.51826 
L 58.412785 72.763175 
L 58.490243 71.366686 
L 58.567393 69.241651 
L 58.605856 72.897169 
L 58.644243 70.26001 
L 58.797044 63.50426 
L 58.835059 63.475339 
L 58.873002 62.863485 
L 58.91087 59.899856 
L 58.948666 63.925308 
L 59.136562 81.284296 
L 59.248442 76.321026 
L 59.285596 77.222886 
L 59.322676 78.140509 
L 59.359689 77.393067 
L 59.433503 73.4702 
L 59.470309 76.338225 
L 59.507043 78.441596 
L 59.543711 76.354613 
L 59.580309 76.156734 
L 59.653302 69.531765 
L 59.689696 73.494901 
L 59.798477 77.380903 
L 59.834603 76.392038 
L 59.978449 73.206888 
L 60.121251 77.300788 
L 60.473772 55.492825 
L 60.50868 59.598304 
L 60.578306 68.088743 
L 60.647689 62.052195 
L 60.682287 61.845788 
L 60.785721 62.014702 
L 60.820076 58.807343 
L 60.922788 73.396366 
L 60.990967 60.404308 
L 61.024966 68.812217 
L 61.058907 64.360338 
L 61.092789 64.932414 
L 61.227739 85.831059 
L 61.261331 82.444431 
L 61.461689 63.068535 
L 61.528023 74.11005 
L 61.660024 84.051308 
L 61.725692 79.983384 
L 61.758445 90.445813 
L 61.823786 81.300703 
L 61.88891 83.257087 
L 62.050782 59.268043 
L 62.338831 79.230612 
L 62.370578 77.733762 
L 62.497051 54.524623 
L 62.528542 56.880485 
L 62.559982 65.10763 
L 62.622714 56.601281 
L 62.654005 64.815372 
L 62.685247 66.458248 
L 62.716438 62.052564 
L 62.747579 72.171807 
L 62.778672 76.76963 
L 62.809715 67.734875 
L 62.840709 68.795856 
L 62.871656 74.470638 
L 62.902552 69.470905 
L 63.025657 55.634186 
L 63.086919 72.218109 
L 63.178458 68.183997 
L 63.208876 68.163663 
L 63.269571 69.65486 
L 63.390402 77.182248 
L 63.420495 74.478127 
L 63.45054 74.80426 
L 63.480539 74.168036 
L 63.510495 67.145825 
L 63.600083 67.788272 
L 63.659584 77.492398 
L 63.718903 75.262078 
L 63.778044 71.782131 
L 63.925124 79.869015 
L 64.041999 69.241461 
L 64.071109 71.964144 
L 64.187121 81.088084 
L 64.129201 71.207936 
L 64.216018 79.048478 
L 64.302451 68.937971 
L 64.359865 69.419538 
L 64.417109 73.390222 
L 64.502664 72.928539 
L 64.644434 68.21953 
L 64.672665 68.541861 
L 64.729007 78.344076 
L 64.813217 75.09315 
L 64.869157 66.028347 
L 64.924938 60.326891 
L 64.98056 64.739931 
L 65.008313 63.82874 
L 65.036028 64.280517 
L 65.063702 66.657289 
L 65.091337 62.598014 
L 65.20149 56.822219 
L 65.146491 65.492581 
L 65.228934 59.031098 
L 65.392787 76.102784 
L 65.419963 75.779582 
L 65.447101 76.018476 
L 65.474202 78.267471 
L 65.501267 75.424665 
L 65.609152 68.147151 
L 65.63603 70.615198 
L 65.662872 76.260326 
L 65.743179 76.085375 
L 65.902814 64.051198 
L 66.061161 81.024813 
L 66.087429 82.949011 
L 66.11366 78.558964 
L 66.139858 81.075672 
L 66.166022 80.514865 
L 66.296313 70.455224 
L 66.425747 78.297058 
L 66.374074 70.163578 
L 66.451532 77.176972 
L 66.682081 65.121543 
L 66.73295 68.278985 
L 66.758333 64.186647 
L 66.809003 67.634899 
L 66.935113 47.680301 
L 66.960236 56.376462 
L 67.060416 73.403295 
L 67.085381 56.068174 
L 67.135215 76.181994 
L 67.160084 67.544134 
L 67.184923 68.998067 
L 67.283966 92.631747 
L 67.308647 91.722057 
L 67.407071 72.404771 
L 67.431598 74.082521 
L 67.456096 74.854715 
L 67.650985 52.844004 
L 67.867948 86.27921 
L 67.891908 84.425736 
L 67.91584 71.133133 
L 67.987454 73.290259 
L 68.035056 85.373855 
L 68.10624 83.309083 
L 68.224309 65.653977 
L 68.247839 69.096805 
L 68.27134 68.862818 
L 68.318255 76.980708 
L 68.341672 72.394018 
L 68.458338 53.779773 
L 68.620517 78.251211 
L 68.666608 70.940649 
L 68.712592 78.137336 
L 68.804236 84.575052 
L 68.963594 64.267077 
L 69.054079 56.828673 
L 69.076635 61.558713 
L 69.121669 60.469755 
L 69.256155 73.666405 
L 69.278479 66.682096 
L 69.367529 70.368747 
L 69.389727 70.404486 
L 69.411899 63.791796 
L 69.456174 74.154469 
L 69.500346 82.094406 
L 69.56642 77.651522 
L 69.632272 80.586048 
L 69.676053 70.451022 
L 69.719734 75.96322 
L 69.763318 71.64025 
L 69.806808 64.946061 
L 69.871858 66.603914 
L 69.979803 80.404234 
L 70.001322 74.89731 
L 70.022815 74.386998 
L 70.044286 76.755837 
L 70.087157 71.183865 
L 70.129936 75.014439 
L 70.278928 64.788714 
L 70.384663 75.511063 
L 70.342436 64.067955 
L 70.405742 70.566235 
L 70.489831 64.441745 
L 70.447832 70.939347 
L 70.510798 70.084522 
L 70.531741 71.051338 
L 70.552663 62.62268 
L 70.636126 69.483341 
L 70.656937 78.130969 
L 70.698494 63.380356 
L 70.739961 71.576403 
L 70.760661 69.193964 
L 70.801999 75.055006 
L 70.822635 76.405209 
L 70.863841 75.493739 
L 70.966481 69.211584 
L 70.986945 75.410403 
L 71.027808 65.003795 
L 71.048208 66.803399 
L 71.088944 61.020574 
L 71.129598 74.397705 
L 71.230861 74.309641 
L 71.271221 76.379789 
L 71.291369 76.196862 
L 71.311496 71.278385 
L 71.351691 77.385191 
L 71.391803 72.966688 
L 71.491728 82.424418 
L 71.511651 76.659728 
L 71.650555 63.290102 
L 71.690063 68.327963 
L 71.709786 61.719008 
L 71.749173 65.041711 
L 71.768838 60.738087 
L 71.8473 64.298712 
L 71.944938 77.572919 
L 71.983858 72.868791 
L 72.003288 66.82318 
L 72.042092 79.900946 
L 72.080821 76.710466 
L 72.100157 85.602218 
L 72.138768 76.43558 
L 72.177307 79.530256 
L 72.330705 62.652497 
L 72.387924 66.91789 
L 72.425974 69.879875 
L 72.444973 66.723806 
L 72.50186 67.539629 
L 72.520784 67.658305 
L 72.577451 66.434533 
L 72.633954 83.278596 
L 72.652753 87.934566 
L 72.690295 80.310668 
L 72.709041 80.387469 
L 72.858356 54.943184 
L 72.914058 65.585815 
L 72.988083 76.894733 
L 73.061828 75.08884 
L 73.135299 68.335253 
L 73.171931 73.290932 
L 73.190222 72.704447 
L 73.208495 75.207769 
L 73.226752 75.673184 
L 73.244992 73.472608 
L 73.29961 75.308869 
L 73.390303 63.867134 
L 73.408391 65.15688 
L 73.444517 61.740737 
L 73.498583 59.08393 
L 73.516573 62.546045 
L 73.659895 78.160889 
L 73.731164 83.616031 
L 73.748942 80.76812 
L 73.802176 69.060295 
L 73.837587 81.656583 
L 73.872933 78.077593 
L 74.031211 59.823167 
L 74.048718 63.833805 
L 74.118594 78.696783 
L 74.170836 73.566684 
L 74.18822 69.724259 
L 74.240279 76.89808 
L 74.257602 79.142573 
L 74.292201 71.786469 
L 74.41282 60.807144 
L 74.447146 67.726592 
L 74.464288 69.717702 
L 74.515621 64.771892 
L 74.532701 60.003817 
L 74.583858 69.644547 
L 74.617887 66.889398 
L 74.702703 64.750407 
L 74.66882 69.497476 
L 74.719622 65.10604 
L 74.837652 81.02934 
L 74.904779 73.868811 
L 74.938259 64.779665 
L 75.005043 71.973035 
L 75.021705 72.587475 
L 75.038352 70.072016 
L 75.071603 72.090468 
L 75.088208 70.838654 
L 75.121375 72.946424 
L 75.154485 80.951093 
L 75.220541 74.671945 
L 75.3028 63.384579 
L 75.335605 69.859405 
L 75.417385 82.792473 
L 75.466289 76.31363 
L 75.482562 77.165838 
L 75.498823 72.674893 
L 75.547527 61.235216 
L 75.628428 68.021912 
L 75.741134 72.622492 
L 75.660696 67.802868 
L 75.757182 69.520507 
L 75.805248 62.439501 
L 75.869154 66.932199 
L 75.932851 72.78004 
L 75.980491 69.488221 
L 76.012184 64.382729 
L 76.091199 65.97767 
L 76.263918 81.458641 
L 76.279546 76.726658 
L 76.341927 68.287409 
L 76.388586 74.639498 
L 76.404113 75.134828 
L 76.435133 84.448866 
L 76.512466 76.949984 
L 76.650903 65.195437 
L 76.71212 74.587306 
L 76.742656 63.990093 
L 76.757906 63.803668 
L 76.818789 72.833855 
L 76.879485 67.684784 
L 76.894629 62.7639 
L 76.955092 73.922883 
L 76.970178 73.793942 
L 77.060454 61.734668 
L 77.105436 65.849798 
L 77.135367 67.277041 
L 77.180179 65.874518 
L 77.209996 60.517111 
L 77.254639 73.800524 
L 77.299179 73.521331 
L 77.34362 75.053286 
L 77.37319 80.944533 
L 77.432199 71.344908 
L 77.578948 80.017039 
L 77.608165 77.311737 
L 77.75361 66.478354 
L 77.768096 66.618917 
L 77.825932 75.380287 
L 77.869196 68.530375 
L 77.941093 64.974477 
L 77.912365 70.040853 
L 77.984104 67.598155 
L 78.055582 76.195244 
L 78.126801 71.970516 
L 78.268469 63.228508 
L 78.282579 62.889877 
L 78.45112 77.738267 
L 78.4651 77.567784 
L 78.576583 70.092301 
L 78.590474 71.009547 
L 78.618227 73.394225 
L 78.645941 68.455401 
L 78.673615 70.161711 
L 78.687437 68.793565 
L 78.728846 73.404061 
L 78.742631 74.803538 
L 78.797668 70.815742 
L 78.811404 71.171106 
L 78.838847 69.459761 
L 78.879938 73.423719 
L 78.907285 77.529896 
L 78.975485 74.788521 
L 79.124699 63.539494 
L 79.138208 65.083328 
L 79.19215 70.598229 
L 79.232509 67.284548 
L 79.259369 63.830684 
L 79.312981 74.383752 
L 79.406449 66.934213 
L 79.47294 72.283964 
L 79.57886 76.5886 
L 79.499475 71.033395 
L 79.605252 72.763327 
L 79.644772 68.140963 
L 79.671075 73.573936 
L 79.697343 72.700949 
L 79.775935 78.605169 
L 79.749772 71.382913 
L 79.815113 75.451046 
L 79.880238 66.627 
L 79.945146 68.828404 
L 79.971051 74.161352 
L 80.03566 68.685914 
L 80.048556 69.547914 
L 80.100058 67.564305 
L 80.151426 67.857557 
L 80.26651 76.205265 
L 80.279258 73.974497 
L 80.393597 68.41577 
L 80.519869 77.451122 
L 80.532453 76.49517 
L 80.620305 60.564255 
L 80.670329 69.850155 
L 80.757567 73.24327 
L 80.707765 67.82799 
L 80.769998 72.475951 
L 80.807246 66.301504 
L 80.869167 71.259729 
L 80.943213 69.33672 
L 81.004707 76.511203 
L 81.078247 67.843178 
L 81.127119 73.115871 
L 81.13932 73.263213 
L 81.200205 61.146758 
L 81.260899 70.698954 
L 81.381731 75.900597 
L 81.417834 75.190046 
L 81.429853 70.957132 
L 81.501822 80.626037 
L 81.51379 76.276436 
L 81.537707 77.735396 
L 81.561594 73.797748 
L 81.573524 74.564329 
L 81.644969 76.352724 
L 81.704308 64.253653 
L 81.775276 69.852196 
L 81.798876 63.713668 
L 81.869506 59.553202 
L 81.91645 62.886126 
L 82.044976 78.687482 
L 82.056619 77.250708 
L 82.114727 73.302657 
L 82.091503 79.360063 
L 82.172665 74.857057 
L 82.299527 71.641528 
L 82.218891 77.83316 
L 82.311021 71.781 
L 82.322506 72.362469 
L 82.345458 70.78713 
L 82.368384 64.047718 
L 82.436995 75.30793 
L 82.448409 72.36936 
L 82.516744 77.396639 
L 82.562169 74.90067 
L 82.776513 58.853982 
L 82.932968 76.685263 
L 82.944095 75.351252 
L 82.955218 71.681189 
L 83.01073 77.058876 
L 83.055027 75.059889 
L 83.099226 72.393423 
L 83.154335 75.411166 
L 83.176334 77.780862 
L 83.242186 71.512497 
L 83.253141 71.326775 
L 83.264088 73.586556 
L 83.329648 69.450055 
L 83.362345 71.22368 
L 83.384114 65.298833 
L 83.460113 68.149099 
L 83.481772 72.689411 
L 83.557396 66.463736 
L 83.57895 63.265968 
L 83.632728 70.162091 
L 83.643466 69.262761 
L 83.69707 70.272707 
L 83.675648 66.88645 
L 83.707775 67.661394 
L 83.718471 65.615518 
L 83.793189 72.209573 
L 83.80384 70.921021 
L 83.83576 77.660538 
L 83.846387 76.583946 
L 83.867626 79.585987 
L 83.910033 69.025083 
L 83.92062 66.302215 
L 83.973474 76.892752 
L 83.994576 72.415741 
L 84.089252 79.85909 
L 84.026186 71.494853 
L 84.099745 76.505438 
L 84.141654 66.079372 
L 84.225208 68.496503 
L 84.24604 66.26608 
L 84.308408 72.101767 
L 84.318782 72.974507 
L 84.339517 67.862557 
L 84.380918 70.103754 
L 84.411913 63.439654 
L 84.494325 68.618501 
L 84.658122 77.782702 
L 84.545659 66.940037 
L 84.668314 75.734579 
L 84.719195 70.1326 
L 84.780079 74.397895 
L 84.790207 74.640589 
L 84.81045 80.998983 
L 84.891211 70.662054 
L 84.921409 67.93968 
L 84.951563 72.831301 
L 84.991697 70.301128 
L 85.011733 72.625236 
L 85.041748 67.412284 
L 85.081697 63.264633 
L 85.121564 69.384754 
L 85.141469 68.631762 
L 85.25058 75.759671 
L 85.201059 67.654228 
L 85.260469 74.20345 
L 85.388576 66.340826 
L 85.54511 77.081799 
L 85.593772 74.13065 
L 85.71007 64.924771 
L 85.661696 75.057186 
L 85.748681 67.002527 
L 85.892809 73.841013 
L 85.911947 70.958655 
L 85.95971 71.031181 
L 86.04539 64.019145 
L 86.092829 78.528702 
L 86.187364 76.73331 
L 86.290829 69.540782 
L 86.328319 72.677523 
L 86.33768 76.943921 
L 86.431046 71.510722 
L 86.440359 72.751881 
L 86.477564 65.65782 
L 86.49614 61.198912 
L 86.588758 63.632609 
L 86.61646 67.982622 
L 86.736045 78.170657 
L 86.745213 77.700142 
L 86.873129 68.01416 
L 86.891335 70.074876 
L 86.954922 79.324653 
L 87.009263 72.05382 
L 87.045406 74.024154 
L 87.07247 68.684589 
L 87.189318 64.802208 
L 87.198277 63.729774 
L 87.234075 68.853194 
L 87.269809 68.024897 
L 87.358856 74.830106 
L 87.403229 70.487516 
L 87.41209 67.987019 
L 87.491674 73.800204 
L 87.500497 72.248694 
L 87.562144 80.512805 
L 87.588506 71.615272 
L 87.606061 67.120709 
L 87.64988 72.298042 
L 87.702333 70.589294 
L 87.728507 72.328586 
L 87.789444 68.926089 
L 87.798134 68.308748 
L 87.850193 72.264659 
L 87.867516 70.890178 
L 87.876172 70.851264 
L 87.945278 65.587601 
L 87.988347 70.701136 
L 88.022734 74.332231 
L 88.065633 70.019091 
L 88.10844 73.22967 
L 88.2278 67.852715 
L 88.193771 75.212065 
L 88.244793 69.456216 
L 88.380207 75.297828 
L 88.388639 73.4655 
L 88.506315 65.056937 
L 88.514693 67.72131 
L 88.74785 74.018007 
L 88.53144 67.073288 
L 88.780934 73.194905 
L 88.822211 69.922052 
L 88.879851 74.910413 
L 88.888071 76.61208 
L 88.953713 67.755849 
L 88.961902 67.748787 
L 88.978272 66.383557 
L 89.027298 70.828824 
L 89.068059 74.270846 
L 89.100609 69.101381 
L 89.141219 71.755541 
L 89.189839 69.233069 
L 89.230266 73.720545 
L 89.254483 71.349609 
L 89.294775 67.206756 
L 89.343019 73.060861 
L 89.359074 71.925984 
L 89.439151 74.758354 
L 89.399152 69.261415 
L 89.46311 72.049486 
L 89.574538 67.988713 
L 89.534815 72.27086 
L 89.582472 68.027839 
L 89.693226 73.789266 
L 89.653743 66.924925 
L 89.708998 72.760686 
L 89.748369 68.788534 
L 89.77981 73.712023 
L 89.787663 73.706942 
L 89.795512 75.378876 
L 89.83471 66.049713 
L 89.881648 73.539179 
L 89.944054 76.015783 
L 90.006265 67.947366 
L 90.037297 73.291573 
L 90.091483 67.702376 
L 90.11466 69.043387 
L 90.14552 67.070992 
L 90.130097 69.737607 
L 90.168634 68.631469 
L 90.245484 67.882929 
L 90.299098 75.495943 
L 90.405894 68.913376 
L 90.428703 71.186413 
L 90.496972 75.354072 
L 90.549908 74.076004 
L 90.670367 68.060555 
L 90.700367 72.571888 
L 90.752758 64.293257 
L 90.76023 64.39313 
L 90.871983 74.244506 
L 90.901676 72.621154 
L 90.99049 67.224577 
L 90.953533 74.09782 
L 90.997871 71.314553 
L 91.049475 77.891426 
L 91.100943 72.356978 
L 91.122959 75.396857 
L 91.232672 65.347458 
L 91.239966 65.43115 
L 91.261827 39.414518 
L 91.305475 93.086951 
L 91.341776 72.877131 
L 91.349029 78.652554 
L 91.421402 59.010053 
L 91.450277 75.814783 
L 91.522278 73.248446 
L 91.543829 80.861148 
L 91.586856 61.780134 
L 91.67976 74.911537 
L 91.701138 80.091123 
L 91.75803 67.647128 
L 91.772228 69.658568 
L 91.786414 70.086661 
L 91.828914 66.693213 
L 91.885439 50.666196 
L 91.899543 75.151517 
L 91.920683 82.130452 
L 91.990984 65.230655 
L 91.998 65.266665 
L 92.088985 80.19713 
L 92.033044 62.649577 
L 92.123866 75.269257 
L 92.151726 65.095162 
L 92.235072 70.880858 
L 92.262777 73.460432 
L 92.283529 70.003805 
L 92.393837 63.186353 
L 92.33876 71.709139 
L 92.400711 65.484617 
L 92.524029 80.003571 
L 92.599011 72.519601 
L 92.612614 68.96851 
L 92.673707 75.099528 
L 92.707567 70.019379 
L 92.714332 71.783708 
L 92.748122 64.795559 
L 92.815526 71.636298 
L 92.835703 64.899215 
L 92.889404 73.78954 
L 92.922894 71.139747 
L 92.969683 64.447895 
L 93.049636 74.593842 
L 93.056284 74.592059 
L 93.155735 66.533391 
L 93.122641 75.734924 
L 93.175566 69.789555 
L 93.234935 76.141307 
L 93.280988 71.226959 
L 93.340041 66.341347 
L 93.392384 70.788199 
L 93.431548 71.249461 
L 93.418502 68.542729 
L 93.438068 69.109122 
L 93.503148 66.556059 
L 93.451103 70.203117 
L 93.509647 68.730001 
L 93.600367 76.137665 
L 93.626212 74.602616 
L 93.690673 68.570836 
L 93.742092 73.575013 
L 93.793375 65.859721 
L 93.901908 70.165896 
L 93.965473 68.527476 
L 94.022506 73.939296 
L 94.161223 68.160857 
L 94.060435 80.596456 
L 94.167506 68.878332 
L 94.21769 74.5099 
L 94.236479 67.081192 
L 94.286486 70.304282 
L 94.355043 67.49971 
L 94.336369 72.546015 
L 94.386127 70.825252 
L 94.410956 74.402699 
L 94.44195 69.67711 
L 94.491441 73.113602 
L 94.553126 77.226135 
L 94.614621 66.428459 
L 94.620758 66.447381 
L 94.730932 78.336192 
L 94.663679 64.607624 
L 94.749234 73.515746 
L 94.797955 66.221173 
L 94.870812 67.430403 
L 95.01572 78.992546 
L 94.888984 67.012134 
L 95.063786 72.128202 
L 95.111736 63.764454 
L 95.081782 74.243078 
L 95.183438 69.14675 
L 95.213239 67.68227 
L 95.260826 70.965907 
L 95.278638 69.523037 
L 95.302367 76.301602 
L 95.379287 67.752582 
L 95.385189 67.758927 
L 95.45002 75.052941 
L 95.502907 72.811754 
L 95.584889 69.212312 
L 95.608251 73.078134 
L 95.619921 73.819018 
L 95.625752 72.723294 
L 95.747837 66.898892 
L 95.75363 67.359321 
L 95.805706 74.735767 
L 95.892191 74.055461 
L 95.9439 67.559887 
L 96.052617 69.654638 
L 96.064027 74.760145 
L 96.15506 67.52944 
L 96.160734 67.503792 
L 96.22306 75.448734 
L 96.172082 67.297608 
L 96.279546 68.848748 
L 96.285188 68.768286 
L 96.302096 70.028873 
L 96.380817 73.747901 
L 96.425658 71.923793 
L 96.537317 66.291402 
L 96.470397 74.41111 
L 96.559571 67.970974 
L 96.687053 72.96675 
L 96.692577 72.965662 
L 96.70362 73.387909 
L 96.720173 70.872537 
L 96.819201 69.518749 
L 96.76975 76.13491 
L 96.824689 70.356257 
L 96.830175 71.075941 
L 96.857578 66.795849 
L 96.928649 69.704278 
L 96.955917 68.409082 
L 96.988587 70.723511 
L 97.037491 75.253368 
L 97.086274 69.617232 
L 97.097097 70.982897 
L 97.178091 68.929704 
L 97.151129 74.208691 
L 97.194247 71.304131 
L 97.221149 74.535011 
L 97.280201 67.966599 
L 97.296275 70.666054 
L 97.323036 66.93671 
L 97.381783 72.408731 
L 97.40843 69.979118 
L 97.419079 68.861939 
L 97.466922 73.379984 
L 97.47754 73.10556 
L 97.48815 75.390693 
L 97.51465 69.45265 
L 97.583388 71.386211 
L 97.60449 74.274051 
L 97.672913 67.580736 
L 97.693919 73.215738 
L 97.741099 67.190434 
L 97.819482 70.662113 
L 97.944248 75.134828 
L 97.840333 68.835324 
L 97.959788 74.929976 
L 97.996002 73.589398 
L 97.975316 75.739858 
L 97.996002 73.589398 
" clip-path="url(#pf87a26289f)" style="fill: none; stroke: #c0c0c0; stroke-linecap: square"/>
   </g>
   <g id="line2d_2">
    <path d="M 98.001168 69.329387 
L 98.006335 69.293132 
L 98.063077 69.588316 
L 98.068226 69.582611 
L 98.298596 71.424984 
L 98.329109 71.434057 
L 98.364648 71.352819 
L 98.556455 70.620409 
L 98.631656 70.771459 
L 98.79113 71.196944 
L 98.845651 71.120127 
L 99.02303 70.752427 
L 99.081804 70.835772 
L 99.252226 71.106738 
L 99.295811 71.054218 
L 99.473984 70.819145 
L 99.526643 70.879805 
L 99.693263 71.0558 
L 99.735881 71.015344 
L 99.924183 70.869638 
L 99.956951 70.901539 
L 100.161677 70.994557 
L 100.170932 70.98585 
L 100.387184 70.923795 
L 100.605604 70.962075 
L 100.826098 70.94503 
L 101.066257 70.942321 
L 101.533623 70.929885 
L 102.489765 70.953596 
L 104.061401 70.954662 
L 104.519006 70.94886 
L 112.512401 70.948824 
L 165.790505 70.948824 
L 165.790505 70.948824 
" clip-path="url(#pf87a26289f)" style="fill: none; stroke: #808080; stroke-linecap: square"/>
   </g>
   <g id="line2d_3">
    <path d="M 57.377031 25.41395 
L 165.790668 25.41395 
" clip-path="url(#pf87a26289f)" style="fill: none; stroke-dasharray: 6.4,1.6,1,1.6; stroke-dashoffset: 0; stroke: #808080"/>
   </g>
   <g id="matplotlib.axis_1">
    <g id="xtick_1">
     <g id="line2d_4">
      <defs>
       <path id="m2e8058efb2" d="M 0 0 
L 0 6 
" style="stroke: #000000"/>
      </defs>
      <g>
       <use xlink:href="#m2e8058efb2" x="57.377031" y="116.483699" style="stroke: #000000"/>
      </g>
     </g>
     <g id="text_1">
      <!-- $\mathdefault{10^{1}}$ -->
      <g transform="translate(44.032031 140.014949)scale(0.17 -0.17)">
       <defs>
        <path id="ArialMT-31" d="M 2384 0 
L 1822 0 
L 1822 3584 
Q 1619 3391 1289 3197 
Q 959 3003 697 2906 
L 697 3450 
Q 1169 3672 1522 3987 
Q 1875 4303 2022 4600 
L 2384 4600 
L 2384 0 
z
" transform="scale(0.015625)"/>
        <path id="ArialMT-30" d="M 266 2259 
Q 266 3072 433 3567 
Q 600 4063 929 4331 
Q 1259 4600 1759 4600 
Q 2128 4600 2406 4451 
Q 2684 4303 2865 4023 
Q 3047 3744 3150 3342 
Q 3253 2941 3253 2259 
Q 3253 1453 3087 958 
Q 2922 463 2592 192 
Q 2263 -78 1759 -78 
Q 1097 -78 719 397 
Q 266 969 266 2259 
z
M 844 2259 
Q 844 1131 1108 757 
Q 1372 384 1759 384 
Q 2147 384 2411 759 
Q 2675 1134 2675 2259 
Q 2675 3391 2411 3762 
Q 2147 4134 1753 4134 
Q 1366 4134 1134 3806 
Q 844 3388 844 2259 
z
" transform="scale(0.015625)"/>
       </defs>
       <use xlink:href="#ArialMT-31" transform="translate(0 0.99375)"/>
       <use xlink:href="#ArialMT-30" transform="translate(55.615234 0.99375)"/>
       <use xlink:href="#ArialMT-31" transform="translate(112.972813 70.6875)scale(0.7)"/>
      </g>
     </g>
    </g>
    <g id="xtick_2">
     <g id="line2d_5">
      <g>
       <use xlink:href="#m2e8058efb2" x="102.588186" y="116.483699" style="stroke: #000000"/>
      </g>
     </g>
     <g id="text_2">
      <!-- $\mathdefault{10^{2}}$ -->
      <g transform="translate(89.243186 140.014949)scale(0.17 -0.17)">
       <defs>
        <path id="ArialMT-32" d="M 3222 541 
L 3222 0 
L 194 0 
Q 188 203 259 391 
Q 375 700 629 1000 
Q 884 1300 1366 1694 
Q 2113 2306 2375 2664 
Q 2638 3022 2638 3341 
Q 2638 3675 2398 3904 
Q 2159 4134 1775 4134 
Q 1369 4134 1125 3890 
Q 881 3647 878 3216 
L 300 3275 
Q 359 3922 746 4261 
Q 1134 4600 1788 4600 
Q 2447 4600 2831 4234 
Q 3216 3869 3216 3328 
Q 3216 3053 3103 2787 
Q 2991 2522 2730 2228 
Q 2469 1934 1863 1422 
Q 1356 997 1212 845 
Q 1069 694 975 541 
L 3222 541 
z
" transform="scale(0.015625)"/>
       </defs>
       <use xlink:href="#ArialMT-31" transform="translate(0 0.99375)"/>
       <use xlink:href="#ArialMT-30" transform="translate(55.615234 0.99375)"/>
       <use xlink:href="#ArialMT-32" transform="translate(112.972813 70.6875)scale(0.7)"/>
      </g>
     </g>
    </g>
    <g id="xtick_3">
     <g id="line2d_6">
      <g>
       <use xlink:href="#m2e8058efb2" x="147.79934" y="116.483699" style="stroke: #000000"/>
      </g>
     </g>
     <g id="text_3">
      <!-- $\mathdefault{10^{3}}$ -->
      <g transform="translate(134.45434 140.014949)scale(0.17 -0.17)">
       <defs>
        <path id="ArialMT-33" d="M 269 1209 
L 831 1284 
Q 928 806 1161 595 
Q 1394 384 1728 384 
Q 2125 384 2398 659 
Q 2672 934 2672 1341 
Q 2672 1728 2419 1979 
Q 2166 2231 1775 2231 
Q 1616 2231 1378 2169 
L 1441 2663 
Q 1497 2656 1531 2656 
Q 1891 2656 2178 2843 
Q 2466 3031 2466 3422 
Q 2466 3731 2256 3934 
Q 2047 4138 1716 4138 
Q 1388 4138 1169 3931 
Q 950 3725 888 3313 
L 325 3413 
Q 428 3978 793 4289 
Q 1159 4600 1703 4600 
Q 2078 4600 2393 4439 
Q 2709 4278 2876 4000 
Q 3044 3722 3044 3409 
Q 3044 3113 2884 2869 
Q 2725 2625 2413 2481 
Q 2819 2388 3044 2092 
Q 3269 1797 3269 1353 
Q 3269 753 2831 336 
Q 2394 -81 1725 -81 
Q 1122 -81 723 278 
Q 325 638 269 1209 
z
" transform="scale(0.015625)"/>
       </defs>
       <use xlink:href="#ArialMT-31" transform="translate(0 0.99375)"/>
       <use xlink:href="#ArialMT-30" transform="translate(55.615234 0.99375)"/>
       <use xlink:href="#ArialMT-33" transform="translate(112.972813 70.6875)scale(0.7)"/>
      </g>
     </g>
    </g>
    <g id="xtick_4">
     <g id="line2d_7">
      <defs>
       <path id="m7aefec6cc4" d="M 0 0 
L 0 3 
" style="stroke: #000000"/>
      </defs>
      <g>
       <use xlink:href="#m7aefec6cc4" x="70.986945" y="116.483699" style="stroke: #000000"/>
      </g>
     </g>
    </g>
    <g id="xtick_5">
     <g id="line2d_8">
      <g>
       <use xlink:href="#m7aefec6cc4" x="78.948234" y="116.483699" style="stroke: #000000"/>
      </g>
     </g>
    </g>
    <g id="xtick_6">
     <g id="line2d_9">
      <g>
       <use xlink:href="#m7aefec6cc4" x="84.596859" y="116.483699" style="stroke: #000000"/>
      </g>
     </g>
    </g>
    <g id="xtick_7">
     <g id="line2d_10">
      <g>
       <use xlink:href="#m7aefec6cc4" x="88.978272" y="116.483699" style="stroke: #000000"/>
      </g>
     </g>
    </g>
    <g id="xtick_8">
     <g id="line2d_11">
      <g>
       <use xlink:href="#m7aefec6cc4" x="92.558148" y="116.483699" style="stroke: #000000"/>
      </g>
     </g>
    </g>
    <g id="xtick_9">
     <g id="line2d_12">
      <g>
       <use xlink:href="#m7aefec6cc4" x="95.584889" y="116.483699" style="stroke: #000000"/>
      </g>
     </g>
    </g>
    <g id="xtick_10">
     <g id="line2d_13">
      <g>
       <use xlink:href="#m7aefec6cc4" x="98.206772" y="116.483699" style="stroke: #000000"/>
      </g>
     </g>
    </g>
    <g id="xtick_11">
     <g id="line2d_14">
      <g>
       <use xlink:href="#m7aefec6cc4" x="100.519437" y="116.483699" style="stroke: #000000"/>
      </g>
     </g>
    </g>
    <g id="xtick_12">
     <g id="line2d_15">
      <g>
       <use xlink:href="#m7aefec6cc4" x="116.198099" y="116.483699" style="stroke: #000000"/>
      </g>
     </g>
    </g>
    <g id="xtick_13">
     <g id="line2d_16">
      <g>
       <use xlink:href="#m7aefec6cc4" x="124.159389" y="116.483699" style="stroke: #000000"/>
      </g>
     </g>
    </g>
    <g id="xtick_14">
     <g id="line2d_17">
      <g>
       <use xlink:href="#m7aefec6cc4" x="129.808013" y="116.483699" style="stroke: #000000"/>
      </g>
     </g>
    </g>
    <g id="xtick_15">
     <g id="line2d_18">
      <g>
       <use xlink:href="#m7aefec6cc4" x="134.189427" y="116.483699" style="stroke: #000000"/>
      </g>
     </g>
    </g>
    <g id="xtick_16">
     <g id="line2d_19">
      <g>
       <use xlink:href="#m7aefec6cc4" x="137.769302" y="116.483699" style="stroke: #000000"/>
      </g>
     </g>
    </g>
    <g id="xtick_17">
     <g id="line2d_20">
      <g>
       <use xlink:href="#m7aefec6cc4" x="140.796044" y="116.483699" style="stroke: #000000"/>
      </g>
     </g>
    </g>
    <g id="xtick_18">
     <g id="line2d_21">
      <g>
       <use xlink:href="#m7aefec6cc4" x="143.417927" y="116.483699" style="stroke: #000000"/>
      </g>
     </g>
    </g>
    <g id="xtick_19">
     <g id="line2d_22">
      <g>
       <use xlink:href="#m7aefec6cc4" x="145.730591" y="116.483699" style="stroke: #000000"/>
      </g>
     </g>
    </g>
    <g id="xtick_20">
     <g id="line2d_23">
      <g>
       <use xlink:href="#m7aefec6cc4" x="161.409254" y="116.483699" style="stroke: #000000"/>
      </g>
     </g>
    </g>
    <g id="text_4">
     <!-- Time (ms) -->
     <g transform="translate(73.663224 159.769168)scale(0.17 -0.17)">
      <defs>
       <path id="ArialMT-54" d="M 1659 0 
L 1659 4041 
L 150 4041 
L 150 4581 
L 3781 4581 
L 3781 4041 
L 2266 4041 
L 2266 0 
L 1659 0 
z
" transform="scale(0.015625)"/>
       <path id="ArialMT-69" d="M 425 3934 
L 425 4581 
L 988 4581 
L 988 3934 
L 425 3934 
z
M 425 0 
L 425 3319 
L 988 3319 
L 988 0 
L 425 0 
z
" transform="scale(0.015625)"/>
       <path id="ArialMT-6d" d="M 422 0 
L 422 3319 
L 925 3319 
L 925 2853 
Q 1081 3097 1340 3245 
Q 1600 3394 1931 3394 
Q 2300 3394 2536 3241 
Q 2772 3088 2869 2813 
Q 3263 3394 3894 3394 
Q 4388 3394 4653 3120 
Q 4919 2847 4919 2278 
L 4919 0 
L 4359 0 
L 4359 2091 
Q 4359 2428 4304 2576 
Q 4250 2725 4106 2815 
Q 3963 2906 3769 2906 
Q 3419 2906 3187 2673 
Q 2956 2441 2956 1928 
L 2956 0 
L 2394 0 
L 2394 2156 
Q 2394 2531 2256 2718 
Q 2119 2906 1806 2906 
Q 1569 2906 1367 2781 
Q 1166 2656 1075 2415 
Q 984 2175 984 1722 
L 984 0 
L 422 0 
z
" transform="scale(0.015625)"/>
       <path id="ArialMT-65" d="M 2694 1069 
L 3275 997 
Q 3138 488 2766 206 
Q 2394 -75 1816 -75 
Q 1088 -75 661 373 
Q 234 822 234 1631 
Q 234 2469 665 2931 
Q 1097 3394 1784 3394 
Q 2450 3394 2872 2941 
Q 3294 2488 3294 1666 
Q 3294 1616 3291 1516 
L 816 1516 
Q 847 969 1125 678 
Q 1403 388 1819 388 
Q 2128 388 2347 550 
Q 2566 713 2694 1069 
z
M 847 1978 
L 2700 1978 
Q 2663 2397 2488 2606 
Q 2219 2931 1791 2931 
Q 1403 2931 1139 2672 
Q 875 2413 847 1978 
z
" transform="scale(0.015625)"/>
       <path id="ArialMT-20" transform="scale(0.015625)"/>
       <path id="ArialMT-28" d="M 1497 -1347 
Q 1031 -759 709 28 
Q 388 816 388 1659 
Q 388 2403 628 3084 
Q 909 3875 1497 4659 
L 1900 4659 
Q 1522 4009 1400 3731 
Q 1209 3300 1100 2831 
Q 966 2247 966 1656 
Q 966 153 1900 -1347 
L 1497 -1347 
z
" transform="scale(0.015625)"/>
       <path id="ArialMT-73" d="M 197 991 
L 753 1078 
Q 800 744 1014 566 
Q 1228 388 1613 388 
Q 2000 388 2187 545 
Q 2375 703 2375 916 
Q 2375 1106 2209 1216 
Q 2094 1291 1634 1406 
Q 1016 1563 777 1677 
Q 538 1791 414 1992 
Q 291 2194 291 2438 
Q 291 2659 392 2848 
Q 494 3038 669 3163 
Q 800 3259 1026 3326 
Q 1253 3394 1513 3394 
Q 1903 3394 2198 3281 
Q 2494 3169 2634 2976 
Q 2775 2784 2828 2463 
L 2278 2388 
Q 2241 2644 2061 2787 
Q 1881 2931 1553 2931 
Q 1166 2931 1000 2803 
Q 834 2675 834 2503 
Q 834 2394 903 2306 
Q 972 2216 1119 2156 
Q 1203 2125 1616 2013 
Q 2213 1853 2448 1751 
Q 2684 1650 2818 1456 
Q 2953 1263 2953 975 
Q 2953 694 2789 445 
Q 2625 197 2315 61 
Q 2006 -75 1616 -75 
Q 969 -75 630 194 
Q 291 463 197 991 
z
" transform="scale(0.015625)"/>
       <path id="ArialMT-29" d="M 791 -1347 
L 388 -1347 
Q 1322 153 1322 1656 
Q 1322 2244 1188 2822 
Q 1081 3291 891 3722 
Q 769 4003 388 4659 
L 791 4659 
Q 1378 3875 1659 3084 
Q 1900 2403 1900 1659 
Q 1900 816 1576 28 
Q 1253 -759 791 -1347 
z
" transform="scale(0.015625)"/>
      </defs>
      <use xlink:href="#ArialMT-54"/>
      <use xlink:href="#ArialMT-69" x="57.333984"/>
      <use xlink:href="#ArialMT-6d" x="79.550781"/>
      <use xlink:href="#ArialMT-65" x="162.851562"/>
      <use xlink:href="#ArialMT-20" x="218.466797"/>
      <use xlink:href="#ArialMT-28" x="246.25"/>
      <use xlink:href="#ArialMT-6d" x="279.550781"/>
      <use xlink:href="#ArialMT-73" x="362.851562"/>
      <use xlink:href="#ArialMT-29" x="412.851562"/>
     </g>
    </g>
   </g>
   <g id="matplotlib.axis_2">
    <g id="ytick_1">
     <g id="line2d_24">
      <defs>
       <path id="mc996a2e6b3" d="M 0 0 
L -6 0 
" style="stroke: #000000"/>
      </defs>
      <g>
       <use xlink:href="#mc996a2e6b3" x="57.377031" y="116.483699" style="stroke: #000000"/>
      </g>
     </g>
     <g id="text_5">
      <!-- 0.0 -->
      <g transform="translate(26.747031 122.567839)scale(0.17 -0.17)">
       <defs>
        <path id="ArialMT-2e" d="M 581 0 
L 581 641 
L 1222 641 
L 1222 0 
L 581 0 
z
" transform="scale(0.015625)"/>
       </defs>
       <use xlink:href="#ArialMT-30"/>
       <use xlink:href="#ArialMT-2e" x="55.615234"/>
       <use xlink:href="#ArialMT-30" x="83.398438"/>
      </g>
     </g>
    </g>
    <g id="ytick_2">
     <g id="line2d_25">
      <g>
       <use xlink:href="#mc996a2e6b3" x="57.377031" y="70.948824" style="stroke: #000000"/>
      </g>
     </g>
     <g id="text_6">
      <!-- 0.5 -->
      <g transform="translate(26.747031 77.032965)scale(0.17 -0.17)">
       <defs>
        <path id="ArialMT-35" d="M 266 1200 
L 856 1250 
Q 922 819 1161 601 
Q 1400 384 1738 384 
Q 2144 384 2425 690 
Q 2706 997 2706 1503 
Q 2706 1984 2436 2262 
Q 2166 2541 1728 2541 
Q 1456 2541 1237 2417 
Q 1019 2294 894 2097 
L 366 2166 
L 809 4519 
L 3088 4519 
L 3088 3981 
L 1259 3981 
L 1013 2750 
Q 1425 3038 1878 3038 
Q 2478 3038 2890 2622 
Q 3303 2206 3303 1553 
Q 3303 931 2941 478 
Q 2500 -78 1738 -78 
Q 1113 -78 717 272 
Q 322 622 266 1200 
z
" transform="scale(0.015625)"/>
       </defs>
       <use xlink:href="#ArialMT-30"/>
       <use xlink:href="#ArialMT-2e" x="55.615234"/>
       <use xlink:href="#ArialMT-35" x="83.398438"/>
      </g>
     </g>
    </g>
    <g id="ytick_3">
     <g id="line2d_26">
      <g>
       <use xlink:href="#mc996a2e6b3" x="57.377031" y="25.41395" style="stroke: #000000"/>
      </g>
     </g>
     <g id="text_7">
      <!-- 1.0 -->
      <g transform="translate(26.747031 31.49809)scale(0.17 -0.17)">
       <use xlink:href="#ArialMT-31"/>
       <use xlink:href="#ArialMT-2e" x="55.615234"/>
       <use xlink:href="#ArialMT-30" x="83.398438"/>
      </g>
     </g>
    </g>
    <g id="text_8">
     <!-- DR-NED -->
     <g transform="translate(19.368281 94.896224)rotate(-90)scale(0.17 -0.17)">
      <defs>
       <path id="ArialMT-44" d="M 494 0 
L 494 4581 
L 2072 4581 
Q 2606 4581 2888 4516 
Q 3281 4425 3559 4188 
Q 3922 3881 4101 3404 
Q 4281 2928 4281 2316 
Q 4281 1794 4159 1391 
Q 4038 988 3847 723 
Q 3656 459 3429 307 
Q 3203 156 2883 78 
Q 2563 0 2147 0 
L 494 0 
z
M 1100 541 
L 2078 541 
Q 2531 541 2789 625 
Q 3047 709 3200 863 
Q 3416 1078 3536 1442 
Q 3656 1806 3656 2325 
Q 3656 3044 3420 3430 
Q 3184 3816 2847 3947 
Q 2603 4041 2063 4041 
L 1100 4041 
L 1100 541 
z
" transform="scale(0.015625)"/>
       <path id="ArialMT-52" d="M 503 0 
L 503 4581 
L 2534 4581 
Q 3147 4581 3465 4457 
Q 3784 4334 3975 4021 
Q 4166 3709 4166 3331 
Q 4166 2844 3850 2509 
Q 3534 2175 2875 2084 
Q 3116 1969 3241 1856 
Q 3506 1613 3744 1247 
L 4541 0 
L 3778 0 
L 3172 953 
Q 2906 1366 2734 1584 
Q 2563 1803 2427 1890 
Q 2291 1978 2150 2013 
Q 2047 2034 1813 2034 
L 1109 2034 
L 1109 0 
L 503 0 
z
M 1109 2559 
L 2413 2559 
Q 2828 2559 3062 2645 
Q 3297 2731 3419 2920 
Q 3541 3109 3541 3331 
Q 3541 3656 3305 3865 
Q 3069 4075 2559 4075 
L 1109 4075 
L 1109 2559 
z
" transform="scale(0.015625)"/>
       <path id="ArialMT-2d" d="M 203 1375 
L 203 1941 
L 1931 1941 
L 1931 1375 
L 203 1375 
z
" transform="scale(0.015625)"/>
       <path id="ArialMT-4e" d="M 488 0 
L 488 4581 
L 1109 4581 
L 3516 984 
L 3516 4581 
L 4097 4581 
L 4097 0 
L 3475 0 
L 1069 3600 
L 1069 0 
L 488 0 
z
" transform="scale(0.015625)"/>
       <path id="ArialMT-45" d="M 506 0 
L 506 4581 
L 3819 4581 
L 3819 4041 
L 1113 4041 
L 1113 2638 
L 3647 2638 
L 3647 2100 
L 1113 2100 
L 1113 541 
L 3925 541 
L 3925 0 
L 506 0 
z
" transform="scale(0.015625)"/>
      </defs>
      <use xlink:href="#ArialMT-44"/>
      <use xlink:href="#ArialMT-52" x="72.216797"/>
      <use xlink:href="#ArialMT-2d" x="144.433594"/>
      <use xlink:href="#ArialMT-4e" x="177.734375"/>
      <use xlink:href="#ArialMT-45" x="249.951172"/>
      <use xlink:href="#ArialMT-44" x="316.650391"/>
     </g>
    </g>
   </g>
   <g id="line2d_27">
    <path d="M 54.987518 57.555588 
L 64.071109 25.41395 
L 70.257712 25.41395 
L 74.954977 25.41395 
L 78.742631 25.41395 
L 81.91645 25.41395 
L 84.647924 25.41395 
L 87.045406 29.23775 
L 89.181745 50.284791 
L 91.108284 54.494198 
L 92.862572 49.902115 
L 94.472895 25.41395 
L 95.961104 25.41395 
L 97.34442 27.324376 
" clip-path="url(#pf87a26289f)" style="fill: none; stroke: #ff0000; stroke-width: 1.5; stroke-linecap: square"/>
   </g>
   <g id="line2d_28">
    <path d="M 97.34442 27.324376 
L 98.636658 25.41395 
L 165.655211 25.41395 
L 165.655211 25.41395 
" clip-path="url(#pf87a26289f)" style="fill: none; stroke-dasharray: 5.55,2.4; stroke-dashoffset: 0; stroke: #ff0000; stroke-width: 1.5"/>
   </g>
   <g id="line2d_29">
    <path d="M 98.001169 116.483699 
L 98.001169 7.2 
" clip-path="url(#pf87a26289f)" style="fill: none; stroke-dasharray: 10,3; stroke-dashoffset: 5; stroke: #000000"/>
   </g>
   <g id="patch_3">
    <path d="M 57.377031 116.483699 
L 57.377031 7.2 
" style="fill: none; stroke: #000000; stroke-linejoin: miter; stroke-linecap: square"/>
   </g>
   <g id="patch_4">
    <path d="M 165.790668 116.483699 
L 165.790668 7.2 
" style="fill: none; stroke: #000000; stroke-linejoin: miter; stroke-linecap: square"/>
   </g>
   <g id="patch_5">
    <path d="M 57.377031 116.483699 
L 165.790668 116.483699 
" style="fill: none; stroke: #000000; stroke-linejoin: miter; stroke-linecap: square"/>
   </g>
   <g id="patch_6">
    <path d="M 57.377031 7.2 
L 165.790668 7.2 
" style="fill: none; stroke: #000000; stroke-linejoin: miter; stroke-linecap: square"/>
   </g>
  </g>
 </g>
 <defs>
  <clipPath id="pf87a26289f">
   <rect x="57.377031" y="7.2" width="108.413636" height="109.283699"/>
  </clipPath>
 </defs>
</svg>
