<?xml version="1.0" encoding="utf-8" standalone="no"?>
<!DOCTYPE svg PUBLIC "-//W3C//DTD SVG 1.1//EN"
  "http://www.w3.org/Graphics/SVG/1.1/DTD/svg11.dtd">
<svg xmlns:xlink="http://www.w3.org/1999/xlink" width="172.990668pt" height="170.547136pt" viewBox="0 0 172.990668 170.547136" xmlns="http://www.w3.org/2000/svg" version="1.1">
 <metadata>
  <rdf:RDF xmlns:dc="http://purl.org/dc/elements/1.1/" xmlns:cc="http://creativecommons.org/ns#" xmlns:rdf="http://www.w3.org/1999/02/22-rdf-syntax-ns#">
   <cc:Work>
    <dc:type rdf:resource="http://purl.org/dc/dcmitype/StillImage"/>
    <dc:date>2024-08-16T06:09:49.523529</dc:date>
    <dc:format>image/svg+xml</dc:format>
    <dc:creator>
     <cc:Agent>
      <dc:title>Matplotlib v3.5.3, https://matplotlib.org/</dc:title>
     </cc:Agent>
    </dc:creator>
   </cc:Work>
  </rdf:RDF>
 </metadata>
 <defs>
  <style type="text/css">*{stroke-linejoin: round; stroke-linecap: butt}</style>
 </defs>
 <g id="figure_1">
  <g id="patch_1">
   <path d="M 0 170.547136 
L 172.990668 170.547136 
L 172.990668 0 
L 0 0 
z
" style="fill: #ffffff"/>
  </g>
  <g id="axes_1">
   <g id="patch_2">
    <path d="M 57.377031 116.483699 
L 165.790668 116.483699 
L 165.790668 7.2 
L 57.377031 7.2 
z
" style="fill: #ffffff"/>
   </g>
   <g id="line2d_1">
    <path d="M 57.336083 73.282109 
L 57.458672 73.28241 
L 57.620947 74.134398 
L 57.701582 73.858462 
L 57.941525 71.321233 
L 58.17857 66.016199 
L 58.2178 66.766786 
L 58.412785 72.783693 
L 58.451552 72.371651 
L 58.490243 72.286024 
L 58.605856 74.402227 
L 58.644243 74.203263 
L 58.873002 67.174774 
L 58.948666 67.690223 
L 59.211219 73.921149 
L 59.285596 73.525459 
L 59.543711 68.966084 
L 59.689696 69.526663 
L 59.726023 69.363372 
L 59.762284 69.50609 
L 59.906659 73.038603 
L 59.978449 72.206696 
L 60.085647 70.093159 
L 60.121251 70.637719 
L 60.227673 72.681307 
L 60.263019 72.570224 
L 60.368679 71.288745 
L 60.438804 71.598925 
L 60.473772 71.841901 
L 60.50868 71.718361 
L 60.785721 67.853074 
L 60.820076 68.162534 
L 61.092789 71.523848 
L 61.194087 71.678673 
L 61.227739 71.574314 
L 61.294866 71.224047 
L 61.328345 71.635649 
L 61.428438 75.530914 
L 61.461689 75.240989 
L 61.594136 68.56119 
L 61.627106 69.916661 
L 61.725692 74.667101 
L 61.758445 73.805187 
L 61.921392 67.717163 
L 61.953819 67.941634 
L 62.179325 71.806254 
L 62.243283 71.644261 
L 62.338831 70.891671 
L 62.497051 67.823414 
L 62.528542 68.156389 
L 62.716438 71.648804 
L 62.747579 71.452122 
L 62.933401 70.595965 
L 62.994952 71.450755 
L 63.147993 74.22858 
L 63.178458 73.877469 
L 63.33008 70.213447 
L 63.390402 70.55621 
L 63.510495 71.159288 
L 63.629856 72.913923 
L 63.659584 72.588235 
L 63.778044 70.347241 
L 63.807549 70.657749 
L 63.925124 72.469648 
L 63.954408 72.106115 
L 64.216018 68.232943 
L 64.331179 70.591987 
L 64.388506 70.009537 
L 64.445668 69.234062 
L 64.502664 69.678413 
L 64.559495 70.44212 
L 64.587849 70.282184 
L 64.700855 68.169569 
L 64.729007 68.764508 
L 64.813217 70.624089 
L 64.869157 70.174516 
L 64.924938 70.959407 
L 65.17401 74.617617 
L 65.256337 73.289122 
L 65.392787 69.495874 
L 65.447101 70.098701 
L 65.609152 71.944936 
L 65.689677 73.883005 
L 65.743179 73.06366 
L 65.769875 72.707161 
L 65.823159 73.275424 
L 65.876298 74.489542 
L 65.929293 73.379086 
L 66.061161 67.607275 
L 66.11366 67.738604 
L 66.166022 67.432406 
L 66.192149 67.625883 
L 66.502998 71.767535 
L 66.579949 72.181352 
L 66.605531 72.163608 
L 66.707532 68.556463 
L 66.758333 67.611308 
L 66.809003 68.669955 
L 66.909955 72.270103 
L 66.98533 71.563511 
L 67.035418 72.267457 
L 67.110315 73.514372 
L 67.160084 73.238222 
L 67.283966 70.884718 
L 67.333299 70.406853 
L 67.382511 71.011229 
L 67.480562 72.088723 
L 67.529407 71.638054 
L 67.602444 70.542916 
L 67.626731 70.916293 
L 67.699406 72.245864 
L 67.74771 71.520613 
L 67.91584 70.375462 
L 67.96361 70.123062 
L 68.011269 70.476643 
L 68.035056 70.643587 
L 68.08254 70.255662 
L 68.200751 69.326792 
L 68.224309 69.439057 
L 68.504813 71.661501 
L 68.528009 71.521234 
L 68.574318 71.307736 
L 68.597432 71.559082 
L 68.689613 73.244567 
L 68.735545 72.864467 
L 68.827082 69.693558 
L 68.895459 70.570274 
L 68.986255 70.901615 
L 69.008889 70.84811 
L 69.099164 69.6875 
L 69.144148 70.242542 
L 69.323055 71.541191 
L 69.389727 71.059225 
L 69.434049 71.330526 
L 69.456174 71.484415 
L 69.500346 71.293538 
L 69.697907 69.920428 
L 69.763318 70.302399 
L 69.958263 71.57268 
L 70.108558 72.625899 
L 70.129936 72.388633 
L 70.321288 70.149395 
L 70.384663 70.596552 
L 70.426797 70.335912 
L 70.573563 69.801747 
L 70.594439 69.842382 
L 70.84325 71.040202 
L 70.863841 70.960565 
L 70.884411 70.904661 
L 70.92549 71.011577 
L 70.986945 71.280296 
L 71.027808 71.039727 
L 71.068586 70.684847 
L 71.109281 71.012828 
L 71.149893 71.549773 
L 71.210649 70.952502 
L 71.251051 70.592958 
L 71.311496 70.891508 
L 71.531555 72.891578 
L 71.591145 72.385702 
L 71.905941 69.027829 
L 72.061466 71.48594 
L 72.119472 70.737266 
L 72.292468 67.337391 
L 72.311597 68.409315 
L 72.387924 73.152657 
L 72.444973 71.720264 
L 72.50186 70.012404 
L 72.53969 71.319982 
L 72.596304 73.041694 
L 72.633954 71.751256 
L 72.671532 70.840212 
L 72.727766 71.795395 
L 72.783841 72.188604 
L 72.821132 71.853265 
L 72.895509 69.798837 
L 72.951105 70.776056 
L 73.043417 71.38649 
L 73.061828 71.301189 
L 73.135299 69.68731 
L 73.171931 70.58727 
L 73.226752 71.668169 
L 73.263215 70.791195 
L 73.29961 70.063385 
L 73.335936 70.889212 
L 73.372198 71.621436 
L 73.426461 70.797286 
L 73.516573 70.263821 
L 73.552501 70.471796 
L 73.570441 70.643858 
L 73.588363 70.464359 
L 73.642036 69.155712 
L 73.677736 70.810525 
L 73.71337 72.078268 
L 73.802176 72.072097 
L 73.872933 72.97083 
L 73.908217 72.388831 
L 74.048718 69.112102 
L 74.083686 69.451727 
L 74.18822 71.02205 
L 74.257602 71.007712 
L 74.32674 71.678521 
L 74.361217 71.300864 
L 74.549768 70.304244 
L 74.56682 70.271675 
L 74.583858 70.352381 
L 74.651857 71.472215 
L 74.719622 70.796396 
L 74.770293 70.212644 
L 74.804001 70.57098 
L 74.954977 71.780416 
L 74.988369 71.883522 
L 75.038352 71.707068 
L 75.187542 70.265232 
L 75.220541 70.523586 
L 75.253485 70.785501 
L 75.286376 70.242949 
L 75.3028 70.008056 
L 75.351989 70.841498 
L 75.384715 71.58317 
L 75.45 70.778732 
L 75.482562 71.064013 
L 75.515071 71.48603 
L 75.563733 70.751244 
L 75.676809 70.452781 
L 75.69291 70.478657 
L 75.725073 70.690117 
L 75.789239 71.709939 
L 75.837226 71.040067 
L 75.853197 71.005305 
L 75.869154 71.134487 
L 75.901029 71.361993 
L 75.932851 70.901165 
L 75.980491 70.217448 
L 76.043829 70.800353 
L 76.248279 71.602209 
L 76.279546 71.192444 
L 76.326351 69.641898 
L 76.373045 71.679902 
L 76.404113 72.210721 
L 76.435133 71.217506 
L 76.497023 68.312374 
L 76.543315 71.164247 
L 76.574113 73.262277 
L 76.63557 70.334675 
L 76.650903 70.206874 
L 76.666224 70.747515 
L 76.71212 72.584392 
L 76.757906 70.874274 
L 76.788371 69.709088 
L 76.849161 71.703206 
L 76.894629 72.608507 
L 76.939994 71.135201 
L 76.970178 70.615382 
L 77.045437 71.101717 
L 77.090453 71.311885 
L 77.120408 70.925092 
L 77.254639 68.602635 
L 77.284344 69.621108 
L 77.34362 71.504426 
L 77.37319 70.221671 
L 77.417463 67.80879 
L 77.476339 70.577124 
L 77.593562 73.073463 
L 77.622759 72.685367 
L 77.724608 71.590424 
L 77.75361 72.248176 
L 77.782571 72.936551 
L 77.854785 72.158448 
L 78.055582 69.385557 
L 78.169409 69.758902 
L 78.226075 70.586455 
L 78.296678 70.281147 
L 78.33892 69.743416 
L 78.381071 70.395193 
L 78.43713 71.653861 
L 78.479071 70.530252 
L 78.50698 69.861435 
L 78.562683 70.879903 
L 78.632089 72.326027 
L 78.70125 71.754589 
L 78.728846 71.910437 
L 78.756405 71.615082 
L 78.797668 71.16254 
L 78.852554 71.815908 
L 78.920945 71.082254 
L 78.975485 71.465644 
L 79.0027 71.593073 
L 79.029876 71.342921 
L 79.151707 70.324377 
L 79.165196 70.534855 
L 79.219066 71.815436 
L 79.286194 71.251394 
L 79.366445 69.093407 
L 79.419766 70.315329 
L 79.499475 70.5836 
L 79.539207 70.427203 
L 79.552434 70.396985 
L 79.565652 70.473191 
L 79.592061 70.734688 
L 79.618434 70.027228 
L 79.671075 64.535511 
L 79.710463 70.319948 
L 79.815113 76.24783 
L 79.841189 75.178278 
L 79.958102 70.811529 
L 79.971051 71.279376 
L 80.009841 73.64929 
L 80.061446 70.792525 
L 80.112912 69.439307 
L 80.151426 70.878741 
L 80.177057 71.826946 
L 80.240993 70.075761 
L 80.26651 70.200186 
L 80.279258 69.955636 
L 80.317446 68.409131 
L 80.368247 70.791103 
L 80.393597 71.365937 
L 80.431564 69.601697 
L 80.456835 68.594183 
L 80.519869 70.427779 
L 80.645332 72.62807 
L 80.670329 77.813722 
L 80.682817 71.679677 
L 80.720229 15.693143 
L 80.757567 95.104416 
L 80.769998 114.318924 
L 80.819645 81.143299 
L 80.856797 82.736022 
L 80.955528 66.717059 
L 80.980132 60.845831 
L 81.041511 69.997807 
L 81.078247 80.600359 
L 81.127119 61.225515 
L 81.200205 76.618472 
L 81.321408 70.573021 
L 81.357623 42.837919 
L 81.417834 78.443958 
L 81.441867 82.892034 
L 81.51379 76.560922 
L 81.525753 76.333934 
L 81.549653 77.990379 
L 81.561594 76.645659 
L 81.609278 34.560118 
L 81.633079 72.049401 
L 81.656851 108.228064 
L 81.739823 70.142604 
L 81.775276 65.372118 
L 81.810665 75.520709 
L 81.822448 76.958721 
L 81.845992 71.189111 
L 81.881254 64.949535 
L 81.928169 77.674795 
L 81.939882 78.06161 
L 81.998337 60.20574 
L 82.044976 76.571426 
L 82.056619 77.135897 
L 82.068252 74.25663 
L 82.207345 58.645344 
L 82.218891 58.092131 
L 82.23043 62.030569 
L 82.276521 87.039329 
L 82.345458 68.463907 
L 82.368384 66.946508 
L 82.41415 73.345322 
L 82.425577 72.354332 
L 82.505372 69.752139 
L 82.459814 73.261742 
L 82.516744 71.725898 
L 82.596168 70.265682 
L 82.64141 78.717809 
L 82.675275 72.257849 
L 82.720332 64.986685 
L 82.765291 73.747445 
L 82.787731 76.64736 
L 82.832534 66.186161 
L 82.84372 65.935819 
L 82.866069 67.743077 
L 82.888393 69.70234 
L 82.932968 63.750211 
L 82.944095 63.276863 
L 82.966333 65.079442 
L 83.032892 74.080051 
L 83.088187 67.466544 
L 83.11026 69.084348 
L 83.154335 73.098183 
L 83.231227 71.11858 
L 83.264088 72.324781 
L 83.30782 69.106511 
L 83.329648 67.994418 
L 83.351451 71.370298 
L 83.394989 81.813536 
L 83.481772 77.162994 
L 83.525022 67.835047 
L 83.546611 64.294288 
L 83.60048 68.411036 
L 83.643466 65.221139 
L 83.782533 74.128473 
L 83.80384 72.33833 
L 83.846387 64.233579 
L 83.899441 73.69145 
L 83.910033 73.502585 
L 83.994576 68.665232 
L 83.941779 73.831058 
L 84.057745 71.881144 
L 84.11023 75.474512 
L 84.131186 77.335295 
L 84.17303 71.655468 
L 84.204352 68.703089 
L 84.277249 70.848191 
L 84.308408 73.614289 
L 84.360227 68.910554 
L 84.370575 68.828642 
L 84.411913 72.69482 
L 84.484044 69.677447 
L 84.58663 67.368929 
L 84.617302 69.404534 
L 84.729357 72.41154 
L 84.668314 69.030082 
L 84.759806 71.510272 
L 84.769945 71.368249 
L 84.790207 72.352497 
L 84.820563 74.690499 
L 84.871052 70.240859 
L 84.901283 69.698416 
L 84.961605 70.822918 
L 85.071716 73.959632 
L 85.031749 70.082053 
L 85.101642 72.724664 
L 85.13152 73.073656 
L 85.151414 71.719764 
L 85.25058 68.890681 
L 85.19114 72.570672 
L 85.290106 69.846356 
L 85.299977 69.886426 
L 85.339402 67.827181 
L 85.378752 71.185707 
L 85.427828 72.747194 
L 85.447424 70.886053 
L 85.476779 67.477292 
L 85.56459 68.771804 
L 85.71973 76.273041 
L 85.603488 68.735104 
L 85.758324 72.590135 
L 85.854481 67.934605 
L 85.892809 70.203204 
L 85.931067 72.075712 
L 85.997837 70.058445 
L 86.007355 69.780962 
L 86.035887 71.934973 
L 86.054886 73.088705 
L 86.121238 70.327303 
L 86.196792 65.965337 
L 86.234462 70.018244 
L 86.328319 74.056362 
L 86.356389 72.528563 
L 86.449667 69.689763 
L 86.477564 70.591194 
L 86.523972 74.661561 
L 86.597997 72.929111 
L 86.634904 70.262811 
L 86.717694 67.09271 
L 86.763538 67.196845 
L 86.772694 66.255115 
L 86.809274 73.240613 
L 86.82754 75.736729 
L 86.891335 69.827037 
L 86.900431 70.137463 
L 86.936775 74.015304 
L 86.991166 69.05104 
L 87.000217 68.808759 
L 87.027343 70.551851 
L 87.135476 74.496732 
L 87.081482 69.090563 
L 87.153439 73.183755 
L 87.216184 69.056181 
L 87.269809 71.558043 
L 87.296564 73.126108 
L 87.332184 68.224225 
L 87.474017 72.961143 
L 87.535747 70.622276 
L 87.570937 68.541627 
L 87.606061 71.923614 
L 87.64988 69.9607 
L 87.676122 73.022221 
L 87.772052 71.751907 
L 87.832856 69.536602 
L 87.867516 72.195789 
L 87.902114 70.079002 
L 87.910754 69.9934 
L 87.919392 70.328324 
L 88.05706 72.728814 
L 88.099885 67.73336 
L 88.185254 71.384208 
L 88.193771 71.34655 
L 88.210794 71.582456 
L 88.2363 72.345975 
L 88.26177 70.144618 
L 88.278734 68.781205 
L 88.321079 71.593195 
L 88.354888 71.195323 
L 88.363332 71.251578 
L 88.413915 70.972361 
L 88.447566 69.840341 
L 88.514693 70.706467 
L 88.573243 73.139632 
L 88.598283 70.327596 
L 88.623289 67.227427 
L 88.681517 73.920444 
L 88.706418 76.230232 
L 88.756127 70.306817 
L 88.830455 68.562607 
L 88.863399 70.179543 
L 88.871628 70.248871 
L 88.879851 69.794212 
L 88.904503 68.436679 
L 88.937324 70.700534 
L 88.978272 69.400463 
L 89.010969 72.725172 
L 89.084341 69.363524 
L 89.100609 68.667615 
L 89.15744 72.03015 
L 89.173646 72.028823 
L 89.246414 74.052223 
L 89.262548 72.407561 
L 89.286722 70.56179 
L 89.383131 70.840478 
L 89.407158 72.466598 
L 89.44714 68.566684 
L 89.471092 69.588343 
L 89.495012 68.766946 
L 89.542765 70.520194 
L 89.661645 72.994277 
L 89.598333 68.413967 
L 89.677442 72.505141 
L 89.708998 69.325104 
L 89.756234 73.108187 
L 89.795512 70.320431 
L 89.826879 73.574476 
L 89.920676 71.96229 
L 90.076016 69.154121 
L 90.13781 70.05337 
L 90.160931 72.460724 
L 90.253152 70.830789 
L 90.291448 69.765476 
L 90.34494 71.041226 
L 90.451487 73.092993 
L 90.421103 70.750761 
L 90.481821 72.425363 
L 90.549908 68.054448 
L 90.580092 71.878585 
L 90.595165 72.689167 
L 90.670367 69.937142 
L 90.71535 69.601268 
L 90.730322 70.225324 
L 90.827358 71.668772 
L 90.775168 69.780485 
L 90.849683 71.175125 
L 90.871983 72.008487 
L 90.886836 72.34721 
L 90.923917 69.962676 
L 90.938731 69.300064 
L 91.005252 71.102105 
L 91.071549 72.739633 
L 91.115623 71.404981 
L 91.130292 71.67556 
L 91.159599 69.552941 
L 91.166919 69.301882 
L 91.210779 71.095792 
L 91.225378 71.057518 
L 91.290937 71.362129 
L 91.261827 70.768169 
L 91.298208 71.034359 
L 91.320004 69.39092 
L 91.392485 71.702592 
L 91.399718 71.928101 
L 91.435845 70.000109 
L 91.471906 70.725688 
L 91.493511 69.300102 
L 91.551006 73.413194 
L 91.558181 73.728636 
L 91.608334 71.707242 
L 91.67263 69.518455 
L 91.736715 70.031641 
L 91.76513 72.14729 
L 91.857196 70.857137 
L 91.885439 68.933569 
L 91.955865 71.465392 
L 92.005013 73.038668 
L 92.040045 70.716015 
L 92.061034 71.329009 
L 92.130834 69.651348 
L 92.151726 71.238602 
L 92.165642 72.083835 
L 92.248929 70.113867 
L 92.262777 70.010167 
L 92.283529 69.336682 
L 92.318066 71.339621 
L 92.33876 70.951031 
L 92.393837 70.280409 
L 92.359433 71.039597 
L 92.414452 70.937789 
L 92.435044 72.556771 
L 92.50353 70.43458 
L 92.524029 70.893223 
L 92.551329 70.178614 
L 92.57859 71.513594 
L 92.687258 72.731892 
L 92.63979 70.905106 
L 92.7008 72.552417 
L 92.748122 68.756182 
L 92.835703 71.020533 
L 92.842423 71.042414 
L 92.855857 70.740757 
L 92.936274 70.063086 
L 92.896107 71.434361 
L 92.956326 70.943174 
L 93.096126 73.390197 
L 92.996371 70.516703 
L 93.109389 73.180653 
L 93.168957 69.869458 
L 93.254686 70.829426 
L 93.261265 70.844082 
L 93.267841 70.629566 
L 93.287559 69.755927 
L 93.366229 71.124942 
L 93.379312 71.308428 
L 93.392384 70.827049 
L 93.418502 65.134033 
L 93.470636 75.703424 
L 93.477145 75.684713 
L 93.55506 66.741822 
L 93.639123 70.93831 
L 93.684237 73.306432 
L 93.735673 70.313418 
L 93.818965 68.997931 
L 93.78697 70.991096 
L 93.838137 70.125071 
L 93.87005 72.085681 
L 93.920999 68.45875 
L 93.952778 70.14002 
L 94.066748 74.028125 
L 94.091987 72.3369 
L 94.180063 67.615678 
L 94.211426 70.581581 
L 94.261498 72.861495 
L 94.317678 70.261573 
L 94.323911 70.271903 
L 94.373698 69.993128 
L 94.472895 72.652803 
L 94.509967 68.77828 
L 94.602338 71.209912 
L 94.68816 71.828328 
L 94.706502 71.471493 
L 94.737033 69.86701 
L 94.791871 72.757961 
L 94.804036 73.211705 
L 94.852623 70.842264 
L 94.919233 69.485838 
L 94.985618 70.156245 
L 95.111736 71.756405 
L 95.045777 69.982668 
L 95.123704 71.304457 
L 95.171508 70.065524 
L 95.195364 72.483276 
L 95.213239 74.292559 
L 95.290507 70.012013 
L 95.302367 69.741179 
L 95.331986 71.476381 
L 95.391093 70.117477 
L 95.520504 71.364894 
L 95.444136 69.376742 
L 95.532225 70.96534 
L 95.549796 69.555877 
L 95.573199 73.72396 
L 95.631585 71.924534 
L 95.718839 69.686175 
L 95.695608 72.332055 
L 95.74204 71.827288 
L 95.747837 72.011458 
L 95.794145 70.422948 
L 95.823032 69.413702 
L 95.897942 70.519629 
L 95.972568 72.538774 
L 96.001194 70.59963 
L 96.052617 69.260497 
L 96.075427 71.971507 
L 96.081126 72.082649 
L 96.143705 71.293948 
L 96.22306 69.503479 
L 96.183421 71.66732 
L 96.245673 71.464168 
L 96.262619 70.203079 
L 96.330246 69.683184 
L 96.302096 71.664044 
L 96.352738 71.189605 
L 96.397645 69.064366 
L 96.481567 72.802309 
L 96.531749 69.030587 
L 96.637267 70.658048 
L 96.670474 73.048089 
L 96.736713 70.341134 
L 96.742223 70.376265 
L 96.824689 71.643246 
L 96.84114 70.66315 
L 96.8521 69.898021 
L 96.939561 71.790127 
L 96.950466 71.94939 
L 97.010336 70.936095 
L 97.042916 69.307305 
L 97.091685 71.601973 
L 97.107917 72.08162 
L 97.134936 70.790137 
L 97.194247 71.441125 
L 97.269478 69.786314 
L 97.237272 71.450233 
L 97.317688 71.047671 
L 97.34442 72.536089 
L 97.397777 70.331325 
L 97.419079 70.686301 
L 97.440357 70.394303 
L 97.472231 70.775627 
L 97.498756 72.146715 
L 97.55698 70.077493 
L 97.583388 70.954041 
L 97.599216 70.265015 
L 97.641362 71.485639 
L 97.688669 70.950257 
L 97.751568 71.60492 
L 97.725385 70.366451 
L 97.77249 70.665566 
L 97.887163 69.877893 
L 97.80905 71.812182 
L 97.897554 70.074806 
L 97.902746 70.085152 
L 97.907939 70.007372 
L 97.913131 70.075159 
L 97.939067 72.278354 
L 97.996002 70.919713 
" clip-path="url(#p2c139bf8e1)" style="fill: none; stroke: #c0c0c0; stroke-linecap: square"/>
   </g>
   <g id="line2d_2">
    <path d="M 98.001168 70.878437 
L 98.021826 70.95872 
L 98.042463 70.631878 
L 98.093958 69.863243 
L 98.114517 70.931617 
L 98.140188 72.069877 
L 98.191426 70.726372 
L 98.222106 70.744155 
L 98.227215 70.738993 
L 98.232321 70.837053 
L 98.298596 71.559068 
L 98.329109 70.628008 
L 98.334188 70.619415 
L 98.349425 70.78574 
L 98.395058 71.30843 
L 98.455736 70.820502 
L 98.486006 70.111804 
L 98.536353 70.755592 
L 98.551431 71.488562 
L 98.576538 70.634506 
L 98.656659 71.460452 
L 98.731478 70.837465 
L 98.766297 71.334507 
L 98.7812 71.556783 
L 98.806013 70.406017 
L 98.83575 70.688646 
L 98.875324 70.309678 
L 98.895083 71.118764 
L 98.949316 70.424951 
L 98.954239 70.366169 
L 98.993579 70.915522 
L 99.086693 71.774991 
L 99.062232 70.911093 
L 99.10624 71.266471 
L 99.15015 70.099873 
L 99.193962 71.437301 
L 99.247378 71.910266 
L 99.223115 70.561459 
L 99.276453 70.63456 
L 99.392322 69.787471 
L 99.344126 70.95321 
L 99.397134 69.856702 
L 99.521861 72.616578 
L 99.54098 71.667849 
L 99.61251 70.0606 
L 99.660053 70.507844 
L 99.773687 71.106662 
L 99.712217 69.419722 
L 99.778407 71.022829 
L 99.787844 70.878437 
L 99.82555 72.520331 
L 99.830257 72.693401 
L 99.87258 70.809678 
L 99.89136 70.955007 
L 99.919497 71.596585 
L 99.942913 70.936877 
L 99.994333 71.077746 
L 100.036303 68.907465 
L 100.115337 70.021707 
L 100.230985 73.10772 
L 100.25864 71.449528 
L 100.355127 70.07162 
L 100.373452 71.11199 
L 100.382607 71.373487 
L 100.451141 69.752063 
L 100.460261 69.855084 
L 100.628218 72.506715 
L 100.637257 72.227693 
L 100.745389 69.275577 
L 100.776815 70.637632 
L 100.826098 71.791001 
L 100.848458 70.258827 
L 100.902022 71.038677 
L 100.937648 72.337803 
L 101.022003 70.121347 
L 101.035291 70.028075 
L 101.052993 70.854282 
L 101.061837 71.41507 
L 101.097175 70.506824 
L 101.163264 70.886427 
L 101.20281 71.251852 
L 101.185245 70.541608 
L 101.281666 71.106138 
L 101.290409 71.062808 
L 101.316612 71.744471 
L 101.320975 71.814586 
L 101.342779 70.597968 
L 101.390663 71.178664 
L 101.408047 69.938189 
L 101.494737 71.790217 
L 101.559503 70.018999 
L 101.624055 71.240907 
L 101.649817 71.444504 
L 101.684115 71.040072 
L 101.718353 70.483515 
L 101.748261 71.859372 
L 101.752529 71.859336 
L 101.841964 70.034735 
L 101.875927 71.202852 
L 101.888648 71.519872 
L 101.960578 70.689721 
L 101.977465 69.747584 
L 102.019619 72.292011 
L 102.070082 70.612679 
L 102.166446 70.926281 
L 102.145538 70.488352 
L 102.174804 70.5848 
L 102.195681 70.114898 
L 102.254018 71.839572 
L 102.299735 72.381785 
L 102.324626 70.474971 
L 102.341202 70.727496 
L 102.357764 70.354525 
L 102.366041 70.991449 
L 102.378448 71.719406 
L 102.456847 70.132388 
L 102.469199 70.451739 
L 102.555433 72.13626 
L 102.493876 69.801345 
L 102.608629 71.211575 
L 102.665755 69.676508 
L 102.698323 71.613899 
L 102.722714 70.920413 
L 102.795707 71.494856 
L 102.759244 70.173555 
L 102.836142 71.046325 
L 102.936864 72.222398 
L 102.872462 69.702954 
L 102.956946 71.324224 
L 103.037074 68.985365 
L 102.972998 71.412624 
L 103.057054 71.394776 
L 103.077014 71.80303 
L 103.120856 70.224852 
L 103.156654 70.937023 
L 103.263656 70.262784 
L 103.188418 72.668727 
L 103.27551 70.35179 
L 103.299195 70.76438 
L 103.314968 71.967664 
L 103.39365 69.434552 
L 103.436792 71.880181 
L 103.52279 70.857696 
L 103.62394 69.611701 
L 103.561755 72.151421 
L 103.631701 70.402869 
L 103.639456 71.389365 
L 103.736151 69.624332 
L 103.747724 64.542649 
L 103.774697 75.634793 
L 103.843888 70.000125 
L 103.901362 71.77834 
L 103.874563 69.540765 
L 103.951037 69.752291 
L 103.958668 69.987651 
L 104.053808 72.416167 
L 104.072781 70.342415 
L 104.076574 70.219185 
L 104.129589 71.621096 
L 104.156044 71.02138 
L 104.257751 71.60393 
L 104.216379 70.195322 
L 104.265265 71.081728 
L 104.302785 70.176443 
L 104.284034 71.698225 
L 104.370144 71.503554 
L 104.407464 71.753674 
L 104.437272 70.249316 
L 104.452158 70.693135 
L 104.467033 69.72065 
L 104.48561 71.67268 
L 104.556046 71.002056 
L 104.585629 67.48 
L 104.600404 72.527513 
L 104.607785 74.502062 
L 104.666749 68.97763 
L 104.703513 70.966561 
L 104.784149 69.840053 
L 104.73654 71.53944 
L 104.802429 71.3174 
L 104.809736 71.222964 
L 104.849879 70.437083 
L 104.827992 71.312521 
L 104.926287 70.819948 
L 104.940808 71.927191 
L 104.973438 70.418562 
L 105.034928 71.178358 
L 105.107022 70.391633 
L 105.074612 71.555111 
L 105.150152 70.487928 
L 105.178853 70.56167 
L 105.186021 70.376765 
L 105.193188 70.164029 
L 105.271841 71.573358 
L 105.278977 71.667996 
L 105.346629 70.733488 
L 105.414047 70.07048 
L 105.385689 70.883692 
L 105.463576 70.332541 
L 105.477705 70.912586 
L 105.52003 71.966098 
L 105.590369 71.384998 
L 105.653459 70.270052 
L 105.670947 71.42474 
L 105.709368 70.848626 
L 105.733779 70.091454 
L 105.775556 71.252425 
L 105.824183 71.969178 
L 105.865769 70.28055 
L 105.869229 70.300173 
L 105.900355 71.356429 
L 105.972789 70.651165 
L 105.989997 68.206372 
L 106.014061 72.815955 
L 106.079231 70.974179 
L 106.092923 71.810529 
L 106.17147 70.18236 
L 106.185098 70.729613 
L 106.195313 70.323064 
L 106.219128 71.559682 
L 106.300558 70.473842 
L 106.445616 71.470217 
L 106.465771 71.063742 
L 106.509372 70.005683 
L 106.559558 71.31575 
L 106.599616 71.843285 
L 106.579597 70.231588 
L 106.632935 70.456336 
L 106.639593 70.106029 
L 106.672844 71.999959 
L 106.732555 71.117483 
L 106.735867 71.278798 
L 106.749109 66.825687 
L 106.755727 62.340013 
L 106.775567 77.821003 
L 106.851435 72.704602 
L 106.871178 69.024746 
L 106.979413 71.086168 
L 107.03494 70.525578 
L 107.02189 72.017701 
L 107.06753 71.478468 
L 107.070785 71.685114 
L 107.11956 70.316762 
L 107.158493 70.553881 
L 107.164974 70.24435 
L 107.181168 71.676803 
L 107.26516 70.780323 
L 107.271605 70.888555 
L 107.287712 71.453461 
L 107.36163 70.17076 
L 107.364838 70.049939 
L 107.400086 71.358592 
L 107.441664 70.970591 
L 107.454438 71.81691 
L 107.534094 69.943102 
L 107.543629 68.150093 
L 107.565865 73.656088 
L 107.635582 71.523313 
L 107.7019 70.156842 
L 107.670349 72.199314 
L 107.75228 71.073135 
L 107.758567 71.080238 
L 107.764854 70.980346 
L 107.805665 69.704088 
L 107.786839 71.691706 
L 107.865159 71.130649 
L 107.880786 72.153739 
L 107.915122 69.177267 
L 107.980505 71.500653 
L 108.119881 68.409066 
L 108.04257 72.296937 
L 108.126051 70.233786 
L 108.135305 73.429904 
L 108.187661 69.801823 
L 108.239879 71.543207 
L 108.273593 72.069529 
L 108.285837 70.543676 
L 108.316416 70.320464 
L 108.362196 71.521432 
L 108.386566 70.773451 
L 108.407869 71.727809 
L 108.426109 70.116169 
L 108.495871 71.100854 
L 108.59252 69.929027 
L 108.535192 71.263759 
L 108.604569 70.970941 
L 108.697689 71.974012 
L 108.670699 70.38361 
L 108.709672 70.813956 
L 108.748569 70.305514 
L 108.733618 71.357482 
L 108.817195 70.771046 
L 108.891521 72.576765 
L 108.876678 68.75407 
L 108.930058 71.208799 
L 108.944859 70.142501 
L 108.992152 71.669043 
L 109.045219 70.496483 
L 109.180188 71.670998 
L 109.074641 70.206819 
L 109.18896 70.87752 
L 109.302617 69.935019 
L 109.273535 71.364094 
L 109.308426 70.275089 
L 109.386705 71.79714 
L 109.421396 70.657526 
L 109.522227 69.805834 
L 109.499227 71.848363 
L 109.527977 70.35706 
L 109.642549 71.695237 
L 109.616828 70.328948 
L 109.645404 71.642752 
L 109.762136 65.802834 
L 109.747937 71.837447 
L 109.770648 70.136199 
L 109.779161 76.08179 
L 109.824487 69.010405 
L 109.880997 70.846758 
L 109.909193 70.208632 
L 109.895102 71.427709 
L 109.987924 71.108893 
L 109.993536 71.09953 
L 109.999144 71.39431 
L 110.077518 71.856693 
L 110.063547 69.888608 
L 110.102643 71.004545 
L 110.183383 68.67053 
L 110.194492 71.688723 
L 110.202821 73.002845 
L 110.252719 70.297698 
L 110.305254 71.714879 
L 110.321812 69.948888 
L 110.415392 71.436761 
L 110.426371 72.327902 
L 110.497593 70.052871 
L 110.522186 71.01875 
L 110.565831 70.06782 
L 110.60666 72.297884 
L 110.631117 70.85172 
L 110.696188 72.009453 
L 110.715127 70.280643 
L 110.734045 70.690204 
L 110.769135 69.842838 
L 110.758344 71.827511 
L 110.83375 71.207252 
L 110.8445 72.613821 
L 110.916897 70.305856 
L 110.940971 70.727414 
L 110.999696 65.549533 
L 111.015681 75.642813 
L 111.04761 71.564263 
L 111.090106 69.060898 
L 111.106017 72.606156 
L 111.161607 70.726166 
L 111.193302 72.173199 
L 111.235483 69.883213 
L 111.274943 71.04451 
L 111.31695 70.153634 
L 111.351013 71.572131 
L 111.356247 72.102877 
L 111.369332 69.770676 
L 111.45285 70.99663 
L 111.460662 70.097968 
L 111.517853 71.324178 
L 111.564523 70.781066 
L 111.567112 70.767398 
L 111.57488 71.227637 
L 111.582643 71.838975 
L 111.639481 69.995468 
L 111.683289 71.148381 
L 111.729568 67.320363 
L 111.742403 72.826828 
L 111.747535 73.657489 
L 111.785982 69.69409 
L 111.844788 70.959179 
L 111.911054 71.513757 
L 111.888141 70.383756 
L 111.946643 70.948748 
L 112.04039 70.053717 
L 111.994839 71.666286 
L 112.055552 70.989842 
L 112.068175 71.701479 
L 112.083314 70.626846 
L 112.12111 70.704073 
L 112.209019 69.212686 
L 112.178923 71.371058 
L 112.21904 70.902126 
L 112.229058 72.575881 
L 112.291543 70.427621 
L 112.328943 70.955392 
L 112.35881 70.130266 
L 112.418406 71.30079 
L 112.428322 71.173185 
L 112.46546 71.5074 
L 112.497591 70.561556 
L 112.529668 70.828194 
L 112.554306 70.344006 
L 112.605948 71.619872 
L 112.610858 71.862479 
L 112.672146 70.105567 
L 112.706382 71.177215 
L 112.79658 70.233933 
L 112.781982 71.363906 
L 112.816029 71.200119 
L 112.823315 71.265198 
L 112.845164 70.899471 
L 112.866988 70.926911 
L 112.970921 70.533737 
L 112.896046 71.50172 
L 112.975742 70.715255 
L 113.091085 71.82772 
L 113.074308 70.077813 
L 113.093482 71.637403 
L 113.208139 70.321707 
L 113.143727 71.661962 
L 113.21052 70.519064 
L 113.326864 71.705274 
L 113.307917 70.43008 
L 113.329233 71.6709 
L 113.430754 70.203112 
L 113.447232 71.054362 
L 113.473098 71.579875 
L 113.505966 70.530274 
L 113.557507 71.030597 
L 113.634568 70.309776 
L 113.618246 71.182535 
L 113.669494 70.821772 
L 113.695068 71.626367 
L 113.72525 70.043219 
L 113.773906 70.420863 
L 113.780846 70.131102 
L 113.863949 71.532004 
L 113.866251 71.571314 
L 113.923747 70.745946 
L 113.983366 70.309097 
L 113.951286 71.444979 
L 114.02225 71.16143 
L 114.09068 71.724397 
L 114.11571 70.784785 
L 114.133896 70.436589 
L 114.172481 70.88538 
L 114.181551 70.810617 
L 114.190614 71.358359 
L 114.251687 70.593094 
L 114.299057 71.352814 
L 114.33957 71.480582 
L 114.323824 69.714776 
L 114.388971 71.090709 
L 114.400182 70.397305 
L 114.415865 71.702807 
L 114.503017 70.709908 
L 114.57424 71.414969 
L 114.534209 70.642414 
L 114.636347 70.801417 
L 114.67175 70.128404 
L 114.709296 71.584481 
L 114.711502 71.61965 
L 114.748972 70.679353 
L 114.795159 71.324932 
L 114.81492 70.390574 
L 114.906875 71.126307 
L 114.943974 71.459752 
L 114.994056 70.631037 
L 114.998403 70.658243 
L 115.007099 70.532488 
L 115.011446 70.707862 
L 115.083013 71.592943 
L 115.037499 70.573297 
L 115.126263 71.116172 
L 115.134902 70.350395 
L 115.231821 71.227882 
L 115.236118 71.097236 
L 115.353904 70.594201 
L 115.249002 71.639745 
L 115.360308 70.831994 
L 115.383774 71.26475 
L 115.434874 70.686627 
L 115.470988 70.888984 
L 115.509155 70.730867 
L 115.494323 71.085473 
L 115.540906 71.009045 
L 115.562043 71.429395 
L 115.578938 70.39623 
L 115.619002 70.759603 
L 115.625321 70.511568 
L 115.700985 71.487609 
L 115.726142 70.931932 
L 115.730333 70.86256 
L 115.784718 70.376618 
L 115.763817 71.238475 
L 115.836869 70.944113 
L 115.866012 71.465356 
L 115.926246 70.628366 
L 115.944901 70.903266 
L 115.953188 70.709436 
L 115.980092 71.297539 
L 116.025538 71.214794 
L 116.06882 71.309535 
L 116.058523 70.569612 
L 116.12433 71.056156 
L 116.185824 70.106479 
L 116.204234 71.553545 
L 116.238964 70.787966 
L 116.265479 71.335379 
L 116.291958 70.552697 
L 116.356989 71.062672 
L 116.446055 70.528368 
L 116.464224 71.171673 
L 116.486406 71.298614 
L 116.53472 70.741386 
L 116.550796 70.972502 
L 116.634989 70.439004 
L 116.650984 71.328376 
L 116.660975 70.99837 
L 116.732761 70.597784 
L 116.698895 71.25277 
L 116.770541 70.99162 
L 116.782455 71.284365 
L 116.800317 70.681877 
L 116.885423 71.207507 
L 116.891347 71.259555 
L 116.901216 70.760114 
L 116.936705 70.514521 
L 116.960327 71.330056 
L 117.005528 71.035336 
L 117.00749 71.033203 
L 117.013378 71.164445 
L 117.099522 71.290238 
L 117.042787 70.594223 
L 117.119047 71.05602 
L 117.173616 70.644151 
L 117.214443 71.32002 
L 117.218327 71.419051 
L 117.27262 70.480318 
L 117.317107 71.200233 
L 117.428845 70.710875 
L 117.432687 70.748514 
L 117.486391 71.2922 
L 117.501709 70.617233 
L 117.54377 70.752009 
L 117.553316 70.708389 
L 117.580024 71.097703 
L 117.612404 70.886145 
L 117.711121 71.500276 
L 117.699754 70.085744 
L 117.726263 71.051808 
L 117.796148 71.366623 
L 117.782946 70.570182 
L 117.830056 70.944845 
L 117.95763 70.335668 
L 117.87142 71.284614 
L 117.9595 70.425933 
L 117.98566 71.226956 
L 118.073228 70.805694 
L 118.078806 70.578883 
L 118.158558 71.220461 
L 118.180757 70.984371 
L 118.22139 70.515998 
L 118.26194 71.225146 
L 118.26378 71.258043 
L 118.331781 70.719951 
L 118.353787 71.017572 
L 118.361115 70.411462 
L 118.377596 71.520645 
L 118.465261 70.971807 
L 118.498034 71.291386 
L 118.485294 70.704491 
L 118.561603 70.76133 
L 118.63039 69.582606 
L 118.641229 71.45276 
L 118.666498 70.979865 
L 118.781595 70.634891 
L 118.702537 71.374931 
L 118.783389 70.697576 
L 118.80131 71.478775 
L 118.844256 70.563749 
L 118.896022 70.856279 
L 118.970754 71.335058 
L 118.992056 70.706082 
L 118.997376 70.395041 
L 119.078791 71.311435 
L 119.099974 70.93876 
L 119.107029 71.085845 
L 119.122896 70.262561 
L 119.126419 69.67185 
L 119.14227 72.154429 
L 119.228347 71.060273 
L 119.249369 71.379268 
L 119.30008 70.488949 
L 119.338465 71.043684 
L 119.36111 71.33207 
L 119.390685 70.743064 
L 119.413271 70.780703 
L 119.428893 69.947222 
L 119.456632 71.441424 
L 119.520632 70.821805 
L 119.630846 71.173461 
L 119.582703 70.679565 
L 119.641145 71.111054 
L 119.642861 71.135928 
L 119.670302 70.591335 
L 119.733611 70.900009 
L 119.823941 70.617868 
L 119.752392 71.225504 
L 119.83754 71.20216 
L 119.896923 70.637496 
L 119.876583 71.325616 
L 119.962883 71.023826 
L 120.013472 71.208253 
L 119.9747 70.635076 
L 120.06897 70.936703 
L 120.095819 69.378995 
L 120.102527 71.603544 
L 120.10588 72.239846 
L 120.131007 70.284241 
L 120.211196 71.071157 
L 120.234525 70.678745 
L 120.291061 71.202258 
L 120.309318 71.068814 
L 120.315953 71.378571 
L 120.339156 70.658813 
L 120.418502 71.062064 
L 120.443234 70.379853 
L 120.458057 71.621457 
L 120.536924 70.86199 
L 120.636699 71.279406 
L 120.605676 70.671146 
L 120.651375 71.034207 
L 120.729474 70.630673 
L 120.67093 71.234311 
L 120.75057 71.079833 
L 120.75706 71.20773 
L 120.791082 70.787168 
L 120.846039 70.989927 
L 120.936227 70.566832 
L 120.900846 71.2657 
L 120.950684 71.139891 
L 120.952289 71.145246 
L 120.958709 70.812593 
L 120.971544 70.357359 
L 120.981167 71.536471 
L 121.051577 71.239525 
L 121.054771 71.382552 
L 121.070734 70.794013 
L 121.155132 70.804934 
L 121.158309 70.748085 
L 121.202744 71.18777 
L 121.259726 71.026648 
L 121.284996 71.530823 
L 121.275525 70.263511 
L 121.374768 71.216292 
L 121.471947 71.254393 
L 121.415578 70.521719 
L 121.476637 71.163916 
L 121.546853 70.40003 
L 121.512558 71.314087 
L 121.588863 71.017173 
L 121.623026 71.149678 
L 121.636987 70.855753 
L 121.647836 68.57355 
L 121.658681 73.176631 
L 121.742135 71.1969 
L 121.751386 71.333392 
L 121.779113 70.616875 
L 121.845188 71.019768 
L 121.923274 70.509809 
L 121.865122 71.259246 
L 121.946181 71.050847 
L 121.969061 71.196718 
L 122.008656 70.646502 
L 122.057282 71.060278 
L 122.086094 70.884468 
L 122.099728 71.152102 
L 122.15266 71.341762 
L 122.139061 70.324106 
L 122.209965 71.144195 
L 122.241563 69.866261 
L 122.252083 71.644125 
L 122.324077 70.852724 
L 122.359978 70.625837 
L 122.409229 71.298141 
L 122.433066 70.86694 
L 122.522194 71.244307 
L 122.49995 70.698292 
L 122.544413 70.979936 
L 122.584345 70.732826 
L 122.644825 71.216979 
L 122.650716 71.10613 
L 122.744728 71.233608 
L 122.700714 70.757997 
L 122.752052 70.858375 
L 122.851412 70.089565 
L 122.793026 71.097679 
L 122.855784 70.730335 
L 122.864523 71.853971 
L 122.929956 70.668258 
L 122.967664 71.052633 
L 123.064497 70.490637 
L 122.985041 71.19766 
L 123.073146 71.152704 
L 123.07891 71.493835 
L 123.149377 70.668307 
L 123.182365 71.078737 
L 123.265311 70.698775 
L 123.211006 71.15623 
L 123.288129 71.087286 
L 123.299528 71.256233 
L 123.353589 70.723973 
L 123.396163 71.033509 
L 123.449959 70.770579 
L 123.417415 71.130704 
L 123.506424 71.035721 
L 123.60345 71.460319 
L 123.593627 70.68977 
L 123.613267 70.968672 
L 123.660875 70.686839 
L 123.687431 71.222231 
L 123.719529 71.063375 
L 123.754359 70.740399 
L 123.784959 71.135353 
L 123.833541 71.02759 
L 123.927587 71.089677 
L 123.915168 70.683853 
L 123.94276 70.98778 
L 123.953785 70.615708 
L 123.966182 71.228872 
L 124.051374 71.04097 
L 124.171657 70.74276 
L 124.078775 71.155025 
L 124.175744 70.911918 
L 124.179831 71.189103 
L 124.247819 70.737402 
L 124.289854 71.157478 
L 124.389832 70.783303 
L 124.414074 70.93603 
L 124.428876 71.158366 
L 124.466497 70.811904 
L 124.475892 70.822755 
L 124.510747 70.646317 
L 124.525472 71.208715 
L 124.586943 70.824003 
L 124.640236 71.177514 
L 124.685421 70.713616 
L 124.697367 70.832748 
L 124.784732 70.680243 
L 124.766234 71.135475 
L 124.800577 70.929652 
L 124.844078 71.293899 
L 124.816405 70.727344 
L 124.890113 70.858765 
L 124.895366 70.657022 
L 124.953071 71.196868 
L 124.997543 71.015409 
L 125.019743 70.750924 
L 125.057556 71.171412 
L 125.110888 70.930911 
L 125.123873 71.180996 
L 125.149818 70.724776 
L 125.219705 70.872097 
L 125.280328 70.757248 
L 125.239073 71.107552 
L 125.322782 71.000786 
L 125.363863 71.106182 
L 125.411254 70.756059 
L 125.48659 70.702228 
L 125.429155 71.156189 
L 125.514606 70.973818 
L 125.538771 71.293972 
L 125.554016 70.792433 
L 125.561636 70.803116 
L 125.567983 70.712091 
L 125.640191 71.119326 
L 125.671778 70.792129 
L 125.79511 71.214754 
L 125.762465 70.770796 
L 125.803889 71.060745 
L 125.831458 70.736127 
L 125.857739 71.309882 
L 125.918919 70.898364 
L 125.972452 71.106774 
L 125.933874 70.716563 
L 126.02584 70.721709 
L 126.0308 70.625229 
L 126.067952 71.216241 
L 126.129718 70.813695 
L 126.166682 71.325149 
L 126.191288 70.602278 
L 126.245311 71.08153 
L 126.348035 70.720776 
L 126.321184 71.130972 
L 126.360229 71.043706 
L 126.439301 71.263697 
L 126.432015 70.660979 
L 126.467206 70.834577 
L 126.541018 70.663872 
L 126.516848 71.137695 
L 126.577218 70.857104 
L 126.633799 70.823569 
L 126.589271 71.074641 
L 126.673426 70.96978 
L 126.678225 71.116259 
L 126.697404 70.781403 
L 126.779908 70.824362 
L 126.887 71.130647 
L 126.81567 70.790159 
L 126.891749 70.885977 
L 126.940331 70.633018 
L 126.948612 71.403025 
L 127.005313 70.782228 
L 127.053615 71.141761 
L 127.128779 71.00176 
L 127.19431 70.818825 
L 127.22816 71.066792 
L 127.238654 71.014003 
L 127.254965 71.078761 
L 127.259624 70.918193 
L 127.332843 70.57352 
L 127.340962 71.435279 
L 127.373402 70.827011 
L 127.404636 71.151276 
L 127.458883 70.784036 
L 127.487677 71.063769 
L 127.519877 70.626743 
L 127.506083 71.124792 
L 127.602435 70.845873 
L 127.722213 71.313514 
L 127.666407 70.671336 
L 127.726762 71.127637 
L 127.765382 70.755733 
L 127.800528 71.143582 
L 127.844655 70.878888 
L 127.883045 71.326685 
L 127.875147 70.54094 
L 127.956227 70.930624 
L 128.036974 71.058612 
L 128.001127 70.832319 
L 128.067169 70.930119 
L 128.095086 70.7974 
L 128.106241 71.14543 
L 128.177487 70.895004 
L 128.281664 71.155871 
L 128.231861 70.785632 
L 128.288293 70.906875 
L 128.330238 70.702217 
L 128.375391 71.173879 
L 128.377591 71.28288 
L 128.420442 70.772767 
L 128.481809 70.944824 
L 128.524433 71.166123 
L 128.504772 70.727588 
L 128.592004 70.942327 
L 128.63439 70.760988 
L 128.648499 71.116816 
L 128.692927 71.02898 
L 128.776098 71.192015 
L 128.727535 70.724836 
L 128.795489 70.846861 
L 128.805176 70.249425 
L 128.817012 71.38985 
L 128.905014 70.909182 
L 128.91893 71.111181 
L 128.922138 71.139929 
L 128.970222 70.814314 
L 129.022448 70.962229 
L 129.046915 70.72318 
L 129.060729 71.166796 
L 129.127541 71.056948 
L 129.173014 70.48478 
L 129.182516 71.331924 
L 129.244709 70.998196 
L 129.251022 71.219349 
L 129.272053 70.747694 
L 129.353857 70.968602 
L 129.432193 70.812691 
L 129.442615 71.064279 
L 129.464482 70.972893 
L 129.533048 70.741164 
L 129.541344 71.19763 
L 129.571383 70.998552 
L 129.637514 71.143387 
L 129.593106 70.793046 
L 129.683881 71.054356 
L 129.753738 70.771925 
L 129.759888 71.233057 
L 129.799829 70.926455 
L 129.886601 70.879072 
L 129.817215 71.013781 
L 129.906961 70.939385 
L 129.93543 71.099231 
L 129.926285 70.72457 
L 130.016545 70.921591 
L 130.082206 71.05133 
L 130.024639 70.864834 
L 130.124516 70.895313 
L 130.13156 70.82745 
L 130.213873 71.096463 
L 130.233899 70.91669 
L 130.296841 71.090321 
L 130.317777 70.835641 
L 130.351628 70.982886 
L 130.366543 70.784546 
L 130.402295 71.057421 
L 130.46668 70.8568 
L 130.478543 71.116284 
L 130.584993 71.026662 
L 130.597768 70.824427 
L 130.641922 71.063839 
L 130.698688 70.941393 
L 130.769902 71.127436 
L 130.747491 70.821338 
L 130.805898 70.891476 
L 130.809785 70.864677 
L 130.821443 71.007964 
L 130.830182 70.990296 
L 130.855405 71.060287 
L 130.934747 70.845868 
L 130.937644 70.886786 
L 131.009921 70.804511 
L 130.981042 71.159755 
L 131.023383 71.023869 
L 131.027229 71.073086 
L 131.063715 70.83765 
L 131.132665 71.004669 
L 131.162276 70.81262 
L 131.215655 71.050101 
L 131.249893 70.93654 
L 131.347526 71.021277 
L 131.310616 70.857175 
L 131.358869 70.924343 
L 131.434324 70.846237 
L 131.390972 71.059315 
L 131.469123 70.929565 
L 131.552578 71.1685 
L 131.527299 70.784481 
L 131.575022 70.827711 
L 131.694294 71.064822 
L 131.737907 70.906153 
L 131.807303 70.789084 
L 131.829459 71.068839 
L 131.839604 71.050641 
L 131.898533 71.10505 
L 131.864486 70.788622 
L 131.922421 70.945486 
L 132.024083 70.807029 
L 131.981102 71.087275 
L 132.032303 70.971943 
L 132.057855 71.069547 
L 132.082461 70.811079 
L 132.139758 70.921933 
L 132.208655 70.851703 
L 132.180582 71.113844 
L 132.248434 70.925532 
L 132.257463 71.041863 
L 132.265586 70.871912 
L 132.3619 70.990342 
L 132.413911 71.10045 
L 132.406744 70.838768 
L 132.463997 70.952499 
L 132.551344 70.849928 
L 132.537999 71.096199 
L 132.570898 71.018647 
L 132.625018 71.010537 
L 132.583332 70.886894 
L 132.630331 70.916527 
L 132.692237 70.809993 
L 132.674569 71.064453 
L 132.738096 71.014576 
L 132.797027 71.032106 
L 132.770661 70.832558 
L 132.816338 70.923149 
L 132.903007 70.854873 
L 132.877659 71.020528 
L 132.925705 70.952901 
L 132.980597 71.05088 
L 133.029261 70.844321 
L 133.040541 71.043505 
L 133.085596 71.048165 
L 133.057882 70.836922 
L 133.100301 70.893886 
L 133.107219 70.58081 
L 133.115861 71.153228 
L 133.209825 70.968979 
L 133.305049 70.801997 
L 133.235606 71.065093 
L 133.313606 70.974209 
L 133.376808 71.159549 
L 133.416843 70.750913 
L 133.426201 71.083953 
L 133.468682 70.823667 
L 133.509379 71.112563 
L 133.540691 71.001141 
L 133.631804 70.80285 
L 133.564354 71.034117 
L 133.662082 70.909182 
L 133.728361 71.091238 
L 133.736734 70.79372 
L 133.775208 71.008692 
L 133.792747 70.833068 
L 133.832778 71.0641 
L 133.897654 70.943711 
L 133.951554 71.124255 
L 133.9383 70.877634 
L 134.006958 70.892762 
L 134.059736 70.775356 
L 134.06797 71.089471 
L 134.114836 70.988168 
L 134.170601 71.065568 
L 134.209868 70.832222 
L 134.210687 70.814119 
L 134.245796 71.061676 
L 134.316641 70.922997 
L 134.407469 71.011664 
L 134.344258 70.861295 
L 134.435766 70.92969 
L 134.497879 70.847301 
L 134.50915 71.083367 
L 134.547747 70.863808 
L 134.621516 71.062968 
L 134.573437 70.851269 
L 134.694208 70.932936 
L 134.730057 70.808294 
L 134.757894 71.040946 
L 134.803939 70.962919 
L 134.878329 71.060059 
L 134.850664 70.873921 
L 134.913845 70.973026 
L 134.92094 70.849326 
L 134.939061 71.070074 
L 135.024709 70.962799 
L 135.088895 71.040927 
L 135.047431 70.878003 
L 135.137288 71.009628 
L 135.14586 70.86865 
L 135.201108 70.764288 
L 135.185561 71.055241 
L 135.254651 70.961396 
L 135.346649 71.070464 
L 135.333534 70.844804 
L 135.364382 70.974831 
L 135.472739 70.853359 
L 135.415946 71.038213 
L 135.476569 70.928284 
L 135.508724 70.867304 
L 135.485762 71.055342 
L 135.529367 71.008214 
L 135.53013 71.038207 
L 135.587356 70.865008 
L 135.639098 70.961339 
L 135.683881 70.844136 
L 135.703585 71.031221 
L 135.751996 70.915528 
L 135.806319 71.063017 
L 135.847717 70.845944 
L 135.865003 70.984743 
L 135.894278 70.859558 
L 135.973626 71.020362 
L 135.975118 71.034671 
L 136.004977 70.887676 
L 136.082395 70.986105 
L 136.11654 70.84545 
L 136.140259 71.018153 
L 136.189825 70.98851 
L 136.241478 71.065601 
L 136.251057 70.859514 
L 136.298875 70.92773 
L 136.309894 71.032445 
L 136.318705 70.897056 
L 136.410247 70.953305 
L 136.505728 70.836043 
L 136.482447 71.077787 
L 136.520263 70.97844 
L 136.531158 71.075494 
L 136.555833 70.873655 
L 136.61738 70.909709 
L 136.668644 70.834398 
L 136.642668 71.015295 
L 136.724808 70.957651 
L 136.773641 71.025413 
L 136.748521 70.854412 
L 136.83308 70.927595 
L 136.875937 70.855205 
L 136.845947 71.034343 
L 136.942892 70.948048 
L 137.045023 70.83562 
L 136.974866 71.051428 
L 137.054216 70.971368 
L 137.11986 71.029932 
L 137.145918 70.836559 
L 137.167722 71.020843 
L 137.237896 70.880902 
L 137.221077 71.034731 
L 137.280577 70.946859 
L 137.329443 71.034549 
L 137.358008 70.87511 
L 137.390703 70.941762 
L 137.396955 70.837558 
L 137.418484 71.021068 
L 137.503669 70.899721 
L 137.550605 71.0429 
L 137.543711 70.833861 
L 137.619424 70.984547 
L 137.657172 70.847117 
L 137.674308 71.04676 
L 137.726986 70.996538 
L 137.78089 71.058856 
L 137.746109 70.82073 
L 137.83736 70.980164 
L 137.913309 71.090923 
L 137.850266 70.892599 
L 137.921426 70.915208 
L 137.943063 70.829763 
L 137.953197 71.055879 
L 138.032736 70.885673 
L 138.122668 71.009794 
L 138.087818 70.869063 
L 138.146091 70.919224 
L 138.201523 70.870773 
L 138.20686 71.038346 
L 138.254805 70.926824 
L 138.30131 71.034666 
L 138.305953 70.867689 
L 138.367552 70.981999 
L 138.471762 71.083473 
L 138.453991 70.839962 
L 138.47768 70.985397 
L 138.484256 70.847871 
L 138.505938 71.074994 
L 138.587195 71.027357 
L 138.647268 70.838839 
L 138.714306 71.014988 
L 138.715604 71.05108 
L 138.77075 70.864709 
L 138.821866 70.921944 
L 138.863822 70.821105 
L 138.878647 71.050958 
L 138.933339 70.902511 
L 139.034596 70.828976 
L 138.998766 71.063994 
L 139.040348 70.929967 
L 139.104147 71.058096 
L 139.077376 70.867516 
L 139.151226 70.923328 
L 139.203895 70.881623 
L 139.16139 71.013998 
L 139.255794 70.979168 
L 139.357922 70.861224 
L 139.25769 71.001339 
L 139.374262 70.999106 
L 139.383058 71.017143 
L 139.394985 70.877053 
L 139.467652 70.911994 
L 139.572419 70.84931 
L 139.556241 71.103574 
L 139.578016 70.942989 
L 139.648768 71.047197 
L 139.639475 70.88798 
L 139.682197 70.907147 
L 139.77598 70.87695 
L 139.70383 71.053404 
L 139.790748 70.979078 
L 139.818406 71.035298 
L 139.828231 70.843328 
L 139.89748 70.9172 
L 140.006677 70.838757 
L 139.91949 70.988996 
L 140.009717 70.891242 
L 140.0158 71.070869 
L 140.121923 70.920576 
L 140.17869 70.879566 
L 140.166024 71.024135 
L 140.231687 70.955325 
L 140.324687 71.034231 
L 140.247319 70.895389 
L 140.343233 70.929793 
L 140.347418 70.861089 
L 140.425583 71.029712 
L 140.454742 70.922579 
L 140.552018 70.907163 
L 140.489201 70.998438 
L 140.559116 70.96008 
L 140.640572 71.041869 
L 140.629966 70.864161 
L 140.66647 70.901974 
L 140.725208 70.847057 
L 140.738693 71.070701 
L 140.772654 71.0434 
L 140.843904 71.062412 
L 140.836324 70.83112 
L 140.880595 70.988803 
L 140.915476 70.840966 
L 140.960729 71.074544 
L 140.991418 70.997404 
L 141.000095 70.861773 
L 141.071101 71.036484 
L 141.105646 70.944476 
L 141.174552 71.03998 
L 141.169393 70.840326 
L 141.216925 70.95524 
L 141.31563 70.85382 
L 141.287151 71.041871 
L 141.323025 70.988716 
L 141.346904 71.034025 
L 141.359402 70.84247 
L 141.434215 71.00502 
L 141.447786 70.841015 
L 141.531273 71.06173 
L 141.548715 70.94053 
L 141.603191 71.046385 
L 141.590287 70.819834 
L 141.658636 70.922693 
L 141.754037 70.866083 
L 141.709463 71.075667 
L 141.762383 70.955224 
L 141.813497 71.029791 
L 141.848423 70.858532 
L 141.870565 70.919762 
L 141.979255 70.821344 
L 141.963842 71.060287 
L 141.982005 70.88545 
L 142.041328 71.052372 
L 142.055583 70.831885 
L 142.095005 70.956858 
L 142.185047 70.827282 
L 142.195389 71.024993 
L 142.196477 71.054522 
L 142.227469 70.857235 
L 142.304466 70.951601 
L 142.33853 70.834686 
L 142.396787 71.051042 
L 142.417243 70.871315 
L 142.521886 71.040487 
L 142.464537 70.842204 
L 142.534726 70.948542 
L 142.561985 71.056769 
L 142.571597 70.817245 
L 142.641938 70.909959 
L 142.686571 70.858309 
L 142.667986 71.063478 
L 142.744335 70.961928 
L 142.747511 71.054188 
L 142.762848 70.868596 
L 142.855674 70.98531 
L 142.888795 70.852045 
L 142.876711 71.052408 
L 142.972141 70.928708 
L 143.06763 71.01111 
L 142.985213 70.882465 
L 143.073874 70.883871 
L 143.075956 70.81705 
L 143.103512 71.020528 
L 143.182849 70.942088 
L 143.189058 71.081722 
L 143.198884 70.854781 
L 143.290707 70.908216 
L 143.29328 70.839333 
L 143.304083 71.017784 
L 143.40207 70.887204 
L 143.460831 71.065859 
L 143.473582 70.828585 
L 143.514331 70.994478 
L 143.608237 70.854005 
L 143.579859 71.061386 
L 143.628483 70.931622 
L 143.671435 71.088852 
L 143.690607 70.772403 
L 143.74097 70.965136 
L 143.827794 70.844359 
L 143.8318 71.054012 
L 143.851816 70.964094 
L 144.004766 70.909725 
L 143.854817 70.980929 
L 144.011216 70.977453 
L 144.091915 71.014174 
L 144.104757 70.8888 
L 144.12203 70.970011 
L 144.2283 71.045837 
L 144.215538 70.749377 
L 144.234185 70.986944 
L 144.312022 71.071015 
L 144.308601 70.86668 
L 144.342289 70.954945 
L 144.395388 70.88488 
L 144.36569 71.022987 
L 144.407548 71.037258 
L 144.409978 71.052245 
L 144.420671 70.860448 
L 144.513737 70.90655 
L 144.530654 70.836146 
L 144.520989 71.064599 
L 144.62224 70.959751 
L 144.706697 71.035094 
L 144.687534 70.798078 
L 144.730625 70.893251 
L 144.830327 71.048632 
L 144.73206 70.869459 
L 144.844598 70.895634 
L 144.913898 70.831956 
L 144.921004 71.101706 
L 144.954603 70.958856 
L 145.064936 71.021396 
L 144.963112 70.868254 
L 145.067757 70.957805 
L 145.125028 70.894494 
L 145.088901 71.017545 
L 145.138616 71.046146 
L 145.139086 71.054929 
L 145.146111 70.86155 
L 145.245594 70.979941 
L 145.271201 70.841547 
L 145.285618 71.048453 
L 145.355697 71.005302 
L 145.356624 71.024919 
L 145.431528 70.826897 
L 145.459658 70.938115 
L 145.535549 70.814005 
L 145.525448 71.046152 
L 145.570406 70.936084 
L 145.637195 70.876923 
L 145.607488 71.042048 
L 145.678253 70.948781 
L 145.758297 71.071509 
L 145.751942 70.773326 
L 145.78959 70.99599 
L 145.822642 70.827781 
L 145.816307 71.018023 
L 145.900748 70.973751 
L 145.957441 71.0378 
L 145.993801 70.868384 
L 146.009939 70.971834 
L 146.019794 71.050934 
L 146.122534 70.833552 
L 146.245559 71.061961 
L 146.249102 70.96664 
L 146.254856 70.810867 
L 146.262376 71.06204 
L 146.362539 70.922471 
L 146.366499 71.070635 
L 146.428007 70.849462 
L 146.474449 70.946078 
L 146.538673 70.883773 
L 146.485387 71.096859 
L 146.575715 70.993751 
L 146.605297 71.051105 
L 146.618334 70.850091 
L 146.684688 70.954508 
L 146.688584 70.835196 
L 146.703729 71.042243 
L 146.797365 70.879344 
L 146.915392 71.038235 
L 146.798227 70.876016 
L 146.921809 70.921949 
L 146.964112 70.86415 
L 147.006323 71.018343 
L 147.032712 70.934456 
L 147.135378 70.850639 
L 147.100649 71.038864 
L 147.137492 70.959987 
L 147.140454 71.062423 
L 147.15779 70.868314 
L 147.248871 71.018883 
L 147.250132 71.039904 
L 147.277037 70.890661 
L 147.356274 70.949234 
L 147.359621 70.862212 
L 147.394311 71.023114 
L 147.465173 70.997154 
L 147.55277 71.008317 
L 147.475989 70.853386 
L 147.574299 70.978362 
L 147.663472 70.84913 
L 147.653996 71.092826 
L 147.691461 70.873568 
L 147.786656 71.052997 
L 147.721875 70.872417 
L 147.803431 70.914594 
L 147.812018 71.028548 
L 147.851631 70.867657 
L 147.916392 70.944243 
L 148.00079 71.030328 
L 147.974453 70.839875 
L 148.029111 70.975118 
L 148.035577 70.847051 
L 148.040832 71.067688 
L 148.140382 70.953484 
L 148.159268 70.867923 
L 148.189768 71.042485 
L 148.249428 71.026993 
L 148.302129 70.829356 
L 148.30731 71.077923 
L 148.379726 70.960462 
L 148.471647 71.016677 
L 148.410679 70.844359 
L 148.49101 70.968979 
L 148.54425 70.850835 
L 148.500483 71.056343 
L 148.602843 70.955284 
L 148.639716 71.040753 
L 148.629132 70.854987 
L 148.713651 70.960981 
L 148.822674 70.834442 
L 148.739403 71.08305 
L 148.824615 70.945356 
L 148.92028 71.049362 
L 148.927618 70.852463 
L 148.934571 70.916369 
L 149.02778 70.827787 
L 148.954251 71.042705 
L 149.035465 70.970301 
L 149.137751 71.052975 
L 149.126287 70.790121 
L 149.144628 70.929451 
L 149.188125 70.844446 
L 149.223538 71.029943 
L 149.255469 70.932165 
L 149.333179 71.025785 
L 149.320312 70.83949 
L 149.364933 70.906479 
L 149.462141 70.837053 
L 149.465524 71.030733 
L 149.474917 70.959694 
L 149.525558 71.037903 
L 149.482427 70.861452 
L 149.586901 70.975897 
L 149.628685 71.096976 
L 149.623466 70.849076 
L 149.654754 70.86839 
L 149.732756 70.827581 
L 149.697878 71.057252 
L 149.764241 70.936454 
L 149.858025 71.016983 
L 149.785694 70.882199 
L 149.876802 70.98613 
L 149.913197 70.833237 
L 149.920176 71.038055 
L 149.98945 70.932996 
L 150.075612 71.066146 
L 150.062128 70.834159 
L 150.100002 70.939461 
L 150.188578 70.813598 
L 150.124 71.040143 
L 150.210298 70.974668 
L 150.247526 70.80621 
L 150.252944 71.070443 
L 150.331846 70.963049 
L 150.345144 71.04287 
L 150.338315 70.865388 
L 150.44371 71.002607 
L 150.521494 70.861414 
L 150.487634 71.064664 
L 150.555295 70.936519 
L 150.640428 71.033328 
L 150.592233 70.858945 
L 150.667663 70.956768 
L 150.719554 70.810617 
L 150.756184 71.035314 
L 150.77869 70.938929 
L 150.876857 71.075827 
L 150.846059 70.845732 
L 150.890141 70.969582 
L 150.899925 70.857577 
L 150.905861 71.051612 
L 151.000617 70.980411 
L 151.080037 71.011411 
L 151.020068 70.852528 
L 151.109436 70.936915 
L 151.127053 70.820882 
L 151.122563 71.06594 
L 151.216968 71.006482 
L 151.270858 71.050763 
L 151.280452 70.8483 
L 151.326991 70.977393 
L 151.438781 70.819569 
L 151.339292 71.024072 
L 151.441499 70.872211 
L 151.446255 71.05986 
L 151.458481 70.821588 
L 151.553991 70.931465 
L 151.563449 70.848707 
L 151.573914 71.090815 
L 151.663491 70.957759 
L 151.685654 71.079494 
L 151.697396 70.845076 
L 151.77372 70.925939 
L 151.884329 71.034801 
L 151.813773 70.828818 
L 151.886657 70.951112 
L 151.956953 70.837178 
L 151.960926 71.092959 
L 151.998945 70.922286 
L 152.094826 71.107816 
L 152.021063 70.869888 
L 152.108626 70.90472 
L 152.160126 70.877721 
L 152.167005 71.04813 
L 152.212472 70.964357 
L 152.26435 71.080265 
L 152.301139 70.775416 
L 152.322594 70.932111 
L 152.409796 70.813527 
L 152.413031 71.06249 
L 152.432425 70.951712 
L 152.540681 71.065082 
L 152.461481 70.833345 
L 152.543253 70.970152 
L 152.610921 70.849147 
L 152.615403 71.062623 
L 152.653137 71.026787 
L 152.653457 71.051007 
L 152.661761 70.827391 
L 152.763046 70.936443 
L 152.861283 70.874931 
L 152.8695 71.091073 
L 152.874555 70.897506 
L 152.923456 71.046388 
L 152.912109 70.848495 
L 152.991086 70.941008 
L 153.005526 70.80887 
L 153.038132 71.082686 
L 153.103185 70.904471 
L 153.188239 70.875169 
L 153.145915 71.032473 
L 153.189172 70.953859 
L 153.261159 71.07079 
L 153.267044 70.814661 
L 153.300456 70.995127 
L 153.332886 71.063728 
L 153.383739 70.827076 
L 153.408655 70.947185 
L 153.411422 70.839463 
L 153.419721 71.028678 
L 153.518708 70.983304 
L 153.566947 71.071998 
L 153.564507 70.848381 
L 153.628753 70.939971 
L 153.731837 70.832569 
L 153.737885 71.058707 
L 153.738186 71.052161 
L 153.8097 70.872678 
L 153.852122 70.932849 
L 153.948063 70.871288 
L 153.86444 71.074899 
L 153.953147 70.975764 
L 154.00093 71.047946 
L 154.021797 70.85622 
L 154.064062 70.97393 
L 154.069115 70.836966 
L 154.079813 71.07548 
L 154.175832 70.959113 
L 154.203011 71.066572 
L 154.216882 70.846986 
L 154.287264 70.990838 
L 154.369986 70.87131 
L 154.307831 71.072777 
L 154.398358 70.991818 
L 154.46256 71.01887 
L 154.469261 70.854358 
L 154.508248 70.953303 
L 154.600464 70.866615 
L 154.557601 71.0423 
L 154.618394 70.968442 
L 154.629374 71.050266 
L 154.683897 70.828243 
L 154.728498 70.927714 
L 154.807382 70.836792 
L 154.802514 71.103063 
L 154.838847 70.937903 
L 154.864838 71.054601 
L 154.851132 70.818049 
L 154.95142 70.993314 
L 155.016107 70.816876 
L 154.985492 71.049471 
L 155.063635 70.960104 
L 155.098359 70.830381 
L 155.092999 71.03463 
L 155.178583 70.924148 
L 155.20413 71.065343 
L 155.251484 70.808137 
L 155.290348 70.999752 
L 155.382865 70.85737 
L 155.377303 71.015724 
L 155.402036 70.974399 
L 155.436168 71.034733 
L 155.42674 70.866669 
L 155.510331 70.925277 
L 155.612263 70.865496 
L 155.526897 71.052114 
L 155.620505 70.96576 
L 155.690693 70.861403 
L 155.7205 71.062032 
L 155.721046 71.089118 
L 155.808567 70.846932 
L 155.830047 70.947038 
L 155.89272 70.86662 
L 155.86263 71.07671 
L 155.941418 70.90738 
L 156.03657 70.855313 
L 155.949793 71.029096 
L 156.04625 70.996356 
L 156.134208 71.042946 
L 156.070422 70.845211 
L 156.156403 70.91987 
L 156.26302 70.840749 
L 156.24334 71.024656 
L 156.265412 70.933137 
L 156.267271 71.10815 
L 156.274181 70.854732 
L 156.376463 70.945861 
L 156.481893 71.034647 
L 156.393106 70.866457 
L 156.486887 70.941431 
L 156.563738 70.845304 
L 156.558763 71.042213 
L 156.598524 70.903776 
L 156.684829 71.04597 
L 156.670775 70.863368 
L 156.70953 70.923475 
L 156.784999 70.82542 
L 156.778008 71.16093 
L 156.818103 70.998674 
L 156.869974 71.054041 
L 156.844184 70.860986 
L 156.928905 70.996712 
L 157.04292 70.804201 
L 157.038319 71.037312 
L 157.043429 70.852235 
L 157.10057 71.040542 
L 157.155003 70.923252 
L 157.225493 71.041546 
L 157.170492 70.869833 
L 157.266453 70.961914 
L 157.285892 70.859813 
L 157.288163 71.030423 
L 157.378779 70.903852 
L 157.380787 70.845179 
L 157.384805 71.02537 
L 157.489969 70.900541 
L 157.516918 71.099052 
L 157.512429 70.8592 
L 157.601523 70.918242 
L 157.709979 70.830772 
L 157.706275 71.089086 
L 157.712449 70.919566 
L 157.746491 70.815671 
L 157.719607 71.064632 
L 157.801378 70.97327 
L 157.905562 71.028629 
L 157.867874 70.860953 
L 157.911917 70.926498 
L 157.99265 70.860068 
L 157.928774 71.046027 
L 158.021836 70.952746 
L 158.070869 71.073314 
L 158.100183 70.816887 
L 158.133561 70.992888 
L 158.182317 70.825789 
L 158.184486 71.030375 
L 158.246335 70.952263 
L 158.357511 71.054275 
L 158.298646 70.860291 
L 158.358226 71.026955 
L 158.394747 70.870181 
L 158.465206 71.072565 
L 158.470433 70.925879 
L 158.555294 70.863005 
L 158.52689 71.061649 
L 158.579405 71.017556 
L 158.63555 71.042843 
L 158.585783 70.865741 
L 158.687541 70.941366 
L 158.764449 70.853663 
L 158.695527 71.038517 
L 158.798588 70.931166 
L 158.852479 71.040916 
L 158.857371 70.873568 
L 158.906223 70.898006 
L 158.930603 70.841878 
L 158.925497 71.082116 
L 159.014658 70.970751 
L 159.077405 71.067408 
L 159.072798 70.849863 
L 159.125713 70.968018 
L 159.184443 71.047023 
L 159.220602 70.855199 
L 159.235689 70.939417 
L 159.303883 70.854841 
L 159.326637 71.054698 
L 159.346412 70.940156 
L 159.408564 71.064149 
L 159.402674 70.850639 
L 159.458098 70.971373 
L 159.540154 70.834159 
L 159.485414 71.055127 
L 159.5705 70.952844 
L 159.623212 71.062621 
L 159.576787 70.835788 
L 159.681367 70.941019 
L 159.746032 71.056956 
L 159.696326 70.849049 
L 159.778728 70.890585 
L 159.854145 70.813076 
L 159.803381 71.097323 
L 159.888873 70.923534 
L 159.959244 71.103701 
L 159.963427 70.860937 
L 160.00038 71.013694 
L 160.068383 70.8516 
L 160.02322 71.046206 
L 160.114535 70.957349 
L 160.15927 71.086996 
L 160.133097 70.812018 
L 160.224773 70.918063 
L 160.317534 70.882313 
L 160.311263 71.041114 
L 160.333312 70.993428 
L 160.362458 71.044814 
L 160.430511 70.846302 
L 160.442761 70.920245 
L 160.522738 70.839305 
L 160.527445 71.046206 
L 160.553098 70.956147 
L 160.561643 71.032793 
L 160.646666 70.80507 
L 160.663882 70.948887 
L 160.702297 70.821881 
L 160.696782 71.058837 
L 160.755444 71.005391 
L 160.766225 71.051618 
L 160.819411 70.79835 
L 160.866355 70.994755 
L 160.97999 70.853462 
L 160.958655 71.092305 
L 160.980407 70.864508 
L 161.063433 71.056248 
L 161.075919 70.82143 
L 161.091931 70.957689 
L 161.11063 71.078658 
L 161.11499 70.814813 
L 161.196415 70.87974 
L 161.235454 70.78384 
L 161.240819 71.045715 
L 161.287798 70.975189 
L 161.289237 71.037806 
L 161.292119 70.871869 
L 161.395545 70.922471 
L 161.423157 70.818358 
L 161.430105 71.057 
L 161.506981 70.880451 
L 161.560839 71.086353 
L 161.518984 70.831369 
L 161.618394 70.921477 
L 161.725555 70.842019 
L 161.67437 71.046996 
L 161.726764 70.968922 
L 161.824328 71.080482 
L 161.777414 70.867212 
L 161.838341 71.030372 
L 161.840542 70.82871 
L 161.90307 71.073293 
L 161.949686 70.958457 
L 162.003932 71.041681 
L 162.035854 70.844196 
L 162.060996 70.974158 
L 162.15042 70.818032 
L 162.102106 71.109878 
L 162.153965 71.036017 
L 162.179549 71.064067 
L 162.177777 70.854173 
L 162.260799 70.941295 
L 162.276264 70.823146 
L 162.272741 71.095022 
L 162.372309 70.918378 
L 162.405778 71.062938 
L 162.428123 70.849771 
L 162.484744 70.961917 
L 162.544484 70.831722 
L 162.539656 71.042868 
L 162.595959 70.954822 
L 162.63635 71.080686 
L 162.632314 70.827716 
L 162.707503 70.968393 
L 162.714777 71.037024 
L 162.711523 70.843132 
L 162.817466 70.943342 
L 162.866144 70.855129 
L 162.880001 71.036177 
L 162.928522 70.927633 
L 163.002964 70.863792 
L 162.937038 71.015759 
L 163.007114 70.998544 
L 163.042528 71.026909 
L 163.026524 70.766948 
L 163.11823 71.006054 
L 163.176637 71.061245 
L 163.146707 70.840603 
L 163.218276 70.910957 
L 163.298877 70.845732 
L 163.304264 71.037988 
L 163.32895 70.960365 
L 163.377669 71.050684 
L 163.380815 70.870029 
L 163.440661 71.01913 
L 163.464254 70.830001 
L 163.459833 71.084029 
L 163.553208 70.93381 
L 163.583257 71.086277 
L 163.651252 70.845781 
L 163.665295 70.97377 
L 163.741363 70.832319 
L 163.704095 71.049951 
L 163.777472 70.909128 
L 163.782003 71.081383 
L 163.820934 70.84925 
L 163.890274 70.916657 
L 163.94715 70.82815 
L 163.965834 71.100805 
L 164.00028 71.020034 
L 164.037349 70.832553 
L 164.079168 71.065251 
L 164.112524 70.943586 
L 164.167164 71.065791 
L 164.164319 70.8502 
L 164.223246 70.925402 
L 164.249458 70.837823 
L 164.294008 71.062078 
L 164.334404 70.918741 
L 164.350608 71.103582 
L 164.343564 70.804169 
L 164.443357 70.8954 
L 164.531485 70.83321 
L 164.527645 71.054413 
L 164.553279 70.963407 
L 164.646812 71.050562 
L 164.654617 70.844348 
L 164.664669 71.000674 
L 164.731959 70.811926 
L 164.695661 71.074886 
L 164.776291 70.932632 
L 164.828944 70.857045 
L 164.822757 71.082216 
L 164.885055 70.999106 
L 164.947326 71.078642 
L 164.907487 70.850439 
L 164.995945 70.987535 
L 165.055151 70.850303 
L 165.047335 71.035838 
L 165.106892 70.99333 
L 165.179104 70.826641 
L 165.212834 71.058118 
L 165.21873 70.963128 
L 165.277606 71.052163 
L 165.245667 70.825355 
L 165.329267 70.959849 
L 165.387642 70.818906 
L 165.439017 71.057963 
L 165.43985 71.005934 
L 165.456332 70.819362 
L 165.459995 71.073558 
L 165.552959 70.993938 
L 165.605886 71.077502 
L 165.570012 70.841021 
L 165.663118 70.930065 
L 165.741682 70.783026 
L 165.742832 71.092867 
L 165.774462 70.901974 
L 165.785432 71.028771 
L 165.790505 70.802052 
L 165.790505 70.802052 
" clip-path="url(#p2c139bf8e1)" style="fill: none; stroke: #808080; stroke-linecap: square"/>
   </g>
   <g id="line2d_3">
    <path d="M 57.377031 25.41395 
L 165.790668 25.41395 
" clip-path="url(#p2c139bf8e1)" style="fill: none; stroke-dasharray: 6.4,1.6,1,1.6; stroke-dashoffset: 0; stroke: #808080"/>
   </g>
   <g id="matplotlib.axis_1">
    <g id="xtick_1">
     <g id="line2d_4">
      <defs>
       <path id="m661a650b75" d="M 0 0 
L 0 6 
" style="stroke: #000000"/>
      </defs>
      <g>
       <use xlink:href="#m661a650b75" x="57.377031" y="116.483699" style="stroke: #000000"/>
      </g>
     </g>
     <g id="text_1">
      <!-- $\mathdefault{10^{1}}$ -->
      <g transform="translate(44.032031 140.014949)scale(0.17 -0.17)">
       <defs>
        <path id="ArialMT-31" d="M 2384 0 
L 1822 0 
L 1822 3584 
Q 1619 3391 1289 3197 
Q 959 3003 697 2906 
L 697 3450 
Q 1169 3672 1522 3987 
Q 1875 4303 2022 4600 
L 2384 4600 
L 2384 0 
z
" transform="scale(0.015625)"/>
        <path id="ArialMT-30" d="M 266 2259 
Q 266 3072 433 3567 
Q 600 4063 929 4331 
Q 1259 4600 1759 4600 
Q 2128 4600 2406 4451 
Q 2684 4303 2865 4023 
Q 3047 3744 3150 3342 
Q 3253 2941 3253 2259 
Q 3253 1453 3087 958 
Q 2922 463 2592 192 
Q 2263 -78 1759 -78 
Q 1097 -78 719 397 
Q 266 969 266 2259 
z
M 844 2259 
Q 844 1131 1108 757 
Q 1372 384 1759 384 
Q 2147 384 2411 759 
Q 2675 1134 2675 2259 
Q 2675 3391 2411 3762 
Q 2147 4134 1753 4134 
Q 1366 4134 1134 3806 
Q 844 3388 844 2259 
z
" transform="scale(0.015625)"/>
       </defs>
       <use xlink:href="#ArialMT-31" transform="translate(0 0.99375)"/>
       <use xlink:href="#ArialMT-30" transform="translate(55.615234 0.99375)"/>
       <use xlink:href="#ArialMT-31" transform="translate(112.972813 70.6875)scale(0.7)"/>
      </g>
     </g>
    </g>
    <g id="xtick_2">
     <g id="line2d_5">
      <g>
       <use xlink:href="#m661a650b75" x="102.588186" y="116.483699" style="stroke: #000000"/>
      </g>
     </g>
     <g id="text_2">
      <!-- $\mathdefault{10^{2}}$ -->
      <g transform="translate(89.243186 140.014949)scale(0.17 -0.17)">
       <defs>
        <path id="ArialMT-32" d="M 3222 541 
L 3222 0 
L 194 0 
Q 188 203 259 391 
Q 375 700 629 1000 
Q 884 1300 1366 1694 
Q 2113 2306 2375 2664 
Q 2638 3022 2638 3341 
Q 2638 3675 2398 3904 
Q 2159 4134 1775 4134 
Q 1369 4134 1125 3890 
Q 881 3647 878 3216 
L 300 3275 
Q 359 3922 746 4261 
Q 1134 4600 1788 4600 
Q 2447 4600 2831 4234 
Q 3216 3869 3216 3328 
Q 3216 3053 3103 2787 
Q 2991 2522 2730 2228 
Q 2469 1934 1863 1422 
Q 1356 997 1212 845 
Q 1069 694 975 541 
L 3222 541 
z
" transform="scale(0.015625)"/>
       </defs>
       <use xlink:href="#ArialMT-31" transform="translate(0 0.99375)"/>
       <use xlink:href="#ArialMT-30" transform="translate(55.615234 0.99375)"/>
       <use xlink:href="#ArialMT-32" transform="translate(112.972813 70.6875)scale(0.7)"/>
      </g>
     </g>
    </g>
    <g id="xtick_3">
     <g id="line2d_6">
      <g>
       <use xlink:href="#m661a650b75" x="147.79934" y="116.483699" style="stroke: #000000"/>
      </g>
     </g>
     <g id="text_3">
      <!-- $\mathdefault{10^{3}}$ -->
      <g transform="translate(134.45434 140.014949)scale(0.17 -0.17)">
       <defs>
        <path id="ArialMT-33" d="M 269 1209 
L 831 1284 
Q 928 806 1161 595 
Q 1394 384 1728 384 
Q 2125 384 2398 659 
Q 2672 934 2672 1341 
Q 2672 1728 2419 1979 
Q 2166 2231 1775 2231 
Q 1616 2231 1378 2169 
L 1441 2663 
Q 1497 2656 1531 2656 
Q 1891 2656 2178 2843 
Q 2466 3031 2466 3422 
Q 2466 3731 2256 3934 
Q 2047 4138 1716 4138 
Q 1388 4138 1169 3931 
Q 950 3725 888 3313 
L 325 3413 
Q 428 3978 793 4289 
Q 1159 4600 1703 4600 
Q 2078 4600 2393 4439 
Q 2709 4278 2876 4000 
Q 3044 3722 3044 3409 
Q 3044 3113 2884 2869 
Q 2725 2625 2413 2481 
Q 2819 2388 3044 2092 
Q 3269 1797 3269 1353 
Q 3269 753 2831 336 
Q 2394 -81 1725 -81 
Q 1122 -81 723 278 
Q 325 638 269 1209 
z
" transform="scale(0.015625)"/>
       </defs>
       <use xlink:href="#ArialMT-31" transform="translate(0 0.99375)"/>
       <use xlink:href="#ArialMT-30" transform="translate(55.615234 0.99375)"/>
       <use xlink:href="#ArialMT-33" transform="translate(112.972813 70.6875)scale(0.7)"/>
      </g>
     </g>
    </g>
    <g id="xtick_4">
     <g id="line2d_7">
      <defs>
       <path id="me0f41e9d18" d="M 0 0 
L 0 3 
" style="stroke: #000000"/>
      </defs>
      <g>
       <use xlink:href="#me0f41e9d18" x="70.986945" y="116.483699" style="stroke: #000000"/>
      </g>
     </g>
    </g>
    <g id="xtick_5">
     <g id="line2d_8">
      <g>
       <use xlink:href="#me0f41e9d18" x="78.948234" y="116.483699" style="stroke: #000000"/>
      </g>
     </g>
    </g>
    <g id="xtick_6">
     <g id="line2d_9">
      <g>
       <use xlink:href="#me0f41e9d18" x="84.596859" y="116.483699" style="stroke: #000000"/>
      </g>
     </g>
    </g>
    <g id="xtick_7">
     <g id="line2d_10">
      <g>
       <use xlink:href="#me0f41e9d18" x="88.978272" y="116.483699" style="stroke: #000000"/>
      </g>
     </g>
    </g>
    <g id="xtick_8">
     <g id="line2d_11">
      <g>
       <use xlink:href="#me0f41e9d18" x="92.558148" y="116.483699" style="stroke: #000000"/>
      </g>
     </g>
    </g>
    <g id="xtick_9">
     <g id="line2d_12">
      <g>
       <use xlink:href="#me0f41e9d18" x="95.584889" y="116.483699" style="stroke: #000000"/>
      </g>
     </g>
    </g>
    <g id="xtick_10">
     <g id="line2d_13">
      <g>
       <use xlink:href="#me0f41e9d18" x="98.206772" y="116.483699" style="stroke: #000000"/>
      </g>
     </g>
    </g>
    <g id="xtick_11">
     <g id="line2d_14">
      <g>
       <use xlink:href="#me0f41e9d18" x="100.519437" y="116.483699" style="stroke: #000000"/>
      </g>
     </g>
    </g>
    <g id="xtick_12">
     <g id="line2d_15">
      <g>
       <use xlink:href="#me0f41e9d18" x="116.198099" y="116.483699" style="stroke: #000000"/>
      </g>
     </g>
    </g>
    <g id="xtick_13">
     <g id="line2d_16">
      <g>
       <use xlink:href="#me0f41e9d18" x="124.159389" y="116.483699" style="stroke: #000000"/>
      </g>
     </g>
    </g>
    <g id="xtick_14">
     <g id="line2d_17">
      <g>
       <use xlink:href="#me0f41e9d18" x="129.808013" y="116.483699" style="stroke: #000000"/>
      </g>
     </g>
    </g>
    <g id="xtick_15">
     <g id="line2d_18">
      <g>
       <use xlink:href="#me0f41e9d18" x="134.189427" y="116.483699" style="stroke: #000000"/>
      </g>
     </g>
    </g>
    <g id="xtick_16">
     <g id="line2d_19">
      <g>
       <use xlink:href="#me0f41e9d18" x="137.769302" y="116.483699" style="stroke: #000000"/>
      </g>
     </g>
    </g>
    <g id="xtick_17">
     <g id="line2d_20">
      <g>
       <use xlink:href="#me0f41e9d18" x="140.796044" y="116.483699" style="stroke: #000000"/>
      </g>
     </g>
    </g>
    <g id="xtick_18">
     <g id="line2d_21">
      <g>
       <use xlink:href="#me0f41e9d18" x="143.417927" y="116.483699" style="stroke: #000000"/>
      </g>
     </g>
    </g>
    <g id="xtick_19">
     <g id="line2d_22">
      <g>
       <use xlink:href="#me0f41e9d18" x="145.730591" y="116.483699" style="stroke: #000000"/>
      </g>
     </g>
    </g>
    <g id="xtick_20">
     <g id="line2d_23">
      <g>
       <use xlink:href="#me0f41e9d18" x="161.409254" y="116.483699" style="stroke: #000000"/>
      </g>
     </g>
    </g>
    <g id="text_4">
     <!-- Time (ms) -->
     <g transform="translate(73.663224 159.769168)scale(0.17 -0.17)">
      <defs>
       <path id="ArialMT-54" d="M 1659 0 
L 1659 4041 
L 150 4041 
L 150 4581 
L 3781 4581 
L 3781 4041 
L 2266 4041 
L 2266 0 
L 1659 0 
z
" transform="scale(0.015625)"/>
       <path id="ArialMT-69" d="M 425 3934 
L 425 4581 
L 988 4581 
L 988 3934 
L 425 3934 
z
M 425 0 
L 425 3319 
L 988 3319 
L 988 0 
L 425 0 
z
" transform="scale(0.015625)"/>
       <path id="ArialMT-6d" d="M 422 0 
L 422 3319 
L 925 3319 
L 925 2853 
Q 1081 3097 1340 3245 
Q 1600 3394 1931 3394 
Q 2300 3394 2536 3241 
Q 2772 3088 2869 2813 
Q 3263 3394 3894 3394 
Q 4388 3394 4653 3120 
Q 4919 2847 4919 2278 
L 4919 0 
L 4359 0 
L 4359 2091 
Q 4359 2428 4304 2576 
Q 4250 2725 4106 2815 
Q 3963 2906 3769 2906 
Q 3419 2906 3187 2673 
Q 2956 2441 2956 1928 
L 2956 0 
L 2394 0 
L 2394 2156 
Q 2394 2531 2256 2718 
Q 2119 2906 1806 2906 
Q 1569 2906 1367 2781 
Q 1166 2656 1075 2415 
Q 984 2175 984 1722 
L 984 0 
L 422 0 
z
" transform="scale(0.015625)"/>
       <path id="ArialMT-65" d="M 2694 1069 
L 3275 997 
Q 3138 488 2766 206 
Q 2394 -75 1816 -75 
Q 1088 -75 661 373 
Q 234 822 234 1631 
Q 234 2469 665 2931 
Q 1097 3394 1784 3394 
Q 2450 3394 2872 2941 
Q 3294 2488 3294 1666 
Q 3294 1616 3291 1516 
L 816 1516 
Q 847 969 1125 678 
Q 1403 388 1819 388 
Q 2128 388 2347 550 
Q 2566 713 2694 1069 
z
M 847 1978 
L 2700 1978 
Q 2663 2397 2488 2606 
Q 2219 2931 1791 2931 
Q 1403 2931 1139 2672 
Q 875 2413 847 1978 
z
" transform="scale(0.015625)"/>
       <path id="ArialMT-20" transform="scale(0.015625)"/>
       <path id="ArialMT-28" d="M 1497 -1347 
Q 1031 -759 709 28 
Q 388 816 388 1659 
Q 388 2403 628 3084 
Q 909 3875 1497 4659 
L 1900 4659 
Q 1522 4009 1400 3731 
Q 1209 3300 1100 2831 
Q 966 2247 966 1656 
Q 966 153 1900 -1347 
L 1497 -1347 
z
" transform="scale(0.015625)"/>
       <path id="ArialMT-73" d="M 197 991 
L 753 1078 
Q 800 744 1014 566 
Q 1228 388 1613 388 
Q 2000 388 2187 545 
Q 2375 703 2375 916 
Q 2375 1106 2209 1216 
Q 2094 1291 1634 1406 
Q 1016 1563 777 1677 
Q 538 1791 414 1992 
Q 291 2194 291 2438 
Q 291 2659 392 2848 
Q 494 3038 669 3163 
Q 800 3259 1026 3326 
Q 1253 3394 1513 3394 
Q 1903 3394 2198 3281 
Q 2494 3169 2634 2976 
Q 2775 2784 2828 2463 
L 2278 2388 
Q 2241 2644 2061 2787 
Q 1881 2931 1553 2931 
Q 1166 2931 1000 2803 
Q 834 2675 834 2503 
Q 834 2394 903 2306 
Q 972 2216 1119 2156 
Q 1203 2125 1616 2013 
Q 2213 1853 2448 1751 
Q 2684 1650 2818 1456 
Q 2953 1263 2953 975 
Q 2953 694 2789 445 
Q 2625 197 2315 61 
Q 2006 -75 1616 -75 
Q 969 -75 630 194 
Q 291 463 197 991 
z
" transform="scale(0.015625)"/>
       <path id="ArialMT-29" d="M 791 -1347 
L 388 -1347 
Q 1322 153 1322 1656 
Q 1322 2244 1188 2822 
Q 1081 3291 891 3722 
Q 769 4003 388 4659 
L 791 4659 
Q 1378 3875 1659 3084 
Q 1900 2403 1900 1659 
Q 1900 816 1576 28 
Q 1253 -759 791 -1347 
z
" transform="scale(0.015625)"/>
      </defs>
      <use xlink:href="#ArialMT-54"/>
      <use xlink:href="#ArialMT-69" x="57.333984"/>
      <use xlink:href="#ArialMT-6d" x="79.550781"/>
      <use xlink:href="#ArialMT-65" x="162.851562"/>
      <use xlink:href="#ArialMT-20" x="218.466797"/>
      <use xlink:href="#ArialMT-28" x="246.25"/>
      <use xlink:href="#ArialMT-6d" x="279.550781"/>
      <use xlink:href="#ArialMT-73" x="362.851562"/>
      <use xlink:href="#ArialMT-29" x="412.851562"/>
     </g>
    </g>
   </g>
   <g id="matplotlib.axis_2">
    <g id="ytick_1">
     <g id="line2d_24">
      <defs>
       <path id="m567fefe557" d="M 0 0 
L -6 0 
" style="stroke: #000000"/>
      </defs>
      <g>
       <use xlink:href="#m567fefe557" x="57.377031" y="116.483699" style="stroke: #000000"/>
      </g>
     </g>
     <g id="text_5">
      <!-- 0.0 -->
      <g transform="translate(26.747031 122.567839)scale(0.17 -0.17)">
       <defs>
        <path id="ArialMT-2e" d="M 581 0 
L 581 641 
L 1222 641 
L 1222 0 
L 581 0 
z
" transform="scale(0.015625)"/>
       </defs>
       <use xlink:href="#ArialMT-30"/>
       <use xlink:href="#ArialMT-2e" x="55.615234"/>
       <use xlink:href="#ArialMT-30" x="83.398438"/>
      </g>
     </g>
    </g>
    <g id="ytick_2">
     <g id="line2d_25">
      <g>
       <use xlink:href="#m567fefe557" x="57.377031" y="70.948824" style="stroke: #000000"/>
      </g>
     </g>
     <g id="text_6">
      <!-- 0.5 -->
      <g transform="translate(26.747031 77.032965)scale(0.17 -0.17)">
       <defs>
        <path id="ArialMT-35" d="M 266 1200 
L 856 1250 
Q 922 819 1161 601 
Q 1400 384 1738 384 
Q 2144 384 2425 690 
Q 2706 997 2706 1503 
Q 2706 1984 2436 2262 
Q 2166 2541 1728 2541 
Q 1456 2541 1237 2417 
Q 1019 2294 894 2097 
L 366 2166 
L 809 4519 
L 3088 4519 
L 3088 3981 
L 1259 3981 
L 1013 2750 
Q 1425 3038 1878 3038 
Q 2478 3038 2890 2622 
Q 3303 2206 3303 1553 
Q 3303 931 2941 478 
Q 2500 -78 1738 -78 
Q 1113 -78 717 272 
Q 322 622 266 1200 
z
" transform="scale(0.015625)"/>
       </defs>
       <use xlink:href="#ArialMT-30"/>
       <use xlink:href="#ArialMT-2e" x="55.615234"/>
       <use xlink:href="#ArialMT-35" x="83.398438"/>
      </g>
     </g>
    </g>
    <g id="ytick_3">
     <g id="line2d_26">
      <g>
       <use xlink:href="#m567fefe557" x="57.377031" y="25.41395" style="stroke: #000000"/>
      </g>
     </g>
     <g id="text_7">
      <!-- 1.0 -->
      <g transform="translate(26.747031 31.49809)scale(0.17 -0.17)">
       <use xlink:href="#ArialMT-31"/>
       <use xlink:href="#ArialMT-2e" x="55.615234"/>
       <use xlink:href="#ArialMT-30" x="83.398438"/>
      </g>
     </g>
    </g>
    <g id="text_8">
     <!-- DR-NED -->
     <g transform="translate(19.368281 94.896224)rotate(-90)scale(0.17 -0.17)">
      <defs>
       <path id="ArialMT-44" d="M 494 0 
L 494 4581 
L 2072 4581 
Q 2606 4581 2888 4516 
Q 3281 4425 3559 4188 
Q 3922 3881 4101 3404 
Q 4281 2928 4281 2316 
Q 4281 1794 4159 1391 
Q 4038 988 3847 723 
Q 3656 459 3429 307 
Q 3203 156 2883 78 
Q 2563 0 2147 0 
L 494 0 
z
M 1100 541 
L 2078 541 
Q 2531 541 2789 625 
Q 3047 709 3200 863 
Q 3416 1078 3536 1442 
Q 3656 1806 3656 2325 
Q 3656 3044 3420 3430 
Q 3184 3816 2847 3947 
Q 2603 4041 2063 4041 
L 1100 4041 
L 1100 541 
z
" transform="scale(0.015625)"/>
       <path id="ArialMT-52" d="M 503 0 
L 503 4581 
L 2534 4581 
Q 3147 4581 3465 4457 
Q 3784 4334 3975 4021 
Q 4166 3709 4166 3331 
Q 4166 2844 3850 2509 
Q 3534 2175 2875 2084 
Q 3116 1969 3241 1856 
Q 3506 1613 3744 1247 
L 4541 0 
L 3778 0 
L 3172 953 
Q 2906 1366 2734 1584 
Q 2563 1803 2427 1890 
Q 2291 1978 2150 2013 
Q 2047 2034 1813 2034 
L 1109 2034 
L 1109 0 
L 503 0 
z
M 1109 2559 
L 2413 2559 
Q 2828 2559 3062 2645 
Q 3297 2731 3419 2920 
Q 3541 3109 3541 3331 
Q 3541 3656 3305 3865 
Q 3069 4075 2559 4075 
L 1109 4075 
L 1109 2559 
z
" transform="scale(0.015625)"/>
       <path id="ArialMT-2d" d="M 203 1375 
L 203 1941 
L 1931 1941 
L 1931 1375 
L 203 1375 
z
" transform="scale(0.015625)"/>
       <path id="ArialMT-4e" d="M 488 0 
L 488 4581 
L 1109 4581 
L 3516 984 
L 3516 4581 
L 4097 4581 
L 4097 0 
L 3475 0 
L 1069 3600 
L 1069 0 
L 488 0 
z
" transform="scale(0.015625)"/>
       <path id="ArialMT-45" d="M 506 0 
L 506 4581 
L 3819 4581 
L 3819 4041 
L 1113 4041 
L 1113 2638 
L 3647 2638 
L 3647 2100 
L 1113 2100 
L 1113 541 
L 3925 541 
L 3925 0 
L 506 0 
z
" transform="scale(0.015625)"/>
      </defs>
      <use xlink:href="#ArialMT-44"/>
      <use xlink:href="#ArialMT-52" x="72.216797"/>
      <use xlink:href="#ArialMT-2d" x="144.433594"/>
      <use xlink:href="#ArialMT-4e" x="177.734375"/>
      <use xlink:href="#ArialMT-45" x="249.951172"/>
      <use xlink:href="#ArialMT-44" x="316.650391"/>
     </g>
    </g>
   </g>
   <g id="line2d_27">
    <path d="M 54.987518 60.234303 
L 64.071109 43.013999 
L 70.257712 35.743201 
L 74.954977 41.483301 
L 78.742631 78.602631 
L 81.91645 75.92392 
L 84.647924 75.92392 
L 87.045406 35.36052 
L 89.181745 29.23775 
L 91.108284 31.151118 
L 92.862572 35.36052 
L 94.472895 37.656564 
L 95.961104 31.151118 
L 97.34442 31.916459 
L 98.636658 29.23775 
L 100.990968 25.41395 
L 102.070082 25.41395 
L 103.092968 62.147671 
L 104.991542 73.627878 
L 105.87615 80.516 
L 106.722616 78.219958 
L 107.534094 76.689263 
L 108.313361 46.458059 
L 109.062877 66.357078 
L 109.784833 59.851632 
L 110.48118 61.764995 
L 111.153675 57.555588 
L 111.8039 64.44371 
L 112.433279 52.580835 
L 113.043108 26.176365 
L 113.634568 25.41395 
L 115.309016 25.41395 
L 115.836869 33.447157 
L 116.350901 25.41395 
L 117.340278 25.41395 
L 117.816877 26.176365 
L 118.282183 35.36052 
L 118.736716 52.580835 
L 119.180964 54.876873 
L 119.615384 57.938258 
L 120.0404 56.407571 
L 120.456409 52.198159 
L 120.863789 31.916459 
L 121.262888 74.393224 
L 121.654034 75.92392 
L 122.037542 74.775898 
L 122.413703 49.519444 
L 122.78279 54.111527 
L 123.14507 54.876873 
L 123.85017 25.41395 
L 126.44173 25.41395 
L 126.742884 30.768437 
L 127.039491 40.335279 
L 127.331684 35.743201 
L 127.619591 33.064481 
L 127.903338 25.41395 
L 128.183044 28.472398 
L 128.458819 37.273888 
L 128.730776 34.977849 
L 129.263643 25.41395 
L 129.52475 29.23775 
L 130.036772 25.41395 
L 132.636532 25.41395 
L 133.074342 43.396669 
L 133.28964 29.620426 
L 133.502602 25.41395 
L 134.931971 25.41395 
L 135.127929 25.793684 
L 135.321953 25.41395 
L 136.079422 25.41395 
L 136.264309 28.855074 
L 136.447474 25.41395 
L 139.637614 25.41395 
L 139.791977 26.176365 
L 139.945137 25.41395 
L 143.55804 25.41395 
L 143.684555 27.707057 
L 143.810259 36.508542 
L 143.935163 25.41395 
L 144.059279 27.707057 
L 144.182614 25.41395 
L 145.49051 25.41395 
L 145.719224 35.36052 
L 145.832591 34.595179 
L 145.945306 25.41395 
L 146.7167 25.41395 
L 146.824467 26.176365 
L 147.03824 25.41395 
L 148.274198 25.41395 
L 148.373768 26.176365 
L 148.571403 25.41395 
L 149.05696 25.41395 
L 149.152648 31.533789 
L 149.342634 25.41395 
L 150.265934 25.41395 
L 150.355921 25.793684 
L 150.534664 25.41395 
L 150.974533 25.41395 
L 151.14776 32.299129 
L 151.31947 25.41395 
L 151.658451 25.41395 
L 151.742288 26.941706 
L 151.9089 25.41395 
L 151.991677 27.324376 
L 152.074108 25.41395 
L 152.156195 32.299129 
L 152.400414 25.41395 
L 152.721384 25.41395 
L 152.879924 33.064481 
L 152.958715 31.151118 
L 153.037192 32.299129 
L 153.193211 25.41395 
L 153.348002 25.41395 
L 153.424941 30.768437 
L 153.653967 25.41395 
L 154.251957 25.41395 
L 154.32544 26.176365 
L 154.47159 25.41395 
L 155.186446 25.41395 
L 155.256521 31.151118 
L 155.465258 25.41395 
L 156.673118 25.41395 
L 156.738092 28.855074 
L 156.80285 26.941706 
L 156.867397 28.855074 
L 156.931732 25.41395 
L 156.995855 25.793684 
L 157.123481 25.41395 
L 157.687743 25.41395 
L 157.749448 28.855074 
L 157.872283 25.41395 
L 158.296249 25.41395 
L 158.356076 26.941706 
L 158.475183 25.41395 
L 158.944521 25.41395 
L 159.002407 26.559035 
L 159.11767 25.41395 
L 159.739797 25.41395 
L 159.850823 34.595179 
L 159.906102 34.212509 
L 160.07101 25.41395 
L 160.504112 25.41395 
L 160.610912 30.768437 
L 160.770029 25.41395 
L 161.136362 25.41395 
L 161.188143 30.385766 
L 161.239787 25.41395 
L 161.59754 25.41395 
L 161.648118 25.793684 
L 161.698567 25.41395 
L 162.048133 25.41395 
L 162.097566 28.089728 
L 162.146875 25.41395 
L 163.479538 25.41395 
L 163.5255 28.855074 
L 163.571354 28.089728 
L 163.708279 25.41395 
L 163.844255 25.41395 
L 163.889374 27.324376 
L 163.934387 25.41395 
L 165.655211 25.41395 
L 165.655211 25.41395 
" clip-path="url(#p2c139bf8e1)" style="fill: none; stroke: #ff0000; stroke-width: 1.5; stroke-linecap: square"/>
   </g>
   <g id="line2d_28">
    <path d="M 98.001169 116.483699 
L 98.001169 7.2 
" clip-path="url(#p2c139bf8e1)" style="fill: none; stroke-dasharray: 10,3; stroke-dashoffset: 5; stroke: #000000"/>
   </g>
   <g id="patch_3">
    <path d="M 57.377031 116.483699 
L 57.377031 7.2 
" style="fill: none; stroke: #000000; stroke-linejoin: miter; stroke-linecap: square"/>
   </g>
   <g id="patch_4">
    <path d="M 165.790668 116.483699 
L 165.790668 7.2 
" style="fill: none; stroke: #000000; stroke-linejoin: miter; stroke-linecap: square"/>
   </g>
   <g id="patch_5">
    <path d="M 57.377031 116.483699 
L 165.790668 116.483699 
" style="fill: none; stroke: #000000; stroke-linejoin: miter; stroke-linecap: square"/>
   </g>
   <g id="patch_6">
    <path d="M 57.377031 7.2 
L 165.790668 7.2 
" style="fill: none; stroke: #000000; stroke-linejoin: miter; stroke-linecap: square"/>
   </g>
  </g>
 </g>
 <defs>
  <clipPath id="p2c139bf8e1">
   <rect x="57.377031" y="7.2" width="108.413636" height="109.283699"/>
  </clipPath>
 </defs>
</svg>
