<?xml version="1.0" encoding="utf-8" standalone="no"?>
<!DOCTYPE svg PUBLIC "-//W3C//DTD SVG 1.1//EN"
  "http://www.w3.org/Graphics/SVG/1.1/DTD/svg11.dtd">
<svg xmlns:xlink="http://www.w3.org/1999/xlink" width="172.990668pt" height="170.547136pt" viewBox="0 0 172.990668 170.547136" xmlns="http://www.w3.org/2000/svg" version="1.1">
 <metadata>
  <rdf:RDF xmlns:dc="http://purl.org/dc/elements/1.1/" xmlns:cc="http://creativecommons.org/ns#" xmlns:rdf="http://www.w3.org/1999/02/22-rdf-syntax-ns#">
   <cc:Work>
    <dc:type rdf:resource="http://purl.org/dc/dcmitype/StillImage"/>
    <dc:date>2024-08-16T06:09:47.827491</dc:date>
    <dc:format>image/svg+xml</dc:format>
    <dc:creator>
     <cc:Agent>
      <dc:title>Matplotlib v3.5.3, https://matplotlib.org/</dc:title>
     </cc:Agent>
    </dc:creator>
   </cc:Work>
  </rdf:RDF>
 </metadata>
 <defs>
  <style type="text/css">*{stroke-linejoin: round; stroke-linecap: butt}</style>
 </defs>
 <g id="figure_1">
  <g id="patch_1">
   <path d="M 0 170.547136 
L 172.990668 170.547136 
L 172.990668 0 
L 0 0 
z
" style="fill: #ffffff"/>
  </g>
  <g id="axes_1">
   <g id="patch_2">
    <path d="M 57.377031 116.483699 
L 165.790668 116.483699 
L 165.790668 7.2 
L 57.377031 7.2 
z
" style="fill: #ffffff"/>
   </g>
   <g id="line2d_1">
    <path d="M 57.336083 73.282109 
L 57.458672 73.28241 
L 57.620947 74.134398 
L 57.701582 73.858462 
L 57.941525 71.321233 
L 58.17857 66.016199 
L 58.2178 66.766786 
L 58.412785 72.783693 
L 58.451552 72.371651 
L 58.490243 72.286024 
L 58.605856 74.402227 
L 58.644243 74.203263 
L 58.873002 67.174774 
L 58.948666 67.690223 
L 59.211219 73.921149 
L 59.285596 73.525459 
L 59.543711 68.966084 
L 59.689696 69.526663 
L 59.726023 69.363372 
L 59.762284 69.50609 
L 59.906659 73.038603 
L 59.978449 72.206696 
L 60.085647 70.093159 
L 60.121251 70.637719 
L 60.227673 72.681307 
L 60.263019 72.570224 
L 60.368679 71.288745 
L 60.438804 71.598925 
L 60.473772 71.841901 
L 60.50868 71.718361 
L 60.785721 67.853074 
L 60.820076 68.162534 
L 61.092789 71.523848 
L 61.194087 71.678673 
L 61.227739 71.574314 
L 61.294866 71.224047 
L 61.328345 71.635649 
L 61.428438 75.530914 
L 61.461689 75.240989 
L 61.594136 68.56119 
L 61.627106 69.916661 
L 61.725692 74.667101 
L 61.758445 73.805187 
L 61.921392 67.717163 
L 61.953819 67.941634 
L 62.179325 71.806254 
L 62.243283 71.644261 
L 62.338831 70.891671 
L 62.497051 67.823414 
L 62.528542 68.156389 
L 62.716438 71.648804 
L 62.747579 71.452122 
L 62.933401 70.595965 
L 62.994952 71.450755 
L 63.147993 74.22858 
L 63.178458 73.877469 
L 63.33008 70.213447 
L 63.390402 70.55621 
L 63.510495 71.159288 
L 63.629856 72.913923 
L 63.659584 72.588235 
L 63.778044 70.347241 
L 63.807549 70.657749 
L 63.925124 72.469648 
L 63.954408 72.106115 
L 64.216018 68.232943 
L 64.331179 70.591987 
L 64.388506 70.009537 
L 64.445668 69.234062 
L 64.502664 69.678413 
L 64.559495 70.44212 
L 64.587849 70.282184 
L 64.700855 68.169569 
L 64.729007 68.764508 
L 64.813217 70.624089 
L 64.869157 70.174516 
L 64.924938 70.959407 
L 65.17401 74.617617 
L 65.256337 73.289122 
L 65.392787 69.495874 
L 65.447101 70.098701 
L 65.609152 71.944936 
L 65.689677 73.883005 
L 65.743179 73.06366 
L 65.769875 72.707161 
L 65.823159 73.275424 
L 65.876298 74.489542 
L 65.929293 73.379086 
L 66.061161 67.607275 
L 66.11366 67.738604 
L 66.166022 67.432406 
L 66.192149 67.625883 
L 66.502998 71.767535 
L 66.579949 72.181352 
L 66.605531 72.163608 
L 66.707532 68.556463 
L 66.758333 67.611308 
L 66.809003 68.669955 
L 66.909955 72.270103 
L 66.98533 71.563511 
L 67.035418 72.267457 
L 67.110315 73.514372 
L 67.160084 73.238222 
L 67.283966 70.884718 
L 67.333299 70.406853 
L 67.382511 71.011229 
L 67.480562 72.088723 
L 67.529407 71.638054 
L 67.602444 70.542916 
L 67.626731 70.916293 
L 67.699406 72.245864 
L 67.74771 71.520613 
L 67.91584 70.375462 
L 67.96361 70.123062 
L 68.011269 70.476643 
L 68.035056 70.643587 
L 68.08254 70.255662 
L 68.200751 69.326792 
L 68.224309 69.439057 
L 68.504813 71.661501 
L 68.528009 71.521234 
L 68.574318 71.307736 
L 68.597432 71.559082 
L 68.689613 73.244567 
L 68.735545 72.864467 
L 68.827082 69.693558 
L 68.895459 70.570274 
L 68.986255 70.901615 
L 69.008889 70.84811 
L 69.099164 69.6875 
L 69.144148 70.242542 
L 69.323055 71.541191 
L 69.389727 71.059225 
L 69.434049 71.330526 
L 69.456174 71.484415 
L 69.500346 71.293538 
L 69.697907 69.920428 
L 69.763318 70.302399 
L 69.958263 71.57268 
L 70.108558 72.625899 
L 70.129936 72.388633 
L 70.321288 70.149395 
L 70.384663 70.596552 
L 70.426797 70.335912 
L 70.573563 69.801747 
L 70.594439 69.842382 
L 70.84325 71.040202 
L 70.863841 70.960565 
L 70.884411 70.904661 
L 70.92549 71.011577 
L 70.986945 71.280296 
L 71.027808 71.039727 
L 71.068586 70.684847 
L 71.109281 71.012828 
L 71.149893 71.549773 
L 71.210649 70.952502 
L 71.251051 70.592958 
L 71.311496 70.891508 
L 71.531555 72.891578 
L 71.591145 72.385702 
L 71.905941 69.027829 
L 72.061466 71.48594 
L 72.119472 70.737266 
L 72.292468 67.337391 
L 72.311597 68.409315 
L 72.387924 73.152657 
L 72.444973 71.720264 
L 72.50186 70.012404 
L 72.53969 71.319982 
L 72.596304 73.041694 
L 72.633954 71.751256 
L 72.671532 70.840212 
L 72.727766 71.795395 
L 72.783841 72.188604 
L 72.821132 71.853265 
L 72.895509 69.798837 
L 72.951105 70.776056 
L 73.043417 71.38649 
L 73.061828 71.301189 
L 73.135299 69.68731 
L 73.171931 70.58727 
L 73.226752 71.668169 
L 73.263215 70.791195 
L 73.29961 70.063385 
L 73.335936 70.889212 
L 73.372198 71.621436 
L 73.426461 70.797286 
L 73.516573 70.263821 
L 73.552501 70.471796 
L 73.570441 70.643858 
L 73.588363 70.464359 
L 73.642036 69.155712 
L 73.677736 70.810525 
L 73.71337 72.078268 
L 73.802176 72.072097 
L 73.872933 72.97083 
L 73.908217 72.388831 
L 74.048718 69.112102 
L 74.083686 69.451727 
L 74.18822 71.02205 
L 74.257602 71.007712 
L 74.32674 71.678521 
L 74.361217 71.300864 
L 74.549768 70.304244 
L 74.56682 70.271675 
L 74.583858 70.352381 
L 74.651857 71.472215 
L 74.719622 70.796396 
L 74.770293 70.212644 
L 74.804001 70.57098 
L 74.954977 71.780416 
L 74.988369 71.883522 
L 75.038352 71.707068 
L 75.187542 70.265232 
L 75.220541 70.523586 
L 75.253485 70.785501 
L 75.286376 70.242949 
L 75.3028 70.008056 
L 75.351989 70.841498 
L 75.384715 71.58317 
L 75.45 70.778732 
L 75.482562 71.064013 
L 75.515071 71.48603 
L 75.563733 70.751244 
L 75.676809 70.452781 
L 75.69291 70.478657 
L 75.725073 70.690117 
L 75.789239 71.709939 
L 75.837226 71.040067 
L 75.853197 71.005305 
L 75.869154 71.134487 
L 75.901029 71.361993 
L 75.932851 70.901165 
L 75.980491 70.217448 
L 76.043829 70.800353 
L 76.248279 71.602209 
L 76.279546 71.192444 
L 76.326351 69.641898 
L 76.373045 71.679902 
L 76.404113 72.210721 
L 76.435133 71.217506 
L 76.497023 68.312374 
L 76.543315 71.164247 
L 76.574113 73.262277 
L 76.63557 70.334675 
L 76.650903 70.206874 
L 76.666224 70.747515 
L 76.71212 72.584392 
L 76.757906 70.874274 
L 76.788371 69.709088 
L 76.849161 71.703206 
L 76.894629 72.608507 
L 76.939994 71.135201 
L 76.970178 70.615382 
L 77.045437 71.101717 
L 77.090453 71.311885 
L 77.120408 70.925092 
L 77.254639 68.602635 
L 77.284344 69.621108 
L 77.34362 71.504426 
L 77.37319 70.221671 
L 77.417463 67.80879 
L 77.476339 70.577124 
L 77.593562 73.073463 
L 77.622759 72.685367 
L 77.724608 71.590424 
L 77.75361 72.248176 
L 77.782571 72.936551 
L 77.854785 72.158448 
L 78.055582 69.385557 
L 78.169409 69.758902 
L 78.226075 70.586455 
L 78.296678 70.281147 
L 78.33892 69.743416 
L 78.381071 70.395193 
L 78.43713 71.653861 
L 78.479071 70.530252 
L 78.50698 69.861435 
L 78.562683 70.879903 
L 78.632089 72.326027 
L 78.70125 71.754589 
L 78.728846 71.910437 
L 78.756405 71.615082 
L 78.797668 71.16254 
L 78.852554 71.815908 
L 78.920945 71.082254 
L 78.975485 71.465644 
L 79.0027 71.593073 
L 79.029876 71.342921 
L 79.151707 70.324377 
L 79.165196 70.534855 
L 79.219066 71.815436 
L 79.286194 71.251394 
L 79.366445 69.093407 
L 79.419766 70.315329 
L 79.499475 70.5836 
L 79.539207 70.427203 
L 79.552434 70.396985 
L 79.565652 70.473191 
L 79.592061 70.734688 
L 79.618434 70.027228 
L 79.671075 64.535511 
L 79.710463 70.319948 
L 79.815113 76.246818 
L 79.841189 75.176937 
L 79.958102 70.809136 
L 79.971051 71.276917 
L 80.009841 73.646714 
L 80.061446 70.789969 
L 80.112912 69.436962 
L 80.151426 70.876668 
L 80.177057 71.825098 
L 80.240993 70.074611 
L 80.26651 70.19935 
L 80.279258 69.954957 
L 80.317446 68.408957 
L 80.368247 70.791581 
L 80.393597 71.366726 
L 80.431564 69.602918 
L 80.456835 68.595654 
L 80.519869 70.429744 
L 80.645332 72.63026 
L 80.670329 77.81583 
L 80.682817 71.681729 
L 80.720229 15.694978 
L 80.757567 95.105949 
L 80.769998 114.320352 
L 80.819645 81.144217 
L 80.856797 82.736519 
L 80.955528 66.716424 
L 80.980132 60.844935 
L 81.041511 69.996369 
L 81.078247 80.598679 
L 81.127119 61.223632 
L 81.200205 76.616564 
L 81.321408 70.571756 
L 81.357623 42.83698 
L 81.417834 78.443618 
L 81.441867 82.891949 
L 81.51379 76.561565 
L 81.525753 76.334692 
L 81.549653 77.991345 
L 81.561594 76.64672 
L 81.609278 34.561508 
L 81.633079 72.050913 
L 81.656851 108.229668 
L 81.739823 70.144276 
L 81.775276 65.373693 
L 81.810665 75.522126 
L 81.822448 76.960067 
L 81.845992 71.19031 
L 81.881254 64.950463 
L 81.928169 77.675319 
L 81.939882 78.062025 
L 81.998337 60.205609 
L 82.044976 76.570872 
L 82.056619 77.135245 
L 82.068252 74.255883 
L 82.207345 58.643889 
L 82.218891 58.09066 
L 82.23043 62.029087 
L 82.276521 87.037885 
L 82.345458 68.462723 
L 82.368384 66.945455 
L 82.41415 73.34459 
L 82.425577 72.353686 
L 82.505372 69.75216 
L 82.459814 73.261376 
L 82.516744 71.726015 
L 82.596168 70.266421 
L 82.64141 78.718819 
L 82.675275 72.259008 
L 82.720332 64.987966 
L 82.765291 73.748739 
L 82.787731 76.648625 
L 82.832534 66.187295 
L 82.84372 65.93691 
L 82.866069 67.744059 
L 82.888393 69.703198 
L 82.932968 63.750775 
L 82.944095 63.277346 
L 82.966333 65.079757 
L 83.032892 74.079861 
L 83.088187 67.465963 
L 83.11026 69.083631 
L 83.154335 73.097244 
L 83.231227 71.117445 
L 83.264088 72.323644 
L 83.30782 69.105447 
L 83.329648 67.993425 
L 83.351451 71.369389 
L 83.394989 81.812849 
L 83.481772 77.162875 
L 83.525022 67.83522 
L 83.546611 64.294603 
L 83.60048 68.411677 
L 83.643466 65.22197 
L 83.782533 74.129428 
L 83.80384 72.339231 
L 83.846387 64.234328 
L 83.899441 73.691928 
L 83.910033 73.503006 
L 83.994576 68.665129 
L 83.941779 73.831286 
L 84.057745 71.880677 
L 84.11023 75.473815 
L 84.131186 77.334527 
L 84.17303 71.65461 
L 84.204352 68.702209 
L 84.277249 70.847404 
L 84.308408 73.613602 
L 84.360227 68.910087 
L 84.370575 68.82823 
L 84.411913 72.694633 
L 84.484044 69.677659 
L 84.58663 67.36958 
L 84.617302 69.405256 
L 84.729357 72.412245 
L 84.668314 69.030853 
L 84.759806 71.510896 
L 84.769945 71.368843 
L 84.790207 72.353019 
L 84.820563 74.690892 
L 84.871052 70.241011 
L 84.901283 69.698416 
L 84.961605 70.82263 
L 85.071716 73.958994 
L 85.031749 70.081504 
L 85.101642 72.723997 
L 85.13152 73.072985 
L 85.151414 71.719105 
L 85.25058 68.890274 
L 85.19114 72.570083 
L 85.290106 69.846106 
L 85.299977 69.88622 
L 85.339402 67.827149 
L 85.378752 71.185851 
L 85.427828 72.747531 
L 85.447424 70.88646 
L 85.476779 67.477775 
L 85.56459 68.77239 
L 85.71973 76.273285 
L 85.603488 68.735658 
L 85.758324 72.590227 
L 85.854481 67.934333 
L 85.892809 70.202824 
L 85.931067 72.07525 
L 85.997837 70.057941 
L 86.007355 69.780463 
L 86.035887 71.934495 
L 86.054886 73.088255 
L 86.121238 70.327015 
L 86.196792 65.965299 
L 86.234462 70.018342 
L 86.328319 74.056718 
L 86.356389 72.528962 
L 86.449667 69.690176 
L 86.477564 70.591574 
L 86.523972 74.661849 
L 86.597997 72.929193 
L 86.634904 70.262778 
L 86.717694 67.092455 
L 86.763538 67.196508 
L 86.772694 66.254768 
L 86.809274 73.240246 
L 86.82754 75.73636 
L 86.891335 69.826716 
L 86.900431 70.137154 
L 86.936775 74.015068 
L 86.991166 69.050932 
L 87.000217 68.808672 
L 87.027343 70.55184 
L 87.135476 74.496968 
L 87.081482 69.090688 
L 87.153439 73.184016 
L 87.216184 69.05649 
L 87.269809 71.558336 
L 87.296564 73.126374 
L 87.332184 68.224432 
L 87.474017 72.961051 
L 87.535747 70.62208 
L 87.570937 68.541388 
L 87.606061 71.923356 
L 87.64988 69.960445 
L 87.676122 73.021987 
L 87.772052 71.753495 
L 87.832856 69.538285 
L 87.867516 72.19733 
L 87.902114 70.080283 
L 87.910754 69.994594 
L 87.919392 70.329431 
L 88.05706 72.728239 
L 88.099885 67.732362 
L 88.185254 71.382818 
L 88.193771 71.34516 
L 88.210794 71.581088 
L 88.2363 72.344694 
L 88.26177 70.143478 
L 88.278734 68.780185 
L 88.321079 71.592558 
L 88.354888 71.195038 
L 88.363332 71.251386 
L 88.413915 70.9727 
L 88.447566 69.840993 
L 88.514693 70.707525 
L 88.573243 73.140748 
L 88.598283 70.328655 
L 88.623289 67.228377 
L 88.681517 73.920992 
L 88.706418 76.230566 
L 88.756127 70.306714 
L 88.830455 68.56194 
L 88.863399 70.178723 
L 88.871628 70.248025 
L 88.879851 69.793344 
L 88.904503 68.435772 
L 88.937324 70.699638 
L 88.978272 69.399698 
L 89.010969 72.724577 
L 89.084341 69.363438 
L 89.100609 68.667648 
L 89.15744 72.030566 
L 89.173646 72.029328 
L 89.246414 74.052948 
L 89.262548 72.408291 
L 89.286722 70.562495 
L 89.383131 70.840804 
L 89.407158 72.466782 
L 89.44714 68.566624 
L 89.471092 69.588142 
L 89.495012 68.76662 
L 89.542765 70.519683 
L 89.661645 72.993796 
L 89.598333 68.413381 
L 89.677442 72.504714 
L 89.708998 69.324811 
L 89.756234 73.108133 
L 89.795512 70.320578 
L 89.826879 73.574761 
L 89.920676 71.962776 
L 90.076016 69.154159 
L 90.13781 70.053147 
L 90.160931 72.46042 
L 90.253152 70.830371 
L 90.291448 69.765117 
L 90.34494 71.04103 
L 90.451487 73.093221 
L 90.421103 70.750875 
L 90.481821 72.42568 
L 90.549908 68.054844 
L 90.580092 71.878954 
L 90.595165 72.689509 
L 90.670367 69.93725 
L 90.71535 69.601186 
L 90.730322 70.225183 
L 90.827358 71.668376 
L 90.775168 69.780191 
L 90.849683 71.174723 
L 90.871983 72.008096 
L 90.886836 72.346839 
L 90.923917 69.962394 
L 90.938731 69.29983 
L 91.005252 71.102143 
L 91.071549 72.739931 
L 91.115623 71.405386 
L 91.130292 71.675981 
L 91.159599 69.55337 
L 91.166919 69.302305 
L 91.210779 71.096134 
L 91.225378 71.057814 
L 91.290937 71.362159 
L 91.261827 70.768332 
L 91.298208 71.034351 
L 91.320004 69.390817 
L 91.392485 71.702204 
L 91.399718 71.927691 
L 91.435845 69.999642 
L 91.471906 70.725227 
L 91.493511 69.299678 
L 91.551006 73.412968 
L 91.558181 73.728443 
L 91.608334 71.707304 
L 91.67263 69.518819 
L 91.736715 70.032157 
L 91.76513 72.147809 
L 91.857196 70.857343 
L 91.885439 68.933623 
L 91.955865 71.46505 
L 92.005013 73.038139 
L 92.040045 70.71544 
L 92.061034 71.328439 
L 92.130834 69.650995 
L 92.151726 71.238366 
L 92.165642 72.08368 
L 92.248929 70.114242 
L 92.262777 70.010612 
L 92.283529 69.337225 
L 92.318066 71.340248 
L 92.33876 70.95168 
L 92.393837 70.280946 
L 92.359433 71.040227 
L 92.414452 70.938229 
L 92.435044 72.557091 
L 92.50353 70.434412 
L 92.524029 70.892914 
L 92.551329 70.178131 
L 92.57859 71.512975 
L 92.687258 72.731306 
L 92.63979 70.904384 
L 92.7008 72.551902 
L 92.748122 68.756002 
L 92.835703 71.021052 
L 92.842423 71.042982 
L 92.855857 70.741403 
L 92.936274 70.06389 
L 92.896107 71.435162 
L 92.956326 70.943917 
L 93.096126 73.389817 
L 92.996371 70.517224 
L 93.109389 73.180159 
L 93.168957 69.868584 
L 93.254686 70.828655 
L 93.261265 70.843349 
L 93.267841 70.628882 
L 93.287559 69.755396 
L 93.366229 71.128948 
L 93.379312 71.312198 
L 93.392384 70.830517 
L 93.418502 65.136731 
L 93.470636 75.704078 
L 93.477145 75.685085 
L 93.55506 66.739108 
L 93.639123 70.934217 
L 93.684237 73.302855 
L 93.735673 70.311366 
L 93.818965 68.999326 
L 93.78697 70.991153 
L 93.838137 70.127215 
L 93.87005 72.088845 
L 93.920999 68.462772 
L 93.952778 70.143983 
L 94.066748 74.02866 
L 94.091987 72.336327 
L 94.180063 67.612019 
L 94.211426 70.577488 
L 94.261498 72.857709 
L 94.317678 70.259451 
L 94.323911 70.27003 
L 94.373698 69.993486 
L 94.472895 72.656755 
L 94.509967 68.782568 
L 94.602338 71.21204 
L 94.68816 71.826368 
L 94.706502 71.468741 
L 94.737033 69.863215 
L 94.791871 72.753436 
L 94.804036 73.207251 
L 94.852623 70.838915 
L 94.919233 69.485588 
L 94.985618 70.159328 
L 95.111736 71.760473 
L 95.045777 69.987412 
L 95.123704 71.308118 
L 95.171508 70.066908 
L 95.195364 72.483292 
L 95.213239 74.291533 
L 95.290507 70.007393 
L 95.302367 69.736267 
L 95.331986 71.471159 
L 95.391093 70.113471 
L 95.520504 71.368352 
L 95.444136 69.375542 
L 95.532225 70.969378 
L 95.549796 69.560654 
L 95.573199 73.729382 
L 95.631585 71.929743 
L 95.718839 69.686767 
L 95.695608 72.334218 
L 95.74204 71.826241 
L 95.747837 72.010004 
L 95.794145 70.418611 
L 95.823032 69.408128 
L 95.897942 70.514103 
L 95.972568 72.537577 
L 96.001194 70.600661 
L 96.052617 69.26516 
L 96.075427 71.97731 
L 96.081126 72.088666 
L 96.143705 71.300405 
L 96.22306 69.505412 
L 96.183421 71.672108 
L 96.245673 71.464189 
L 96.262619 70.201673 
L 96.330246 69.676975 
L 96.302096 71.659476 
L 96.352738 71.182551 
L 96.397645 69.057234 
L 96.481567 72.800382 
L 96.531749 69.033355 
L 96.637267 70.666098 
L 96.670474 73.055262 
L 96.736713 70.343229 
L 96.742223 70.37785 
L 96.824689 71.636852 
L 96.84114 70.655654 
L 96.8521 69.889949 
L 96.939561 71.783032 
L 96.950466 71.943088 
L 97.010336 70.935753 
L 97.042916 69.310632 
L 97.091685 71.609912 
L 97.107917 72.090447 
L 97.134936 70.79994 
L 97.194247 71.449227 
L 97.269478 69.786656 
L 97.237272 71.454416 
L 97.317688 71.042137 
L 97.34442 72.527806 
L 97.397777 70.320024 
L 97.419079 70.67494 
L 97.440357 70.383577 
L 97.472231 70.7671 
L 97.498756 72.141227 
L 97.55698 70.079735 
L 97.583388 70.960053 
L 97.599216 70.273135 
L 97.641362 71.498267 
L 97.688669 70.965255 
L 97.751568 71.61496 
L 97.725385 70.38064 
L 97.77249 70.675076 
L 97.887163 69.882849 
L 97.80905 71.818261 
L 97.897554 70.079642 
L 97.902746 70.086173 
L 97.907939 70.012241 
L 97.913131 70.076163 
L 97.939067 72.284447 
L 97.996002 70.930417 
" clip-path="url(#pe259b1c055)" style="fill: none; stroke: #c0c0c0; stroke-linecap: square"/>
   </g>
   <g id="line2d_2">
    <path d="M 98.001168 70.185666 
L 98.011501 69.522863 
L 98.037305 71.319547 
L 98.099099 71.172642 
L 98.196544 70.440801 
L 98.150446 71.405921 
L 98.216997 71.047161 
L 98.247635 72.215916 
L 98.298596 70.412705 
L 98.374789 71.441483 
L 98.395058 70.502899 
L 98.445638 70.066284 
L 98.425422 71.360932 
L 98.486006 71.067387 
L 98.561477 71.849482 
L 98.531323 70.777375 
L 98.616639 71.531993 
L 98.731478 69.675623 
L 98.741433 70.265927 
L 98.756354 72.272139 
L 98.845651 69.498496 
L 98.90989 72.230293 
L 98.988665 71.058167 
L 99.091582 70.366451 
L 99.032839 71.792331 
L 99.111125 70.721888 
L 99.125769 70.749181 
L 99.140401 70.569015 
L 99.169633 70.191626 
L 99.184235 70.826066 
L 99.198824 71.675533 
L 99.257074 70.571696 
L 99.290972 71.130552 
L 99.373057 71.69144 
L 99.416375 70.143635 
L 99.421181 70.009928 
L 99.478776 71.338961 
L 99.507512 72.031089 
L 99.536204 70.361436 
L 99.555307 68.876584 
L 99.61251 71.721591 
L 99.650555 70.046465 
L 99.674294 72.550697 
L 99.773687 71.11697 
L 99.853781 69.961601 
L 99.792563 71.383909 
L 99.896053 70.731833 
L 99.900743 70.661321 
L 99.956951 71.32538 
L 99.966303 71.605469 
L 100.022323 70.432442 
L 100.05958 71.008382 
L 100.175558 71.799727 
L 100.133885 70.231968 
L 100.184808 71.624166 
L 100.290854 69.843088 
L 100.313833 70.946957 
L 100.446579 71.820652 
L 100.364292 70.300195 
L 100.455702 71.68168 
L 100.483043 70.350845 
L 100.546689 71.832356 
L 100.578435 71.132435 
L 100.637257 70.437213 
L 100.664344 71.451099 
L 100.668856 71.456533 
L 100.677876 71.330656 
L 100.754373 69.835423 
L 100.80819 70.560737 
L 100.830572 72.541713 
L 100.928748 71.389378 
L 101.035291 69.680682 
L 101.057414 70.252785 
L 101.09276 71.650292 
L 101.189637 71.501636 
L 101.268545 70.225628 
L 101.22036 72.18354 
L 101.325337 70.851378 
L 101.338421 70.951821 
L 101.355852 71.318614 
L 101.386316 70.477903 
L 101.44277 70.972803 
L 101.507708 70.372053 
L 101.486086 71.555489 
L 101.546567 71.127178 
L 101.568122 71.97782 
L 101.602562 70.650633 
L 101.65411 71.048214 
L 101.658398 71.05884 
L 101.666974 70.913921 
L 101.701242 69.820034 
L 101.765331 71.330767 
L 101.871684 72.525974 
L 101.829213 70.355665 
L 101.880167 71.7443 
L 101.994338 70.253637 
L 101.998553 70.349955 
L 102.09946 71.65334 
L 102.078481 70.01698 
L 102.112038 70.607452 
L 102.116229 70.495854 
L 102.132983 71.457374 
L 102.195681 71.052405 
L 102.220704 72.151519 
L 102.278968 70.446674 
L 102.303885 71.149067 
L 102.349485 69.818015 
L 102.394978 71.162122 
L 102.423877 70.91619 
L 102.543138 71.852665 
L 102.497985 70.896687 
L 102.555433 71.61351 
L 102.592277 69.903221 
L 102.686116 70.851687 
L 102.811891 72.061867 
L 102.726777 70.49067 
L 102.819977 71.614113 
L 102.904689 70.233911 
L 102.940883 70.838649 
L 102.964975 70.048648 
L 103.029076 71.310995 
L 103.061048 72.437853 
L 103.088982 70.541059 
L 103.136773 71.299466 
L 103.228053 70.091101 
L 103.263656 70.720396 
L 103.37794 71.855002 
L 103.27946 70.702124 
L 103.389723 71.29866 
L 103.491562 69.883902 
L 103.428955 71.325605 
L 103.507181 70.599526 
L 103.627821 72.159034 
L 103.635578 71.656797 
L 103.68593 70.330224 
L 103.751579 70.8689 
L 103.809323 71.488071 
L 103.828533 70.315698 
L 103.866898 71.002105 
L 103.882223 70.75861 
L 103.928126 71.511428 
L 103.973922 71.028304 
L 104.027217 71.608261 
L 104.000586 70.352598 
L 104.1031 71.326772 
L 104.186234 66.740563 
L 104.167371 72.239572 
L 104.201312 71.626329 
L 104.216379 75.742274 
L 104.223907 77.41218 
L 104.272774 68.032714 
L 104.325264 75.802714 
L 104.347717 67.17878 
L 104.444716 71.442075 
L 104.52642 72.453147 
L 104.474467 69.571755 
L 104.57454 71.965805 
L 104.710856 69.214689 
L 104.725537 70.03892 
L 104.787806 72.533923 
L 104.83894 70.239383 
L 104.853525 70.609243 
L 104.875381 73.130524 
L 104.915389 69.779236 
L 104.962567 70.478934 
L 105.063797 71.977806 
L 105.045759 70.41245 
L 105.08182 70.803121 
L 105.150152 69.735556 
L 105.128599 72.065624 
L 105.19677 70.591775 
L 105.314612 71.437912 
L 105.296803 70.454154 
L 105.318171 71.305494 
L 105.382142 70.377373 
L 105.421131 71.716999 
L 105.43175 71.083671 
L 105.452975 70.420977 
L 105.527076 71.322674 
L 105.544677 70.715635 
L 105.562263 71.494612 
L 105.628947 70.572271 
L 105.656957 70.817446 
L 105.698898 71.325866 
L 105.719834 70.70118 
L 105.744232 70.237472 
L 105.7686 72.103108 
L 105.80683 71.304943 
L 105.844986 70.497607 
L 105.87615 71.377648 
L 105.886528 71.923576 
L 105.921078 70.237885 
L 105.983115 71.167336 
L 106.065529 70.075083 
L 106.086078 71.752765 
L 106.103187 71.80046 
L 106.256493 68.169987 
L 106.337768 66.189651 
L 106.300558 74.287779 
L 106.347904 70.595781 
L 106.418709 78.48519 
L 106.405243 67.970702 
L 106.459056 72.716693 
L 106.549531 69.140491 
L 106.586272 72.234725 
L 106.58961 72.392481 
L 106.616282 69.984215 
L 106.6529 70.341742 
L 106.679487 69.978836 
L 106.692768 71.873621 
L 106.699404 72.916466 
L 106.792085 69.795092 
L 106.801989 70.447847 
L 106.881043 71.925243 
L 106.831671 69.859584 
L 106.923731 71.688528 
L 107.005563 70.27237 
L 107.051243 71.096571 
L 107.054501 71.111689 
L 107.070785 70.67545 
L 107.109814 70.545901 
L 107.155251 71.472057 
L 107.158493 71.47605 
L 107.161733 71.365076 
L 107.17469 70.556204 
L 107.261937 71.6689 
L 107.278051 70.967717 
L 107.3231 69.959593 
L 107.352006 71.24913 
L 107.36163 71.672862 
L 107.384073 70.550738 
L 107.454438 70.794463 
L 107.492713 71.56574 
L 107.530913 70.517832 
L 107.540451 70.327705 
L 107.591247 71.838707 
L 107.607091 71.196401 
L 107.613425 71.737555 
L 107.629256 70.011486 
L 107.714509 70.931677 
L 107.833869 70.376309 
L 107.767996 71.329082 
L 107.843261 70.613265 
L 107.862033 72.03462 
L 107.902644 70.469896 
L 107.958733 70.867706 
L 108.067343 71.520803 
L 107.983612 70.267875 
L 108.076625 71.179951 
L 108.135305 69.224509 
L 108.166119 71.812453 
L 108.184586 71.162279 
L 108.258273 71.426683 
L 108.279715 70.097767 
L 108.298074 70.934651 
L 108.392658 71.807514 
L 108.346947 69.866429 
L 108.407869 71.163265 
L 108.450402 70.310373 
L 108.4686 71.726403 
L 108.523102 70.777109 
L 108.565385 71.736323 
L 108.550295 70.099868 
L 108.655691 71.234159 
L 108.658693 71.26684 
L 108.682699 70.419219 
L 108.685699 70.329871 
L 108.757534 71.359678 
L 108.778436 70.689015 
L 108.876678 71.506448 
L 108.820175 70.530388 
L 108.891521 70.914811 
L 108.930058 71.113352 
L 108.971474 70.713268 
L 108.9892 70.851367 
L 109.0246 69.228184 
L 109.033438 71.564179 
L 109.042276 73.809863 
L 109.056992 69.572922 
L 109.142139 71.312157 
L 109.212326 70.241104 
L 109.244413 71.650862 
L 109.258978 70.653575 
L 109.288079 71.482784 
L 109.334554 70.576272 
L 109.378023 65.097029 
L 109.386705 74.783342 
L 109.392492 78.766576 
L 109.473318 67.714351 
L 109.493472 69.9761 
L 109.499227 69.589586 
L 109.588211 71.500474 
L 109.668236 72.153907 
L 109.625406 70.242586 
L 109.699587 71.633654 
L 109.722354 69.627377 
L 109.818826 70.53206 
L 109.830144 72.756929 
L 109.880997 70.169669 
L 109.931721 72.043069 
L 109.948599 70.024536 
L 110.06075 70.851926 
L 110.163923 72.087171 
L 110.11101 70.20093 
L 110.172267 71.352792 
L 110.23333 70.158508 
L 110.219468 71.509162 
L 110.288678 70.747021 
L 110.296966 70.128637 
L 110.308014 72.857454 
L 110.396161 71.03783 
L 110.503059 71.854212 
L 110.415392 70.065556 
L 110.508526 71.410695 
L 110.612098 69.959419 
L 110.587618 71.842631 
L 110.625684 70.531826 
L 110.636549 70.465396 
L 110.725938 71.49161 
L 110.734045 71.88994 
L 110.809544 70.141811 
L 110.831063 71.130557 
L 110.847186 71.209814 
L 110.855242 70.871891 
L 110.865978 70.064644 
L 110.948991 71.503525 
L 110.965016 70.93901 
L 111.031653 72.593161 
L 110.994364 68.599834 
L 111.05027 69.556909 
L 111.153675 66.729706 
L 111.124564 76.561185 
L 111.164251 68.142309 
L 111.180101 73.195914 
L 111.282826 69.640009 
L 111.351013 71.986014 
L 111.405914 70.548208 
L 111.473675 69.452606 
L 111.45285 71.648286 
L 111.504871 71.315753 
L 111.515258 71.93988 
L 111.561934 69.662812 
L 111.564523 69.583963 
L 111.582643 72.005148 
L 111.636902 70.68945 
L 111.724431 71.513873 
L 111.652376 70.088404 
L 111.744968 70.746961 
L 111.806457 69.988807 
L 111.773176 71.505202 
L 111.844788 71.475179 
L 111.895781 70.553376 
L 111.870302 72.049152 
L 111.959339 71.28656 
L 111.992306 70.1835 
L 112.030277 71.322441 
L 112.07827 70.92849 
L 112.090879 71.571814 
L 112.131178 70.604727 
L 112.183941 70.637762 
L 112.211524 70.088707 
L 112.226553 71.853979 
L 112.291543 71.010662 
L 112.316484 70.565855 
L 112.30402 71.45947 
L 112.353834 71.243699 
L 112.356321 71.337154 
L 112.393596 70.404687 
L 112.453088 70.996685 
L 112.509934 70.080343 
L 112.497591 72.36004 
L 112.566615 70.663025 
L 112.598579 70.398 
L 112.583833 71.559858 
L 112.672146 70.894293 
L 112.721038 71.881606 
L 112.740562 70.476377 
L 112.774679 70.737815 
L 112.813599 70.318819 
L 112.874255 71.374019 
L 112.879102 71.642491 
L 112.905724 70.556845 
L 112.975742 70.663981 
L 113.035901 70.403954 
L 112.990195 71.368553 
L 113.069511 70.956 
L 113.150894 71.578672 
L 113.129384 70.77953 
L 113.174766 70.896046 
L 113.186692 70.339631 
L 113.231941 71.503647 
L 113.286579 70.831163 
L 113.28895 70.830555 
L 113.293694 70.874708 
L 113.307917 71.327223 
L 113.369431 70.577184 
L 113.407192 70.967087 
L 113.409549 70.967416 
L 113.414263 70.870908 
L 113.496581 70.523108 
L 113.480144 71.365684 
L 113.517693 71.056883 
L 113.52941 71.73657 
L 113.618246 70.530844 
L 113.625243 70.244757 
L 113.648545 71.331856 
L 113.720608 71.007169 
L 113.732207 71.346257 
L 113.817824 70.413275 
L 113.840899 70.297329 
L 113.873158 71.853792 
L 113.905368 71.236298 
L 113.932932 71.391213 
L 113.969622 70.337557 
L 113.997098 70.842937 
L 114.045086 70.286179 
L 114.026818 71.664777 
L 114.113437 70.610095 
L 114.222306 71.591787 
L 114.183816 70.560666 
L 114.233611 70.828188 
L 114.31032 70.329958 
L 114.272003 71.400438 
L 114.337322 71.090931 
L 114.353055 71.81596 
L 114.400182 70.5668 
L 114.409145 70.24093 
L 114.442724 71.450239 
L 114.503017 70.808821 
L 114.585345 71.328854 
L 114.520848 70.713942 
L 114.609754 70.752905 
L 114.618623 70.540044 
L 114.67396 71.298934 
L 114.696051 71.146405 
L 114.704882 71.393371 
L 114.779774 70.212036 
L 114.799551 70.93749 
L 114.819307 70.574839 
L 114.863141 71.40002 
L 114.917794 70.602289 
L 115.000577 71.590517 
L 114.93525 70.518554 
L 115.050516 70.975227 
L 115.102487 70.268255 
L 115.117621 71.162046 
L 115.128422 71.001776 
L 115.199569 71.458549 
L 115.225376 70.563364 
L 115.231821 70.587378 
L 115.336816 71.286924 
L 115.364577 70.987329 
L 115.445502 70.766801 
L 115.424238 71.068176 
L 115.473111 71.031493 
L 115.48372 70.648912 
L 115.585269 70.327873 
L 115.536675 71.313658 
L 115.591597 70.632551 
L 115.650575 71.194623 
L 115.707278 71.00515 
L 115.786806 70.433066 
L 115.728238 71.21179 
L 115.820195 70.959586 
L 115.847283 71.480129 
L 115.905495 70.644428 
L 115.930393 70.960093 
L 115.936612 70.564042 
L 115.996629 71.547737 
L 116.037914 71.035748 
L 116.042038 71.231991 
L 116.074996 70.435769 
L 116.146899 71.004523 
L 116.155101 70.743813 
L 116.191963 71.136178 
L 116.257324 70.94541 
L 116.306202 71.378782 
L 116.359019 70.670956 
L 116.492451 71.399344 
L 116.442015 70.629034 
L 116.496481 71.182792 
L 116.528685 70.4418 
L 116.602959 71.247979 
L 116.608967 71.08328 
L 116.674955 70.494952 
L 116.624985 71.288447 
L 116.724797 70.857799 
L 116.758618 71.562947 
L 116.826085 70.548257 
L 116.895296 71.556824 
L 116.835988 70.428474 
L 116.952456 70.704095 
L 116.997674 70.32511 
L 117.011414 71.284647 
L 117.05258 71.192441 
L 117.074109 71.391031 
L 117.117095 70.642887 
L 117.138553 70.851904 
L 117.161935 70.440953 
L 117.189179 71.195144 
L 117.208615 71.187382 
L 117.218327 71.432915 
L 117.2823 70.539274 
L 117.299712 70.578943 
L 117.301645 70.552887 
L 117.336417 71.361977 
L 117.374982 71.05992 
L 117.459557 71.322245 
L 117.411548 70.552811 
L 117.465311 70.85559 
L 117.513188 70.655589 
L 117.495965 71.485508 
L 117.572397 70.984449 
L 117.633328 71.301045 
L 117.589552 70.690226 
L 117.64473 70.817517 
L 117.750845 70.589625 
L 117.663722 71.143739 
L 117.754625 70.767241 
L 117.794263 71.776633 
L 117.845109 70.020139 
L 117.854509 70.375321 
L 117.862028 70.247997 
L 117.905201 71.43171 
L 117.914574 71.73029 
L 117.9595 70.801699 
L 117.987528 70.310639 
L 118.049046 71.369945 
L 118.052769 71.280033 
L 118.115941 70.138728 
L 118.09181 71.535518 
L 118.17521 71.040205 
L 118.188152 71.84065 
L 118.269303 70.171813 
L 118.274824 69.99835 
L 118.331781 71.472098 
L 118.362947 71.130858 
L 118.434257 70.567658 
L 118.459793 71.181191 
L 118.470725 71.154365 
L 118.479834 71.308468 
L 118.550721 70.582314 
L 118.585163 71.283113 
L 118.592406 71.345969 
L 118.601456 70.934331 
L 118.657477 70.634972 
L 118.63039 71.182909 
L 118.711538 70.836097 
L 118.749292 71.574189 
L 118.792351 70.197884 
L 118.821006 70.819015 
L 118.826372 70.764798 
L 118.835316 71.064377 
L 118.890675 73.131645 
L 118.908498 69.092783 
L 118.947654 71.244177 
L 118.952987 70.22832 
L 118.977858 72.439685 
L 119.061121 70.718664 
L 119.173935 70.201896 
L 119.094679 71.534609 
L 119.177449 70.295423 
L 119.235358 71.476677 
L 119.301827 71.113513 
L 119.343693 70.561784 
L 119.329747 71.239859 
L 119.415008 70.850097 
L 119.489523 71.106261 
L 119.470488 70.707216 
L 119.530991 70.922997 
L 119.579261 70.79867 
L 119.549968 71.262918 
L 119.637713 70.997073 
L 119.748979 71.322337 
L 119.71481 70.685275 
L 119.766041 71.186128 
L 119.772861 71.030679 
L 119.888452 70.361951 
L 119.861314 71.383717 
L 119.890146 70.406354 
L 119.93754 72.698902 
L 119.929085 69.267451 
L 120.00505 70.932751 
L 120.008419 70.423832 
L 120.028623 71.379637 
L 120.115935 70.845331 
L 120.125983 70.685064 
L 120.209529 71.380701 
L 120.212864 71.488437 
L 120.237855 70.594174 
L 120.317611 71.280644 
L 120.363987 70.61859 
L 120.449823 70.98385 
L 120.467931 71.609553 
L 120.527084 69.975215 
L 120.528724 69.808109 
L 120.541844 71.751245 
L 120.630172 70.689287 
L 120.709979 71.61715 
L 120.700224 70.265031 
L 120.740837 70.735046 
L 120.753815 70.182354 
L 120.795937 71.473765 
L 120.810496 71.332917 
L 120.812112 71.346034 
L 120.834737 70.687392 
L 120.841196 70.285153 
L 120.929799 71.331568 
L 120.936227 71.20492 
L 120.937833 71.210503 
L 120.953895 70.883078 
L 120.96994 70.967663 
L 120.98277 70.142311 
L 121.0292 71.421005 
L 121.085094 70.685123 
L 121.086687 70.665935 
L 121.129692 71.350624 
L 121.158309 71.105655 
L 121.163075 71.358429 
L 121.172605 70.67316 
L 121.264467 70.775269 
L 121.292889 71.35742 
L 121.308662 70.536749 
L 121.395185 71.189537 
L 121.48914 70.045738 
L 121.496948 71.486323 
L 121.50007 71.391316 
L 121.517239 72.770429 
L 121.531271 69.409273 
L 121.607506 71.260437 
L 121.661777 70.330186 
L 121.643186 71.797553 
L 121.72362 70.499409 
L 121.725165 70.478 
L 121.743678 71.692295 
L 121.748301 71.891732 
L 121.774494 70.277326 
L 121.849792 71.520143 
L 121.863591 70.445811 
L 121.979728 71.23423 
L 121.984298 71.370371 
L 122.028425 70.61656 
L 122.086094 70.993794 
L 122.126967 70.778499 
L 122.18435 71.314727 
L 122.197913 70.967508 
L 122.218999 71.078493 
L 122.226522 70.817403 
L 122.235548 70.814971 
L 122.238557 70.68121 
L 122.32857 71.181102 
L 122.345025 70.855004 
L 122.41221 71.748474 
L 122.418173 70.617591 
L 122.424131 70.668703 
L 122.479167 69.67584 
L 122.439019 72.109038 
L 122.534049 70.85077 
L 122.547373 71.511309 
L 122.572522 70.494008 
L 122.644825 70.977976 
L 122.650716 70.59399 
L 122.678673 71.202358 
L 122.754981 70.978552 
L 122.771087 71.29134 
L 122.812019 70.749735 
L 122.867437 71.055993 
L 122.937214 70.73947 
L 122.921244 71.123023 
L 122.987937 70.825887 
L 123.073146 71.146185 
L 123.064497 70.718089 
L 123.103385 71.01862 
L 123.157986 70.725764 
L 123.124957 71.152294 
L 123.212437 71.062203 
L 123.302379 71.197164 
L 123.262455 70.747765 
L 123.315194 70.933962 
L 123.336534 70.79151 
L 123.411749 71.223759 
L 123.414581 71.306655 
L 123.473976 70.675928 
L 123.519107 71.110191 
L 123.571162 70.679652 
L 123.628682 71.160743 
L 123.634283 71.31882 
L 123.688827 70.665794 
L 123.736255 70.985318 
L 123.832156 71.06299 
L 123.80024 70.702157 
L 123.843244 70.964919 
L 123.895828 70.746489 
L 123.944139 71.178203 
L 123.95103 71.23617 
L 123.9827 70.665321 
L 124.019813 70.900356 
L 124.023932 70.770878 
L 124.044516 71.215101 
L 124.129367 70.890965 
L 124.198891 71.287725 
L 124.183917 70.534768 
L 124.247819 71.056419 
L 124.315571 70.790864 
L 124.356114 71.11722 
L 124.357462 71.120523 
L 124.366909 70.886525 
L 124.370957 70.755901 
L 124.46784 71.183799 
L 124.477234 70.872396 
L 124.573596 71.231999 
L 124.516103 70.826538 
L 124.586943 70.893826 
L 124.593612 70.752482 
L 124.633581 71.137481 
L 124.696039 70.959464 
L 124.804535 71.076164 
L 124.707977 70.7368 
L 124.809811 71.042813 
L 124.829588 70.79506 
L 124.855927 71.192873 
L 124.924242 70.958017 
L 124.958309 71.106692 
L 125.017132 70.823477 
L 125.031486 70.911815 
L 125.095291 70.613786 
L 125.057556 71.18919 
L 125.134257 70.987937 
L 125.145929 71.140043 
L 125.201609 70.76647 
L 125.245524 71.002452 
L 125.251974 70.991433 
L 125.257132 71.151008 
L 125.259712 71.201843 
L 125.291915 70.772664 
L 125.357449 70.883089 
L 125.394615 70.737413 
L 125.371554 71.17104 
L 125.448318 71.077304 
L 125.526056 71.198208 
L 125.485315 70.736897 
L 125.557826 71.048084 
L 125.613619 70.745881 
L 125.641456 71.207274 
L 125.643984 71.239957 
L 125.710876 70.782087 
L 125.737317 70.984203 
L 125.741091 70.998799 
L 125.746122 70.856871 
L 125.801381 70.779351 
L 125.790092 71.177704 
L 125.852733 71.030258 
L 125.901457 71.119589 
L 125.926398 70.824921 
L 125.953794 70.872466 
L 125.958773 70.79163 
L 125.967479 71.265301 
L 126.065478 70.830029 
L 126.067952 70.824324 
L 126.072899 70.998669 
L 126.082793 71.126339 
L 126.14944 70.791195 
L 126.18145 70.971674 
L 126.250215 70.656886 
L 126.283284 71.223306 
L 126.295516 70.848414 
L 126.355352 70.76134 
L 126.31874 71.048247 
L 126.365103 70.982202 
L 126.46963 71.618765 
L 126.45265 70.697673 
L 126.476901 71.004414 
L 126.502331 70.587286 
L 126.53377 71.181178 
L 126.589271 70.917824 
L 126.680625 70.797606 
L 126.612149 71.138897 
L 126.697404 70.921173 
L 126.714173 71.208563 
L 126.732123 70.688304 
L 126.803757 70.764228 
L 126.807332 70.700843 
L 126.864441 71.090706 
L 126.913091 70.807219 
L 126.926124 71.097703 
L 127.028889 70.86225 
L 127.032425 70.839501 
L 127.038313 71.032231 
L 127.041846 71.136281 
L 127.094756 70.778852 
L 127.147524 70.996701 
L 127.16625 70.600579 
L 127.176779 71.618067 
L 127.179117 71.800975 
L 127.193141 69.596914 
L 127.285224 71.24973 
L 127.30382 70.502731 
L 127.320079 71.268058 
L 127.419654 70.949508 
L 127.431201 71.277731 
L 127.489978 70.673165 
L 127.530216 70.948946 
L 127.619591 71.413528 
L 127.60129 70.67392 
L 127.632163 70.841846 
L 127.640158 70.552052 
L 127.662985 71.169838 
L 127.741538 70.882112 
L 127.837873 71.223914 
L 127.824301 70.720238 
L 127.846915 70.868688 
L 127.932613 70.55267 
L 127.879661 71.483818 
L 127.95735 70.780551 
L 127.987669 71.156764 
L 128.035854 70.77515 
L 128.069403 70.872303 
L 128.149687 71.082458 
L 128.132988 70.799099 
L 128.185265 71.007123 
L 128.279452 70.660811 
L 128.260651 71.189627 
L 128.289399 71.109156 
L 128.293818 71.332996 
L 128.31921 70.717329 
L 128.398479 70.98693 
L 128.482902 70.711743 
L 128.435802 71.136205 
L 128.511328 70.892246 
L 128.594179 71.130172 
L 128.570233 70.749203 
L 128.6181 70.8059 
L 128.621359 70.717399 
L 128.715645 71.098102 
L 128.724293 70.909769 
L 128.773941 71.122993 
L 128.794412 70.831109 
L 128.832066 70.868661 
L 128.932834 70.625267 
L 128.854623 71.105555 
L 128.934972 70.821919 
L 128.943524 71.752016 
L 128.955276 69.760373 
L 129.045851 71.003174 
L 129.051165 70.596818 
L 129.141299 71.173236 
L 129.15822 70.822093 
L 129.159277 70.819151 
L 129.168788 71.086391 
L 129.176182 71.320565 
L 129.189907 70.649922 
L 129.276256 71.008027 
L 129.344434 71.079709 
L 129.392541 70.680694 
L 129.393585 70.672432 
L 129.416552 71.085099 
L 129.469684 70.946805 
L 129.493599 71.095863 
L 129.55067 70.767149 
L 129.55585 70.79588 
L 129.615839 70.39319 
L 129.586903 71.376389 
L 129.655042 70.987663 
L 129.660196 71.304699 
L 129.690054 70.722334 
L 129.765015 70.885 
L 129.839689 70.773407 
L 129.800853 71.063066 
L 129.866218 70.941127 
L 129.885582 71.109873 
L 129.915099 70.784269 
L 129.972988 70.851437 
L 129.978057 70.774705 
L 130.007438 71.065959 
L 130.045868 70.988472 
L 130.101357 71.136808 
L 130.069093 70.781164 
L 130.155686 70.9765 
L 130.213873 70.831272 
L 130.225892 71.099169 
L 130.2579 71.085595 
L 130.379461 70.837335 
L 130.40031 70.949736 
L 130.495337 71.069373 
L 130.441941 70.815666 
L 130.509156 70.890108 
L 130.514089 70.813549 
L 130.558434 71.030299 
L 130.613478 71.006906 
L 130.645842 71.112169 
L 130.668367 70.7768 
L 130.714319 70.917276 
L 130.814643 70.799973 
L 130.799093 71.0583 
L 130.825328 70.901474 
L 130.833094 71.107021 
L 130.877692 70.782418 
L 130.925089 70.86523 
L 130.982006 70.82048 
L 131.006073 71.101012 
L 131.02915 70.970054 
L 131.110665 71.045036 
L 131.129797 70.774797 
L 131.134577 70.849852 
L 131.135531 70.834833 
L 131.146042 71.086936 
L 131.233733 71.028996 
L 131.26699 70.862972 
L 131.270788 70.688342 
L 131.371149 71.096821 
L 131.374929 71.072142 
L 131.375872 71.075024 
L 131.396633 70.783113 
L 131.398519 70.788867 
L 131.399462 70.786495 
L 131.418314 71.037266 
L 131.500108 71.120097 
L 131.451261 70.829437 
L 131.52355 70.908895 
L 131.598375 70.810465 
L 131.573153 71.067123 
L 131.627292 70.986132 
L 131.636613 71.119266 
L 131.665474 70.81623 
L 131.735126 70.904563 
L 131.745322 70.860188 
L 131.75551 70.983793 
L 131.7805 71.000669 
L 131.83776 71.043918 
L 131.822999 70.828286 
L 131.891177 71.031067 
L 131.961867 70.828091 
L 131.978355 71.102491 
L 132.00489 70.880733 
L 132.008548 70.827749 
L 132.044171 71.105992 
L 132.115223 70.891313 
L 132.182394 71.092332 
L 132.146114 70.731252 
L 132.235786 71.012388 
L 132.286329 70.807827 
L 132.320553 71.031447 
L 132.353817 70.931736 
L 132.469356 71.173817 
L 132.421074 70.766378 
L 132.472035 71.073225 
L 132.495237 70.74188 
L 132.507718 71.259599 
L 132.585108 70.985093 
L 132.65954 71.068307 
L 132.608176 70.884392 
L 132.676337 70.898538 
L 132.763626 70.825523 
L 132.688704 71.049493 
L 132.773299 70.946262 
L 132.861909 71.118949 
L 132.881158 70.837004 
L 132.882033 70.857327 
L 132.99886 71.110723 
L 132.935301 70.755413 
L 133.000599 71.022327 
L 133.005813 70.678696 
L 133.017976 71.328042 
L 133.112405 70.891736 
L 133.156433 71.083213 
L 133.118453 70.841667 
L 133.216701 70.851866 
L 133.217562 70.833248 
L 133.317882 71.052636 
L 133.321303 71.086111 
L 133.328998 70.955382 
L 133.340107 70.766394 
L 133.379364 71.068138 
L 133.438955 71.002004 
L 133.492432 71.111816 
L 133.479712 70.772039 
L 133.525464 70.850748 
L 133.530541 70.626597 
L 133.568576 71.14045 
L 133.635171 70.910605 
L 133.656198 70.80526 
L 133.668803 71.061684 
L 133.737572 70.998063 
L 133.831112 71.083725 
L 133.81444 70.854407 
L 133.841941 70.908488 
L 133.852763 70.757769 
L 133.861084 71.17978 
L 133.936642 71.075678 
L 133.991263 71.142741 
L 133.975555 70.771258 
L 134.039136 70.948786 
L 134.106622 70.798219 
L 134.062207 71.105422 
L 134.146838 71.014671 
L 134.229474 70.863558 
L 134.194335 71.038248 
L 134.278399 70.926379 
L 134.341822 71.292366 
L 134.332889 70.555042 
L 134.386421 70.803121 
L 134.397756 71.113553 
L 134.50593 70.980761 
L 134.611909 71.086073 
L 134.528459 70.832032 
L 134.619114 71.02515 
L 134.721299 70.811122 
L 134.68783 71.036077 
L 134.732447 70.995553 
L 134.805523 71.060379 
L 134.822957 70.765341 
L 134.823751 70.757405 
L 134.87201 71.110386 
L 134.903591 71.068613 
L 134.963457 71.092489 
L 134.927246 70.84203 
L 135.011374 70.998161 
L 135.040382 70.785588 
L 135.027844 71.096968 
L 135.13495 70.992282 
L 135.153652 71.058547 
L 135.163775 70.827852 
L 135.239923 70.888132 
L 135.335849 70.817869 
L 135.316548 71.036829 
L 135.346649 71.000001 
L 135.388257 71.09795 
L 135.409027 70.791673 
L 135.456639 70.987913 
L 135.4781 70.880646 
L 135.531659 70.84488 
L 135.582784 71.024045 
L 135.583548 71.013946 
L 135.664917 71.06296 
L 135.594212 70.873297 
L 135.692218 70.938576 
L 135.748219 70.831033 
L 135.711913 71.047503 
L 135.804061 70.904178 
L 135.839444 71.087392 
L 135.811594 70.848745 
L 135.916766 70.961581 
L 135.996772 70.832732 
L 135.984083 71.063603 
L 136.027341 70.969875 
L 136.110605 71.084266 
L 136.088336 70.847931 
L 136.129144 70.868645 
L 136.206811 70.814813 
L 136.223784 71.081123 
L 136.238531 70.898825 
L 136.331915 71.113154 
L 136.265047 70.832954 
L 136.357571 70.970122 
L 136.397822 71.065704 
L 136.383927 70.855074 
L 136.412439 70.877943 
L 136.418283 70.823938 
L 136.442369 71.034261 
L 136.521716 70.921483 
L 136.60581 71.09925 
L 136.623886 70.799696 
L 136.637612 71.033865 
L 136.73559 70.79759 
L 136.719773 71.090535 
L 136.748521 71.030516 
L 136.760725 70.873356 
L 136.865232 70.959618 
L 136.969183 71.071154 
L 136.95853 70.789502 
L 136.976994 70.981307 
L 137.071178 70.762676 
L 137.081772 71.10232 
L 137.085302 71.077727 
L 137.183884 70.846243 
L 137.15014 71.090733 
L 137.205646 70.89996 
L 137.258198 71.155019 
L 137.240697 70.801031 
L 137.332233 71.00959 
L 137.392786 70.853234 
L 137.377494 71.082681 
L 137.444147 70.9573 
L 137.513342 70.768967 
L 137.494682 71.172997 
L 137.552673 70.964715 
L 137.603616 71.06512 
L 137.592613 70.831907 
L 137.663342 70.949354 
L 137.751568 70.824085 
L 137.672937 71.038406 
L 137.780207 70.905806 
L 137.892993 71.080534 
L 137.87876 70.787781 
L 137.893671 71.070068 
L 137.948469 70.832108 
L 137.897736 71.134935 
L 138.005809 70.984759 
L 138.007157 71.036671 
L 138.033408 70.843485 
L 138.116643 71.000205 
L 138.175497 70.789985 
L 138.166813 71.112109 
L 138.227518 70.988716 
L 138.252812 71.044227 
L 138.239501 70.84253 
L 138.335783 70.91334 
L 138.368212 70.848886 
L 138.430276 71.061201 
L 138.431595 71.101313 
L 138.471103 70.835229 
L 138.540054 71.005701 
L 138.574767 70.738265 
L 138.583271 71.163563 
L 138.670724 70.93001 
L 138.672025 70.92075 
L 138.676584 71.03608 
L 138.681141 71.068643 
L 138.69025 70.799093 
L 138.780465 70.841232 
L 138.863178 71.118053 
L 138.90376 70.883561 
L 138.905047 70.846329 
L 138.927554 71.016546 
L 139.007091 70.910898 
L 139.056318 71.040775 
L 139.078652 70.841498 
L 139.118792 70.965036 
L 139.205163 71.030578 
L 139.13915 70.871158 
L 139.226066 70.923268 
L 139.291158 70.839132 
L 139.308815 71.08775 
L 139.335272 70.955102 
L 139.391218 71.151708 
L 139.403142 70.761536 
L 139.44325 70.928539 
L 139.447006 70.843306 
L 139.484528 71.085218 
L 139.552506 70.931004 
L 139.587338 71.043014 
L 139.603491 70.845249 
L 139.663632 70.939428 
L 139.757506 71.04718 
L 139.681577 70.877232 
L 139.772287 70.91771 
L 139.83928 70.786766 
L 139.829459 71.061782 
L 139.884017 70.910398 
L 139.889526 71.059092 
L 139.900537 70.867331 
L 139.995722 70.941985 
L 140.068629 71.035252 
L 140.016408 70.906034 
L 140.079543 70.874252 
L 140.08439 70.843615 
L 140.129783 71.03983 
L 140.188336 70.898261 
L 140.20099 71.058482 
L 140.290538 70.849016 
L 140.301927 71.00512 
L 140.383856 70.860101 
L 140.331868 71.029077 
L 140.415458 70.931302 
L 140.497508 71.110356 
L 140.440466 70.791261 
L 140.525376 70.90364 
L 140.622891 70.868205 
L 140.537221 71.087004 
L 140.629966 70.961982 
L 140.674117 71.093295 
L 140.686461 70.790511 
L 140.739864 70.925049 
L 140.754509 70.852165 
L 140.747482 71.02467 
L 140.847985 70.96753 
L 140.852064 71.047055 
L 140.952034 70.838122 
L 140.96015 71.028624 
L 141.018015 71.091086 
L 140.978107 70.835886 
L 141.026682 70.876657 
L 141.117722 70.810123 
L 141.108521 71.068046 
L 141.133811 71.001277 
L 141.161936 71.098905 
L 141.145872 70.85686 
L 141.243218 70.994033 
L 141.249501 70.809695 
L 141.336675 71.02797 
L 141.355994 70.935742 
L 141.438173 71.06898 
L 141.450613 70.819563 
L 141.466432 70.919794 
L 141.543091 70.824704 
L 141.477159 71.028407 
L 141.579622 70.857924 
L 141.685462 71.059152 
L 141.659755 70.854922 
L 141.691045 70.890249 
L 141.693278 70.836998 
L 141.785734 71.090902 
L 141.801286 70.910458 
L 141.877755 71.050521 
L 141.864478 70.85388 
L 141.922501 70.999559 
L 141.934638 70.823781 
L 141.945665 71.055993 
L 142.033649 70.991479 
L 142.136529 71.093423 
L 142.089535 70.807952 
L 142.142533 70.972833 
L 142.153988 70.839257 
L 142.18287 71.090158 
L 142.254614 70.965027 
L 142.349871 71.066385 
L 142.331504 70.833106 
L 142.363364 70.912103 
L 142.423699 70.866712 
L 142.452187 71.029834 
L 142.474732 70.903043 
L 142.515997 71.142065 
L 142.504751 70.813934 
L 142.587606 70.946241 
L 142.684978 70.849548 
L 142.64513 71.043809 
L 142.697183 70.990013 
L 142.739043 71.058878 
L 142.722097 70.786516 
L 142.806678 70.976207 
L 142.847779 70.85337 
L 142.839356 71.029042 
L 142.917666 70.980042 
L 143.000365 71.083202 
L 143.011854 70.855758 
L 143.028029 70.956891 
L 143.109227 70.798605 
L 143.077517 71.077906 
L 143.142962 70.900313 
L 143.245365 71.034362 
L 143.18078 70.814759 
L 143.254131 70.904036 
L 143.316422 71.061836 
L 143.29791 70.826191 
L 143.372879 70.948775 
L 143.415369 70.812914 
L 143.402581 71.035002 
L 143.484287 70.909774 
L 143.507714 70.791277 
L 143.577831 71.064811 
L 143.589998 70.965828 
L 143.678501 71.071599 
L 143.631013 70.808435 
L 143.701194 70.970054 
L 143.726377 70.877373 
L 143.71933 71.049769 
L 143.814771 70.950683 
L 143.866815 71.052451 
L 143.909747 70.780936 
L 143.927691 70.993067 
L 143.978942 70.860513 
L 143.968504 71.022433 
L 144.039969 70.970043 
L 144.153084 71.086182 
L 144.132387 70.893522 
L 144.153578 71.070907 
L 144.244974 70.827998 
L 144.195397 71.094962 
L 144.266533 70.937002 
L 144.368613 71.082472 
L 144.353505 70.847589 
L 144.375433 70.906354 
L 144.467258 70.855943 
L 144.398795 71.111159 
L 144.484701 70.960433 
L 144.500675 70.799788 
L 144.516154 71.134009 
L 144.592883 70.980623 
L 144.693285 71.036552 
L 144.670751 70.838621 
L 144.699513 70.880777 
L 144.708134 70.882899 
L 144.7134 70.988124 
L 144.724885 70.990176 
L 144.768849 71.043144 
L 144.776484 70.812083 
L 144.834135 70.926471 
L 144.93426 70.828161 
L 144.923844 71.020281 
L 144.944671 70.936595 
L 144.982481 71.06312 
L 145.030583 70.841938 
L 145.05553 70.934255 
L 145.166702 70.845152 
L 145.063995 71.04832 
L 145.171378 70.876396 
L 145.1826 71.153263 
L 145.193812 70.781311 
L 145.292127 70.975284 
L 145.359868 70.880831 
L 145.344577 71.034698 
L 145.403357 70.943342 
L 145.493271 71.091238 
L 145.454589 70.836374 
L 145.503389 70.894282 
L 145.552068 70.80805 
L 145.570406 71.039912 
L 145.6052 71.007291 
L 145.675519 71.023912 
L 145.623032 70.829817 
L 145.696017 70.941583 
L 145.702846 70.834029 
L 145.708308 71.063885 
L 145.806349 70.957702 
L 145.907056 71.018367 
L 145.882717 70.840445 
L 145.916513 70.942848 
L 145.990661 70.830441 
L 145.981239 71.049951 
L 146.02875 70.886601 
L 146.088645 71.046141 
L 146.124762 70.812838 
L 146.141237 70.979515 
L 146.229171 70.831055 
L 146.235816 71.067294 
L 146.252642 70.951701 
L 146.331707 70.83214 
L 146.287575 71.038824 
L 146.361218 70.990857 
L 146.468321 71.105077 
L 146.438093 70.848902 
L 146.47226 71.006797 
L 146.478387 70.796336 
L 146.490197 71.10505 
L 146.584856 70.933539 
L 146.629191 71.094036 
L 146.61703 70.830186 
L 146.702431 70.981084 
L 146.71281 70.837254 
L 146.721454 71.046599 
L 146.812856 71.00848 
L 146.817586 71.041451 
L 146.821458 70.915376 
L 146.899553 70.808441 
L 146.858398 71.062439 
L 146.929934 71.010505 
L 146.982883 71.048212 
L 146.99482 70.867315 
L 147.036965 70.942756 
L 147.099802 70.848311 
L 147.089626 71.058137 
L 147.145108 71.005386 
L 147.147221 71.081144 
L 147.24803 70.783433 
L 147.256022 71.044811 
L 147.313551 70.831435 
L 147.321097 71.064825 
L 147.36715 71.003546 
L 147.396816 71.063695 
L 147.407251 70.792552 
L 147.476819 70.947809 
L 147.578436 70.833139 
L 147.527902 71.06137 
L 147.588362 70.932713 
L 147.607786 71.063921 
L 147.656881 70.840462 
L 147.700097 70.975417 
L 147.704619 70.819579 
L 147.753472 71.10337 
L 147.809154 71.03684 
L 147.843468 71.069911 
L 147.855301 70.823737 
L 147.910698 70.926129 
L 147.997146 70.772208 
L 147.97121 71.07738 
L 148.021831 70.881254 
L 148.129525 71.083245 
L 148.057391 70.795647 
L 148.133546 70.916147 
L 148.245028 70.805151 
L 148.232229 71.127477 
L 148.24623 70.837167 
L 148.297344 71.070915 
L 148.359461 70.961385 
L 148.46216 70.812137 
L 148.449896 71.080604 
L 148.468089 71.025348 
L 148.499301 71.079027 
L 148.476786 70.845005 
L 148.578089 70.980454 
L 148.638933 70.798996 
L 148.631094 71.058446 
L 148.689428 70.977409 
L 148.705841 71.044306 
L 148.715213 70.831538 
L 148.798584 70.946327 
L 148.89012 70.849196 
L 148.87967 71.072763 
L 148.909845 70.907391 
L 148.913324 71.058088 
L 148.927618 70.849755 
L 149.021247 70.935352 
L 149.114814 70.844886 
L 149.06962 71.074343 
L 149.128579 70.959412 
L 149.132783 71.041511 
L 149.178978 70.8542 
L 149.239891 71.005223 
L 149.305164 70.848495 
L 149.289246 71.03852 
L 149.354353 70.962343 
L 149.391356 71.081671 
L 149.400782 70.790962 
L 149.46402 70.911614 
L 149.556254 70.85971 
L 149.47454 71.020474 
L 149.573452 70.9721 
L 149.633901 71.051262 
L 149.628312 70.869947 
L 149.654754 70.868498 
L 149.662941 70.85401 
L 149.722003 71.04239 
L 149.762389 70.962978 
L 149.841441 71.052019 
L 149.793456 70.810194 
L 149.872752 70.964691 
L 149.892251 70.829757 
L 149.881217 71.081535 
L 149.985059 70.903711 
L 149.999327 71.076444 
L 149.989817 70.840548 
L 150.098911 70.949978 
L 150.184594 70.794262 
L 150.15559 71.051007 
L 150.20885 70.949001 
L 150.210658 71.042509 
L 150.311338 70.846373 
L 150.320335 70.977803 
L 150.401834 70.838133 
L 150.355921 71.102854 
L 150.43155 70.973612 
L 150.488349 70.802014 
L 150.49655 71.065918 
L 150.540715 70.991514 
L 150.618471 71.096962 
L 150.623786 70.844174 
L 150.650337 70.90281 
L 150.704742 70.825686 
L 150.699451 71.066279 
L 150.757592 70.976123 
L 150.780096 71.061937 
L 150.76955 70.834909 
L 150.866713 70.930982 
L 150.95678 70.86503 
L 150.962353 71.070223 
L 150.978362 70.881841 
L 150.999226 70.807735 
L 150.991926 71.088358 
L 151.087651 70.912146 
L 151.093531 71.058642 
L 151.099758 70.828655 
L 151.199431 70.953951 
L 151.268799 70.850683 
L 151.273599 71.054153 
L 151.310578 70.933549 
L 151.313314 71.040058 
L 151.339292 70.837764 
L 151.425182 70.970241 
L 151.430623 70.815731 
L 151.472058 71.056036 
L 151.536076 70.95489 
L 151.602583 71.057613 
L 151.612354 70.85527 
L 151.646348 70.876293 
L 151.655089 71.060167 
L 151.729568 70.814243 
L 151.759014 70.952966 
L 151.78708 70.838024 
L 151.779733 71.061185 
L 151.87004 70.93888 
L 151.95894 71.033564 
L 151.976804 70.84868 
L 151.981433 70.962514 
L 152.069502 71.047159 
L 151.993001 70.897615 
L 152.078386 70.894667 
L 152.136854 70.823933 
L 152.148003 71.075741 
L 152.189588 70.886161 
L 152.203974 70.847936 
L 152.209204 71.051059 
L 152.297236 70.935824 
L 152.323894 71.053336 
L 152.31707 70.826707 
L 152.409473 70.988157 
L 152.423376 71.073132 
L 152.416263 70.862022 
L 152.518177 70.957968 
L 152.60868 70.838654 
L 152.603557 71.062105 
L 152.630442 70.923106 
L 152.693986 71.078053 
L 152.634598 70.84951 
L 152.744292 70.973604 
L 152.831229 70.822364 
L 152.82458 71.109558 
L 152.854961 70.98515 
L 152.882135 71.087596 
L 152.890343 70.810959 
L 152.944242 70.878187 
L 152.999564 70.830859 
L 152.95903 71.055176 
L 153.054416 70.940574 
L 153.073501 71.059681 
L 153.124717 70.808251 
L 153.160862 70.917813 
L 153.268283 70.811253 
L 153.235436 71.075605 
L 153.27138 70.948352 
L 153.290253 71.058145 
L 153.373887 70.821278 
L 153.382507 70.963698 
L 153.488726 70.830088 
L 153.408041 71.062955 
L 153.49332 70.970814 
L 153.580665 71.052641 
L 153.590413 70.774639 
L 153.603811 70.938505 
L 153.634528 70.846715 
L 153.628753 71.063782 
L 153.715501 70.913552 
L 153.799456 71.117163 
L 153.807291 70.800885 
L 153.825958 70.911261 
L 153.859936 70.795239 
L 153.91843 71.058764 
L 153.935796 70.99853 
L 153.939387 71.096563 
L 153.947464 70.769917 
L 154.015837 70.874257 
L 154.110387 70.761226 
L 154.057221 71.065397 
L 154.123435 71.014256 
L 154.137658 71.087536 
L 154.209505 70.774124 
L 154.232805 70.980378 
L 154.237228 70.815611 
L 154.338052 71.082895 
L 154.344796 70.855584 
L 154.382861 70.803952 
L 154.389296 71.073461 
L 154.429903 71.016598 
L 154.503598 71.079858 
L 154.484398 70.814585 
L 154.538745 70.966056 
L 154.55876 70.822543 
L 154.55267 71.059548 
L 154.650162 70.949275 
L 154.697143 71.068084 
L 154.746024 70.827966 
L 154.759229 70.924767 
L 154.778734 70.822641 
L 154.783321 71.072565 
L 154.86912 71.043082 
L 154.873685 70.797324 
L 154.90191 71.07478 
L 154.979534 71.046594 
L 155.019505 71.078058 
L 155.014123 70.787673 
L 155.085381 70.849331 
L 155.085662 70.848598 
L 155.122038 71.058237 
L 155.133303 71.018921 
L 155.17493 71.153049 
L 155.169029 70.804516 
L 155.242807 70.896888 
L 155.351424 71.073024 
L 155.264355 70.846183 
L 155.356435 70.887839 
L 155.402871 70.817153 
L 155.413976 71.059565 
L 155.46692 70.941366 
L 155.56274 70.838133 
L 155.507017 71.091157 
L 155.577335 70.956028 
L 155.586141 71.111903 
L 155.581188 70.80241 
L 155.688228 70.94794 
L 155.751355 70.831326 
L 155.757083 71.038634 
L 155.799588 70.913319 
L 155.904906 71.062026 
L 155.83195 70.84406 
L 155.91059 70.907082 
L 155.998888 71.087403 
L 155.970579 70.802611 
L 156.020969 70.883996 
L 156.105558 70.817983 
L 156.048399 71.057402 
L 156.130729 70.963043 
L 156.237751 71.102208 
L 156.231894 70.806188 
L 156.240412 70.961795 
L 156.306831 70.836814 
L 156.335984 71.072144 
L 156.351338 70.96157 
L 156.366153 71.075624 
L 156.361656 70.841536 
L 156.462168 70.971289 
L 156.490566 70.793676 
L 156.482418 71.105487 
L 156.57499 70.828118 
L 156.640028 70.809136 
L 156.635857 71.086654 
L 156.655408 70.983654 
L 156.692113 71.100922 
L 156.717584 70.798442 
L 156.766094 71.010252 
L 156.847796 70.844777 
L 156.801816 71.054275 
L 156.877447 70.923665 
L 156.987916 71.043071 
L 156.902935 70.844685 
L 156.989198 70.987918 
L 157.005585 70.850699 
L 157.068705 71.069628 
L 157.099806 71.017409 
L 157.102352 71.055447 
L 157.107955 70.832927 
L 157.197378 70.911028 
L 157.232832 70.848077 
L 157.203714 71.058156 
L 157.307831 70.961597 
L 157.403877 71.060189 
L 157.396852 70.8154 
L 157.419171 70.971031 
L 157.510684 70.791852 
L 157.505695 71.070383 
L 157.531377 70.962577 
L 157.608475 70.798567 
L 157.566731 71.077152 
L 157.642947 70.966762 
L 157.732931 71.091805 
L 157.727505 70.805146 
L 157.753883 70.96683 
L 157.854642 70.831771 
L 157.824223 71.058045 
L 157.861994 70.991262 
L 157.930727 71.096015 
L 157.966101 70.825767 
L 157.973411 71.026417 
L 158.044912 70.816762 
L 158.040542 71.069848 
L 158.086137 70.932496 
L 158.182558 71.099915 
L 158.109138 70.830669 
L 158.196775 70.902864 
L 158.294093 71.066996 
L 158.298406 70.843968 
L 158.309188 70.937436 
L 158.368736 70.807073 
L 158.375897 71.089262 
L 158.420722 70.900628 
L 158.52618 71.077554 
L 158.519783 70.751445 
L 158.531154 70.834062 
L 158.532101 70.76894 
L 158.549854 71.087767 
L 158.640261 70.994391 
L 158.747593 70.823938 
L 158.691534 71.059863 
L 158.752043 70.980142 
L 158.85807 71.092107 
L 158.854576 70.797416 
L 158.862262 70.927687 
L 158.908314 70.825746 
L 158.902506 71.084252 
L 158.970707 71.0615 
L 159.042826 71.085446 
L 159.03798 70.827027 
L 159.080169 70.955783 
L 159.11836 70.803773 
L 159.123875 71.102911 
L 159.191772 70.904302 
L 159.240486 71.082621 
L 159.211912 70.836906 
L 159.303199 70.975371 
L 159.361402 71.059087 
L 159.32459 70.829138 
L 159.414451 70.994749 
L 159.436853 70.803257 
L 159.433459 71.094867 
L 159.525977 70.954033 
L 159.540829 71.063766 
L 159.53543 70.812669 
L 159.638215 71.01906 
L 159.726878 70.804739 
L 159.721752 71.093005 
L 159.750484 70.949894 
L 159.852375 71.090315 
L 159.855472 70.842231 
L 159.86145 70.940112 
L 159.931919 70.820909 
L 159.926626 71.073341 
L 159.971573 70.956014 
L 160.02322 71.084111 
L 160.046911 70.803306 
L 160.082174 70.928512 
L 160.092457 70.864677 
L 160.095082 71.035952 
L 160.095519 71.063264 
L 160.16036 70.841667 
L 160.205427 70.960709 
L 160.307586 71.059953 
L 160.31148 70.804147 
L 160.312128 70.8187 
L 160.312777 70.797568 
L 160.316238 71.156626 
L 160.421264 70.936079 
L 160.519741 71.100276 
L 160.440828 70.807268 
L 160.532792 71.000023 
L 160.564632 71.128299 
L 160.570183 70.795288 
L 160.642838 70.969622 
L 160.746349 70.831831 
L 160.742329 71.050068 
L 160.753541 70.964756 
L 160.795158 71.107471 
L 160.792203 70.829263 
L 160.864462 70.988274 
L 160.96556 70.816018 
L 160.971416 71.092269 
L 160.976227 70.881542 
L 161.030933 71.094169 
L 160.994618 70.846215 
L 161.09006 70.995678 
L 161.189178 70.80387 
L 161.155848 71.077562 
L 161.201997 70.924012 
L 161.239994 70.846101 
L 161.210677 71.038476 
L 161.262673 71.054329 
L 161.28018 71.094576 
L 161.359694 70.809543 
L 161.370969 70.895959 
L 161.467663 71.117532 
L 161.462769 70.748633 
L 161.484174 70.970629 
L 161.528541 70.808832 
L 161.557592 71.061831 
L 161.595513 70.941295 
L 161.677598 71.089181 
L 161.682035 70.83854 
L 161.705017 70.924284 
L 161.80309 70.808137 
L 161.79888 71.127064 
L 161.815916 70.923773 
L 161.917824 71.083223 
L 161.904065 70.828579 
L 161.927788 70.943581 
L 162.036843 70.835679 
L 162.005718 71.054392 
L 162.039222 70.912656 
L 162.133673 71.077212 
L 162.117304 70.809901 
L 162.151011 70.967581 
L 162.259426 70.815997 
L 162.246886 71.047978 
L 162.261582 70.985334 
L 162.366272 71.056047 
L 162.33625 70.829855 
L 162.371533 70.876467 
L 162.372115 70.824552 
L 162.427734 71.08936 
L 162.482613 70.874344 
L 162.518986 70.816339 
L 162.514539 71.065785 
L 162.584403 70.988374 
L 162.642687 71.084141 
L 162.5975 70.837454 
L 162.695056 70.949609 
L 162.739449 70.821778 
L 162.735818 71.058267 
L 162.805851 70.947397 
L 162.894229 71.114389 
L 162.890435 70.742195 
L 162.915646 70.87797 
L 162.93477 70.844055 
L 162.999382 71.08401 
L 163.021628 70.961738 
L 163.036505 71.080249 
L 163.033306 70.819161 
L 163.132097 70.944504 
L 163.15513 70.806231 
L 163.188036 71.08984 
L 163.243256 70.918882 
L 163.347117 71.08007 
L 163.350453 70.828824 
L 163.35453 70.951837 
L 163.373228 71.05973 
L 163.439371 70.818933 
L 163.463885 70.90827 
L 163.499222 70.826039 
L 163.502531 71.060333 
L 163.573734 70.980701 
L 163.67277 71.109843 
L 163.676962 70.769456 
L 163.683702 70.937539 
L 163.77566 71.06413 
L 163.691898 70.814851 
L 163.796679 70.953373 
L 163.896221 70.855129 
L 163.821116 71.047924 
L 163.908111 70.905279 
L 163.956675 71.068521 
L 164.011747 70.827499 
L 164.01945 70.933598 
L 164.105929 70.77262 
L 164.026074 71.063259 
L 164.128735 70.963768 
L 164.240428 71.133855 
L 164.160052 70.758225 
L 164.240783 71.118626 
L 164.323652 70.777419 
L 164.353777 70.915246 
L 164.381926 71.085796 
L 164.377706 70.837503 
L 164.4649 70.915039 
L 164.496559 70.817354 
L 164.492192 71.063913 
L 164.575051 70.972448 
L 164.623904 71.084969 
L 164.627202 70.824231 
L 164.62755 70.777929 
L 164.730751 71.08806 
L 164.736795 70.874719 
L 164.779737 71.083446 
L 164.783526 70.799533 
L 164.849212 70.997876 
L 164.908857 70.85071 
L 164.893619 71.097833 
L 164.960134 71.012106 
L 165.071281 71.072831 
L 164.965764 70.829773 
L 165.07145 71.044358 
L 165.076203 70.833519 
L 165.184336 70.910301 
L 165.186697 71.065245 
L 165.21671 70.78644 
L 165.295902 70.965964 
L 165.29775 71.070717 
L 165.394489 70.766475 
L 165.406507 70.94839 
L 165.498895 70.814727 
L 165.515827 71.093078 
L 165.51699 71.00528 
L 165.517155 71.005288 
L 165.518481 70.910507 
L 165.519644 70.912624 
L 165.605557 70.808039 
L 165.532413 71.079733 
L 165.629987 70.992676 
L 165.715749 70.834947 
L 165.735447 71.108044 
L 165.742995 70.890694 
L 165.788704 71.04189 
L 165.759227 70.845304 
L 165.790505 70.984563 
" clip-path="url(#pe259b1c055)" style="fill: none; stroke: #808080; stroke-linecap: square"/>
   </g>
   <g id="line2d_3">
    <path d="M 57.377031 25.41395 
L 165.790668 25.41395 
" clip-path="url(#pe259b1c055)" style="fill: none; stroke-dasharray: 6.4,1.6,1,1.6; stroke-dashoffset: 0; stroke: #808080"/>
   </g>
   <g id="matplotlib.axis_1">
    <g id="xtick_1">
     <g id="line2d_4">
      <defs>
       <path id="ma6c94e86a0" d="M 0 0 
L 0 6 
" style="stroke: #000000"/>
      </defs>
      <g>
       <use xlink:href="#ma6c94e86a0" x="57.377031" y="116.483699" style="stroke: #000000"/>
      </g>
     </g>
     <g id="text_1">
      <!-- $\mathdefault{10^{1}}$ -->
      <g transform="translate(44.032031 140.014949)scale(0.17 -0.17)">
       <defs>
        <path id="ArialMT-31" d="M 2384 0 
L 1822 0 
L 1822 3584 
Q 1619 3391 1289 3197 
Q 959 3003 697 2906 
L 697 3450 
Q 1169 3672 1522 3987 
Q 1875 4303 2022 4600 
L 2384 4600 
L 2384 0 
z
" transform="scale(0.015625)"/>
        <path id="ArialMT-30" d="M 266 2259 
Q 266 3072 433 3567 
Q 600 4063 929 4331 
Q 1259 4600 1759 4600 
Q 2128 4600 2406 4451 
Q 2684 4303 2865 4023 
Q 3047 3744 3150 3342 
Q 3253 2941 3253 2259 
Q 3253 1453 3087 958 
Q 2922 463 2592 192 
Q 2263 -78 1759 -78 
Q 1097 -78 719 397 
Q 266 969 266 2259 
z
M 844 2259 
Q 844 1131 1108 757 
Q 1372 384 1759 384 
Q 2147 384 2411 759 
Q 2675 1134 2675 2259 
Q 2675 3391 2411 3762 
Q 2147 4134 1753 4134 
Q 1366 4134 1134 3806 
Q 844 3388 844 2259 
z
" transform="scale(0.015625)"/>
       </defs>
       <use xlink:href="#ArialMT-31" transform="translate(0 0.99375)"/>
       <use xlink:href="#ArialMT-30" transform="translate(55.615234 0.99375)"/>
       <use xlink:href="#ArialMT-31" transform="translate(112.972813 70.6875)scale(0.7)"/>
      </g>
     </g>
    </g>
    <g id="xtick_2">
     <g id="line2d_5">
      <g>
       <use xlink:href="#ma6c94e86a0" x="102.588186" y="116.483699" style="stroke: #000000"/>
      </g>
     </g>
     <g id="text_2">
      <!-- $\mathdefault{10^{2}}$ -->
      <g transform="translate(89.243186 140.014949)scale(0.17 -0.17)">
       <defs>
        <path id="ArialMT-32" d="M 3222 541 
L 3222 0 
L 194 0 
Q 188 203 259 391 
Q 375 700 629 1000 
Q 884 1300 1366 1694 
Q 2113 2306 2375 2664 
Q 2638 3022 2638 3341 
Q 2638 3675 2398 3904 
Q 2159 4134 1775 4134 
Q 1369 4134 1125 3890 
Q 881 3647 878 3216 
L 300 3275 
Q 359 3922 746 4261 
Q 1134 4600 1788 4600 
Q 2447 4600 2831 4234 
Q 3216 3869 3216 3328 
Q 3216 3053 3103 2787 
Q 2991 2522 2730 2228 
Q 2469 1934 1863 1422 
Q 1356 997 1212 845 
Q 1069 694 975 541 
L 3222 541 
z
" transform="scale(0.015625)"/>
       </defs>
       <use xlink:href="#ArialMT-31" transform="translate(0 0.99375)"/>
       <use xlink:href="#ArialMT-30" transform="translate(55.615234 0.99375)"/>
       <use xlink:href="#ArialMT-32" transform="translate(112.972813 70.6875)scale(0.7)"/>
      </g>
     </g>
    </g>
    <g id="xtick_3">
     <g id="line2d_6">
      <g>
       <use xlink:href="#ma6c94e86a0" x="147.79934" y="116.483699" style="stroke: #000000"/>
      </g>
     </g>
     <g id="text_3">
      <!-- $\mathdefault{10^{3}}$ -->
      <g transform="translate(134.45434 140.014949)scale(0.17 -0.17)">
       <defs>
        <path id="ArialMT-33" d="M 269 1209 
L 831 1284 
Q 928 806 1161 595 
Q 1394 384 1728 384 
Q 2125 384 2398 659 
Q 2672 934 2672 1341 
Q 2672 1728 2419 1979 
Q 2166 2231 1775 2231 
Q 1616 2231 1378 2169 
L 1441 2663 
Q 1497 2656 1531 2656 
Q 1891 2656 2178 2843 
Q 2466 3031 2466 3422 
Q 2466 3731 2256 3934 
Q 2047 4138 1716 4138 
Q 1388 4138 1169 3931 
Q 950 3725 888 3313 
L 325 3413 
Q 428 3978 793 4289 
Q 1159 4600 1703 4600 
Q 2078 4600 2393 4439 
Q 2709 4278 2876 4000 
Q 3044 3722 3044 3409 
Q 3044 3113 2884 2869 
Q 2725 2625 2413 2481 
Q 2819 2388 3044 2092 
Q 3269 1797 3269 1353 
Q 3269 753 2831 336 
Q 2394 -81 1725 -81 
Q 1122 -81 723 278 
Q 325 638 269 1209 
z
" transform="scale(0.015625)"/>
       </defs>
       <use xlink:href="#ArialMT-31" transform="translate(0 0.99375)"/>
       <use xlink:href="#ArialMT-30" transform="translate(55.615234 0.99375)"/>
       <use xlink:href="#ArialMT-33" transform="translate(112.972813 70.6875)scale(0.7)"/>
      </g>
     </g>
    </g>
    <g id="xtick_4">
     <g id="line2d_7">
      <defs>
       <path id="m56457d8e04" d="M 0 0 
L 0 3 
" style="stroke: #000000"/>
      </defs>
      <g>
       <use xlink:href="#m56457d8e04" x="70.986945" y="116.483699" style="stroke: #000000"/>
      </g>
     </g>
    </g>
    <g id="xtick_5">
     <g id="line2d_8">
      <g>
       <use xlink:href="#m56457d8e04" x="78.948234" y="116.483699" style="stroke: #000000"/>
      </g>
     </g>
    </g>
    <g id="xtick_6">
     <g id="line2d_9">
      <g>
       <use xlink:href="#m56457d8e04" x="84.596859" y="116.483699" style="stroke: #000000"/>
      </g>
     </g>
    </g>
    <g id="xtick_7">
     <g id="line2d_10">
      <g>
       <use xlink:href="#m56457d8e04" x="88.978272" y="116.483699" style="stroke: #000000"/>
      </g>
     </g>
    </g>
    <g id="xtick_8">
     <g id="line2d_11">
      <g>
       <use xlink:href="#m56457d8e04" x="92.558148" y="116.483699" style="stroke: #000000"/>
      </g>
     </g>
    </g>
    <g id="xtick_9">
     <g id="line2d_12">
      <g>
       <use xlink:href="#m56457d8e04" x="95.584889" y="116.483699" style="stroke: #000000"/>
      </g>
     </g>
    </g>
    <g id="xtick_10">
     <g id="line2d_13">
      <g>
       <use xlink:href="#m56457d8e04" x="98.206772" y="116.483699" style="stroke: #000000"/>
      </g>
     </g>
    </g>
    <g id="xtick_11">
     <g id="line2d_14">
      <g>
       <use xlink:href="#m56457d8e04" x="100.519437" y="116.483699" style="stroke: #000000"/>
      </g>
     </g>
    </g>
    <g id="xtick_12">
     <g id="line2d_15">
      <g>
       <use xlink:href="#m56457d8e04" x="116.198099" y="116.483699" style="stroke: #000000"/>
      </g>
     </g>
    </g>
    <g id="xtick_13">
     <g id="line2d_16">
      <g>
       <use xlink:href="#m56457d8e04" x="124.159389" y="116.483699" style="stroke: #000000"/>
      </g>
     </g>
    </g>
    <g id="xtick_14">
     <g id="line2d_17">
      <g>
       <use xlink:href="#m56457d8e04" x="129.808013" y="116.483699" style="stroke: #000000"/>
      </g>
     </g>
    </g>
    <g id="xtick_15">
     <g id="line2d_18">
      <g>
       <use xlink:href="#m56457d8e04" x="134.189427" y="116.483699" style="stroke: #000000"/>
      </g>
     </g>
    </g>
    <g id="xtick_16">
     <g id="line2d_19">
      <g>
       <use xlink:href="#m56457d8e04" x="137.769302" y="116.483699" style="stroke: #000000"/>
      </g>
     </g>
    </g>
    <g id="xtick_17">
     <g id="line2d_20">
      <g>
       <use xlink:href="#m56457d8e04" x="140.796044" y="116.483699" style="stroke: #000000"/>
      </g>
     </g>
    </g>
    <g id="xtick_18">
     <g id="line2d_21">
      <g>
       <use xlink:href="#m56457d8e04" x="143.417927" y="116.483699" style="stroke: #000000"/>
      </g>
     </g>
    </g>
    <g id="xtick_19">
     <g id="line2d_22">
      <g>
       <use xlink:href="#m56457d8e04" x="145.730591" y="116.483699" style="stroke: #000000"/>
      </g>
     </g>
    </g>
    <g id="xtick_20">
     <g id="line2d_23">
      <g>
       <use xlink:href="#m56457d8e04" x="161.409254" y="116.483699" style="stroke: #000000"/>
      </g>
     </g>
    </g>
    <g id="text_4">
     <!-- Time (ms) -->
     <g transform="translate(73.663224 159.769168)scale(0.17 -0.17)">
      <defs>
       <path id="ArialMT-54" d="M 1659 0 
L 1659 4041 
L 150 4041 
L 150 4581 
L 3781 4581 
L 3781 4041 
L 2266 4041 
L 2266 0 
L 1659 0 
z
" transform="scale(0.015625)"/>
       <path id="ArialMT-69" d="M 425 3934 
L 425 4581 
L 988 4581 
L 988 3934 
L 425 3934 
z
M 425 0 
L 425 3319 
L 988 3319 
L 988 0 
L 425 0 
z
" transform="scale(0.015625)"/>
       <path id="ArialMT-6d" d="M 422 0 
L 422 3319 
L 925 3319 
L 925 2853 
Q 1081 3097 1340 3245 
Q 1600 3394 1931 3394 
Q 2300 3394 2536 3241 
Q 2772 3088 2869 2813 
Q 3263 3394 3894 3394 
Q 4388 3394 4653 3120 
Q 4919 2847 4919 2278 
L 4919 0 
L 4359 0 
L 4359 2091 
Q 4359 2428 4304 2576 
Q 4250 2725 4106 2815 
Q 3963 2906 3769 2906 
Q 3419 2906 3187 2673 
Q 2956 2441 2956 1928 
L 2956 0 
L 2394 0 
L 2394 2156 
Q 2394 2531 2256 2718 
Q 2119 2906 1806 2906 
Q 1569 2906 1367 2781 
Q 1166 2656 1075 2415 
Q 984 2175 984 1722 
L 984 0 
L 422 0 
z
" transform="scale(0.015625)"/>
       <path id="ArialMT-65" d="M 2694 1069 
L 3275 997 
Q 3138 488 2766 206 
Q 2394 -75 1816 -75 
Q 1088 -75 661 373 
Q 234 822 234 1631 
Q 234 2469 665 2931 
Q 1097 3394 1784 3394 
Q 2450 3394 2872 2941 
Q 3294 2488 3294 1666 
Q 3294 1616 3291 1516 
L 816 1516 
Q 847 969 1125 678 
Q 1403 388 1819 388 
Q 2128 388 2347 550 
Q 2566 713 2694 1069 
z
M 847 1978 
L 2700 1978 
Q 2663 2397 2488 2606 
Q 2219 2931 1791 2931 
Q 1403 2931 1139 2672 
Q 875 2413 847 1978 
z
" transform="scale(0.015625)"/>
       <path id="ArialMT-20" transform="scale(0.015625)"/>
       <path id="ArialMT-28" d="M 1497 -1347 
Q 1031 -759 709 28 
Q 388 816 388 1659 
Q 388 2403 628 3084 
Q 909 3875 1497 4659 
L 1900 4659 
Q 1522 4009 1400 3731 
Q 1209 3300 1100 2831 
Q 966 2247 966 1656 
Q 966 153 1900 -1347 
L 1497 -1347 
z
" transform="scale(0.015625)"/>
       <path id="ArialMT-73" d="M 197 991 
L 753 1078 
Q 800 744 1014 566 
Q 1228 388 1613 388 
Q 2000 388 2187 545 
Q 2375 703 2375 916 
Q 2375 1106 2209 1216 
Q 2094 1291 1634 1406 
Q 1016 1563 777 1677 
Q 538 1791 414 1992 
Q 291 2194 291 2438 
Q 291 2659 392 2848 
Q 494 3038 669 3163 
Q 800 3259 1026 3326 
Q 1253 3394 1513 3394 
Q 1903 3394 2198 3281 
Q 2494 3169 2634 2976 
Q 2775 2784 2828 2463 
L 2278 2388 
Q 2241 2644 2061 2787 
Q 1881 2931 1553 2931 
Q 1166 2931 1000 2803 
Q 834 2675 834 2503 
Q 834 2394 903 2306 
Q 972 2216 1119 2156 
Q 1203 2125 1616 2013 
Q 2213 1853 2448 1751 
Q 2684 1650 2818 1456 
Q 2953 1263 2953 975 
Q 2953 694 2789 445 
Q 2625 197 2315 61 
Q 2006 -75 1616 -75 
Q 969 -75 630 194 
Q 291 463 197 991 
z
" transform="scale(0.015625)"/>
       <path id="ArialMT-29" d="M 791 -1347 
L 388 -1347 
Q 1322 153 1322 1656 
Q 1322 2244 1188 2822 
Q 1081 3291 891 3722 
Q 769 4003 388 4659 
L 791 4659 
Q 1378 3875 1659 3084 
Q 1900 2403 1900 1659 
Q 1900 816 1576 28 
Q 1253 -759 791 -1347 
z
" transform="scale(0.015625)"/>
      </defs>
      <use xlink:href="#ArialMT-54"/>
      <use xlink:href="#ArialMT-69" x="57.333984"/>
      <use xlink:href="#ArialMT-6d" x="79.550781"/>
      <use xlink:href="#ArialMT-65" x="162.851562"/>
      <use xlink:href="#ArialMT-20" x="218.466797"/>
      <use xlink:href="#ArialMT-28" x="246.25"/>
      <use xlink:href="#ArialMT-6d" x="279.550781"/>
      <use xlink:href="#ArialMT-73" x="362.851562"/>
      <use xlink:href="#ArialMT-29" x="412.851562"/>
     </g>
    </g>
   </g>
   <g id="matplotlib.axis_2">
    <g id="ytick_1">
     <g id="line2d_24">
      <defs>
       <path id="mf8f08de7a7" d="M 0 0 
L -6 0 
" style="stroke: #000000"/>
      </defs>
      <g>
       <use xlink:href="#mf8f08de7a7" x="57.377031" y="116.483699" style="stroke: #000000"/>
      </g>
     </g>
     <g id="text_5">
      <!-- 0.0 -->
      <g transform="translate(26.747031 122.567839)scale(0.17 -0.17)">
       <defs>
        <path id="ArialMT-2e" d="M 581 0 
L 581 641 
L 1222 641 
L 1222 0 
L 581 0 
z
" transform="scale(0.015625)"/>
       </defs>
       <use xlink:href="#ArialMT-30"/>
       <use xlink:href="#ArialMT-2e" x="55.615234"/>
       <use xlink:href="#ArialMT-30" x="83.398438"/>
      </g>
     </g>
    </g>
    <g id="ytick_2">
     <g id="line2d_25">
      <g>
       <use xlink:href="#mf8f08de7a7" x="57.377031" y="70.948824" style="stroke: #000000"/>
      </g>
     </g>
     <g id="text_6">
      <!-- 0.5 -->
      <g transform="translate(26.747031 77.032965)scale(0.17 -0.17)">
       <defs>
        <path id="ArialMT-35" d="M 266 1200 
L 856 1250 
Q 922 819 1161 601 
Q 1400 384 1738 384 
Q 2144 384 2425 690 
Q 2706 997 2706 1503 
Q 2706 1984 2436 2262 
Q 2166 2541 1728 2541 
Q 1456 2541 1237 2417 
Q 1019 2294 894 2097 
L 366 2166 
L 809 4519 
L 3088 4519 
L 3088 3981 
L 1259 3981 
L 1013 2750 
Q 1425 3038 1878 3038 
Q 2478 3038 2890 2622 
Q 3303 2206 3303 1553 
Q 3303 931 2941 478 
Q 2500 -78 1738 -78 
Q 1113 -78 717 272 
Q 322 622 266 1200 
z
" transform="scale(0.015625)"/>
       </defs>
       <use xlink:href="#ArialMT-30"/>
       <use xlink:href="#ArialMT-2e" x="55.615234"/>
       <use xlink:href="#ArialMT-35" x="83.398438"/>
      </g>
     </g>
    </g>
    <g id="ytick_3">
     <g id="line2d_26">
      <g>
       <use xlink:href="#mf8f08de7a7" x="57.377031" y="25.41395" style="stroke: #000000"/>
      </g>
     </g>
     <g id="text_7">
      <!-- 1.0 -->
      <g transform="translate(26.747031 31.49809)scale(0.17 -0.17)">
       <use xlink:href="#ArialMT-31"/>
       <use xlink:href="#ArialMT-2e" x="55.615234"/>
       <use xlink:href="#ArialMT-30" x="83.398438"/>
      </g>
     </g>
    </g>
    <g id="text_8">
     <!-- DR-NED -->
     <g transform="translate(19.368281 94.896224)rotate(-90)scale(0.17 -0.17)">
      <defs>
       <path id="ArialMT-44" d="M 494 0 
L 494 4581 
L 2072 4581 
Q 2606 4581 2888 4516 
Q 3281 4425 3559 4188 
Q 3922 3881 4101 3404 
Q 4281 2928 4281 2316 
Q 4281 1794 4159 1391 
Q 4038 988 3847 723 
Q 3656 459 3429 307 
Q 3203 156 2883 78 
Q 2563 0 2147 0 
L 494 0 
z
M 1100 541 
L 2078 541 
Q 2531 541 2789 625 
Q 3047 709 3200 863 
Q 3416 1078 3536 1442 
Q 3656 1806 3656 2325 
Q 3656 3044 3420 3430 
Q 3184 3816 2847 3947 
Q 2603 4041 2063 4041 
L 1100 4041 
L 1100 541 
z
" transform="scale(0.015625)"/>
       <path id="ArialMT-52" d="M 503 0 
L 503 4581 
L 2534 4581 
Q 3147 4581 3465 4457 
Q 3784 4334 3975 4021 
Q 4166 3709 4166 3331 
Q 4166 2844 3850 2509 
Q 3534 2175 2875 2084 
Q 3116 1969 3241 1856 
Q 3506 1613 3744 1247 
L 4541 0 
L 3778 0 
L 3172 953 
Q 2906 1366 2734 1584 
Q 2563 1803 2427 1890 
Q 2291 1978 2150 2013 
Q 2047 2034 1813 2034 
L 1109 2034 
L 1109 0 
L 503 0 
z
M 1109 2559 
L 2413 2559 
Q 2828 2559 3062 2645 
Q 3297 2731 3419 2920 
Q 3541 3109 3541 3331 
Q 3541 3656 3305 3865 
Q 3069 4075 2559 4075 
L 1109 4075 
L 1109 2559 
z
" transform="scale(0.015625)"/>
       <path id="ArialMT-2d" d="M 203 1375 
L 203 1941 
L 1931 1941 
L 1931 1375 
L 203 1375 
z
" transform="scale(0.015625)"/>
       <path id="ArialMT-4e" d="M 488 0 
L 488 4581 
L 1109 4581 
L 3516 984 
L 3516 4581 
L 4097 4581 
L 4097 0 
L 3475 0 
L 1069 3600 
L 1069 0 
L 488 0 
z
" transform="scale(0.015625)"/>
       <path id="ArialMT-45" d="M 506 0 
L 506 4581 
L 3819 4581 
L 3819 4041 
L 1113 4041 
L 1113 2638 
L 3647 2638 
L 3647 2100 
L 1113 2100 
L 1113 541 
L 3925 541 
L 3925 0 
L 506 0 
z
" transform="scale(0.015625)"/>
      </defs>
      <use xlink:href="#ArialMT-44"/>
      <use xlink:href="#ArialMT-52" x="72.216797"/>
      <use xlink:href="#ArialMT-2d" x="144.433594"/>
      <use xlink:href="#ArialMT-4e" x="177.734375"/>
      <use xlink:href="#ArialMT-45" x="249.951172"/>
      <use xlink:href="#ArialMT-44" x="316.650391"/>
     </g>
    </g>
   </g>
   <g id="line2d_27">
    <path d="M 54.987518 60.234303 
L 64.071109 43.013999 
L 70.257712 35.743201 
L 74.954977 41.483301 
L 78.742631 78.602631 
L 81.91645 75.92392 
L 84.647924 75.92392 
L 87.045406 34.977849 
L 89.181745 29.23775 
L 91.108284 31.151118 
L 92.862572 35.743201 
L 94.472895 37.273888 
L 95.961104 31.151118 
L 97.34442 30.003096 
L 98.636658 25.41395 
L 99.849078 26.176365 
L 100.990968 25.41395 
L 102.070082 26.176365 
L 103.092968 69.418468 
L 104.065194 59.851632 
L 104.991542 64.061034 
L 105.87615 57.555588 
L 106.722616 69.418468 
L 107.534094 70.183815 
L 108.313361 80.898673 
L 109.784833 73.627878 
L 110.48118 60.616978 
L 111.8039 62.913017 
L 112.433279 27.707057 
L 113.043108 25.41395 
L 115.309016 25.41395 
L 115.836869 27.707057 
L 116.350901 25.41395 
L 117.816877 25.41395 
L 118.282183 46.458059 
L 118.736716 50.667466 
L 119.180964 60.616978 
L 119.615384 49.136768 
L 120.0404 46.84073 
L 120.456409 33.447157 
L 120.863789 28.472398 
L 121.262888 42.248647 
L 121.654034 46.84073 
L 122.037542 40.717954 
L 122.78279 68.653117 
L 123.14507 25.41395 
L 124.862506 25.41395 
L 125.188676 26.559035 
L 125.509516 25.41395 
L 125.825196 25.41395 
L 126.135883 33.064481 
L 126.44173 28.855074 
L 126.742884 50.667466 
L 127.039491 55.642225 
L 127.619591 39.187262 
L 127.903338 25.41395 
L 128.458819 25.41395 
L 128.730776 58.703605 
L 128.999018 56.024896 
L 129.263643 48.371422 
L 129.52475 34.212509 
L 130.036772 25.41395 
L 132.188737 25.41395 
L 132.413911 27.324376 
L 132.856657 36.508542 
L 133.074342 26.559035 
L 133.28964 25.41395 
L 133.502602 26.559035 
L 133.713279 30.003096 
L 133.921721 28.855074 
L 134.127971 33.447157 
L 134.332079 48.754098 
L 134.534086 44.927361 
L 134.734037 25.41395 
L 136.808751 25.41395 
L 136.98693 28.472398 
L 137.163503 25.41395 
L 137.338504 25.41395 
L 137.51196 27.324376 
L 137.683895 25.793684 
L 137.854338 25.41395 
L 138.19085 25.41395 
L 138.356966 28.472398 
L 138.521691 25.41395 
L 139.00773 25.41395 
L 139.167105 34.977849 
L 139.325197 34.212509 
L 139.482027 25.41395 
L 142.245932 25.41395 
L 142.381159 27.707057 
L 142.515462 25.41395 
L 144.426986 25.41395 
L 144.54804 26.176365 
L 144.668352 31.533789 
L 144.787933 25.41395 
L 144.906788 25.41395 
L 145.024929 27.324376 
L 145.142364 25.41395 
L 145.259099 39.569932 
L 145.375145 25.41395 
L 152.721384 25.41395 
L 152.800814 33.064481 
L 152.958715 25.41395 
L 153.50158 25.41395 
L 153.577922 26.559035 
L 153.72972 25.41395 
L 155.045542 25.41395 
L 155.186446 29.620426 
L 155.326347 25.41395 
L 157.376267 25.41395 
L 157.438959 26.176365 
L 157.563744 25.41395 
L 157.625841 25.41395 
L 157.687743 27.324376 
L 157.810962 25.41395 
L 159.459454 25.41395 
L 159.515843 26.559035 
L 159.62814 25.41395 
L 160.234545 25.41395 
L 160.288756 31.916459 
L 160.342816 31.533789 
L 160.557584 25.41395 
L 161.342668 25.41395 
L 161.393908 36.508542 
L 161.445015 36.125871 
L 161.59754 25.41395 
L 165.280963 25.41395 
L 165.364749 29.23775 
L 165.489759 25.41395 
L 165.655211 25.41395 
L 165.655211 25.41395 
" clip-path="url(#pe259b1c055)" style="fill: none; stroke: #ff0000; stroke-width: 1.5; stroke-linecap: square"/>
   </g>
   <g id="line2d_28">
    <path d="M 98.001169 116.483699 
L 98.001169 7.2 
" clip-path="url(#pe259b1c055)" style="fill: none; stroke-dasharray: 10,3; stroke-dashoffset: 5; stroke: #000000"/>
   </g>
   <g id="patch_3">
    <path d="M 57.377031 116.483699 
L 57.377031 7.2 
" style="fill: none; stroke: #000000; stroke-linejoin: miter; stroke-linecap: square"/>
   </g>
   <g id="patch_4">
    <path d="M 165.790668 116.483699 
L 165.790668 7.2 
" style="fill: none; stroke: #000000; stroke-linejoin: miter; stroke-linecap: square"/>
   </g>
   <g id="patch_5">
    <path d="M 57.377031 116.483699 
L 165.790668 116.483699 
" style="fill: none; stroke: #000000; stroke-linejoin: miter; stroke-linecap: square"/>
   </g>
   <g id="patch_6">
    <path d="M 57.377031 7.2 
L 165.790668 7.2 
" style="fill: none; stroke: #000000; stroke-linejoin: miter; stroke-linecap: square"/>
   </g>
  </g>
 </g>
 <defs>
  <clipPath id="pe259b1c055">
   <rect x="57.377031" y="7.2" width="108.413636" height="109.283699"/>
  </clipPath>
 </defs>
</svg>
