<?xml version="1.0" encoding="utf-8" standalone="no"?>
<!DOCTYPE svg PUBLIC "-//W3C//DTD SVG 1.1//EN"
  "http://www.w3.org/Graphics/SVG/1.1/DTD/svg11.dtd">
<svg xmlns:xlink="http://www.w3.org/1999/xlink" width="172.990668pt" height="170.547136pt" viewBox="0 0 172.990668 170.547136" xmlns="http://www.w3.org/2000/svg" version="1.1">
 <metadata>
  <rdf:RDF xmlns:dc="http://purl.org/dc/elements/1.1/" xmlns:cc="http://creativecommons.org/ns#" xmlns:rdf="http://www.w3.org/1999/02/22-rdf-syntax-ns#">
   <cc:Work>
    <dc:type rdf:resource="http://purl.org/dc/dcmitype/StillImage"/>
    <dc:date>2024-08-16T06:09:59.530136</dc:date>
    <dc:format>image/svg+xml</dc:format>
    <dc:creator>
     <cc:Agent>
      <dc:title>Matplotlib v3.5.3, https://matplotlib.org/</dc:title>
     </cc:Agent>
    </dc:creator>
   </cc:Work>
  </rdf:RDF>
 </metadata>
 <defs>
  <style type="text/css">*{stroke-linejoin: round; stroke-linecap: butt}</style>
 </defs>
 <g id="figure_1">
  <g id="patch_1">
   <path d="M 0 170.547136 
L 172.990668 170.547136 
L 172.990668 0 
L 0 0 
z
" style="fill: #ffffff"/>
  </g>
  <g id="axes_1">
   <g id="patch_2">
    <path d="M 57.377031 116.483699 
L 165.790668 116.483699 
L 165.790668 7.2 
L 57.377031 7.2 
z
" style="fill: #ffffff"/>
   </g>
   <g id="line2d_1">
    <path d="M 57.336083 71.010763 
L 57.499368 71.541101 
L 57.539979 71.418153 
L 57.86187 70.200582 
L 57.901737 70.45391 
L 58.2178 71.799056 
L 58.451552 70.661147 
L 58.528854 71.748536 
L 58.567393 71.089585 
L 58.720791 69.420086 
L 58.91087 71.40389 
L 58.98639 70.715103 
L 59.02404 71.245363 
L 59.061619 71.586988 
L 59.136562 71.258366 
L 59.211219 71.668536 
L 59.359689 70.525578 
L 59.470309 71.603091 
L 59.507043 71.563351 
L 59.580309 69.917682 
L 59.653302 70.476969 
L 59.834603 71.364327 
L 59.906659 71.886586 
L 60.014248 70.178815 
L 60.085647 70.416456 
L 60.227673 72.153587 
L 60.263019 71.195584 
L 60.298303 70.136041 
L 60.333523 70.87999 
L 60.368679 71.621183 
L 60.473772 71.608394 
L 60.50868 71.546833 
L 60.613029 69.990772 
L 60.647689 70.553034 
L 60.751303 70.488987 
L 60.820076 71.690569 
L 60.888612 70.20626 
L 60.990967 70.407559 
L 61.126614 71.733042 
L 61.16038 71.444786 
L 61.227739 71.45463 
L 61.361766 70.407146 
L 61.395129 70.426818 
L 61.561107 72.163846 
L 61.692887 69.815496 
L 61.725692 70.279085 
L 61.856375 70.885374 
L 61.953819 70.877742 
L 61.986193 70.401414 
L 62.018515 70.740181 
L 62.147269 71.364069 
L 62.179325 71.457285 
L 62.243283 70.9513 
L 62.307032 71.257427 
L 62.338831 71.161248 
L 62.402271 70.463404 
L 62.465508 70.522777 
L 62.622714 71.36037 
L 62.747579 70.512198 
L 62.778672 70.597583 
L 62.840709 70.598202 
L 62.902552 72.046619 
L 62.9642 71.209013 
L 63.056311 70.608043 
L 63.086919 70.749833 
L 63.208876 71.848798 
L 63.239248 71.452513 
L 63.299848 70.690492 
L 63.360264 71.057543 
L 63.390402 70.83461 
L 63.420495 70.922085 
L 63.480539 71.554986 
L 63.510495 71.038639 
L 63.570265 70.075479 
L 63.600083 70.899493 
L 63.629856 71.130823 
L 63.659584 70.693944 
L 63.689265 70.488547 
L 63.718903 70.78079 
L 63.748497 70.989137 
L 63.807549 70.650253 
L 63.837008 70.549093 
L 63.866425 70.678023 
L 63.925124 70.965956 
L 63.954408 70.804815 
L 63.983648 70.431427 
L 64.012845 70.68166 
L 64.071109 71.289983 
L 64.100176 71.103891 
L 64.158183 69.914192 
L 64.216018 70.854141 
L 64.302451 71.947273 
L 64.331179 71.729926 
L 64.445668 70.344695 
L 64.474188 70.637735 
L 64.5311 71.575649 
L 64.587849 71.023432 
L 64.616161 70.903097 
L 64.644434 71.041975 
L 64.700855 71.360115 
L 64.729007 71.04958 
L 64.785186 70.365637 
L 64.869157 70.68445 
L 64.897066 70.417731 
L 64.924938 70.681839 
L 65.063702 71.14251 
L 65.091337 71.349025 
L 65.118933 71.074951 
L 65.17401 70.477837 
L 65.20149 71.229022 
L 65.228934 72.069317 
L 65.283703 71.284161 
L 65.311031 71.088907 
L 65.365572 71.382799 
L 65.392787 71.358163 
L 65.555283 70.351459 
L 65.689677 71.397339 
L 65.796535 70.309808 
L 65.823159 70.660154 
L 65.955739 71.771929 
L 65.982147 71.463077 
L 66.034859 70.469114 
L 66.087429 71.155204 
L 66.11366 71.269288 
L 66.139858 71.058775 
L 66.21824 70.328937 
L 66.2443 70.5649 
L 66.296313 71.927389 
L 66.348188 71.330721 
L 66.451532 70.457389 
L 66.528682 70.53714 
L 66.554332 70.450507 
L 66.579949 70.692321 
L 66.605531 70.911457 
L 66.631079 70.371597 
L 66.656597 70.230443 
L 66.682081 70.548681 
L 66.758333 71.456096 
L 66.783684 71.037681 
L 66.834291 70.376548 
L 66.884768 70.847426 
L 66.909955 71.338508 
L 66.960236 70.663818 
L 66.98533 70.608857 
L 67.060416 70.414919 
L 67.110315 70.981231 
L 67.135215 70.982246 
L 67.184923 70.718414 
L 67.234508 70.787613 
L 67.456096 71.983815 
L 67.529407 70.349629 
L 67.602444 70.799104 
L 67.675209 72.736365 
L 67.723573 71.641816 
L 67.819939 70.554885 
L 67.867948 71.30244 
L 67.891908 71.66666 
L 67.96361 71.064716 
L 68.035056 70.185595 
L 68.058811 70.650464 
L 68.129909 72.225942 
L 68.153552 72.024462 
L 68.224309 69.160831 
L 68.247839 70.807713 
L 68.294812 75.108561 
L 68.341672 68.137467 
L 68.388424 66.564896 
L 68.435062 68.960439 
L 68.48159 72.365351 
L 68.551176 71.763334 
L 68.597432 71.571841 
L 68.643577 71.249746 
L 68.781366 68.296605 
L 68.804236 68.681875 
L 68.963594 72.520798 
L 68.986255 71.601471 
L 69.008889 71.09094 
L 69.054079 71.372385 
L 69.121669 75.022565 
L 69.166599 73.012931 
L 69.211429 68.713467 
L 69.278479 71.517483 
L 69.345305 72.142763 
L 69.367529 71.455284 
L 69.500346 70.291255 
L 69.522396 70.162949 
L 69.56642 71.929105 
L 69.632272 70.830658 
L 69.654175 70.498671 
L 69.676053 70.866772 
L 69.763318 73.496807 
L 69.806808 72.960663 
L 69.893495 69.703562 
L 69.915108 70.366495 
L 69.979803 73.875479 
L 70.044286 71.913358 
L 70.215211 66.457532 
L 70.236473 66.526198 
L 70.321288 67.697925 
L 70.468842 72.41775 
L 70.510798 71.997429 
L 70.573563 73.216248 
L 70.636126 72.53699 
L 70.822635 70.357587 
L 70.904961 72.632898 
L 70.986945 71.230696 
L 71.007388 71.186486 
L 71.027808 71.342061 
L 71.048208 71.382767 
L 71.068586 71.285146 
L 71.129598 70.477713 
L 71.149893 70.876738 
L 71.251051 73.242838 
L 71.291369 72.467379 
L 71.511651 69.663469 
L 71.591145 67.581529 
L 71.729488 68.08173 
L 71.8473 72.896504 
L 71.905941 71.953274 
L 71.925448 71.151795 
L 71.964408 73.044552 
L 71.983858 73.408919 
L 72.003288 71.892798 
L 72.080821 69.650078 
L 72.100157 70.816208 
L 72.158047 73.255453 
L 72.196548 71.90442 
L 72.234972 68.709022 
L 72.292468 71.88081 
L 72.311597 74.353088 
L 72.349796 68.647455 
L 72.368869 66.453363 
L 72.425974 71.595424 
L 72.444973 71.933233 
L 72.463953 71.352035 
L 72.50186 71.58156 
L 72.520784 71.127015 
L 72.53969 73.242426 
L 72.558579 75.699817 
L 72.615139 72.641013 
L 72.746476 67.833662 
L 72.765167 67.961035 
L 72.783841 68.052896 
L 72.951105 76.218301 
L 72.988083 74.032164 
L 73.080222 68.786661 
L 73.116957 71.127015 
L 73.263215 73.344223 
L 73.444517 68.448132 
L 73.480579 68.385535 
L 73.498583 68.56251 
L 73.534546 71.037985 
L 73.588363 68.533577 
L 73.624162 65.788563 
L 73.659895 69.681958 
L 73.677736 72.203516 
L 73.748942 69.08945 
L 73.766704 69.569323 
L 73.908217 75.017883 
L 74.048718 69.59996 
L 74.066209 70.252682 
L 74.240279 75.016868 
L 74.27491 73.247816 
L 74.361217 69.477554 
L 74.395635 71.868195 
L 74.42999 74.44049 
L 74.515621 73.914904 
L 74.702703 64.610322 
L 74.753419 67.868343 
L 74.787154 73.394309 
L 74.837652 63.516419 
L 74.854456 62.024766 
L 74.888018 65.681552 
L 75.005043 76.95751 
L 75.021705 76.246655 
L 75.104799 65.010347 
L 75.154485 67.890267 
L 75.187542 75.291805 
L 75.220541 92.790681 
L 75.269937 69.814671 
L 75.3028 63.931132 
L 75.335605 72.525618 
L 75.368358 80.412406 
L 75.417385 66.00144 
L 75.4337 62.631447 
L 75.466289 70.490154 
L 75.498823 80.54719 
L 75.547527 64.195088 
L 75.563733 60.784552 
L 75.612274 67.391944 
L 75.644569 86.359156 
L 75.708998 72.440355 
L 75.741134 48.665434 
L 75.789239 77.044464 
L 75.821243 63.074696 
L 75.837226 59.878594 
L 75.869154 65.756244 
L 75.932851 87.234654 
L 75.980491 70.187327 
L 76.059632 70.735795 
L 76.106964 56.379926 
L 76.122716 55.286625 
L 76.138455 60.288362 
L 76.185598 99.546873 
L 76.248279 68.068426 
L 76.310763 46.44742 
L 76.326351 58.867053 
L 76.373045 89.073973 
L 76.435133 71.492191 
L 76.481569 59.988417 
L 76.527897 68.389356 
L 76.696833 88.432382 
L 76.71212 89.846053 
L 76.727394 83.111191 
L 76.773144 63.52277 
L 76.833981 76.747467 
L 76.86433 72.428446 
L 76.924884 50.620914 
L 76.985252 59.69162 
L 77.000315 58.845329 
L 77.030408 62.446769 
L 77.120408 84.343559 
L 77.195094 76.960821 
L 77.328817 59.602571 
L 77.37319 63.485424 
L 77.50571 85.393559 
L 77.549685 75.293434 
L 77.593562 66.773989 
L 77.666474 71.619357 
L 77.681023 73.353049 
L 77.724608 70.129294 
L 77.768096 56.841006 
L 77.811488 70.955563 
L 77.854785 77.573544 
L 77.912365 72.430145 
L 78.012726 66.18241 
L 78.041308 68.154647 
L 78.098344 76.859852 
L 78.126801 66.74769 
L 78.141013 64.853125 
L 78.155216 74.852554 
L 78.169409 80.479835 
L 78.211923 68.349991 
L 78.254348 78.508884 
L 78.32485 63.365521 
L 78.33892 75.774124 
L 78.36703 100.820509 
L 78.42313 43.856387 
L 78.4651 64.586406 
L 78.52092 82.599273 
L 78.562683 66.191339 
L 78.632089 54.412775 
L 78.659783 69.29533 
L 78.70125 80.684518 
L 78.715054 88.961583 
L 78.756405 60.048268 
L 78.811404 83.694148 
L 78.838847 71.842607 
L 78.920945 84.392054 
L 78.948234 79.247442 
L 79.0027 58.413718 
L 79.070571 68.179579 
L 79.097653 75.838447 
L 79.165196 68.424845 
L 79.219066 61.058306 
L 79.259369 68.425459 
L 79.286194 74.215004 
L 79.339731 62.31595 
L 79.353093 58.534321 
L 79.419766 69.936816 
L 79.565652 83.7118 
L 79.57886 80.610472 
L 79.697343 61.702039 
L 79.736677 65.449986 
L 79.789003 82.06118 
L 79.828154 70.064194 
L 79.854213 58.445098 
L 79.919208 73.896022 
L 79.945146 78.120115 
L 79.983988 69.061576 
L 80.009841 70.081548 
L 80.022756 69.262886 
L 80.061446 72.180712 
L 80.087196 80.033258 
L 80.138596 65.604944 
L 80.151426 61.877619 
L 80.177057 70.540115 
L 80.228223 69.259754 
L 80.240993 70.511888 
L 80.291995 67.285091 
L 80.317446 68.725854 
L 80.368247 62.323479 
L 80.393597 65.257361 
L 80.444204 82.786751 
L 80.519869 75.436567 
L 80.532453 75.524902 
L 80.682817 65.776382 
L 80.695295 65.920093 
L 80.707765 65.904536 
L 80.745129 68.645018 
L 80.782422 77.186946 
L 80.869167 74.155522 
L 80.881527 73.083535 
L 80.906224 76.923983 
L 80.943213 74.760842 
L 80.955528 76.549208 
L 80.992425 68.040139 
L 81.004707 66.500724 
L 81.041511 74.175546 
L 81.053766 73.845081 
L 81.175873 60.783493 
L 81.200205 66.157771 
L 81.273015 75.076828 
L 81.321408 72.228797 
L 81.357623 69.470883 
L 81.393773 74.241765 
L 81.417834 71.90733 
L 81.429853 73.316819 
L 81.441867 78.078826 
L 81.489844 64.026223 
L 81.537707 75.621385 
L 81.585451 66.300619 
L 81.609278 72.589494 
L 81.716154 85.065371 
L 81.727992 79.922849 
L 81.763466 63.864469 
L 81.845992 68.794179 
L 81.857752 69.556751 
L 81.869506 63.84661 
L 81.881254 60.16942 
L 81.904725 70.222876 
L 81.928169 107.0817 
L 81.963285 40.85126 
L 82.010007 66.243341 
L 82.056619 82.361714 
L 82.103117 69.449876 
L 82.16109 58.228948 
L 82.218891 64.692955 
L 82.25349 109.377655 
L 82.333987 75.699958 
L 82.41415 78.406183 
L 82.368384 67.87832 
L 82.425577 74.47104 
L 82.459814 58.321092 
L 82.52811 71.746832 
L 82.573508 81.85796 
L 82.64141 73.160938 
L 82.787731 58.773037 
L 82.810146 62.147155 
L 82.944095 81.216281 
L 83.032892 67.350989 
L 83.165337 69.827786 
L 83.187324 74.890212 
L 83.264088 68.258586 
L 83.329648 60.958748 
L 83.340552 65.935737 
L 83.373232 79.795585 
L 83.460113 72.612676 
L 83.470945 73.413378 
L 83.514217 69.985985 
L 83.589717 75.495153 
L 83.632728 65.123953 
L 83.686362 80.483542 
L 83.729164 64.448595 
L 83.739849 64.638277 
L 83.782533 55.418562 
L 83.80384 65.938006 
L 83.952349 88.524528 
L 83.962916 88.948767 
L 83.973474 85.433654 
L 84.057745 57.831991 
L 84.099745 73.149818 
L 84.11023 73.929598 
L 84.141654 70.123003 
L 84.235627 66.44255 
L 84.204352 71.715984 
L 84.24604 69.158274 
L 84.256449 71.737683 
L 84.339517 66.795452 
L 84.349875 66.878362 
L 84.370575 64.253029 
L 84.391254 72.976478 
L 84.401587 77.586883 
L 84.432549 70.444774 
L 84.494325 71.692463 
L 84.504603 71.423576 
L 84.617302 58.390757 
L 84.545659 81.587661 
L 84.627514 62.140468 
L 84.6785 79.293452 
L 84.749661 73.907044 
L 84.790207 73.454176 
L 84.769945 74.139213 
L 84.80033 73.815601 
L 84.840774 79.285638 
L 84.881135 73.244239 
L 84.921409 60.469636 
L 85.031749 66.83187 
L 85.101642 73.9661 
L 85.121564 66.274456 
L 85.161353 73.043822 
L 85.171286 72.988805 
L 85.19114 67.373445 
L 85.220881 76.087845 
L 85.270352 75.271249 
L 85.280233 75.237632 
L 85.339402 68.051783 
L 85.368921 76.045212 
L 85.408212 72.364095 
L 85.437627 77.521547 
L 85.476779 61.281947 
L 85.506092 66.756435 
L 85.535362 78.557778 
L 85.603488 64.474753 
L 85.613202 66.318115 
L 85.700404 78.974207 
L 85.729385 70.252329 
L 85.76796 64.921053 
L 85.816074 74.606707 
L 85.902382 65.198661 
L 85.911947 63.427272 
L 85.950167 76.64533 
L 86.007355 65.617787 
L 86.111774 74.083609 
L 86.130698 70.78802 
L 86.140153 68.915303 
L 86.187364 80.426964 
L 86.196792 81.911935 
L 86.234462 73.41067 
L 86.25327 66.422678 
L 86.347038 67.584107 
L 86.412409 71.534036 
L 86.431046 66.491892 
L 86.440359 64.570789 
L 86.477564 71.326134 
L 86.523972 69.886448 
L 86.579516 78.967652 
L 86.644121 73.264128 
L 86.662539 69.958323 
L 86.68094 64.91968 
L 86.717694 76.071577 
L 86.763538 73.569455 
L 86.800136 68.380362 
L 86.818408 69.738177 
L 86.845789 59.457378 
L 86.918611 73.840139 
L 86.94585 74.486481 
L 86.954922 72.896434 
L 87.07247 63.172528 
L 87.090492 89.381105 
L 87.189318 73.605387 
L 87.216184 76.623237 
L 87.260881 66.715517 
L 87.269809 64.068791 
L 87.341078 75.355649 
L 87.358856 79.778652 
L 87.41209 70.904948 
L 87.438653 72.694655 
L 87.54455 64.459403 
L 87.509316 73.159757 
L 87.562144 67.318506 
L 87.570937 67.391792 
L 87.579723 67.212358 
L 87.6936 81.133615 
L 87.676122 64.890291 
L 87.702333 77.571429 
L 87.728507 49.597985 
L 87.806819 81.803502 
L 87.841526 61.860585 
L 87.902114 83.266581 
L 87.936654 92.48331 
L 87.979742 71.687252 
L 88.10844 61.952799 
L 88.116989 59.74055 
L 88.151151 69.359225 
L 88.176734 68.735696 
L 88.210794 84.65886 
L 88.244793 57.101743 
L 88.278734 65.686508 
L 88.397067 74.216738 
L 88.363332 63.138129 
L 88.405493 69.885509 
L 88.413915 68.594102 
L 88.430747 79.306257 
L 88.455969 88.015411 
L 88.514693 72.807775 
L 88.53144 78.871324 
L 88.573243 56.488696 
L 88.598283 90.992879 
L 88.664897 67.89074 
L 88.689822 72.283758 
L 88.731288 63.710292 
L 88.756127 48.781299 
L 88.80571 79.749207 
L 88.838696 64.27929 
L 88.92092 76.23252 
L 88.953713 67.260495 
L 88.961902 66.989776 
L 88.986451 69.038458 
L 89.043614 85.970422 
L 89.108737 74.739667 
L 89.20602 59.508902 
L 89.254483 62.274044 
L 89.262548 60.440905 
L 89.302824 74.684397 
L 89.343019 78.518791 
L 89.359074 72.250654 
L 89.383131 62.036068 
L 89.407158 75.906769 
L 89.471092 67.249547 
L 89.479068 67.108729 
L 89.598333 75.517555 
L 89.622098 75.043691 
L 89.630015 75.646371 
L 89.645835 70.789643 
L 89.653743 67.982237 
L 89.701113 73.580154 
L 89.748369 71.97624 
L 89.756234 72.039701 
L 89.77981 58.858552 
L 89.803359 77.291864 
L 89.866014 72.153563 
L 89.873832 72.737586 
L 89.889459 66.171613 
L 89.920676 62.686168 
L 89.967406 75.584829 
L 90.014027 77.016922 
L 90.045046 73.514011 
L 90.14552 64.983211 
L 90.176332 65.903787 
L 90.283795 80.184922 
L 90.260817 65.413487 
L 90.291448 72.681657 
L 90.329671 76.546459 
L 90.413501 61.247179 
L 90.527239 77.481867 
L 90.542353 73.247718 
L 90.557458 66.42556 
L 90.595165 77.152015 
L 90.655351 69.035125 
L 90.752758 73.754246 
L 90.71535 67.934551 
L 90.797551 72.586216 
L 90.879412 63.479263 
L 90.834802 72.979078 
L 90.901676 71.616862 
L 90.923917 76.454866 
L 90.99049 67.974974 
L 91.005252 65.63684 
L 91.042112 74.041576 
L 91.078903 73.164537 
L 91.115623 64.096344 
L 91.144951 77.642973 
L 91.18155 70.204567 
L 91.203476 78.854211 
L 91.247255 68.381344 
L 91.290937 70.13596 
L 91.312741 74.741857 
L 91.363524 67.598709 
L 91.414176 73.733502 
L 91.486311 67.32255 
L 91.543829 69.505384 
L 91.629789 75.373676 
L 91.651222 70.399384 
L 91.68689 66.004007 
L 91.722492 73.359441 
L 91.772228 67.079357 
L 91.821837 77.627467 
L 91.941799 73.998957 
L 92.05404 63.584896 
L 92.033044 75.500082 
L 92.068026 67.328364 
L 92.186497 79.878965 
L 92.158686 59.559406 
L 92.193443 79.063096 
L 92.311164 63.39346 
L 92.324967 72.19609 
L 92.345654 79.744669 
L 92.428183 71.220594 
L 92.435044 71.206866 
L 92.489851 78.445331 
L 92.462468 69.032302 
L 92.510366 69.74043 
L 92.544508 61.007683 
L 92.564965 69.876715 
L 92.619411 69.717398 
L 92.707567 78.306025 
L 92.734613 71.188465 
L 92.842423 63.217641 
L 92.768366 74.570476 
L 92.855857 65.688777 
L 92.969683 79.142771 
L 92.983032 75.703313 
L 93.102758 65.405692 
L 93.122641 67.193338 
L 93.228347 74.375933 
L 93.168957 64.621276 
L 93.261265 68.874999 
L 93.280988 67.462782 
L 93.313818 71.979869 
L 93.326933 78.944645 
L 93.379312 69.890199 
L 93.425026 74.953334 
L 93.431548 75.7768 
L 93.477145 68.532508 
L 93.503148 72.128824 
L 93.51614 68.121551 
L 93.606834 73.103785 
L 93.613295 74.391105 
L 93.684237 67.259334 
L 93.735673 63.321889 
L 93.7164 72.476751 
L 93.780566 70.400057 
L 93.818965 68.586117 
L 93.920999 77.182411 
L 94.028831 66.986714 
L 93.965473 77.433667 
L 94.054118 69.933695 
L 94.066748 73.606915 
L 94.091987 64.814992 
L 94.148653 65.961054 
L 94.317678 75.1193 
L 94.355043 71.577532 
L 94.454336 68.200483 
L 94.379911 73.450613 
L 94.472895 68.259042 
L 94.528474 57.579765 
L 94.503793 83.648168 
L 94.553126 78.060736 
L 94.565442 81.485717 
L 94.614621 61.501701 
L 94.657553 77.506362 
L 94.694277 68.793457 
L 94.712611 59.491109 
L 94.773609 74.415692 
L 94.804036 65.597361 
L 94.913188 85.530192 
L 94.925278 79.636909 
L 95.033759 61.403077 
L 94.967537 80.839242 
L 95.045777 61.813523 
L 95.213239 78.237177 
L 95.075785 60.149992 
L 95.219192 74.730097 
L 95.231097 69.651516 
L 95.314222 76.04962 
L 95.337906 69.822982 
L 95.444136 64.164983 
L 95.367471 72.552838 
L 95.467666 66.465571 
L 95.549796 74.282077 
L 95.584889 71.595657 
L 95.596573 68.066656 
L 95.625752 76.695041 
L 95.695608 71.44255 
L 95.701417 71.182657 
L 95.718839 75.066528 
L 95.730443 74.202364 
L 95.736241 75.224279 
L 95.75363 59.128018 
L 95.759423 58.872399 
L 95.765213 61.38639 
L 95.794145 75.890667 
L 95.886435 72.752125 
L 95.9439 69.283964 
L 95.915189 75.278457 
L 95.989749 72.512412 
L 96.001194 73.709692 
L 96.069728 68.589949 
L 96.081126 69.930221 
L 96.09252 69.779166 
L 96.098212 70.391806 
L 96.15506 71.144985 
L 96.115286 68.591795 
L 96.166409 69.559123 
L 96.240023 66.155752 
L 96.211744 77.048288 
L 96.245673 69.089814 
L 96.256972 76.990307 
L 96.330246 66.180602 
L 96.358357 72.520996 
L 96.459222 68.532551 
L 96.408855 72.884964 
L 96.481567 68.888162 
L 96.509461 77.958619 
L 96.570689 64.511969 
L 96.592907 69.200592 
L 96.604006 68.58381 
L 96.637267 71.780736 
L 96.692577 70.393549 
L 96.714656 75.246477 
L 96.791744 68.973206 
L 96.802733 65.890922 
L 96.884945 75.593246 
L 96.901344 70.143445 
L 97.015771 62.183692 
L 96.945015 78.501179 
L 97.021204 63.859279 
L 97.145732 79.232466 
L 97.151129 78.798635 
L 97.248013 64.379679 
L 97.317688 71.036036 
L 97.392447 75.740835 
L 97.4244 73.086241 
L 97.482844 66.373846 
L 97.530534 74.804216 
L 97.583388 77.868123 
L 97.593941 69.45849 
L 97.620299 65.482799 
L 97.657146 77.700859 
L 97.709658 66.332407 
L 97.720144 65.402918 
L 97.741099 72.611177 
L 97.814266 75.867605 
L 97.767261 72.268887 
L 97.850748 72.8137 
L 97.93388 63.734192 
L 97.94943 73.836687 
L 97.975316 67.12662 
L 97.996002 74.926961 
L 97.996002 74.926961 
" clip-path="url(#p41e7d1205d)" style="fill: none; stroke: #c0c0c0; stroke-linecap: square"/>
   </g>
   <g id="line2d_2">
    <path d="M 98.001168 71.988758 
L 98.104238 69.303912 
L 98.052772 74.622999 
L 98.114517 70.597491 
L 98.124788 73.217231 
L 98.145317 68.389041 
L 98.227215 71.391039 
L 98.273133 74.682115 
L 98.242533 69.658752 
L 98.283322 72.207828 
L 98.293507 68.330623 
L 98.395058 71.204036 
L 98.410244 74.996499 
L 98.501125 69.935019 
L 98.60662 61.537505 
L 98.581554 77.588846 
L 98.616639 65.897599 
L 98.641663 76.120688 
L 98.736456 75.836225 
L 98.806013 67.396043 
L 98.850598 72.028617 
L 98.860494 73.881874 
L 98.929613 68.148459 
L 98.954239 72.403275 
L 98.988665 67.875525 
L 99.057338 70.920397 
L 99.164765 76.837048 
L 99.091582 66.805272 
L 99.174503 74.620122 
L 99.237676 72.304588 
L 99.271609 67.398675 
L 99.358595 67.825737 
L 99.377874 73.105036 
L 99.459597 66.146302 
L 99.564852 76.947471 
L 99.622027 73.273388 
L 99.74534 67.240102 
L 99.750067 67.652193 
L 99.783127 74.244359 
L 99.801993 62.53495 
L 99.867882 69.528014 
L 99.975652 66.295506 
L 99.919497 78.311971 
L 99.980323 67.346011 
L 100.08283 73.441833 
L 100.026985 66.38189 
L 100.096769 70.504826 
L 100.143153 74.513478 
L 100.170932 68.666888 
L 100.184808 69.782401 
L 100.235598 66.576366 
L 100.203291 72.305229 
L 100.277056 71.943861 
L 100.304646 74.878941 
L 100.368872 68.620949 
L 100.387184 73.537485 
L 100.451141 67.891049 
L 100.487595 76.72088 
L 100.496699 73.624847 
L 100.601079 64.987266 
L 100.614653 69.148986 
L 100.623697 74.155644 
L 100.646289 67.244439 
L 100.731904 73.648163 
L 100.7364 73.667835 
L 100.740893 73.244301 
L 100.790268 64.969293 
L 100.817147 77.261043 
L 100.852929 72.504101 
L 100.866329 74.538081 
L 100.884183 69.136176 
L 100.893104 64.947846 
L 100.933198 73.906556 
L 100.995405 67.899067 
L 101.09276 74.30398 
L 101.030863 66.840723 
L 101.114819 70.793296 
L 101.22036 67.176017 
L 101.132449 78.06785 
L 101.242278 68.126806 
L 101.342779 77.961273 
L 101.316612 65.549837 
L 101.36456 70.829985 
L 101.460107 62.712489 
L 101.403704 74.294605 
L 101.4731 69.714559 
L 101.512028 78.55137 
L 101.533623 67.202669 
L 101.585349 70.987934 
L 101.649817 65.539285 
L 101.606863 73.411071 
L 101.675547 72.680707 
L 101.748261 74.249082 
L 101.731175 68.634455 
L 101.769596 70.885857 
L 101.820708 68.271977 
L 101.807941 71.755289 
L 101.833463 71.667106 
L 101.85046 75.634416 
L 101.871684 65.233825 
L 101.947905 72.971389 
L 102.044866 65.501244 
L 102.006981 73.602347 
L 102.070082 71.008947 
L 102.09946 74.197623 
L 102.120419 67.5747 
L 102.183157 71.807904 
L 102.22487 63.910581 
L 102.204025 75.913156 
L 102.249857 75.751461 
L 102.254018 76.629833 
L 102.274811 68.273627 
L 102.345344 72.696742 
L 102.349485 72.860456 
L 102.366041 69.712801 
L 102.419749 68.189594 
L 102.40324 73.90034 
L 102.473313 69.944644 
L 102.563627 73.248638 
L 102.530834 67.555197 
L 102.571816 70.577336 
L 102.657603 67.485515 
L 102.616798 74.578366 
L 102.682045 70.714702 
L 102.78356 77.03871 
L 102.706458 68.125031 
L 102.791658 73.347771 
L 102.864397 65.719251 
L 102.836142 74.243588 
L 102.900663 73.986222 
L 102.908714 77.765213 
L 102.989037 67.918869 
L 103.005063 70.63482 
L 103.092968 68.076069 
L 103.045069 73.236137 
L 103.112893 70.811823 
L 103.216171 73.023057 
L 103.128816 68.296963 
L 103.224095 71.331318 
L 103.338607 67.061401 
L 103.259705 73.583918 
L 103.342543 67.696834 
L 103.405426 74.993084 
L 103.385797 64.59476 
L 103.464195 72.963208 
L 103.542282 68.455048 
L 103.487654 73.171534 
L 103.57732 70.971886 
L 103.631701 66.423535 
L 103.662707 74.291956 
L 103.67045 76.364406 
L 103.689798 69.631052 
L 103.763142 71.157703 
L 103.824693 66.00245 
L 103.774697 72.559881 
L 103.832373 70.366174 
L 103.840051 80.411016 
L 103.859231 65.040972 
L 103.943402 70.410045 
L 104.019611 66.466592 
L 103.958668 73.623145 
L 104.042416 71.426748 
L 104.087946 75.595178 
L 104.106886 70.057121 
L 104.118242 67.295849 
L 104.144711 72.907865 
L 104.220143 69.062619 
L 104.295287 74.836541 
L 104.329008 69.388814 
L 104.351455 68.79895 
L 104.343977 71.148136 
L 104.358933 70.551058 
L 104.403736 74.566503 
L 104.4261 68.543587 
L 104.463314 68.852244 
L 104.47075 66.363244 
L 104.51159 74.014321 
L 104.570843 70.572022 
L 104.596711 77.120909 
L 104.611476 68.179394 
L 104.685139 74.722218 
L 104.743873 65.779715 
L 104.798776 71.553021 
L 104.87174 77.178101 
L 104.889939 69.107531 
L 104.937177 67.772639 
L 104.97706 75.930556 
L 104.995163 71.041519 
L 105.045759 74.5168 
L 105.034928 66.689174 
L 105.06019 67.093345 
L 105.125004 65.758583 
L 105.142971 75.078429 
L 105.150152 78.799254 
L 105.218247 67.792397 
L 105.24685 71.046426 
L 105.343074 66.721027 
L 105.321731 74.543951 
L 105.357289 70.171042 
L 105.360841 70.194438 
L 105.371494 66.636537 
L 105.389236 74.598363 
L 105.460044 71.724807 
L 105.470643 75.175032 
L 105.558748 66.285545 
L 105.670947 74.940882 
L 105.604405 66.054158 
L 105.705878 72.524484 
L 105.737264 63.921568 
L 105.723321 76.26105 
L 105.813773 69.48073 
L 105.831119 77.659553 
L 105.907264 61.306705 
L 105.921078 69.386605 
L 105.92798 68.094796 
L 105.986557 76.332138 
L 106.027799 69.284056 
L 106.130529 78.623834 
L 106.072382 67.935289 
L 106.144185 73.66058 
L 106.174879 68.18575 
L 106.253097 72.800556 
L 106.259885 73.223813 
L 106.273453 68.356749 
L 106.276842 67.051033 
L 106.351282 75.461222 
L 106.374908 71.671714 
L 106.37828 71.797034 
L 106.385024 69.283844 
L 106.391766 66.34132 
L 106.448976 73.15726 
L 106.492613 69.95639 
L 106.57626 76.964833 
L 106.596282 68.514709 
L 106.599616 68.544732 
L 106.612951 64.991484 
L 106.672844 73.630451 
L 106.752418 76.429348 
L 106.699404 69.844803 
L 106.772261 71.478552 
L 106.815186 65.049163 
L 106.78548 74.139123 
L 106.818486 69.094992 
L 106.82508 80.375174 
L 106.838261 65.243829 
L 106.93029 76.899993 
L 107.051243 67.47848 
L 107.054501 67.627397 
L 107.164974 76.934297 
L 107.139035 66.191111 
L 107.171452 72.804247 
L 107.236126 64.473874 
L 107.258712 76.721384 
L 107.284493 66.525574 
L 107.377664 79.059226 
L 107.329527 65.423811 
L 107.396884 68.641956 
L 107.52137 77.64925 
L 107.438469 63.84585 
L 107.52455 75.032452 
L 107.632419 60.403472 
L 107.619758 79.25401 
L 107.641906 68.782763 
L 107.717658 79.89148 
L 107.742842 64.146479 
L 107.745989 63.228655 
L 107.818204 73.220504 
L 107.824472 72.043414 
L 107.830736 74.951448 
L 107.88391 65.165446 
L 107.933825 72.540687 
L 108.017766 67.321932 
L 107.983612 76.01485 
L 108.036374 72.791911 
L 108.067343 76.823222 
L 108.054962 65.179293 
L 108.141472 69.063889 
L 108.203032 65.460164 
L 108.153802 73.59393 
L 108.218393 71.91231 
L 108.236812 76.437653 
L 108.304191 67.505399 
L 108.331688 57.860369 
L 108.31947 79.414712 
L 108.407869 73.462891 
L 108.483757 65.225188 
L 108.420032 80.198109 
L 108.517053 72.394628 
L 108.580465 75.15951 
L 108.553314 64.880542 
L 108.628643 73.303555 
L 108.652686 77.559406 
L 108.670699 66.537076 
L 108.700685 68.020164 
L 108.796335 74.04502 
L 108.778436 67.775179 
L 108.826129 69.411993 
L 108.927097 65.863217 
L 108.861826 75.039257 
L 108.935981 69.214119 
L 108.98034 77.068769 
L 109.036385 66.355927 
L 109.039332 66.898941 
L 109.045219 65.929115 
L 109.051108 72.377603 
L 109.109885 78.645167 
L 109.147996 63.413007 
L 109.156783 68.866189 
L 109.168489 63.111119 
L 109.206486 73.485426 
L 109.226918 71.442645 
L 109.26189 77.319127 
L 109.238582 68.51878 
L 109.334554 72.902527 
L 109.35775 65.770178 
L 109.378023 77.343511 
L 109.450258 69.727153 
L 109.504981 75.227978 
L 109.4762 66.515679 
L 109.573883 71.391666 
L 109.631121 66.957869 
L 109.588211 73.944089 
L 109.68534 71.284104 
L 109.693888 75.280382 
L 109.784833 67.486031 
L 109.79617 71.663081 
L 109.827315 77.067985 
L 109.844283 66.644451 
L 109.903557 71.030532 
L 109.968271 77.588536 
L 109.920461 67.454081 
L 109.976696 70.131085 
L 110.02437 64.926595 
L 110.057955 74.235956 
L 110.083103 72.952691 
L 110.200046 66.65407 
L 110.097061 73.655817 
L 110.202821 66.73552 
L 110.283151 77.168324 
L 110.305254 66.574743 
L 110.316295 69.212806 
L 110.335602 65.992082 
L 110.401658 75.374002 
L 110.412647 73.758486 
L 110.418137 76.905698 
L 110.459275 67.267541 
L 110.519453 72.572903 
L 110.541292 67.385452 
L 110.568555 74.931643 
L 110.633834 70.155767 
L 110.698894 76.474703 
L 110.720534 67.182243 
L 110.73945 68.635779 
L 110.747548 66.084632 
L 110.782613 74.882789 
L 110.831063 71.937261 
L 110.86061 75.077753 
L 110.898154 67.410818 
L 110.935626 70.353565 
L 111.04761 66.137687 
L 110.981031 76.696917 
L 111.05027 67.635876 
L 111.151029 75.476458 
L 111.0609 67.54433 
L 111.161607 68.994158 
L 111.188024 63.990028 
L 111.232848 74.810603 
L 111.261799 72.508118 
L 111.269688 75.257277 
L 111.293333 65.7614 
L 111.364099 71.139106 
L 111.421572 64.622742 
L 111.465867 75.166241 
L 111.476276 70.142001 
L 111.494479 66.076729 
L 111.52045 74.702897 
L 111.587816 69.93217 
L 111.62916 76.740337 
L 111.639481 66.712966 
L 111.67814 67.362632 
L 111.680714 66.852465 
L 111.719292 77.892968 
L 111.768048 71.39641 
L 111.8039 75.982905 
L 111.81413 65.7363 
L 111.860101 67.080209 
L 111.862651 64.675249 
L 111.93394 76.759751 
L 111.964413 71.62305 
L 112.004972 65.91904 
L 111.982168 74.188655 
L 112.075746 70.806172 
L 112.161345 75.982549 
L 112.116074 68.275359 
L 112.183941 71.692737 
L 112.229058 63.567672 
L 112.214029 77.329867 
L 112.29903 68.045855 
L 112.333922 77.482798 
L 112.34388 61.506793 
L 112.413447 73.885831 
L 112.46546 67.346396 
L 112.450613 75.15444 
L 112.52227 74.693614 
L 112.524736 76.655193 
L 112.566615 65.249594 
L 112.628039 70.886992 
L 112.740562 63.189279 
L 112.650105 76.604358 
L 112.743 65.21183 
L 112.806306 77.206989 
L 112.857292 71.610058 
L 112.898467 63.490494 
L 112.954039 80.246208 
L 112.973331 67.987063 
L 113.052714 79.979649 
L 113.009453 65.333394 
L 113.079103 69.27935 
L 113.083897 64.836167 
L 113.098273 74.002729 
L 113.189077 68.646288 
L 113.21052 62.727905 
L 113.19861 79.631377 
L 113.284207 74.093505 
L 113.341065 78.230209 
L 113.319763 64.939921 
L 113.35998 72.066853 
L 113.367069 63.318768 
L 113.43311 78.428791 
L 113.470747 70.266518 
L 113.477796 76.833742 
L 113.494235 65.10953 
L 113.583228 72.499588 
L 113.594908 66.199753 
L 113.606582 74.270887 
L 113.711325 69.174759 
L 113.74148 74.943319 
L 113.801654 66.845169 
L 113.82244 69.267087 
L 113.893871 68.280668 
L 113.852425 78.313746 
L 113.914559 70.243128 
L 113.944404 76.780025 
L 113.958164 65.918334 
L 114.026818 71.19731 
L 114.111163 76.489965 
L 114.070174 66.646053 
L 114.124804 67.214242 
L 114.154333 60.657234 
L 114.138438 77.758232 
L 114.226828 73.238366 
L 114.22909 73.402872 
L 114.242652 68.39321 
L 114.253945 68.484659 
L 114.330575 66.23147 
L 114.355303 73.877634 
L 114.406905 67.430631 
L 114.379998 74.755528 
L 114.478475 71.887045 
L 114.48294 71.476856 
L 114.485173 71.663159 
L 114.525301 75.859191 
L 114.554235 68.655288 
L 114.589785 71.467289 
L 114.596445 63.990826 
L 114.669539 76.387131 
L 114.702674 68.458511 
L 114.731347 75.706478 
L 114.744565 65.900405 
L 114.817114 73.145614 
L 114.832467 74.76278 
L 114.836853 69.166688 
L 114.841235 65.44472 
L 114.847809 73.261571 
L 114.943974 72.136497 
L 115.004925 66.477589 
L 114.952692 75.980935 
L 115.024476 73.761512 
L 115.026647 74.761608 
L 115.037499 68.678222 
L 115.124103 69.903281 
L 115.165105 67.02457 
L 115.178036 73.916956 
L 115.238265 67.215186 
L 115.240413 67.215816 
L 115.285461 76.471675 
L 115.300453 65.860552 
L 115.360308 72.28467 
L 115.362442 72.196169 
L 115.366711 75.463738 
L 115.370978 78.825211 
L 115.396561 63.280852 
L 115.470988 69.399975 
L 115.581048 66.572848 
L 115.526095 75.159711 
L 115.585269 67.83255 
L 115.616895 74.729587 
L 115.631637 67.443593 
L 115.698887 71.171277 
L 115.763817 65.787483 
L 115.793071 74.76173 
L 115.80768 71.320606 
L 115.816024 77.490769 
L 115.845199 65.267105 
L 115.920023 72.351048 
L 116.04616 66.707814 
L 115.998696 74.467593 
L 116.04822 67.578923 
L 116.089397 77.77038 
L 116.072938 66.517812 
L 116.157152 67.197529 
L 116.159201 66.32668 
L 116.204234 77.977739 
L 116.265479 67.642156 
L 116.29603 73.717058 
L 116.37524 67.849941 
L 116.383345 65.17615 
L 116.439995 74.90663 
L 116.462205 73.432456 
L 116.464224 74.169613 
L 116.486406 66.0576 
L 116.562846 70.492765 
L 116.650984 63.619479 
L 116.582912 76.549146 
L 116.666967 75.193677 
L 116.742709 68.080216 
L 116.7765 73.405844 
L 116.78047 76.502279 
L 116.851821 67.030531 
L 116.881472 68.687906 
L 116.885423 68.400028 
L 116.901216 73.651705 
L 116.905162 73.587693 
L 116.92094 75.643337 
L 116.942612 67.339752 
L 116.954426 68.098715 
L 116.956393 67.144137 
L 117.00749 75.592947 
L 117.058454 70.991851 
L 117.132703 76.174756 
L 117.103428 68.196737 
L 117.159988 71.118767 
L 117.171668 67.195732 
L 117.187234 73.615374 
L 117.270683 70.18502 
L 117.332558 74.841036 
L 117.317107 67.447464 
L 117.376908 69.785609 
L 117.482561 65.715587 
L 117.451884 74.918273 
L 117.486391 67.986167 
L 117.587647 74.418012 
L 117.56286 67.430365 
L 117.597173 71.146625 
L 117.602885 66.560217 
L 117.621918 74.316948 
L 117.711121 67.357768 
L 117.756514 76.758757 
L 117.737613 66.968894 
L 117.813109 67.283598 
L 117.814993 66.58453 
L 117.85639 75.314549 
L 117.912699 70.714083 
L 117.994995 74.677118 
L 117.944535 65.825643 
L 118.026699 73.290137 
L 118.032287 73.849058 
L 118.037875 69.475736 
L 118.049046 66.081468 
L 118.086238 75.057577 
L 118.147449 70.078112 
L 118.178909 74.18979 
L 118.204777 67.051728 
L 118.258256 70.263517 
L 118.280343 75.469736 
L 118.337286 66.737604 
L 118.361115 69.249033 
L 118.448853 65.268049 
L 118.41417 74.854036 
L 118.470725 68.642076 
L 118.507127 73.910401 
L 118.545276 67.968634 
L 118.585163 70.519776 
L 118.682724 66.190851 
L 118.623161 75.139765 
L 118.689931 70.791103 
L 118.706138 75.620639 
L 118.785182 67.880111 
L 118.799519 70.769521 
L 118.804892 64.855665 
L 118.835316 74.596138 
L 118.910279 71.068703 
L 118.958319 66.863777 
L 118.936983 73.993075 
L 119.018647 71.160035 
L 119.039895 76.464089 
L 119.09115 67.031518 
L 119.126419 71.232276 
L 119.135229 63.534587 
L 119.180964 77.044966 
L 119.23711 70.917623 
L 119.317537 76.353419 
L 119.291347 67.732117 
L 119.34892 72.46457 
L 119.364592 66.36629 
L 119.446235 76.262095 
L 119.463562 69.348982 
L 119.480874 66.446274 
L 119.580982 75.849795 
L 119.687432 66.720706 
L 119.694279 72.8311 
L 119.721648 74.965205 
L 119.709679 68.302939 
L 119.803525 72.012178 
L 119.830742 65.056942 
L 119.903699 75.419528 
L 119.922319 66.885642 
L 120.038717 76.03083 
L 119.99831 65.596036 
L 120.0404 75.548214 
L 120.077364 67.987834 
L 120.156102 69.762371 
L 120.187842 75.520294 
L 120.247842 66.545599 
L 120.262813 71.225702 
L 120.334186 67.387553 
L 120.297702 75.192879 
L 120.372256 72.287775 
L 120.454762 74.091751 
L 120.411903 66.812725 
L 120.477804 71.20305 
L 120.525443 66.089778 
L 120.576241 73.738241 
L 120.594233 68.65772 
L 120.639962 75.594918 
L 120.698598 68.015349 
L 120.727851 71.716836 
L 120.807261 66.481693 
L 120.75057 74.724669 
L 120.837968 70.59083 
L 120.881519 76.079252 
L 120.902455 66.112039 
L 120.949079 71.552462 
L 120.9555 65.094907 
L 121.006798 74.39517 
L 121.057964 71.548152 
L 121.101032 74.582581 
L 121.110592 65.852871 
L 121.169428 72.199105 
L 121.178953 68.231787 
L 121.242333 73.566331 
L 121.288155 71.107884 
L 121.354329 74.857735 
L 121.387333 65.63684 
L 121.399891 72.410964 
L 121.448479 66.195579 
L 121.42185 75.137881 
L 121.506313 73.862422 
L 121.570203 75.332487 
L 121.590418 67.153338 
L 121.610612 70.755777 
L 121.68035 76.123945 
L 121.650936 65.603283 
L 121.68963 67.444657 
L 121.697362 71.501144 
L 121.726709 76.279045 
L 121.711268 64.920244 
L 121.803726 70.455354 
L 121.808335 66.75093 
L 121.880443 74.244281 
L 121.911047 70.204398 
L 122.010178 75.446223 
L 121.970586 65.283867 
L 122.020823 70.3279 
L 122.054245 66.013518 
L 122.029946 74.719406 
L 122.129991 71.502197 
L 122.142082 73.909321 
L 122.179826 68.134286 
L 122.187364 68.993317 
L 122.190379 67.25035 
L 122.220502 74.425395 
L 122.297113 69.123338 
L 122.29861 69.127632 
L 122.30011 68.934155 
L 122.30161 68.948833 
L 122.32857 75.217841 
L 122.337547 65.929028 
L 122.419662 73.064135 
L 122.529603 67.306836 
L 122.450924 73.965698 
L 122.532567 69.202666 
L 122.548854 75.400182 
L 122.627145 67.376539 
L 122.64188 68.066645 
L 122.671319 73.940335 
L 122.754981 69.243741 
L 122.784252 73.980867 
L 122.819319 68.391104 
L 122.879083 70.650817 
L 122.92415 64.954219 
L 122.895086 75.240778 
L 122.993726 69.140388 
L 123.050076 75.948273 
L 123.080351 68.827611 
L 123.104825 69.370386 
L 123.116331 75.842201 
L 123.126395 66.932731 
L 123.222452 70.702173 
L 123.292405 68.788615 
L 123.232459 75.808438 
L 123.33369 70.118454 
L 123.335113 70.150648 
L 123.339379 67.796854 
L 123.340799 67.498147 
L 123.377725 74.959069 
L 123.427325 72.12653 
L 123.459851 75.141431 
L 123.452785 67.248266 
L 123.530375 69.355295 
L 123.534598 68.924607 
L 123.545855 75.082728 
L 123.547261 75.510762 
L 123.624479 68.195641 
L 123.645485 71.745499 
L 123.677651 68.299878 
L 123.655282 74.31473 
L 123.758535 68.643151 
L 123.839086 67.619418 
L 123.801628 74.460176 
L 123.864018 69.656809 
L 123.883387 74.59502 
L 123.875088 67.152127 
L 123.974443 71.097128 
L 124.019813 65.909253 
L 124.073297 75.000505 
L 124.086988 69.478569 
L 124.197531 66.686009 
L 124.147113 75.212939 
L 124.198891 67.704434 
L 124.254606 75.482334 
L 124.311513 71.64903 
L 124.411383 66.704156 
L 124.339906 74.551942 
L 124.420802 72.28056 
L 124.46784 73.808229 
L 124.458443 67.13708 
L 124.52815 70.934049 
L 124.568254 74.032161 
L 124.578934 67.231227 
L 124.62293 69.998127 
L 124.664171 68.361835 
L 124.697367 74.83719 
L 124.726531 71.04936 
L 124.78209 74.954737 
L 124.816405 67.417305 
L 124.834859 69.438878 
L 124.89274 75.132958 
L 124.859875 66.693462 
L 124.947832 70.31294 
L 125.010605 67.526237 
L 124.993623 74.739132 
L 125.057556 70.713746 
L 125.121277 73.485801 
L 125.10829 68.292713 
L 125.169258 71.073906 
L 125.246815 68.083977 
L 125.204195 73.170741 
L 125.277751 72.721524 
L 125.281616 74.221499 
L 125.312499 67.281139 
L 125.38437 70.447597 
L 125.447043 74.413257 
L 125.402296 67.949207 
L 125.450871 69.471295 
L 125.453426 66.927563 
L 125.508241 74.318812 
L 125.561636 69.255303 
L 125.569252 68.211475 
L 125.599686 74.338164 
L 125.655359 70.547204 
L 125.683135 73.801995 
L 125.746122 68.003022 
L 125.766235 70.674023 
L 125.835216 68.743735 
L 125.800126 74.624142 
L 125.870239 70.915783 
L 125.876486 73.992405 
L 125.892722 67.809469 
L 125.97991 70.621359 
L 125.981155 70.634381 
L 125.98364 69.887051 
L 126.066714 68.213032 
L 126.045669 73.770829 
L 126.093917 69.678999 
L 126.097623 70.716449 
L 126.126016 74.368157 
L 126.118613 67.13854 
L 126.208493 70.723463 
L 126.311409 64.378968 
L 126.27594 74.53981 
L 126.316295 70.814347 
L 126.391896 74.37022 
L 126.401628 65.704019 
L 126.425942 71.631901 
L 126.526519 67.76277 
L 126.436872 73.119364 
L 126.536186 72.200538 
L 126.643413 66.915497 
L 126.58445 74.577693 
L 126.654222 71.79904 
L 126.754836 75.422022 
L 126.686619 67.93568 
L 126.759613 69.268477 
L 126.844235 66.518007 
L 126.808524 74.467357 
L 126.868005 71.67572 
L 126.898864 65.685167 
L 126.877505 75.778007 
L 126.96635 71.666126 
L 126.969894 75.250961 
L 127.047731 68.362568 
L 127.077135 71.654067 
L 127.16274 73.823339 
L 127.170932 66.333634 
L 127.180286 68.89517 
L 127.218829 67.531687 
L 127.197815 74.531933 
L 127.286387 71.043999 
L 127.32472 73.432548 
L 127.334004 68.481396 
L 127.376876 67.020874 
L 127.350236 73.995268 
L 127.413879 71.326943 
L 127.511831 75.03958 
L 127.47271 68.417203 
L 127.525621 72.580742 
L 127.557759 67.717022 
L 127.626449 74.343581 
L 127.6413 71.312526 
L 127.681228 72.722496 
L 127.715388 67.902834 
L 127.716526 67.872447 
L 127.7188 69.695561 
L 127.729035 73.894728 
L 127.816379 68.559937 
L 127.829958 69.782401 
L 127.934863 73.870317 
L 127.89883 67.064256 
L 127.943862 72.655075 
L 128.023539 67.859175 
L 128.052638 73.97149 
L 128.053755 74.622736 
L 128.059345 67.127391 
L 128.158587 71.062262 
L 128.205248 68.468933 
L 128.194148 74.071445 
L 128.271714 69.81618 
L 128.27282 69.807615 
L 128.275031 70.449188 
L 128.332442 74.566592 
L 128.340158 68.111477 
L 128.381992 68.859317 
L 128.388588 68.393308 
L 128.392985 73.106189 
L 128.394083 74.304373 
L 128.429221 66.712613 
L 128.501493 70.886096 
L 128.544074 66.807557 
L 128.58874 73.43752 
L 128.613751 69.742417 
L 128.663682 74.309055 
L 128.625703 67.579922 
L 128.726454 71.416391 
L 128.810558 67.852254 
L 128.821315 74.216678 
L 128.836363 71.81923 
L 128.890016 68.873153 
L 128.933902 73.628964 
L 128.94673 71.988047 
L 129.026705 73.081703 
L 128.999018 67.965133 
L 129.056478 71.551388 
L 129.080901 68.232454 
L 129.071349 74.751411 
L 129.166675 70.947858 
L 129.24576 74.521864 
L 129.271002 66.618857 
L 129.29201 72.295917 
L 129.294111 74.294038 
L 129.376867 68.822704 
L 129.40194 71.432464 
L 129.515409 67.583402 
L 129.456155 73.200368 
L 129.517486 69.689812 
L 129.587936 74.391202 
L 129.578628 68.460948 
L 129.62926 71.015048 
L 129.712675 74.677875 
L 129.704453 68.788696 
L 129.738348 70.689873 
L 129.778333 69.02987 
L 129.801876 73.58179 
L 129.847856 70.784687 
L 129.868258 72.986729 
L 129.899837 68.674346 
L 129.9598 72.009784 
L 130.044858 67.204297 
L 130.057988 74.752697 
L 130.066065 73.208551 
L 130.070101 72.830061 
L 130.083215 66.507542 
L 130.093296 73.92011 
L 130.182796 71.522759 
L 130.28886 73.41292 
L 130.195834 68.684334 
L 130.291853 70.579133 
L 130.359585 68.284809 
L 130.333715 73.419935 
L 130.403286 70.107636 
L 130.457777 66.595619 
L 130.471623 73.546143 
L 130.514089 70.121293 
L 130.572209 68.301582 
L 130.542679 74.337985 
L 130.624271 70.367949 
L 130.685978 73.298219 
L 130.717248 67.801256 
L 130.734815 70.619942 
L 130.772823 67.862535 
L 130.748467 74.275761 
L 130.832123 70.929066 
L 130.93185 73.700624 
L 130.918324 68.661042 
L 130.943436 71.368805 
L 130.965622 66.625458 
L 130.988747 74.838786 
L 131.05604 69.871151 
L 131.161321 74.479983 
L 131.117364 68.738497 
L 131.167049 69.929689 
L 131.168002 69.925775 
L 131.168957 70.210798 
L 131.174681 73.152408 
L 131.241339 68.629971 
L 131.283125 71.76744 
L 131.323873 73.427204 
L 131.348471 68.085052 
L 131.387199 71.749038 
L 131.4315 68.973141 
L 131.409833 73.035547 
L 131.497293 72.278671 
L 131.589037 73.828021 
L 131.503861 67.20433 
L 131.59464 70.757959 
L 131.677565 68.428395 
L 131.695222 74.307845 
L 131.700795 72.64496 
L 131.760141 74.905617 
L 131.779574 68.086398 
L 131.781425 67.189332 
L 131.859881 73.05238 
L 131.889338 68.633646 
L 131.900371 74.517133 
L 132.005805 70.08227 
L 132.010376 68.396592 
L 132.021343 73.338825 
L 132.106129 71.873461 
L 132.206845 74.213961 
L 132.135216 67.307786 
L 132.21499 71.362324 
L 132.240304 68.293901 
L 132.246627 73.102281 
L 132.316052 72.791016 
L 132.317852 73.644103 
L 132.396888 69.208767 
L 132.42555 71.79676 
L 132.468463 69.097962 
L 132.473821 72.595343 
L 132.541559 69.691604 
L 132.625903 68.211518 
L 132.616155 73.035835 
L 132.640073 70.753866 
L 132.684287 73.033351 
L 132.744261 67.892037 
L 132.753945 72.809211 
L 132.754824 72.851564 
L 132.780333 69.306067 
L 132.816338 70.868254 
L 132.896018 68.087859 
L 132.922216 72.831059 
L 132.923961 73.202814 
L 132.930068 68.730506 
L 133.024053 70.218522 
L 133.048345 69.403427 
L 133.116726 73.011288 
L 133.132273 70.642599 
L 133.13659 73.541801 
L 133.21928 68.988855 
L 133.243335 71.459445 
L 133.344378 68.956107 
L 133.283642 73.145517 
L 133.352916 71.625485 
L 133.368277 72.800127 
L 133.381922 68.878712 
L 133.461043 71.012386 
L 133.528849 68.150131 
L 133.47632 73.528445 
L 133.571952 70.932144 
L 133.635171 74.181458 
L 133.627596 68.28051 
L 133.682241 71.951873 
L 133.780221 68.326916 
L 133.75849 74.074767 
L 133.795252 69.064703 
L 133.798591 70.718056 
L 133.868569 73.200539 
L 133.836943 68.147183 
L 133.908446 70.821539 
L 134.010261 68.514953 
L 133.995394 74.118672 
L 134.020166 70.025974 
L 134.12633 73.125829 
L 134.072086 68.803993 
L 134.131253 70.625761 
L 134.224575 68.529267 
L 134.197605 73.097328 
L 134.239269 71.439231 
L 134.333703 73.232886 
L 134.293055 68.686907 
L 134.349128 70.950339 
L 134.352373 68.225365 
L 134.448689 73.328614 
L 134.460795 69.927615 
L 134.555778 68.790243 
L 134.490629 73.209602 
L 134.571029 70.220905 
L 134.575845 73.924775 
L 134.676659 69.3461 
L 134.683044 72.267226 
L 134.765046 68.76998 
L 134.718912 72.784391 
L 134.796007 70.86662 
L 134.886228 72.862912 
L 134.80711 69.372405 
L 134.902803 69.848239 
L 134.987823 68.954332 
L 134.972891 73.258553 
L 135.012161 70.814965 
L 135.084986 68.88668 
L 135.106082 73.317495 
L 135.124031 70.276403 
L 135.228287 73.134047 
L 135.17934 68.465416 
L 135.233717 70.100736 
L 135.308822 68.494142 
L 135.315774 72.705606 
L 135.33199 71.705344 
L 135.405182 73.362551 
L 135.384408 69.405994 
L 135.415946 69.586959 
L 135.495715 68.48702 
L 135.461241 72.959061 
L 135.518665 72.38486 
L 135.545408 73.993349 
L 135.564488 68.774925 
L 135.620092 69.407123 
L 135.658085 68.332344 
L 135.637577 73.047234 
L 135.723266 70.873606 
L 135.834179 73.926976 
L 135.785212 68.069631 
L 135.835684 72.825086 
L 135.939979 68.636344 
L 135.858239 73.680643 
L 135.948957 70.305227 
L 136.057863 69.235381 
L 136.051911 72.995544 
L 136.059352 70.01585 
L 136.152846 72.748589 
L 136.127661 68.766853 
L 136.169866 69.965618 
L 136.235583 68.393091 
L 136.216407 73.578327 
L 136.269463 70.448384 
L 136.273142 73.892092 
L 136.297407 68.466594 
L 136.380268 71.184269 
L 136.483903 69.255037 
L 136.454764 72.683597 
L 136.490453 71.432193 
L 136.504999 72.860966 
L 136.495545 69.045916 
L 136.599296 70.913384 
L 136.680178 69.125993 
L 136.645556 73.171539 
L 136.692426 72.228591 
L 136.693864 72.903401 
L 136.739902 68.878093 
L 136.803024 72.191137 
L 136.875937 72.576467 
L 136.852377 69.441994 
L 136.883783 70.708687 
L 136.893768 69.390122 
L 136.98409 72.450617 
L 136.994731 70.469749 
L 136.999696 69.406282 
L 137.090241 73.182035 
L 137.090948 73.187029 
L 137.091653 72.883205 
L 137.169833 69.057109 
L 137.204945 71.02252 
L 137.245598 73.144892 
L 137.222478 68.067601 
L 137.291059 70.140937 
L 137.305724 68.721751 
L 137.363576 72.777529 
L 137.393482 71.052473 
L 137.419178 72.833429 
L 137.453158 69.127475 
L 137.504361 71.046884 
L 137.520247 72.72176 
L 137.575408 68.931973 
L 137.61324 70.956483 
L 137.618052 69.314573 
L 137.63316 72.222229 
L 137.724937 70.34457 
L 137.742695 73.696857 
L 137.798596 69.099074 
L 137.835324 70.232592 
L 137.886894 69.687446 
L 137.890962 72.082527 
L 137.939008 71.27848 
L 137.941713 71.511917 
L 137.955225 70.067282 
L 138.050219 69.259727 
L 138.003115 72.285288 
L 138.06164 71.570367 
L 138.170153 72.225568 
L 138.070369 69.137723 
L 138.17149 71.810336 
L 138.284713 68.963136 
L 138.186848 72.338289 
L 138.285378 69.094726 
L 138.305288 72.653474 
L 138.397288 69.786879 
L 138.496085 68.7869 
L 138.430276 72.70236 
L 138.498712 70.642528 
L 138.573457 73.081681 
L 138.560366 69.00153 
L 138.610724 71.113282 
L 138.617254 69.329425 
L 138.634875 72.340265 
L 138.722099 70.467415 
L 138.820573 72.668781 
L 138.814756 69.314665 
L 138.834784 71.73464 
L 138.852858 68.891528 
L 138.890885 72.637604 
L 138.948111 70.219651 
L 139.047375 72.690393 
L 139.031399 68.969894 
L 139.059509 71.011737 
L 139.156309 68.754189 
L 139.114335 72.608604 
L 139.15885 71.567984 
L 139.241884 72.542611 
L 139.258323 69.061316 
L 139.270327 72.466831 
L 139.354777 69.121232 
L 139.38808 70.847084 
L 139.495144 72.959107 
L 139.415057 69.15715 
L 139.498265 70.892996 
L 139.531326 69.121438 
L 139.548146 72.882706 
L 139.610941 69.604932 
L 139.716183 72.163051 
L 139.651246 69.290586 
L 139.729145 71.267396 
L 139.80243 69.700175 
L 139.759354 72.245285 
L 139.839891 70.95891 
L 139.945137 72.251023 
L 139.845414 69.309661 
L 139.950019 71.010537 
L 140.026133 69.11962 
L 139.97258 72.264911 
L 140.05953 71.491072 
L 140.118294 72.157425 
L 140.068025 69.429075 
L 140.167833 70.703585 
L 140.173262 71.000183 
L 140.175674 70.302328 
L 140.267739 69.866999 
L 140.257531 72.230613 
L 140.27674 71.348504 
L 140.363554 72.559086 
L 140.347418 69.441169 
L 140.387436 71.407839 
L 140.397576 69.506747 
L 140.410095 72.401804 
L 140.499881 70.954288 
L 140.50937 72.507662 
L 140.537814 69.344363 
L 140.606379 69.524247 
L 140.607558 69.207768 
L 140.624662 72.304216 
L 140.714646 70.467209 
L 140.717582 72.263369 
L 140.793707 69.889292 
L 140.827575 71.497138 
L 140.843321 69.567211 
L 140.907344 72.512197 
L 140.941016 70.275117 
L 140.969998 69.496965 
L 141.039381 72.149538 
L 141.052652 70.169902 
L 141.140705 72.250624 
L 141.1562 69.805916 
L 141.166525 71.024979 
L 141.180283 69.22801 
L 141.266623 72.140036 
L 141.279741 70.087736 
L 141.38267 72.487646 
L 141.32132 69.813716 
L 141.393443 70.50379 
L 141.461349 69.067748 
L 141.446655 71.954169 
L 141.503106 70.906153 
L 141.579059 72.217439 
L 141.508743 69.419885 
L 141.613844 70.817522 
L 141.704441 72.445906 
L 141.684904 69.855469 
L 141.726747 71.30538 
L 141.79962 69.509515 
L 141.750141 72.717472 
L 141.839004 70.468392 
L 141.86337 69.377171 
L 141.87665 72.024245 
L 141.945112 71.387098 
L 141.989156 69.568422 
L 141.972102 72.227774 
L 142.06161 71.152425 
L 142.077495 72.286621 
L 142.092815 69.790396 
L 142.171976 71.013276 
L 142.271968 69.383809 
L 142.207901 71.726783 
L 142.283348 70.63355 
L 142.292015 72.043365 
L 142.322315 70.172367 
L 142.39517 71.053108 
L 142.495109 69.754408 
L 142.481169 72.201146 
L 142.505823 70.939987 
L 142.57213 72.383115 
L 142.586005 69.925536 
L 142.614791 70.480106 
L 142.639278 69.718853 
L 142.632893 71.93374 
L 142.724217 70.942207 
L 142.726864 71.836085 
L 142.801403 69.895719 
L 142.836722 71.44224 
L 142.859885 72.097685 
L 142.867772 69.815409 
L 142.944923 70.70137 
L 143.01603 70.011888 
L 143.020726 72.433915 
L 143.053571 70.899292 
L 143.109748 72.003612 
L 143.075436 69.702042 
L 143.163692 70.723338 
L 143.191645 69.020073 
L 143.181814 72.682637 
L 143.273201 71.171021 
L 143.29328 71.965824 
L 143.29894 70.114247 
L 143.38159 70.793888 
L 143.436326 72.275159 
L 143.469504 69.865468 
L 143.470522 69.668485 
L 143.48072 71.964771 
L 143.576816 71.118308 
L 143.584929 69.450679 
L 143.593547 72.167679 
L 143.690607 70.748058 
L 143.764596 71.9337 
L 143.705226 70.144102 
L 143.801235 70.621353 
L 143.863316 69.512153 
L 143.872312 72.170024 
L 143.910746 71.236852 
L 143.934667 71.976886 
L 143.961542 69.966389 
L 144.021135 71.004469 
L 144.081537 69.70157 
L 144.071649 71.970622 
L 144.134359 70.635418 
L 144.203259 70.258143 
L 144.150129 71.944157 
L 144.22928 71.095643 
L 144.291002 71.956932 
L 144.266533 69.970346 
L 144.341313 71.474674 
L 144.350581 69.649524 
L 144.443008 72.163496 
L 144.455622 70.725829 
L 144.496321 72.387308 
L 144.48131 69.800265 
L 144.565892 70.662548 
L 144.615025 69.488552 
L 144.619355 72.393988 
L 144.676028 70.893023 
L 144.694723 72.33966 
L 144.681301 69.88109 
L 144.790316 71.267765 
L 144.871208 69.694318 
L 144.823665 72.245964 
L 144.901574 70.94503 
L 144.957914 71.852166 
L 144.998055 69.917248 
L 145.012205 71.020555 
L 145.068698 69.937022 
L 145.076217 71.886173 
L 145.121746 71.136699 
L 145.130183 71.778391 
L 145.164362 70.127085 
L 145.232079 70.895748 
L 145.297239 71.883492 
L 145.285154 69.783959 
L 145.342722 70.925776 
L 145.412599 69.881052 
L 145.419527 71.815262 
L 145.452746 71.114167 
L 145.548398 71.729741 
L 145.55115 70.289979 
L 145.558947 70.698602 
L 145.578195 70.077504 
L 145.588726 71.64812 
L 145.669136 71.097399 
L 145.748309 70.347664 
L 145.72059 71.944247 
L 145.780523 70.882253 
L 145.887226 72.150425 
L 145.821283 70.324285 
L 145.890383 70.801335 
L 145.893988 69.948362 
L 145.913812 71.676678 
L 145.999629 71.354592 
L 146.085073 70.020426 
L 146.06006 71.930019 
L 146.118078 71.050424 
L 146.208777 71.900528 
L 146.195022 70.202992 
L 146.226512 70.773999 
L 146.327298 69.976583 
L 146.248216 71.824281 
L 146.333911 71.346561 
L 146.337436 72.331227 
L 146.348889 69.639357 
L 146.444668 71.222144 
L 146.46876 71.735395 
L 146.452994 69.905452 
L 146.548703 70.305232 
L 146.605297 71.902186 
L 146.63006 70.179076 
L 146.676026 70.803621 
L 146.785739 70.206249 
L 146.772813 71.833105 
L 146.787031 70.663601 
L 146.863118 71.8301 
L 146.855394 70.217149 
L 146.898695 71.172286 
L 146.982883 69.994615 
L 146.974352 71.820129 
L 147.011008 70.843648 
L 147.027182 71.907976 
L 147.107431 70.175352 
L 147.12522 71.304726 
L 147.201697 70.278851 
L 147.224035 71.84784 
L 147.236667 70.785512 
L 147.326126 71.490155 
L 147.31397 70.177024 
L 147.349159 71.34424 
L 147.437275 70.246635 
L 147.356274 71.784935 
L 147.458931 71.702861 
L 147.478482 71.8519 
L 147.470581 69.914582 
L 147.561882 71.190984 
L 147.61109 70.250934 
L 147.604895 71.585523 
L 147.673356 70.983529 
L 147.785837 71.734776 
L 147.722285 70.042302 
L 147.786656 71.591722 
L 147.829587 70.009527 
L 147.806703 71.785016 
L 147.899306 70.702971 
L 148.000384 71.518553 
L 147.925336 70.19466 
L 148.010909 70.967288 
L 148.046891 71.818004 
L 148.08805 70.183522 
L 148.11544 70.53466 
L 148.205802 69.995126 
L 148.153242 71.784729 
L 148.217819 71.343746 
L 148.21982 71.798796 
L 148.227828 70.300748 
L 148.328028 71.150183 
L 148.386078 70.261557 
L 148.334003 71.639072 
L 148.437229 71.16092 
L 148.438811 71.489653 
L 148.537552 70.304575 
L 148.54661 70.828368 
L 148.553699 70.457563 
L 148.571403 71.498827 
L 148.616187 71.712257 
L 148.609516 69.781749 
L 148.680825 71.112454 
L 148.694119 70.484954 
L 148.751488 71.469775 
L 148.791587 71.083473 
L 148.880055 71.706433 
L 148.833933 70.224656 
L 148.900953 70.98794 
L 148.979304 70.285571 
L 149.007788 71.535697 
L 149.013557 70.632785 
L 149.02163 70.336906 
L 149.089547 71.482412 
L 149.121315 70.744681 
L 149.227343 71.560987 
L 149.156084 70.415348 
L 149.232288 70.735421 
L 149.290003 70.447304 
L 149.286591 71.63715 
L 149.333559 71.235611 
L 149.450111 70.4013 
L 149.357754 71.404946 
L 149.451991 71.055553 
L 149.537542 71.619297 
L 149.549518 70.328031 
L 149.562984 71.048982 
L 149.650287 71.506879 
L 149.613772 70.448134 
L 149.673355 70.990347 
L 149.737204 70.368986 
L 149.768682 71.393558 
L 149.784957 70.82929 
L 149.872017 71.396796 
L 149.856182 70.445665 
L 149.893721 70.669664 
L 149.998962 70.369594 
L 149.926418 71.520987 
L 150.001887 71.244828 
L 150.035864 71.490323 
L 150.10655 70.315975 
L 150.106912 70.277852 
L 150.156315 71.423426 
L 150.210298 71.067758 
L 150.218254 70.246814 
L 150.299818 71.52445 
L 150.31206 71.180279 
L 150.387139 71.4609 
L 150.334001 70.496206 
L 150.422245 70.868145 
L 150.495481 71.672534 
L 150.486564 70.276675 
L 150.534308 71.138854 
L 150.542136 70.267441 
L 150.587619 71.490489 
L 150.646444 70.986832 
L 150.717792 71.548798 
L 150.658472 70.527429 
L 150.756535 70.843545 
L 150.862514 70.459865 
L 150.793096 71.455263 
L 150.867064 70.890385 
L 150.955733 71.408095 
L 150.948766 70.386823 
L 150.973143 70.765102 
L 151.066536 70.511367 
L 150.980103 71.401076 
L 151.083152 70.923116 
L 151.168445 70.552703 
L 151.108745 71.462292 
L 151.170857 71.201938 
L 151.18601 71.478121 
L 151.231399 70.564335 
L 151.279424 70.831304 
L 151.375465 70.550624 
L 151.329382 71.575394 
L 151.388076 70.978402 
L 151.477486 71.433431 
L 151.397615 70.379321 
L 151.497147 70.69909 
L 151.499182 70.335022 
L 151.505617 71.68992 
L 151.605278 71.153494 
L 151.669201 71.48096 
L 151.630536 70.501993 
L 151.713489 70.999752 
L 151.775391 70.561241 
L 151.74597 71.310252 
L 151.82244 71.176919 
L 151.914541 71.514899 
L 151.828769 70.550298 
L 151.931782 70.908721 
L 152.021722 70.468447 
L 152.013474 71.350686 
L 152.042826 70.888762 
L 152.100085 70.53016 
L 152.085952 71.372239 
L 152.1421 71.082132 
L 152.20561 71.355704 
L 152.245116 70.403043 
L 152.252944 71.054747 
L 152.278032 70.59963 
L 152.273475 71.225349 
L 152.363813 71.083286 
L 152.459224 71.446461 
L 152.462449 70.554994 
L 152.47438 71.092622 
L 152.539075 70.585571 
L 152.573427 71.363597 
L 152.585933 71.045476 
L 152.681868 71.497814 
L 152.616683 70.521181 
L 152.694942 70.895623 
L 152.74811 70.485106 
L 152.739524 71.347524 
L 152.799229 71.18349 
L 152.85401 71.315921 
L 152.847369 70.553778 
L 152.907379 70.960289 
L 152.959975 70.608917 
L 152.950537 71.304294 
L 153.018701 70.912966 
L 153.020268 71.285024 
L 153.042205 70.608879 
L 153.130019 71.002354 
L 153.232335 70.701848 
L 153.16024 71.289953 
L 153.240398 71.008325 
L 153.338131 71.194857 
L 153.341525 70.615214 
L 153.349852 70.878231 
L 153.366495 70.662678 
L 153.430163 71.32453 
L 153.461152 70.825773 
L 153.513509 71.31217 
L 153.502498 70.55995 
L 153.57213 70.828845 
L 153.580056 70.69769 
L 153.587367 71.22558 
L 153.673086 71.128671 
L 153.743627 71.281919 
L 153.679756 70.570068 
L 153.775938 70.866935 
L 153.885455 70.509272 
L 153.822949 71.244408 
L 153.887555 70.725536 
L 153.888756 70.700062 
L 153.890855 71.068939 
L 153.921126 71.253538 
L 153.928312 70.675168 
L 154.000631 70.935791 
L 154.058412 70.657119 
L 154.094958 71.205998 
L 154.110685 70.991666 
L 154.138547 71.226658 
L 154.145654 70.6539 
L 154.222487 71.16752 
L 154.302544 70.688755 
L 154.291673 71.323909 
L 154.340105 70.91277 
L 154.426108 71.196881 
L 154.431361 70.712774 
L 154.450611 70.87334 
L 154.507376 70.628931 
L 154.500981 71.352247 
L 154.560209 71.058427 
L 154.571802 70.637241 
L 154.65449 71.253478 
L 154.669488 71.092253 
L 154.74631 71.223992 
L 154.710958 70.58531 
L 154.779306 71.044387 
L 154.873969 70.627096 
L 154.823405 71.279422 
L 154.892792 70.824389 
L 154.910455 71.164643 
L 154.989179 70.637605 
L 155.003923 70.906973 
L 155.107382 70.69732 
L 155.098642 71.149716 
L 155.111613 71.094392 
L 155.176336 71.191065 
L 155.166781 70.581608 
L 155.220395 70.914996 
L 155.277495 70.757329 
L 155.318539 71.190346 
L 155.329972 70.906875 
L 155.333317 71.297517 
L 155.342512 70.684038 
L 155.441435 71.032611 
L 155.520549 70.672693 
L 155.524138 71.241775 
L 155.553647 70.917091 
L 155.558057 71.163984 
L 155.564118 70.67513 
L 155.663304 70.803257 
L 155.696985 70.680819 
L 155.723779 71.165623 
L 155.740985 71.049558 
L 155.841187 71.192265 
L 155.83847 70.733445 
L 155.848517 70.746169 
L 155.848789 70.726785 
L 155.851232 71.162095 
L 155.957083 70.883947 
L 156.033073 71.166033 
L 156.007509 70.719636 
L 156.068275 70.929837 
L 156.149721 70.71722 
L 156.142768 71.205879 
L 156.178573 70.977157 
L 156.192718 71.198461 
L 156.196452 70.727642 
L 156.285602 70.763213 
L 156.363771 70.704366 
L 156.368003 71.259262 
L 156.383596 71.031468 
L 156.417648 71.127235 
L 156.411316 70.751005 
L 156.446109 70.859949 
L 156.447163 70.739932 
L 156.529416 71.135893 
L 156.556669 70.954022 
L 156.58127 70.683332 
L 156.590161 71.201275 
L 156.667911 70.934852 
L 156.778008 71.142374 
L 156.755728 70.758529 
L 156.779303 70.990757 
L 156.888522 70.763425 
L 156.866366 71.148826 
L 156.890583 70.931981 
L 156.941236 71.163889 
L 156.926593 70.748611 
L 157.000464 70.881211 
L 157.106173 70.769716 
L 157.015054 71.065625 
L 157.109482 70.943038 
L 157.189519 71.172324 
L 157.194843 70.686518 
L 157.221696 70.987962 
L 157.227517 70.734601 
L 157.325216 71.161017 
L 157.335789 70.867022 
L 157.339815 71.231863 
L 157.429443 70.749284 
L 157.447219 70.939575 
L 157.525395 71.108847 
L 157.46523 70.768402 
L 157.557277 70.894173 
L 157.57419 70.754208 
L 157.567228 71.189415 
L 157.62485 71.047978 
L 157.702324 71.129507 
L 157.707757 70.783667 
L 157.732191 70.888316 
L 157.746 71.118914 
L 157.773585 70.747385 
L 157.840421 70.863054 
L 157.841401 70.767024 
L 157.857338 71.085023 
L 157.950495 71.042881 
L 158.020622 71.157527 
L 157.953178 70.727653 
L 158.054862 70.895487 
L 158.056319 70.739639 
L 158.149746 71.150302 
L 158.165194 70.962357 
L 158.264348 71.093257 
L 158.189789 70.797834 
L 158.276827 70.99564 
L 158.353687 70.72083 
L 158.360615 71.125256 
L 158.386876 71.053333 
L 158.387829 71.10628 
L 158.436911 70.796814 
L 158.496548 70.947288 
L 158.607969 70.761145 
L 158.552219 71.108999 
L 158.608913 70.859145 
L 158.720639 71.068334 
L 158.703274 70.850151 
L 158.721108 71.065281 
L 158.805363 70.732387 
L 158.744548 71.147862 
L 158.835231 70.883127 
L 158.857836 71.100841 
L 158.938492 70.837487 
L 158.947072 70.934532 
L 158.964453 70.768044 
L 158.969781 71.061958 
L 159.054129 70.987193 
L 159.125254 71.111629 
L 159.094902 70.780735 
L 159.16542 71.008971 
L 159.200243 70.815193 
L 159.26856 71.057743 
L 159.277453 70.944493 
L 159.368665 71.085528 
L 159.312078 70.798947 
L 159.387945 70.918758 
L 159.486767 70.806595 
L 159.480224 71.122214 
L 159.490827 71.026857 
L 159.491954 71.09969 
L 159.545327 70.857387 
L 159.600574 70.914203 
L 159.603938 71.057627 
L 159.702127 70.842052 
L 159.71395 70.98931 
L 159.717741 70.762448 
L 159.787616 71.074378 
L 159.824235 70.997483 
L 159.853038 71.056989 
L 159.919346 70.800792 
L 159.931919 70.888268 
L 160.004994 71.046238 
L 159.972011 70.85166 
L 160.048446 70.948797 
L 160.130259 70.823363 
L 160.064003 71.054877 
L 160.158617 70.984496 
L 160.256681 71.070996 
L 160.163847 70.834382 
L 160.269908 70.987476 
L 160.300662 70.802709 
L 160.321427 71.080189 
L 160.380787 71.000408 
L 160.46402 70.841064 
L 160.433951 71.023695 
L 160.492329 70.964699 
L 160.502613 71.043967 
L 160.577225 70.853994 
L 160.603029 70.948553 
L 160.668767 70.860758 
L 160.675137 71.054465 
L 160.713743 70.946344 
L 160.808448 71.048936 
L 160.781647 70.828275 
L 160.824047 70.89977 
L 160.826997 71.055407 
L 160.870141 70.821859 
L 160.937087 70.929685 
L 160.961794 70.863325 
L 160.967652 71.047861 
L 161.044897 70.951107 
L 161.045731 70.963964 
L 161.052605 70.934228 
L 161.155848 70.944965 
L 161.264528 70.957664 
L 161.20303 70.935824 
L 161.267 70.943874 
L 161.368304 70.958785 
L 161.312066 70.938115 
L 161.378345 70.947728 
L 161.460525 70.939526 
L 161.399639 70.959078 
L 161.489471 70.948705 
L 161.551297 70.960582 
L 161.498838 70.938093 
L 161.600577 70.949511 
L 161.708441 70.941013 
L 161.607867 70.9559 
L 161.711867 70.948933 
L 161.815116 70.957053 
L 161.718914 70.941822 
L 161.823927 70.949275 
L 161.925196 70.941578 
L 161.830134 70.955786 
L 161.935555 70.949831 
L 162.040408 70.957713 
L 161.938938 70.938619 
L 162.046746 70.948672 
L 162.125983 70.936394 
L 162.077806 70.960489 
L 162.157904 70.948634 
L 162.245319 70.95761 
L 162.180137 70.939358 
L 162.269023 70.956155 
L 162.372505 70.940085 
L 162.281742 70.961187 
L 162.380099 70.94975 
L 162.491325 70.941648 
L 162.383799 70.957721 
L 162.492101 70.94814 
L 162.602695 70.9573 
L 162.510284 70.937116 
L 162.603272 70.953959 
L 162.67263 70.934179 
L 162.64288 70.958052 
L 162.714394 70.952811 
L 162.77077 70.935346 
L 162.755497 70.959588 
L 162.82565 70.94579 
L 162.874877 70.961445 
L 162.874496 70.937952 
L 162.936659 70.949449 
L 163.046856 70.936578 
L 162.954063 70.958877 
L 163.048362 70.945187 
L 163.139591 70.957629 
L 163.065663 70.939558 
L 163.159807 70.950385 
L 163.267461 70.956698 
L 163.164108 70.9411 
L 163.270995 70.947706 
L 163.377856 70.93989 
L 163.29702 70.957618 
L 163.381925 70.945638 
L 163.463702 70.962837 
L 163.463333 70.93381 
L 163.493153 70.953775 
L 163.559443 70.936584 
L 163.576299 70.961019 
L 163.604303 70.949264 
L 164.785764 70.944037 
L 164.786281 70.952893 
L 164.85024 70.962083 
L 164.853331 70.938283 
L 164.897045 70.951343 
L 164.996798 70.9397 
L 164.954671 70.960267 
L 165.00804 70.948336 
L 165.115362 70.961282 
L 165.011274 70.938039 
L 165.119426 70.948694 
L 165.200866 70.938109 
L 165.121458 70.955854 
L 165.23052 70.950643 
L 165.328262 70.958044 
L 165.244657 70.936454 
L 165.341658 70.951435 
L 165.44801 70.939938 
L 165.3604 70.95974 
L 165.453005 70.947619 
L 165.503876 70.959388 
L 165.458665 70.937523 
L 165.564054 70.947782 
L 165.661307 70.960036 
L 165.580102 70.936975 
L 165.675466 70.951164 
L 165.730855 70.908341 
L 165.731182 70.975716 
L 165.78674 70.946886 
L 165.790012 70.951441 
L 165.788869 70.944829 
L 165.790505 70.950168 
" clip-path="url(#p41e7d1205d)" style="fill: none; stroke: #808080; stroke-linecap: square"/>
   </g>
   <g id="line2d_3">
    <path d="M 57.377031 25.41395 
L 165.790668 25.41395 
" clip-path="url(#p41e7d1205d)" style="fill: none; stroke-dasharray: 6.4,1.6,1,1.6; stroke-dashoffset: 0; stroke: #808080"/>
   </g>
   <g id="matplotlib.axis_1">
    <g id="xtick_1">
     <g id="line2d_4">
      <defs>
       <path id="m64ff8efad2" d="M 0 0 
L 0 6 
" style="stroke: #000000"/>
      </defs>
      <g>
       <use xlink:href="#m64ff8efad2" x="57.377031" y="116.483699" style="stroke: #000000"/>
      </g>
     </g>
     <g id="text_1">
      <!-- $\mathdefault{10^{1}}$ -->
      <g transform="translate(44.032031 140.014949)scale(0.17 -0.17)">
       <defs>
        <path id="ArialMT-31" d="M 2384 0 
L 1822 0 
L 1822 3584 
Q 1619 3391 1289 3197 
Q 959 3003 697 2906 
L 697 3450 
Q 1169 3672 1522 3987 
Q 1875 4303 2022 4600 
L 2384 4600 
L 2384 0 
z
" transform="scale(0.015625)"/>
        <path id="ArialMT-30" d="M 266 2259 
Q 266 3072 433 3567 
Q 600 4063 929 4331 
Q 1259 4600 1759 4600 
Q 2128 4600 2406 4451 
Q 2684 4303 2865 4023 
Q 3047 3744 3150 3342 
Q 3253 2941 3253 2259 
Q 3253 1453 3087 958 
Q 2922 463 2592 192 
Q 2263 -78 1759 -78 
Q 1097 -78 719 397 
Q 266 969 266 2259 
z
M 844 2259 
Q 844 1131 1108 757 
Q 1372 384 1759 384 
Q 2147 384 2411 759 
Q 2675 1134 2675 2259 
Q 2675 3391 2411 3762 
Q 2147 4134 1753 4134 
Q 1366 4134 1134 3806 
Q 844 3388 844 2259 
z
" transform="scale(0.015625)"/>
       </defs>
       <use xlink:href="#ArialMT-31" transform="translate(0 0.99375)"/>
       <use xlink:href="#ArialMT-30" transform="translate(55.615234 0.99375)"/>
       <use xlink:href="#ArialMT-31" transform="translate(112.972813 70.6875)scale(0.7)"/>
      </g>
     </g>
    </g>
    <g id="xtick_2">
     <g id="line2d_5">
      <g>
       <use xlink:href="#m64ff8efad2" x="102.588186" y="116.483699" style="stroke: #000000"/>
      </g>
     </g>
     <g id="text_2">
      <!-- $\mathdefault{10^{2}}$ -->
      <g transform="translate(89.243186 140.014949)scale(0.17 -0.17)">
       <defs>
        <path id="ArialMT-32" d="M 3222 541 
L 3222 0 
L 194 0 
Q 188 203 259 391 
Q 375 700 629 1000 
Q 884 1300 1366 1694 
Q 2113 2306 2375 2664 
Q 2638 3022 2638 3341 
Q 2638 3675 2398 3904 
Q 2159 4134 1775 4134 
Q 1369 4134 1125 3890 
Q 881 3647 878 3216 
L 300 3275 
Q 359 3922 746 4261 
Q 1134 4600 1788 4600 
Q 2447 4600 2831 4234 
Q 3216 3869 3216 3328 
Q 3216 3053 3103 2787 
Q 2991 2522 2730 2228 
Q 2469 1934 1863 1422 
Q 1356 997 1212 845 
Q 1069 694 975 541 
L 3222 541 
z
" transform="scale(0.015625)"/>
       </defs>
       <use xlink:href="#ArialMT-31" transform="translate(0 0.99375)"/>
       <use xlink:href="#ArialMT-30" transform="translate(55.615234 0.99375)"/>
       <use xlink:href="#ArialMT-32" transform="translate(112.972813 70.6875)scale(0.7)"/>
      </g>
     </g>
    </g>
    <g id="xtick_3">
     <g id="line2d_6">
      <g>
       <use xlink:href="#m64ff8efad2" x="147.79934" y="116.483699" style="stroke: #000000"/>
      </g>
     </g>
     <g id="text_3">
      <!-- $\mathdefault{10^{3}}$ -->
      <g transform="translate(134.45434 140.014949)scale(0.17 -0.17)">
       <defs>
        <path id="ArialMT-33" d="M 269 1209 
L 831 1284 
Q 928 806 1161 595 
Q 1394 384 1728 384 
Q 2125 384 2398 659 
Q 2672 934 2672 1341 
Q 2672 1728 2419 1979 
Q 2166 2231 1775 2231 
Q 1616 2231 1378 2169 
L 1441 2663 
Q 1497 2656 1531 2656 
Q 1891 2656 2178 2843 
Q 2466 3031 2466 3422 
Q 2466 3731 2256 3934 
Q 2047 4138 1716 4138 
Q 1388 4138 1169 3931 
Q 950 3725 888 3313 
L 325 3413 
Q 428 3978 793 4289 
Q 1159 4600 1703 4600 
Q 2078 4600 2393 4439 
Q 2709 4278 2876 4000 
Q 3044 3722 3044 3409 
Q 3044 3113 2884 2869 
Q 2725 2625 2413 2481 
Q 2819 2388 3044 2092 
Q 3269 1797 3269 1353 
Q 3269 753 2831 336 
Q 2394 -81 1725 -81 
Q 1122 -81 723 278 
Q 325 638 269 1209 
z
" transform="scale(0.015625)"/>
       </defs>
       <use xlink:href="#ArialMT-31" transform="translate(0 0.99375)"/>
       <use xlink:href="#ArialMT-30" transform="translate(55.615234 0.99375)"/>
       <use xlink:href="#ArialMT-33" transform="translate(112.972813 70.6875)scale(0.7)"/>
      </g>
     </g>
    </g>
    <g id="xtick_4">
     <g id="line2d_7">
      <defs>
       <path id="m7e638c5e64" d="M 0 0 
L 0 3 
" style="stroke: #000000"/>
      </defs>
      <g>
       <use xlink:href="#m7e638c5e64" x="70.986945" y="116.483699" style="stroke: #000000"/>
      </g>
     </g>
    </g>
    <g id="xtick_5">
     <g id="line2d_8">
      <g>
       <use xlink:href="#m7e638c5e64" x="78.948234" y="116.483699" style="stroke: #000000"/>
      </g>
     </g>
    </g>
    <g id="xtick_6">
     <g id="line2d_9">
      <g>
       <use xlink:href="#m7e638c5e64" x="84.596859" y="116.483699" style="stroke: #000000"/>
      </g>
     </g>
    </g>
    <g id="xtick_7">
     <g id="line2d_10">
      <g>
       <use xlink:href="#m7e638c5e64" x="88.978272" y="116.483699" style="stroke: #000000"/>
      </g>
     </g>
    </g>
    <g id="xtick_8">
     <g id="line2d_11">
      <g>
       <use xlink:href="#m7e638c5e64" x="92.558148" y="116.483699" style="stroke: #000000"/>
      </g>
     </g>
    </g>
    <g id="xtick_9">
     <g id="line2d_12">
      <g>
       <use xlink:href="#m7e638c5e64" x="95.584889" y="116.483699" style="stroke: #000000"/>
      </g>
     </g>
    </g>
    <g id="xtick_10">
     <g id="line2d_13">
      <g>
       <use xlink:href="#m7e638c5e64" x="98.206772" y="116.483699" style="stroke: #000000"/>
      </g>
     </g>
    </g>
    <g id="xtick_11">
     <g id="line2d_14">
      <g>
       <use xlink:href="#m7e638c5e64" x="100.519437" y="116.483699" style="stroke: #000000"/>
      </g>
     </g>
    </g>
    <g id="xtick_12">
     <g id="line2d_15">
      <g>
       <use xlink:href="#m7e638c5e64" x="116.198099" y="116.483699" style="stroke: #000000"/>
      </g>
     </g>
    </g>
    <g id="xtick_13">
     <g id="line2d_16">
      <g>
       <use xlink:href="#m7e638c5e64" x="124.159389" y="116.483699" style="stroke: #000000"/>
      </g>
     </g>
    </g>
    <g id="xtick_14">
     <g id="line2d_17">
      <g>
       <use xlink:href="#m7e638c5e64" x="129.808013" y="116.483699" style="stroke: #000000"/>
      </g>
     </g>
    </g>
    <g id="xtick_15">
     <g id="line2d_18">
      <g>
       <use xlink:href="#m7e638c5e64" x="134.189427" y="116.483699" style="stroke: #000000"/>
      </g>
     </g>
    </g>
    <g id="xtick_16">
     <g id="line2d_19">
      <g>
       <use xlink:href="#m7e638c5e64" x="137.769302" y="116.483699" style="stroke: #000000"/>
      </g>
     </g>
    </g>
    <g id="xtick_17">
     <g id="line2d_20">
      <g>
       <use xlink:href="#m7e638c5e64" x="140.796044" y="116.483699" style="stroke: #000000"/>
      </g>
     </g>
    </g>
    <g id="xtick_18">
     <g id="line2d_21">
      <g>
       <use xlink:href="#m7e638c5e64" x="143.417927" y="116.483699" style="stroke: #000000"/>
      </g>
     </g>
    </g>
    <g id="xtick_19">
     <g id="line2d_22">
      <g>
       <use xlink:href="#m7e638c5e64" x="145.730591" y="116.483699" style="stroke: #000000"/>
      </g>
     </g>
    </g>
    <g id="xtick_20">
     <g id="line2d_23">
      <g>
       <use xlink:href="#m7e638c5e64" x="161.409254" y="116.483699" style="stroke: #000000"/>
      </g>
     </g>
    </g>
    <g id="text_4">
     <!-- Time (ms) -->
     <g transform="translate(73.663224 159.769168)scale(0.17 -0.17)">
      <defs>
       <path id="ArialMT-54" d="M 1659 0 
L 1659 4041 
L 150 4041 
L 150 4581 
L 3781 4581 
L 3781 4041 
L 2266 4041 
L 2266 0 
L 1659 0 
z
" transform="scale(0.015625)"/>
       <path id="ArialMT-69" d="M 425 3934 
L 425 4581 
L 988 4581 
L 988 3934 
L 425 3934 
z
M 425 0 
L 425 3319 
L 988 3319 
L 988 0 
L 425 0 
z
" transform="scale(0.015625)"/>
       <path id="ArialMT-6d" d="M 422 0 
L 422 3319 
L 925 3319 
L 925 2853 
Q 1081 3097 1340 3245 
Q 1600 3394 1931 3394 
Q 2300 3394 2536 3241 
Q 2772 3088 2869 2813 
Q 3263 3394 3894 3394 
Q 4388 3394 4653 3120 
Q 4919 2847 4919 2278 
L 4919 0 
L 4359 0 
L 4359 2091 
Q 4359 2428 4304 2576 
Q 4250 2725 4106 2815 
Q 3963 2906 3769 2906 
Q 3419 2906 3187 2673 
Q 2956 2441 2956 1928 
L 2956 0 
L 2394 0 
L 2394 2156 
Q 2394 2531 2256 2718 
Q 2119 2906 1806 2906 
Q 1569 2906 1367 2781 
Q 1166 2656 1075 2415 
Q 984 2175 984 1722 
L 984 0 
L 422 0 
z
" transform="scale(0.015625)"/>
       <path id="ArialMT-65" d="M 2694 1069 
L 3275 997 
Q 3138 488 2766 206 
Q 2394 -75 1816 -75 
Q 1088 -75 661 373 
Q 234 822 234 1631 
Q 234 2469 665 2931 
Q 1097 3394 1784 3394 
Q 2450 3394 2872 2941 
Q 3294 2488 3294 1666 
Q 3294 1616 3291 1516 
L 816 1516 
Q 847 969 1125 678 
Q 1403 388 1819 388 
Q 2128 388 2347 550 
Q 2566 713 2694 1069 
z
M 847 1978 
L 2700 1978 
Q 2663 2397 2488 2606 
Q 2219 2931 1791 2931 
Q 1403 2931 1139 2672 
Q 875 2413 847 1978 
z
" transform="scale(0.015625)"/>
       <path id="ArialMT-20" transform="scale(0.015625)"/>
       <path id="ArialMT-28" d="M 1497 -1347 
Q 1031 -759 709 28 
Q 388 816 388 1659 
Q 388 2403 628 3084 
Q 909 3875 1497 4659 
L 1900 4659 
Q 1522 4009 1400 3731 
Q 1209 3300 1100 2831 
Q 966 2247 966 1656 
Q 966 153 1900 -1347 
L 1497 -1347 
z
" transform="scale(0.015625)"/>
       <path id="ArialMT-73" d="M 197 991 
L 753 1078 
Q 800 744 1014 566 
Q 1228 388 1613 388 
Q 2000 388 2187 545 
Q 2375 703 2375 916 
Q 2375 1106 2209 1216 
Q 2094 1291 1634 1406 
Q 1016 1563 777 1677 
Q 538 1791 414 1992 
Q 291 2194 291 2438 
Q 291 2659 392 2848 
Q 494 3038 669 3163 
Q 800 3259 1026 3326 
Q 1253 3394 1513 3394 
Q 1903 3394 2198 3281 
Q 2494 3169 2634 2976 
Q 2775 2784 2828 2463 
L 2278 2388 
Q 2241 2644 2061 2787 
Q 1881 2931 1553 2931 
Q 1166 2931 1000 2803 
Q 834 2675 834 2503 
Q 834 2394 903 2306 
Q 972 2216 1119 2156 
Q 1203 2125 1616 2013 
Q 2213 1853 2448 1751 
Q 2684 1650 2818 1456 
Q 2953 1263 2953 975 
Q 2953 694 2789 445 
Q 2625 197 2315 61 
Q 2006 -75 1616 -75 
Q 969 -75 630 194 
Q 291 463 197 991 
z
" transform="scale(0.015625)"/>
       <path id="ArialMT-29" d="M 791 -1347 
L 388 -1347 
Q 1322 153 1322 1656 
Q 1322 2244 1188 2822 
Q 1081 3291 891 3722 
Q 769 4003 388 4659 
L 791 4659 
Q 1378 3875 1659 3084 
Q 1900 2403 1900 1659 
Q 1900 816 1576 28 
Q 1253 -759 791 -1347 
z
" transform="scale(0.015625)"/>
      </defs>
      <use xlink:href="#ArialMT-54"/>
      <use xlink:href="#ArialMT-69" x="57.333984"/>
      <use xlink:href="#ArialMT-6d" x="79.550781"/>
      <use xlink:href="#ArialMT-65" x="162.851562"/>
      <use xlink:href="#ArialMT-20" x="218.466797"/>
      <use xlink:href="#ArialMT-28" x="246.25"/>
      <use xlink:href="#ArialMT-6d" x="279.550781"/>
      <use xlink:href="#ArialMT-73" x="362.851562"/>
      <use xlink:href="#ArialMT-29" x="412.851562"/>
     </g>
    </g>
   </g>
   <g id="matplotlib.axis_2">
    <g id="ytick_1">
     <g id="line2d_24">
      <defs>
       <path id="mcddda47bfb" d="M 0 0 
L -6 0 
" style="stroke: #000000"/>
      </defs>
      <g>
       <use xlink:href="#mcddda47bfb" x="57.377031" y="116.483699" style="stroke: #000000"/>
      </g>
     </g>
     <g id="text_5">
      <!-- 0.0 -->
      <g transform="translate(26.747031 122.567839)scale(0.17 -0.17)">
       <defs>
        <path id="ArialMT-2e" d="M 581 0 
L 581 641 
L 1222 641 
L 1222 0 
L 581 0 
z
" transform="scale(0.015625)"/>
       </defs>
       <use xlink:href="#ArialMT-30"/>
       <use xlink:href="#ArialMT-2e" x="55.615234"/>
       <use xlink:href="#ArialMT-30" x="83.398438"/>
      </g>
     </g>
    </g>
    <g id="ytick_2">
     <g id="line2d_25">
      <g>
       <use xlink:href="#mcddda47bfb" x="57.377031" y="70.948824" style="stroke: #000000"/>
      </g>
     </g>
     <g id="text_6">
      <!-- 0.5 -->
      <g transform="translate(26.747031 77.032965)scale(0.17 -0.17)">
       <defs>
        <path id="ArialMT-35" d="M 266 1200 
L 856 1250 
Q 922 819 1161 601 
Q 1400 384 1738 384 
Q 2144 384 2425 690 
Q 2706 997 2706 1503 
Q 2706 1984 2436 2262 
Q 2166 2541 1728 2541 
Q 1456 2541 1237 2417 
Q 1019 2294 894 2097 
L 366 2166 
L 809 4519 
L 3088 4519 
L 3088 3981 
L 1259 3981 
L 1013 2750 
Q 1425 3038 1878 3038 
Q 2478 3038 2890 2622 
Q 3303 2206 3303 1553 
Q 3303 931 2941 478 
Q 2500 -78 1738 -78 
Q 1113 -78 717 272 
Q 322 622 266 1200 
z
" transform="scale(0.015625)"/>
       </defs>
       <use xlink:href="#ArialMT-30"/>
       <use xlink:href="#ArialMT-2e" x="55.615234"/>
       <use xlink:href="#ArialMT-35" x="83.398438"/>
      </g>
     </g>
    </g>
    <g id="ytick_3">
     <g id="line2d_26">
      <g>
       <use xlink:href="#mcddda47bfb" x="57.377031" y="25.41395" style="stroke: #000000"/>
      </g>
     </g>
     <g id="text_7">
      <!-- 1.0 -->
      <g transform="translate(26.747031 31.49809)scale(0.17 -0.17)">
       <use xlink:href="#ArialMT-31"/>
       <use xlink:href="#ArialMT-2e" x="55.615234"/>
       <use xlink:href="#ArialMT-30" x="83.398438"/>
      </g>
     </g>
    </g>
    <g id="text_8">
     <!-- DR-NED -->
     <g transform="translate(19.368281 94.896224)rotate(-90)scale(0.17 -0.17)">
      <defs>
       <path id="ArialMT-44" d="M 494 0 
L 494 4581 
L 2072 4581 
Q 2606 4581 2888 4516 
Q 3281 4425 3559 4188 
Q 3922 3881 4101 3404 
Q 4281 2928 4281 2316 
Q 4281 1794 4159 1391 
Q 4038 988 3847 723 
Q 3656 459 3429 307 
Q 3203 156 2883 78 
Q 2563 0 2147 0 
L 494 0 
z
M 1100 541 
L 2078 541 
Q 2531 541 2789 625 
Q 3047 709 3200 863 
Q 3416 1078 3536 1442 
Q 3656 1806 3656 2325 
Q 3656 3044 3420 3430 
Q 3184 3816 2847 3947 
Q 2603 4041 2063 4041 
L 1100 4041 
L 1100 541 
z
" transform="scale(0.015625)"/>
       <path id="ArialMT-52" d="M 503 0 
L 503 4581 
L 2534 4581 
Q 3147 4581 3465 4457 
Q 3784 4334 3975 4021 
Q 4166 3709 4166 3331 
Q 4166 2844 3850 2509 
Q 3534 2175 2875 2084 
Q 3116 1969 3241 1856 
Q 3506 1613 3744 1247 
L 4541 0 
L 3778 0 
L 3172 953 
Q 2906 1366 2734 1584 
Q 2563 1803 2427 1890 
Q 2291 1978 2150 2013 
Q 2047 2034 1813 2034 
L 1109 2034 
L 1109 0 
L 503 0 
z
M 1109 2559 
L 2413 2559 
Q 2828 2559 3062 2645 
Q 3297 2731 3419 2920 
Q 3541 3109 3541 3331 
Q 3541 3656 3305 3865 
Q 3069 4075 2559 4075 
L 1109 4075 
L 1109 2559 
z
" transform="scale(0.015625)"/>
       <path id="ArialMT-2d" d="M 203 1375 
L 203 1941 
L 1931 1941 
L 1931 1375 
L 203 1375 
z
" transform="scale(0.015625)"/>
       <path id="ArialMT-4e" d="M 488 0 
L 488 4581 
L 1109 4581 
L 3516 984 
L 3516 4581 
L 4097 4581 
L 4097 0 
L 3475 0 
L 1069 3600 
L 1069 0 
L 488 0 
z
" transform="scale(0.015625)"/>
       <path id="ArialMT-45" d="M 506 0 
L 506 4581 
L 3819 4581 
L 3819 4041 
L 1113 4041 
L 1113 2638 
L 3647 2638 
L 3647 2100 
L 1113 2100 
L 1113 541 
L 3925 541 
L 3925 0 
L 506 0 
z
" transform="scale(0.015625)"/>
      </defs>
      <use xlink:href="#ArialMT-44"/>
      <use xlink:href="#ArialMT-52" x="72.216797"/>
      <use xlink:href="#ArialMT-2d" x="144.433594"/>
      <use xlink:href="#ArialMT-4e" x="177.734375"/>
      <use xlink:href="#ArialMT-45" x="249.951172"/>
      <use xlink:href="#ArialMT-44" x="316.650391"/>
     </g>
    </g>
   </g>
   <g id="line2d_27">
    <path d="M 54.987518 92.37888 
L 64.071109 48.754098 
L 70.257712 69.035793 
L 74.954977 45.692708 
L 78.742631 30.768437 
L 81.91645 30.003096 
L 84.647924 37.656564 
L 87.045406 33.447157 
L 89.181745 38.421916 
L 91.108284 35.36052 
L 92.862572 25.41395 
L 94.472895 30.768437 
L 95.961104 29.23775 
L 97.34442 25.41395 
L 98.636658 25.41395 
L 99.849078 25.793684 
L 100.990968 25.41395 
L 102.070082 25.41395 
L 103.092968 28.089728 
L 104.065194 25.41395 
L 108.313361 25.41395 
L 109.062877 25.793684 
L 109.784833 25.41395 
L 114.20873 25.41395 
L 114.766578 27.707057 
L 115.309016 25.41395 
L 130.535783 25.41395 
L 130.78061 26.176365 
L 131.022423 25.41395 
L 138.521691 25.41395 
L 138.685044 27.707057 
L 138.847049 25.41395 
L 142.912945 25.41395 
L 143.04367 26.176365 
L 143.173531 28.472398 
L 143.30254 25.41395 
L 144.182614 25.41395 
L 144.426986 28.472398 
L 144.54804 32.299129 
L 144.668352 25.41395 
L 150.355921 25.41395 
L 150.445495 26.941706 
L 150.534664 26.559035 
L 150.711796 25.41395 
L 154.02984 25.41395 
L 154.104157 25.793684 
L 154.251957 25.41395 
L 156.344986 25.41395 
L 156.411052 26.176365 
L 156.542523 25.41395 
L 157.250281 25.41395 
L 157.313376 25.793684 
L 157.376267 28.855074 
L 157.501451 25.41395 
L 158.652502 25.41395 
L 158.711255 26.559035 
L 158.769832 25.41395 
L 158.828234 31.916459 
L 158.886464 28.089728 
L 159.002407 25.41395 
L 159.62814 25.41395 
L 159.684047 34.595179 
L 159.850823 25.41395 
L 160.07101 25.41395 
L 160.125674 26.559035 
L 160.180184 32.299129 
L 160.234545 31.533789 
L 160.396729 25.41395 
L 160.822782 25.41395 
L 160.875395 27.324376 
L 161.032391 77.071936 
L 161.188143 25.41395 
L 162.146875 25.41395 
L 162.196062 29.23775 
L 162.245124 25.41395 
L 162.488617 25.41395 
L 162.536954 26.559035 
L 162.585173 25.41395 
L 165.655211 25.41395 
L 165.655211 25.41395 
" clip-path="url(#p41e7d1205d)" style="fill: none; stroke: #ff0000; stroke-width: 1.5; stroke-linecap: square"/>
   </g>
   <g id="line2d_28">
    <path d="M 98.001169 116.483699 
L 98.001169 7.2 
" clip-path="url(#p41e7d1205d)" style="fill: none; stroke-dasharray: 10,3; stroke-dashoffset: 5; stroke: #000000"/>
   </g>
   <g id="patch_3">
    <path d="M 57.377031 116.483699 
L 57.377031 7.2 
" style="fill: none; stroke: #000000; stroke-linejoin: miter; stroke-linecap: square"/>
   </g>
   <g id="patch_4">
    <path d="M 165.790668 116.483699 
L 165.790668 7.2 
" style="fill: none; stroke: #000000; stroke-linejoin: miter; stroke-linecap: square"/>
   </g>
   <g id="patch_5">
    <path d="M 57.377031 116.483699 
L 165.790668 116.483699 
" style="fill: none; stroke: #000000; stroke-linejoin: miter; stroke-linecap: square"/>
   </g>
   <g id="patch_6">
    <path d="M 57.377031 7.2 
L 165.790668 7.2 
" style="fill: none; stroke: #000000; stroke-linejoin: miter; stroke-linecap: square"/>
   </g>
  </g>
 </g>
 <defs>
  <clipPath id="p41e7d1205d">
   <rect x="57.377031" y="7.2" width="108.413636" height="109.283699"/>
  </clipPath>
 </defs>
</svg>
