<?xml version="1.0" encoding="utf-8" standalone="no"?>
<!DOCTYPE svg PUBLIC "-//W3C//DTD SVG 1.1//EN"
  "http://www.w3.org/Graphics/SVG/1.1/DTD/svg11.dtd">
<svg xmlns:xlink="http://www.w3.org/1999/xlink" width="172.990668pt" height="170.547136pt" viewBox="0 0 172.990668 170.547136" xmlns="http://www.w3.org/2000/svg" version="1.1">
 <metadata>
  <rdf:RDF xmlns:dc="http://purl.org/dc/elements/1.1/" xmlns:cc="http://creativecommons.org/ns#" xmlns:rdf="http://www.w3.org/1999/02/22-rdf-syntax-ns#">
   <cc:Work>
    <dc:type rdf:resource="http://purl.org/dc/dcmitype/StillImage"/>
    <dc:date>2024-08-16T06:10:01.297121</dc:date>
    <dc:format>image/svg+xml</dc:format>
    <dc:creator>
     <cc:Agent>
      <dc:title>Matplotlib v3.5.3, https://matplotlib.org/</dc:title>
     </cc:Agent>
    </dc:creator>
   </cc:Work>
  </rdf:RDF>
 </metadata>
 <defs>
  <style type="text/css">*{stroke-linejoin: round; stroke-linecap: butt}</style>
 </defs>
 <g id="figure_1">
  <g id="patch_1">
   <path d="M 0 170.547136 
L 172.990668 170.547136 
L 172.990668 0 
L 0 0 
z
" style="fill: #ffffff"/>
  </g>
  <g id="axes_1">
   <g id="patch_2">
    <path d="M 57.377031 116.483699 
L 165.790668 116.483699 
L 165.790668 7.2 
L 57.377031 7.2 
z
" style="fill: #ffffff"/>
   </g>
   <g id="line2d_1">
    <path d="M 57.336083 71.010763 
L 57.499368 71.541101 
L 57.539979 71.418153 
L 57.86187 70.200582 
L 57.901737 70.45391 
L 58.2178 71.799056 
L 58.451552 70.661147 
L 58.528854 71.748536 
L 58.567393 71.089585 
L 58.720791 69.420086 
L 58.91087 71.40389 
L 58.98639 70.715103 
L 59.02404 71.245363 
L 59.061619 71.586988 
L 59.136562 71.258366 
L 59.211219 71.668536 
L 59.359689 70.525578 
L 59.470309 71.603091 
L 59.507043 71.563351 
L 59.580309 69.917682 
L 59.653302 70.476969 
L 59.834603 71.364327 
L 59.906659 71.886586 
L 60.014248 70.178815 
L 60.085647 70.416456 
L 60.227673 72.153587 
L 60.263019 71.195584 
L 60.298303 70.136041 
L 60.333523 70.87999 
L 60.368679 71.621183 
L 60.473772 71.608394 
L 60.50868 71.546833 
L 60.613029 69.990772 
L 60.647689 70.553034 
L 60.751303 70.488987 
L 60.820076 71.690569 
L 60.888612 70.20626 
L 60.990967 70.407559 
L 61.126614 71.733042 
L 61.16038 71.444786 
L 61.227739 71.45463 
L 61.361766 70.407146 
L 61.395129 70.426818 
L 61.561107 72.163846 
L 61.692887 69.815496 
L 61.725692 70.279085 
L 61.856375 70.885374 
L 61.953819 70.877742 
L 61.986193 70.401414 
L 62.018515 70.740181 
L 62.147269 71.364069 
L 62.179325 71.457285 
L 62.243283 70.9513 
L 62.307032 71.257427 
L 62.338831 71.161248 
L 62.402271 70.463404 
L 62.465508 70.522777 
L 62.622714 71.36037 
L 62.747579 70.512198 
L 62.778672 70.597583 
L 62.840709 70.598202 
L 62.902552 72.046619 
L 62.9642 71.209013 
L 63.056311 70.608043 
L 63.086919 70.749833 
L 63.208876 71.848798 
L 63.239248 71.452513 
L 63.299848 70.690492 
L 63.360264 71.057543 
L 63.390402 70.83461 
L 63.420495 70.922085 
L 63.480539 71.554986 
L 63.510495 71.038639 
L 63.570265 70.075479 
L 63.600083 70.899493 
L 63.629856 71.130823 
L 63.659584 70.693944 
L 63.689265 70.488547 
L 63.718903 70.78079 
L 63.748497 70.989137 
L 63.807549 70.650253 
L 63.837008 70.549093 
L 63.866425 70.678023 
L 63.925124 70.965956 
L 63.954408 70.804815 
L 63.983648 70.431427 
L 64.012845 70.68166 
L 64.071109 71.289983 
L 64.100176 71.103891 
L 64.158183 69.914192 
L 64.216018 70.854141 
L 64.302451 71.947273 
L 64.331179 71.729926 
L 64.445668 70.344695 
L 64.474188 70.637735 
L 64.5311 71.575649 
L 64.587849 71.023432 
L 64.616161 70.903097 
L 64.644434 71.041975 
L 64.700855 71.360115 
L 64.729007 71.04958 
L 64.785186 70.365637 
L 64.869157 70.68445 
L 64.897066 70.417731 
L 64.924938 70.681839 
L 65.063702 71.14251 
L 65.091337 71.349025 
L 65.118933 71.074951 
L 65.17401 70.477837 
L 65.20149 71.229022 
L 65.228934 72.069317 
L 65.283703 71.284161 
L 65.311031 71.088907 
L 65.365572 71.382799 
L 65.392787 71.358163 
L 65.555283 70.351459 
L 65.689677 71.397339 
L 65.796535 70.309808 
L 65.823159 70.660154 
L 65.955739 71.771929 
L 65.982147 71.463077 
L 66.034859 70.469114 
L 66.087429 71.155204 
L 66.11366 71.269288 
L 66.139858 71.058775 
L 66.21824 70.328937 
L 66.2443 70.5649 
L 66.296313 71.927389 
L 66.348188 71.330721 
L 66.451532 70.457389 
L 66.528682 70.53714 
L 66.554332 70.450507 
L 66.579949 70.692321 
L 66.605531 70.911457 
L 66.631079 70.371597 
L 66.656597 70.230443 
L 66.682081 70.548681 
L 66.758333 71.456096 
L 66.783684 71.037681 
L 66.834291 70.376548 
L 66.884768 70.847426 
L 66.909955 71.338508 
L 66.960236 70.663818 
L 66.98533 70.608857 
L 67.060416 70.414919 
L 67.110315 70.981231 
L 67.135215 70.982246 
L 67.184923 70.718414 
L 67.234508 70.787613 
L 67.456096 71.983815 
L 67.529407 70.349629 
L 67.602444 70.799104 
L 67.675209 72.736365 
L 67.723573 71.641816 
L 67.819939 70.554885 
L 67.867948 71.30244 
L 67.891908 71.66666 
L 67.96361 71.064716 
L 68.035056 70.185595 
L 68.058811 70.650464 
L 68.129909 72.225942 
L 68.153552 72.024462 
L 68.224309 69.160831 
L 68.247839 70.807713 
L 68.294812 75.108561 
L 68.341672 68.137467 
L 68.388424 66.564896 
L 68.435062 68.960439 
L 68.48159 72.365351 
L 68.551176 71.763334 
L 68.597432 71.571841 
L 68.643577 71.249746 
L 68.781366 68.296605 
L 68.804236 68.681875 
L 68.963594 72.520798 
L 68.986255 71.601471 
L 69.008889 71.09094 
L 69.054079 71.372385 
L 69.121669 75.022565 
L 69.166599 73.012931 
L 69.211429 68.713467 
L 69.278479 71.517483 
L 69.345305 72.142763 
L 69.367529 71.455284 
L 69.500346 70.291255 
L 69.522396 70.162949 
L 69.56642 71.929105 
L 69.632272 70.830658 
L 69.654175 70.498671 
L 69.676053 70.866772 
L 69.763318 73.496807 
L 69.806808 72.960663 
L 69.893495 69.703562 
L 69.915108 70.366495 
L 69.979803 73.875479 
L 70.044286 71.913358 
L 70.215211 66.457532 
L 70.236473 66.526198 
L 70.321288 67.697925 
L 70.468842 72.41775 
L 70.510798 71.997429 
L 70.573563 73.216248 
L 70.636126 72.53699 
L 70.822635 70.357587 
L 70.904961 72.632898 
L 70.986945 71.230696 
L 71.007388 71.186486 
L 71.027808 71.342061 
L 71.048208 71.382767 
L 71.068586 71.285146 
L 71.129598 70.477713 
L 71.149893 70.876738 
L 71.251051 73.242838 
L 71.291369 72.467379 
L 71.511651 69.663469 
L 71.591145 67.581529 
L 71.729488 68.08173 
L 71.8473 72.896504 
L 71.905941 71.953274 
L 71.925448 71.151795 
L 71.964408 73.044552 
L 71.983858 73.408919 
L 72.003288 71.892798 
L 72.080821 69.650078 
L 72.100157 70.816208 
L 72.158047 73.255453 
L 72.196548 71.90442 
L 72.234972 68.709022 
L 72.292468 71.88081 
L 72.311597 74.353088 
L 72.349796 68.647455 
L 72.368869 66.453363 
L 72.425974 71.595424 
L 72.444973 71.933233 
L 72.463953 71.352035 
L 72.50186 71.58156 
L 72.520784 71.127015 
L 72.53969 73.242426 
L 72.558579 75.699817 
L 72.615139 72.641013 
L 72.746476 67.833662 
L 72.765167 67.961035 
L 72.783841 68.052896 
L 72.951105 76.218301 
L 72.988083 74.032164 
L 73.080222 68.786661 
L 73.116957 71.127015 
L 73.263215 73.344223 
L 73.444517 68.448132 
L 73.480579 68.385535 
L 73.498583 68.56251 
L 73.534546 71.037985 
L 73.588363 68.533577 
L 73.624162 65.788563 
L 73.659895 69.681958 
L 73.677736 72.203516 
L 73.748942 69.08945 
L 73.766704 69.569323 
L 73.908217 75.017883 
L 74.048718 69.59996 
L 74.066209 70.252682 
L 74.240279 75.016868 
L 74.27491 73.247816 
L 74.361217 69.477554 
L 74.395635 71.868195 
L 74.42999 74.44049 
L 74.515621 73.914904 
L 74.702703 64.610322 
L 74.753419 67.868343 
L 74.787154 73.394309 
L 74.837652 63.516419 
L 74.854456 62.024766 
L 74.888018 65.681552 
L 75.005043 76.95751 
L 75.021705 76.246655 
L 75.104799 65.010347 
L 75.154485 67.890267 
L 75.187542 75.291805 
L 75.220541 92.790681 
L 75.269937 69.814671 
L 75.3028 63.931132 
L 75.335605 72.525618 
L 75.368358 80.412406 
L 75.417385 66.00144 
L 75.4337 62.631447 
L 75.466289 70.490154 
L 75.498823 80.54719 
L 75.547527 64.195088 
L 75.563733 60.784552 
L 75.612274 67.391944 
L 75.644569 86.359156 
L 75.708998 72.440355 
L 75.741134 48.665434 
L 75.789239 77.044464 
L 75.821243 63.074696 
L 75.837226 59.878594 
L 75.869154 65.756244 
L 75.932851 87.234654 
L 75.980491 70.187327 
L 76.059632 70.735795 
L 76.106964 56.379926 
L 76.122716 55.286625 
L 76.138455 60.288362 
L 76.185598 99.546873 
L 76.248279 68.068426 
L 76.310763 46.44742 
L 76.326351 58.867053 
L 76.373045 89.073973 
L 76.435133 71.492191 
L 76.481569 59.988417 
L 76.527897 68.389356 
L 76.696833 88.432382 
L 76.71212 89.846053 
L 76.727394 83.111191 
L 76.773144 63.52277 
L 76.833981 76.747467 
L 76.86433 72.428446 
L 76.924884 50.620914 
L 76.985252 59.69162 
L 77.000315 58.845329 
L 77.030408 62.446769 
L 77.120408 84.343559 
L 77.195094 76.960821 
L 77.328817 59.602571 
L 77.37319 63.485424 
L 77.50571 85.393559 
L 77.549685 75.293434 
L 77.593562 66.773989 
L 77.666474 71.619357 
L 77.681023 73.353049 
L 77.724608 70.129294 
L 77.768096 56.841006 
L 77.811488 70.955563 
L 77.854785 77.573544 
L 77.912365 72.430145 
L 78.012726 66.18241 
L 78.041308 68.154647 
L 78.098344 76.859852 
L 78.126801 66.74769 
L 78.141013 64.853125 
L 78.155216 74.852554 
L 78.169409 80.479835 
L 78.211923 68.349991 
L 78.254348 78.508884 
L 78.32485 63.365521 
L 78.33892 75.774124 
L 78.36703 100.820509 
L 78.42313 43.856387 
L 78.4651 64.586406 
L 78.52092 82.599273 
L 78.562683 66.191339 
L 78.632089 54.412775 
L 78.659783 69.29533 
L 78.70125 80.684518 
L 78.715054 88.961583 
L 78.756405 60.048268 
L 78.811404 83.694148 
L 78.838847 71.842607 
L 78.920945 84.392054 
L 78.948234 79.247442 
L 79.0027 58.413718 
L 79.070571 68.179579 
L 79.097653 75.838447 
L 79.165196 68.424845 
L 79.219066 61.058306 
L 79.259369 68.425459 
L 79.286194 74.215004 
L 79.339731 62.31595 
L 79.353093 58.534321 
L 79.419766 69.936816 
L 79.565652 83.7118 
L 79.57886 80.610472 
L 79.697343 61.702039 
L 79.736677 65.449986 
L 79.789003 82.062757 
L 79.828154 70.064693 
L 79.854213 58.444887 
L 79.919208 73.894182 
L 79.945146 78.117702 
L 79.983988 69.058428 
L 80.009841 70.077998 
L 80.022756 69.259162 
L 80.061446 72.176597 
L 80.087196 80.028992 
L 80.138596 65.600629 
L 80.151426 61.873336 
L 80.177057 70.535973 
L 80.228223 69.256112 
L 80.240993 70.50842 
L 80.291995 67.282431 
L 80.317446 68.723661 
L 80.368247 62.322317 
L 80.393597 65.256732 
L 80.444204 82.787183 
L 80.519869 75.438423 
L 80.532453 75.526957 
L 80.682817 65.779758 
L 80.695295 65.923475 
L 80.707765 65.907907 
L 80.745129 68.648258 
L 80.782422 77.189918 
L 80.869167 74.157432 
L 80.881527 73.085258 
L 80.906224 76.925308 
L 80.943213 74.761535 
L 80.955528 76.549686 
L 80.992425 68.039977 
L 81.004707 66.500349 
L 81.041511 74.174566 
L 81.053766 73.843912 
L 81.175873 60.780942 
L 81.200205 66.15509 
L 81.273015 75.07407 
L 81.321408 72.226257 
L 81.357623 69.468636 
L 81.393773 74.239897 
L 81.417834 71.905753 
L 81.429853 73.315405 
L 81.441867 78.077572 
L 81.489844 64.025669 
L 81.537707 75.621548 
L 81.585451 66.301466 
L 81.609278 72.590656 
L 81.716154 85.067548 
L 81.727992 79.925091 
L 81.763466 63.866824 
L 81.845992 68.79641 
L 81.857752 69.558923 
L 81.869506 63.848705 
L 81.881254 60.171433 
L 81.904725 70.224694 
L 81.928169 107.083296 
L 81.963285 40.852465 
L 82.010007 66.243955 
L 82.056619 82.361706 
L 82.103117 69.449257 
L 82.16109 58.227667 
L 82.218891 64.69118 
L 82.25349 109.375687 
L 82.333987 75.69789 
L 82.41415 78.4045 
L 82.368384 67.876366 
L 82.425577 74.469444 
L 82.459814 58.319805 
L 82.52811 71.746303 
L 82.573508 81.857979 
L 82.64141 73.161749 
L 82.787731 58.774871 
L 82.810146 62.149028 
L 82.944095 81.217622 
L 83.032892 67.351455 
L 83.165337 69.826825 
L 83.187324 74.889062 
L 83.264088 68.256974 
L 83.329648 60.957043 
L 83.340552 65.934044 
L 83.373232 79.793984 
L 83.460113 72.611628 
L 83.470945 73.412428 
L 83.514217 69.985453 
L 83.589717 75.495422 
L 83.632728 65.124648 
L 83.686362 80.484687 
L 83.729164 64.449995 
L 83.739849 64.639732 
L 83.782533 55.420137 
L 83.80384 65.939591 
L 83.952349 88.525404 
L 83.962916 88.949551 
L 83.973474 85.434341 
L 84.057745 57.831844 
L 84.099745 73.149265 
L 84.11023 73.928947 
L 84.141654 70.122091 
L 84.235627 66.441128 
L 84.204352 71.714675 
L 84.24604 69.156825 
L 84.256449 71.73622 
L 84.339517 66.794117 
L 84.349875 66.877076 
L 84.370575 64.251845 
L 84.391254 72.975427 
L 84.401587 77.585909 
L 84.432549 70.444047 
L 84.494325 71.692306 
L 84.504603 71.423516 
L 84.617302 58.391685 
L 84.545659 81.587995 
L 84.627514 62.141472 
L 84.6785 79.294716 
L 84.749661 73.908417 
L 84.790207 73.455466 
L 84.769945 74.140559 
L 84.80033 73.816855 
L 84.840774 79.286685 
L 84.881135 73.245001 
L 84.921409 60.470059 
L 85.031749 66.831295 
L 85.101642 73.965047 
L 85.121564 66.273305 
L 85.161353 73.042555 
L 85.171286 72.987518 
L 85.19114 67.372148 
L 85.220881 76.086583 
L 85.270352 75.270155 
L 85.280233 75.236593 
L 85.339402 68.051137 
L 85.368921 76.044808 
L 85.408212 72.364035 
L 85.437627 77.521751 
L 85.476779 61.282479 
L 85.506092 66.757189 
L 85.535362 78.558715 
L 85.603488 64.475948 
L 85.613202 66.31932 
L 85.700404 78.975279 
L 85.729385 70.253257 
L 85.76796 64.921737 
L 85.816074 74.607011 
L 85.902382 65.198243 
L 85.911947 63.426778 
L 85.950167 76.644568 
L 86.007355 65.616745 
L 86.111774 74.082534 
L 86.130698 70.78701 
L 86.140153 68.914332 
L 86.187364 80.42625 
L 86.196792 81.911286 
L 86.234462 73.410298 
L 86.25327 66.422455 
L 86.347038 67.584623 
L 86.412409 71.534935 
L 86.431046 66.492864 
L 86.440359 64.571788 
L 86.477564 71.327196 
L 86.523972 69.887479 
L 86.579516 78.968483 
L 86.644121 73.264554 
L 86.662539 69.95861 
L 86.68094 64.919832 
L 86.717694 76.071441 
L 86.763538 73.568988 
L 86.800136 68.379667 
L 86.818408 69.737396 
L 86.845789 59.456488 
L 86.918611 73.839157 
L 86.94585 74.485539 
L 86.954922 72.895519 
L 87.07247 63.17224 
L 87.090492 89.380945 
L 87.189318 73.605908 
L 87.216184 76.623905 
L 87.260881 66.716358 
L 87.269809 64.069648 
L 87.341078 75.356536 
L 87.358856 79.779504 
L 87.41209 70.905594 
L 87.438653 72.695165 
L 87.54455 64.459218 
L 87.509316 73.159809 
L 87.562144 67.318208 
L 87.570937 67.391439 
L 87.579723 67.211951 
L 87.6936 81.132798 
L 87.676122 64.889494 
L 87.702333 77.570601 
L 87.728507 49.576131 
L 87.806819 81.787554 
L 87.841526 61.84924 
L 87.902114 83.264749 
L 87.936654 92.487012 
L 87.979742 71.697199 
L 88.10844 61.971342 
L 88.116989 59.758989 
L 88.151151 69.376373 
L 88.176734 68.751047 
L 88.210794 84.670894 
L 88.244793 57.109668 
L 88.278734 65.689846 
L 88.397067 74.205434 
L 88.363332 63.130307 
L 88.405493 69.873469 
L 88.413915 68.581405 
L 88.430747 79.29242 
L 88.455969 88.000388 
L 88.514693 72.79259 
L 88.53144 78.856741 
L 88.573243 56.476716 
L 88.598283 90.983113 
L 88.664897 67.888286 
L 88.689822 72.284233 
L 88.731288 63.715389 
L 88.756127 48.788822 
L 88.80571 79.760394 
L 88.838696 64.291818 
L 88.92092 76.244199 
L 88.953713 67.270299 
L 88.961902 66.999009 
L 88.986451 69.045732 
L 89.043614 85.972349 
L 89.108737 74.735417 
L 89.20602 59.498833 
L 89.254483 62.263535 
L 89.262548 60.430488 
L 89.302824 74.675159 
L 89.343019 78.511707 
L 89.359074 72.244648 
L 89.383131 62.031839 
L 89.407158 75.904435 
L 89.471092 67.252261 
L 89.479068 67.112029 
L 89.598333 75.525991 
L 89.622098 75.052173 
L 89.630015 75.65478 
L 89.645835 70.797812 
L 89.653743 67.990244 
L 89.701113 73.586442 
L 89.748369 71.979937 
L 89.756234 72.042907 
L 89.77981 58.860257 
L 89.803359 77.292038 
L 89.866014 72.150015 
L 89.873832 72.733645 
L 89.889459 66.166945 
L 89.920676 62.68036 
L 89.967406 75.578155 
L 90.014027 77.010449 
L 90.045046 73.508219 
L 90.14552 64.981669 
L 90.176332 65.903809 
L 90.283795 80.18931 
L 90.260817 65.417199 
L 90.291448 72.686238 
L 90.329671 76.551645 
L 90.413501 61.251804 
L 90.527239 77.482706 
L 90.542353 73.247954 
L 90.557458 66.425196 
L 90.595165 77.150257 
L 90.655351 69.03164 
L 90.752758 73.749999 
L 90.71535 67.930268 
L 90.797551 72.582536 
L 90.879412 63.477749 
L 90.834802 72.976241 
L 90.901676 71.616083 
L 90.923917 76.454844 
L 90.99049 67.97708 
L 91.005252 65.639348 
L 91.042112 74.044906 
L 91.078903 73.168372 
L 91.115623 64.100334 
L 91.144951 77.64681 
L 91.18155 70.207883 
L 91.203476 78.857069 
L 91.247255 68.382983 
L 91.290937 70.136139 
L 91.312741 74.741266 
L 91.363524 67.596435 
L 91.414176 73.729931 
L 91.486311 67.3183 
L 91.543829 69.501802 
L 91.629789 75.372788 
L 91.651222 70.399368 
L 91.68689 66.00544 
L 91.722492 73.362234 
L 91.772228 67.08358 
L 91.821837 77.632309 
L 91.941799 74.001242 
L 92.05404 63.581916 
L 92.033044 75.498052 
L 92.068026 67.324808 
L 92.186497 79.873594 
L 92.158686 59.553864 
L 92.193443 79.05782 
L 92.311164 63.393037 
L 92.324967 72.196462 
L 92.345654 79.746219 
L 92.428183 71.225995 
L 92.435044 71.212468 
L 92.489851 78.451573 
L 92.462468 69.038447 
L 92.510366 69.746444 
L 92.544508 61.012769 
L 92.564965 69.880938 
L 92.619411 69.718516 
L 92.707567 78.301614 
L 92.734613 71.182792 
L 92.842423 63.21148 
L 92.768366 74.563789 
L 92.855857 65.68311 
L 92.969683 79.144448 
L 92.983032 75.705956 
L 93.102758 65.413259 
L 93.122641 67.200742 
L 93.228347 74.377781 
L 93.168957 64.627084 
L 93.261265 68.874163 
L 93.280988 67.460361 
L 93.313818 71.975008 
L 93.326933 78.938945 
L 93.379312 69.872932 
L 93.425026 74.937565 
L 93.431548 75.761546 
L 93.477145 68.522623 
L 93.503148 72.12307 
L 93.51614 68.118034 
L 93.606834 73.115271 
L 93.613295 74.403389 
L 93.684237 67.276205 
L 93.735673 63.336393 
L 93.7164 72.492675 
L 93.780566 70.409046 
L 93.818965 68.588798 
L 93.920999 77.169329 
L 94.028831 66.972509 
L 93.965473 77.417584 
L 94.054118 69.922133 
L 94.066748 73.596992 
L 94.091987 64.808847 
L 94.148653 65.964441 
L 94.317678 75.133186 
L 94.355043 71.58749 
L 94.454336 68.194886 
L 94.379911 73.457037 
L 94.472895 68.250731 
L 94.528474 57.565853 
L 94.503793 83.636213 
L 94.553126 78.045879 
L 94.565442 81.470787 
L 94.614621 61.489102 
L 94.657553 77.498673 
L 94.694277 68.791318 
L 94.712611 59.491912 
L 94.773609 74.425267 
L 94.804036 65.609905 
L 94.913188 85.541124 
L 94.925278 79.646527 
L 95.033759 61.396997 
L 94.967537 80.843181 
L 95.045777 61.805837 
L 95.213239 78.228337 
L 95.075785 60.139 
L 95.219192 74.721974 
L 95.231097 69.644932 
L 95.314222 76.055271 
L 95.337906 69.831689 
L 95.444136 64.177995 
L 95.367471 72.564454 
L 95.467666 66.477046 
L 95.549796 74.283027 
L 95.584889 71.59122 
L 95.596573 68.060528 
L 95.625752 76.685203 
L 95.695608 71.428599 
L 95.701417 71.16875 
L 95.718839 75.053074 
L 95.730443 74.189518 
L 95.736241 75.211846 
L 95.75363 59.117058 
L 95.759423 58.86207 
L 95.765213 61.376679 
L 95.794145 75.884845 
L 95.886435 72.760843 
L 95.9439 69.298223 
L 95.915189 75.290535 
L 95.989749 72.526799 
L 96.001194 73.723452 
L 96.069728 68.595263 
L 96.081126 69.93357 
L 96.09252 69.780463 
L 96.098212 70.392061 
L 96.15506 71.135263 
L 96.115286 68.588918 
L 96.166409 69.547746 
L 96.240023 66.139506 
L 96.211744 77.03249 
L 96.245673 69.073594 
L 96.256972 76.974555 
L 96.330246 66.174512 
L 96.358357 72.520557 
L 96.459222 68.549618 
L 96.408855 72.894933 
L 96.481567 68.906493 
L 96.509461 77.976572 
L 96.570689 64.521593 
L 96.592907 69.205249 
L 96.604006 68.585769 
L 96.637267 71.774334 
L 96.692577 70.375663 
L 96.714656 75.226013 
L 96.791744 68.95684 
L 96.802733 65.876782 
L 96.884945 75.602626 
L 96.901344 70.157542 
L 97.015771 62.206301 
L 96.945015 78.524658 
L 97.021204 63.880574 
L 97.145732 79.210124 
L 97.151129 78.774344 
L 97.248013 64.350464 
L 97.317688 71.038042 
L 97.392447 75.783455 
L 97.4244 73.137524 
L 97.482844 66.41402 
L 97.530534 74.811186 
L 97.583388 77.823039 
L 97.593941 69.403302 
L 97.620299 65.4058 
L 97.657146 77.607413 
L 97.709658 66.258367 
L 97.720144 65.339707 
L 97.741099 72.56969 
L 97.814266 75.956147 
L 97.767261 72.261011 
L 97.850748 72.967204 
L 97.93388 63.952345 
L 97.94943 74.054682 
L 97.975316 67.267606 
L 97.996002 74.993991 
L 97.996002 74.993991 
" clip-path="url(#p06330a9e50)" style="fill: none; stroke: #c0c0c0; stroke-linecap: square"/>
   </g>
   <g id="line2d_2">
    <path d="M 98.001168 70.931346 
L 98.026988 70.859097 
L 98.093958 71.02341 
L 98.099099 70.987967 
L 98.216997 71.245111 
L 98.227215 71.240687 
L 98.455736 70.699872 
L 98.491049 70.736338 
L 98.601611 71.044805 
L 98.691611 71.158138 
L 98.736456 71.099158 
L 98.914822 70.767431 
L 98.973919 70.846433 
L 99.135524 71.106738 
L 99.184235 71.055632 
L 99.363417 70.814173 
L 99.411566 70.869611 
L 99.579163 71.068179 
L 99.626785 71.019678 
L 99.801993 70.847746 
L 99.839671 70.885076 
L 100.022323 71.033401 
L 100.05958 70.995558 
L 100.240207 70.87898 
L 100.267849 70.905486 
L 100.460261 71.001931 
L 100.478488 70.984764 
L 100.691396 70.922807 
L 100.897563 70.971148 
L 101.105999 70.932507 
L 101.312247 70.961127 
L 101.512028 70.944976 
L 101.816452 70.931405 
L 110.21392 70.948824 
L 165.790505 70.948824 
L 165.790505 70.948824 
" clip-path="url(#p06330a9e50)" style="fill: none; stroke: #808080; stroke-linecap: square"/>
   </g>
   <g id="line2d_3">
    <path d="M 57.377031 25.41395 
L 165.790668 25.41395 
" clip-path="url(#p06330a9e50)" style="fill: none; stroke-dasharray: 6.4,1.6,1,1.6; stroke-dashoffset: 0; stroke: #808080"/>
   </g>
   <g id="matplotlib.axis_1">
    <g id="xtick_1">
     <g id="line2d_4">
      <defs>
       <path id="mca07691ac9" d="M 0 0 
L 0 6 
" style="stroke: #000000"/>
      </defs>
      <g>
       <use xlink:href="#mca07691ac9" x="57.377031" y="116.483699" style="stroke: #000000"/>
      </g>
     </g>
     <g id="text_1">
      <!-- $\mathdefault{10^{1}}$ -->
      <g transform="translate(44.032031 140.014949)scale(0.17 -0.17)">
       <defs>
        <path id="ArialMT-31" d="M 2384 0 
L 1822 0 
L 1822 3584 
Q 1619 3391 1289 3197 
Q 959 3003 697 2906 
L 697 3450 
Q 1169 3672 1522 3987 
Q 1875 4303 2022 4600 
L 2384 4600 
L 2384 0 
z
" transform="scale(0.015625)"/>
        <path id="ArialMT-30" d="M 266 2259 
Q 266 3072 433 3567 
Q 600 4063 929 4331 
Q 1259 4600 1759 4600 
Q 2128 4600 2406 4451 
Q 2684 4303 2865 4023 
Q 3047 3744 3150 3342 
Q 3253 2941 3253 2259 
Q 3253 1453 3087 958 
Q 2922 463 2592 192 
Q 2263 -78 1759 -78 
Q 1097 -78 719 397 
Q 266 969 266 2259 
z
M 844 2259 
Q 844 1131 1108 757 
Q 1372 384 1759 384 
Q 2147 384 2411 759 
Q 2675 1134 2675 2259 
Q 2675 3391 2411 3762 
Q 2147 4134 1753 4134 
Q 1366 4134 1134 3806 
Q 844 3388 844 2259 
z
" transform="scale(0.015625)"/>
       </defs>
       <use xlink:href="#ArialMT-31" transform="translate(0 0.99375)"/>
       <use xlink:href="#ArialMT-30" transform="translate(55.615234 0.99375)"/>
       <use xlink:href="#ArialMT-31" transform="translate(112.972813 70.6875)scale(0.7)"/>
      </g>
     </g>
    </g>
    <g id="xtick_2">
     <g id="line2d_5">
      <g>
       <use xlink:href="#mca07691ac9" x="102.588186" y="116.483699" style="stroke: #000000"/>
      </g>
     </g>
     <g id="text_2">
      <!-- $\mathdefault{10^{2}}$ -->
      <g transform="translate(89.243186 140.014949)scale(0.17 -0.17)">
       <defs>
        <path id="ArialMT-32" d="M 3222 541 
L 3222 0 
L 194 0 
Q 188 203 259 391 
Q 375 700 629 1000 
Q 884 1300 1366 1694 
Q 2113 2306 2375 2664 
Q 2638 3022 2638 3341 
Q 2638 3675 2398 3904 
Q 2159 4134 1775 4134 
Q 1369 4134 1125 3890 
Q 881 3647 878 3216 
L 300 3275 
Q 359 3922 746 4261 
Q 1134 4600 1788 4600 
Q 2447 4600 2831 4234 
Q 3216 3869 3216 3328 
Q 3216 3053 3103 2787 
Q 2991 2522 2730 2228 
Q 2469 1934 1863 1422 
Q 1356 997 1212 845 
Q 1069 694 975 541 
L 3222 541 
z
" transform="scale(0.015625)"/>
       </defs>
       <use xlink:href="#ArialMT-31" transform="translate(0 0.99375)"/>
       <use xlink:href="#ArialMT-30" transform="translate(55.615234 0.99375)"/>
       <use xlink:href="#ArialMT-32" transform="translate(112.972813 70.6875)scale(0.7)"/>
      </g>
     </g>
    </g>
    <g id="xtick_3">
     <g id="line2d_6">
      <g>
       <use xlink:href="#mca07691ac9" x="147.79934" y="116.483699" style="stroke: #000000"/>
      </g>
     </g>
     <g id="text_3">
      <!-- $\mathdefault{10^{3}}$ -->
      <g transform="translate(134.45434 140.014949)scale(0.17 -0.17)">
       <defs>
        <path id="ArialMT-33" d="M 269 1209 
L 831 1284 
Q 928 806 1161 595 
Q 1394 384 1728 384 
Q 2125 384 2398 659 
Q 2672 934 2672 1341 
Q 2672 1728 2419 1979 
Q 2166 2231 1775 2231 
Q 1616 2231 1378 2169 
L 1441 2663 
Q 1497 2656 1531 2656 
Q 1891 2656 2178 2843 
Q 2466 3031 2466 3422 
Q 2466 3731 2256 3934 
Q 2047 4138 1716 4138 
Q 1388 4138 1169 3931 
Q 950 3725 888 3313 
L 325 3413 
Q 428 3978 793 4289 
Q 1159 4600 1703 4600 
Q 2078 4600 2393 4439 
Q 2709 4278 2876 4000 
Q 3044 3722 3044 3409 
Q 3044 3113 2884 2869 
Q 2725 2625 2413 2481 
Q 2819 2388 3044 2092 
Q 3269 1797 3269 1353 
Q 3269 753 2831 336 
Q 2394 -81 1725 -81 
Q 1122 -81 723 278 
Q 325 638 269 1209 
z
" transform="scale(0.015625)"/>
       </defs>
       <use xlink:href="#ArialMT-31" transform="translate(0 0.99375)"/>
       <use xlink:href="#ArialMT-30" transform="translate(55.615234 0.99375)"/>
       <use xlink:href="#ArialMT-33" transform="translate(112.972813 70.6875)scale(0.7)"/>
      </g>
     </g>
    </g>
    <g id="xtick_4">
     <g id="line2d_7">
      <defs>
       <path id="m84209a122e" d="M 0 0 
L 0 3 
" style="stroke: #000000"/>
      </defs>
      <g>
       <use xlink:href="#m84209a122e" x="70.986945" y="116.483699" style="stroke: #000000"/>
      </g>
     </g>
    </g>
    <g id="xtick_5">
     <g id="line2d_8">
      <g>
       <use xlink:href="#m84209a122e" x="78.948234" y="116.483699" style="stroke: #000000"/>
      </g>
     </g>
    </g>
    <g id="xtick_6">
     <g id="line2d_9">
      <g>
       <use xlink:href="#m84209a122e" x="84.596859" y="116.483699" style="stroke: #000000"/>
      </g>
     </g>
    </g>
    <g id="xtick_7">
     <g id="line2d_10">
      <g>
       <use xlink:href="#m84209a122e" x="88.978272" y="116.483699" style="stroke: #000000"/>
      </g>
     </g>
    </g>
    <g id="xtick_8">
     <g id="line2d_11">
      <g>
       <use xlink:href="#m84209a122e" x="92.558148" y="116.483699" style="stroke: #000000"/>
      </g>
     </g>
    </g>
    <g id="xtick_9">
     <g id="line2d_12">
      <g>
       <use xlink:href="#m84209a122e" x="95.584889" y="116.483699" style="stroke: #000000"/>
      </g>
     </g>
    </g>
    <g id="xtick_10">
     <g id="line2d_13">
      <g>
       <use xlink:href="#m84209a122e" x="98.206772" y="116.483699" style="stroke: #000000"/>
      </g>
     </g>
    </g>
    <g id="xtick_11">
     <g id="line2d_14">
      <g>
       <use xlink:href="#m84209a122e" x="100.519437" y="116.483699" style="stroke: #000000"/>
      </g>
     </g>
    </g>
    <g id="xtick_12">
     <g id="line2d_15">
      <g>
       <use xlink:href="#m84209a122e" x="116.198099" y="116.483699" style="stroke: #000000"/>
      </g>
     </g>
    </g>
    <g id="xtick_13">
     <g id="line2d_16">
      <g>
       <use xlink:href="#m84209a122e" x="124.159389" y="116.483699" style="stroke: #000000"/>
      </g>
     </g>
    </g>
    <g id="xtick_14">
     <g id="line2d_17">
      <g>
       <use xlink:href="#m84209a122e" x="129.808013" y="116.483699" style="stroke: #000000"/>
      </g>
     </g>
    </g>
    <g id="xtick_15">
     <g id="line2d_18">
      <g>
       <use xlink:href="#m84209a122e" x="134.189427" y="116.483699" style="stroke: #000000"/>
      </g>
     </g>
    </g>
    <g id="xtick_16">
     <g id="line2d_19">
      <g>
       <use xlink:href="#m84209a122e" x="137.769302" y="116.483699" style="stroke: #000000"/>
      </g>
     </g>
    </g>
    <g id="xtick_17">
     <g id="line2d_20">
      <g>
       <use xlink:href="#m84209a122e" x="140.796044" y="116.483699" style="stroke: #000000"/>
      </g>
     </g>
    </g>
    <g id="xtick_18">
     <g id="line2d_21">
      <g>
       <use xlink:href="#m84209a122e" x="143.417927" y="116.483699" style="stroke: #000000"/>
      </g>
     </g>
    </g>
    <g id="xtick_19">
     <g id="line2d_22">
      <g>
       <use xlink:href="#m84209a122e" x="145.730591" y="116.483699" style="stroke: #000000"/>
      </g>
     </g>
    </g>
    <g id="xtick_20">
     <g id="line2d_23">
      <g>
       <use xlink:href="#m84209a122e" x="161.409254" y="116.483699" style="stroke: #000000"/>
      </g>
     </g>
    </g>
    <g id="text_4">
     <!-- Time (ms) -->
     <g transform="translate(73.663224 159.769168)scale(0.17 -0.17)">
      <defs>
       <path id="ArialMT-54" d="M 1659 0 
L 1659 4041 
L 150 4041 
L 150 4581 
L 3781 4581 
L 3781 4041 
L 2266 4041 
L 2266 0 
L 1659 0 
z
" transform="scale(0.015625)"/>
       <path id="ArialMT-69" d="M 425 3934 
L 425 4581 
L 988 4581 
L 988 3934 
L 425 3934 
z
M 425 0 
L 425 3319 
L 988 3319 
L 988 0 
L 425 0 
z
" transform="scale(0.015625)"/>
       <path id="ArialMT-6d" d="M 422 0 
L 422 3319 
L 925 3319 
L 925 2853 
Q 1081 3097 1340 3245 
Q 1600 3394 1931 3394 
Q 2300 3394 2536 3241 
Q 2772 3088 2869 2813 
Q 3263 3394 3894 3394 
Q 4388 3394 4653 3120 
Q 4919 2847 4919 2278 
L 4919 0 
L 4359 0 
L 4359 2091 
Q 4359 2428 4304 2576 
Q 4250 2725 4106 2815 
Q 3963 2906 3769 2906 
Q 3419 2906 3187 2673 
Q 2956 2441 2956 1928 
L 2956 0 
L 2394 0 
L 2394 2156 
Q 2394 2531 2256 2718 
Q 2119 2906 1806 2906 
Q 1569 2906 1367 2781 
Q 1166 2656 1075 2415 
Q 984 2175 984 1722 
L 984 0 
L 422 0 
z
" transform="scale(0.015625)"/>
       <path id="ArialMT-65" d="M 2694 1069 
L 3275 997 
Q 3138 488 2766 206 
Q 2394 -75 1816 -75 
Q 1088 -75 661 373 
Q 234 822 234 1631 
Q 234 2469 665 2931 
Q 1097 3394 1784 3394 
Q 2450 3394 2872 2941 
Q 3294 2488 3294 1666 
Q 3294 1616 3291 1516 
L 816 1516 
Q 847 969 1125 678 
Q 1403 388 1819 388 
Q 2128 388 2347 550 
Q 2566 713 2694 1069 
z
M 847 1978 
L 2700 1978 
Q 2663 2397 2488 2606 
Q 2219 2931 1791 2931 
Q 1403 2931 1139 2672 
Q 875 2413 847 1978 
z
" transform="scale(0.015625)"/>
       <path id="ArialMT-20" transform="scale(0.015625)"/>
       <path id="ArialMT-28" d="M 1497 -1347 
Q 1031 -759 709 28 
Q 388 816 388 1659 
Q 388 2403 628 3084 
Q 909 3875 1497 4659 
L 1900 4659 
Q 1522 4009 1400 3731 
Q 1209 3300 1100 2831 
Q 966 2247 966 1656 
Q 966 153 1900 -1347 
L 1497 -1347 
z
" transform="scale(0.015625)"/>
       <path id="ArialMT-73" d="M 197 991 
L 753 1078 
Q 800 744 1014 566 
Q 1228 388 1613 388 
Q 2000 388 2187 545 
Q 2375 703 2375 916 
Q 2375 1106 2209 1216 
Q 2094 1291 1634 1406 
Q 1016 1563 777 1677 
Q 538 1791 414 1992 
Q 291 2194 291 2438 
Q 291 2659 392 2848 
Q 494 3038 669 3163 
Q 800 3259 1026 3326 
Q 1253 3394 1513 3394 
Q 1903 3394 2198 3281 
Q 2494 3169 2634 2976 
Q 2775 2784 2828 2463 
L 2278 2388 
Q 2241 2644 2061 2787 
Q 1881 2931 1553 2931 
Q 1166 2931 1000 2803 
Q 834 2675 834 2503 
Q 834 2394 903 2306 
Q 972 2216 1119 2156 
Q 1203 2125 1616 2013 
Q 2213 1853 2448 1751 
Q 2684 1650 2818 1456 
Q 2953 1263 2953 975 
Q 2953 694 2789 445 
Q 2625 197 2315 61 
Q 2006 -75 1616 -75 
Q 969 -75 630 194 
Q 291 463 197 991 
z
" transform="scale(0.015625)"/>
       <path id="ArialMT-29" d="M 791 -1347 
L 388 -1347 
Q 1322 153 1322 1656 
Q 1322 2244 1188 2822 
Q 1081 3291 891 3722 
Q 769 4003 388 4659 
L 791 4659 
Q 1378 3875 1659 3084 
Q 1900 2403 1900 1659 
Q 1900 816 1576 28 
Q 1253 -759 791 -1347 
z
" transform="scale(0.015625)"/>
      </defs>
      <use xlink:href="#ArialMT-54"/>
      <use xlink:href="#ArialMT-69" x="57.333984"/>
      <use xlink:href="#ArialMT-6d" x="79.550781"/>
      <use xlink:href="#ArialMT-65" x="162.851562"/>
      <use xlink:href="#ArialMT-20" x="218.466797"/>
      <use xlink:href="#ArialMT-28" x="246.25"/>
      <use xlink:href="#ArialMT-6d" x="279.550781"/>
      <use xlink:href="#ArialMT-73" x="362.851562"/>
      <use xlink:href="#ArialMT-29" x="412.851562"/>
     </g>
    </g>
   </g>
   <g id="matplotlib.axis_2">
    <g id="ytick_1">
     <g id="line2d_24">
      <defs>
       <path id="m1ea52cbac3" d="M 0 0 
L -6 0 
" style="stroke: #000000"/>
      </defs>
      <g>
       <use xlink:href="#m1ea52cbac3" x="57.377031" y="116.483699" style="stroke: #000000"/>
      </g>
     </g>
     <g id="text_5">
      <!-- 0.0 -->
      <g transform="translate(26.747031 122.567839)scale(0.17 -0.17)">
       <defs>
        <path id="ArialMT-2e" d="M 581 0 
L 581 641 
L 1222 641 
L 1222 0 
L 581 0 
z
" transform="scale(0.015625)"/>
       </defs>
       <use xlink:href="#ArialMT-30"/>
       <use xlink:href="#ArialMT-2e" x="55.615234"/>
       <use xlink:href="#ArialMT-30" x="83.398438"/>
      </g>
     </g>
    </g>
    <g id="ytick_2">
     <g id="line2d_25">
      <g>
       <use xlink:href="#m1ea52cbac3" x="57.377031" y="70.948824" style="stroke: #000000"/>
      </g>
     </g>
     <g id="text_6">
      <!-- 0.5 -->
      <g transform="translate(26.747031 77.032965)scale(0.17 -0.17)">
       <defs>
        <path id="ArialMT-35" d="M 266 1200 
L 856 1250 
Q 922 819 1161 601 
Q 1400 384 1738 384 
Q 2144 384 2425 690 
Q 2706 997 2706 1503 
Q 2706 1984 2436 2262 
Q 2166 2541 1728 2541 
Q 1456 2541 1237 2417 
Q 1019 2294 894 2097 
L 366 2166 
L 809 4519 
L 3088 4519 
L 3088 3981 
L 1259 3981 
L 1013 2750 
Q 1425 3038 1878 3038 
Q 2478 3038 2890 2622 
Q 3303 2206 3303 1553 
Q 3303 931 2941 478 
Q 2500 -78 1738 -78 
Q 1113 -78 717 272 
Q 322 622 266 1200 
z
" transform="scale(0.015625)"/>
       </defs>
       <use xlink:href="#ArialMT-30"/>
       <use xlink:href="#ArialMT-2e" x="55.615234"/>
       <use xlink:href="#ArialMT-35" x="83.398438"/>
      </g>
     </g>
    </g>
    <g id="ytick_3">
     <g id="line2d_26">
      <g>
       <use xlink:href="#m1ea52cbac3" x="57.377031" y="25.41395" style="stroke: #000000"/>
      </g>
     </g>
     <g id="text_7">
      <!-- 1.0 -->
      <g transform="translate(26.747031 31.49809)scale(0.17 -0.17)">
       <use xlink:href="#ArialMT-31"/>
       <use xlink:href="#ArialMT-2e" x="55.615234"/>
       <use xlink:href="#ArialMT-30" x="83.398438"/>
      </g>
     </g>
    </g>
    <g id="text_8">
     <!-- DR-NED -->
     <g transform="translate(19.368281 94.896224)rotate(-90)scale(0.17 -0.17)">
      <defs>
       <path id="ArialMT-44" d="M 494 0 
L 494 4581 
L 2072 4581 
Q 2606 4581 2888 4516 
Q 3281 4425 3559 4188 
Q 3922 3881 4101 3404 
Q 4281 2928 4281 2316 
Q 4281 1794 4159 1391 
Q 4038 988 3847 723 
Q 3656 459 3429 307 
Q 3203 156 2883 78 
Q 2563 0 2147 0 
L 494 0 
z
M 1100 541 
L 2078 541 
Q 2531 541 2789 625 
Q 3047 709 3200 863 
Q 3416 1078 3536 1442 
Q 3656 1806 3656 2325 
Q 3656 3044 3420 3430 
Q 3184 3816 2847 3947 
Q 2603 4041 2063 4041 
L 1100 4041 
L 1100 541 
z
" transform="scale(0.015625)"/>
       <path id="ArialMT-52" d="M 503 0 
L 503 4581 
L 2534 4581 
Q 3147 4581 3465 4457 
Q 3784 4334 3975 4021 
Q 4166 3709 4166 3331 
Q 4166 2844 3850 2509 
Q 3534 2175 2875 2084 
Q 3116 1969 3241 1856 
Q 3506 1613 3744 1247 
L 4541 0 
L 3778 0 
L 3172 953 
Q 2906 1366 2734 1584 
Q 2563 1803 2427 1890 
Q 2291 1978 2150 2013 
Q 2047 2034 1813 2034 
L 1109 2034 
L 1109 0 
L 503 0 
z
M 1109 2559 
L 2413 2559 
Q 2828 2559 3062 2645 
Q 3297 2731 3419 2920 
Q 3541 3109 3541 3331 
Q 3541 3656 3305 3865 
Q 3069 4075 2559 4075 
L 1109 4075 
L 1109 2559 
z
" transform="scale(0.015625)"/>
       <path id="ArialMT-2d" d="M 203 1375 
L 203 1941 
L 1931 1941 
L 1931 1375 
L 203 1375 
z
" transform="scale(0.015625)"/>
       <path id="ArialMT-4e" d="M 488 0 
L 488 4581 
L 1109 4581 
L 3516 984 
L 3516 4581 
L 4097 4581 
L 4097 0 
L 3475 0 
L 1069 3600 
L 1069 0 
L 488 0 
z
" transform="scale(0.015625)"/>
       <path id="ArialMT-45" d="M 506 0 
L 506 4581 
L 3819 4581 
L 3819 4041 
L 1113 4041 
L 1113 2638 
L 3647 2638 
L 3647 2100 
L 1113 2100 
L 1113 541 
L 3925 541 
L 3925 0 
L 506 0 
z
" transform="scale(0.015625)"/>
      </defs>
      <use xlink:href="#ArialMT-44"/>
      <use xlink:href="#ArialMT-52" x="72.216797"/>
      <use xlink:href="#ArialMT-2d" x="144.433594"/>
      <use xlink:href="#ArialMT-4e" x="177.734375"/>
      <use xlink:href="#ArialMT-45" x="249.951172"/>
      <use xlink:href="#ArialMT-44" x="316.650391"/>
     </g>
    </g>
   </g>
   <g id="line2d_27">
    <path d="M 54.987518 92.37888 
L 64.071109 48.754098 
L 70.257712 69.035793 
L 74.954977 45.692708 
L 78.742631 30.768437 
L 81.91645 30.003096 
L 84.647924 37.656564 
L 87.045406 33.447157 
L 89.181745 38.421916 
L 91.108284 35.36052 
L 92.862572 25.41395 
L 94.472895 30.768437 
L 95.961104 29.23775 
L 97.34442 31.151118 
" clip-path="url(#p06330a9e50)" style="fill: none; stroke: #ff0000; stroke-width: 1.5; stroke-linecap: square"/>
   </g>
   <g id="line2d_28">
    <path d="M 97.34442 31.151118 
L 98.636658 25.41395 
L 165.655211 25.41395 
L 165.655211 25.41395 
" clip-path="url(#p06330a9e50)" style="fill: none; stroke-dasharray: 5.55,2.4; stroke-dashoffset: 0; stroke: #ff0000; stroke-width: 1.5"/>
   </g>
   <g id="line2d_29">
    <path d="M 98.001169 116.483699 
L 98.001169 7.2 
" clip-path="url(#p06330a9e50)" style="fill: none; stroke-dasharray: 10,3; stroke-dashoffset: 5; stroke: #000000"/>
   </g>
   <g id="patch_3">
    <path d="M 57.377031 116.483699 
L 57.377031 7.2 
" style="fill: none; stroke: #000000; stroke-linejoin: miter; stroke-linecap: square"/>
   </g>
   <g id="patch_4">
    <path d="M 165.790668 116.483699 
L 165.790668 7.2 
" style="fill: none; stroke: #000000; stroke-linejoin: miter; stroke-linecap: square"/>
   </g>
   <g id="patch_5">
    <path d="M 57.377031 116.483699 
L 165.790668 116.483699 
" style="fill: none; stroke: #000000; stroke-linejoin: miter; stroke-linecap: square"/>
   </g>
   <g id="patch_6">
    <path d="M 57.377031 7.2 
L 165.790668 7.2 
" style="fill: none; stroke: #000000; stroke-linejoin: miter; stroke-linecap: square"/>
   </g>
  </g>
 </g>
 <defs>
  <clipPath id="p06330a9e50">
   <rect x="57.377031" y="7.2" width="108.413636" height="109.283699"/>
  </clipPath>
 </defs>
</svg>
