<?xml version="1.0" encoding="utf-8" standalone="no"?>
<!DOCTYPE svg PUBLIC "-//W3C//DTD SVG 1.1//EN"
  "http://www.w3.org/Graphics/SVG/1.1/DTD/svg11.dtd">
<svg xmlns:xlink="http://www.w3.org/1999/xlink" width="172.990668pt" height="170.547136pt" viewBox="0 0 172.990668 170.547136" xmlns="http://www.w3.org/2000/svg" version="1.1">
 <metadata>
  <rdf:RDF xmlns:dc="http://purl.org/dc/elements/1.1/" xmlns:cc="http://creativecommons.org/ns#" xmlns:rdf="http://www.w3.org/1999/02/22-rdf-syntax-ns#">
   <cc:Work>
    <dc:type rdf:resource="http://purl.org/dc/dcmitype/StillImage"/>
    <dc:date>2024-08-16T06:09:57.833405</dc:date>
    <dc:format>image/svg+xml</dc:format>
    <dc:creator>
     <cc:Agent>
      <dc:title>Matplotlib v3.5.3, https://matplotlib.org/</dc:title>
     </cc:Agent>
    </dc:creator>
   </cc:Work>
  </rdf:RDF>
 </metadata>
 <defs>
  <style type="text/css">*{stroke-linejoin: round; stroke-linecap: butt}</style>
 </defs>
 <g id="figure_1">
  <g id="patch_1">
   <path d="M 0 170.547136 
L 172.990668 170.547136 
L 172.990668 0 
L 0 0 
z
" style="fill: #ffffff"/>
  </g>
  <g id="axes_1">
   <g id="patch_2">
    <path d="M 57.377031 116.483699 
L 165.790668 116.483699 
L 165.790668 7.2 
L 57.377031 7.2 
z
" style="fill: #ffffff"/>
   </g>
   <g id="line2d_1">
    <path d="M 57.336083 71.010763 
L 57.499368 71.541101 
L 57.539979 71.418153 
L 57.86187 70.200582 
L 57.901737 70.45391 
L 58.2178 71.799056 
L 58.451552 70.661147 
L 58.528854 71.748536 
L 58.567393 71.089585 
L 58.720791 69.420086 
L 58.91087 71.40389 
L 58.98639 70.715103 
L 59.02404 71.245363 
L 59.061619 71.586988 
L 59.136562 71.258366 
L 59.211219 71.668536 
L 59.359689 70.525578 
L 59.470309 71.603091 
L 59.507043 71.563351 
L 59.580309 69.917682 
L 59.653302 70.476969 
L 59.834603 71.364327 
L 59.906659 71.886586 
L 60.014248 70.178815 
L 60.085647 70.416456 
L 60.227673 72.153587 
L 60.263019 71.195584 
L 60.298303 70.136041 
L 60.333523 70.87999 
L 60.368679 71.621183 
L 60.473772 71.608394 
L 60.50868 71.546833 
L 60.613029 69.990772 
L 60.647689 70.553034 
L 60.751303 70.488987 
L 60.820076 71.690569 
L 60.888612 70.20626 
L 60.990967 70.407559 
L 61.126614 71.733042 
L 61.16038 71.444786 
L 61.227739 71.45463 
L 61.361766 70.407146 
L 61.395129 70.426818 
L 61.561107 72.163846 
L 61.692887 69.815496 
L 61.725692 70.279085 
L 61.856375 70.885374 
L 61.953819 70.877742 
L 61.986193 70.401414 
L 62.018515 70.740181 
L 62.147269 71.364069 
L 62.179325 71.457285 
L 62.243283 70.9513 
L 62.307032 71.257427 
L 62.338831 71.161248 
L 62.402271 70.463404 
L 62.465508 70.522777 
L 62.622714 71.36037 
L 62.747579 70.512198 
L 62.778672 70.597583 
L 62.840709 70.598202 
L 62.902552 72.046619 
L 62.9642 71.209013 
L 63.056311 70.608043 
L 63.086919 70.749833 
L 63.208876 71.848798 
L 63.239248 71.452513 
L 63.299848 70.690492 
L 63.360264 71.057543 
L 63.390402 70.83461 
L 63.420495 70.922085 
L 63.480539 71.554986 
L 63.510495 71.038639 
L 63.570265 70.075479 
L 63.600083 70.899493 
L 63.629856 71.130823 
L 63.659584 70.693944 
L 63.689265 70.488547 
L 63.718903 70.78079 
L 63.748497 70.989137 
L 63.807549 70.650253 
L 63.837008 70.549093 
L 63.866425 70.678023 
L 63.925124 70.965956 
L 63.954408 70.804815 
L 63.983648 70.431427 
L 64.012845 70.68166 
L 64.071109 71.289983 
L 64.100176 71.103891 
L 64.158183 69.914192 
L 64.216018 70.854141 
L 64.302451 71.947273 
L 64.331179 71.729926 
L 64.445668 70.344695 
L 64.474188 70.637735 
L 64.5311 71.575649 
L 64.587849 71.023432 
L 64.616161 70.903097 
L 64.644434 71.041975 
L 64.700855 71.360115 
L 64.729007 71.04958 
L 64.785186 70.365637 
L 64.869157 70.68445 
L 64.897066 70.417731 
L 64.924938 70.681839 
L 65.063702 71.14251 
L 65.091337 71.349025 
L 65.118933 71.074951 
L 65.17401 70.477837 
L 65.20149 71.229022 
L 65.228934 72.069317 
L 65.283703 71.284161 
L 65.311031 71.088907 
L 65.365572 71.382799 
L 65.392787 71.358163 
L 65.555283 70.351459 
L 65.689677 71.397339 
L 65.796535 70.309808 
L 65.823159 70.660154 
L 65.955739 71.771929 
L 65.982147 71.463077 
L 66.034859 70.469114 
L 66.087429 71.155204 
L 66.11366 71.269288 
L 66.139858 71.058775 
L 66.21824 70.328937 
L 66.2443 70.5649 
L 66.296313 71.927389 
L 66.348188 71.330721 
L 66.451532 70.457389 
L 66.528682 70.53714 
L 66.554332 70.450507 
L 66.579949 70.692321 
L 66.605531 70.911457 
L 66.631079 70.371597 
L 66.656597 70.230443 
L 66.682081 70.548681 
L 66.758333 71.456096 
L 66.783684 71.037681 
L 66.834291 70.376548 
L 66.884768 70.847426 
L 66.909955 71.338508 
L 66.960236 70.663818 
L 66.98533 70.608857 
L 67.060416 70.414919 
L 67.110315 70.981231 
L 67.135215 70.982246 
L 67.184923 70.718414 
L 67.234508 70.787613 
L 67.456096 71.983815 
L 67.529407 70.349629 
L 67.602444 70.799104 
L 67.675209 72.736365 
L 67.723573 71.641816 
L 67.819939 70.554885 
L 67.867948 71.30244 
L 67.891908 71.66666 
L 67.96361 71.064716 
L 68.035056 70.185595 
L 68.058811 70.650464 
L 68.129909 72.225942 
L 68.153552 72.024462 
L 68.224309 69.160831 
L 68.247839 70.807713 
L 68.294812 75.108561 
L 68.341672 68.137467 
L 68.388424 66.564896 
L 68.435062 68.960439 
L 68.48159 72.365351 
L 68.551176 71.763334 
L 68.597432 71.571841 
L 68.643577 71.249746 
L 68.781366 68.296605 
L 68.804236 68.681875 
L 68.963594 72.520798 
L 68.986255 71.601471 
L 69.008889 71.09094 
L 69.054079 71.372385 
L 69.121669 75.022565 
L 69.166599 73.012931 
L 69.211429 68.713467 
L 69.278479 71.517483 
L 69.345305 72.142763 
L 69.367529 71.455284 
L 69.500346 70.291255 
L 69.522396 70.162949 
L 69.56642 71.929105 
L 69.632272 70.830658 
L 69.654175 70.498671 
L 69.676053 70.866772 
L 69.763318 73.496807 
L 69.806808 72.960663 
L 69.893495 69.703562 
L 69.915108 70.366495 
L 69.979803 73.875479 
L 70.044286 71.913358 
L 70.215211 66.457532 
L 70.236473 66.526198 
L 70.321288 67.697925 
L 70.468842 72.41775 
L 70.510798 71.997429 
L 70.573563 73.216248 
L 70.636126 72.53699 
L 70.822635 70.357587 
L 70.904961 72.632898 
L 70.986945 71.230696 
L 71.007388 71.186486 
L 71.027808 71.342061 
L 71.048208 71.382767 
L 71.068586 71.285146 
L 71.129598 70.477713 
L 71.149893 70.876738 
L 71.251051 73.242838 
L 71.291369 72.467379 
L 71.511651 69.663469 
L 71.591145 67.581529 
L 71.729488 68.08173 
L 71.8473 72.896504 
L 71.905941 71.953274 
L 71.925448 71.151795 
L 71.964408 73.044552 
L 71.983858 73.408919 
L 72.003288 71.892798 
L 72.080821 69.650078 
L 72.100157 70.816208 
L 72.158047 73.255453 
L 72.196548 71.90442 
L 72.234972 68.709022 
L 72.292468 71.88081 
L 72.311597 74.353088 
L 72.349796 68.647455 
L 72.368869 66.453363 
L 72.425974 71.595424 
L 72.444973 71.933233 
L 72.463953 71.352035 
L 72.50186 71.58156 
L 72.520784 71.127015 
L 72.53969 73.242426 
L 72.558579 75.699817 
L 72.615139 72.641013 
L 72.746476 67.833662 
L 72.765167 67.961035 
L 72.783841 68.052896 
L 72.951105 76.218301 
L 72.988083 74.032164 
L 73.080222 68.786661 
L 73.116957 71.127015 
L 73.263215 73.344223 
L 73.444517 68.448132 
L 73.480579 68.385535 
L 73.498583 68.56251 
L 73.534546 71.037985 
L 73.588363 68.533577 
L 73.624162 65.788563 
L 73.659895 69.681958 
L 73.677736 72.203516 
L 73.748942 69.08945 
L 73.766704 69.569323 
L 73.908217 75.017883 
L 74.048718 69.59996 
L 74.066209 70.252682 
L 74.240279 75.016868 
L 74.27491 73.247816 
L 74.361217 69.477554 
L 74.395635 71.868195 
L 74.42999 74.44049 
L 74.515621 73.914904 
L 74.702703 64.610322 
L 74.753419 67.868343 
L 74.787154 73.394309 
L 74.837652 63.516419 
L 74.854456 62.024766 
L 74.888018 65.681552 
L 75.005043 76.95751 
L 75.021705 76.246655 
L 75.104799 65.010347 
L 75.154485 67.890267 
L 75.187542 75.291805 
L 75.220541 92.790681 
L 75.269937 69.814671 
L 75.3028 63.931132 
L 75.335605 72.525618 
L 75.368358 80.412406 
L 75.417385 66.00144 
L 75.4337 62.631447 
L 75.466289 70.490154 
L 75.498823 80.54719 
L 75.547527 64.195088 
L 75.563733 60.784552 
L 75.612274 67.391944 
L 75.644569 86.359156 
L 75.708998 72.440355 
L 75.741134 48.665434 
L 75.789239 77.044464 
L 75.821243 63.074696 
L 75.837226 59.878594 
L 75.869154 65.756244 
L 75.932851 87.234654 
L 75.980491 70.187327 
L 76.059632 70.735795 
L 76.106964 56.379926 
L 76.122716 55.286625 
L 76.138455 60.288362 
L 76.185598 99.546873 
L 76.248279 68.068426 
L 76.310763 46.44742 
L 76.326351 58.867053 
L 76.373045 89.073973 
L 76.435133 71.492191 
L 76.481569 59.988417 
L 76.527897 68.389356 
L 76.696833 88.432382 
L 76.71212 89.846053 
L 76.727394 83.111191 
L 76.773144 63.52277 
L 76.833981 76.747467 
L 76.86433 72.428446 
L 76.924884 50.620914 
L 76.985252 59.69162 
L 77.000315 58.845329 
L 77.030408 62.446769 
L 77.120408 84.343559 
L 77.195094 76.960821 
L 77.328817 59.602571 
L 77.37319 63.485424 
L 77.50571 85.393559 
L 77.549685 75.293434 
L 77.593562 66.773989 
L 77.666474 71.619357 
L 77.681023 73.353049 
L 77.724608 70.129294 
L 77.768096 56.841006 
L 77.811488 70.955563 
L 77.854785 77.573544 
L 77.912365 72.430145 
L 78.012726 66.18241 
L 78.041308 68.154647 
L 78.098344 76.859852 
L 78.126801 66.74769 
L 78.141013 64.853125 
L 78.155216 74.852554 
L 78.169409 80.479835 
L 78.211923 68.349991 
L 78.254348 78.508884 
L 78.32485 63.365521 
L 78.33892 75.774124 
L 78.36703 100.820509 
L 78.42313 43.856387 
L 78.4651 64.586406 
L 78.52092 82.599273 
L 78.562683 66.191339 
L 78.632089 54.412775 
L 78.659783 69.29533 
L 78.70125 80.684518 
L 78.715054 88.961583 
L 78.756405 60.048268 
L 78.811404 83.694148 
L 78.838847 71.842607 
L 78.920945 84.392054 
L 78.948234 79.247442 
L 79.0027 58.413718 
L 79.070571 68.179579 
L 79.097653 75.838447 
L 79.165196 68.424845 
L 79.219066 61.058306 
L 79.259369 68.425459 
L 79.286194 74.215004 
L 79.339731 62.31595 
L 79.353093 58.534321 
L 79.419766 69.936816 
L 79.565652 83.7118 
L 79.57886 80.610472 
L 79.697343 61.702039 
L 79.736677 65.449986 
L 79.789003 82.061682 
L 79.828154 70.063325 
L 79.854213 58.443367 
L 79.919208 73.892431 
L 79.945146 78.115927 
L 79.983988 69.05668 
L 80.009841 70.076315 
L 80.022756 69.257528 
L 80.061446 72.175145 
L 80.087196 80.0277 
L 80.138596 65.599722 
L 80.151426 61.872544 
L 80.177057 70.535409 
L 80.228223 69.25603 
L 80.240993 70.508447 
L 80.291995 67.282925 
L 80.317446 68.724372 
L 80.368247 62.323408 
L 80.393597 65.25798 
L 80.444204 82.788665 
L 80.519869 75.440019 
L 80.532453 75.528558 
L 80.682817 65.780687 
L 80.695295 65.924305 
L 80.707765 65.908645 
L 80.745129 68.648687 
L 80.782422 77.190026 
L 80.869167 74.156811 
L 80.881527 73.084542 
L 80.906224 76.924415 
L 80.943213 74.760414 
L 80.955528 76.548502 
L 80.992425 68.038636 
L 81.004707 66.498971 
L 81.041511 74.173112 
L 81.053766 73.842451 
L 81.175873 60.77977 
L 81.200205 66.154053 
L 81.273015 75.073536 
L 81.321408 72.22611 
L 81.357623 69.468771 
L 81.393773 74.240329 
L 81.417834 71.906366 
L 81.429853 73.316094 
L 81.441867 78.078351 
L 81.489844 64.026722 
L 81.537707 75.622799 
L 81.585451 66.302812 
L 81.609278 72.592008 
L 81.716154 85.06862 
L 81.727992 79.9261 
L 81.763466 63.867633 
L 81.845992 68.796622 
L 81.857752 69.559037 
L 81.869506 63.848738 
L 81.881254 60.171368 
L 81.904725 70.22445 
L 81.928169 107.082873 
L 81.963285 40.851802 
L 82.010007 66.243021 
L 82.056619 82.360574 
L 82.103117 69.448019 
L 82.16109 58.226419 
L 82.218891 64.690089 
L 82.25349 109.374745 
L 82.333987 75.697456 
L 82.41415 78.404652 
L 82.368384 67.87617 
L 82.425577 74.46968 
L 82.459814 58.320283 
L 82.52811 71.747187 
L 82.573508 81.859051 
L 82.64141 73.162936 
L 82.787731 58.775642 
L 82.810146 62.149663 
L 82.944095 81.217323 
L 83.032892 67.350625 
L 83.165337 69.825707 
L 83.187324 74.88797 
L 83.264088 68.256132 
L 83.329648 60.956576 
L 83.340552 65.933647 
L 83.373232 79.793813 
L 83.460113 72.612051 
L 83.470945 73.412922 
L 83.514217 69.986191 
L 83.589717 75.496431 
L 83.632728 65.125712 
L 83.686362 80.485713 
L 83.729164 64.450891 
L 83.739849 64.640579 
L 83.782533 55.420772 
L 83.80384 65.940101 
L 83.952349 88.524946 
L 83.962916 88.949033 
L 83.973474 85.43376 
L 84.057745 57.830911 
L 84.099745 73.148252 
L 84.11023 73.927932 
L 84.141654 70.121081 
L 84.235627 66.440401 
L 84.204352 71.713818 
L 84.24604 69.156152 
L 84.256449 71.735598 
L 84.339517 66.794008 
L 84.349875 66.877027 
L 84.370575 64.251937 
L 84.391254 72.975652 
L 84.401587 77.586207 
L 84.432549 70.444525 
L 84.494325 71.693085 
L 84.504603 71.424341 
L 84.617302 58.392635 
L 84.545659 81.588931 
L 84.627514 62.142406 
L 84.6785 79.295503 
L 84.749661 73.908857 
L 84.790207 73.455656 
L 84.769945 74.140874 
L 84.80033 73.816977 
L 84.840774 79.28655 
L 84.881135 73.244616 
L 84.921409 60.469457 
L 85.031749 66.830383 
L 85.101642 73.964192 
L 85.121564 66.272507 
L 85.161353 73.041912 
L 85.171286 72.986932 
L 85.19114 67.371659 
L 85.220881 76.08626 
L 85.270352 75.270144 
L 85.280233 75.236633 
L 85.339402 68.051533 
L 85.368921 76.045364 
L 85.408212 72.364757 
L 85.437627 77.522557 
L 85.476779 61.283342 
L 85.506092 66.758058 
L 85.535362 78.559548 
L 85.603488 64.476566 
L 85.613202 66.3199 
L 85.700404 78.975376 
L 85.729385 70.253176 
L 85.76796 64.921428 
L 85.816074 74.606468 
L 85.902382 65.197434 
L 85.911947 63.425969 
L 85.950167 76.643756 
L 86.007355 65.616045 
L 86.111774 74.082306 
L 86.130698 70.786891 
L 86.140153 68.914266 
L 86.187364 80.426457 
L 86.196792 81.911544 
L 86.234462 73.410748 
L 86.25327 66.422987 
L 86.347038 67.585388 
L 86.412409 71.535651 
L 86.431046 66.493537 
L 86.440359 64.572439 
L 86.477564 71.327714 
L 86.523972 69.887767 
L 86.579516 78.968472 
L 86.644121 73.264209 
L 86.662539 69.958187 
L 86.68094 64.919327 
L 86.717694 76.07082 
L 86.763538 73.568279 
L 86.800136 68.378956 
L 86.818408 69.736701 
L 86.845789 59.455842 
L 86.918611 73.838766 
L 86.94585 74.485278 
L 86.954922 72.895302 
L 87.07247 63.172604 
L 87.090492 89.381379 
L 87.189318 73.60657 
L 87.216184 76.624557 
L 87.260881 66.71695 
L 87.269809 64.070218 
L 87.341078 75.356854 
L 87.358856 79.779743 
L 87.41209 70.905583 
L 87.438653 72.695026 
L 87.54455 64.458691 
L 87.509316 73.159383 
L 87.562144 67.317649 
L 87.570937 67.390869 
L 87.579723 67.21137 
L 87.6936 81.132318 
L 87.676122 64.888967 
L 87.702333 77.570151 
L 87.728507 49.566561 
L 87.806819 81.774721 
L 87.841526 61.836501 
L 87.902114 83.254367 
L 87.936654 92.479049 
L 87.979742 71.692995 
L 88.10844 61.978724 
L 88.116989 59.766953 
L 88.151151 69.386247 
L 88.176734 68.761849 
L 88.210794 84.68219 
L 88.244793 57.120601 
L 88.278734 65.699611 
L 88.397067 74.206644 
L 88.363332 63.1344 
L 88.405493 69.873963 
L 88.413915 68.581139 
L 88.430747 79.290708 
L 88.455969 87.996624 
L 88.514693 72.784828 
L 88.53144 78.848162 
L 88.573243 56.466874 
L 88.598283 90.973055 
L 88.664897 67.879742 
L 88.689822 72.276937 
L 88.731288 63.710781 
L 88.756127 48.786086 
L 88.80571 79.761575 
L 88.838696 64.295482 
L 88.92092 76.252341 
L 88.953713 67.279212 
L 88.961902 67.007987 
L 88.986451 69.054731 
L 89.043614 85.979884 
L 89.108737 74.73932 
L 89.20602 59.495815 
L 89.254483 62.257651 
L 89.262548 60.424229 
L 89.302824 74.667461 
L 89.343019 78.503507 
L 89.359074 72.236516 
L 89.383131 62.024093 
L 89.407158 75.897406 
L 89.471092 67.248418 
L 89.479068 67.108664 
L 89.598333 75.530333 
L 89.622098 75.057677 
L 89.630015 75.66065 
L 89.645835 70.804283 
L 89.653743 67.996937 
L 89.701113 73.593933 
L 89.748369 71.986964 
L 89.756234 72.049752 
L 89.77981 58.866314 
L 89.803359 77.297081 
L 89.866014 72.151492 
L 89.873832 72.734625 
L 89.889459 66.166934 
L 89.920676 62.678406 
L 89.967406 75.573639 
L 90.014027 77.004176 
L 90.045046 73.501361 
L 90.14552 64.976453 
L 90.176332 65.900009 
L 90.283795 80.191709 
L 90.260817 65.418258 
L 90.291448 72.689036 
L 90.329671 76.556292 
L 90.413501 61.258307 
L 90.527239 77.486182 
L 90.542353 73.25066 
L 90.557458 66.427085 
L 90.595165 77.149977 
L 90.655351 69.028133 
L 90.752758 73.743865 
L 90.71535 67.924617 
L 90.797551 72.576741 
L 90.879412 63.474899 
L 90.834802 72.971454 
L 90.901676 71.614403 
L 90.923917 76.454386 
L 90.99049 67.980174 
L 91.005252 65.643104 
L 91.042112 74.049987 
L 91.078903 73.174185 
L 91.115623 64.106175 
L 91.144951 77.652192 
L 91.18155 70.212155 
L 91.203476 78.860394 
L 91.247255 68.384096 
L 91.290937 70.134863 
L 91.312741 74.73888 
L 91.363524 67.59187 
L 91.414176 73.724261 
L 91.486311 67.313274 
L 91.543829 69.498979 
L 91.629789 75.374544 
L 91.651222 70.402179 
L 91.68689 66.009783 
L 91.722492 73.367543 
L 91.772228 67.089247 
L 91.821837 77.636994 
L 91.941799 74.00011 
L 92.05404 63.576417 
L 92.033044 75.492979 
L 92.068026 67.319152 
L 92.186497 79.870709 
L 92.158686 59.549744 
L 92.193443 79.055309 
L 92.311164 63.39682 
L 92.324967 72.200807 
L 92.345654 79.751283 
L 92.428183 71.231505 
L 92.435044 71.217831 
L 92.489851 78.454982 
L 92.462468 69.043007 
L 92.510366 69.748806 
L 92.544508 61.01317 
L 92.564965 69.88013 
L 92.619411 69.714755 
L 92.707567 78.295638 
L 92.734613 71.177068 
L 92.842423 63.210509 
L 92.768366 74.559025 
L 92.855857 65.682979 
L 92.969683 79.150099 
L 92.983032 75.711906 
L 93.102758 65.416754 
L 93.122641 67.203065 
L 93.228347 74.373455 
L 93.168957 64.626417 
L 93.261265 68.868474 
L 93.280988 67.454113 
L 93.313818 71.968519 
L 93.326933 78.932564 
L 93.379312 69.869208 
L 93.425026 74.938919 
L 93.431548 75.763612 
L 93.477145 68.529143 
L 93.503148 72.131489 
L 93.51614 68.12717 
L 93.606834 73.124412 
L 93.613295 74.412253 
L 93.684237 67.279309 
L 93.735673 63.334249 
L 93.7164 72.492558 
L 93.780566 70.402896 
L 93.818965 68.58026 
L 93.920999 77.161585 
L 94.028831 66.974322 
L 93.965473 77.413206 
L 94.054118 69.926329 
L 94.066748 73.602271 
L 94.091987 64.81598 
L 94.148653 65.973745 
L 94.317678 75.13131 
L 94.355043 71.5821 
L 94.454336 68.18555 
L 94.379911 73.449766 
L 94.472895 68.2419 
L 94.528474 57.56049 
L 94.503793 83.628931 
L 94.553126 78.042856 
L 94.565442 81.469039 
L 94.614621 61.492593 
L 94.657553 77.506093 
L 94.68816 70.801808 
L 94.712611 59.501694 
L 94.773609 74.433426 
L 94.804036 65.615659 
L 94.913188 85.534882 
L 94.925278 79.639172 
L 95.033759 61.387471 
L 94.967537 80.833019 
L 95.045777 61.797065 
L 95.213239 78.238219 
L 95.075785 60.132752 
L 95.219192 74.732285 
L 95.231097 69.655957 
L 95.314222 76.064976 
L 95.337906 69.839049 
L 95.444136 64.170292 
L 95.367471 72.568099 
L 95.467666 66.466575 
L 95.549796 74.269896 
L 95.584889 71.580873 
L 95.596573 68.051582 
L 95.625752 76.68057 
L 95.695608 71.436161 
L 95.701417 71.177231 
L 95.718839 75.06418 
L 95.730443 74.202123 
L 95.736241 75.225047 
L 95.75363 59.131937 
L 95.759423 58.877252 
L 95.765213 61.392291 
L 95.794145 75.900774 
L 95.886435 72.765644 
L 95.9439 69.290787 
L 95.915189 75.289463 
L 95.989749 72.511139 
L 96.001194 73.70634 
L 96.069728 68.57684 
L 96.081126 69.91626 
L 96.09252 69.764645 
L 96.098212 70.377134 
L 96.15506 71.132948 
L 96.115286 68.577073 
L 96.166409 69.548484 
L 96.240023 66.158233 
L 96.211744 77.045311 
L 96.245673 69.09363 
L 96.256972 76.996349 
L 96.330246 66.19654 
L 96.358357 72.537696 
L 96.459222 68.534511 
L 96.408855 72.897107 
L 96.481567 68.884683 
L 96.509461 77.948433 
L 96.570689 64.4917 
L 96.592907 69.179346 
L 96.604006 68.562743 
L 96.637267 71.762924 
L 96.687053 69.407585 
L 96.714656 75.249197 
L 96.791744 68.998924 
L 96.802733 65.918682 
L 96.884945 75.617724 
L 96.901344 70.163079 
L 97.015771 62.150114 
L 96.945015 78.502528 
L 97.021204 63.824088 
L 97.145732 79.202709 
L 97.151129 78.772433 
L 97.248013 64.428896 
L 97.317688 71.1175 
L 97.392447 75.784212 
L 97.4244 73.089585 
L 97.482844 66.290561 
L 97.530534 74.662715 
L 97.583388 77.721174 
L 97.593941 69.320289 
L 97.620299 65.382041 
L 97.657146 77.687419 
L 97.709658 66.488212 
L 97.720144 65.593474 
L 97.741099 72.863783 
L 97.814266 76.163224 
L 97.762033 72.577023 
L 97.850748 73.007985 
L 97.93388 63.115928 
L 97.902746 73.219462 
L 97.980488 66.204877 
L 97.996002 73.202393 
L 97.996002 73.202393 
" clip-path="url(#p24f08bd5ec)" style="fill: none; stroke: #c0c0c0; stroke-linecap: square"/>
   </g>
   <g id="line2d_2">
    <path d="M 98.001168 72.704135 
L 98.083669 68.694686 
L 98.052772 74.738576 
L 98.114517 71.610495 
L 98.119654 71.6369 
L 98.135054 73.038218 
L 98.181188 66.318598 
L 98.186308 65.777272 
L 98.201658 71.958072 
L 98.237428 71.63829 
L 98.278227 65.81375 
L 98.359574 76.587737 
L 98.486006 67.164661 
L 98.531323 72.649142 
L 98.576538 76.639044 
L 98.596598 68.253825 
L 98.636658 71.49285 
L 98.731478 67.567084 
L 98.701585 74.953369 
L 98.746408 70.799338 
L 98.786166 74.574545 
L 98.771266 67.361302 
L 98.850598 71.666891 
L 98.875324 66.445362 
L 98.934541 73.478999 
L 98.949316 71.289264 
L 98.959161 78.291065 
L 99.018125 68.982455 
L 99.057338 74.680367 
L 99.081804 60.683289 
L 99.120888 75.447589 
L 99.174503 68.891875 
L 99.271609 74.946492 
L 99.295811 73.598759 
L 99.401946 64.151625 
L 99.411566 68.489804 
L 99.421181 73.829302 
L 99.526643 72.831244 
L 99.54098 75.133093 
L 99.560081 68.010008 
L 99.598225 68.754928 
L 99.693263 67.370221 
L 99.650555 74.101652 
L 99.702743 69.493795 
L 99.716951 75.184664 
L 99.773687 67.889996 
L 99.811419 71.13611 
L 99.830257 65.363813 
L 99.905435 74.429808 
L 99.910123 75.747216 
L 99.933552 69.601002 
L 99.999001 70.221584 
L 100.078183 67.189956 
L 100.01766 73.57063 
L 100.096769 70.583975 
L 100.180184 78.390007 
L 100.133885 67.959357 
L 100.20791 71.730474 
L 100.249427 65.305938 
L 100.272453 75.510219 
L 100.318426 70.87885 
L 100.391758 75.981852 
L 100.41005 66.136786 
L 100.428322 70.864188 
L 100.519437 65.505565 
L 100.451141 75.923108 
L 100.533067 71.561286 
L 100.610131 74.890443 
L 100.573903 68.978954 
L 100.641773 71.312048 
L 100.691396 68.45432 
L 100.72291 71.542876 
L 100.803712 75.814189 
L 100.776815 69.086416 
L 100.821624 69.646365 
L 100.835046 69.37881 
L 100.843989 70.762155 
L 100.897563 76.179858 
L 100.919844 65.832738 
L 100.924296 64.89331 
L 100.97321 73.357509 
L 100.995405 72.931413 
L 101.048567 76.734488 
L 101.070677 67.856873 
L 101.101588 71.348515 
L 101.158866 68.260665 
L 101.189637 73.384959 
L 101.19403 73.592861 
L 101.211587 69.31561 
L 101.27292 66.93266 
L 101.251038 74.674429 
L 101.307881 71.90467 
L 101.316612 75.850194 
L 101.347137 66.802525 
L 101.408047 68.450477 
L 101.412392 68.119581 
L 101.447105 73.350555 
L 101.45144 74.924627 
L 101.512028 67.90114 
L 101.542253 67.995596 
L 101.550881 65.823819 
L 101.593958 75.982927 
L 101.641234 71.004086 
L 101.662687 74.053469 
L 101.731175 67.759584 
L 101.756797 73.263617 
L 101.85046 67.905586 
L 101.837714 74.901587 
L 101.871684 71.734157 
L 101.905597 74.36952 
L 101.930992 69.369539 
L 101.95213 66.08594 
L 101.969024 76.930605 
L 102.040661 69.01167 
L 102.074284 66.016699 
L 102.162266 74.296616 
L 102.241532 67.764057 
L 102.283123 72.552925 
L 102.287276 73.375932 
L 102.337059 69.652673 
L 102.378448 70.338914 
L 102.394978 67.178351 
L 102.440369 71.981004 
L 102.489765 68.597429 
L 102.551336 75.334159 
L 102.600454 70.307843 
L 102.649449 66.908315 
L 102.62905 73.661601 
L 102.694254 71.83916 
L 102.714588 73.822324 
L 102.779509 67.569853 
L 102.78356 68.040633 
L 102.795707 66.55411 
L 102.916761 75.124376 
L 102.924806 80.162131 
L 102.964975 66.814114 
L 103.021074 71.385606 
L 103.084993 66.419822 
L 103.124837 73.047418 
L 103.172542 67.488636 
L 103.200319 75.169579 
L 103.243885 71.73312 
L 103.259705 77.968878 
L 103.346479 68.616477 
L 103.37794 64.569432 
L 103.440708 73.591333 
L 103.452455 75.409361 
L 103.468106 69.645041 
L 103.534488 70.465336 
L 103.538386 70.250033 
L 103.553968 74.557126 
L 103.561755 75.650589 
L 103.627821 66.203656 
L 103.639456 68.461084 
L 103.643334 68.469764 
L 103.66658 64.310611 
L 103.709125 76.842696 
L 103.736151 72.760889 
L 103.766994 76.575616 
L 103.809323 65.40434 
L 103.836213 69.642012 
L 103.893709 64.934813 
L 103.905188 72.487323 
L 103.985354 76.792903 
L 103.973922 69.968457 
L 104.008199 71.260288 
L 104.046215 64.380363 
L 104.031017 73.429427 
L 104.122025 67.995916 
L 104.216379 75.091421 
L 104.152267 65.939347 
L 104.242716 71.623601 
L 104.31028 72.742062 
L 104.280281 68.885443 
L 104.33275 70.915273 
L 104.392545 65.977257 
L 104.429823 71.864542 
L 104.448438 69.420949 
L 104.463314 75.942804 
L 104.548644 64.978483 
L 104.644659 75.740119 
L 104.593017 64.961021 
L 104.674108 69.171801 
L 104.677785 68.558661 
L 104.754864 73.164176 
L 104.769512 71.410399 
L 104.809736 73.333014 
L 104.835291 66.76975 
L 104.879022 71.908258 
L 104.889939 66.520759 
L 104.962567 75.8412 
L 105.006015 67.387841 
L 105.08182 75.912963 
L 105.045759 67.130827 
L 105.128599 69.610192 
L 105.132192 69.585488 
L 105.135787 70.089913 
L 105.139378 69.724949 
L 105.236129 66.211885 
L 105.175268 72.737138 
L 105.243278 71.27042 
L 105.346629 76.505777 
L 105.303929 64.038089 
L 105.353736 73.109351 
L 105.41759 66.112034 
L 105.375044 76.771915 
L 105.477705 67.45718 
L 105.537637 75.631737 
L 105.555231 66.883443 
L 105.59388 70.778097 
L 105.607914 67.991563 
L 105.625444 75.940622 
L 105.709368 68.0854 
L 105.827652 75.13207 
L 105.772077 65.663834 
L 105.834588 73.068531 
L 105.941779 67.353198 
L 105.87961 74.641588 
L 105.952121 69.440968 
L 106.041527 73.30964 
L 105.969347 68.430844 
L 106.058675 68.801083 
L 106.096345 75.944891 
L 106.116862 67.891158 
L 106.168061 70.549652 
L 106.266669 66.543037 
L 106.249704 73.775142 
L 106.276842 70.668361 
L 106.324246 73.759001 
L 106.303943 68.573534 
L 106.374908 68.67015 
L 106.432167 63.750607 
L 106.418709 74.112232 
L 106.442254 73.82637 
L 106.445616 74.666824 
L 106.506021 68.068686 
L 106.526115 69.880119 
L 106.532808 65.677182 
L 106.616282 78.029812 
L 106.632935 72.560736 
L 106.6529 64.482809 
L 106.729242 74.775499 
L 106.732555 74.671033 
L 106.739179 77.294193 
L 106.801989 67.105961 
L 106.831671 72.116209 
L 106.877755 74.672588 
L 106.953231 64.135731 
L 107.025154 79.55357 
L 107.077295 73.018961 
L 107.139035 66.063424 
L 107.100065 74.455944 
L 107.190878 67.900592 
L 107.271605 75.27222 
L 107.307023 72.574505 
L 107.3231 68.098992 
L 107.40969 76.760505 
L 107.444857 64.24468 
L 107.515004 75.673686 
L 107.518186 78.009747 
L 107.58173 66.047216 
L 107.622925 73.390056 
L 107.635582 66.614732 
L 107.664032 76.258703 
L 107.730254 73.161437 
L 107.811936 78.189571 
L 107.793117 60.63361 
L 107.830736 65.970049 
L 107.833869 63.306414 
L 107.868285 77.687451 
L 107.933825 71.006406 
L 107.94317 76.230468 
L 107.989825 65.551851 
L 108.04257 69.495722 
L 108.122966 76.044604 
L 108.079717 65.621245 
L 108.132222 68.724085 
L 108.224535 59.675933 
L 108.169199 79.61075 
L 108.246011 64.918768 
L 108.258273 84.353416 
L 108.362196 73.96179 
L 108.429146 62.655955 
L 108.410909 76.409147 
L 108.477696 70.85787 
L 108.492842 76.127618 
L 108.541235 66.940602 
L 108.574436 71.344813 
L 108.619617 63.061804 
L 108.634655 74.716779 
L 108.685699 69.56041 
L 108.706677 76.230292 
L 108.748569 68.561337 
L 108.802296 73.826536 
L 108.858852 67.302482 
L 108.84696 74.426393 
L 108.912281 73.672463 
L 108.95965 65.330929 
L 108.974431 76.066909 
L 109.030492 68.803879 
L 109.112821 76.527205 
L 109.101081 66.483115 
L 109.142139 72.204414 
L 109.191882 65.024682 
L 109.153856 74.486106 
L 109.253154 70.319134 
L 109.314236 74.459204 
L 109.331654 69.366602 
L 109.35775 69.613823 
L 109.401168 64.207524 
L 109.441606 73.510714 
L 109.456026 72.461503 
L 109.467555 77.245521 
L 109.525102 67.270098 
L 109.562419 70.112874 
L 109.591074 63.644687 
L 109.605385 74.081894 
L 109.671088 69.64934 
L 109.722354 76.049739 
L 109.736572 67.423878 
L 109.779161 69.01446 
L 109.793335 64.633506 
L 109.79617 63.159321 
L 109.830144 75.636183 
L 109.895102 68.447242 
L 109.917644 73.793416 
L 109.990731 67.893362 
L 109.99634 68.006713 
L 110.00195 66.552655 
L 110.02437 75.053701 
L 110.097061 70.214641 
L 110.155578 75.701831 
L 110.130521 68.255209 
L 110.211146 72.504413 
L 110.252719 64.610013 
L 110.316295 73.961415 
L 110.32733 69.868204 
L 110.368658 73.911172 
L 110.426371 67.632293 
L 110.434602 69.764113 
L 110.486651 66.7281 
L 110.472969 75.980508 
L 110.546746 68.818372 
L 110.557654 74.79311 
L 110.636549 66.257037 
L 110.660969 71.598132 
L 110.752948 67.269175 
L 110.67994 73.6105 
L 110.763742 71.325347 
L 110.822996 74.208289 
L 110.801469 67.594741 
L 110.871345 69.825039 
L 110.957004 66.801635 
L 110.884753 74.947108 
L 110.975694 70.397962 
L 111.018343 76.347768 
L 111.079491 67.556044 
L 111.0848 64.720275 
L 111.113968 74.595628 
L 111.185383 70.817538 
L 111.188024 70.840576 
L 111.190663 70.595385 
L 111.19858 67.295811 
L 111.217039 76.270351 
L 111.298583 71.674653 
L 111.377175 63.515529 
L 111.395469 74.539481 
L 111.400691 73.777468 
L 111.502272 74.902713 
L 111.413745 67.849138 
L 111.507468 73.525682 
L 111.536015 63.581606 
L 111.605915 78.526034 
L 111.623996 70.582221 
L 111.706442 75.858095 
L 111.64206 66.540768 
L 111.719292 68.659251 
L 111.809014 66.695693 
L 111.788542 74.612759 
L 111.826911 69.059041 
L 111.890687 75.287943 
L 111.903421 66.987757 
L 111.93394 69.315713 
L 112.015098 63.858286 
L 111.951723 76.258 
L 112.035335 72.70436 
L 112.103481 80.944633 
L 112.090879 65.288921 
L 112.146266 73.309757 
L 112.148781 73.385855 
L 112.153809 70.434787 
L 112.239069 64.086791 
L 112.229058 76.321387 
L 112.261576 70.026528 
L 112.321469 76.399477 
L 112.363782 67.584107 
L 112.366267 65.315128 
L 112.428322 74.425655 
L 112.46546 71.726604 
L 112.47288 78.033566 
L 112.517336 65.721965 
L 112.573996 71.5595 
L 112.672146 64.345476 
L 112.586291 74.839983 
L 112.679487 70.953742 
L 112.735682 76.01663 
L 112.781982 66.515684 
L 112.789282 70.301536 
L 112.840311 66.360965 
L 112.86214 75.204813 
L 112.881523 74.509097 
L 112.886366 77.192434 
L 112.978151 67.584683 
L 112.992605 76.40459 
L 113.110244 65.884631 
L 113.115031 69.500586 
L 113.153282 76.73363 
L 113.162833 66.336299 
L 113.227182 74.04591 
L 113.28895 67.188849 
L 113.300807 74.902675 
L 113.355254 70.029334 
L 113.409549 75.910059 
L 113.381241 64.993177 
L 113.466045 72.591845 
L 113.494235 65.118899 
L 113.543466 73.440918 
L 113.576217 69.569844 
L 113.587901 75.470116 
L 113.681123 67.093183 
L 113.685773 68.55199 
L 113.766963 77.062969 
L 113.711325 67.162278 
L 113.792409 67.699309 
L 113.797033 67.337728 
L 113.838593 72.671712 
L 113.877763 71.006539 
L 113.889269 74.381592 
L 113.969622 63.947797 
L 113.971914 62.266108 
L 114.056493 75.083521 
L 114.072455 67.109136 
L 114.181551 75.172209 
L 114.190614 74.197783 
L 114.260718 66.555125 
L 114.201939 75.039726 
L 114.305815 69.048011 
L 114.391213 74.180741 
L 114.337322 66.843275 
L 114.413626 69.195766 
L 114.498559 66.768491 
L 114.509707 77.278872 
L 114.511935 78.064061 
L 114.569795 65.391861 
L 114.603099 71.539408 
L 114.67838 68.29971 
L 114.65848 74.793515 
L 114.691636 74.508847 
L 114.696051 78.280062 
L 114.762177 65.088838 
L 114.801746 74.582394 
L 114.900323 64.531662 
L 114.825889 76.470784 
L 114.911244 72.959086 
L 114.930889 75.822909 
L 114.92216 67.227481 
L 115.020134 71.929778 
L 115.028819 72.438146 
L 115.044008 68.432505 
L 115.050516 65.615931 
L 115.145694 74.647784 
L 115.152166 73.796222 
L 115.261877 68.712762 
L 115.246856 75.234272 
L 115.264023 69.84255 
L 115.349634 74.695843 
L 115.332541 67.124606 
L 115.377377 72.404733 
L 115.449752 64.017874 
L 115.430621 75.67611 
L 115.490081 70.732164 
L 115.562043 74.87402 
L 115.587379 67.79465 
L 115.604251 72.172124 
L 115.656883 66.058197 
L 115.688395 76.36186 
L 115.703084 74.02486 
L 115.705181 74.172344 
L 115.717759 68.725187 
L 115.749175 70.454339 
L 115.822279 66.678823 
L 115.77427 74.8846 
L 115.861851 69.604194 
L 115.886802 74.021921 
L 115.872253 68.013786 
L 115.971818 70.053669 
L 116.011089 65.750908 
L 115.984226 76.219609 
L 116.074996 72.934181 
L 116.091455 74.919929 
L 116.126382 65.734694 
L 116.177636 70.412629 
L 116.265479 67.853893 
L 116.20219 75.594977 
L 116.281779 73.370224 
L 116.338721 73.622602 
L 116.291958 68.221175 
L 116.365102 70.867874 
L 116.454132 67.261804 
L 116.439995 75.251906 
L 116.476327 70.531082 
L 116.490437 67.010587 
L 116.528685 72.134675 
L 116.548786 77.677645 
L 116.578901 67.203201 
L 116.626985 70.502134 
L 116.630988 67.616769 
L 116.708861 75.559241 
L 116.73873 68.383282 
L 116.814196 74.913065 
L 116.7765 67.347162 
L 116.867641 70.85642 
L 116.893321 65.153243 
L 116.926853 76.389158 
L 116.987854 67.323413 
L 117.031029 75.446555 
L 117.093659 64.412351 
L 117.179453 76.065516 
L 117.229973 70.107348 
L 117.241614 67.645668 
L 117.27262 74.513822 
L 117.334488 72.178633 
L 117.353781 75.408153 
L 117.417315 67.805593 
L 117.442287 70.772783 
L 117.478727 66.595511 
L 117.492137 76.431938 
L 117.551407 70.67152 
L 117.568582 74.713699 
L 117.64093 67.007613 
L 117.66562 72.399229 
L 117.748956 75.152659 
L 117.722478 65.795549 
L 117.762181 71.370171 
L 117.87142 67.293797 
L 117.84887 74.15496 
L 117.875178 69.688792 
L 117.914574 74.492509 
L 117.895823 68.101011 
L 117.987528 72.541292 
L 118.058351 67.368869 
L 118.019243 74.337572 
L 118.097381 72.060516 
L 118.112229 76.107775 
L 118.178909 67.001664 
L 118.206625 72.36619 
L 118.324442 65.988125 
L 118.243519 74.026988 
L 118.326276 66.089784 
L 118.350119 74.796639 
L 118.441557 70.490235 
L 118.459793 68.704663 
L 118.485294 71.418625 
L 118.488935 71.058232 
L 118.508945 76.076468 
L 118.554349 63.248441 
L 118.605077 72.935294 
L 118.637617 67.623272 
L 118.675515 73.727917 
L 118.72413 69.497112 
L 118.742106 75.296498 
L 118.790559 64.989926 
L 118.835316 69.573964 
L 118.885323 67.148344 
L 118.862122 73.680138 
L 118.929866 72.11575 
L 118.984957 75.143032 
L 119.034585 67.927391 
L 119.043434 67.458461 
L 119.071724 74.659593 
L 119.124658 70.94623 
L 119.217827 74.538097 
L 119.14051 67.813795 
L 119.231852 69.333469 
L 119.273868 68.491384 
L 119.280861 75.189487 
L 119.32626 73.088472 
L 119.413271 67.011798 
L 119.404586 74.459022 
L 119.446235 71.68146 
L 119.56031 76.617801 
L 119.52754 65.831337 
L 119.565481 74.286957 
L 119.606788 68.012651 
L 119.680582 71.714065 
L 119.71139 74.277574 
L 119.747271 67.92896 
L 119.789902 71.789389 
L 119.89184 66.484369 
L 119.803525 74.851387 
L 119.902006 69.373577 
L 119.932469 76.449636 
L 119.961195 66.496354 
L 120.015156 73.028485 
L 120.021891 73.689971 
L 120.053848 67.920622 
L 120.08911 68.473645 
L 120.199524 67.499221 
L 120.176153 75.37265 
L 120.201192 67.885833 
L 120.219531 74.461839 
L 120.211196 66.661577 
L 120.317611 70.636541 
L 120.355712 64.700001 
L 120.373909 76.582711 
L 120.426749 72.367881 
L 120.489312 67.298476 
L 120.461348 74.928163 
L 120.536924 71.380234 
L 120.602408 74.759358 
L 120.594233 68.206014 
L 120.644854 69.363345 
L 120.727851 74.124915 
L 120.698598 67.735532 
L 120.748949 69.060887 
L 120.752193 67.591587 
L 120.778126 74.574295 
L 120.855723 71.417629 
L 120.897626 74.930495 
L 120.928192 67.435793 
L 120.939441 69.162731 
L 120.942653 67.359983 
L 120.984373 75.213751 
L 121.045186 71.796739 
L 121.048383 74.776937 
L 121.110592 67.631419 
L 121.155132 71.75885 
L 121.212252 74.788485 
L 121.172605 66.621566 
L 121.245496 70.325827 
L 121.25182 67.793445 
L 121.266048 74.625285 
L 121.352756 71.407435 
L 121.418716 76.181921 
L 121.376337 66.813517 
L 121.446913 68.604057 
L 121.468818 66.998287 
L 121.515678 75.697638 
L 121.517239 75.750096 
L 121.525036 72.77129 
L 121.618373 66.58422 
L 121.629232 73.514592 
L 121.636987 70.225959 
L 121.658681 73.237942 
L 121.73288 67.496724 
L 121.745219 69.077573 
L 121.746761 68.994082 
L 121.75601 73.7548 
L 121.845188 75.086767 
L 121.799114 67.560191 
L 121.854393 68.751437 
L 121.857459 68.282985 
L 121.868187 74.391284 
L 121.955336 70.764863 
L 121.95991 75.424684 
L 121.976681 67.392791 
L 122.067901 72.112485 
L 122.070933 73.860215 
L 122.110324 68.788175 
L 122.176808 71.869148 
L 122.247575 67.001023 
L 122.261097 75.729018 
L 122.291112 69.630298 
L 122.324077 73.212359 
L 122.34054 68.853205 
L 122.407738 70.972176 
L 122.476197 66.747918 
L 122.424131 75.185139 
L 122.516264 72.791056 
L 122.557733 67.964482 
L 122.588776 74.322357 
L 122.628617 72.210393 
L 122.680144 74.562217 
L 122.718333 66.0396 
L 122.735933 70.821094 
L 122.775477 73.427741 
L 122.82224 67.726651 
L 122.826618 68.473297 
L 122.829538 67.541871 
L 122.868892 73.671309 
L 122.932858 70.832336 
L 122.973457 68.558742 
L 123.047189 74.036365 
L 123.143633 68.738763 
L 123.11777 74.037548 
L 123.166596 71.657785 
L 123.215298 74.442615 
L 123.195259 66.610476 
L 123.261029 67.677385 
L 123.31377 66.514859 
L 123.288129 73.297014 
L 123.360692 71.301024 
L 123.373468 76.95063 
L 123.366371 68.35144 
L 123.410332 69.839511 
L 123.414581 66.475999 
L 123.461264 74.161653 
L 123.520514 70.078117 
L 123.536004 75.70407 
L 123.575374 68.147791 
L 123.638484 73.085028 
L 123.759927 65.859026 
L 123.737649 74.766957 
L 123.762709 67.460003 
L 123.797461 73.668275 
L 123.859865 67.110824 
L 123.875088 69.869968 
L 123.949651 68.502403 
L 123.915168 73.579999 
L 123.978572 71.302848 
L 124.030795 75.81991 
L 124.067818 67.167902 
L 124.085619 71.356087 
L 124.091094 67.645771 
L 124.138925 73.103299 
L 124.194808 72.636166 
L 124.200252 75.999963 
L 124.273593 66.340375 
L 124.300686 71.515377 
L 124.323688 67.581431 
L 124.375003 74.218046 
L 124.414074 69.837654 
L 124.493327 73.735199 
L 124.440976 67.893758 
L 124.51878 68.804867 
L 124.54019 67.855896 
L 124.597612 74.447324 
L 124.624263 70.417096 
L 124.669487 75.908134 
L 124.653535 66.386092 
L 124.733153 71.258825 
L 124.834859 67.267666 
L 124.792657 73.760972 
L 124.844078 71.423356 
L 124.947832 74.740362 
L 124.912433 67.071095 
L 124.954381 71.055659 
L 125.010605 68.826818 
L 125.048433 72.684748 
L 125.058857 72.485024 
L 125.140742 73.871465 
L 125.103092 65.265618 
L 125.167962 72.238932 
L 125.177025 68.043244 
L 125.257132 73.633594 
L 125.275175 73.252639 
L 125.326637 74.285928 
L 125.320212 67.72822 
L 125.368991 69.248767 
L 125.3754 68.707013 
L 125.38437 74.160592 
L 125.386933 75.485122 
L 125.420208 66.385728 
L 125.487863 70.290554 
L 125.496782 67.827681 
L 125.505695 73.731586 
L 125.589547 72.826994 
L 125.603485 67.468579 
L 125.661677 73.890219 
L 125.664202 74.90549 
L 125.752408 68.467842 
L 125.770004 72.052878 
L 125.816425 66.854375 
L 125.791346 73.711402 
L 125.881484 70.792596 
L 125.967479 74.438552 
L 125.955039 67.235705 
L 125.992334 71.144676 
L 126.01716 68.226912 
L 126.034518 73.404623 
L 126.036998 75.650573 
L 126.050622 67.555229 
L 126.144511 72.293572 
L 126.213406 68.315196 
L 126.188828 73.394594 
L 126.258793 69.956705 
L 126.284506 75.177504 
L 126.334614 67.759883 
L 126.361447 69.850693 
L 126.365103 68.075412 
L 126.378505 74.528747 
L 126.465993 73.191808 
L 126.554298 74.0158 
L 126.53377 68.659006 
L 126.563953 71.076017 
L 126.574807 67.188545 
L 126.609741 75.245688 
L 126.673426 71.950055 
L 126.759613 73.746934 
L 126.775135 68.419309 
L 126.778715 68.889965 
L 126.779908 68.746291 
L 126.79422 73.763466 
L 126.872757 70.885982 
L 126.965168 74.654477 
L 126.975803 68.036807 
L 126.982888 71.412269 
L 127.063027 68.009932 
L 127.0442 74.283643 
L 127.091233 72.014287 
L 127.203654 73.901657 
L 127.17444 68.11691 
L 127.204822 73.669493 
L 127.261952 68.106553 
L 127.321238 69.143944 
L 127.351394 68.105853 
L 127.357189 73.487913 
L 127.418499 71.341341 
L 127.448507 74.613093 
L 127.461188 67.631121 
L 127.524473 70.427773 
L 127.52677 69.067173 
L 127.555464 73.249713 
L 127.634447 70.351442 
L 127.684647 73.443486 
L 127.666407 67.729496 
L 127.747217 71.058121 
L 127.825431 68.387684 
L 127.768785 74.11972 
L 127.855954 70.828118 
L 127.928112 73.695861 
L 127.92136 69.312255 
L 127.967462 72.207665 
L 128.007854 68.260643 
L 128.030258 73.005497 
L 128.087273 70.093034 
L 128.141897 73.771182 
L 128.151914 67.802092 
L 128.196368 70.057555 
L 128.258439 67.694126 
L 128.230753 73.720005 
L 128.304862 70.750082 
L 128.317002 74.013738 
L 128.406169 68.49621 
L 128.413857 70.154622 
L 128.448958 68.049872 
L 128.431414 73.449383 
L 128.50805 71.578241 
L 128.599619 73.817525 
L 128.558248 68.43048 
L 128.615926 70.10066 
L 128.619185 67.695314 
L 128.645244 73.635331 
L 128.725374 71.260964 
L 128.801947 72.833445 
L 128.819163 68.544493 
L 128.848179 73.441111 
L 128.872864 68.190809 
L 128.959548 71.14273 
L 129.024577 67.586186 
L 129.046915 73.927506 
L 129.069225 71.541082 
L 129.155048 74.513372 
L 129.076657 68.266098 
L 129.173014 69.804738 
L 129.203621 68.678939 
L 129.228916 74.801149 
L 129.284659 69.305367 
L 129.315095 72.673327 
L 129.398808 70.637328 
L 129.402984 68.190272 
L 129.435321 73.240021 
L 129.509181 70.437908 
L 129.514372 73.783032 
L 129.522676 68.758179 
L 129.622036 71.167252 
L 129.644734 67.466441 
L 129.674616 73.708082 
L 129.735269 70.100286 
L 129.768089 73.094994 
L 129.752712 69.144796 
L 129.865199 71.495225 
L 129.917133 67.816596 
L 129.888638 73.249385 
L 129.972988 72.957891 
L 130.014522 73.207775 
L 129.979072 69.202905 
L 130.039805 69.583121 
L 130.083215 68.75198 
L 130.058997 73.014499 
L 130.147649 70.545869 
L 130.195834 74.031121 
L 130.171755 67.929654 
L 130.2579 70.167373 
L 130.276881 69.02188 
L 130.264897 72.919156 
L 130.359585 71.152042 
L 130.442931 74.417478 
L 130.42411 68.235929 
L 130.457777 69.851767 
L 130.559419 68.673548 
L 130.487436 73.374561 
L 130.564339 71.104874 
L 130.663473 72.573004 
L 130.625253 68.754933 
L 130.674241 70.667243 
L 130.727985 67.982199 
L 130.703573 72.735979 
L 130.772823 72.731631 
L 130.824356 68.093612 
L 130.806869 73.834803 
L 130.880597 72.48989 
L 130.982006 73.93736 
L 130.938608 67.881615 
L 130.988747 70.816719 
L 131.025307 73.722144 
L 130.997413 68.667387 
L 131.095348 70.474754 
L 131.195655 68.896522 
L 131.184217 73.942471 
L 131.198513 71.751706 
L 131.206134 73.107443 
L 131.235635 68.647509 
L 131.308721 71.641162 
L 131.380592 67.120899 
L 131.372094 73.801561 
L 131.423023 70.587563 
L 131.456902 69.115505 
L 131.441852 73.685227 
L 131.514176 71.955624 
L 131.578761 73.885348 
L 131.550707 68.471582 
L 131.624496 71.873911 
L 131.685002 68.243034 
L 131.673845 72.786163 
L 131.732345 72.506679 
L 131.733273 72.502885 
L 131.734199 72.807544 
L 131.829459 73.834971 
L 131.803608 68.50991 
L 131.844215 72.326708 
L 131.879216 68.072557 
L 131.905886 74.146562 
L 131.956368 71.357091 
L 132.021343 73.532445 
L 132.035956 68.339346 
L 132.067883 72.360995 
L 132.074263 68.745363 
L 132.090657 72.78413 
L 132.181489 70.990111 
L 132.219513 73.728337 
L 132.28182 68.692145 
L 132.292638 71.645227 
L 132.378056 68.454684 
L 132.366388 73.344231 
L 132.406744 70.165283 
L 132.50861 73.16534 
L 132.454169 69.160652 
L 132.518412 71.48277 
L 132.523756 68.541986 
L 132.621473 72.865056 
L 132.630331 71.097369 
L 132.648923 72.479332 
L 132.638303 68.336122 
L 132.739857 70.838697 
L 132.74338 68.000096 
L 132.754824 72.777258 
L 132.851402 70.544517 
L 132.853154 70.864503 
L 132.883781 73.653638 
L 132.941405 68.637114 
L 132.964929 71.843869 
L 133.042276 68.870651 
L 132.972766 73.008515 
L 133.077804 69.82118 
L 133.108084 72.965176 
L 133.133999 67.803645 
L 133.193478 72.218983 
L 133.211544 68.940685 
L 133.223578 72.760591 
L 133.304193 72.39078 
L 133.305905 73.074698 
L 133.329853 68.223807 
L 133.41514 72.511755 
L 133.498365 72.795594 
L 133.462741 69.396061 
L 133.507684 69.421899 
L 133.5863 68.854676 
L 133.570264 72.70439 
L 133.600637 71.781217 
L 133.705733 73.712493 
L 133.693992 68.754846 
L 133.710765 71.477209 
L 133.781057 69.082003 
L 133.759327 72.259692 
L 133.82111 71.837732 
L 133.919231 73.254205 
L 133.843606 68.800693 
L 133.923379 70.600113 
L 134.007784 68.8636 
L 133.955694 72.449325 
L 134.026766 72.103458 
L 134.028416 72.79985 
L 134.106622 68.814703 
L 134.136998 71.580274 
L 134.141918 72.53375 
L 134.163229 69.286596 
L 134.241717 71.16226 
L 134.310138 68.345366 
L 134.303632 72.634934 
L 134.353186 69.633207 
L 134.409895 72.740325 
L 134.383181 68.500829 
L 134.466443 71.682182 
L 134.571029 69.542882 
L 134.558992 73.135189 
L 134.57825 71.229562 
L 134.591081 72.552689 
L 134.607104 67.85119 
L 134.687033 70.444036 
L 134.732447 68.90499 
L 134.752331 72.717453 
L 134.763456 72.435185 
L 134.764252 72.698666 
L 134.863315 68.913344 
L 134.865689 68.415314 
L 134.87912 72.92447 
L 134.964243 71.641509 
L 135.053696 73.636468 
L 134.976822 69.538067 
L 135.069349 70.004267 
L 135.181674 69.069556 
L 135.16689 73.302828 
L 135.182451 69.225524 
L 135.204992 72.87395 
L 135.297227 71.624969 
L 135.379788 67.755562 
L 135.397491 73.104965 
L 135.41364 69.529893 
L 135.425167 72.852864 
L 135.514077 69.442553 
L 135.527074 70.473457 
L 135.60335 72.870604 
L 135.576688 69.180095 
L 135.642137 71.161359 
L 135.717211 69.000021 
L 135.733857 72.549063 
L 135.755019 70.621304 
L 135.843957 72.4026 
L 135.782196 69.427973 
L 135.866504 71.612151 
L 135.890527 69.251937 
L 135.971385 72.65222 
L 136.038513 73.222222 
L 136.062326 68.665287 
L 136.079422 72.112059 
L 136.11654 68.474839 
L 136.178739 72.924245 
L 136.19352 70.10091 
L 136.197212 72.701358 
L 136.230421 69.315186 
L 136.301816 70.014293 
L 136.392704 69.064524 
L 136.33118 72.590748 
L 136.410977 71.012201 
L 136.502091 72.368274 
L 136.480992 69.039277 
L 136.523168 71.858826 
L 136.58482 69.052582 
L 136.570331 73.500055 
L 136.634724 71.196317 
L 136.665761 73.751315 
L 136.686662 68.953892 
L 136.744212 70.494448 
L 136.849518 72.32417 
L 136.770054 69.477847 
L 136.852377 70.635553 
L 136.920837 69.337024 
L 136.898043 72.483458 
L 136.964214 70.18635 
L 136.979832 73.023057 
L 137.013162 69.509092 
L 137.079651 71.217807 
L 137.086008 69.334494 
L 137.136062 72.19717 
L 137.178966 71.576743 
L 137.188098 72.971408 
L 137.210558 69.080428 
L 137.291059 72.471057 
L 137.350348 72.758894 
L 137.304329 69.283627 
L 137.394177 71.457268 
L 137.428893 69.630086 
L 137.483617 72.253403 
L 137.507124 69.875223 
L 137.514032 69.638342 
L 137.525771 71.384156 
L 137.591237 72.93835 
L 137.578161 69.563471 
L 137.636593 71.546844 
L 137.640023 69.242036 
L 137.653745 72.811238 
L 137.748839 71.028898 
L 137.838041 72.998196 
L 137.822408 69.145561 
L 137.852303 69.255107 
L 137.942388 68.754092 
L 137.867232 72.453529 
L 137.957926 71.006203 
L 137.964 73.054348 
L 137.972101 69.448161 
L 138.067684 70.989834 
L 138.13137 68.945701 
L 138.117981 72.824858 
L 138.178168 70.975984 
L 138.24882 72.367533 
L 138.268104 69.439171 
L 138.292017 71.653747 
L 138.364244 69.438363 
L 138.394645 72.411697 
L 138.401909 71.987892 
L 138.484913 72.585298 
L 138.40917 69.431849 
L 138.495429 70.906745 
L 138.536121 69.065501 
L 138.516441 72.600025 
L 138.604844 71.770616 
L 138.638138 68.89796 
L 138.617908 72.18082 
L 138.723399 71.541557 
L 138.761029 72.893915 
L 138.74352 69.441071 
L 138.787588 70.280621 
L 138.790176 69.489675 
L 138.805705 72.432199 
L 138.896681 70.877802 
L 138.951962 72.756256 
L 138.967362 69.727109 
L 139.007091 71.205629 
L 139.113063 69.59724 
L 139.108606 73.018646 
L 139.118154 71.043001 
L 139.144234 72.483023 
L 139.203262 69.709962 
L 139.230494 71.422699 
L 139.308815 69.748817 
L 139.316378 72.2757 
L 139.342825 70.64375 
L 139.38494 72.354321 
L 139.392474 69.362303 
L 139.457644 71.070527 
L 139.561842 69.156743 
L 139.504508 72.333618 
L 139.566197 71.980738 
L 139.640094 72.914094 
L 139.601007 69.018857 
L 139.650008 70.29456 
L 139.729761 69.426627 
L 139.674154 72.125084 
L 139.758121 71.32846 
L 139.780905 72.595767 
L 139.764282 69.528926 
L 139.867482 70.950005 
L 139.952459 69.313053 
L 139.965265 72.157042 
L 139.98111 70.122796 
L 139.996332 72.67694 
L 140.010327 69.306898 
L 140.097111 70.991897 
L 140.135223 69.835233 
L 140.205207 72.231001 
L 140.209423 70.042937 
L 140.306721 71.864398 
L 140.223265 69.363329 
L 140.322889 70.433744 
L 140.324687 69.00844 
L 140.388031 72.098554 
L 140.433324 70.648282 
L 140.481482 71.914061 
L 140.526561 69.769699 
L 140.543733 70.790381 
L 140.571535 69.890308 
L 140.55616 72.176763 
L 140.655291 70.626868 
L 140.675881 69.79044 
L 140.741622 72.104679 
L 140.756266 71.610883 
L 140.826409 72.886191 
L 140.810647 69.308461 
L 140.866044 71.152501 
L 140.884088 69.822363 
L 140.880014 72.006836 
L 140.96884 71.652935 
L 141.012814 72.259852 
L 141.057843 70.032613 
L 141.079743 71.702571 
L 141.116573 69.519351 
L 141.146445 72.279725 
L 141.192887 70.688869 
L 141.204337 72.429293 
L 141.251785 69.634771 
L 141.303104 70.363162 
L 141.332694 72.304903 
L 141.350315 69.753067 
L 141.41837 71.531393 
L 141.444959 69.858004 
L 141.524516 72.13261 
L 141.530147 70.56141 
L 141.613844 72.313789 
L 141.556586 69.537574 
L 141.644089 71.943454 
L 141.674848 72.285212 
L 141.713924 69.55458 
L 141.745129 70.879566 
L 141.806838 69.98884 
L 141.792957 71.653584 
L 141.809612 71.651863 
L 141.843436 72.163352 
L 141.827919 69.514064 
L 141.91919 71.284394 
L 141.959438 69.573671 
L 141.992454 72.282249 
L 142.027062 71.754442 
L 142.084608 72.51692 
L 142.064899 69.463625 
L 142.130526 70.796189 
L 142.169251 69.24456 
L 142.18069 72.262208 
L 142.240504 71.278223 
L 142.308794 69.615891 
L 142.314745 72.117349 
L 142.351489 71.122632 
L 142.440366 71.980808 
L 142.429076 69.87278 
L 142.462388 71.221029 
L 142.553972 69.359491 
L 142.501537 72.037321 
L 142.571597 71.574797 
L 142.605733 71.877979 
L 142.591339 69.854297 
L 142.679138 70.918665 
L 142.759146 69.794945 
L 142.770247 71.968918 
L 142.790848 70.711184 
L 142.890897 70.036624 
L 142.860936 71.730911 
L 142.895624 70.991216 
L 142.988873 72.014156 
L 142.947018 69.976583 
L 143.006633 71.036728 
L 143.010809 72.185831 
L 143.069712 70.172079 
L 143.10819 70.213257 
L 143.145035 69.934292 
L 143.165763 72.411092 
L 143.199402 71.231744 
L 143.248975 72.245435 
L 143.260319 69.349123 
L 143.301512 70.424924 
L 143.349289 69.439112 
L 143.315907 72.040087 
L 143.412301 70.526013 
L 143.453177 72.53119 
L 143.447561 69.689769 
L 143.525522 71.345095 
L 143.540263 69.274372 
L 143.53264 72.236432 
L 143.63708 71.199832 
L 143.684051 70.194481 
L 143.751529 72.053722 
L 143.851816 69.751417 
L 143.876808 71.281621 
L 143.937156 71.954821 
L 143.977451 69.766116 
L 144.031545 69.563716 
L 143.991858 72.432324 
L 144.08549 70.193298 
L 144.10772 71.680277 
L 144.158502 69.954132 
L 144.200311 71.243756 
L 144.207681 69.698633 
L 144.271429 71.939418 
L 144.314464 70.65821 
L 144.388577 71.821054 
L 144.397335 69.824328 
L 144.4265 71.211608 
L 144.501644 70.080294 
L 144.497771 71.742261 
L 144.537417 71.193861 
L 144.5765 71.819789 
L 144.607808 69.980784 
L 144.631855 70.516133 
L 144.658755 69.884597 
L 144.725364 71.924219 
L 144.740188 70.830273 
L 144.838891 71.701751 
L 144.781255 70.169387 
L 144.850778 70.830273 
L 144.89446 70.204854 
L 144.935207 71.716996 
L 144.958858 70.915978 
L 145.033409 72.025539 
L 145.016447 70.123746 
L 145.070577 71.081999 
L 145.154536 69.872145 
L 145.147046 72.042641 
L 145.180731 71.248047 
L 145.181196 71.250824 
L 145.184 70.608933 
L 145.244197 70.196327 
L 145.209688 71.585056 
L 145.292592 71.374776 
L 145.356161 72.106709 
L 145.325099 70.202694 
L 145.36172 70.587194 
L 145.367739 70.094516 
L 145.430145 71.611079 
L 145.471637 70.735975 
L 145.563073 71.607094 
L 145.574987 70.108379 
L 145.583233 70.836716 
L 145.614347 70.070398 
L 145.661385 71.562982 
L 145.695107 70.593219 
L 145.740588 71.719197 
L 145.733318 70.041955 
L 145.80997 70.762578 
L 145.8755 70.026511 
L 145.846151 71.866298 
L 145.922365 70.226931 
L 145.922816 70.157325 
L 145.971813 71.92768 
L 146.027854 71.067028 
L 146.075251 70.116163 
L 146.10738 71.799651 
L 146.108272 72.045406 
L 146.195022 69.975123 
L 146.21543 70.457509 
L 146.319801 70.042715 
L 146.290227 71.906613 
L 146.322005 70.759772 
L 146.325534 71.786496 
L 146.409575 69.835195 
L 146.433708 71.030421 
L 146.496755 72.067928 
L 146.488447 70.023488 
L 146.543907 70.894733 
L 146.593556 70.147234 
L 146.646118 71.696106 
L 146.655226 70.690769 
L 146.705891 71.652857 
L 146.711513 70.133588 
L 146.767209 70.953308 
L 146.830914 71.884192 
L 146.85754 70.181405 
L 146.874699 70.726643 
L 146.923091 70.135694 
L 146.934209 72.096458 
L 146.984589 70.855362 
L 146.992263 71.899519 
L 147.001211 70.201017 
L 147.09641 71.054525 
L 147.128184 69.886584 
L 147.204227 71.727255 
L 147.204649 71.774727 
L 147.263169 70.08316 
L 147.309777 71.168229 
L 147.385539 69.798859 
L 147.394311 71.729076 
L 147.421436 71.09735 
L 147.453102 71.660616 
L 147.440192 69.968566 
L 147.532049 70.997084 
L 147.586708 71.763385 
L 147.581746 70.340271 
L 147.639155 70.625104 
L 147.642042 70.080202 
L 147.68529 71.72887 
L 147.749371 70.796102 
L 147.778058 71.713503 
L 147.824278 70.136948 
L 147.860197 70.831912 
L 147.934273 70.237163 
L 147.925336 71.532508 
L 147.969182 71.118764 
L 148.055776 71.665301 
L 147.974048 70.376526 
L 148.08039 71.271964 
L 148.172918 71.603615 
L 148.164488 70.389418 
L 148.188164 70.899379 
L 148.281784 70.17285 
L 148.278192 71.497356 
L 148.298938 70.932534 
L 148.362245 71.552169 
L 148.311696 70.369491 
L 148.409095 70.797101 
L 148.510349 70.00716 
L 148.499301 71.769875 
L 148.515478 71.499483 
L 148.559207 71.6684 
L 148.545823 70.316034 
L 148.622858 70.903076 
L 148.650295 70.360399 
L 148.721068 71.582537 
L 148.734333 70.800749 
L 148.739794 70.340846 
L 148.791975 71.531227 
L 148.841692 70.901056 
L 148.90714 71.445978 
L 148.857589 70.396263 
L 148.950779 70.616001 
L 148.953478 70.292726 
L 148.963119 71.564198 
L 149.05696 70.874306 
L 149.143484 71.454657 
L 149.082269 70.421064 
L 149.16906 71.180836 
L 149.215928 71.474595 
L 149.226202 70.34216 
L 149.271795 70.807551 
L 149.339232 70.469918 
L 149.330151 71.378997 
L 149.354353 71.097388 
L 149.355866 71.552503 
L 149.410584 70.350058 
L 149.464396 70.818597 
L 149.47717 70.320084 
L 149.559246 71.587366 
L 149.574573 70.863347 
L 149.608922 71.584755 
L 149.635763 70.338236 
L 149.688593 71.420547 
L 149.76091 70.413807 
L 149.752763 71.567973 
L 149.800109 71.28614 
L 149.828902 71.483736 
L 149.835173 70.606523 
L 149.907321 70.942539 
L 150.011391 70.292487 
L 149.953929 71.359518 
L 150.016873 71.153312 
L 150.017969 71.478636 
L 150.058481 70.434048 
L 150.127635 71.077841 
L 150.17336 70.357962 
L 150.167195 71.652211 
L 150.237051 71.19712 
L 150.324294 71.604141 
L 150.321773 70.366641 
L 150.347658 71.184554 
L 150.394308 70.348473 
L 150.388572 71.32624 
L 150.461577 70.789768 
L 150.566668 71.378706 
L 150.556361 70.503638 
L 150.573063 70.9153 
L 150.634056 71.409712 
L 150.628036 70.511926 
L 150.683563 70.885168 
L 150.777635 70.529921 
L 150.696978 71.260576 
L 150.783611 71.072199 
L 150.785367 71.44125 
L 150.795905 70.5263 
L 150.894334 71.043033 
L 150.935522 71.49035 
L 150.925059 70.32524 
L 150.985319 70.782157 
L 151.081077 70.576712 
L 151.088689 71.389408 
L 151.093531 71.19623 
L 151.150864 71.403483 
L 151.160864 70.295125 
L 151.20012 71.037798 
L 151.209404 70.647322 
L 151.218344 71.382957 
L 151.313657 70.891839 
L 151.324257 71.372638 
L 151.333483 70.315714 
L 151.42552 71.04207 
L 151.45135 70.510971 
L 151.458143 71.453773 
L 151.53743 70.82345 
L 151.648029 71.561788 
L 151.557708 70.5547 
L 151.650049 71.062558 
L 151.75266 70.360057 
L 151.665507 71.351891 
L 151.763694 70.834501 
L 151.839427 70.328828 
L 151.789752 71.407012 
L 151.844423 71.089843 
L 151.845754 71.495277 
L 151.907905 70.621131 
L 151.954305 70.668937 
L 152.000267 71.249529 
L 152.06654 70.704632 
L 152.067857 70.520389 
L 152.13587 71.365806 
L 152.175191 70.998411 
L 152.245116 71.325355 
L 152.238265 70.442679 
L 152.284869 70.784611 
L 152.286824 70.50386 
L 152.31057 71.347451 
L 152.393617 71.216743 
L 152.484372 71.541519 
L 152.439532 70.310568 
L 152.492104 70.630782 
L 152.492426 70.617032 
L 152.527824 71.397697 
L 152.597789 70.84184 
L 152.675806 71.314942 
L 152.644828 70.567283 
L 152.709283 70.96081 
L 152.710875 70.592904 
L 152.728068 71.300891 
L 152.820779 70.822114 
L 152.844839 71.358953 
L 152.922827 70.580083 
L 152.932907 70.965326 
L 152.964062 70.460435 
L 152.972236 71.348854 
L 153.045337 70.738965 
L 153.137812 70.53872 
L 153.133136 71.279306 
L 153.15121 70.972725 
L 153.177356 71.275017 
L 153.186683 70.555906 
L 153.262709 71.103975 
L 153.310346 70.620973 
L 153.274474 71.215381 
L 153.37512 70.97197 
L 153.397279 71.196944 
L 153.400047 70.593083 
L 153.481684 70.828444 
L 153.545283 70.528873 
L 153.537651 71.276138 
L 153.591327 70.974516 
L 153.658218 71.338728 
L 153.664591 70.561741 
L 153.69582 70.855872 
L 153.754804 70.532315 
L 153.702786 71.307969 
L 153.805783 71.035621 
L 153.870446 70.626738 
L 153.86324 71.243404 
L 153.918132 70.925342 
L 153.960022 71.272754 
L 153.953147 70.655106 
L 154.026861 70.834083 
L 154.114838 70.622287 
L 154.051867 71.188047 
L 154.137953 70.831668 
L 154.232511 71.261458 
L 154.241059 70.626157 
L 154.252252 71.057714 
L 154.364423 70.669295 
L 154.284031 71.262964 
L 154.364716 70.683294 
L 154.457607 71.26405 
L 154.463726 70.638056 
L 154.477121 70.867081 
L 154.519001 71.199954 
L 154.548029 70.70987 
L 154.589756 71.00772 
L 154.641214 70.686252 
L 154.637749 71.29701 
L 154.699158 71.04436 
L 154.810529 71.247667 
L 154.708655 70.722985 
L 154.811103 71.203914 
L 154.862555 70.662613 
L 154.872259 71.269603 
L 154.923835 70.875875 
L 154.937775 70.730829 
L 154.930095 71.24615 
L 155.02262 71.022211 
L 155.07917 71.174292 
L 155.125701 70.682203 
L 155.126546 70.580674 
L 155.193467 71.247293 
L 155.235244 70.965038 
L 155.272465 71.217237 
L 155.276656 70.705425 
L 155.346411 70.976484 
L 155.366176 70.641204 
L 155.382586 71.19778 
L 155.458614 70.890341 
L 155.516406 71.212941 
L 155.48518 70.591124 
L 155.569902 71.000965 
L 155.585591 70.648689 
L 155.593019 71.19781 
L 155.681659 70.877634 
L 155.718589 71.173201 
L 155.767991 70.706472 
L 155.785975 70.779443 
L 155.787065 70.635846 
L 155.79251 71.222733 
L 155.897054 70.771165 
L 155.919248 71.144212 
L 155.911132 70.760732 
L 156.012893 70.965684 
L 156.041142 70.731513 
L 156.035226 71.124852 
L 156.12377 70.985372 
L 156.1727 71.259373 
L 156.131799 70.678919 
L 156.23429 70.968219 
L 156.23988 70.726795 
L 156.326447 71.228452 
L 156.344456 70.991571 
L 156.347103 71.172799 
L 156.354249 70.663161 
L 156.456379 71.084776 
L 156.563999 70.633773 
L 156.558501 71.190194 
L 156.56845 70.964797 
L 156.678845 71.179549 
L 156.59983 70.744177 
L 156.679886 71.057673 
L 156.731864 70.744318 
L 156.76998 71.215579 
L 156.79121 71.005367 
L 156.806212 70.728142 
L 156.856568 71.149955 
L 156.904993 70.968439 
L 156.974847 71.193823 
L 157.003026 70.725254 
L 157.01403 70.882807 
L 157.123989 70.69643 
L 157.079162 71.125981 
L 157.125516 70.846324 
L 157.201688 71.13899 
L 157.207261 70.789866 
L 157.237638 70.991047 
L 157.288163 70.791532 
L 157.274281 71.123528 
L 157.335285 71.03396 
L 157.40789 71.118762 
L 157.399362 70.707189 
L 157.445719 70.996006 
L 157.512429 70.737234 
L 157.52016 71.13075 
L 157.557525 70.995919 
L 157.649139 71.129694 
L 157.654835 70.791342 
L 157.668698 71.002623 
L 157.708003 71.116903 
L 157.732191 70.789676 
L 157.776293 70.895921 
L 157.795725 70.812876 
L 157.82226 71.134034 
L 157.887951 70.829432 
L 157.940004 71.097893 
L 157.895289 70.800597 
L 157.999951 70.921803 
L 158.018191 71.111835 
L 158.100909 70.74904 
L 158.109622 70.90915 
L 158.169537 70.727137 
L 158.163987 71.085761 
L 158.219887 71.003022 
L 158.222293 71.054576 
L 158.228065 70.80995 
L 158.229027 70.741093 
L 158.23528 71.18701 
L 158.338147 70.897745 
L 158.42239 71.09066 
L 158.365631 70.772588 
L 158.449519 70.94104 
L 158.51765 71.111181 
L 158.472571 70.730921 
L 158.560261 70.938972 
L 158.587673 70.771763 
L 158.594756 71.088193 
L 158.670148 70.96715 
L 158.740799 71.06692 
L 158.773107 70.804261 
L 158.781993 71.001806 
L 158.810032 70.722382 
L 158.886464 71.087683 
L 158.894603 70.901377 
L 158.900413 71.142901 
L 158.990613 70.830262 
L 159.007031 70.999678 
L 159.09053 70.776382 
L 159.057819 71.10315 
L 159.11882 70.937061 
L 159.129389 71.061266 
L 159.182611 70.844017 
L 159.230661 71.017971 
L 159.31185 70.779134 
L 159.304566 71.092248 
L 159.342096 70.974665 
L 159.427805 71.114604 
L 159.421242 70.800798 
L 159.450869 70.880554 
L 159.535655 70.78016 
L 159.532053 71.108217 
L 159.560389 71.006311 
L 159.56129 71.091135 
L 159.567805 70.804576 
L 159.671092 70.97096 
L 159.738462 71.05859 
L 159.683155 70.830604 
L 159.757604 70.866978 
L 159.792946 70.796146 
L 159.786283 71.061597 
L 159.866097 70.958291 
L 159.96607 71.073244 
L 159.960565 70.785235 
L 159.977512 70.999252 
L 159.986311 70.854759 
L 160.056992 71.065856 
L 160.088957 70.977615 
L 160.160142 71.070079 
L 160.165156 70.831836 
L 160.197813 70.946892 
L 160.20173 70.819541 
L 160.25039 71.052394 
L 160.307586 70.989948 
L 160.322724 71.094063 
L 160.311263 70.839946 
L 160.418253 70.961106 
L 160.454146 71.060968 
L 160.426641 70.845808 
L 160.526589 70.91885 
L 160.626243 70.867141 
L 160.532364 71.025025 
L 160.637307 70.956809 
L 160.674925 71.055868 
L 160.654532 70.845521 
L 160.749099 70.991669 
L 160.817304 70.830197 
L 160.769184 71.042439 
L 160.861098 70.945111 
L 160.898081 70.84982 
L 160.874135 71.035021 
L 160.969953 70.954635 
L 160.971835 71.065006 
L 160.977273 70.794583 
L 161.080911 70.955563 
L 161.12848 70.936182 
L 161.097957 70.960831 
L 161.192693 70.94566 
L 161.297672 70.957048 
L 161.212743 70.937849 
L 161.304254 70.947614 
L 161.4113 70.940937 
L 161.312066 70.957279 
L 161.415798 70.945757 
L 161.51512 70.957138 
L 161.465215 70.936302 
L 161.527118 70.952931 
L 161.622643 70.939678 
L 161.541345 70.958109 
L 161.63862 70.9437 
L 161.747281 70.958316 
L 161.721127 70.936622 
L 161.749895 70.95625 
L 161.851143 70.938576 
L 161.80309 70.959955 
L 161.861341 70.947961 
L 161.969375 70.958676 
L 161.870532 70.942289 
L 161.973351 70.946914 
L 162.070491 70.939982 
L 161.981498 70.95688 
L 162.084924 70.947858 
L 162.163807 70.958595 
L 162.098156 70.939814 
L 162.196258 70.951405 
L 162.45626 70.943554 
L 162.197043 70.958845 
L 162.456839 70.945535 
L 162.457035 70.960297 
L 162.459361 70.936806 
L 162.56802 70.951715 
L 162.675698 70.93875 
L 162.637885 70.963499 
L 162.679149 70.944444 
L 162.716692 70.960557 
L 162.778784 70.93394 
L 162.790223 70.943716 
L 162.88114 70.959911 
L 162.879432 70.938543 
L 162.901623 70.954394 
L 163.018799 70.944482 
L 163.019742 70.950651 
L 163.129662 70.960433 
L 163.022191 70.940177 
L 163.131351 70.951234 
L 163.21921 70.932958 
L 163.133597 70.958486 
L 163.242324 70.949698 
L 163.350268 70.958196 
L 163.252382 70.940856 
L 163.35453 70.948618 
L 163.472356 70.952678 
L 163.356752 70.93483 
L 163.47254 70.948835 
L 163.580695 70.941616 
L 163.488186 70.959141 
L 163.583991 70.947098 
L 163.626604 70.958272 
L 163.592228 70.939233 
L 163.694994 70.950681 
L 163.793419 70.938077 
L 163.714827 70.958676 
L 163.805916 70.952594 
L 163.88234 70.96075 
L 163.815869 70.940156 
L 163.916571 70.945334 
L 164.027507 70.940411 
L 163.921792 70.958576 
L 164.027685 70.945475 
L 164.049689 70.96053 
L 164.127846 70.934092 
L 164.138885 70.951237 
L 164.239544 70.940014 
L 164.165031 70.959388 
L 164.250166 70.94655 
L 164.348672 70.960205 
L 164.250873 70.941485 
L 164.361522 70.947978 
L 164.438273 70.935791 
L 164.387374 70.95875 
L 164.472427 70.95394 
L 164.551884 70.959971 
L 164.477502 70.936703 
L 164.58271 70.946838 
L 164.646466 70.937045 
L 164.605836 70.958592 
L 164.693931 70.941779 
L 164.760432 70.960408 
L 164.697911 70.939982 
L 164.805732 70.950119 
L 164.910911 70.936785 
L 164.808484 70.96126 
L 164.917585 70.945633 
L 164.967642 70.959971 
L 164.926478 70.939282 
L 165.028801 70.949411 
L 165.126873 70.940943 
L 165.047844 70.957718 
L 165.139902 70.948005 
L 165.262482 70.953452 
L 165.146497 70.936996 
L 165.263323 70.952089 
L 165.346681 70.938006 
L 165.319883 70.960139 
L 165.374444 70.948759 
L 165.490922 70.955433 
L 165.377618 70.942598 
L 165.493912 70.944341 
L 165.592503 70.939249 
L 165.505703 70.959697 
L 165.60506 70.948026 
L 165.713449 70.938782 
L 165.609685 70.956638 
L 165.71854 70.944509 
L 165.722646 70.959711 
L 165.743487 70.936166 
L 165.790505 70.950439 
" clip-path="url(#p24f08bd5ec)" style="fill: none; stroke: #808080; stroke-linecap: square"/>
   </g>
   <g id="line2d_3">
    <path d="M 57.377031 25.41395 
L 165.790668 25.41395 
" clip-path="url(#p24f08bd5ec)" style="fill: none; stroke-dasharray: 6.4,1.6,1,1.6; stroke-dashoffset: 0; stroke: #808080"/>
   </g>
   <g id="matplotlib.axis_1">
    <g id="xtick_1">
     <g id="line2d_4">
      <defs>
       <path id="mf1960117bc" d="M 0 0 
L 0 6 
" style="stroke: #000000"/>
      </defs>
      <g>
       <use xlink:href="#mf1960117bc" x="57.377031" y="116.483699" style="stroke: #000000"/>
      </g>
     </g>
     <g id="text_1">
      <!-- $\mathdefault{10^{1}}$ -->
      <g transform="translate(44.032031 140.014949)scale(0.17 -0.17)">
       <defs>
        <path id="ArialMT-31" d="M 2384 0 
L 1822 0 
L 1822 3584 
Q 1619 3391 1289 3197 
Q 959 3003 697 2906 
L 697 3450 
Q 1169 3672 1522 3987 
Q 1875 4303 2022 4600 
L 2384 4600 
L 2384 0 
z
" transform="scale(0.015625)"/>
        <path id="ArialMT-30" d="M 266 2259 
Q 266 3072 433 3567 
Q 600 4063 929 4331 
Q 1259 4600 1759 4600 
Q 2128 4600 2406 4451 
Q 2684 4303 2865 4023 
Q 3047 3744 3150 3342 
Q 3253 2941 3253 2259 
Q 3253 1453 3087 958 
Q 2922 463 2592 192 
Q 2263 -78 1759 -78 
Q 1097 -78 719 397 
Q 266 969 266 2259 
z
M 844 2259 
Q 844 1131 1108 757 
Q 1372 384 1759 384 
Q 2147 384 2411 759 
Q 2675 1134 2675 2259 
Q 2675 3391 2411 3762 
Q 2147 4134 1753 4134 
Q 1366 4134 1134 3806 
Q 844 3388 844 2259 
z
" transform="scale(0.015625)"/>
       </defs>
       <use xlink:href="#ArialMT-31" transform="translate(0 0.99375)"/>
       <use xlink:href="#ArialMT-30" transform="translate(55.615234 0.99375)"/>
       <use xlink:href="#ArialMT-31" transform="translate(112.972813 70.6875)scale(0.7)"/>
      </g>
     </g>
    </g>
    <g id="xtick_2">
     <g id="line2d_5">
      <g>
       <use xlink:href="#mf1960117bc" x="102.588186" y="116.483699" style="stroke: #000000"/>
      </g>
     </g>
     <g id="text_2">
      <!-- $\mathdefault{10^{2}}$ -->
      <g transform="translate(89.243186 140.014949)scale(0.17 -0.17)">
       <defs>
        <path id="ArialMT-32" d="M 3222 541 
L 3222 0 
L 194 0 
Q 188 203 259 391 
Q 375 700 629 1000 
Q 884 1300 1366 1694 
Q 2113 2306 2375 2664 
Q 2638 3022 2638 3341 
Q 2638 3675 2398 3904 
Q 2159 4134 1775 4134 
Q 1369 4134 1125 3890 
Q 881 3647 878 3216 
L 300 3275 
Q 359 3922 746 4261 
Q 1134 4600 1788 4600 
Q 2447 4600 2831 4234 
Q 3216 3869 3216 3328 
Q 3216 3053 3103 2787 
Q 2991 2522 2730 2228 
Q 2469 1934 1863 1422 
Q 1356 997 1212 845 
Q 1069 694 975 541 
L 3222 541 
z
" transform="scale(0.015625)"/>
       </defs>
       <use xlink:href="#ArialMT-31" transform="translate(0 0.99375)"/>
       <use xlink:href="#ArialMT-30" transform="translate(55.615234 0.99375)"/>
       <use xlink:href="#ArialMT-32" transform="translate(112.972813 70.6875)scale(0.7)"/>
      </g>
     </g>
    </g>
    <g id="xtick_3">
     <g id="line2d_6">
      <g>
       <use xlink:href="#mf1960117bc" x="147.79934" y="116.483699" style="stroke: #000000"/>
      </g>
     </g>
     <g id="text_3">
      <!-- $\mathdefault{10^{3}}$ -->
      <g transform="translate(134.45434 140.014949)scale(0.17 -0.17)">
       <defs>
        <path id="ArialMT-33" d="M 269 1209 
L 831 1284 
Q 928 806 1161 595 
Q 1394 384 1728 384 
Q 2125 384 2398 659 
Q 2672 934 2672 1341 
Q 2672 1728 2419 1979 
Q 2166 2231 1775 2231 
Q 1616 2231 1378 2169 
L 1441 2663 
Q 1497 2656 1531 2656 
Q 1891 2656 2178 2843 
Q 2466 3031 2466 3422 
Q 2466 3731 2256 3934 
Q 2047 4138 1716 4138 
Q 1388 4138 1169 3931 
Q 950 3725 888 3313 
L 325 3413 
Q 428 3978 793 4289 
Q 1159 4600 1703 4600 
Q 2078 4600 2393 4439 
Q 2709 4278 2876 4000 
Q 3044 3722 3044 3409 
Q 3044 3113 2884 2869 
Q 2725 2625 2413 2481 
Q 2819 2388 3044 2092 
Q 3269 1797 3269 1353 
Q 3269 753 2831 336 
Q 2394 -81 1725 -81 
Q 1122 -81 723 278 
Q 325 638 269 1209 
z
" transform="scale(0.015625)"/>
       </defs>
       <use xlink:href="#ArialMT-31" transform="translate(0 0.99375)"/>
       <use xlink:href="#ArialMT-30" transform="translate(55.615234 0.99375)"/>
       <use xlink:href="#ArialMT-33" transform="translate(112.972813 70.6875)scale(0.7)"/>
      </g>
     </g>
    </g>
    <g id="xtick_4">
     <g id="line2d_7">
      <defs>
       <path id="m51f844affb" d="M 0 0 
L 0 3 
" style="stroke: #000000"/>
      </defs>
      <g>
       <use xlink:href="#m51f844affb" x="70.986945" y="116.483699" style="stroke: #000000"/>
      </g>
     </g>
    </g>
    <g id="xtick_5">
     <g id="line2d_8">
      <g>
       <use xlink:href="#m51f844affb" x="78.948234" y="116.483699" style="stroke: #000000"/>
      </g>
     </g>
    </g>
    <g id="xtick_6">
     <g id="line2d_9">
      <g>
       <use xlink:href="#m51f844affb" x="84.596859" y="116.483699" style="stroke: #000000"/>
      </g>
     </g>
    </g>
    <g id="xtick_7">
     <g id="line2d_10">
      <g>
       <use xlink:href="#m51f844affb" x="88.978272" y="116.483699" style="stroke: #000000"/>
      </g>
     </g>
    </g>
    <g id="xtick_8">
     <g id="line2d_11">
      <g>
       <use xlink:href="#m51f844affb" x="92.558148" y="116.483699" style="stroke: #000000"/>
      </g>
     </g>
    </g>
    <g id="xtick_9">
     <g id="line2d_12">
      <g>
       <use xlink:href="#m51f844affb" x="95.584889" y="116.483699" style="stroke: #000000"/>
      </g>
     </g>
    </g>
    <g id="xtick_10">
     <g id="line2d_13">
      <g>
       <use xlink:href="#m51f844affb" x="98.206772" y="116.483699" style="stroke: #000000"/>
      </g>
     </g>
    </g>
    <g id="xtick_11">
     <g id="line2d_14">
      <g>
       <use xlink:href="#m51f844affb" x="100.519437" y="116.483699" style="stroke: #000000"/>
      </g>
     </g>
    </g>
    <g id="xtick_12">
     <g id="line2d_15">
      <g>
       <use xlink:href="#m51f844affb" x="116.198099" y="116.483699" style="stroke: #000000"/>
      </g>
     </g>
    </g>
    <g id="xtick_13">
     <g id="line2d_16">
      <g>
       <use xlink:href="#m51f844affb" x="124.159389" y="116.483699" style="stroke: #000000"/>
      </g>
     </g>
    </g>
    <g id="xtick_14">
     <g id="line2d_17">
      <g>
       <use xlink:href="#m51f844affb" x="129.808013" y="116.483699" style="stroke: #000000"/>
      </g>
     </g>
    </g>
    <g id="xtick_15">
     <g id="line2d_18">
      <g>
       <use xlink:href="#m51f844affb" x="134.189427" y="116.483699" style="stroke: #000000"/>
      </g>
     </g>
    </g>
    <g id="xtick_16">
     <g id="line2d_19">
      <g>
       <use xlink:href="#m51f844affb" x="137.769302" y="116.483699" style="stroke: #000000"/>
      </g>
     </g>
    </g>
    <g id="xtick_17">
     <g id="line2d_20">
      <g>
       <use xlink:href="#m51f844affb" x="140.796044" y="116.483699" style="stroke: #000000"/>
      </g>
     </g>
    </g>
    <g id="xtick_18">
     <g id="line2d_21">
      <g>
       <use xlink:href="#m51f844affb" x="143.417927" y="116.483699" style="stroke: #000000"/>
      </g>
     </g>
    </g>
    <g id="xtick_19">
     <g id="line2d_22">
      <g>
       <use xlink:href="#m51f844affb" x="145.730591" y="116.483699" style="stroke: #000000"/>
      </g>
     </g>
    </g>
    <g id="xtick_20">
     <g id="line2d_23">
      <g>
       <use xlink:href="#m51f844affb" x="161.409254" y="116.483699" style="stroke: #000000"/>
      </g>
     </g>
    </g>
    <g id="text_4">
     <!-- Time (ms) -->
     <g transform="translate(73.663224 159.769168)scale(0.17 -0.17)">
      <defs>
       <path id="ArialMT-54" d="M 1659 0 
L 1659 4041 
L 150 4041 
L 150 4581 
L 3781 4581 
L 3781 4041 
L 2266 4041 
L 2266 0 
L 1659 0 
z
" transform="scale(0.015625)"/>
       <path id="ArialMT-69" d="M 425 3934 
L 425 4581 
L 988 4581 
L 988 3934 
L 425 3934 
z
M 425 0 
L 425 3319 
L 988 3319 
L 988 0 
L 425 0 
z
" transform="scale(0.015625)"/>
       <path id="ArialMT-6d" d="M 422 0 
L 422 3319 
L 925 3319 
L 925 2853 
Q 1081 3097 1340 3245 
Q 1600 3394 1931 3394 
Q 2300 3394 2536 3241 
Q 2772 3088 2869 2813 
Q 3263 3394 3894 3394 
Q 4388 3394 4653 3120 
Q 4919 2847 4919 2278 
L 4919 0 
L 4359 0 
L 4359 2091 
Q 4359 2428 4304 2576 
Q 4250 2725 4106 2815 
Q 3963 2906 3769 2906 
Q 3419 2906 3187 2673 
Q 2956 2441 2956 1928 
L 2956 0 
L 2394 0 
L 2394 2156 
Q 2394 2531 2256 2718 
Q 2119 2906 1806 2906 
Q 1569 2906 1367 2781 
Q 1166 2656 1075 2415 
Q 984 2175 984 1722 
L 984 0 
L 422 0 
z
" transform="scale(0.015625)"/>
       <path id="ArialMT-65" d="M 2694 1069 
L 3275 997 
Q 3138 488 2766 206 
Q 2394 -75 1816 -75 
Q 1088 -75 661 373 
Q 234 822 234 1631 
Q 234 2469 665 2931 
Q 1097 3394 1784 3394 
Q 2450 3394 2872 2941 
Q 3294 2488 3294 1666 
Q 3294 1616 3291 1516 
L 816 1516 
Q 847 969 1125 678 
Q 1403 388 1819 388 
Q 2128 388 2347 550 
Q 2566 713 2694 1069 
z
M 847 1978 
L 2700 1978 
Q 2663 2397 2488 2606 
Q 2219 2931 1791 2931 
Q 1403 2931 1139 2672 
Q 875 2413 847 1978 
z
" transform="scale(0.015625)"/>
       <path id="ArialMT-20" transform="scale(0.015625)"/>
       <path id="ArialMT-28" d="M 1497 -1347 
Q 1031 -759 709 28 
Q 388 816 388 1659 
Q 388 2403 628 3084 
Q 909 3875 1497 4659 
L 1900 4659 
Q 1522 4009 1400 3731 
Q 1209 3300 1100 2831 
Q 966 2247 966 1656 
Q 966 153 1900 -1347 
L 1497 -1347 
z
" transform="scale(0.015625)"/>
       <path id="ArialMT-73" d="M 197 991 
L 753 1078 
Q 800 744 1014 566 
Q 1228 388 1613 388 
Q 2000 388 2187 545 
Q 2375 703 2375 916 
Q 2375 1106 2209 1216 
Q 2094 1291 1634 1406 
Q 1016 1563 777 1677 
Q 538 1791 414 1992 
Q 291 2194 291 2438 
Q 291 2659 392 2848 
Q 494 3038 669 3163 
Q 800 3259 1026 3326 
Q 1253 3394 1513 3394 
Q 1903 3394 2198 3281 
Q 2494 3169 2634 2976 
Q 2775 2784 2828 2463 
L 2278 2388 
Q 2241 2644 2061 2787 
Q 1881 2931 1553 2931 
Q 1166 2931 1000 2803 
Q 834 2675 834 2503 
Q 834 2394 903 2306 
Q 972 2216 1119 2156 
Q 1203 2125 1616 2013 
Q 2213 1853 2448 1751 
Q 2684 1650 2818 1456 
Q 2953 1263 2953 975 
Q 2953 694 2789 445 
Q 2625 197 2315 61 
Q 2006 -75 1616 -75 
Q 969 -75 630 194 
Q 291 463 197 991 
z
" transform="scale(0.015625)"/>
       <path id="ArialMT-29" d="M 791 -1347 
L 388 -1347 
Q 1322 153 1322 1656 
Q 1322 2244 1188 2822 
Q 1081 3291 891 3722 
Q 769 4003 388 4659 
L 791 4659 
Q 1378 3875 1659 3084 
Q 1900 2403 1900 1659 
Q 1900 816 1576 28 
Q 1253 -759 791 -1347 
z
" transform="scale(0.015625)"/>
      </defs>
      <use xlink:href="#ArialMT-54"/>
      <use xlink:href="#ArialMT-69" x="57.333984"/>
      <use xlink:href="#ArialMT-6d" x="79.550781"/>
      <use xlink:href="#ArialMT-65" x="162.851562"/>
      <use xlink:href="#ArialMT-20" x="218.466797"/>
      <use xlink:href="#ArialMT-28" x="246.25"/>
      <use xlink:href="#ArialMT-6d" x="279.550781"/>
      <use xlink:href="#ArialMT-73" x="362.851562"/>
      <use xlink:href="#ArialMT-29" x="412.851562"/>
     </g>
    </g>
   </g>
   <g id="matplotlib.axis_2">
    <g id="ytick_1">
     <g id="line2d_24">
      <defs>
       <path id="m6eefa6d058" d="M 0 0 
L -6 0 
" style="stroke: #000000"/>
      </defs>
      <g>
       <use xlink:href="#m6eefa6d058" x="57.377031" y="116.483699" style="stroke: #000000"/>
      </g>
     </g>
     <g id="text_5">
      <!-- 0.0 -->
      <g transform="translate(26.747031 122.567839)scale(0.17 -0.17)">
       <defs>
        <path id="ArialMT-2e" d="M 581 0 
L 581 641 
L 1222 641 
L 1222 0 
L 581 0 
z
" transform="scale(0.015625)"/>
       </defs>
       <use xlink:href="#ArialMT-30"/>
       <use xlink:href="#ArialMT-2e" x="55.615234"/>
       <use xlink:href="#ArialMT-30" x="83.398438"/>
      </g>
     </g>
    </g>
    <g id="ytick_2">
     <g id="line2d_25">
      <g>
       <use xlink:href="#m6eefa6d058" x="57.377031" y="70.948824" style="stroke: #000000"/>
      </g>
     </g>
     <g id="text_6">
      <!-- 0.5 -->
      <g transform="translate(26.747031 77.032965)scale(0.17 -0.17)">
       <defs>
        <path id="ArialMT-35" d="M 266 1200 
L 856 1250 
Q 922 819 1161 601 
Q 1400 384 1738 384 
Q 2144 384 2425 690 
Q 2706 997 2706 1503 
Q 2706 1984 2436 2262 
Q 2166 2541 1728 2541 
Q 1456 2541 1237 2417 
Q 1019 2294 894 2097 
L 366 2166 
L 809 4519 
L 3088 4519 
L 3088 3981 
L 1259 3981 
L 1013 2750 
Q 1425 3038 1878 3038 
Q 2478 3038 2890 2622 
Q 3303 2206 3303 1553 
Q 3303 931 2941 478 
Q 2500 -78 1738 -78 
Q 1113 -78 717 272 
Q 322 622 266 1200 
z
" transform="scale(0.015625)"/>
       </defs>
       <use xlink:href="#ArialMT-30"/>
       <use xlink:href="#ArialMT-2e" x="55.615234"/>
       <use xlink:href="#ArialMT-35" x="83.398438"/>
      </g>
     </g>
    </g>
    <g id="ytick_3">
     <g id="line2d_26">
      <g>
       <use xlink:href="#m6eefa6d058" x="57.377031" y="25.41395" style="stroke: #000000"/>
      </g>
     </g>
     <g id="text_7">
      <!-- 1.0 -->
      <g transform="translate(26.747031 31.49809)scale(0.17 -0.17)">
       <use xlink:href="#ArialMT-31"/>
       <use xlink:href="#ArialMT-2e" x="55.615234"/>
       <use xlink:href="#ArialMT-30" x="83.398438"/>
      </g>
     </g>
    </g>
    <g id="text_8">
     <!-- DR-NED -->
     <g transform="translate(19.368281 94.896224)rotate(-90)scale(0.17 -0.17)">
      <defs>
       <path id="ArialMT-44" d="M 494 0 
L 494 4581 
L 2072 4581 
Q 2606 4581 2888 4516 
Q 3281 4425 3559 4188 
Q 3922 3881 4101 3404 
Q 4281 2928 4281 2316 
Q 4281 1794 4159 1391 
Q 4038 988 3847 723 
Q 3656 459 3429 307 
Q 3203 156 2883 78 
Q 2563 0 2147 0 
L 494 0 
z
M 1100 541 
L 2078 541 
Q 2531 541 2789 625 
Q 3047 709 3200 863 
Q 3416 1078 3536 1442 
Q 3656 1806 3656 2325 
Q 3656 3044 3420 3430 
Q 3184 3816 2847 3947 
Q 2603 4041 2063 4041 
L 1100 4041 
L 1100 541 
z
" transform="scale(0.015625)"/>
       <path id="ArialMT-52" d="M 503 0 
L 503 4581 
L 2534 4581 
Q 3147 4581 3465 4457 
Q 3784 4334 3975 4021 
Q 4166 3709 4166 3331 
Q 4166 2844 3850 2509 
Q 3534 2175 2875 2084 
Q 3116 1969 3241 1856 
Q 3506 1613 3744 1247 
L 4541 0 
L 3778 0 
L 3172 953 
Q 2906 1366 2734 1584 
Q 2563 1803 2427 1890 
Q 2291 1978 2150 2013 
Q 2047 2034 1813 2034 
L 1109 2034 
L 1109 0 
L 503 0 
z
M 1109 2559 
L 2413 2559 
Q 2828 2559 3062 2645 
Q 3297 2731 3419 2920 
Q 3541 3109 3541 3331 
Q 3541 3656 3305 3865 
Q 3069 4075 2559 4075 
L 1109 4075 
L 1109 2559 
z
" transform="scale(0.015625)"/>
       <path id="ArialMT-2d" d="M 203 1375 
L 203 1941 
L 1931 1941 
L 1931 1375 
L 203 1375 
z
" transform="scale(0.015625)"/>
       <path id="ArialMT-4e" d="M 488 0 
L 488 4581 
L 1109 4581 
L 3516 984 
L 3516 4581 
L 4097 4581 
L 4097 0 
L 3475 0 
L 1069 3600 
L 1069 0 
L 488 0 
z
" transform="scale(0.015625)"/>
       <path id="ArialMT-45" d="M 506 0 
L 506 4581 
L 3819 4581 
L 3819 4041 
L 1113 4041 
L 1113 2638 
L 3647 2638 
L 3647 2100 
L 1113 2100 
L 1113 541 
L 3925 541 
L 3925 0 
L 506 0 
z
" transform="scale(0.015625)"/>
      </defs>
      <use xlink:href="#ArialMT-44"/>
      <use xlink:href="#ArialMT-52" x="72.216797"/>
      <use xlink:href="#ArialMT-2d" x="144.433594"/>
      <use xlink:href="#ArialMT-4e" x="177.734375"/>
      <use xlink:href="#ArialMT-45" x="249.951172"/>
      <use xlink:href="#ArialMT-44" x="316.650391"/>
     </g>
    </g>
   </g>
   <g id="line2d_27">
    <path d="M 54.987518 92.37888 
L 64.071109 48.754098 
L 70.257712 69.035793 
L 74.954977 45.692708 
L 78.742631 30.768437 
L 81.91645 30.003096 
L 84.647924 37.656564 
L 87.045406 33.447157 
L 89.181745 38.804586 
L 91.108284 35.36052 
L 92.862572 25.41395 
L 94.472895 30.768437 
L 95.961104 26.941706 
L 97.34442 25.41395 
L 107.534094 25.41395 
L 108.313361 27.324376 
L 109.062877 28.089728 
L 109.784833 25.41395 
L 135.892777 25.41395 
L 136.079422 29.23775 
L 136.447474 25.41395 
L 148.373768 25.41395 
L 148.472833 27.324376 
L 148.669481 25.41395 
L 149.530801 25.41395 
L 149.624211 26.559035 
L 149.809711 25.41395 
L 151.14776 25.41395 
L 151.233801 30.768437 
L 151.489691 25.41395 
L 151.825771 25.41395 
L 151.9089 30.385766 
L 152.074108 25.41395 
L 156.995855 25.41395 
L 157.059772 28.472398 
L 157.123481 27.707057 
L 157.250281 25.41395 
L 157.994353 25.41395 
L 158.176047 31.533789 
L 158.415721 25.41395 
L 160.927867 25.41395 
L 160.980198 33.447157 
L 161.032391 68.270446 
L 161.188143 25.41395 
L 162.585173 25.41395 
L 162.681259 28.089728 
L 162.824511 25.41395 
L 165.655211 25.41395 
L 165.655211 25.41395 
" clip-path="url(#p24f08bd5ec)" style="fill: none; stroke: #ff0000; stroke-width: 1.5; stroke-linecap: square"/>
   </g>
   <g id="line2d_28">
    <path d="M 98.001169 116.483699 
L 98.001169 7.2 
" clip-path="url(#p24f08bd5ec)" style="fill: none; stroke-dasharray: 10,3; stroke-dashoffset: 5; stroke: #000000"/>
   </g>
   <g id="patch_3">
    <path d="M 57.377031 116.483699 
L 57.377031 7.2 
" style="fill: none; stroke: #000000; stroke-linejoin: miter; stroke-linecap: square"/>
   </g>
   <g id="patch_4">
    <path d="M 165.790668 116.483699 
L 165.790668 7.2 
" style="fill: none; stroke: #000000; stroke-linejoin: miter; stroke-linecap: square"/>
   </g>
   <g id="patch_5">
    <path d="M 57.377031 116.483699 
L 165.790668 116.483699 
" style="fill: none; stroke: #000000; stroke-linejoin: miter; stroke-linecap: square"/>
   </g>
   <g id="patch_6">
    <path d="M 57.377031 7.2 
L 165.790668 7.2 
" style="fill: none; stroke: #000000; stroke-linejoin: miter; stroke-linecap: square"/>
   </g>
  </g>
 </g>
 <defs>
  <clipPath id="p24f08bd5ec">
   <rect x="57.377031" y="7.2" width="108.413636" height="109.283699"/>
  </clipPath>
 </defs>
</svg>
