<?xml version="1.0" encoding="utf-8" standalone="no"?>
<!DOCTYPE svg PUBLIC "-//W3C//DTD SVG 1.1//EN"
  "http://www.w3.org/Graphics/SVG/1.1/DTD/svg11.dtd">
<svg xmlns:xlink="http://www.w3.org/1999/xlink" width="172.990668pt" height="170.547136pt" viewBox="0 0 172.990668 170.547136" xmlns="http://www.w3.org/2000/svg" version="1.1">
 <metadata>
  <rdf:RDF xmlns:dc="http://purl.org/dc/elements/1.1/" xmlns:cc="http://creativecommons.org/ns#" xmlns:rdf="http://www.w3.org/1999/02/22-rdf-syntax-ns#">
   <cc:Work>
    <dc:type rdf:resource="http://purl.org/dc/dcmitype/StillImage"/>
    <dc:date>2024-08-16T06:09:54.534301</dc:date>
    <dc:format>image/svg+xml</dc:format>
    <dc:creator>
     <cc:Agent>
      <dc:title>Matplotlib v3.5.3, https://matplotlib.org/</dc:title>
     </cc:Agent>
    </dc:creator>
   </cc:Work>
  </rdf:RDF>
 </metadata>
 <defs>
  <style type="text/css">*{stroke-linejoin: round; stroke-linecap: butt}</style>
 </defs>
 <g id="figure_1">
  <g id="patch_1">
   <path d="M 0 170.547136 
L 172.990668 170.547136 
L 172.990668 0 
L 0 0 
z
" style="fill: #ffffff"/>
  </g>
  <g id="axes_1">
   <g id="patch_2">
    <path d="M 57.377031 116.483699 
L 165.790668 116.483699 
L 165.790668 7.2 
L 57.377031 7.2 
z
" style="fill: #ffffff"/>
   </g>
   <g id="line2d_1">
    <path d="M 57.336083 76.974576 
L 57.417894 72.164707 
L 57.458672 74.265659 
L 57.580503 76.49925 
L 57.620947 75.911495 
L 57.781889 65.890841 
L 57.821921 66.952137 
L 57.86187 67.163961 
L 57.901737 64.58957 
L 57.941525 64.838897 
L 57.981231 67.507092 
L 58.020857 64.44429 
L 58.060405 59.208453 
L 58.099872 64.450039 
L 58.17857 64.009613 
L 58.256952 70.142224 
L 58.335024 66.774445 
L 58.373945 69.51826 
L 58.412785 72.763175 
L 58.490243 71.366686 
L 58.567393 69.241651 
L 58.605856 72.897169 
L 58.644243 70.26001 
L 58.797044 63.50426 
L 58.835059 63.475339 
L 58.873002 62.863485 
L 58.91087 59.899856 
L 58.948666 63.925308 
L 59.136562 81.284296 
L 59.248442 76.321026 
L 59.285596 77.222886 
L 59.322676 78.140509 
L 59.359689 77.393067 
L 59.433503 73.4702 
L 59.470309 76.338225 
L 59.507043 78.441596 
L 59.543711 76.354613 
L 59.580309 76.156734 
L 59.653302 69.531765 
L 59.689696 73.494901 
L 59.798477 77.380903 
L 59.834603 76.392038 
L 59.978449 73.206888 
L 60.121251 77.300788 
L 60.473772 55.492825 
L 60.50868 59.598304 
L 60.578306 68.088743 
L 60.647689 62.052195 
L 60.682287 61.845788 
L 60.785721 62.014702 
L 60.820076 58.807343 
L 60.922788 73.396366 
L 60.990967 60.404308 
L 61.024966 68.812217 
L 61.058907 64.360338 
L 61.092789 64.932414 
L 61.227739 85.831059 
L 61.261331 82.444431 
L 61.461689 63.068535 
L 61.528023 74.11005 
L 61.660024 84.051308 
L 61.725692 79.983384 
L 61.758445 90.445813 
L 61.823786 81.300703 
L 61.88891 83.257087 
L 62.050782 59.268043 
L 62.338831 79.230612 
L 62.370578 77.733762 
L 62.497051 54.524623 
L 62.528542 56.880485 
L 62.559982 65.10763 
L 62.622714 56.601281 
L 62.654005 64.815372 
L 62.685247 66.458248 
L 62.716438 62.052564 
L 62.747579 72.171807 
L 62.778672 76.76963 
L 62.809715 67.734875 
L 62.840709 68.795856 
L 62.871656 74.470638 
L 62.902552 69.470905 
L 63.025657 55.634186 
L 63.086919 72.218109 
L 63.178458 68.183997 
L 63.208876 68.163663 
L 63.269571 69.65486 
L 63.390402 77.182248 
L 63.420495 74.478127 
L 63.45054 74.80426 
L 63.480539 74.168036 
L 63.510495 67.145825 
L 63.600083 67.788272 
L 63.659584 77.492398 
L 63.718903 75.262078 
L 63.778044 71.782131 
L 63.925124 79.869015 
L 64.041999 69.241461 
L 64.071109 71.964144 
L 64.187121 81.088084 
L 64.129201 71.207936 
L 64.216018 79.048478 
L 64.302451 68.937971 
L 64.359865 69.419538 
L 64.417109 73.390222 
L 64.502664 72.928539 
L 64.644434 68.21953 
L 64.672665 68.541861 
L 64.729007 78.344076 
L 64.813217 75.09315 
L 64.869157 66.028347 
L 64.924938 60.326891 
L 64.98056 64.739931 
L 65.008313 63.82874 
L 65.036028 64.280517 
L 65.063702 66.657289 
L 65.091337 62.598014 
L 65.20149 56.822219 
L 65.146491 65.492581 
L 65.228934 59.031098 
L 65.392787 76.102784 
L 65.419963 75.779582 
L 65.447101 76.018476 
L 65.474202 78.267471 
L 65.501267 75.424665 
L 65.609152 68.147151 
L 65.63603 70.615198 
L 65.662872 76.260326 
L 65.743179 76.085375 
L 65.902814 64.051198 
L 66.061161 81.024813 
L 66.087429 82.949011 
L 66.11366 78.558964 
L 66.139858 81.075672 
L 66.166022 80.514865 
L 66.296313 70.455224 
L 66.425747 78.297058 
L 66.374074 70.163578 
L 66.451532 77.176972 
L 66.682081 65.121543 
L 66.73295 68.278985 
L 66.758333 64.186647 
L 66.809003 67.634899 
L 66.935113 47.680301 
L 66.960236 56.376462 
L 67.060416 73.403295 
L 67.085381 56.068174 
L 67.135215 76.181994 
L 67.160084 67.544134 
L 67.184923 68.998067 
L 67.283966 92.631747 
L 67.308647 91.722057 
L 67.407071 72.404771 
L 67.431598 74.082521 
L 67.456096 74.854715 
L 67.650985 52.844004 
L 67.867948 86.27921 
L 67.891908 84.425736 
L 67.91584 71.133133 
L 67.987454 73.290259 
L 68.035056 85.373855 
L 68.10624 83.309083 
L 68.224309 65.653977 
L 68.247839 69.096805 
L 68.27134 68.862818 
L 68.318255 76.980708 
L 68.341672 72.394018 
L 68.458338 53.779773 
L 68.620517 78.251211 
L 68.666608 70.940649 
L 68.712592 78.137336 
L 68.804236 84.575052 
L 68.963594 64.267077 
L 69.054079 56.828673 
L 69.076635 61.558713 
L 69.121669 60.469755 
L 69.256155 73.666405 
L 69.278479 66.682096 
L 69.367529 70.368747 
L 69.389727 70.404486 
L 69.411899 63.791796 
L 69.456174 74.154469 
L 69.500346 82.094406 
L 69.56642 77.651522 
L 69.632272 80.586048 
L 69.676053 70.451022 
L 69.719734 75.96322 
L 69.763318 71.64025 
L 69.806808 64.946061 
L 69.871858 66.603914 
L 69.979803 80.404234 
L 70.001322 74.89731 
L 70.022815 74.386998 
L 70.044286 76.755837 
L 70.087157 71.183865 
L 70.129936 75.014439 
L 70.278928 64.788714 
L 70.384663 75.511063 
L 70.342436 64.067955 
L 70.405742 70.566235 
L 70.489831 64.441745 
L 70.447832 70.939347 
L 70.510798 70.084522 
L 70.531741 71.051338 
L 70.552663 62.62268 
L 70.636126 69.483341 
L 70.656937 78.130969 
L 70.698494 63.380356 
L 70.739961 71.576403 
L 70.760661 69.193964 
L 70.801999 75.055006 
L 70.822635 76.405209 
L 70.863841 75.493739 
L 70.966481 69.211584 
L 70.986945 75.410403 
L 71.027808 65.003795 
L 71.048208 66.803399 
L 71.088944 61.020574 
L 71.129598 74.397705 
L 71.230861 74.309641 
L 71.271221 76.379789 
L 71.291369 76.196862 
L 71.311496 71.278385 
L 71.351691 77.385191 
L 71.391803 72.966688 
L 71.491728 82.424418 
L 71.511651 76.659728 
L 71.650555 63.290102 
L 71.690063 68.327963 
L 71.709786 61.719008 
L 71.749173 65.041711 
L 71.768838 60.738087 
L 71.8473 64.298712 
L 71.944938 77.572919 
L 71.983858 72.868791 
L 72.003288 66.82318 
L 72.042092 79.900946 
L 72.080821 76.710466 
L 72.100157 85.602218 
L 72.138768 76.43558 
L 72.177307 79.530256 
L 72.330705 62.652497 
L 72.387924 66.91789 
L 72.425974 69.879875 
L 72.444973 66.723806 
L 72.50186 67.539629 
L 72.520784 67.658305 
L 72.577451 66.434533 
L 72.633954 83.278596 
L 72.652753 87.934566 
L 72.690295 80.310668 
L 72.709041 80.387469 
L 72.858356 54.943184 
L 72.914058 65.585815 
L 72.988083 76.894733 
L 73.061828 75.08884 
L 73.135299 68.335253 
L 73.171931 73.290932 
L 73.190222 72.704447 
L 73.208495 75.207769 
L 73.226752 75.673184 
L 73.244992 73.472608 
L 73.29961 75.308869 
L 73.390303 63.867134 
L 73.408391 65.15688 
L 73.444517 61.740737 
L 73.498583 59.08393 
L 73.516573 62.546045 
L 73.659895 78.160889 
L 73.731164 83.616031 
L 73.748942 80.76812 
L 73.802176 69.060295 
L 73.837587 81.656583 
L 73.872933 78.077593 
L 74.031211 59.823167 
L 74.048718 63.833805 
L 74.118594 78.696783 
L 74.170836 73.566684 
L 74.18822 69.724259 
L 74.240279 76.89808 
L 74.257602 79.142573 
L 74.292201 71.786469 
L 74.41282 60.807144 
L 74.447146 67.726592 
L 74.464288 69.717702 
L 74.515621 64.771892 
L 74.532701 60.003817 
L 74.583858 69.644547 
L 74.617887 66.889398 
L 74.702703 64.750407 
L 74.66882 69.497476 
L 74.719622 65.10604 
L 74.837652 81.02934 
L 74.904779 73.868811 
L 74.938259 64.779665 
L 75.005043 71.973035 
L 75.021705 72.587475 
L 75.038352 70.072016 
L 75.071603 72.090468 
L 75.088208 70.838654 
L 75.121375 72.946424 
L 75.154485 80.951093 
L 75.220541 74.671945 
L 75.3028 63.384579 
L 75.335605 69.859405 
L 75.417385 82.792473 
L 75.466289 76.31363 
L 75.482562 77.165838 
L 75.498823 72.674893 
L 75.547527 61.235216 
L 75.628428 68.021912 
L 75.741134 72.622492 
L 75.660696 67.802868 
L 75.757182 69.520507 
L 75.805248 62.439501 
L 75.869154 66.932199 
L 75.932851 72.78004 
L 75.980491 69.488221 
L 76.012184 64.382729 
L 76.091199 65.97767 
L 76.263918 81.458641 
L 76.279546 76.726658 
L 76.341927 68.287409 
L 76.388586 74.639498 
L 76.404113 75.134828 
L 76.435133 84.448866 
L 76.512466 76.949984 
L 76.650903 65.195437 
L 76.71212 74.587306 
L 76.742656 63.990093 
L 76.757906 63.803668 
L 76.818789 72.833855 
L 76.879485 67.684784 
L 76.894629 62.7639 
L 76.955092 73.922883 
L 76.970178 73.793942 
L 77.060454 61.734668 
L 77.105436 65.849798 
L 77.135367 67.277041 
L 77.180179 65.874518 
L 77.209996 60.517111 
L 77.254639 73.800524 
L 77.299179 73.521331 
L 77.34362 75.053286 
L 77.37319 80.944533 
L 77.432199 71.344908 
L 77.578948 80.017039 
L 77.608165 77.311737 
L 77.75361 66.478354 
L 77.768096 66.618917 
L 77.825932 75.380287 
L 77.869196 68.530375 
L 77.941093 64.974477 
L 77.912365 70.040853 
L 77.984104 67.598155 
L 78.055582 76.195244 
L 78.126801 71.970516 
L 78.268469 63.228508 
L 78.282579 62.889877 
L 78.45112 77.738267 
L 78.4651 77.567784 
L 78.576583 70.092301 
L 78.590474 71.009547 
L 78.618227 73.394225 
L 78.645941 68.455401 
L 78.673615 70.161711 
L 78.687437 68.793565 
L 78.728846 73.404061 
L 78.742631 74.803538 
L 78.797668 70.815742 
L 78.811404 71.171106 
L 78.838847 69.459761 
L 78.879938 73.423719 
L 78.907285 77.529896 
L 78.975485 74.788521 
L 79.124699 63.539494 
L 79.138208 65.083328 
L 79.19215 70.598229 
L 79.232509 67.284548 
L 79.259369 63.830684 
L 79.312981 74.383752 
L 79.406449 66.934213 
L 79.47294 72.283964 
L 79.57886 76.5886 
L 79.499475 71.033395 
L 79.605252 72.763327 
L 79.644772 68.140963 
L 79.671075 73.573936 
L 79.697343 72.700949 
L 79.775935 78.60791 
L 79.749772 71.387142 
L 79.815113 75.451505 
L 79.880238 66.62377 
L 79.945146 68.821993 
L 79.971051 74.153893 
L 80.03566 68.676566 
L 80.048556 69.538328 
L 80.100058 67.554241 
L 80.151426 67.847803 
L 80.26651 76.198748 
L 80.279258 73.96851 
L 80.393597 68.415362 
L 80.519869 77.456604 
L 80.532453 76.501117 
L 80.620305 60.572473 
L 80.670329 69.858792 
L 80.757567 73.251035 
L 80.707765 67.836496 
L 80.769998 72.483439 
L 80.807246 66.307958 
L 80.869167 71.263911 
L 80.943213 69.337648 
L 81.004707 76.509368 
L 81.078247 67.838455 
L 81.127119 73.109712 
L 81.13932 73.256775 
L 81.200205 61.139408 
L 81.260899 70.69161 
L 81.381731 75.895737 
L 81.417834 75.186415 
L 81.429853 70.953949 
L 81.501822 80.625703 
L 81.51379 76.276586 
L 81.537707 77.736497 
L 81.561594 73.799772 
L 81.573524 74.566796 
L 81.644969 76.357471 
L 81.704308 64.259629 
L 81.775276 69.858656 
L 81.798876 63.720041 
L 81.869506 59.558592 
L 81.91645 62.890355 
L 82.044976 78.687379 
L 82.056619 77.250181 
L 82.114727 73.300168 
L 82.091503 79.358329 
L 82.172665 74.852956 
L 82.299527 71.635923 
L 82.218891 77.828147 
L 82.311021 71.775419 
L 82.322506 72.356943 
L 82.345458 70.781783 
L 82.368384 64.042654 
L 82.436995 75.304239 
L 82.448409 72.365962 
L 82.516744 77.395252 
L 82.562169 74.900738 
L 82.776513 58.858758 
L 82.932968 76.688726 
L 82.944095 75.354474 
L 82.955218 71.684158 
L 83.01073 77.060412 
L 83.055027 75.060174 
L 83.099226 72.392465 
L 83.154335 75.408812 
L 83.176334 77.778034 
L 83.242186 71.508633 
L 83.253141 71.322802 
L 83.264088 73.582499 
L 83.329648 69.445897 
L 83.362345 71.219745 
L 83.384114 65.295136 
L 83.460113 68.146738 
L 83.481772 72.687536 
L 83.557396 66.463725 
L 83.57895 63.2665 
L 83.632728 70.163872 
L 83.643466 69.264764 
L 83.69707 70.275649 
L 83.675648 66.889056 
L 83.707775 67.664477 
L 83.718471 65.618726 
L 83.793189 72.213202 
L 83.80384 70.924636 
L 83.83576 77.66402 
L 83.846387 76.587352 
L 83.867626 79.58919 
L 83.910033 69.02771 
L 83.92062 66.304663 
L 83.973474 76.89418 
L 83.994576 72.416715 
L 84.089252 79.858001 
L 84.026186 71.495127 
L 84.099745 76.504138 
L 84.141654 66.07732 
L 84.225208 68.493512 
L 84.24604 66.262997 
L 84.308408 72.098771 
L 84.318782 72.971573 
L 84.339517 67.859794 
L 84.380918 70.101475 
L 84.411913 63.437852 
L 84.494325 68.61823 
L 84.658122 77.785023 
L 84.545659 66.940743 
L 84.668314 75.736984 
L 84.719195 70.135243 
L 84.780079 74.400409 
L 84.790207 74.643037 
L 84.81045 81.001266 
L 84.891211 70.663318 
L 84.921409 67.940462 
L 84.951563 72.831572 
L 84.991697 70.300727 
L 85.011733 72.624514 
L 85.041748 67.411122 
L 85.081697 63.262972 
L 85.121564 69.382735 
L 85.141469 68.629629 
L 85.25058 75.757646 
L 85.201059 67.651997 
L 85.260469 74.201501 
L 85.388576 66.340408 
L 85.54511 77.083335 
L 85.593772 74.132466 
L 85.71007 64.926362 
L 85.661696 75.059015 
L 85.748681 67.003786 
L 85.892809 73.840587 
L 85.911947 70.958014 
L 85.95971 71.030084 
L 86.04539 64.017608 
L 86.092829 78.52718 
L 86.187364 76.732311 
L 86.290829 69.540798 
L 86.328319 72.677914 
L 86.33768 76.944401 
L 86.431046 71.511854 
L 86.440359 72.753048 
L 86.477564 65.659079 
L 86.49614 61.200177 
L 86.588758 63.63357 
L 86.61646 67.98341 
L 86.736045 78.170464 
L 86.745213 77.699876 
L 86.873129 68.013194 
L 86.891335 70.073878 
L 86.954922 79.323695 
L 87.009263 72.053063 
L 87.045406 74.023595 
L 87.07247 68.684204 
L 87.189318 64.802583 
L 87.198277 63.730203 
L 87.234075 68.853791 
L 87.269809 68.025614 
L 87.358856 74.830869 
L 87.403229 70.488167 
L 87.41209 67.987644 
L 87.491674 73.800462 
L 87.500497 72.248906 
L 87.562144 80.512694 
L 87.588506 71.61503 
L 87.606061 67.120394 
L 87.64988 72.297567 
L 87.702333 70.588708 
L 87.728507 72.328024 
L 87.789444 68.922892 
L 87.798134 68.30523 
L 87.850193 72.259589 
L 87.867516 70.884766 
L 87.876172 70.845716 
L 87.945278 65.581928 
L 87.988347 70.696213 
L 88.022734 74.32829 
L 88.065633 70.016746 
L 88.10844 73.229154 
L 88.2278 67.856803 
L 88.193771 75.21507 
L 88.244793 69.460732 
L 88.380207 75.30248 
L 88.388639 73.469959 
L 88.506315 65.057289 
L 88.514693 67.721326 
L 88.74785 74.01332 
L 88.53144 67.07261 
L 88.780934 73.190815 
L 88.822211 69.919099 
L 88.879851 74.90955 
L 88.888071 76.611534 
L 88.953713 67.757809 
L 88.961902 67.75104 
L 88.978272 66.386341 
L 89.027298 70.832862 
L 89.068059 74.275414 
L 89.100609 69.106006 
L 89.141219 71.759781 
L 89.189839 69.236228 
L 89.230266 73.722418 
L 89.254483 71.350613 
L 89.294775 67.206246 
L 89.343019 73.058657 
L 89.359074 71.923289 
L 89.439151 74.754106 
L 89.399152 69.257735 
L 89.46311 72.045138 
L 89.574538 67.986064 
L 89.534815 72.267221 
L 89.582472 68.025418 
L 89.693226 73.790656 
L 89.653743 66.924942 
L 89.708998 72.762583 
L 89.748369 68.79153 
L 89.77981 73.715641 
L 89.787663 73.710671 
L 89.795512 75.382708 
L 89.83471 66.053762 
L 89.881648 73.542892 
L 89.944054 76.018166 
L 90.006265 67.94779 
L 90.037297 73.290954 
L 90.091483 67.700129 
L 90.11466 69.04058 
L 90.14552 67.067632 
L 90.130097 69.734492 
L 90.168634 68.627865 
L 90.245484 67.879563 
L 90.299098 75.493617 
L 90.405894 68.914196 
L 90.428703 71.187887 
L 90.496972 75.356995 
L 90.549908 74.079332 
L 90.670367 68.062292 
L 90.700367 72.572849 
L 90.752758 64.292768 
L 90.76023 64.392457 
L 90.871983 74.241746 
L 90.901676 72.618258 
L 90.99049 67.222411 
L 90.953533 74.09516 
L 90.997871 71.312518 
L 91.049475 77.890457 
L 91.100943 72.35722 
L 91.122959 75.397592 
L 91.232672 65.349836 
L 91.239966 65.433555 
L 91.261827 39.416982 
L 91.305475 93.089258 
L 91.341776 72.87905 
L 91.349029 78.654386 
L 91.421402 59.010628 
L 91.450277 75.814794 
L 91.522278 73.247178 
L 91.543829 80.859585 
L 91.586856 61.778153 
L 91.67976 74.909588 
L 91.701138 80.089342 
L 91.75803 67.64607 
L 91.772228 69.657732 
L 91.786414 70.086059 
L 91.828914 66.693348 
L 91.885439 50.667266 
L 91.899543 75.152798 
L 91.920683 82.132021 
L 91.990984 65.232782 
L 91.998 65.268815 
L 92.088985 80.198864 
L 92.033044 62.651715 
L 92.123866 75.270505 
L 92.151726 65.095922 
L 92.235072 70.879892 
L 92.262777 73.458904 
L 92.283529 70.001911 
L 92.393837 63.183607 
L 92.33876 71.70652 
L 92.400711 65.481893 
L 92.524029 80.0032 
L 92.599011 72.521515 
L 92.612614 68.970806 
L 92.673707 75.103078 
L 92.707567 70.023189 
L 92.714332 71.787505 
L 92.748122 64.799131 
L 92.815526 71.63819 
L 92.835703 64.900339 
L 92.889404 73.788365 
L 92.922894 71.137144 
L 92.969683 64.443661 
L 93.049636 74.588859 
L 93.056284 74.587162 
L 93.155735 66.532218 
L 93.122641 75.732071 
L 93.175566 69.789544 
L 93.234935 76.144754 
L 93.280988 71.232531 
L 93.340041 66.347932 
L 93.392384 70.7967 
L 93.431548 71.252032 
L 93.418502 68.547392 
L 93.438068 69.110625 
L 93.503148 66.546983 
L 93.451103 70.20245 
L 93.509647 68.719976 
L 93.600367 76.120235 
L 93.626212 74.585634 
L 93.690673 68.560148 
L 93.742092 73.573284 
L 93.793375 65.867912 
L 93.901908 70.186008 
L 93.965473 68.543457 
L 94.022506 73.944973 
L 94.161223 68.139242 
L 94.060435 80.593468 
L 94.167506 68.856185 
L 94.21769 74.48704 
L 94.236479 67.059816 
L 94.286486 70.291233 
L 94.355043 67.504514 
L 94.336369 72.545632 
L 94.386127 70.83835 
L 94.410956 74.421576 
L 94.44195 69.701401 
L 94.491441 73.140789 
L 94.553126 77.245757 
L 94.614621 66.430847 
L 94.620758 66.447739 
L 94.730932 78.306997 
L 94.663679 64.594141 
L 94.749234 73.484707 
L 94.797955 66.191616 
L 94.870812 67.419259 
L 95.01572 79.027419 
L 94.888984 67.007618 
L 95.063786 72.163627 
L 95.111736 63.789674 
L 95.081782 74.275832 
L 95.183438 69.142825 
L 95.213239 67.665074 
L 95.260826 70.931519 
L 95.278638 69.48447 
L 95.302367 76.259957 
L 95.379287 67.722488 
L 95.385189 67.731043 
L 95.45002 75.055913 
L 95.502907 72.841256 
L 95.584889 69.260503 
L 95.608251 73.123885 
L 95.619921 73.862188 
L 95.625752 72.764838 
L 95.747837 66.875817 
L 95.75363 67.332913 
L 95.805706 74.686403 
L 95.892191 74.009178 
L 95.9439 67.541018 
L 96.052617 69.706032 
L 96.064027 74.816074 
L 96.15506 67.580568 
L 96.160734 67.552217 
L 96.22306 75.45359 
L 96.172082 67.339779 
L 96.279546 68.808254 
L 96.285188 68.72396 
L 96.302096 69.973777 
L 96.380817 73.677779 
L 96.425658 71.874486 
L 96.537317 66.341325 
L 96.470397 74.398883 
L 96.559571 68.036931 
L 96.687053 73.015433 
L 96.692577 73.009139 
L 96.70362 73.420676 
L 96.720173 70.888045 
L 96.76975 76.094956 
L 96.84114 69.188542 
L 96.846622 70.16347 
L 96.857578 66.699346 
L 96.945015 69.571038 
L 96.955917 68.376035 
L 96.999467 73.467991 
L 97.032063 73.08509 
L 97.037491 75.324597 
L 97.086274 69.725953 
L 97.140336 72.966563 
L 97.221149 74.542548 
L 97.178091 68.998843 
L 97.242642 72.106351 
L 97.323036 66.809853 
L 97.360442 70.254468 
L 97.419079 68.776668 
L 97.482844 74.895803 
L 97.48815 75.433247 
L 97.51465 69.544348 
L 97.55698 72.03163 
L 97.672913 67.657751 
L 97.60449 74.442225 
L 97.683419 69.201629 
L 97.693919 73.24296 
L 97.751568 67.067898 
L 97.79339 68.932657 
L 97.829909 71.779865 
L 97.840333 68.577356 
L 97.907939 70.368324 
L 97.913131 69.644585 
L 97.975316 75.898206 
L 97.985663 74.203884 
L 97.990832 74.802968 
L 97.996002 73.852686 
L 97.996002 73.852686 
" clip-path="url(#p7a7778507d)" style="fill: none; stroke: #c0c0c0; stroke-linecap: square"/>
   </g>
   <g id="line2d_2">
    <path d="M 98.001168 67.80036 
L 98.026988 73.187748 
L 98.083669 66.36249 
L 98.135054 69.678467 
L 98.165824 67.431494 
L 98.191426 75.035612 
L 98.242533 69.822721 
L 98.344347 74.744658 
L 98.308772 67.36121 
L 98.359574 72.664631 
L 98.420364 67.13625 
L 98.374789 73.498278 
L 98.465832 72.782208 
L 98.475922 74.590493 
L 98.536353 68.025087 
L 98.556455 69.249744 
L 98.561477 68.724752 
L 98.60662 72.523854 
L 98.636658 71.780199 
L 98.646662 74.354513 
L 98.706571 67.567676 
L 98.741433 70.330229 
L 98.796092 71.927379 
L 98.771266 69.068134 
L 98.845651 71.194384 
L 98.860494 67.897693 
L 98.90989 74.867352 
L 98.959161 70.09856 
L 98.969 69.292991 
L 98.973919 70.534399 
L 98.993579 72.175465 
L 99.018125 68.257799 
L 99.081804 70.401496 
L 99.159894 73.415438 
L 99.111125 65.889109 
L 99.169633 69.517592 
L 99.189098 66.272268 
L 99.213401 76.396923 
L 99.276453 70.929619 
L 99.329644 74.534069 
L 99.286132 69.407938 
L 99.397134 72.455717 
L 99.445201 66.454134 
L 99.464395 73.491324 
L 99.512295 67.272448 
L 99.555307 76.749793 
L 99.58393 52.862004 
L 99.593461 46.705611 
L 99.622027 89.653008 
L 99.683781 62.167657 
L 99.783127 77.416403 
L 99.797278 72.095261 
L 99.905435 66.148185 
L 99.867882 75.467171 
L 99.910123 67.585128 
L 99.933552 73.795256 
L 99.989663 67.021965 
L 100.031643 73.085568 
L 100.143153 65.939038 
L 100.115337 76.262532 
L 100.147786 67.140837 
L 100.25864 75.036678 
L 100.263244 72.904329 
L 100.373452 67.061781 
L 100.359708 74.479155 
L 100.378029 68.553558 
L 100.455702 77.161195 
L 100.400905 65.134386 
L 100.492147 72.77798 
L 100.592025 65.600395 
L 100.537608 73.827635 
L 100.605604 70.164604 
L 100.695901 66.448489 
L 100.664344 75.227547 
L 100.71391 69.251074 
L 100.790268 73.920728 
L 100.817147 67.169264 
L 100.821624 65.497184 
L 100.888645 75.732745 
L 100.915388 70.530453 
L 100.946546 72.8259 
L 100.99984 67.726282 
L 101.004275 68.018204 
L 101.008709 66.951502 
L 101.035291 75.194041 
L 101.09276 72.281985 
L 101.150064 77.859071 
L 101.128044 68.135692 
L 101.189637 68.945989 
L 101.259794 75.420961 
L 101.27292 68.108399 
L 101.281666 65.020356 
L 101.307881 73.027633 
L 101.377617 69.579148 
L 101.486086 75.217238 
L 101.429757 68.098786 
L 101.494737 71.257604 
L 101.507708 66.364243 
L 101.568122 77.185613 
L 101.606863 70.332666 
L 101.671261 69.742867 
L 101.632647 72.477726 
L 101.679832 71.582985 
L 101.684115 72.716074 
L 101.70552 66.485324 
L 101.761065 67.850962 
L 101.769596 63.380557 
L 101.790909 80.041335 
L 101.867442 67.845789 
L 101.926762 74.758473 
L 101.977465 69.332187 
L 102.061681 67.160769 
L 102.040661 71.831913 
L 102.074284 70.65618 
L 102.137169 68.046311 
L 102.199854 76.534964 
L 102.204025 76.660046 
L 102.212365 73.751443 
L 102.32048 66.854506 
L 102.295582 74.668186 
L 102.345344 72.601583 
L 102.349485 73.001743 
L 102.361904 69.973446 
L 102.440369 71.731248 
L 102.526731 68.614327 
L 102.497985 73.795625 
L 102.547238 71.770241 
L 102.588186 73.458416 
L 102.612714 68.694051 
L 102.624967 68.730506 
L 102.637212 67.750269 
L 102.669828 71.478734 
L 102.718651 70.92101 
L 102.795707 79.205643 
L 102.759244 69.726029 
L 102.82402 70.580457 
L 102.948916 61.582293 
L 102.880523 74.52355 
L 102.952932 62.298308 
L 103.017072 76.15979 
L 103.073024 70.338816 
L 103.132796 75.112084 
L 103.148705 68.689187 
L 103.156654 66.961131 
L 103.180482 72.918795 
L 103.251796 69.975926 
L 103.263656 72.246561 
L 103.362216 73.958834 
L 103.30314 68.267369 
L 103.37401 72.843938 
L 103.44854 67.881219 
L 103.39365 74.664066 
L 103.495468 70.993748 
L 103.608413 76.176653 
L 103.550074 66.691606 
L 103.612296 75.906981 
L 103.64721 68.013666 
L 103.728433 71.158637 
L 103.763142 71.884222 
L 103.797789 68.515138 
L 103.855398 67.275624 
L 103.878393 74.192539 
L 103.889881 72.970675 
L 103.920483 69.216676 
L 103.966297 75.889812 
L 103.985354 75.499564 
L 103.989164 75.752563 
L 104.004394 70.101556 
L 104.057604 66.599566 
L 104.091735 73.951096 
L 104.1031 73.1829 
L 104.106886 73.349646 
L 104.122025 69.425357 
L 104.167371 66.685434 
L 104.208848 73.474353 
L 104.220143 72.932775 
L 104.223907 73.349326 
L 104.261507 70.171444 
L 104.314028 71.220505 
L 104.340236 67.532339 
L 104.392545 73.993523 
L 104.4261 70.868721 
L 104.437272 70.006226 
L 104.448438 71.984673 
L 104.47075 71.938338 
L 104.578238 75.679977 
L 104.50046 65.443331 
L 104.581933 74.928926 
L 104.681463 66.784553 
L 104.696166 70.933799 
L 104.732873 71.914147 
L 104.754864 69.947054 
L 104.83894 68.594975 
L 104.787806 74.760612 
L 104.853525 71.249285 
L 104.889939 72.793325 
L 104.915389 70.488466 
L 104.969814 67.534287 
L 104.944435 73.530961 
L 105.009632 72.034496 
L 105.06019 73.864107 
L 105.085421 68.178471 
L 105.171682 66.688724 
L 105.12141 73.700808 
L 105.178853 68.722891 
L 105.200351 74.228343 
L 105.293238 69.852804 
L 105.296803 68.446292 
L 105.357289 74.09252 
L 105.403419 69.040542 
L 105.414047 68.660624 
L 105.449439 72.212193 
L 105.45651 71.50217 
L 105.470643 74.624348 
L 105.502406 68.841219 
L 105.565779 71.204006 
L 105.607914 72.353553 
L 105.639456 69.101197 
L 105.649959 70.247265 
L 105.660456 68.699495 
L 105.712858 73.157676 
L 105.76164 69.780208 
L 105.789462 73.466952 
L 105.87269 70.787939 
L 105.900355 71.819051 
L 105.917626 68.353649 
L 105.92453 66.44394 
L 106.014061 72.769569 
L 106.024365 74.069982 
L 106.038096 68.839564 
L 106.099765 70.610204 
L 106.103187 70.636503 
L 106.113444 70.013044 
L 106.185098 67.112436 
L 106.154422 73.668495 
L 106.202119 71.963324 
L 106.205524 72.014979 
L 106.229325 71.092533 
L 106.249704 73.003111 
L 106.347904 68.255904 
L 106.405243 72.988151 
L 106.459056 70.190839 
L 106.465771 68.046089 
L 106.546188 73.824468 
L 106.56958 69.66094 
L 106.64292 73.364153 
L 106.682808 68.19779 
L 106.772261 73.99627 
L 106.798688 69.72173 
L 106.858018 73.767336 
L 106.815186 68.564518 
L 106.920451 71.814071 
L 106.940125 67.749797 
L 107.025154 73.051205 
L 107.03494 73.582414 
L 107.044722 71.762302 
L 107.132546 74.125078 
L 107.168213 68.316884 
L 107.177929 70.436849 
L 107.187642 72.603966 
L 107.22644 69.340726 
L 107.284493 69.496933 
L 107.352006 65.65326 
L 107.313455 72.928283 
L 107.358423 70.964314 
L 107.368045 75.367656 
L 107.422485 67.080426 
L 107.470395 72.806654 
L 107.473584 73.905364 
L 107.515004 68.315478 
L 107.575387 71.327087 
L 107.622925 69.95569 
L 107.654553 73.089262 
L 107.686132 70.974448 
L 107.689286 70.978123 
L 107.705052 67.498717 
L 107.764854 72.705416 
L 107.793117 70.70746 
L 107.833869 73.098631 
L 107.846393 68.780131 
L 107.905764 71.672642 
L 108.014664 68.41799 
L 107.974286 73.267944 
L 108.023973 70.386286 
L 108.073532 73.197985 
L 108.101355 69.997623 
L 108.135305 71.033572 
L 108.196886 72.389349 
L 108.159961 67.778398 
L 108.236812 70.130439 
L 108.239879 70.087274 
L 108.252144 70.599434 
L 108.267467 73.606507 
L 108.346947 69.023308 
L 108.368292 72.952892 
L 108.404828 66.333531 
L 108.407869 65.568852 
L 108.426109 74.557446 
L 108.498898 70.304901 
L 108.541235 72.817901 
L 108.580465 68.658659 
L 108.598545 70.214022 
L 108.631649 68.136468 
L 108.688697 72.401422 
L 108.709672 70.072032 
L 108.745581 74.334443 
L 108.769481 68.998425 
L 108.832083 71.343684 
L 108.876678 68.625715 
L 108.900421 73.294523 
L 108.927097 71.20403 
L 108.998054 76.527927 
L 108.977385 64.944313 
L 109.036385 70.832775 
L 109.045219 68.214281 
L 109.089333 72.512346 
L 109.142139 70.831814 
L 109.180188 74.052723 
L 109.229834 68.132706 
L 109.250239 71.048499 
L 109.305522 69.598896 
L 109.322945 72.841511 
L 109.363544 70.265275 
L 109.430059 73.595285 
L 109.450258 68.738079 
L 109.479079 71.652213 
L 109.496348 69.379483 
L 109.539463 72.727916 
L 109.593936 70.821159 
L 109.608245 71.89288 
L 109.651115 61.040507 
L 109.653969 60.296841 
L 109.671088 77.593666 
L 109.722354 70.752438 
L 109.733728 74.661618 
L 109.750779 68.721696 
L 109.835803 72.290432 
L 109.855587 67.528751 
L 109.872532 72.62278 
L 109.959842 70.564987 
L 110.03837 73.578172 
L 110.069136 70.065307 
L 110.166705 68.715069 
L 110.158359 71.488052 
L 110.177824 70.039365 
L 110.23333 74.117568 
L 110.26379 68.961535 
L 110.294205 72.061381 
L 110.374162 68.736895 
L 110.349381 72.476032 
L 110.398911 71.96904 
L 110.440088 73.040652 
L 110.423628 70.019471 
L 110.508526 71.668886 
L 110.530377 68.893808 
L 110.584894 71.775984 
L 110.622968 70.5708 
L 110.639263 74.863899 
L 110.723236 67.722928 
L 110.736747 71.903581 
L 110.806852 69.440968 
L 110.839124 73.061157 
L 110.847186 73.50126 
L 110.876709 69.570631 
L 110.882073 67.721549 
L 110.927602 73.124165 
L 110.981031 71.940195 
L 111.092758 69.866044 
L 111.05027 74.194708 
L 111.09541 70.248253 
L 111.164251 72.821042 
L 111.129861 68.387722 
L 111.206491 70.522734 
L 111.303832 69.62374 
L 111.2802 72.639458 
L 111.311704 70.571886 
L 111.418964 73.172543 
L 111.37979 68.253988 
L 111.426789 72.208086 
L 111.517853 69.417871 
L 111.489277 73.035186 
L 111.541202 70.899281 
L 111.626579 72.790305 
L 111.559344 68.70602 
L 111.647219 70.801981 
L 111.739837 67.617512 
L 111.716723 73.726253 
L 111.755231 71.041912 
L 111.8039 69.401006 
L 111.872851 72.740221 
L 111.885594 71.709437 
L 111.956801 69.317835 
L 111.93394 72.117224 
L 111.997372 71.201897 
L 112.015098 73.173303 
L 112.027749 68.869647 
L 112.093399 70.658395 
L 112.098441 69.556415 
L 112.141237 72.194043 
L 112.204006 70.696588 
L 112.276566 69.643418 
L 112.29903 72.369903 
L 112.301524 72.598712 
L 112.318976 69.6868 
L 112.386146 70.370251 
L 112.47288 68.981581 
L 112.453088 73.590122 
L 112.49018 70.878991 
L 112.50006 73.399257 
L 112.593666 68.365038 
L 112.623131 72.391331 
L 112.72592 69.927881 
L 112.774679 69.06504 
L 112.743 72.20028 
L 112.791715 71.994544 
L 112.799012 73.146043 
L 112.888787 68.806816 
L 112.896046 65.332775 
L 112.912979 75.581125 
L 112.992605 72.655298 
L 112.995012 72.826801 
L 113.059913 69.744838 
L 113.091085 69.195864 
L 113.076706 73.185617 
L 113.150894 71.050839 
L 113.222424 72.383718 
L 113.241455 69.803961 
L 113.260468 71.322104 
L 113.28895 68.643373 
L 113.300807 72.555362 
L 113.374155 70.790658 
L 113.428399 73.905505 
L 113.411907 67.696612 
L 113.484842 71.089672 
L 113.517693 69.304194 
L 113.505966 72.174174 
L 113.599577 70.864986 
L 113.706682 72.481455 
L 113.667168 70.070968 
L 113.718288 71.072815 
L 113.778533 69.498463 
L 113.764647 73.038581 
L 113.836287 70.430205 
L 113.903068 71.510063 
L 113.870856 69.60605 
L 113.946698 70.843257 
L 114.017678 69.682783 
L 114.045086 72.472816 
L 114.047367 72.922934 
L 114.131624 68.78824 
L 114.136167 67.58009 
L 114.172481 72.792137 
L 114.23587 71.312412 
L 114.341817 72.488807 
L 114.260718 69.61213 
L 114.350807 71.852559 
L 114.364287 69.382224 
L 114.386729 72.000624 
L 114.465077 70.140302 
L 114.505246 71.982287 
L 114.549786 69.90213 
L 114.589785 71.519264 
L 114.623056 69.03031 
L 114.642992 73.097711 
L 114.68501 71.947197 
L 114.797355 72.813249 
L 114.702674 69.37684 
L 114.799551 72.727264 
L 114.88502 69.426041 
L 114.847809 72.788793 
L 114.919977 71.194919 
L 114.963586 72.398374 
L 114.93525 69.966041 
L 115.026647 70.224515 
L 115.113298 72.443751 
L 115.078684 70.014711 
L 115.141378 70.879056 
L 115.152166 71.944684 
L 115.188805 69.941582 
L 115.251148 70.870431 
L 115.341089 69.446928 
L 115.311155 71.776587 
L 115.353904 71.621142 
L 115.358174 72.488566 
L 115.385905 70.091318 
L 115.45825 70.49384 
L 115.464621 68.887994 
L 115.479477 72.919859 
L 115.56838 70.713382 
L 115.574715 69.414044 
L 115.600034 72.136858 
L 115.679996 70.489633 
L 115.755452 72.390525 
L 115.711472 69.726431 
L 115.805594 71.426037 
L 115.853527 69.583159 
L 115.89096 71.851862 
L 115.917949 71.085587 
L 115.926246 70.917357 
L 115.944901 71.797173 
L 115.949045 72.27938 
L 115.971818 69.424754 
L 116.04616 70.144688 
L 116.101733 72.140551 
L 116.155101 70.02091 
L 116.163298 69.693167 
L 116.185824 71.630197 
L 116.241004 70.716748 
L 116.251205 72.419932 
L 116.344812 70.31516 
L 116.348871 70.070637 
L 116.373213 71.74684 
L 116.444035 71.098748 
L 116.47431 72.119609 
L 116.488421 69.791569 
L 116.550796 70.732766 
L 116.644987 71.645621 
L 116.664971 70.087893 
L 116.706868 72.230743 
L 116.692913 69.952254 
L 116.784442 71.37251 
L 116.794365 68.702274 
L 116.806265 72.453437 
L 116.895296 70.632904 
L 116.942612 72.162424 
L 116.928825 69.97033 
L 117.00749 71.275101 
L 117.042787 69.943737 
L 117.054538 71.525454 
L 117.126852 70.580533 
L 117.14635 71.73505 
L 117.229973 70.096318 
L 117.239675 71.074983 
L 117.264874 71.715644 
L 117.28617 69.993351 
L 117.291976 69.251498 
L 117.31131 72.216673 
L 117.394235 70.428729 
L 117.451884 71.800992 
L 117.476811 70.418095 
L 117.509363 71.150294 
L 117.576211 69.779437 
L 117.600981 71.650088 
L 117.618112 71.246001 
L 117.627622 71.690686 
L 117.64473 69.885037 
L 117.718693 70.411038 
L 117.720586 70.319014 
L 117.798033 71.903744 
L 117.799919 72.115145 
L 117.846989 70.377161 
L 117.90145 71.113494 
L 117.914574 71.708501 
L 117.92956 70.547128 
L 117.987528 70.818206 
L 117.994995 70.069329 
L 118.045324 72.168751 
L 118.093667 71.376459 
L 118.204777 72.034468 
L 118.121504 70.120451 
L 118.20847 71.684755 
L 118.317099 70.264711 
L 118.32077 71.056471 
L 118.386747 72.391388 
L 118.373935 69.629782 
L 118.430606 70.899792 
L 118.437906 70.233591 
L 118.505309 71.544095 
L 118.541647 70.778857 
L 118.567044 70.227924 
L 118.657477 71.47951 
L 118.697136 68.15487 
L 118.682724 72.163988 
L 118.76904 71.321485 
L 118.812054 72.245399 
L 118.837105 70.231686 
L 118.872833 70.729233 
L 118.885323 70.325512 
L 118.933424 71.872348 
L 118.976083 71.302432 
L 119.048742 71.667301 
L 119.068191 70.152049 
L 119.082323 71.011533 
L 119.094679 71.765912 
L 119.144032 69.338642 
L 119.147551 68.513732 
L 119.15811 72.870585 
L 119.249369 71.231122 
L 119.298334 69.510047 
L 119.317537 71.804647 
L 119.368073 71.012494 
L 119.439299 72.031347 
L 119.425422 69.463929 
L 119.479143 71.015037 
L 119.511997 70.145269 
L 119.525813 71.547843 
L 119.584424 71.460829 
L 119.653157 72.111665 
L 119.637713 70.042715 
L 119.694279 71.222255 
L 119.728484 70.214924 
L 119.745563 72.008416 
L 119.800121 71.349277 
L 119.801823 71.373142 
L 119.817138 70.762176 
L 119.869799 70.787336 
L 119.927394 70.637171 
L 119.956129 71.570088 
L 119.978073 70.876049 
L 120.008419 70.422649 
L 120.018524 71.468868 
L 120.048807 71.407761 
L 120.08911 71.63772 
L 120.100851 69.513087 
L 120.154429 71.077811 
L 120.201192 70.363699 
L 120.187842 71.641476 
L 120.254497 71.151741 
L 120.334186 71.753644 
L 120.345781 70.224499 
L 120.363987 71.208736 
L 120.410253 70.364236 
L 120.433344 71.517141 
L 120.476158 70.987753 
L 120.482736 72.146039 
L 120.499173 70.213653 
L 120.582784 70.786267 
L 120.587692 70.105546 
L 120.682327 71.412223 
L 120.695345 70.291857 
L 120.807261 71.564608 
L 120.745705 70.118975 
L 120.821814 70.627633 
L 120.873462 69.804977 
L 120.884744 72.017277 
L 120.886355 72.094765 
L 120.899237 70.234042 
L 120.961919 70.528455 
L 121.051577 70.25919 
L 121.000393 71.83229 
L 121.065946 71.107452 
L 121.070734 71.271684 
L 121.101032 70.245414 
L 121.105814 68.685045 
L 121.11696 73.049571 
L 121.209084 71.414407 
L 121.33702 70.180666 
L 121.237587 71.610338 
L 121.348036 71.038297 
L 121.414009 71.434975 
L 121.366908 70.644379 
L 121.456306 70.993981 
L 121.465691 70.507025 
L 121.556197 71.208405 
L 121.56709 70.98949 
L 121.581091 70.392914 
L 121.610612 71.156048 
L 121.643186 71.148706 
L 121.671068 71.689453 
L 121.660228 70.3215 
L 121.751386 70.77376 
L 121.812946 70.213463 
L 121.771415 71.897692 
L 121.854393 70.986626 
L 121.90646 71.534178 
L 121.89116 70.065996 
L 121.964485 71.01818 
L 122.048172 70.438532 
L 122.03906 71.527457 
L 122.072451 71.157823 
L 122.15266 71.344058 
L 122.140572 70.199437 
L 122.182841 71.222334 
L 122.304606 70.268272 
L 122.211472 71.53044 
L 122.306103 70.33329 
L 122.315092 71.969509 
L 122.370435 70.045586 
L 122.418173 70.85515 
L 122.504401 70.297399 
L 122.488077 71.756437 
L 122.529603 70.603288 
L 122.542932 71.295281 
L 122.644825 70.854662 
L 122.677202 70.406848 
L 122.669847 71.421589 
L 122.754981 70.937588 
L 122.852868 70.650741 
L 122.78279 71.367706 
L 122.85724 70.983817 
L 122.908171 71.231052 
L 122.947368 70.628659 
L 122.960417 70.749599 
L 123.048632 70.256297 
L 123.034197 71.315324 
L 123.060171 71.129246 
L 123.106262 71.406781 
L 123.077468 70.54874 
L 123.163728 70.821729 
L 123.172332 70.503762 
L 123.238177 71.349668 
L 123.269589 70.842405 
L 123.374887 71.654957 
L 123.359269 70.374973 
L 123.380562 70.946251 
L 123.415998 70.289186 
L 123.466914 71.440585 
L 123.489501 71.044656 
L 123.492322 71.310724 
L 123.561323 70.631194 
L 123.596435 70.805602 
L 123.628682 70.308006 
L 123.618874 71.409707 
L 123.680447 71.087905 
L 123.757144 71.455274 
L 123.771056 70.631222 
L 123.790516 71.131841 
L 123.866785 70.614101 
L 123.85017 71.239935 
L 123.905498 70.952412 
L 123.955164 70.534274 
L 123.94138 71.335392 
L 124.007449 70.982444 
L 124.104773 71.428963 
L 124.093829 70.208513 
L 124.117073 70.941768 
L 124.151206 71.335989 
L 124.136195 70.603674 
L 124.207054 70.783596 
L 124.212495 70.475085 
L 124.235598 71.138746 
L 124.31422 71.126358 
L 124.384442 70.497281 
L 124.396568 71.255915 
L 124.419458 71.130329 
L 124.465156 71.362194 
L 124.504048 70.568651 
L 124.526811 71.036438 
L 124.580269 69.734188 
L 124.58961 71.928136 
L 124.638906 70.845162 
L 124.642898 70.739877 
L 124.661512 71.074641 
L 124.723882 71.37663 
L 124.734478 70.611615 
L 124.772843 71.109916 
L 124.819044 70.516573 
L 124.832225 71.362454 
L 124.882229 71.151469 
L 124.975322 71.232477 
L 124.937351 70.635846 
L 124.984474 70.817365 
L 125.06667 69.586954 
L 125.07448 71.991789 
L 125.096592 70.500115 
L 125.11868 71.30262 
L 125.211952 71.098821 
L 125.276464 70.679581 
L 125.313785 71.262598 
L 125.326637 70.71455 
L 125.402296 71.226894 
L 125.411254 70.631645 
L 125.447043 71.141332 
L 125.550207 70.667194 
L 125.48659 71.230883 
L 125.555286 71.109973 
L 125.557826 71.327402 
L 125.590814 70.727539 
L 125.665466 71.035369 
L 125.744863 70.518712 
L 125.75618 71.386781 
L 125.776283 71.041657 
L 125.810159 71.345945 
L 125.801381 70.703796 
L 125.883983 70.902951 
L 125.917672 70.681231 
L 125.908944 71.169138 
L 125.993577 70.965907 
L 126.050622 71.151038 
L 126.018399 70.694112 
L 126.096387 70.889044 
L 126.137115 70.535208 
L 126.150671 71.234222 
L 126.208493 70.763398 
L 126.214633 71.192718 
L 126.283284 70.679424 
L 126.31874 70.745968 
L 126.31996 70.724673 
L 126.327289 71.200263 
L 126.418652 70.909378 
L 126.46963 71.109542 
L 126.481746 70.762654 
L 126.528936 70.882975 
L 126.600109 71.104974 
L 126.56516 70.775166 
L 126.631393 70.821338 
L 126.653022 70.694292 
L 126.645815 71.192683 
L 126.739298 70.900405 
L 126.781102 71.965278 
L 126.772746 69.704436 
L 126.851369 70.972982 
L 126.891749 70.597578 
L 126.901237 71.161072 
L 126.959256 71.084613 
L 126.960439 71.087414 
L 126.965168 70.840749 
L 127.0442 70.736789 
L 127.014748 71.124494 
L 127.072433 70.905996 
L 127.083011 71.258817 
L 127.091233 70.278629 
L 127.093581 70.078763 
L 127.1018 71.754174 
L 127.197815 70.903922 
L 127.204822 71.195608 
L 127.298011 70.693917 
L 127.310791 71.165664 
L 127.411568 70.515949 
L 127.419654 71.188926 
L 127.420808 71.254401 
L 127.483072 70.720906 
L 127.525621 70.909237 
L 127.616161 71.17683 
L 127.587555 70.633984 
L 127.640158 71.033618 
L 127.668687 70.630185 
L 127.651575 71.147097 
L 127.750624 70.987305 
L 127.785798 71.138998 
L 127.802793 70.784209 
L 127.858213 71.008431 
L 127.897704 70.619442 
L 127.906718 71.17759 
L 127.971953 70.801732 
L 127.991035 70.753573 
L 127.997764 71.106698 
L 128.07499 70.853989 
L 128.091737 71.133366 
L 128.117391 70.770226 
L 128.188597 71.082219 
L 128.298237 70.7458 
L 128.193037 71.095811 
L 128.303758 70.95517 
L 128.373192 71.183894 
L 128.337955 70.739584 
L 128.413857 70.938142 
L 128.46539 70.808137 
L 128.456629 71.137312 
L 128.524433 70.942783 
L 128.615926 71.159188 
L 128.605055 70.69136 
L 128.622445 70.902451 
L 128.729695 70.732387 
L 128.655007 71.101359 
L 128.732936 70.848094 
L 128.738336 71.141042 
L 128.829915 70.785458 
L 128.843883 70.875484 
L 128.916788 70.587574 
L 128.924278 71.172767 
L 128.956344 70.826783 
L 128.96702 71.137321 
L 128.994753 70.790772 
L 129.069225 70.972079 
L 129.168788 71.108245 
L 129.110594 70.718159 
L 129.176182 70.938912 
L 129.17935 70.752997 
L 129.242603 71.090562 
L 129.286759 70.901436 
L 129.331865 71.087001 
L 129.323482 70.818532 
L 129.391496 70.865637 
L 129.493599 70.749056 
L 129.482167 71.055434 
L 129.496716 71.007783 
L 129.500874 71.1993 
L 129.540307 70.8057 
L 129.60551 70.873177 
L 129.638546 70.773358 
L 129.645766 71.151762 
L 129.712675 70.946197 
L 129.742455 71.419423 
L 129.736296 70.425808 
L 129.821302 70.893039 
L 129.825392 70.805634 
L 129.862139 71.051023 
L 129.926285 71.025386 
L 129.941525 71.087677 
L 129.987181 70.782233 
L 130.035761 70.975908 
L 130.076154 71.073111 
L 130.081197 70.66106 
L 130.084224 70.236962 
L 130.09128 71.584733 
L 130.19082 70.981497 
L 130.248904 71.04997 
L 130.2399 70.830848 
L 130.299833 70.983345 
L 130.349639 70.825187 
L 130.398324 71.096501 
L 130.411221 70.917493 
L 130.451839 71.05298 
L 130.44689 70.871511 
L 130.522967 70.976285 
L 130.534795 71.009408 
L 130.527897 70.872482 
L 130.541693 70.911071 
L 130.59482 70.800222 
L 130.576144 71.098398 
L 130.650741 70.988073 
L 130.694779 70.750571 
L 130.686956 71.089631 
L 130.774769 70.95403 
L 130.824356 71.135423 
L 130.815615 70.77889 
L 130.883503 70.895894 
L 130.968514 70.822527 
L 130.942471 71.120325 
L 130.990672 70.929511 
L 131.071388 71.154889 
L 131.064675 70.642892 
L 131.10205 70.965304 
L 131.157503 70.827526 
L 131.151774 71.049428 
L 131.198513 70.997922 
L 131.282176 71.583786 
L 131.275533 70.13203 
L 131.306826 70.832694 
L 131.307774 70.756743 
L 131.313457 71.070695 
L 131.415487 70.99748 
L 131.518863 70.723077 
L 131.513238 71.088744 
L 131.524488 70.955675 
L 131.529172 71.108568 
L 131.536665 70.822152 
L 131.634749 70.962327 
L 131.675705 70.802551 
L 131.679424 71.079196 
L 131.681283 71.046659 
L 131.746248 71.106931 
L 131.766621 70.816002 
L 131.790671 70.956399 
L 131.894854 70.838328 
L 131.826691 71.047506 
L 131.900371 70.984914 
L 131.904048 71.115152 
L 131.927931 70.762421 
L 132.00672 70.91181 
L 132.04052 70.780003 
L 132.035044 71.073499 
L 132.11795 70.879295 
L 132.217704 71.062214 
L 132.224034 70.850998 
L 132.230363 70.963003 
L 132.321451 71.060135 
L 132.253852 70.835858 
L 132.327749 70.909589 
L 132.377159 70.829562 
L 132.418388 71.067875 
L 132.438075 70.939428 
L 132.541559 71.03742 
L 132.536219 70.864009 
L 132.547785 70.89362 
L 132.590434 70.88494 
L 132.558457 71.019122 
L 132.651578 70.906658 
L 132.686054 71.090554 
L 132.712534 70.824106 
L 132.761865 70.880033 
L 132.794392 70.822527 
L 132.769782 71.056153 
L 132.872411 70.887757 
L 132.964929 71.032988 
L 132.943149 70.878003 
L 132.984078 70.942316 
L 133.027526 70.863716 
L 133.034468 71.031243 
L 133.082998 70.974125 
L 133.127956 71.029897 
L 133.121046 70.857739 
L 133.190896 70.937018 
L 133.275073 71.039993 
L 133.303338 70.853581 
L 133.310185 71.056386 
L 133.415992 70.949945 
L 133.504296 70.814683 
L 133.438104 71.036175 
L 133.506837 70.931937 
L 133.510225 71.086722 
L 133.518693 70.869334 
L 133.617491 70.921179 
L 133.630962 71.017105 
L 133.713279 70.8722 
L 133.729199 70.946821 
L 133.762671 70.526848 
L 133.767687 71.250048 
L 133.837776 71.002683 
L 133.882702 71.043619 
L 133.879377 70.817652 
L 133.942443 71.001597 
L 134.036663 70.846487 
L 134.04573 71.023606 
L 134.05397 70.963988 
L 134.067146 70.867054 
L 134.11155 71.074145 
L 134.164868 70.973734 
L 134.253954 70.855769 
L 134.207419 71.020631 
L 134.261289 70.973645 
L 134.262106 71.038305 
L 134.282472 70.8883 
L 134.371025 70.915218 
L 134.39128 71.062993 
L 134.383181 70.82669 
L 134.489822 70.94744 
L 134.546141 70.769993 
L 134.551764 71.071596 
L 134.599094 70.960489 
L 134.701383 70.813266 
L 134.709352 71.05171 
L 134.7571 70.867955 
L 134.820581 70.890455 
L 134.931184 71.206454 
L 134.925669 70.628328 
L 134.933547 71.164665 
L 134.939846 70.779085 
L 135.045084 70.971064 
L 135.059175 70.845955 
L 135.063089 71.034706 
L 135.154431 71.029167 
L 135.239145 70.896171 
L 135.269368 70.950249 
L 135.355132 71.020479 
L 135.282528 70.894933 
L 135.378248 70.944921 
L 135.477337 70.8741 
L 135.412872 71.00943 
L 135.488059 70.922161 
L 135.503369 71.029023 
L 135.56525 70.857012 
L 135.599544 70.959276 
L 135.643657 71.021415 
L 135.65353 70.893229 
L 135.709641 70.943874 
L 135.819125 70.868721 
L 135.721752 71.027226 
L 135.820631 70.923453 
L 135.925756 71.057285 
L 135.920512 70.850189 
L 135.930997 70.928501 
L 135.933243 70.889038 
L 135.976613 71.030114 
L 136.040746 70.975496 
L 136.149885 70.880066 
L 136.154327 70.994492 
L 136.228211 71.048412 
L 136.208288 70.83841 
L 136.264309 70.932654 
L 136.368557 70.999893 
L 136.303284 70.876 
L 136.375145 70.924533 
L 136.481717 70.876532 
L 136.383194 71.024233 
L 136.485357 70.933441 
L 136.528254 71.006993 
L 136.522444 70.88931 
L 136.595679 70.940763 
L 136.628222 70.853668 
L 136.632557 71.026116 
L 136.704664 70.977276 
L 136.705385 71.011292 
L 136.716897 70.89122 
L 136.815911 70.986268 
L 136.836656 70.840234 
L 136.843803 71.037165 
L 136.927953 70.943331 
L 136.994731 71.120724 
L 136.989769 70.743107 
L 137.03936 70.966013 
L 137.112813 71.006349 
L 137.061284 70.897843 
L 137.147326 70.947066 
L 137.19161 70.85844 
L 137.197225 71.01552 
L 137.258198 70.957056 
L 137.328047 71.014028 
L 137.284771 70.892512 
L 137.357311 70.946751 
L 137.440681 70.880836 
L 137.442762 71.045747 
L 137.468393 70.949299 
L 137.489151 71.003003 
L 137.471855 70.888631 
L 137.578851 70.991403 
L 137.664029 70.850764 
L 137.668826 71.027623 
L 137.689373 70.960924 
L 137.715369 71.021429 
L 137.739281 70.889207 
L 137.799278 70.974217 
L 137.805402 70.782358 
L 137.809486 71.094107 
L 137.9106 70.931004 
L 138.008505 71.024553 
L 138.006482 70.872819 
L 138.021296 70.916614 
L 138.040135 71.000921 
L 138.13137 70.884848 
L 138.13271 70.956519 
L 138.209526 70.871462 
L 138.216191 71.004268 
L 138.243494 70.960243 
L 138.294009 70.885347 
L 138.288034 71.019977 
L 138.351674 70.966534 
L 138.45926 71.01197 
L 138.367552 70.858472 
L 138.461233 70.974258 
L 138.4882 70.873134 
L 138.558402 71.00379 
L 138.57215 70.957591 
L 138.681141 70.90148 
L 138.595696 71.001269 
L 138.682442 70.953427 
L 138.696753 71.038631 
L 138.69025 70.868216 
L 138.793413 70.963033 
L 138.815404 71.010136 
L 138.860597 70.890553 
L 138.890242 70.891166 
L 138.966079 70.89571 
L 138.892818 71.03887 
L 138.99172 70.933278 
L 139.064615 70.995667 
L 139.076102 70.888034 
L 139.102874 70.937051 
L 139.166471 70.896719 
L 139.14932 71.010719 
L 139.213399 70.946246 
L 139.224165 71.010103 
L 139.272221 70.888707 
L 139.323938 70.968073 
L 139.359808 70.887225 
L 139.351005 71.017135 
L 139.43511 70.94877 
L 139.518858 71.013059 
L 139.524468 70.834985 
L 139.545656 70.979255 
L 139.584853 70.892491 
L 139.652487 70.996763 
L 139.65682 70.950399 
L 139.674154 71.042634 
L 139.667966 70.83556 
L 139.76736 70.93495 
L 139.836824 70.998107 
L 139.866868 70.882704 
L 139.877282 70.923236 
L 139.948187 70.889348 
L 139.880956 71.015252 
L 139.9872 70.919127 
L 140.091055 70.998435 
L 140.075906 70.891617 
L 140.098323 70.960517 
L 140.157572 70.881841 
L 140.143684 71.031471 
L 140.209423 70.944129 
L 140.297731 71.015865 
L 140.292936 70.871858 
L 140.317501 70.942245 
L 140.379677 70.850601 
L 140.338448 71.030375 
L 140.427966 70.921993 
L 140.493948 71.044219 
L 140.488012 70.871234 
L 140.538999 70.935406 
L 140.596345 71.000037 
L 140.574489 70.875506 
L 140.649993 70.934662 
L 140.749825 70.988491 
L 140.669412 70.900682 
L 140.762122 70.965657 
L 140.801303 70.894684 
L 140.810647 71.001784 
L 140.87303 70.939634 
L 140.959571 71.000729 
L 140.877104 70.896589 
L 140.984474 70.957167 
L 141.053806 70.882014 
L 141.058421 70.993088 
L 141.094714 70.936296 
L 141.109671 71.007823 
L 141.10622 70.883871 
L 141.205482 71.003679 
L 141.236362 70.886189 
L 141.280882 71.012937 
L 141.316767 70.975433 
L 141.371891 70.884772 
L 141.388907 70.999963 
L 141.427992 70.949153 
L 141.46982 71.024178 
L 141.451744 70.887524 
L 141.539151 70.955224 
L 141.641292 71.009327 
L 141.552089 70.882508 
L 141.647447 70.97153 
L 141.731204 70.892941 
L 141.65472 70.999692 
L 141.758489 70.920234 
L 141.820153 71.008073 
L 141.816272 70.878269 
L 141.870012 70.972684 
L 141.976503 70.889912 
L 141.91312 71.019746 
L 141.980905 70.955734 
L 142.029807 70.89432 
L 142.026516 70.998926 
L 142.092271 70.952434 
L 142.133254 71.025468 
L 142.128341 70.856545 
L 142.203549 70.974264 
L 142.267632 70.891405 
L 142.216057 71.011732 
L 142.314745 70.916787 
L 142.382777 71.003014 
L 142.416166 70.891155 
L 142.426387 70.987022 
L 142.502072 70.883154 
L 142.528843 71.012396 
L 142.537401 70.941925 
L 142.605733 71.039792 
L 142.604135 70.872254 
L 142.648321 70.931704 
L 142.681263 70.881851 
L 142.661079 71.006588 
L 142.757031 70.949451 
L 142.779229 71.025742 
L 142.773947 70.835555 
L 142.867772 70.928919 
L 142.951729 71.02347 
L 142.908222 70.894309 
L 142.982076 70.936204 
L 142.998799 70.885526 
L 143.052528 70.999963 
L 143.092598 70.949098 
L 143.163174 70.880277 
L 143.1668 71.018237 
L 143.203537 70.945909 
L 143.246912 71.024903 
L 143.273201 70.898185 
L 143.313338 70.948347 
L 143.371341 70.885016 
L 143.314367 70.996945 
L 143.424062 70.950556 
L 143.844312 70.923524 
L 143.426618 70.973094 
L 143.844812 70.954318 
L 143.91623 71.040219 
L 143.911244 70.868455 
L 143.955574 70.950643 
L 144.010223 71.014234 
L 143.958557 70.896909 
L 144.062743 70.940118 
L 144.124003 70.870089 
L 144.125484 71.025487 
L 144.172775 70.920706 
L 144.201785 71.011512 
L 144.184091 70.89153 
L 144.283664 70.967014 
L 144.365204 70.887252 
L 144.368127 71.017697 
L 144.394902 70.948005 
L 144.562518 70.97526 
L 144.401227 70.911706 
L 144.565892 70.895715 
L 144.566375 70.884256 
L 144.569269 71.018232 
L 144.673629 70.93381 
L 144.73732 71.053189 
L 144.735884 70.87606 
L 144.784595 70.942587 
L 144.857431 70.894613 
L 144.786502 70.995922 
L 144.888294 70.946653 
L 144.96264 71.013021 
L 144.903945 70.886389 
L 144.999472 70.956378 
L 145.036705 70.891997 
L 145.005603 71.002989 
L 145.110022 70.931861 
L 145.117994 71.008171 
L 145.177457 70.88113 
L 145.221353 70.967402 
L 145.28004 70.875468 
L 145.226484 70.997941 
L 145.332056 70.926878 
L 145.366814 71.019828 
L 145.380236 70.884848 
L 145.443061 70.948689 
L 145.543811 70.989378 
L 145.486369 70.863786 
L 145.554362 70.957824 
L 145.556196 70.883556 
L 145.611147 71.02597 
L 145.665488 70.921162 
L 145.712402 70.896497 
L 145.675974 71.001586 
L 145.775084 70.940508 
L 145.815403 71.024309 
L 145.818118 70.88487 
L 145.886325 70.989503 
L 145.978547 70.89242 
L 145.893538 71.014378 
L 145.997388 70.972554 
L 146.07793 70.866631 
L 145.999629 71.014348 
L 146.109163 70.956915 
L 146.207003 71.011764 
L 146.147023 70.871554 
L 146.220307 70.969712 
L 146.305239 70.880391 
L 146.308772 71.008757 
L 146.331265 70.940997 
L 146.42011 71.017792 
L 146.373977 70.875766 
L 146.4416 70.925109 
L 146.517725 70.871788 
L 146.522091 71.016595 
L 146.551755 70.939803 
L 146.635269 71.011696 
L 146.644815 70.887453 
L 146.662595 70.948385 
L 146.663028 70.893951 
L 146.687718 71.008836 
L 146.773675 70.923627 
L 146.797795 71.010198 
L 146.849814 70.890759 
L 146.884559 70.926216 
L 146.993115 70.894146 
L 146.96027 71.024607 
L 146.993967 70.897262 
L 146.996524 71.001896 
L 146.998654 70.896649 
L 147.105312 70.93907 
L 147.144684 71.01808 
L 147.146799 70.889912 
L 147.216451 70.946262 
L 147.322773 71.00312 
L 147.301388 70.89153 
L 147.325708 70.961844 
L 147.377601 70.879941 
L 147.379272 71.022501 
L 147.43686 70.940324 
L 147.465589 71.005801 
L 147.507153 70.891921 
L 147.547799 70.975786 
L 147.548214 70.898608 
L 147.633792 71.013713 
L 147.658941 70.969916 
L 147.661412 70.893218 
L 147.710373 71.009262 
L 147.769866 70.944172 
L 147.875687 71.028214 
L 147.874871 70.868922 
L 147.880984 70.967538 
L 147.918425 70.893424 
L 147.883019 71.002238 
L 147.992286 70.949872 
L 148.063447 71.012573 
L 148.055371 70.880245 
L 148.103361 70.948282 
L 148.204599 70.893788 
L 148.164488 71.029265 
L 148.213814 70.928458 
L 148.311297 71.009932 
L 148.23303 70.89122 
L 148.324843 70.94681 
L 148.372972 70.879512 
L 148.354291 71.009585 
L 148.435247 70.924962 
L 148.468882 71.008814 
L 148.49851 70.896562 
L 148.546216 70.936741 
L 148.566289 71.028439 
L 148.643636 70.884978 
L 148.657345 70.956557 
L 148.737843 70.879029 
L 148.739015 71.03225 
L 148.768239 70.959876 
L 148.805972 71.009452 
L 148.78653 70.885765 
L 148.877347 70.977417 
L 148.913324 70.880283 
L 148.951166 71.02468 
L 148.988161 70.980471 
L 149.066935 71.023144 
L 149.012403 70.878975 
L 149.098356 70.946935 
L 149.159902 70.875376 
L 149.103715 71.003432 
L 149.207934 70.941366 
L 149.23685 71.007837 
L 149.291141 70.88443 
L 149.318796 70.963839 
L 149.42452 70.889435 
L 149.351331 71.019665 
L 149.429793 70.931058 
L 149.445973 71.018308 
L 149.465524 70.884566 
L 149.540911 70.970651 
L 149.63651 70.893663 
L 149.62943 71.025386 
L 149.65215 70.917612 
L 149.70048 71.014109 
L 149.658846 70.893712 
L 149.764612 70.987883 
L 149.859866 70.878567 
L 149.860971 71.025544 
L 149.875696 70.936546 
L 149.892251 71.019801 
L 149.964922 70.884734 
L 149.98579 70.974103 
L 150.056294 70.8734 
L 150.065406 71.011243 
L 150.096727 70.974158 
L 150.131994 70.85806 
L 150.134173 71.01789 
L 150.208127 70.936899 
L 150.261604 71.011628 
L 150.211383 70.895042 
L 150.318896 70.954746 
L 150.381401 70.888935 
L 150.411864 71.013292 
L 150.42976 70.931541 
L 150.461935 71.006472 
L 150.522917 70.890005 
L 150.540358 70.977238 
L 150.634409 70.894488 
L 150.560626 71.012101 
L 150.651398 70.930743 
L 150.688508 71.018343 
L 150.687449 70.881309 
L 150.762867 70.966914 
L 150.873709 70.894467 
L 150.788177 71.003117 
L 150.87441 70.924826 
L 150.946328 71.046225 
L 150.945281 70.891177 
L 150.985667 70.962248 
L 150.998532 70.883328 
L 150.998878 71.023712 
L 151.097681 70.918714 
L 151.152933 71.001024 
L 151.166377 70.88475 
L 151.208373 70.951012 
L 151.289359 70.870729 
L 151.28285 71.013726 
L 151.31947 70.938793 
L 151.376487 71.018522 
L 151.375465 70.894781 
L 151.430623 70.961705 
L 151.504601 70.886585 
L 151.529988 71.007126 
L 151.541487 70.948813 
L 151.599549 71.020878 
L 151.618418 70.863179 
L 151.652737 70.9579 
L 151.709133 70.892534 
L 151.707455 71.007332 
L 151.763694 70.92468 
L 151.871037 71.009587 
L 151.800429 70.880934 
L 151.874693 70.96775 
L 151.937746 70.88887 
L 151.912217 71.008523 
L 151.98573 70.92861 
L 152.082333 71.003378 
L 152.093183 70.892844 
L 152.0968 70.996128 
L 152.137509 70.881281 
L 152.138165 71.001774 
L 152.207896 70.961629 
L 152.240224 70.885651 
L 152.208551 71.003152 
L 152.319344 70.935346 
L 152.341429 71.025964 
L 152.413031 70.88659 
L 152.430486 70.981708 
L 152.461481 70.894863 
L 152.439854 71.022021 
L 152.541645 70.936801 
L 152.6509 71.018232 
L 152.549355 70.886943 
L 152.652817 70.959917 
L 152.756692 70.896247 
L 152.707371 71.020541 
L 152.763999 70.952027 
L 152.86792 70.903401 
L 152.767174 70.99425 
L 152.872028 70.944911 
L 152.910849 71.011262 
L 152.881504 70.893538 
L 152.98292 70.993075 
L 153.035314 70.886862 
L 153.00992 71.017228 
L 153.094128 70.942473 
L 153.114111 71.025389 
L 153.121597 70.890786 
L 153.20471 70.963252 
L 153.265807 70.889934 
L 153.238537 71.007392 
L 153.315905 70.94769 
L 153.373887 70.896839 
L 153.417875 71.005326 
L 153.425864 70.933517 
L 153.482909 71.018082 
L 153.525737 70.879718 
L 153.536735 70.953498 
L 153.569692 70.868786 
L 153.628448 71.014114 
L 153.647288 70.920348 
L 153.727907 71.020731 
L 153.742417 70.879924 
L 153.758128 70.946376 
L 153.837691 70.890205 
L 153.763262 71.00179 
L 153.868945 70.950233 
L 153.966895 71.012546 
L 153.966 70.871147 
L 153.979739 70.936144 
L 154.02418 71.016405 
L 154.051569 70.879409 
L 154.091396 70.961985 
L 154.124325 70.891915 
L 154.126103 71.019005 
L 154.202421 70.940253 
L 154.247539 71.021752 
L 154.246656 70.859091 
L 154.313408 70.964265 
L 154.313996 70.892697 
L 154.332482 71.019665 
L 154.424357 70.957604 
L 154.484398 70.875289 
L 154.468969 71.009965 
L 154.535553 70.95327 
L 154.623594 71.031384 
L 154.630241 70.868487 
L 154.646121 70.97209 
L 154.74516 70.883958 
L 154.681592 71.022335 
L 154.757218 70.94357 
L 154.821404 71.018224 
L 154.813393 70.873476 
L 154.868549 70.959827 
L 154.874827 70.891286 
L 154.869977 71.001573 
L 154.979817 70.92443 
L 155.033943 71.025769 
L 155.033376 70.88031 
L 155.091025 70.952095 
L 155.166781 70.996611 
L 155.11443 70.87207 
L 155.201884 70.943792 
L 155.208338 71.042884 
L 155.207496 70.87924 
L 155.312681 70.949772 
L 155.368959 70.880836 
L 155.369514 71.010915 
L 155.423689 70.939933 
L 155.505082 70.885651 
L 155.465812 71.025291 
L 155.533244 70.909633 
L 155.552822 71.05089 
L 155.551719 70.876814 
L 155.644386 70.959415 
L 155.738528 70.891606 
L 155.72296 71.017209 
L 155.755175 70.959985 
L 155.804215 71.007251 
L 155.779982 70.886927 
L 155.865071 70.946653 
L 155.921142 70.875696 
L 155.932499 71.011702 
L 155.975975 70.957637 
L 156.043831 70.894749 
L 156.02635 71.01263 
L 156.08545 70.949506 
L 156.145174 71.021831 
L 156.155869 70.864465 
L 156.196452 70.969967 
L 156.272587 70.89052 
L 156.273384 71.015892 
L 156.307627 70.961496 
L 156.41369 71.005695 
L 156.320882 70.883312 
L 156.418175 70.95508 
L 156.490303 70.866761 
L 156.42503 71.012185 
L 156.529153 70.971311 
L 156.591728 70.888349 
L 156.535446 71.014714 
L 156.640289 70.953406 
L 156.660359 71.012421 
L 156.659316 70.885971 
L 156.7508 70.993922 
L 156.805695 70.88354 
L 156.799231 71.03108 
L 156.861983 70.936193 
L 156.921967 70.871891 
L 156.922738 71.018161 
L 156.970746 70.893663 
L 157.076867 71.02097 
L 157.067684 70.878763 
L 157.081966 70.959037 
L 157.163892 70.863282 
L 157.164654 71.021909 
L 157.193323 70.931058 
L 157.265695 71.011015 
L 157.194336 70.892398 
L 157.304303 70.965763 
L 157.373253 70.891894 
L 157.331257 71.003999 
L 157.41516 70.964376 
L 157.429945 71.029381 
L 157.429443 70.888371 
L 157.525645 70.948925 
L 157.551551 70.882112 
L 157.62485 71.015444 
L 157.636751 70.947527 
L 157.729971 70.889695 
L 157.733178 71.029837 
L 157.747724 70.955979 
L 157.80998 71.013686 
L 157.822506 70.881509 
L 157.858808 70.960715 
L 157.994109 70.882514 
L 157.867139 70.987354 
L 157.997031 70.94091 
L 157.997273 71.021413 
L 158.068203 70.880858 
L 158.107927 70.976033 
L 158.166882 70.870539 
L 158.167366 71.024062 
L 158.219165 70.938017 
L 158.284502 71.031308 
L 158.329535 70.866555 
L 158.330493 70.995561 
L 158.432626 70.882986 
L 158.408573 71.01276 
L 158.441669 70.947038 
L 158.525944 70.86915 
L 158.466633 71.008054 
L 158.548434 70.922167 
L 158.578223 71.020137 
L 158.646618 70.879751 
L 158.659562 70.949785 
L 158.675555 71.011528 
L 158.689184 70.88538 
L 158.769832 70.961985 
L 158.869246 70.883692 
L 158.796952 71.016107 
L 158.880883 70.943722 
L 158.932459 70.889657 
L 158.977885 71.038948 
L 158.991769 70.952643 
L 159.030594 70.887198 
L 159.059662 71.016381 
L 159.102724 70.92811 
L 159.152577 71.011335 
L 159.210768 70.87657 
L 159.213742 70.94199 
L 159.319132 70.846628 
L 159.294318 71.036755 
L 159.32459 70.953281 
L 159.409018 70.884696 
L 159.325046 70.995957 
L 159.426899 70.917781 
L 159.513591 71.021885 
L 159.436173 70.888012 
L 159.537904 70.953707 
L 159.586665 71.035616 
L 159.561964 70.882921 
L 159.648508 70.981529 
L 159.678018 70.897729 
L 159.745364 71.01523 
L 159.759607 70.929706 
L 159.846173 71.005598 
L 159.824678 70.880934 
L 159.870521 70.933186 
L 159.893292 70.877313 
L 159.978834 71.0294 
L 159.981472 70.94376 
L 160.032217 71.005687 
L 160.051076 70.881037 
L 160.092457 70.941751 
L 160.196726 70.867309 
L 160.174524 71.008122 
L 160.202817 70.943239 
L 160.21521 71.015064 
L 160.284425 70.877124 
L 160.313858 70.981307 
L 160.341089 70.875777 
L 160.38639 71.025828 
L 160.424921 70.939846 
L 160.426856 71.011137 
L 160.514604 70.86998 
L 160.536214 70.986759 
L 160.61794 70.886981 
L 160.557157 71.010868 
L 160.647517 70.936502 
L 160.665156 71.009311 
L 160.726029 70.878019 
L 160.758826 70.969799 
L 160.861939 70.875799 
L 160.86236 71.036128 
L 160.86993 70.948108 
L 160.891572 70.896915 
L 160.872032 71.01323 
L 160.980826 70.960625 
L 161.044897 71.018973 
L 161.042189 70.874035 
L 161.088189 70.977184 
L 161.140095 70.873242 
L 161.14217 71.03051 
L 161.199309 70.957113 
L 161.291089 71.001928 
L 161.255047 70.87645 
L 161.310216 70.976576 
L 161.384491 70.878676 
L 161.375272 71.009663 
L 161.421522 70.920788 
L 161.505963 71.035673 
L 161.423566 70.8864 
L 161.53281 70.990654 
L 161.589433 70.869177 
L 161.590044 71.048735 
L 161.643875 70.910393 
L 161.707837 71.026922 
L 161.707434 70.880934 
L 161.75512 70.981423 
L 161.808303 70.877509 
L 161.842944 71.01963 
L 161.866537 70.909644 
L 161.929179 71.007568 
L 161.928581 70.879599 
L 161.977722 70.968708 
L 162.063568 70.867103 
L 162.032285 71.032364 
L 162.088677 70.941773 
L 162.136825 71.02208 
L 162.132883 70.887247 
L 162.19999 70.981019 
L 162.201954 70.880006 
L 162.203132 71.044805 
L 162.311067 70.964772 
L 162.392746 71.012027 
L 162.358479 70.880364 
L 162.413358 70.971259 
L 162.455678 70.896877 
L 162.453544 71.025923 
L 162.524397 70.914828 
L 162.530193 71.024121 
L 162.580743 70.892322 
L 162.635579 70.987188 
L 162.694098 70.888534 
L 162.713819 71.011829 
L 162.746709 70.942354 
L 162.842391 70.883882 
L 162.787745 71.019117 
L 162.845051 70.929451 
L 162.878673 71.002506 
L 162.876963 70.886677 
L 162.956141 70.950928 
L 163.054947 71.013357 
L 163.055322 70.867982 
L 163.066227 70.930651 
L 163.07619 70.88412 
L 163.087271 71.020102 
L 163.177012 70.934711 
L 163.18374 71.022132 
L 163.183177 70.871668 
L 163.2881 70.961947 
L 163.338405 70.884316 
L 163.338036 71.010103 
L 163.399121 70.948553 
L 163.483953 70.88792 
L 163.402818 71.015542 
L 163.508046 70.919463 
L 163.591494 71.021141 
L 163.596253 70.897995 
L 163.619112 70.941936 
L 163.723193 71.012331 
L 163.662744 70.863884 
L 163.730281 70.960848 
L 163.804284 70.881477 
L 163.752619 71.036888 
L 163.841363 70.955905 
L 163.878553 70.875625 
L 163.879094 71.023082 
L 163.952544 70.910393 
L 164.060056 71.007047 
L 164.005656 70.880207 
L 164.06363 70.975336 
L 164.075241 71.021103 
L 164.103075 70.872282 
L 164.169651 70.940031 
L 164.227143 70.864948 
L 164.190433 71.00699 
L 164.280404 70.956321 
L 165.66427 70.943266 
L 165.721003 71.095942 
L 165.720674 70.791972 
L 165.775282 70.931677 
L 165.788869 71.004797 
L 165.786412 70.891389 
L 165.790505 70.911826 
" clip-path="url(#p7a7778507d)" style="fill: none; stroke: #808080; stroke-linecap: square"/>
   </g>
   <g id="line2d_3">
    <path d="M 57.377031 25.41395 
L 165.790668 25.41395 
" clip-path="url(#p7a7778507d)" style="fill: none; stroke-dasharray: 6.4,1.6,1,1.6; stroke-dashoffset: 0; stroke: #808080"/>
   </g>
   <g id="matplotlib.axis_1">
    <g id="xtick_1">
     <g id="line2d_4">
      <defs>
       <path id="me5abc6ad7a" d="M 0 0 
L 0 6 
" style="stroke: #000000"/>
      </defs>
      <g>
       <use xlink:href="#me5abc6ad7a" x="57.377031" y="116.483699" style="stroke: #000000"/>
      </g>
     </g>
     <g id="text_1">
      <!-- $\mathdefault{10^{1}}$ -->
      <g transform="translate(44.032031 140.014949)scale(0.17 -0.17)">
       <defs>
        <path id="ArialMT-31" d="M 2384 0 
L 1822 0 
L 1822 3584 
Q 1619 3391 1289 3197 
Q 959 3003 697 2906 
L 697 3450 
Q 1169 3672 1522 3987 
Q 1875 4303 2022 4600 
L 2384 4600 
L 2384 0 
z
" transform="scale(0.015625)"/>
        <path id="ArialMT-30" d="M 266 2259 
Q 266 3072 433 3567 
Q 600 4063 929 4331 
Q 1259 4600 1759 4600 
Q 2128 4600 2406 4451 
Q 2684 4303 2865 4023 
Q 3047 3744 3150 3342 
Q 3253 2941 3253 2259 
Q 3253 1453 3087 958 
Q 2922 463 2592 192 
Q 2263 -78 1759 -78 
Q 1097 -78 719 397 
Q 266 969 266 2259 
z
M 844 2259 
Q 844 1131 1108 757 
Q 1372 384 1759 384 
Q 2147 384 2411 759 
Q 2675 1134 2675 2259 
Q 2675 3391 2411 3762 
Q 2147 4134 1753 4134 
Q 1366 4134 1134 3806 
Q 844 3388 844 2259 
z
" transform="scale(0.015625)"/>
       </defs>
       <use xlink:href="#ArialMT-31" transform="translate(0 0.99375)"/>
       <use xlink:href="#ArialMT-30" transform="translate(55.615234 0.99375)"/>
       <use xlink:href="#ArialMT-31" transform="translate(112.972813 70.6875)scale(0.7)"/>
      </g>
     </g>
    </g>
    <g id="xtick_2">
     <g id="line2d_5">
      <g>
       <use xlink:href="#me5abc6ad7a" x="102.588186" y="116.483699" style="stroke: #000000"/>
      </g>
     </g>
     <g id="text_2">
      <!-- $\mathdefault{10^{2}}$ -->
      <g transform="translate(89.243186 140.014949)scale(0.17 -0.17)">
       <defs>
        <path id="ArialMT-32" d="M 3222 541 
L 3222 0 
L 194 0 
Q 188 203 259 391 
Q 375 700 629 1000 
Q 884 1300 1366 1694 
Q 2113 2306 2375 2664 
Q 2638 3022 2638 3341 
Q 2638 3675 2398 3904 
Q 2159 4134 1775 4134 
Q 1369 4134 1125 3890 
Q 881 3647 878 3216 
L 300 3275 
Q 359 3922 746 4261 
Q 1134 4600 1788 4600 
Q 2447 4600 2831 4234 
Q 3216 3869 3216 3328 
Q 3216 3053 3103 2787 
Q 2991 2522 2730 2228 
Q 2469 1934 1863 1422 
Q 1356 997 1212 845 
Q 1069 694 975 541 
L 3222 541 
z
" transform="scale(0.015625)"/>
       </defs>
       <use xlink:href="#ArialMT-31" transform="translate(0 0.99375)"/>
       <use xlink:href="#ArialMT-30" transform="translate(55.615234 0.99375)"/>
       <use xlink:href="#ArialMT-32" transform="translate(112.972813 70.6875)scale(0.7)"/>
      </g>
     </g>
    </g>
    <g id="xtick_3">
     <g id="line2d_6">
      <g>
       <use xlink:href="#me5abc6ad7a" x="147.79934" y="116.483699" style="stroke: #000000"/>
      </g>
     </g>
     <g id="text_3">
      <!-- $\mathdefault{10^{3}}$ -->
      <g transform="translate(134.45434 140.014949)scale(0.17 -0.17)">
       <defs>
        <path id="ArialMT-33" d="M 269 1209 
L 831 1284 
Q 928 806 1161 595 
Q 1394 384 1728 384 
Q 2125 384 2398 659 
Q 2672 934 2672 1341 
Q 2672 1728 2419 1979 
Q 2166 2231 1775 2231 
Q 1616 2231 1378 2169 
L 1441 2663 
Q 1497 2656 1531 2656 
Q 1891 2656 2178 2843 
Q 2466 3031 2466 3422 
Q 2466 3731 2256 3934 
Q 2047 4138 1716 4138 
Q 1388 4138 1169 3931 
Q 950 3725 888 3313 
L 325 3413 
Q 428 3978 793 4289 
Q 1159 4600 1703 4600 
Q 2078 4600 2393 4439 
Q 2709 4278 2876 4000 
Q 3044 3722 3044 3409 
Q 3044 3113 2884 2869 
Q 2725 2625 2413 2481 
Q 2819 2388 3044 2092 
Q 3269 1797 3269 1353 
Q 3269 753 2831 336 
Q 2394 -81 1725 -81 
Q 1122 -81 723 278 
Q 325 638 269 1209 
z
" transform="scale(0.015625)"/>
       </defs>
       <use xlink:href="#ArialMT-31" transform="translate(0 0.99375)"/>
       <use xlink:href="#ArialMT-30" transform="translate(55.615234 0.99375)"/>
       <use xlink:href="#ArialMT-33" transform="translate(112.972813 70.6875)scale(0.7)"/>
      </g>
     </g>
    </g>
    <g id="xtick_4">
     <g id="line2d_7">
      <defs>
       <path id="mf6ca3380d3" d="M 0 0 
L 0 3 
" style="stroke: #000000"/>
      </defs>
      <g>
       <use xlink:href="#mf6ca3380d3" x="70.986945" y="116.483699" style="stroke: #000000"/>
      </g>
     </g>
    </g>
    <g id="xtick_5">
     <g id="line2d_8">
      <g>
       <use xlink:href="#mf6ca3380d3" x="78.948234" y="116.483699" style="stroke: #000000"/>
      </g>
     </g>
    </g>
    <g id="xtick_6">
     <g id="line2d_9">
      <g>
       <use xlink:href="#mf6ca3380d3" x="84.596859" y="116.483699" style="stroke: #000000"/>
      </g>
     </g>
    </g>
    <g id="xtick_7">
     <g id="line2d_10">
      <g>
       <use xlink:href="#mf6ca3380d3" x="88.978272" y="116.483699" style="stroke: #000000"/>
      </g>
     </g>
    </g>
    <g id="xtick_8">
     <g id="line2d_11">
      <g>
       <use xlink:href="#mf6ca3380d3" x="92.558148" y="116.483699" style="stroke: #000000"/>
      </g>
     </g>
    </g>
    <g id="xtick_9">
     <g id="line2d_12">
      <g>
       <use xlink:href="#mf6ca3380d3" x="95.584889" y="116.483699" style="stroke: #000000"/>
      </g>
     </g>
    </g>
    <g id="xtick_10">
     <g id="line2d_13">
      <g>
       <use xlink:href="#mf6ca3380d3" x="98.206772" y="116.483699" style="stroke: #000000"/>
      </g>
     </g>
    </g>
    <g id="xtick_11">
     <g id="line2d_14">
      <g>
       <use xlink:href="#mf6ca3380d3" x="100.519437" y="116.483699" style="stroke: #000000"/>
      </g>
     </g>
    </g>
    <g id="xtick_12">
     <g id="line2d_15">
      <g>
       <use xlink:href="#mf6ca3380d3" x="116.198099" y="116.483699" style="stroke: #000000"/>
      </g>
     </g>
    </g>
    <g id="xtick_13">
     <g id="line2d_16">
      <g>
       <use xlink:href="#mf6ca3380d3" x="124.159389" y="116.483699" style="stroke: #000000"/>
      </g>
     </g>
    </g>
    <g id="xtick_14">
     <g id="line2d_17">
      <g>
       <use xlink:href="#mf6ca3380d3" x="129.808013" y="116.483699" style="stroke: #000000"/>
      </g>
     </g>
    </g>
    <g id="xtick_15">
     <g id="line2d_18">
      <g>
       <use xlink:href="#mf6ca3380d3" x="134.189427" y="116.483699" style="stroke: #000000"/>
      </g>
     </g>
    </g>
    <g id="xtick_16">
     <g id="line2d_19">
      <g>
       <use xlink:href="#mf6ca3380d3" x="137.769302" y="116.483699" style="stroke: #000000"/>
      </g>
     </g>
    </g>
    <g id="xtick_17">
     <g id="line2d_20">
      <g>
       <use xlink:href="#mf6ca3380d3" x="140.796044" y="116.483699" style="stroke: #000000"/>
      </g>
     </g>
    </g>
    <g id="xtick_18">
     <g id="line2d_21">
      <g>
       <use xlink:href="#mf6ca3380d3" x="143.417927" y="116.483699" style="stroke: #000000"/>
      </g>
     </g>
    </g>
    <g id="xtick_19">
     <g id="line2d_22">
      <g>
       <use xlink:href="#mf6ca3380d3" x="145.730591" y="116.483699" style="stroke: #000000"/>
      </g>
     </g>
    </g>
    <g id="xtick_20">
     <g id="line2d_23">
      <g>
       <use xlink:href="#mf6ca3380d3" x="161.409254" y="116.483699" style="stroke: #000000"/>
      </g>
     </g>
    </g>
    <g id="text_4">
     <!-- Time (ms) -->
     <g transform="translate(73.663224 159.769168)scale(0.17 -0.17)">
      <defs>
       <path id="ArialMT-54" d="M 1659 0 
L 1659 4041 
L 150 4041 
L 150 4581 
L 3781 4581 
L 3781 4041 
L 2266 4041 
L 2266 0 
L 1659 0 
z
" transform="scale(0.015625)"/>
       <path id="ArialMT-69" d="M 425 3934 
L 425 4581 
L 988 4581 
L 988 3934 
L 425 3934 
z
M 425 0 
L 425 3319 
L 988 3319 
L 988 0 
L 425 0 
z
" transform="scale(0.015625)"/>
       <path id="ArialMT-6d" d="M 422 0 
L 422 3319 
L 925 3319 
L 925 2853 
Q 1081 3097 1340 3245 
Q 1600 3394 1931 3394 
Q 2300 3394 2536 3241 
Q 2772 3088 2869 2813 
Q 3263 3394 3894 3394 
Q 4388 3394 4653 3120 
Q 4919 2847 4919 2278 
L 4919 0 
L 4359 0 
L 4359 2091 
Q 4359 2428 4304 2576 
Q 4250 2725 4106 2815 
Q 3963 2906 3769 2906 
Q 3419 2906 3187 2673 
Q 2956 2441 2956 1928 
L 2956 0 
L 2394 0 
L 2394 2156 
Q 2394 2531 2256 2718 
Q 2119 2906 1806 2906 
Q 1569 2906 1367 2781 
Q 1166 2656 1075 2415 
Q 984 2175 984 1722 
L 984 0 
L 422 0 
z
" transform="scale(0.015625)"/>
       <path id="ArialMT-65" d="M 2694 1069 
L 3275 997 
Q 3138 488 2766 206 
Q 2394 -75 1816 -75 
Q 1088 -75 661 373 
Q 234 822 234 1631 
Q 234 2469 665 2931 
Q 1097 3394 1784 3394 
Q 2450 3394 2872 2941 
Q 3294 2488 3294 1666 
Q 3294 1616 3291 1516 
L 816 1516 
Q 847 969 1125 678 
Q 1403 388 1819 388 
Q 2128 388 2347 550 
Q 2566 713 2694 1069 
z
M 847 1978 
L 2700 1978 
Q 2663 2397 2488 2606 
Q 2219 2931 1791 2931 
Q 1403 2931 1139 2672 
Q 875 2413 847 1978 
z
" transform="scale(0.015625)"/>
       <path id="ArialMT-20" transform="scale(0.015625)"/>
       <path id="ArialMT-28" d="M 1497 -1347 
Q 1031 -759 709 28 
Q 388 816 388 1659 
Q 388 2403 628 3084 
Q 909 3875 1497 4659 
L 1900 4659 
Q 1522 4009 1400 3731 
Q 1209 3300 1100 2831 
Q 966 2247 966 1656 
Q 966 153 1900 -1347 
L 1497 -1347 
z
" transform="scale(0.015625)"/>
       <path id="ArialMT-73" d="M 197 991 
L 753 1078 
Q 800 744 1014 566 
Q 1228 388 1613 388 
Q 2000 388 2187 545 
Q 2375 703 2375 916 
Q 2375 1106 2209 1216 
Q 2094 1291 1634 1406 
Q 1016 1563 777 1677 
Q 538 1791 414 1992 
Q 291 2194 291 2438 
Q 291 2659 392 2848 
Q 494 3038 669 3163 
Q 800 3259 1026 3326 
Q 1253 3394 1513 3394 
Q 1903 3394 2198 3281 
Q 2494 3169 2634 2976 
Q 2775 2784 2828 2463 
L 2278 2388 
Q 2241 2644 2061 2787 
Q 1881 2931 1553 2931 
Q 1166 2931 1000 2803 
Q 834 2675 834 2503 
Q 834 2394 903 2306 
Q 972 2216 1119 2156 
Q 1203 2125 1616 2013 
Q 2213 1853 2448 1751 
Q 2684 1650 2818 1456 
Q 2953 1263 2953 975 
Q 2953 694 2789 445 
Q 2625 197 2315 61 
Q 2006 -75 1616 -75 
Q 969 -75 630 194 
Q 291 463 197 991 
z
" transform="scale(0.015625)"/>
       <path id="ArialMT-29" d="M 791 -1347 
L 388 -1347 
Q 1322 153 1322 1656 
Q 1322 2244 1188 2822 
Q 1081 3291 891 3722 
Q 769 4003 388 4659 
L 791 4659 
Q 1378 3875 1659 3084 
Q 1900 2403 1900 1659 
Q 1900 816 1576 28 
Q 1253 -759 791 -1347 
z
" transform="scale(0.015625)"/>
      </defs>
      <use xlink:href="#ArialMT-54"/>
      <use xlink:href="#ArialMT-69" x="57.333984"/>
      <use xlink:href="#ArialMT-6d" x="79.550781"/>
      <use xlink:href="#ArialMT-65" x="162.851562"/>
      <use xlink:href="#ArialMT-20" x="218.466797"/>
      <use xlink:href="#ArialMT-28" x="246.25"/>
      <use xlink:href="#ArialMT-6d" x="279.550781"/>
      <use xlink:href="#ArialMT-73" x="362.851562"/>
      <use xlink:href="#ArialMT-29" x="412.851562"/>
     </g>
    </g>
   </g>
   <g id="matplotlib.axis_2">
    <g id="ytick_1">
     <g id="line2d_24">
      <defs>
       <path id="m4543502efd" d="M 0 0 
L -6 0 
" style="stroke: #000000"/>
      </defs>
      <g>
       <use xlink:href="#m4543502efd" x="57.377031" y="116.483699" style="stroke: #000000"/>
      </g>
     </g>
     <g id="text_5">
      <!-- 0.0 -->
      <g transform="translate(26.747031 122.567839)scale(0.17 -0.17)">
       <defs>
        <path id="ArialMT-2e" d="M 581 0 
L 581 641 
L 1222 641 
L 1222 0 
L 581 0 
z
" transform="scale(0.015625)"/>
       </defs>
       <use xlink:href="#ArialMT-30"/>
       <use xlink:href="#ArialMT-2e" x="55.615234"/>
       <use xlink:href="#ArialMT-30" x="83.398438"/>
      </g>
     </g>
    </g>
    <g id="ytick_2">
     <g id="line2d_25">
      <g>
       <use xlink:href="#m4543502efd" x="57.377031" y="70.948824" style="stroke: #000000"/>
      </g>
     </g>
     <g id="text_6">
      <!-- 0.5 -->
      <g transform="translate(26.747031 77.032965)scale(0.17 -0.17)">
       <defs>
        <path id="ArialMT-35" d="M 266 1200 
L 856 1250 
Q 922 819 1161 601 
Q 1400 384 1738 384 
Q 2144 384 2425 690 
Q 2706 997 2706 1503 
Q 2706 1984 2436 2262 
Q 2166 2541 1728 2541 
Q 1456 2541 1237 2417 
Q 1019 2294 894 2097 
L 366 2166 
L 809 4519 
L 3088 4519 
L 3088 3981 
L 1259 3981 
L 1013 2750 
Q 1425 3038 1878 3038 
Q 2478 3038 2890 2622 
Q 3303 2206 3303 1553 
Q 3303 931 2941 478 
Q 2500 -78 1738 -78 
Q 1113 -78 717 272 
Q 322 622 266 1200 
z
" transform="scale(0.015625)"/>
       </defs>
       <use xlink:href="#ArialMT-30"/>
       <use xlink:href="#ArialMT-2e" x="55.615234"/>
       <use xlink:href="#ArialMT-35" x="83.398438"/>
      </g>
     </g>
    </g>
    <g id="ytick_3">
     <g id="line2d_26">
      <g>
       <use xlink:href="#m4543502efd" x="57.377031" y="25.41395" style="stroke: #000000"/>
      </g>
     </g>
     <g id="text_7">
      <!-- 1.0 -->
      <g transform="translate(26.747031 31.49809)scale(0.17 -0.17)">
       <use xlink:href="#ArialMT-31"/>
       <use xlink:href="#ArialMT-2e" x="55.615234"/>
       <use xlink:href="#ArialMT-30" x="83.398438"/>
      </g>
     </g>
    </g>
    <g id="text_8">
     <!-- DR-NED -->
     <g transform="translate(19.368281 94.896224)rotate(-90)scale(0.17 -0.17)">
      <defs>
       <path id="ArialMT-44" d="M 494 0 
L 494 4581 
L 2072 4581 
Q 2606 4581 2888 4516 
Q 3281 4425 3559 4188 
Q 3922 3881 4101 3404 
Q 4281 2928 4281 2316 
Q 4281 1794 4159 1391 
Q 4038 988 3847 723 
Q 3656 459 3429 307 
Q 3203 156 2883 78 
Q 2563 0 2147 0 
L 494 0 
z
M 1100 541 
L 2078 541 
Q 2531 541 2789 625 
Q 3047 709 3200 863 
Q 3416 1078 3536 1442 
Q 3656 1806 3656 2325 
Q 3656 3044 3420 3430 
Q 3184 3816 2847 3947 
Q 2603 4041 2063 4041 
L 1100 4041 
L 1100 541 
z
" transform="scale(0.015625)"/>
       <path id="ArialMT-52" d="M 503 0 
L 503 4581 
L 2534 4581 
Q 3147 4581 3465 4457 
Q 3784 4334 3975 4021 
Q 4166 3709 4166 3331 
Q 4166 2844 3850 2509 
Q 3534 2175 2875 2084 
Q 3116 1969 3241 1856 
Q 3506 1613 3744 1247 
L 4541 0 
L 3778 0 
L 3172 953 
Q 2906 1366 2734 1584 
Q 2563 1803 2427 1890 
Q 2291 1978 2150 2013 
Q 2047 2034 1813 2034 
L 1109 2034 
L 1109 0 
L 503 0 
z
M 1109 2559 
L 2413 2559 
Q 2828 2559 3062 2645 
Q 3297 2731 3419 2920 
Q 3541 3109 3541 3331 
Q 3541 3656 3305 3865 
Q 3069 4075 2559 4075 
L 1109 4075 
L 1109 2559 
z
" transform="scale(0.015625)"/>
       <path id="ArialMT-2d" d="M 203 1375 
L 203 1941 
L 1931 1941 
L 1931 1375 
L 203 1375 
z
" transform="scale(0.015625)"/>
       <path id="ArialMT-4e" d="M 488 0 
L 488 4581 
L 1109 4581 
L 3516 984 
L 3516 4581 
L 4097 4581 
L 4097 0 
L 3475 0 
L 1069 3600 
L 1069 0 
L 488 0 
z
" transform="scale(0.015625)"/>
       <path id="ArialMT-45" d="M 506 0 
L 506 4581 
L 3819 4581 
L 3819 4041 
L 1113 4041 
L 1113 2638 
L 3647 2638 
L 3647 2100 
L 1113 2100 
L 1113 541 
L 3925 541 
L 3925 0 
L 506 0 
z
" transform="scale(0.015625)"/>
      </defs>
      <use xlink:href="#ArialMT-44"/>
      <use xlink:href="#ArialMT-52" x="72.216797"/>
      <use xlink:href="#ArialMT-2d" x="144.433594"/>
      <use xlink:href="#ArialMT-4e" x="177.734375"/>
      <use xlink:href="#ArialMT-45" x="249.951172"/>
      <use xlink:href="#ArialMT-44" x="316.650391"/>
     </g>
    </g>
   </g>
   <g id="line2d_27">
    <path d="M 54.987518 57.555588 
L 64.071109 25.41395 
L 84.647924 25.41395 
L 87.045406 29.23775 
L 89.181745 50.284791 
L 91.108284 54.494198 
L 92.862572 50.284791 
L 94.472895 25.41395 
L 97.34442 25.41395 
L 98.636658 51.815488 
L 99.849078 54.494198 
L 100.990968 54.494198 
L 102.070082 25.41395 
L 107.534094 25.41395 
L 108.313361 31.151118 
L 109.062877 41.865971 
L 109.784833 44.162015 
L 110.48118 41.483301 
L 111.153675 25.41395 
L 111.8039 25.41395 
L 112.433279 28.089728 
L 113.043108 38.421916 
L 113.634568 36.508542 
L 114.20873 27.324376 
L 114.766578 25.41395 
L 117.816877 25.41395 
L 118.282183 34.595179 
L 118.736716 37.273888 
L 119.180964 36.508542 
L 119.615384 34.212509 
L 120.0404 25.41395 
L 120.456409 25.41395 
L 121.262888 34.977849 
L 121.654034 44.544686 
L 122.037542 25.41395 
L 122.413703 26.176365 
L 122.78279 27.324376 
L 123.14507 25.41395 
L 123.500786 25.41395 
L 123.85017 30.385766 
L 124.193448 39.187262 
L 124.530827 41.865971 
L 124.862506 52.580835 
L 125.188676 53.728851 
L 125.509516 56.024896 
L 125.825196 25.41395 
L 126.135883 25.41395 
L 126.44173 58.320934 
L 126.742884 70.949161 
L 127.039491 65.209061 
L 127.619591 25.41395 
L 128.999018 25.41395 
L 129.263643 27.324376 
L 129.52475 40.717954 
L 129.782431 60.999649 
L 130.036772 65.974408 
L 130.287863 67.5051 
L 130.535783 25.41395 
L 130.78061 26.941706 
L 131.022423 62.913017 
L 131.261295 63.295688 
L 131.497293 64.44371 
L 131.730491 25.41395 
L 133.28964 25.41395 
L 133.502602 55.642225 
L 133.921721 60.234303 
L 134.127971 29.23775 
L 134.332079 31.916459 
L 134.534086 31.916459 
L 134.734037 52.963505 
L 134.931971 55.642225 
L 135.127929 55.642225 
L 135.321953 25.41395 
L 135.892777 25.41395 
L 136.079422 26.559035 
L 136.264309 25.41395 
L 136.447474 27.324376 
L 136.628944 25.41395 
L 136.808751 41.483301 
L 136.98693 41.100625 
L 137.163503 39.952608 
L 137.338504 25.41395 
L 137.51196 25.41395 
L 137.683895 32.299129 
L 137.854338 33.829827 
L 138.023316 40.717954 
L 138.19085 25.41395 
L 138.685044 25.41395 
L 138.847049 26.176365 
L 139.00773 25.41395 
L 139.325197 25.41395 
L 139.482027 27.707057 
L 139.637614 25.793684 
L 139.791977 25.41395 
L 140.397576 25.41395 
L 140.5461 25.793684 
L 140.69351 25.41395 
L 142.648852 25.41395 
L 142.781342 29.23775 
L 142.912945 25.41395 
L 146.824467 25.41395 
L 146.931644 25.793684 
L 147.144261 25.41395 
L 149.247872 25.41395 
L 149.342634 26.559035 
L 149.530801 25.41395 
L 152.400414 25.41395 
L 152.481149 25.793684 
L 152.641633 25.41395 
L 154.47159 25.41395 
L 154.544257 28.089728 
L 154.688793 25.41395 
L 156.145442 25.41395 
L 156.212182 26.176365 
L 156.344986 25.41395 
L 158.236241 25.41395 
L 158.296249 26.176365 
L 158.415721 25.41395 
L 161.032391 25.41395 
L 161.084446 26.559035 
L 161.136362 25.41395 
L 164.422844 25.41395 
L 164.510362 28.089728 
L 164.640914 25.41395 
L 165.613979 25.41395 
L 165.655211 25.793684 
L 165.655211 25.793684 
" clip-path="url(#p7a7778507d)" style="fill: none; stroke: #ff0000; stroke-width: 1.5; stroke-linecap: square"/>
   </g>
   <g id="line2d_28">
    <path d="M 98.001169 116.483699 
L 98.001169 7.2 
" clip-path="url(#p7a7778507d)" style="fill: none; stroke-dasharray: 10,3; stroke-dashoffset: 5; stroke: #000000"/>
   </g>
   <g id="patch_3">
    <path d="M 57.377031 116.483699 
L 57.377031 7.2 
" style="fill: none; stroke: #000000; stroke-linejoin: miter; stroke-linecap: square"/>
   </g>
   <g id="patch_4">
    <path d="M 165.790668 116.483699 
L 165.790668 7.2 
" style="fill: none; stroke: #000000; stroke-linejoin: miter; stroke-linecap: square"/>
   </g>
   <g id="patch_5">
    <path d="M 57.377031 116.483699 
L 165.790668 116.483699 
" style="fill: none; stroke: #000000; stroke-linejoin: miter; stroke-linecap: square"/>
   </g>
   <g id="patch_6">
    <path d="M 57.377031 7.2 
L 165.790668 7.2 
" style="fill: none; stroke: #000000; stroke-linejoin: miter; stroke-linecap: square"/>
   </g>
  </g>
 </g>
 <defs>
  <clipPath id="p7a7778507d">
   <rect x="57.377031" y="7.2" width="108.413636" height="109.283699"/>
  </clipPath>
 </defs>
</svg>
