<?xml version="1.0" encoding="utf-8" standalone="no"?>
<!DOCTYPE svg PUBLIC "-//W3C//DTD SVG 1.1//EN"
  "http://www.w3.org/Graphics/SVG/1.1/DTD/svg11.dtd">
<svg xmlns:xlink="http://www.w3.org/1999/xlink" width="172.990668pt" height="170.547136pt" viewBox="0 0 172.990668 170.547136" xmlns="http://www.w3.org/2000/svg" version="1.1">
 <metadata>
  <rdf:RDF xmlns:dc="http://purl.org/dc/elements/1.1/" xmlns:cc="http://creativecommons.org/ns#" xmlns:rdf="http://www.w3.org/1999/02/22-rdf-syntax-ns#">
   <cc:Work>
    <dc:type rdf:resource="http://purl.org/dc/dcmitype/StillImage"/>
    <dc:date>2024-08-16T06:10:03.024958</dc:date>
    <dc:format>image/svg+xml</dc:format>
    <dc:creator>
     <cc:Agent>
      <dc:title>Matplotlib v3.5.3, https://matplotlib.org/</dc:title>
     </cc:Agent>
    </dc:creator>
   </cc:Work>
  </rdf:RDF>
 </metadata>
 <defs>
  <style type="text/css">*{stroke-linejoin: round; stroke-linecap: butt}</style>
 </defs>
 <g id="figure_1">
  <g id="patch_1">
   <path d="M 0 170.547136 
L 172.990668 170.547136 
L 172.990668 0 
L 0 0 
z
" style="fill: #ffffff"/>
  </g>
  <g id="axes_1">
   <g id="patch_2">
    <path d="M 57.377031 116.483699 
L 165.790668 116.483699 
L 165.790668 7.2 
L 57.377031 7.2 
z
" style="fill: #ffffff"/>
   </g>
   <g id="line2d_1">
    <path d="M 57.336083 73.455254 
L 57.417894 69.933429 
L 57.580503 59.599586 
L 57.620947 59.769156 
L 57.661308 60.11346 
L 57.701582 60.089984 
L 57.741778 59.830701 
L 57.781889 59.886867 
L 57.86187 62.38295 
L 58.020857 70.052317 
L 58.060405 69.927268 
L 58.335024 62.67871 
L 58.373945 63.248718 
L 58.528854 71.299705 
L 58.567393 70.044902 
L 58.644243 68.58762 
L 58.682554 69.844374 
L 58.758956 71.772179 
L 58.797044 70.692701 
L 58.91087 67.111074 
L 58.948666 68.429894 
L 59.211219 78.49543 
L 59.248442 78.52348 
L 59.396633 76.593304 
L 59.507043 74.712958 
L 59.543711 75.176112 
L 59.653302 78.616756 
L 59.689696 77.902898 
L 59.834603 73.083966 
L 59.870665 73.329746 
L 59.906659 73.297758 
L 60.014248 71.647779 
L 60.049981 71.806097 
L 60.263019 77.119161 
L 60.298303 76.583142 
L 60.578306 64.902119 
L 60.647689 63.993545 
L 60.682287 64.392886 
L 60.820076 66.85735 
L 60.854374 66.744313 
L 60.956907 63.574349 
L 60.990967 64.073899 
L 61.126614 72.313575 
L 61.16038 71.056712 
L 61.261331 65.869351 
L 61.294866 66.300864 
L 61.561107 73.202499 
L 61.692887 77.16469 
L 61.758445 76.170609 
L 62.050782 67.037647 
L 62.11516 67.753233 
L 62.433915 75.558668 
L 62.497051 73.130358 
L 62.591374 67.290589 
L 62.654005 68.485055 
L 62.747579 70.340939 
L 62.778672 70.086759 
L 62.902552 65.730004 
L 62.9642 67.698142 
L 63.056311 72.751395 
L 63.117481 72.473494 
L 63.178458 72.137984 
L 63.269571 69.136404 
L 63.299848 69.522993 
L 63.420495 78.004975 
L 63.45054 76.697715 
L 63.570265 69.73441 
L 63.600083 70.203144 
L 63.748497 76.240733 
L 63.807549 75.135172 
L 63.837008 74.698557 
L 63.895796 75.280067 
L 64.071109 76.567444 
L 64.129201 75.38019 
L 64.474188 59.315648 
L 64.559495 43.89471 
L 64.616161 48.397168 
L 64.841206 76.358103 
L 64.869157 76.158748 
L 64.95277 64.634309 
L 65.036028 52.572508 
L 65.063702 55.212232 
L 65.228934 90.62148 
L 65.283703 82.283413 
L 65.365572 69.888288 
L 65.392787 74.719507 
L 65.501267 102.800489 
L 65.555283 98.216133 
L 65.823159 46.414308 
L 65.876298 57.277497 
L 66.00852 89.40154 
L 66.034859 87.527827 
L 66.296313 50.324737 
L 66.348188 53.028844 
L 66.579949 73.771095 
L 66.605531 73.656688 
L 66.809003 57.277464 
L 66.834291 58.650707 
L 67.035418 86.017805 
L 67.110315 80.400333 
L 67.135215 79.497082 
L 67.184923 80.804855 
L 67.209731 81.110073 
L 67.234508 80.174806 
L 67.382511 68.261718 
L 67.431598 70.309569 
L 67.650985 79.948475 
L 67.675209 79.547477 
L 67.795893 68.357536 
L 67.867948 72.291989 
L 67.93974 76.71851 
L 67.987454 74.910207 
L 68.129909 64.123224 
L 68.177165 65.180091 
L 68.27134 69.155006 
L 68.294812 68.235521 
L 68.48159 61.558909 
L 68.504813 61.434316 
L 68.551176 63.428445 
L 68.666608 76.545248 
L 68.735545 73.618482 
L 68.872693 67.744195 
L 68.895459 68.02747 
L 69.008889 74.674173 
L 69.054079 71.842596 
L 69.099164 69.738785 
L 69.144148 71.230227 
L 69.30078 84.449658 
L 69.345305 80.91442 
L 69.456174 67.972342 
L 69.500346 71.263765 
L 69.544421 73.186038 
L 69.610347 71.537247 
L 69.719734 67.570255 
L 69.763318 69.062136 
L 69.828516 74.231199 
L 69.871858 71.726837 
L 69.915108 68.526434 
L 69.979803 71.474288 
L 70.022815 72.587144 
L 70.044286 71.381192 
L 70.236473 62.574304 
L 70.278928 63.745608 
L 70.489831 75.740501 
L 70.510798 75.236188 
L 70.594439 71.746789 
L 70.636126 73.70225 
L 70.698494 76.297102 
L 70.739961 74.741467 
L 70.801999 72.845808 
L 70.863841 73.639663 
L 70.904961 73.068792 
L 71.027808 66.512704 
L 71.088944 69.875896 
L 71.149893 72.654725 
L 71.210649 71.001945 
L 71.251051 70.358276 
L 71.311496 71.252265 
L 71.451818 67.854919 
L 71.491728 68.750455 
L 71.571303 72.855285 
L 71.630771 71.52122 
L 71.690063 70.030116 
L 71.749173 70.527576 
L 71.827714 71.615359 
L 71.886413 71.076699 
L 71.905941 71.005169 
L 71.925448 71.278483 
L 72.003288 73.905798 
L 72.061466 72.569923 
L 72.292468 68.414602 
L 72.330705 69.385205 
L 72.425974 75.482961 
L 72.463953 72.969692 
L 72.520784 70.4444 
L 72.577451 71.793281 
L 72.615139 72.12557 
L 72.671532 71.656863 
L 72.783841 68.331752 
L 72.858356 69.824388 
L 72.876941 69.837486 
L 72.895509 69.71767 
L 72.988083 68.344329 
L 73.02499 69.357857 
L 73.116957 71.581017 
L 73.153625 71.08965 
L 73.244992 69.127415 
L 73.29961 70.01325 
L 73.480579 72.1586 
L 73.516573 72.368095 
L 73.624162 74.106212 
L 73.659895 73.479936 
L 73.71337 72.24851 
L 73.748942 73.173461 
L 73.802176 74.364982 
L 73.855269 73.174229 
L 73.908217 71.465853 
L 73.978592 72.377551 
L 74.031211 71.218988 
L 74.118594 67.618972 
L 74.170836 68.94189 
L 74.240279 73.505543 
L 74.27491 71.984795 
L 74.378434 56.218893 
L 74.42999 61.570069 
L 74.515621 77.22969 
L 74.56682 72.767384 
L 74.617887 69.026597 
L 74.651857 71.850754 
L 74.702703 77.744113 
L 74.753419 73.511001 
L 74.804001 67.206816 
L 74.854456 71.213044 
L 75.021705 77.975576 
L 75.038352 79.108836 
L 75.088208 75.188814 
L 75.137936 71.209553 
L 75.187542 74.7983 
L 75.204049 75.742418 
L 75.23702 73.333684 
L 75.3028 62.705123 
L 75.351989 69.624397 
L 75.417385 83.77902 
L 75.466289 78.709548 
L 75.579926 55.257579 
L 75.628428 63.162898 
L 75.741134 73.786101 
L 75.773218 71.123756 
L 75.853197 58.197248 
L 75.901029 63.546817 
L 76.012184 76.418888 
L 76.075421 72.748231 
L 76.138455 71.796405 
L 76.169896 72.112936 
L 76.263918 80.479332 
L 76.357493 76.978588 
L 76.373045 76.448249 
L 76.404113 77.806054 
L 76.450623 79.966692 
L 76.497023 77.237838 
L 76.63557 63.183558 
L 76.742656 63.840796 
L 76.757906 63.746444 
L 76.773144 64.040038 
L 76.939994 69.249408 
L 76.970178 67.151584 
L 77.000315 64.996852 
L 77.030408 68.518357 
L 77.07546 75.21311 
L 77.105436 67.943138 
L 77.135367 58.323279 
L 77.195094 73.815753 
L 77.209996 75.918019 
L 77.23977 70.431779 
L 77.269498 64.843191 
L 77.314003 76.701289 
L 77.34362 82.754676 
L 77.402716 75.053826 
L 77.417463 75.147494 
L 77.491029 88.036651 
L 77.549685 79.577237 
L 77.71009 67.690006 
L 77.854785 63.347038 
L 77.897986 54.397337 
L 77.941093 64.727278 
L 77.984104 80.523675 
L 78.055582 70.151224 
L 78.084101 66.7636 
L 78.126801 73.746706 
L 78.141013 74.770703 
L 78.169409 68.993518 
L 78.211923 57.876269 
L 78.268469 69.274198 
L 78.352981 68.117203 
L 78.42313 80.878879 
L 78.479071 71.659159 
L 78.548772 77.393594 
L 78.562683 77.398173 
L 78.77017 70.494084 
L 78.797668 72.293078 
L 78.838847 77.591039 
L 78.879938 68.781233 
L 78.907285 66.532457 
L 78.948234 68.794439 
L 78.989098 67.253254 
L 79.043451 69.348423 
L 79.070571 66.744862 
L 79.111181 63.034592 
L 79.178678 65.981204 
L 79.19215 65.953075 
L 79.219066 65.538042 
L 79.232509 66.066963 
L 79.326361 76.160322 
L 79.366445 71.235847 
L 79.393123 67.912024 
L 79.44637 74.281189 
L 79.45966 74.755021 
L 79.512727 73.145929 
L 79.565652 70.286141 
L 79.57886 69.986891 
L 79.592061 71.269746 
L 79.644772 84.191279 
L 79.697343 73.25094 
L 79.815113 67.250888 
L 79.749772 73.259085 
L 79.841189 68.652373 
L 79.854213 69.182093 
L 79.893235 67.185668 
L 79.906227 66.621577 
L 79.945146 68.977613 
L 79.971051 70.521599 
L 80.03566 68.349985 
L 80.074323 63.94562 
L 80.100058 61.430456 
L 80.138596 69.949659 
L 80.291995 77.832191 
L 80.304723 79.111371 
L 80.342864 74.559544 
L 80.380926 68.638667 
L 80.444204 74.532254 
L 80.507279 66.011037 
L 80.620305 70.093712 
L 80.632822 70.911381 
L 80.670329 67.009589 
L 80.707765 62.032496 
L 80.757567 68.073327 
L 80.844422 91.075875 
L 80.930892 77.452169 
L 81.090476 60.323412 
L 81.127119 54.205342 
L 81.175873 62.442215 
L 81.285123 73.80003 
L 81.30932 71.410811 
L 81.333486 69.766154 
L 81.357623 74.179631 
L 81.393773 83.257071 
L 81.453872 69.916873 
L 81.549653 85.234657 
L 81.585451 78.020261 
L 81.644969 57.27285 
L 81.716154 67.365943 
L 81.763466 77.785112 
L 81.834223 69.855963 
L 81.869506 63.723944 
L 81.91645 75.543518 
L 82.033327 65.03442 
L 82.056619 61.322968 
L 82.126327 65.40314 
L 82.276521 86.673133 
L 82.322506 79.86537 
L 82.402718 59.339994 
L 82.448409 71.799018 
L 82.516744 79.713256 
L 82.562169 72.869097 
L 82.607488 68.320614 
L 82.663992 72.41475 
L 82.686549 73.700773 
L 82.731582 68.845084 
L 82.866069 63.044444 
L 82.910693 71.64954 
L 82.932968 74.892799 
L 82.977443 66.770146 
L 82.999641 62.778588 
L 83.043963 74.381106 
L 83.055027 75.620417 
L 83.088187 69.790728 
L 83.11026 67.307243 
L 83.165337 75.158093 
L 83.176334 74.412323 
L 83.19831 77.334687 
L 83.231227 89.78411 
L 83.285966 72.783804 
L 83.329648 67.274668 
L 83.373232 73.920628 
L 83.394989 76.45355 
L 83.43843 67.222172 
L 83.460113 63.411503 
L 83.525022 70.848566 
L 83.568177 68.345779 
L 83.589717 70.708041 
L 83.621985 73.669173 
L 83.6542 65.427888 
L 83.675648 59.741592 
L 83.718471 68.071797 
L 83.761204 65.598045 
L 83.793189 70.320958 
L 83.878236 68.102911 
L 83.888842 67.657073 
L 83.910033 69.671823 
L 84.015656 79.910076 
L 84.047232 76.190462 
L 84.183476 69.774351 
L 84.099745 78.160981 
L 84.193917 70.07758 
L 84.204352 70.466867 
L 84.225208 68.228302 
L 84.256449 61.618239 
L 84.298026 73.115963 
L 84.329153 78.158799 
L 84.380918 69.25857 
L 84.422233 60.057984 
L 84.473755 69.745728 
L 84.484044 69.657705 
L 84.494325 69.526983 
L 84.504603 70.128203 
L 84.535403 73.985582 
L 84.566155 66.608072 
L 84.596859 61.410345 
L 84.647924 69.200788 
L 84.6785 63.990364 
L 84.698858 66.826214 
L 84.749661 82.017785 
L 84.820563 76.511308 
L 84.881135 63.627653 
L 84.931467 75.566091 
L 84.97164 84.209716 
L 85.031749 74.053282 
L 85.071716 67.692486 
L 85.091671 64.337328 
L 85.141469 70.275426 
L 85.161353 70.166048 
L 85.210972 73.327306 
L 85.240685 69.280267 
L 85.299977 60.322815 
L 85.339402 68.85378 
L 85.437627 75.01712 
L 85.457214 70.340494 
L 85.506092 60.135781 
L 85.56459 70.428045 
L 85.622909 77.714861 
L 85.71973 82.527208 
L 85.739036 79.923362 
L 85.777592 63.024132 
L 85.825684 81.491878 
L 85.86407 72.070121 
L 86.06438 58.400815 
L 86.08335 61.063343 
L 86.168493 77.628944 
L 86.206217 70.447711 
L 86.234462 67.175653 
L 86.290829 71.543367 
L 86.318954 78.819045 
L 86.365738 65.773087 
L 86.412409 76.269239 
L 86.440359 70.013033 
L 86.477564 84.402107 
L 86.486855 85.526628 
L 86.505423 77.792258 
L 86.542503 63.091957 
L 86.597997 81.671727 
L 86.60723 81.071191 
L 86.690136 60.424875 
L 86.781845 64.796688 
L 86.900431 79.376991 
L 86.936775 71.638309 
L 87.036375 65.18527 
L 87.054431 67.434279 
L 87.180354 78.715595 
L 87.198277 76.995263 
L 87.323284 66.945677 
L 87.269809 78.723547 
L 87.341078 69.253332 
L 87.447501 75.65504 
L 87.403229 60.722014 
L 87.456343 75.213824 
L 87.491674 55.857366 
L 87.55335 75.231102 
L 87.579723 68.436223 
L 87.606061 71.217823 
L 87.632364 66.970565 
L 87.641125 66.639517 
L 87.676122 68.771657 
L 87.728507 98.453445 
L 87.780749 72.622756 
L 87.832856 43.457199 
L 87.884824 75.006644 
L 87.919392 93.019956 
L 87.971131 67.401617 
L 88.014142 63.522249 
L 88.048484 71.366189 
L 88.05706 71.282215 
L 88.091328 60.385695 
L 88.159682 70.536967 
L 88.210794 78.601397 
L 88.253284 71.728905 
L 88.278734 58.700929 
L 88.329536 86.574155 
L 88.337991 86.627069 
L 88.46437 60.108781 
L 88.506315 74.282237 
L 88.514693 76.163552 
L 88.556532 65.734265 
L 88.598283 71.194099 
L 88.631618 65.761579 
L 88.664897 77.694228 
L 88.681517 81.536384 
L 88.756127 71.651546 
L 88.896289 58.583593 
L 88.904503 61.326371 
L 89.002801 85.98719 
L 89.027298 71.387155 
L 89.051766 57.78 
L 89.092476 80.204012 
L 89.133104 69.584261 
L 89.173646 90.463742 
L 89.20602 66.451572 
L 89.238342 52.324424 
L 89.310869 69.536423 
L 89.367096 77.096949 
L 89.399152 66.950698 
L 89.415162 64.576912 
L 89.455128 76.58746 
L 89.495012 68.552522 
L 89.526859 75.339668 
L 89.590405 64.649172 
L 89.606258 63.166953 
L 89.630015 70.810075 
L 89.661645 83.915444 
L 89.7405 75.4052 
L 89.842542 59.815535 
L 89.795512 75.690117 
L 89.866014 68.665048 
L 89.951841 75.284366 
L 89.912876 66.887422 
L 89.975184 71.423155 
L 90.037297 55.975201 
L 90.08375 68.520061 
L 90.130097 82.726328 
L 90.222459 79.868684 
L 90.253152 66.780644 
L 90.268479 61.168585 
L 90.314391 79.234284 
L 90.337308 77.837662 
L 90.360197 80.949079 
L 90.390672 75.183744 
L 90.413501 75.793166 
L 90.459075 54.697233 
L 90.549908 59.64408 
L 90.58763 81.816231 
L 90.670367 65.65789 
L 90.700367 60.75879 
L 90.722837 68.068447 
L 90.752758 86.15859 
L 90.834802 71.439695 
L 90.864553 67.371046 
L 90.886836 72.892607 
L 90.916507 82.126799 
L 90.975716 67.600897 
L 91.005252 61.581343 
L 91.049475 71.666261 
L 91.086252 67.376105 
L 91.130292 78.883914 
L 91.174236 66.476281 
L 91.225378 54.94275 
L 91.261827 73.32979 
L 91.312741 84.612805 
L 91.349029 66.111621 
L 91.370769 55.110937 
L 91.421402 78.168239 
L 91.443062 76.341575 
L 91.47911 88.106091 
L 91.51509 71.652593 
L 91.65836 56.843981 
L 91.543829 74.684015 
L 91.67263 60.711744 
L 91.750927 76.878954 
L 91.786414 65.996902 
L 91.793505 65.937295 
L 91.828914 74.348002 
L 91.906592 66.575535 
L 91.920683 65.127329 
L 91.955865 75.549033 
L 92.019034 81.537152 
L 92.040045 74.714928 
L 92.075014 56.458499 
L 92.130834 76.622024 
L 92.144765 75.558663 
L 92.283529 58.164635 
L 92.297351 64.725459 
L 92.318066 78.761851 
L 92.352544 62.064028 
L 92.414452 74.911474 
L 92.469317 66.545637 
L 92.510366 77.865414 
L 92.530858 84.260462 
L 92.564965 58.994653 
L 92.571778 57.255095 
L 92.599011 76.980504 
L 92.612614 80.683055 
L 92.687258 70.670456 
L 92.714332 58.465264 
L 92.748122 75.115379 
L 92.808795 64.134445 
L 92.875992 77.43173 
L 92.916201 64.065241 
L 92.922894 63.599535 
L 92.983032 66.005012 
L 93.049636 83.815899 
L 93.096126 66.523853 
L 93.116016 61.679588 
L 93.175566 77.312578 
L 93.182171 77.772744 
L 93.201974 71.855431 
L 93.261265 57.964232 
L 93.313818 69.254554 
L 93.346591 78.337101 
L 93.418502 67.356308 
L 93.431548 65.453248 
L 93.464127 70.170977 
L 93.509647 69.25597 
L 93.55506 85.192111 
L 93.600367 66.944179 
L 93.613295 64.834685 
L 93.645574 69.330054 
L 93.690673 69.267712 
L 93.722825 79.610913 
L 93.780566 64.793018 
L 93.793375 62.531394 
L 93.83175 74.448926 
L 93.87005 69.960711 
L 93.908272 80.602718 
L 93.940071 64.134146 
L 93.952778 60.297291 
L 94.016176 71.46417 
L 94.035156 70.547535 
L 94.041477 70.497933 
L 94.047801 70.803241 
L 94.129783 80.186425 
L 94.091987 69.956678 
L 94.180063 73.450792 
L 94.236479 61.708672 
L 94.305209 69.114306 
L 94.361264 77.419104 
L 94.379911 67.007521 
L 94.398546 57.655331 
L 94.472895 79.278139 
L 94.571597 85.471725 
L 94.516138 69.538713 
L 94.583899 82.497142 
L 94.730932 51.625529 
L 94.743134 61.303649 
L 94.797955 83.332183 
L 94.840489 57.980321 
L 94.852623 60.962938 
L 94.979593 80.447141 
L 94.949435 58.808939 
L 94.991645 77.016482 
L 95.051781 64.330071 
L 95.093769 76.854242 
L 95.11772 84.401027 
L 95.165538 66.563951 
L 95.189402 70.185731 
L 95.213239 72.654776 
L 95.254883 62.82279 
L 95.266764 59.907646 
L 95.320144 76.94166 
L 95.326067 77.641105 
L 95.349737 70.43597 
L 95.402894 60.813386 
L 95.444136 77.743527 
L 95.45002 77.785403 
L 95.590733 55.984575 
L 95.497037 85.867043 
L 95.608251 63.266886 
L 95.654889 80.00384 
L 95.718839 66.664639 
L 95.788362 55.08721 
L 95.817259 71.285955 
L 95.874923 84.665371 
L 95.915189 67.07356 
L 95.972568 61.801011 
L 95.995471 75.623041 
L 96.035491 82.429061 
L 96.098212 71.991757 
L 96.262619 60.556899 
L 96.273906 61.86458 
L 96.397645 90.09217 
L 96.448041 74.329071 
L 96.464809 71.470293 
L 96.487148 59.996489 
L 96.542882 74.023316 
L 96.570689 73.349554 
L 96.620644 59.909193 
L 96.681529 69.671362 
L 96.70914 84.132831 
L 96.775251 59.911885 
L 96.780751 59.150355 
L 96.813714 69.475377 
L 96.8521 83.46538 
L 96.934106 73.052643 
L 96.972259 63.600078 
L 97.010336 73.443396 
L 97.064607 66.24852 
L 97.221149 76.547612 
L 97.29092 73.185034 
L 97.317688 66.371164 
L 97.381783 71.311801 
L 97.397777 79.677555 
L 97.472231 60.072136 
L 97.482844 57.585405 
L 97.546407 73.959298 
L 97.562263 77.829944 
L 97.630835 67.017432 
L 97.646625 62.281774 
L 97.683419 79.716643 
L 97.714903 77.786366 
L 97.730625 74.351262 
L 97.762033 64.854313 
L 97.824696 75.715051 
L 97.850748 69.255254 
L 97.866363 75.207552 
L 97.923508 65.690687 
L 97.964966 71.854899 
L 97.990832 73.28644 
L 97.996002 73.049335 
" clip-path="url(#pa425fc9eb8)" style="fill: none; stroke: #c0c0c0; stroke-linecap: square"/>
   </g>
   <g id="line2d_2">
    <path d="M 98.001168 72.35424 
L 98.109378 63.121687 
L 98.057923 76.887693 
L 98.119654 67.14012 
L 98.150446 76.907267 
L 98.222106 63.0087 
L 98.227215 61.993201 
L 98.273133 73.25953 
L 98.308772 80.133528 
L 98.344347 61.853692 
L 98.364648 65.332547 
L 98.374789 65.267257 
L 98.389992 68.601744 
L 98.470879 78.533962 
L 98.496087 68.296111 
L 98.50616 65.188608 
L 98.58657 72.287072 
L 98.60662 67.702594 
L 98.61163 67.555772 
L 98.616639 69.108622 
L 98.636658 78.583937 
L 98.661656 62.507185 
L 98.731478 74.914446 
L 98.766297 62.241828 
L 98.850598 71.114802 
L 98.855547 71.124087 
L 98.993579 65.43483 
L 98.895083 77.70861 
L 98.99849 66.136308 
L 99.062232 74.192279 
L 99.116006 69.666384 
L 99.125769 68.810941 
L 99.184235 75.454971 
L 99.193962 78.081746 
L 99.247378 62.061428 
L 99.276453 71.830806 
L 99.334471 78.784565 
L 99.401946 63.003082 
L 99.406756 62.757332 
L 99.421181 66.166701 
L 99.45 76.965625 
L 99.51708 65.952033 
L 99.536204 68.069365 
L 99.636295 79.258527 
L 99.669547 69.924782 
L 99.764242 64.083023 
L 99.740611 73.228522 
L 99.778407 67.769067 
L 99.801993 75.375326 
L 99.830257 64.956271 
L 99.89136 70.34527 
L 99.896053 70.370707 
L 99.905435 69.973467 
L 99.910123 70.3253 
L 99.938233 83.869964 
L 99.999001 65.572158 
L 100.026985 55.180493 
L 100.068885 82.014045 
L 100.073534 82.863348 
L 100.110694 71.114058 
L 100.129249 61.619514 
L 100.184808 81.935626 
L 100.226373 67.460491 
L 100.290854 72.006888 
L 100.263244 60.214875 
L 100.313833 62.712213 
L 100.336784 74.270415 
L 100.350542 79.140616 
L 100.419188 63.056278 
L 100.442018 70.519781 
L 100.483043 78.764725 
L 100.519437 63.682489 
L 100.555764 73.20635 
L 100.578435 57.10221 
L 100.610131 85.427651 
L 100.673365 63.161508 
L 100.817147 75.060367 
L 100.835046 73.084713 
L 100.942098 66.437952 
L 100.906478 76.359493 
L 100.955436 69.035456 
L 101.048567 76.032752 
L 100.99984 62.377245 
L 101.066257 72.446929 
L 101.08393 63.381931 
L 101.158866 75.496315 
L 101.18085 69.841351 
L 101.185245 69.623941 
L 101.229131 72.416409 
L 101.259794 75.171064 
L 101.307881 68.71376 
L 101.377617 65.395579 
L 101.351493 72.451898 
L 101.395011 71.868315 
L 101.460107 75.504994 
L 101.494737 67.607877 
L 101.516349 61.518317 
L 101.542253 75.591207 
L 101.632647 82.511152 
L 101.602562 66.230194 
L 101.65411 76.634544 
L 101.765331 64.988802 
L 101.782387 70.691317 
L 101.875927 79.24894 
L 101.833463 63.148926 
L 101.905597 75.835771 
L 102.023828 64.904519 
L 101.960578 79.632045 
L 102.036454 68.479871 
L 102.145538 75.498757 
L 102.116229 60.934967 
L 102.153904 73.945457 
L 102.204025 69.647554 
L 102.17898 76.095773 
L 102.254018 75.629009 
L 102.312183 71.116145 
L 102.353625 74.916563 
L 102.361904 77.075714 
L 102.415624 60.137187 
L 102.423877 57.00586 
L 102.502094 72.277054 
L 102.514416 71.718453 
L 102.522628 72.965817 
L 102.543138 79.273199 
L 102.612714 66.348235 
L 102.714588 61.960448 
L 102.669828 78.820312 
L 102.726777 64.073307 
L 102.755188 80.488661 
L 102.876492 77.104603 
L 102.900663 62.797104 
L 102.952932 80.787526 
L 102.997051 70.856138 
L 103.05306 63.024327 
L 103.088982 72.14656 
L 103.116874 69.822493 
L 103.128816 69.510856 
L 103.144728 70.313472 
L 103.148705 69.622438 
L 103.168572 63.096891 
L 103.208247 87.37868 
L 103.212209 88.374012 
L 103.23597 68.576248 
L 103.255749 63.060637 
L 103.287356 76.239625 
L 103.342543 69.289571 
L 103.358283 71.143129 
L 103.366147 68.918446 
L 103.381868 62.427021 
L 103.417194 75.792693 
L 103.479838 67.461246 
L 103.600644 78.267759 
L 103.507181 64.130965 
L 103.612296 73.874584 
L 103.705262 66.321963 
L 103.678191 78.200677 
L 103.728433 70.512893 
L 103.843888 47.661661 
L 103.805479 75.352463 
L 103.855398 63.701802 
L 103.870731 89.739197 
L 103.912838 60.149873 
L 103.970111 75.333144 
L 104.053808 63.1254 
L 104.004394 75.921244 
L 104.148489 67.688079 
L 104.193775 80.980367 
L 104.257751 70.626439 
L 104.340236 62.904359 
L 104.291536 72.409602 
L 104.355195 71.167637 
L 104.452158 78.991376 
L 104.396277 64.32772 
L 104.463314 72.502608 
L 104.530127 68.559155 
L 104.556046 77.884432 
L 104.570843 72.979691 
L 104.688817 64.462524 
L 104.585629 73.96788 
L 104.729206 68.265963 
L 104.773172 80.984061 
L 104.806084 62.659896 
L 104.853525 76.427001 
L 104.857169 76.808344 
L 104.87174 67.495156 
L 104.882661 60.321615 
L 104.944435 78.1017 
L 104.973438 71.642861 
L 105.049368 79.318082 
L 105.002399 65.391893 
L 105.08182 70.111055 
L 105.19677 62.486818 
L 105.153742 77.045878 
L 105.200351 62.766815 
L 105.300366 80.672673 
L 105.321731 67.085116 
L 105.328849 66.280324 
L 105.367944 79.762441 
L 105.371494 80.798824 
L 105.41759 63.228498 
L 105.424671 61.685863 
L 105.484765 72.273439 
L 105.509457 69.176458 
L 105.625444 77.878613 
L 105.534118 67.786513 
L 105.632451 76.059043 
L 105.677939 62.648448 
L 105.754679 68.383548 
L 105.824183 77.61017 
L 105.855379 67.818936 
L 105.87269 72.28411 
L 105.914171 74.577584 
L 105.886528 71.782498 
L 105.92453 71.967756 
L 105.938331 66.602356 
L 106.007189 73.284204 
L 106.041527 68.766528 
L 106.044958 68.722364 
L 106.051817 69.834392 
L 106.133943 75.523268 
L 106.082654 66.169605 
L 106.161243 70.36954 
L 106.222528 64.118828 
L 106.188504 75.18915 
L 106.28701 66.351704 
L 106.388396 76.915341 
L 106.341147 64.141279 
L 106.405243 69.242172 
L 106.415344 63.530435 
L 106.445616 76.468049 
L 106.509372 73.921524 
L 106.529461 63.963126 
L 106.64292 67.141027 
L 106.672844 83.101092 
L 106.715986 59.554727 
L 106.768956 70.96341 
L 106.788782 64.635064 
L 106.82508 74.724563 
L 106.897473 78.746378 
L 106.858018 66.664329 
L 106.923731 67.383004 
L 106.99903 64.803506 
L 106.979413 74.64722 
L 107.012095 72.285212 
L 107.02189 75.783096 
L 107.044722 66.910313 
L 107.11956 72.434137 
L 107.249037 62.88745 
L 107.145522 76.633988 
L 107.255488 64.136887 
L 107.294151 78.07853 
L 107.377664 68.849237 
L 107.464013 63.591703 
L 107.425681 74.952446 
L 107.476773 70.075376 
L 107.559514 79.490478 
L 107.534094 63.456601 
L 107.584901 70.433413 
L 107.648231 66.224527 
L 107.622925 77.609554 
L 107.698748 68.305295 
L 107.733401 76.644923 
L 107.755424 68.155613 
L 107.811936 70.154486 
L 107.818204 70.025258 
L 107.833869 72.599781 
L 107.837 72.916887 
L 107.871412 65.597426 
L 107.877663 64.383495 
L 107.905764 75.827094 
L 107.958733 71.621213 
L 108.027073 74.981889 
L 108.00225 68.329803 
L 108.064249 70.784215 
L 108.073532 66.477812 
L 108.126051 76.474359 
L 108.178432 68.026813 
L 108.261339 75.871036 
L 108.279715 67.917332 
L 108.301134 72.809634 
L 108.362196 63.902683 
L 108.389612 77.116211 
L 108.401785 74.284357 
L 108.410909 76.095629 
L 108.432185 62.621323 
L 108.450402 65.836445 
L 108.459505 62.565348 
L 108.480726 80.779172 
L 108.556332 66.712168 
L 108.604569 75.025765 
L 108.634655 63.718944 
L 108.640668 62.243381 
L 108.685699 84.24444 
L 108.691696 87.191573 
L 108.730627 59.41874 
L 108.781422 73.90956 
L 108.867767 66.16042 
L 108.84696 75.179214 
L 108.885585 74.174048 
L 108.891521 76.95912 
L 108.912281 67.368538 
L 108.9892 71.035255 
L 109.095208 65.17152 
L 109.062877 77.466435 
L 109.104016 67.403691 
L 109.186035 77.577227 
L 109.153856 61.433073 
L 109.212326 67.527095 
L 109.221082 65.013028 
L 109.276447 75.770682 
L 109.314236 72.533641 
L 109.360647 79.785739 
L 109.383813 64.122834 
L 109.398275 57.489679 
L 109.435831 77.33444 
L 109.484836 67.242702 
L 109.573883 75.898939 
L 109.591074 65.948303 
L 109.599662 62.542712 
L 109.648259 82.739868 
L 109.69104 72.105529 
L 109.699587 75.067114 
L 109.767811 65.811329 
L 109.804668 73.909913 
L 109.824487 77.322544 
L 109.878176 67.51353 
L 109.971079 79.011713 
L 109.920461 63.562325 
L 110.029974 74.134194 
L 110.130521 65.293041 
L 110.147231 69.252448 
L 110.24164 80.790886 
L 110.202821 64.080678 
L 110.269324 71.621072 
L 110.280387 66.327576 
L 110.357646 71.668834 
L 110.379663 69.962166 
L 110.448314 78.293293 
L 110.418137 62.202832 
L 110.478442 64.584446 
L 110.51399 78.523361 
L 110.544019 62.670828 
L 110.631117 74.315566 
L 110.720534 66.102073 
L 110.74215 74.211443 
L 110.779918 77.48964 
L 110.761043 69.296508 
L 110.806852 70.974207 
L 110.879392 62.31291 
L 110.841812 74.680503 
L 110.914221 72.564647 
L 110.93295 66.515005 
L 110.978362 75.835742 
L 111.015681 74.152455 
L 111.021005 75.218728 
L 111.090106 66.632922 
L 111.121916 73.585742 
L 111.14574 65.286695 
L 111.19858 78.426175 
L 111.230213 74.345815 
L 111.282826 64.729981 
L 111.364099 70.283183 
L 111.374561 77.464953 
L 111.416355 64.468294 
L 111.473675 69.064627 
L 111.515258 63.443133 
L 111.53861 73.359821 
L 111.580055 71.060379 
L 111.608499 77.369878 
L 111.649799 63.832708 
L 111.691008 72.441297 
L 111.703872 68.409467 
L 111.721861 76.637769 
L 111.796222 73.712854 
L 111.854998 76.830599 
L 111.821797 66.237978 
L 111.865201 68.052836 
L 111.877949 57.876567 
L 111.90851 77.493282 
L 111.969488 76.609493 
L 111.977097 77.108837 
L 111.984703 74.914691 
L 112.017628 62.803341 
L 112.100962 71.496395 
L 112.146266 80.232095 
L 112.178923 63.978395 
L 112.183941 61.973774 
L 112.201499 72.78153 
L 112.284057 66.721526 
L 112.286553 66.625339 
L 112.29404 70.037661 
L 112.306513 76.834782 
L 112.401044 67.27963 
L 112.410967 64.783568 
L 112.438232 74.647879 
L 112.497591 71.168324 
L 112.517336 79.672306 
L 112.551844 67.32666 
L 112.556768 66.614667 
L 112.573996 73.611672 
L 112.652554 68.884563 
L 112.669699 78.220566 
L 112.694162 66.036169 
L 112.764937 70.101409 
L 112.850015 64.081525 
L 112.799012 77.151847 
L 112.864563 73.773991 
L 112.970921 76.843087 
L 112.949213 65.426167 
L 112.975742 75.876344 
L 113.086294 66.581734 
L 113.100668 69.636757 
L 113.200992 76.59953 
L 113.179537 67.498765 
L 113.212902 71.927528 
L 113.312657 65.319449 
L 113.258092 76.256971 
L 113.324497 71.130039 
L 113.404834 75.466281 
L 113.428399 67.301147 
L 113.473098 65.733038 
L 113.510656 73.937548 
L 113.578553 76.313069 
L 113.594908 69.002398 
L 113.599577 69.425297 
L 113.664842 73.3477 
L 113.613582 66.498867 
L 113.683447 67.922196 
L 113.69042 66.548725 
L 113.709004 77.163499 
L 113.790098 69.109469 
L 113.806276 65.361392 
L 113.868554 74.053331 
L 113.882367 77.802738 
L 113.916856 66.791419 
L 113.955872 68.795672 
L 114.024534 73.96461 
L 114.070174 68.020712 
L 114.156602 75.627777 
L 114.104336 67.819289 
L 114.181551 69.392321 
L 114.258461 63.399871 
L 114.27877 76.470592 
L 114.28779 78.786975 
L 114.305815 66.673454 
L 114.37102 68.966268 
L 114.373266 68.764894 
L 114.397941 76.004645 
L 114.400182 76.367728 
L 114.418104 65.237901 
L 114.462843 68.62628 
L 114.51862 66.123992 
L 114.494097 75.095628 
L 114.543111 74.226843 
L 114.647418 66.590571 
L 114.600882 74.530039 
L 114.660694 72.436819 
L 114.729144 76.149604 
L 114.691636 64.721692 
L 114.762177 68.621899 
L 114.775377 66.625985 
L 114.797355 75.393619 
L 114.854381 74.539525 
L 114.858761 75.056781 
L 114.891579 68.011137 
L 114.959229 73.29198 
L 114.974474 64.433543 
L 115.057018 76.329844 
L 115.061354 77.403351 
L 115.098162 66.695188 
L 115.152166 70.062821 
L 115.246856 76.955708 
L 115.19311 62.060076 
L 115.27903 74.046266 
L 115.323988 66.411756 
L 115.35604 74.495695 
L 115.383774 74.495575 
L 115.388036 75.850387 
L 115.422111 64.447542 
L 115.475234 66.86065 
L 115.48584 57.494054 
L 115.511274 76.745757 
L 115.578938 73.106355 
L 115.642161 75.606116 
L 115.614788 63.608785 
L 115.65478 68.274756 
L 115.661088 65.428843 
L 115.688395 77.411968 
L 115.755452 74.165377 
L 115.763817 72.913663 
L 115.790982 65.755896 
L 115.832701 73.124184 
L 115.886802 69.936159 
L 115.946972 75.755166 
L 115.973886 67.644479 
L 115.986293 67.683112 
L 116.025538 64.639406 
L 116.056464 76.508138 
L 116.079112 73.024797 
L 116.11817 76.296602 
L 116.136644 66.889501 
L 116.146899 65.513718 
L 116.185824 72.077411 
L 116.210367 72.061371 
L 116.232839 76.571998 
L 116.281779 66.302964 
L 116.312303 70.550168 
L 116.322468 65.331749 
L 116.367129 77.387715 
L 116.419781 71.497125 
L 116.472293 75.57869 
L 116.50655 65.252074 
L 116.53472 72.595672 
L 116.544769 67.662995 
L 116.594943 75.696777 
L 116.644987 72.542087 
L 116.710854 65.4155 
L 116.73077 74.054178 
L 116.74072 73.809901 
L 116.784442 76.225843 
L 116.8023 65.880229 
L 116.832027 69.907754 
L 116.899243 67.629661 
L 116.926853 74.079258 
L 116.936705 77.922247 
L 116.962296 63.222369 
L 117.038868 74.888687 
L 117.066284 65.887682 
L 117.130753 75.463339 
L 117.163882 70.98243 
L 117.253247 77.300294 
L 117.222209 64.47249 
L 117.274558 72.190054 
L 117.291976 66.353642 
L 117.31131 74.123639 
L 117.392311 69.523216 
L 117.471062 67.145293 
L 117.446126 75.803096 
L 117.482561 73.229604 
L 117.522752 75.005681 
L 117.503623 68.73981 
L 117.585741 72.173272 
L 117.599078 63.053618 
L 117.656128 78.069207 
L 117.694071 73.372762 
L 117.69786 73.587547 
L 117.709226 68.457501 
L 117.718693 64.192597 
L 117.809342 74.863096 
L 117.813109 75.034214 
L 117.828175 67.802841 
L 117.87142 66.644305 
L 117.846989 72.883677 
L 117.92956 70.401707 
L 117.980057 75.669349 
L 118.000592 65.906952 
L 118.039737 70.336813 
L 118.052769 66.492408 
L 118.075088 73.490198 
L 118.117795 73.010534 
L 118.12892 77.049949 
L 118.16226 64.082426 
L 118.202931 65.091672 
L 118.206625 65.761845 
L 118.219545 75.761291 
L 118.322607 70.633903 
L 118.364778 64.252687 
L 118.41417 75.902402 
L 118.41965 78.092195 
L 118.4525 67.248754 
L 118.5144 69.11892 
L 118.523486 67.783457 
L 118.528936 69.517283 
L 118.539831 79.394617 
L 118.563416 66.209431 
L 118.641229 71.498715 
L 118.76186 75.121295 
L 118.691734 67.113294 
L 118.76545 74.154235 
L 118.803101 64.278107 
L 118.84068 74.217332 
L 118.879971 70.582666 
L 118.890675 76.224459 
L 118.906717 68.096202 
L 118.992056 71.800302 
L 119.034585 66.024504 
L 119.008014 74.362425 
L 119.087619 73.746715 
L 119.175692 76.185433 
L 119.152832 66.384794 
L 119.182722 71.708053 
L 119.277364 66.974642 
L 119.216073 74.868782 
L 119.2896 74.202481 
L 119.336721 75.717822 
L 119.310557 66.814158 
L 119.390685 70.126319 
L 119.46183 73.267531 
L 119.505084 68.877653 
L 119.548244 68.238778 
L 119.568926 73.843591 
L 119.632562 76.313609 
L 119.61882 65.879908 
L 119.646295 67.748093 
L 119.699415 66.09918 
L 119.680582 75.145616 
L 119.752392 69.524193 
L 119.813735 68.265686 
L 119.791605 73.72026 
L 119.830742 73.246779 
L 119.920627 76.32073 
L 119.905392 66.741257 
L 119.93416 71.820433 
L 119.967949 66.353593 
L 120.020208 75.62455 
L 120.043762 71.668661 
L 120.100851 74.534827 
L 120.074006 68.383358 
L 120.14774 69.752095 
L 120.152757 67.410297 
L 120.189511 73.701924 
L 120.256161 70.043409 
L 120.267801 75.497053 
L 120.291061 68.886132 
L 120.365641 70.412835 
L 120.377216 65.809423 
L 120.446528 75.996326 
L 120.476158 70.43305 
L 120.600774 79.265453 
L 120.5041 65.49232 
L 120.605676 76.828187 
L 120.622009 60.986876 
L 120.643223 77.535845 
L 120.719728 71.397127 
L 120.760303 76.897806 
L 120.781366 64.787248 
L 120.825045 67.239879 
L 120.921762 65.987218 
L 120.846039 75.768866 
L 120.926585 68.141114 
L 121.019603 76.951132 
L 121.035595 67.146221 
L 121.045186 66.502309 
L 121.061159 76.184087 
L 121.062754 76.528904 
L 121.085094 64.722496 
L 121.150365 71.778864 
L 121.185301 66.605792 
L 121.20116 73.948868 
L 121.245496 73.226082 
L 121.25182 76.996335 
L 121.325996 64.403943 
L 121.354329 72.553801 
L 121.434386 67.791263 
L 121.398323 74.112346 
L 121.464128 72.475074 
L 121.471947 74.870234 
L 121.514117 68.085253 
L 121.57487 72.605347 
L 121.641638 68.154745 
L 121.599739 73.758366 
L 121.686538 72.01741 
L 121.803726 75.488292 
L 121.766795 64.47401 
L 121.805262 75.469068 
L 121.823702 72.714611 
L 121.869719 67.18677 
L 121.883507 73.79417 
L 121.935494 72.33177 
L 121.991913 66.11414 
L 122.022344 74.91056 
L 122.040579 73.220045 
L 122.146617 64.882089 
L 122.129991 74.405185 
L 122.155679 71.699045 
L 122.163227 75.516863 
L 122.235548 66.101389 
L 122.265604 72.949901 
L 122.277613 66.383557 
L 122.29861 75.763701 
L 122.383872 67.599371 
L 122.385366 67.4826 
L 122.397301 74.051086 
L 122.403265 77.897226 
L 122.419662 64.296123 
L 122.504401 70.214679 
L 122.599114 73.640214 
L 122.545895 68.625992 
L 122.61682 70.959656 
L 122.716864 72.832091 
L 122.652189 68.778486 
L 122.727133 70.608396 
L 122.814939 68.193154 
L 122.78279 72.979113 
L 122.828078 72.001658 
L 122.836832 71.382053 
L 122.844122 73.550814 
L 122.937214 74.991822 
L 122.895086 66.666251 
L 122.95027 71.988193 
L 123.034197 66.73951 
L 122.960417 73.784033 
L 123.042859 72.449798 
L 123.051519 76.201416 
L 123.130706 68.408534 
L 123.152247 71.859087 
L 123.229601 75.97096 
L 123.209576 68.646825 
L 123.239605 69.005362 
L 123.336534 64.410853 
L 123.31377 77.254763 
L 123.345063 70.51831 
L 123.400415 76.468499 
L 123.380562 68.403724 
L 123.455611 70.065046 
L 123.500786 74.295552 
L 123.517697 67.932026 
L 123.552887 68.525815 
L 123.559919 66.020314 
L 123.579588 75.949454 
L 123.662275 69.177962 
L 123.758535 74.318725 
L 123.687431 65.896529 
L 123.771056 68.915444 
L 123.77801 65.92715 
L 123.843244 76.011897 
L 123.875088 72.841367 
L 123.886153 70.316789 
L 123.996454 64.924256 
L 123.973067 75.062674 
L 124.001954 66.581891 
L 124.074665 72.813054 
L 124.117073 69.631324 
L 124.15666 74.191947 
L 124.138925 68.908893 
L 124.235598 72.996649 
L 124.260031 67.114434 
L 124.274949 74.389913 
L 124.352063 71.226416 
L 124.387137 72.308051 
L 124.397918 68.426056 
L 124.47455 67.094344 
L 124.449038 73.504184 
L 124.504048 69.12875 
L 124.537516 75.247927 
L 124.600279 64.98415 
L 124.624263 74.639018 
L 124.684095 68.392597 
L 124.750361 71.094916 
L 124.759622 73.026715 
L 124.776807 68.763336 
L 124.858558 70.834485 
L 124.903247 67.398762 
L 124.918993 77.361891 
L 124.975322 69.236652 
L 125.044523 74.579373 
L 125.065367 66.335371 
L 125.08619 70.430042 
L 125.092692 66.674822 
L 125.129065 74.201794 
L 125.195144 71.95798 
L 125.213245 67.175224 
L 125.230036 76.399879 
L 125.304781 71.942189 
L 125.366427 74.706216 
L 125.385651 67.798102 
L 125.415091 71.985818 
L 125.48404 68.204988 
L 125.435546 74.231812 
L 125.527327 71.268417 
L 125.614885 74.483091 
L 125.574327 68.019089 
L 125.643984 72.787544 
L 125.662939 67.2648 
L 125.731024 74.887007 
L 125.758695 70.941475 
L 125.76749 67.712245 
L 125.791346 72.989437 
L 125.797618 74.177921 
L 125.817679 67.784228 
L 125.881484 68.743691 
L 125.957529 65.011025 
L 125.971209 74.242321 
L 125.973695 74.41875 
L 126.036998 68.944968 
L 126.050622 70.943635 
L 126.058052 67.935213 
L 126.105034 74.017852 
L 126.158064 72.234342 
L 126.206036 74.15512 
L 126.188828 68.580325 
L 126.268592 72.221021 
L 126.323626 68.711421 
L 126.335833 72.816373 
L 126.382158 70.432946 
L 126.502331 73.831524 
L 126.423513 68.2864 
L 126.504751 73.423974 
L 126.520475 68.439203 
L 126.624179 69.792199 
L 126.654222 73.333052 
L 126.729731 68.730436 
L 126.732123 68.87609 
L 126.754836 75.359554 
L 126.801374 67.236036 
L 126.863253 71.909485 
L 126.888187 67.464291 
L 126.954525 74.272483 
L 126.959256 75.143423 
L 127.004132 66.13544 
L 127.057146 71.786702 
L 127.099451 67.522362 
L 127.151036 73.374206 
L 127.16976 70.824492 
L 127.225828 75.590836 
L 127.189636 67.653593 
L 127.273591 69.541444 
L 127.349076 68.344878 
L 127.369929 74.11547 
L 127.382662 69.887251 
L 127.418499 69.099612 
L 127.462339 72.870517 
L 127.524473 73.930931 
L 127.508382 68.907964 
L 127.558906 70.39769 
L 127.67553 67.109728 
L 127.63102 73.951466 
L 127.67667 67.196524 
L 127.815248 73.707949 
L 127.758571 66.294605 
L 127.818644 72.04003 
L 127.827695 68.109001 
L 127.876276 73.823057 
L 127.931488 70.739025 
L 128.00449 68.592793 
L 127.944987 73.227775 
L 128.019059 72.592955 
L 128.086156 74.28145 
L 128.072757 68.904203 
L 128.121849 70.2034 
L 128.135215 68.720144 
L 128.178597 74.512289 
L 128.234077 69.485344 
L 128.235186 69.425682 
L 128.254011 74.243152 
L 128.283874 72.36134 
L 128.288293 74.047471 
L 128.305965 67.723335 
L 128.391885 71.257327 
L 128.400678 66.320682 
L 128.434705 74.342417 
L 128.500399 72.369159 
L 128.594179 76.176067 
L 128.552799 67.004622 
L 128.603969 70.646296 
L 128.61049 68.434649 
L 128.666932 72.871505 
L 128.722131 69.217338 
L 128.763158 73.144491 
L 128.779331 68.846045 
L 128.841735 71.553711 
L 128.879298 69.158578 
L 128.868573 73.911156 
L 128.949934 71.998664 
L 128.961683 69.898206 
L 129.061791 67.247023 
L 129.01606 73.519543 
L 129.069225 71.306807 
L 129.147647 74.082089 
L 129.164561 66.772605 
L 129.178294 71.002457 
L 129.259436 68.021206 
L 129.280459 72.863077 
L 129.328721 68.465475 
L 129.29726 73.657698 
L 129.375823 73.183413 
L 129.378959 74.095413 
L 129.394631 67.529239 
L 129.474885 68.221772 
L 129.571383 74.124049 
L 129.600344 69.333023 
L 129.69314 67.507391 
L 129.65092 72.812229 
L 129.698282 70.255771 
L 129.704453 73.877821 
L 129.780382 66.940993 
L 129.810058 71.367706 
L 129.839689 72.642715 
L 129.828457 68.986722 
L 129.916115 70.185921 
L 130.007438 68.991428 
L 129.966903 72.593555 
L 130.022615 71.334776 
L 130.03374 73.338111 
L 130.11445 67.618549 
L 130.115458 67.407572 
L 130.149658 72.712779 
L 130.209867 70.644797 
L 130.284869 72.763421 
L 130.265895 68.040861 
L 130.319771 70.155431 
L 130.34566 69.603493 
L 130.333715 72.221103 
L 130.376481 71.943894 
L 130.383434 73.532695 
L 130.41717 67.325286 
L 130.486448 71.777811 
L 130.532825 72.255756 
L 130.520009 69.809362 
L 130.568274 70.902196 
L 130.66641 68.230723 
L 130.651721 73.10556 
L 130.678154 71.108201 
L 130.773795 73.424596 
L 130.722129 68.038039 
L 130.787422 71.019011 
L 130.824356 67.148024 
L 130.862191 75.543917 
L 130.899954 69.944312 
L 130.969479 68.065598 
L 130.98297 73.643886 
L 131.003186 70.837243 
L 131.092475 74.108478 
L 131.084809 68.850491 
L 131.11832 71.943848 
L 131.179449 74.264017 
L 131.166093 69.30972 
L 131.200418 70.492374 
L 131.286918 68.223645 
L 131.243242 73.163161 
L 131.31251 69.571798 
L 131.410775 73.234642 
L 131.349417 69.448703 
L 131.423965 70.17773 
L 131.516051 67.39677 
L 131.501046 73.214856 
L 131.531045 70.715434 
L 131.591838 69.557077 
L 131.546963 72.323364 
L 131.603041 72.037305 
L 131.644065 73.739468 
L 131.664543 68.340888 
L 131.705437 71.093496 
L 131.747175 67.457397 
L 131.7842 74.325996 
L 131.818384 70.347121 
L 131.820231 70.475639 
L 131.832226 72.637784 
L 131.889338 69.174407 
L 131.929767 70.363601 
L 132.026824 69.425199 
L 132.000318 72.526758 
L 132.036869 70.783786 
L 132.037783 70.789165 
L 132.04052 70.152331 
L 132.086103 69.455358 
L 132.113405 72.86387 
L 132.140667 71.786219 
L 132.143391 72.405913 
L 132.16517 68.913458 
L 132.250241 71.344343 
L 132.323252 74.254201 
L 132.290835 69.124044 
L 132.332246 69.382355 
L 132.335842 68.056353 
L 132.381645 73.282084 
L 132.43897 71.730965 
L 132.481856 69.363248 
L 132.47025 72.550257 
L 132.560234 69.710114 
L 132.570898 73.041295 
L 132.671918 69.979596 
L 132.672802 69.975752 
L 132.674569 70.221188 
L 132.780333 73.188524 
L 132.746903 68.706742 
L 132.788242 71.137095 
L 132.891648 68.819224 
L 132.878533 72.789458 
L 132.905628 69.442803 
L 132.955349 68.818318 
L 132.922216 75.023102 
L 133.004076 71.450157 
L 133.00842 72.806923 
L 133.091652 68.73638 
L 133.110677 70.059759 
L 133.155571 69.02537 
L 133.122774 72.651042 
L 133.218422 70.94636 
L 133.298202 68.09624 
L 133.251917 73.701454 
L 133.305905 72.436219 
L 133.311039 73.93564 
L 133.325579 68.965639 
L 133.415992 72.033961 
L 133.440656 72.867062 
L 133.431303 69.438243 
L 133.524618 71.667876 
L 133.530541 69.710255 
L 133.549145 72.189503 
L 133.637694 70.610318 
L 133.666283 72.783375 
L 133.679722 68.452052 
L 133.750962 71.127384 
L 133.807768 68.918495 
L 133.771029 72.89423 
L 133.868569 69.336378 
L 133.982996 73.023399 
L 133.944928 69.034387 
L 133.987957 71.765798 
L 134.00035 69.165738 
L 134.031715 72.342667 
L 134.10087 70.819254 
L 134.132074 72.450813 
L 134.121405 68.711204 
L 134.216405 71.949105 
L 134.312576 69.646637 
L 134.281657 72.209525 
L 134.335327 70.29823 
L 134.348315 73.07343 
L 134.435766 69.214244 
L 134.45111 71.335729 
L 134.457567 71.985563 
L 134.466443 70.777582 
L 134.554977 69.182359 
L 134.5011 72.144889 
L 134.570229 71.663414 
L 134.627116 72.245858 
L 134.660691 69.517077 
L 134.675065 70.383099 
L 134.751534 72.923591 
L 134.717319 69.921091 
L 134.773784 70.049923 
L 134.777753 69.078458 
L 134.864897 72.902969 
L 134.883068 70.562267 
L 134.909114 72.792812 
L 134.928031 69.384151 
L 134.998031 71.657715 
L 135.045084 69.18858 
L 135.032547 72.346051 
L 135.111544 70.514847 
L 135.180117 73.028876 
L 135.16689 69.372416 
L 135.207324 70.116348 
L 135.277885 68.710259 
L 135.304185 72.549559 
L 135.319637 69.812869 
L 135.372088 72.194076 
L 135.337394 69.272586 
L 135.432847 69.967556 
L 135.477337 69.388483 
L 135.490356 72.659439 
L 135.541589 70.605487 
L 135.6634 71.904928 
L 135.575163 69.559786 
L 135.665675 71.655367 
L 135.680847 69.483406 
L 135.756531 72.392761 
L 135.779176 71.418063 
L 135.872513 72.709259 
L 135.794263 68.832116 
L 135.886774 70.871712 
L 135.960174 68.613323 
L 135.930997 72.668895 
L 135.999009 70.482902 
L 136.108379 73.56448 
L 136.079422 69.412579 
L 136.115799 71.708132 
L 136.139517 68.811022 
L 136.156548 72.999211 
L 136.22526 72.301266 
L 136.226733 72.469285 
L 136.30255 69.752415 
L 136.323844 70.408319 
L 136.359769 69.740278 
L 136.383927 71.96679 
L 136.429964 70.433212 
L 136.499183 72.827944 
L 136.471524 69.171606 
L 136.543499 71.425606 
L 136.562359 72.525282 
L 136.571781 70.777495 
L 136.576852 69.45887 
L 136.674411 72.993712 
L 136.683781 70.176573 
L 136.775791 69.587458 
L 136.76288 72.659985 
L 136.784395 71.190164 
L 136.851664 72.162641 
L 136.842373 69.637794 
L 136.896619 71.477532 
L 136.900895 69.605963 
L 136.925107 72.328646 
L 137.009619 70.465591 
L 137.084595 72.116287 
L 137.024495 69.990143 
L 137.121976 70.913107 
L 137.124794 71.20736 
L 137.176156 71.829921 
L 137.148732 69.9008 
L 137.23369 71.117467 
L 137.243499 69.260454 
L 137.316889 72.33684 
L 137.346867 70.156522 
L 137.401126 69.644161 
L 137.37471 73.219266 
L 137.438603 71.248919 
L 137.476699 72.026714 
L 137.464931 69.567684 
L 137.545088 71.10907 
L 137.598115 69.229258 
L 137.610492 72.234934 
L 137.656487 70.863021 
L 137.699638 69.962356 
L 137.714001 71.749006 
L 137.810166 72.597813 
L 137.782253 68.943926 
L 137.821729 70.770899 
L 137.850945 72.270146 
L 137.880117 69.46622 
L 137.929545 70.588111 
L 137.990985 69.62056 
L 137.965351 72.770139 
L 138.027353 71.443828 
L 138.063654 72.290242 
L 138.038115 69.286015 
L 138.13338 71.074405 
L 138.20686 69.80306 
L 138.180838 72.392452 
L 138.236839 71.644063 
L 138.30131 71.891715 
L 138.32253 69.406684 
L 138.347039 71.670259 
L 138.425001 69.221653 
L 138.436206 73.115884 
L 138.473078 69.747878 
L 138.522347 72.134513 
L 138.587195 70.411798 
L 138.672678 69.236711 
L 138.663561 72.524261 
L 138.697405 70.512469 
L 138.720151 72.225535 
L 138.731841 69.525659 
L 138.808291 70.483906 
L 138.897967 72.019913 
L 138.837366 70.137887 
L 138.925626 71.299943 
L 139.029481 69.212132 
L 138.951319 72.049361 
L 139.037154 71.165061 
L 139.099052 72.435152 
L 139.088217 69.79742 
L 139.144234 70.113227 
L 139.146143 69.952433 
L 139.162661 71.934218 
L 139.239355 71.810618 
L 139.328975 72.148121 
L 139.252001 69.97572 
L 139.343456 71.241105 
L 139.354149 69.945838 
L 139.407532 71.961658 
L 139.455767 70.830924 
L 139.537556 72.071388 
L 139.524468 69.525898 
L 139.566197 70.970564 
L 139.625211 69.543583 
L 139.613423 72.377019 
L 139.681577 69.851545 
L 139.810421 71.753131 
L 139.815335 70.447374 
L 139.820249 70.089543 
L 139.831914 71.857768 
L 139.920713 71.139796 
L 140.029781 71.712917 
L 139.95551 70.148808 
L 140.032211 71.447259 
L 140.077119 70.105443 
L 140.132806 72.198674 
L 140.146099 70.805721 
L 140.147308 70.818798 
L 140.15214 70.220726 
L 140.207615 69.789479 
L 140.184119 72.035014 
L 140.252124 71.430602 
L 140.252724 71.43279 
L 140.255129 71.177258 
L 140.339045 69.89224 
L 140.288738 72.114157 
L 140.367138 70.898663 
L 140.450578 69.863791 
L 140.441061 72.267134 
L 140.474948 71.418386 
L 140.485638 71.665873 
L 140.500474 70.79442 
L 140.50937 69.860697 
L 140.527745 72.707587 
L 140.608148 71.142703 
L 140.611687 72.320897 
L 140.678819 69.924847 
L 140.718167 70.602528 
L 140.747482 71.857485 
L 140.753924 69.98884 
L 140.808897 70.402293 
L 140.846819 70.157662 
L 140.856142 72.264729 
L 140.9178 70.801699 
L 140.978107 70.28942 
L 141.014549 71.555472 
L 141.028412 70.825116 
L 141.046884 72.1746 
L 141.037073 70.149069 
L 141.118296 70.448227 
L 141.120595 70.248676 
L 141.158496 71.600789 
L 141.223788 71.129276 
L 141.27632 71.505766 
L 141.291142 70.285186 
L 141.327008 70.67 
L 141.329852 70.405594 
L 141.426858 71.613855 
L 141.438173 70.641557 
L 141.47603 71.761944 
L 141.495214 70.231192 
L 141.551527 70.863971 
L 141.570634 70.486126 
L 141.580745 71.588682 
L 141.661432 70.952209 
L 141.727861 71.726881 
L 141.712808 70.20245 
L 141.775175 71.461844 
L 141.800175 70.046455 
L 141.822927 72.230081 
L 141.824037 72.27431 
L 141.884391 70.002486 
L 141.915879 70.878139 
L 141.930225 70.079045 
L 141.94456 72.039232 
L 142.024867 71.149906 
L 142.086798 71.575662 
L 142.077495 70.205913 
L 142.135984 71.177313 
L 142.136529 71.178385 
L 142.140896 70.94287 
L 142.220949 70.287569 
L 142.232358 71.482569 
L 142.272511 72.040453 
L 142.255699 70.047904 
L 142.339609 70.40161 
L 142.341229 70.314346 
L 142.356347 72.007748 
L 142.448425 70.660827 
L 142.480631 70.006058 
L 142.468291 71.733077 
L 142.536867 71.247149 
L 142.586005 71.681933 
L 142.574265 70.350205 
L 142.648852 71.36503 
L 142.748038 69.822086 
L 142.690285 72.195859 
L 142.766019 70.976473 
L 142.860936 71.85054 
L 142.796655 70.362841 
L 142.870402 70.36473 
L 142.871454 70.345053 
L 142.884068 71.177318 
L 142.983645 72.120285 
L 142.964293 70.070442 
L 142.99462 71.115684 
L 143.06867 71.813493 
L 143.00611 70.206814 
L 143.076997 70.547671 
L 143.14037 70.300683 
L 143.167836 71.641482 
L 143.186471 70.670961 
L 143.239174 71.351859 
L 143.224205 70.523928 
L 143.300997 71.043934 
L 143.389271 70.487662 
L 143.308711 71.371373 
L 143.412813 70.866517 
L 143.487854 71.633665 
L 143.466443 70.09755 
L 143.526538 71.192425 
L 143.585944 69.877562 
L 143.569207 71.853167 
L 143.63708 71.192026 
L 143.682536 71.466393 
L 143.674969 70.399721 
L 143.744491 70.795842 
L 143.824789 70.279345 
L 143.819279 71.419211 
L 143.834302 71.295161 
L 143.834804 71.298844 
L 143.846813 70.573743 
L 143.890789 70.435443 
L 143.899272 71.673847 
L 143.943131 71.111523 
L 143.990865 71.363955 
L 144.002283 70.532722 
L 144.007742 70.612299 
L 144.009232 70.397354 
L 144.112655 71.566736 
L 144.115123 71.352627 
L 144.173268 70.405985 
L 144.185074 71.542608 
L 144.227808 71.205102 
L 144.266043 71.385684 
L 144.313487 70.41474 
L 144.329114 70.905556 
L 144.406089 70.376488 
L 144.388091 71.647116 
L 144.439126 71.051444 
L 144.484217 70.211694 
L 144.46338 71.768501 
L 144.553831 70.603071 
L 144.612619 71.43925 
L 144.594327 70.365984 
L 144.667874 70.927057 
L 144.668352 70.926221 
L 144.671711 71.129048 
L 144.749268 71.239598 
L 144.726798 70.646458 
L 144.77219 70.808728 
L 144.813189 70.308326 
L 144.867883 71.551051 
L 144.881652 70.918633 
L 144.942779 71.566011 
L 144.951292 70.358982 
L 144.988618 70.726008 
L 145.059293 70.299017 
L 145.049884 71.43108 
L 145.08937 71.238982 
L 145.117527 71.804159 
L 145.107207 70.367401 
L 145.200818 71.289714 
L 145.227883 70.388533 
L 145.278178 71.44978 
L 145.314423 70.971137 
L 145.322313 71.361912 
L 145.422758 70.450056 
L 145.423681 70.426519 
L 145.433836 71.260318 
L 145.515799 71.05757 
L 145.564906 71.335218 
L 145.570865 70.405827 
L 145.614347 70.452928 
L 145.725592 71.568125 
L 145.715132 70.364095 
L 145.736499 70.913367 
L 145.836209 70.46804 
L 145.823999 71.370496 
L 145.846603 71.076541 
L 145.906606 70.576864 
L 145.887226 71.241623 
L 145.938112 71.134691 
L 145.960587 71.308107 
L 145.95205 70.520639 
L 146.047988 71.028073 
L 146.066763 70.506167 
L 146.055143 71.591133 
L 146.157699 71.122301 
L 146.256625 70.527424 
L 146.179035 71.450453 
L 146.268569 71.089295 
L 146.310094 71.614737 
L 146.299059 70.535392 
L 146.378816 71.014242 
L 146.4359 70.65738 
L 146.42669 71.389256 
L 146.48976 70.9276 
L 146.499377 71.335826 
L 146.505932 70.618639 
L 146.601818 71.047769 
L 146.624849 70.569579 
L 146.619637 71.431783 
L 146.714539 70.938337 
L 146.770226 71.327635 
L 146.720158 70.604265 
L 146.828765 71.196889 
L 146.830485 71.222692 
L 146.832634 70.93774 
L 146.944893 70.41626 
L 146.893555 71.57208 
L 146.945748 70.47198 
L 146.956426 71.442911 
L 147.008878 70.462617 
L 147.063738 71.034036 
L 147.090898 71.192048 
L 147.147221 70.669224 
L 147.237088 70.46418 
L 147.22235 71.450907 
L 147.253078 71.236032 
L 147.300968 70.53917 
L 147.349997 71.32478 
L 147.36715 71.108725 
L 147.458515 71.352619 
L 147.413928 70.506037 
L 147.472661 70.825974 
L 147.573471 70.58968 
L 147.498847 71.328992 
L 147.580505 71.151485 
L 147.592083 70.554451 
L 147.583814 71.352195 
L 147.69105 71.139003 
L 147.79484 71.221626 
L 147.757981 70.722078 
L 147.798113 70.82605 
L 147.825094 70.670625 
L 147.849591 71.202328 
L 147.908258 70.932252 
L 148.00767 71.208753 
L 147.959851 70.670874 
L 148.019809 70.990472 
L 148.025066 70.622026 
L 148.038811 71.382308 
L 148.132339 70.900904 
L 148.209008 71.364183 
L 148.195381 70.55311 
L 148.24423 71.043201 
L 148.320463 71.282638 
L 148.332806 70.576815 
L 148.351509 70.953341 
L 148.358667 70.505624 
L 148.40235 71.290298 
L 148.46295 70.925223 
L 148.471253 71.062214 
L 148.577304 71.237796 
L 148.50877 70.61149 
L 148.581234 71.003929 
L 148.660477 70.575203 
L 148.61658 71.237872 
L 148.674568 71.174846 
L 148.701934 71.286636 
L 148.719506 70.642485 
L 148.784586 71.148142 
L 148.885864 70.636243 
L 148.891281 71.313147 
L 148.897084 70.920652 
L 148.899405 70.691621 
L 148.950779 71.157912 
L 149.007788 70.9734 
L 149.075752 71.266487 
L 149.058113 70.582911 
L 149.114047 70.763175 
L 149.120166 70.573998 
L 149.130109 71.311728 
L 149.2243 70.89641 
L 149.330909 70.647848 
L 149.315391 71.259493 
L 149.335449 70.89286 
L 149.37475 71.271611 
L 149.359645 70.535952 
L 149.446726 70.934472 
L 149.450863 70.772571 
L 149.476794 71.141576 
L 149.556627 71.072389 
L 149.61601 71.293831 
L 149.571958 70.591395 
L 149.667404 71.029843 
L 149.755725 70.7498 
L 149.729791 71.151062 
L 149.781998 70.936112 
L 149.829641 71.212873 
L 149.851761 70.660203 
L 149.893352 70.99013 
L 149.964922 70.575561 
L 149.950262 71.263366 
L 150.004079 71.007517 
L 150.036227 71.261688 
L 150.027465 70.64787 
L 150.116004 71.139611 
L 150.212106 70.619258 
L 150.223318 71.204806 
L 150.227654 71.112085 
L 150.23633 70.590727 
L 150.256193 71.219889 
L 150.344784 70.945215 
L 150.445853 71.156696 
L 150.433694 70.713263 
L 150.455147 70.913769 
L 150.492629 70.738401 
L 150.497263 71.248338 
L 150.564535 70.980902 
L 150.61528 71.135562 
L 150.590457 70.773364 
L 150.675438 70.976391 
L 150.758998 71.148991 
L 150.770605 70.733982 
L 150.772364 70.565655 
L 150.818016 71.296233 
L 150.878955 70.967372 
L 150.932384 71.263176 
L 150.892238 70.741636 
L 150.989492 70.926558 
L 151.039499 70.651615 
L 151.051983 71.260356 
L 151.099065 70.981073 
L 151.133957 71.191912 
L 151.120493 70.769428 
L 151.209749 71.003508 
L 151.250966 70.752075 
L 151.310238 71.129499 
L 151.321523 70.882867 
L 151.392847 71.181805 
L 151.353293 70.663975 
L 151.432322 70.858575 
L 151.528635 71.12115 
L 151.489691 70.755071 
L 151.543852 70.892426 
L 151.654417 70.727121 
L 151.600898 71.115602 
L 151.656097 70.774482 
L 151.665507 71.197747 
L 151.768709 71.053176 
L 151.808103 71.128826 
L 151.801764 70.762361 
L 151.869042 70.911658 
L 151.915534 70.740084 
L 151.929129 71.190424 
L 151.978126 70.985185 
L 151.983087 71.123362 
L 151.993661 70.740719 
L 152.089238 70.989066 
L 152.122088 70.766568 
L 152.133573 71.139068 
L 152.200052 70.992901 
L 152.302115 71.131534 
L 152.290403 70.76742 
L 152.308618 70.911473 
L 152.39653 70.670234 
L 152.368028 71.157011 
L 152.420791 70.85413 
L 152.45632 71.081055 
L 152.529111 70.794827 
L 152.533933 70.987932 
L 152.5792 70.789768 
L 152.599713 71.120002 
L 152.645148 70.972364 
L 152.732205 70.716998 
L 152.697811 71.131314 
L 152.75542 70.974437 
L 152.770034 71.092164 
L 152.76114 70.716992 
L 152.866022 70.928583 
L 152.872658 71.14961 
L 152.93511 70.760694 
L 152.935426 70.73807 
L 153.001446 71.113572 
L 153.042519 71.026005 
L 153.095064 71.130926 
L 153.059111 70.770889 
L 153.152144 70.858445 
L 153.235436 71.158461 
L 153.223959 70.723615 
L 153.265186 70.950504 
L 153.271998 70.728826 
L 153.326714 71.204435 
L 153.376042 70.955208 
L 153.451032 70.777088 
L 153.478008 71.121785 
L 153.486584 70.963271 
L 153.526347 71.143807 
L 153.530931 70.690508 
L 153.597419 70.947978 
L 153.687033 70.812865 
L 153.64182 71.087759 
L 153.707933 70.958831 
L 153.724578 71.087349 
L 153.791319 70.795234 
L 153.818432 70.883165 
L 153.889055 71.109849 
L 153.900452 70.777934 
L 153.930709 70.952024 
L 153.946567 70.826028 
L 153.936394 71.098031 
L 154.042345 70.864954 
L 154.115135 71.136322 
L 154.104455 70.792699 
L 154.153647 70.861262 
L 154.174058 70.792194 
L 154.184699 71.143506 
L 154.251662 70.998101 
L 154.336295 71.106717 
L 154.326322 70.849239 
L 154.362081 70.956929 
L 154.370571 70.798285 
L 154.426984 71.087978 
L 154.467513 71.01162 
L 154.560209 71.079793 
L 154.501852 70.837932 
L 154.568325 70.883029 
L 154.592361 70.814233 
L 154.670351 71.078018 
L 154.677846 71.012665 
L 154.699735 71.064597 
L 154.761525 70.854336 
L 154.787331 70.964411 
L 154.839418 70.835451 
L 154.848563 71.073412 
L 154.897922 70.972654 
L 155.001372 71.101888 
L 154.992015 70.803523 
L 155.009025 70.984927 
L 155.093281 71.041277 
L 155.120912 70.815698 
L 155.131897 71.110459 
L 155.121474 70.805624 
L 155.234125 70.92506 
L 155.312123 70.819303 
L 155.274701 71.081294 
L 155.345019 70.931959 
L 155.378414 71.057165 
L 155.413143 70.820014 
L 155.45529 70.887736 
L 155.526345 70.81711 
L 155.459443 71.05764 
L 155.565219 70.956904 
L 155.621878 71.077771 
L 155.567423 70.815286 
L 155.67536 70.909888 
L 155.684122 70.845309 
L 155.680564 71.043139 
L 155.785975 70.896372 
L 155.826786 71.046431 
L 155.800133 70.8464 
L 155.897326 70.939792 
L 155.966261 70.817506 
L 155.963293 71.069023 
L 155.99862 71.016115 
L 156.000775 71.067202 
L 156.011008 70.828004 
L 156.109308 70.963814 
L 156.191385 70.827325 
L 156.195919 71.059874 
L 156.220175 70.956703 
L 156.308952 71.08106 
L 156.304709 70.853283 
L 156.331216 70.985209 
L 156.413955 70.82821 
L 156.361921 71.051555 
L 156.442159 70.973259 
L 156.450587 71.027126 
L 156.453746 70.834127 
L 156.553264 71.009794 
L 156.613936 71.034997 
L 156.562168 70.840744 
L 156.624116 70.911592 
L 156.684829 70.834534 
L 156.68717 71.049468 
L 156.734978 70.941768 
L 156.828953 70.862603 
L 156.757802 71.054256 
L 156.845733 70.928832 
L 156.887235 71.045207 
L 156.917082 70.831782 
L 156.95715 70.976456 
L 157.045473 70.799387 
L 157.04956 71.091344 
L 157.068193 70.970662 
L 157.160336 71.04651 
L 157.078652 70.850802 
L 157.174046 70.930873 
L 157.280844 70.826283 
L 157.27125 71.044271 
L 157.284883 70.908135 
L 157.292199 71.062957 
L 157.297748 70.828134 
L 157.396101 70.966257 
L 157.474479 70.849863 
L 157.478478 71.041804 
L 157.508687 70.92671 
L 157.579909 71.041901 
L 157.55205 70.854347 
L 157.620137 70.97127 
L 157.693922 70.824649 
L 157.690461 71.049134 
L 157.731451 70.935569 
L 157.80482 71.068627 
L 157.833061 70.853245 
L 157.842873 70.992269 
L 157.894312 70.847757 
L 157.885748 71.028027 
L 157.954642 70.925212 
L 158.044426 70.884723 
L 157.956593 71.038419 
L 158.052921 70.973919 
L 158.158677 71.027017 
L 158.065778 70.869714 
L 158.163021 70.94617 
L 158.173395 70.850819 
L 158.23071 71.045305 
L 158.273708 70.992467 
L 158.378763 70.874247 
L 158.382819 71.029853 
L 158.38592 70.900269 
L 158.464495 71.030195 
L 158.453085 70.872075 
L 158.497496 70.988996 
L 158.525944 70.862267 
L 158.534943 71.025408 
L 158.608678 70.95729 
L 158.660269 71.040721 
L 158.611035 70.864004 
L 158.719467 70.936481 
L 158.747593 70.853354 
L 158.809798 71.019141 
L 158.829868 70.941469 
L 158.89158 71.022819 
L 158.887627 70.877075 
L 158.941043 70.984463 
L 159.038441 70.859031 
L 159.049748 71.020444 
L 159.053206 70.910496 
L 159.145692 71.04531 
L 159.136968 70.850905 
L 159.164504 70.951104 
L 159.192917 70.858717 
L 159.227919 71.017789 
L 159.275174 70.908384 
L 159.380462 71.025283 
L 159.356179 70.867982 
L 159.386356 70.979504 
L 159.476388 71.038791 
L 159.392251 70.876304 
L 159.494886 70.972185 
L 159.532278 70.870474 
L 159.55994 71.04379 
L 159.606405 70.888479 
L 159.662597 71.027074 
L 159.680028 70.864161 
L 159.717517 70.905795 
L 159.735343 70.861311 
L 159.726878 71.031029 
L 159.828004 70.964072 
L 159.947349 70.87372 
L 159.829555 71.041785 
L 159.949773 70.973528 
L 159.992028 71.033007 
L 159.983012 70.860209 
L 160.060937 71.00046 
L 160.09355 70.86301 
L 160.12065 71.016272 
L 160.172127 70.960641 
L 160.204991 71.028203 
L 160.193244 70.861648 
L 160.282908 70.951661 
L 160.365693 70.839452 
L 160.369145 71.031645 
L 160.394576 70.90522 
L 160.43266 71.032768 
L 160.436315 70.847187 
L 160.506039 70.950431 
L 160.566553 70.854211 
L 160.556731 71.021128 
L 160.61645 70.946789 
L 160.682356 71.021717 
L 160.620495 70.875479 
L 160.727301 70.913948 
L 160.785236 71.020525 
L 160.810979 70.867901 
L 160.84237 70.941111 
L 160.937925 70.867223 
L 160.943371 71.027519 
L 160.953632 70.90789 
L 160.981454 71.0248 
L 161.007357 70.864563 
L 161.065514 70.975887 
L 161.155226 70.849125 
L 161.089853 71.007929 
L 161.176762 70.924094 
L 161.259169 71.028863 
L 161.232771 70.872998 
L 161.288003 70.951544 
L 161.289855 70.869361 
L 161.392885 71.025329 
L 161.399025 70.916684 
L 161.443994 71.019839 
L 161.485395 70.862467 
L 161.510439 70.985864 
L 161.606855 71.034492 
L 161.591057 70.88031 
L 161.62143 70.989308 
L 161.712067 70.861577 
L 161.638215 71.049867 
L 161.732397 70.989338 
L 161.733805 71.021814 
L 161.804293 70.877237 
L 161.842341 70.983538 
L 161.88651 70.866495 
L 161.953069 71.026664 
L 161.953267 71.024938 
L 161.994405 70.867689 
L 162.066338 70.950276 
L 162.097763 71.010782 
L 162.077215 70.880109 
L 162.176401 70.915522 
L 162.226887 70.878128 
L 162.207061 71.03919 
L 162.287414 70.915007 
L 162.367831 70.841477 
L 162.327858 71.017879 
L 162.396248 70.95108 
L 162.470991 71.033423 
L 162.409081 70.872434 
L 162.502936 70.956307 
L 162.554132 70.866479 
L 162.55008 71.02826 
L 162.614048 70.919501 
L 162.648451 70.88076 
L 162.675889 71.017013 
L 162.722239 70.949071 
L 162.77573 71.011102 
L 162.726447 70.864856 
L 162.833452 70.97533 
L 162.942716 70.876966 
L 162.900863 71.027699 
L 162.944416 70.967261 
L 163.020875 71.026903 
L 163.051372 70.87638 
L 163.055135 70.977955 
L 163.076565 70.879371 
L 163.074687 71.029617 
L 163.166541 70.908265 
L 163.272109 71.015159 
L 163.176637 70.872358 
L 163.277691 70.92849 
L 163.350453 70.886493 
L 163.337849 71.016275 
L 163.388583 70.935677 
L 163.391725 71.016207 
L 163.415007 70.886313 
L 163.499588 70.943727 
L 163.57575 70.872933 
L 163.544589 71.021209 
L 163.610702 70.913872 
L 163.670764 71.010714 
L 163.705185 70.875267 
L 163.721738 70.91378 
L 163.729734 71.010526 
L 163.74899 70.875397 
L 163.833772 70.978864 
L 163.94014 70.88101 
L 163.87242 71.01488 
L 163.944814 70.962265 
L 164.024641 71.016568 
L 163.976962 70.885472 
L 164.055589 70.932648 
L 164.146182 70.890401 
L 164.154363 71.03311 
L 164.162719 70.948048 
L 164.215092 71.008412 
L 164.272628 70.871907 
L 164.273865 70.955132 
L 164.343387 70.886514 
L 164.363459 71.014587 
L 164.385265 70.918372 
L 164.422141 71.028116 
L 164.457723 70.87702 
L 164.496559 70.945768 
L 164.507742 70.868172 
L 164.500579 71.014511 
L 164.607576 70.946523 
L 164.633626 71.018452 
L 164.653922 70.881748 
L 164.718831 70.972727 
L 164.809518 70.863211 
L 164.825851 71.042444 
L 164.829804 70.967508 
L 164.864482 71.015444 
L 164.847838 70.879376 
L 164.939468 70.925271 
L 165.014169 70.885906 
L 165.027783 71.006881 
L 165.050562 70.918063 
L 165.12535 71.024292 
L 165.080615 70.885467 
L 165.161372 70.943304 
L 165.170662 70.886862 
L 165.244152 71.013949 
L 165.272397 70.934939 
L 165.316029 71.018612 
L 165.299425 70.898695 
L 165.383132 70.962568 
L 165.489759 70.8755 
L 165.406006 71.028594 
L 165.494077 70.9829 
L 165.508359 71.029384 
L 165.557101 70.880847 
L 165.604731 70.969112 
L 165.608859 70.876966 
L 165.690767 71.015127 
L 165.715913 70.940188 
L 165.764634 71.003578 
L 165.742832 70.885108 
L 165.790505 70.951066 
" clip-path="url(#pa425fc9eb8)" style="fill: none; stroke: #808080; stroke-linecap: square"/>
   </g>
   <g id="line2d_3">
    <path d="M 57.377031 25.41395 
L 165.790668 25.41395 
" clip-path="url(#pa425fc9eb8)" style="fill: none; stroke-dasharray: 6.4,1.6,1,1.6; stroke-dashoffset: 0; stroke: #808080"/>
   </g>
   <g id="matplotlib.axis_1">
    <g id="xtick_1">
     <g id="line2d_4">
      <defs>
       <path id="ma031cbcea6" d="M 0 0 
L 0 6 
" style="stroke: #000000"/>
      </defs>
      <g>
       <use xlink:href="#ma031cbcea6" x="57.377031" y="116.483699" style="stroke: #000000"/>
      </g>
     </g>
     <g id="text_1">
      <!-- $\mathdefault{10^{1}}$ -->
      <g transform="translate(44.032031 140.014949)scale(0.17 -0.17)">
       <defs>
        <path id="ArialMT-31" d="M 2384 0 
L 1822 0 
L 1822 3584 
Q 1619 3391 1289 3197 
Q 959 3003 697 2906 
L 697 3450 
Q 1169 3672 1522 3987 
Q 1875 4303 2022 4600 
L 2384 4600 
L 2384 0 
z
" transform="scale(0.015625)"/>
        <path id="ArialMT-30" d="M 266 2259 
Q 266 3072 433 3567 
Q 600 4063 929 4331 
Q 1259 4600 1759 4600 
Q 2128 4600 2406 4451 
Q 2684 4303 2865 4023 
Q 3047 3744 3150 3342 
Q 3253 2941 3253 2259 
Q 3253 1453 3087 958 
Q 2922 463 2592 192 
Q 2263 -78 1759 -78 
Q 1097 -78 719 397 
Q 266 969 266 2259 
z
M 844 2259 
Q 844 1131 1108 757 
Q 1372 384 1759 384 
Q 2147 384 2411 759 
Q 2675 1134 2675 2259 
Q 2675 3391 2411 3762 
Q 2147 4134 1753 4134 
Q 1366 4134 1134 3806 
Q 844 3388 844 2259 
z
" transform="scale(0.015625)"/>
       </defs>
       <use xlink:href="#ArialMT-31" transform="translate(0 0.99375)"/>
       <use xlink:href="#ArialMT-30" transform="translate(55.615234 0.99375)"/>
       <use xlink:href="#ArialMT-31" transform="translate(112.972813 70.6875)scale(0.7)"/>
      </g>
     </g>
    </g>
    <g id="xtick_2">
     <g id="line2d_5">
      <g>
       <use xlink:href="#ma031cbcea6" x="102.588186" y="116.483699" style="stroke: #000000"/>
      </g>
     </g>
     <g id="text_2">
      <!-- $\mathdefault{10^{2}}$ -->
      <g transform="translate(89.243186 140.014949)scale(0.17 -0.17)">
       <defs>
        <path id="ArialMT-32" d="M 3222 541 
L 3222 0 
L 194 0 
Q 188 203 259 391 
Q 375 700 629 1000 
Q 884 1300 1366 1694 
Q 2113 2306 2375 2664 
Q 2638 3022 2638 3341 
Q 2638 3675 2398 3904 
Q 2159 4134 1775 4134 
Q 1369 4134 1125 3890 
Q 881 3647 878 3216 
L 300 3275 
Q 359 3922 746 4261 
Q 1134 4600 1788 4600 
Q 2447 4600 2831 4234 
Q 3216 3869 3216 3328 
Q 3216 3053 3103 2787 
Q 2991 2522 2730 2228 
Q 2469 1934 1863 1422 
Q 1356 997 1212 845 
Q 1069 694 975 541 
L 3222 541 
z
" transform="scale(0.015625)"/>
       </defs>
       <use xlink:href="#ArialMT-31" transform="translate(0 0.99375)"/>
       <use xlink:href="#ArialMT-30" transform="translate(55.615234 0.99375)"/>
       <use xlink:href="#ArialMT-32" transform="translate(112.972813 70.6875)scale(0.7)"/>
      </g>
     </g>
    </g>
    <g id="xtick_3">
     <g id="line2d_6">
      <g>
       <use xlink:href="#ma031cbcea6" x="147.79934" y="116.483699" style="stroke: #000000"/>
      </g>
     </g>
     <g id="text_3">
      <!-- $\mathdefault{10^{3}}$ -->
      <g transform="translate(134.45434 140.014949)scale(0.17 -0.17)">
       <defs>
        <path id="ArialMT-33" d="M 269 1209 
L 831 1284 
Q 928 806 1161 595 
Q 1394 384 1728 384 
Q 2125 384 2398 659 
Q 2672 934 2672 1341 
Q 2672 1728 2419 1979 
Q 2166 2231 1775 2231 
Q 1616 2231 1378 2169 
L 1441 2663 
Q 1497 2656 1531 2656 
Q 1891 2656 2178 2843 
Q 2466 3031 2466 3422 
Q 2466 3731 2256 3934 
Q 2047 4138 1716 4138 
Q 1388 4138 1169 3931 
Q 950 3725 888 3313 
L 325 3413 
Q 428 3978 793 4289 
Q 1159 4600 1703 4600 
Q 2078 4600 2393 4439 
Q 2709 4278 2876 4000 
Q 3044 3722 3044 3409 
Q 3044 3113 2884 2869 
Q 2725 2625 2413 2481 
Q 2819 2388 3044 2092 
Q 3269 1797 3269 1353 
Q 3269 753 2831 336 
Q 2394 -81 1725 -81 
Q 1122 -81 723 278 
Q 325 638 269 1209 
z
" transform="scale(0.015625)"/>
       </defs>
       <use xlink:href="#ArialMT-31" transform="translate(0 0.99375)"/>
       <use xlink:href="#ArialMT-30" transform="translate(55.615234 0.99375)"/>
       <use xlink:href="#ArialMT-33" transform="translate(112.972813 70.6875)scale(0.7)"/>
      </g>
     </g>
    </g>
    <g id="xtick_4">
     <g id="line2d_7">
      <defs>
       <path id="m159469e16c" d="M 0 0 
L 0 3 
" style="stroke: #000000"/>
      </defs>
      <g>
       <use xlink:href="#m159469e16c" x="70.986945" y="116.483699" style="stroke: #000000"/>
      </g>
     </g>
    </g>
    <g id="xtick_5">
     <g id="line2d_8">
      <g>
       <use xlink:href="#m159469e16c" x="78.948234" y="116.483699" style="stroke: #000000"/>
      </g>
     </g>
    </g>
    <g id="xtick_6">
     <g id="line2d_9">
      <g>
       <use xlink:href="#m159469e16c" x="84.596859" y="116.483699" style="stroke: #000000"/>
      </g>
     </g>
    </g>
    <g id="xtick_7">
     <g id="line2d_10">
      <g>
       <use xlink:href="#m159469e16c" x="88.978272" y="116.483699" style="stroke: #000000"/>
      </g>
     </g>
    </g>
    <g id="xtick_8">
     <g id="line2d_11">
      <g>
       <use xlink:href="#m159469e16c" x="92.558148" y="116.483699" style="stroke: #000000"/>
      </g>
     </g>
    </g>
    <g id="xtick_9">
     <g id="line2d_12">
      <g>
       <use xlink:href="#m159469e16c" x="95.584889" y="116.483699" style="stroke: #000000"/>
      </g>
     </g>
    </g>
    <g id="xtick_10">
     <g id="line2d_13">
      <g>
       <use xlink:href="#m159469e16c" x="98.206772" y="116.483699" style="stroke: #000000"/>
      </g>
     </g>
    </g>
    <g id="xtick_11">
     <g id="line2d_14">
      <g>
       <use xlink:href="#m159469e16c" x="100.519437" y="116.483699" style="stroke: #000000"/>
      </g>
     </g>
    </g>
    <g id="xtick_12">
     <g id="line2d_15">
      <g>
       <use xlink:href="#m159469e16c" x="116.198099" y="116.483699" style="stroke: #000000"/>
      </g>
     </g>
    </g>
    <g id="xtick_13">
     <g id="line2d_16">
      <g>
       <use xlink:href="#m159469e16c" x="124.159389" y="116.483699" style="stroke: #000000"/>
      </g>
     </g>
    </g>
    <g id="xtick_14">
     <g id="line2d_17">
      <g>
       <use xlink:href="#m159469e16c" x="129.808013" y="116.483699" style="stroke: #000000"/>
      </g>
     </g>
    </g>
    <g id="xtick_15">
     <g id="line2d_18">
      <g>
       <use xlink:href="#m159469e16c" x="134.189427" y="116.483699" style="stroke: #000000"/>
      </g>
     </g>
    </g>
    <g id="xtick_16">
     <g id="line2d_19">
      <g>
       <use xlink:href="#m159469e16c" x="137.769302" y="116.483699" style="stroke: #000000"/>
      </g>
     </g>
    </g>
    <g id="xtick_17">
     <g id="line2d_20">
      <g>
       <use xlink:href="#m159469e16c" x="140.796044" y="116.483699" style="stroke: #000000"/>
      </g>
     </g>
    </g>
    <g id="xtick_18">
     <g id="line2d_21">
      <g>
       <use xlink:href="#m159469e16c" x="143.417927" y="116.483699" style="stroke: #000000"/>
      </g>
     </g>
    </g>
    <g id="xtick_19">
     <g id="line2d_22">
      <g>
       <use xlink:href="#m159469e16c" x="145.730591" y="116.483699" style="stroke: #000000"/>
      </g>
     </g>
    </g>
    <g id="xtick_20">
     <g id="line2d_23">
      <g>
       <use xlink:href="#m159469e16c" x="161.409254" y="116.483699" style="stroke: #000000"/>
      </g>
     </g>
    </g>
    <g id="text_4">
     <!-- Time (ms) -->
     <g transform="translate(73.663224 159.769168)scale(0.17 -0.17)">
      <defs>
       <path id="ArialMT-54" d="M 1659 0 
L 1659 4041 
L 150 4041 
L 150 4581 
L 3781 4581 
L 3781 4041 
L 2266 4041 
L 2266 0 
L 1659 0 
z
" transform="scale(0.015625)"/>
       <path id="ArialMT-69" d="M 425 3934 
L 425 4581 
L 988 4581 
L 988 3934 
L 425 3934 
z
M 425 0 
L 425 3319 
L 988 3319 
L 988 0 
L 425 0 
z
" transform="scale(0.015625)"/>
       <path id="ArialMT-6d" d="M 422 0 
L 422 3319 
L 925 3319 
L 925 2853 
Q 1081 3097 1340 3245 
Q 1600 3394 1931 3394 
Q 2300 3394 2536 3241 
Q 2772 3088 2869 2813 
Q 3263 3394 3894 3394 
Q 4388 3394 4653 3120 
Q 4919 2847 4919 2278 
L 4919 0 
L 4359 0 
L 4359 2091 
Q 4359 2428 4304 2576 
Q 4250 2725 4106 2815 
Q 3963 2906 3769 2906 
Q 3419 2906 3187 2673 
Q 2956 2441 2956 1928 
L 2956 0 
L 2394 0 
L 2394 2156 
Q 2394 2531 2256 2718 
Q 2119 2906 1806 2906 
Q 1569 2906 1367 2781 
Q 1166 2656 1075 2415 
Q 984 2175 984 1722 
L 984 0 
L 422 0 
z
" transform="scale(0.015625)"/>
       <path id="ArialMT-65" d="M 2694 1069 
L 3275 997 
Q 3138 488 2766 206 
Q 2394 -75 1816 -75 
Q 1088 -75 661 373 
Q 234 822 234 1631 
Q 234 2469 665 2931 
Q 1097 3394 1784 3394 
Q 2450 3394 2872 2941 
Q 3294 2488 3294 1666 
Q 3294 1616 3291 1516 
L 816 1516 
Q 847 969 1125 678 
Q 1403 388 1819 388 
Q 2128 388 2347 550 
Q 2566 713 2694 1069 
z
M 847 1978 
L 2700 1978 
Q 2663 2397 2488 2606 
Q 2219 2931 1791 2931 
Q 1403 2931 1139 2672 
Q 875 2413 847 1978 
z
" transform="scale(0.015625)"/>
       <path id="ArialMT-20" transform="scale(0.015625)"/>
       <path id="ArialMT-28" d="M 1497 -1347 
Q 1031 -759 709 28 
Q 388 816 388 1659 
Q 388 2403 628 3084 
Q 909 3875 1497 4659 
L 1900 4659 
Q 1522 4009 1400 3731 
Q 1209 3300 1100 2831 
Q 966 2247 966 1656 
Q 966 153 1900 -1347 
L 1497 -1347 
z
" transform="scale(0.015625)"/>
       <path id="ArialMT-73" d="M 197 991 
L 753 1078 
Q 800 744 1014 566 
Q 1228 388 1613 388 
Q 2000 388 2187 545 
Q 2375 703 2375 916 
Q 2375 1106 2209 1216 
Q 2094 1291 1634 1406 
Q 1016 1563 777 1677 
Q 538 1791 414 1992 
Q 291 2194 291 2438 
Q 291 2659 392 2848 
Q 494 3038 669 3163 
Q 800 3259 1026 3326 
Q 1253 3394 1513 3394 
Q 1903 3394 2198 3281 
Q 2494 3169 2634 2976 
Q 2775 2784 2828 2463 
L 2278 2388 
Q 2241 2644 2061 2787 
Q 1881 2931 1553 2931 
Q 1166 2931 1000 2803 
Q 834 2675 834 2503 
Q 834 2394 903 2306 
Q 972 2216 1119 2156 
Q 1203 2125 1616 2013 
Q 2213 1853 2448 1751 
Q 2684 1650 2818 1456 
Q 2953 1263 2953 975 
Q 2953 694 2789 445 
Q 2625 197 2315 61 
Q 2006 -75 1616 -75 
Q 969 -75 630 194 
Q 291 463 197 991 
z
" transform="scale(0.015625)"/>
       <path id="ArialMT-29" d="M 791 -1347 
L 388 -1347 
Q 1322 153 1322 1656 
Q 1322 2244 1188 2822 
Q 1081 3291 891 3722 
Q 769 4003 388 4659 
L 791 4659 
Q 1378 3875 1659 3084 
Q 1900 2403 1900 1659 
Q 1900 816 1576 28 
Q 1253 -759 791 -1347 
z
" transform="scale(0.015625)"/>
      </defs>
      <use xlink:href="#ArialMT-54"/>
      <use xlink:href="#ArialMT-69" x="57.333984"/>
      <use xlink:href="#ArialMT-6d" x="79.550781"/>
      <use xlink:href="#ArialMT-65" x="162.851562"/>
      <use xlink:href="#ArialMT-20" x="218.466797"/>
      <use xlink:href="#ArialMT-28" x="246.25"/>
      <use xlink:href="#ArialMT-6d" x="279.550781"/>
      <use xlink:href="#ArialMT-73" x="362.851562"/>
      <use xlink:href="#ArialMT-29" x="412.851562"/>
     </g>
    </g>
   </g>
   <g id="matplotlib.axis_2">
    <g id="ytick_1">
     <g id="line2d_24">
      <defs>
       <path id="mda9728703d" d="M 0 0 
L -6 0 
" style="stroke: #000000"/>
      </defs>
      <g>
       <use xlink:href="#mda9728703d" x="57.377031" y="116.483699" style="stroke: #000000"/>
      </g>
     </g>
     <g id="text_5">
      <!-- 0.0 -->
      <g transform="translate(26.747031 122.567839)scale(0.17 -0.17)">
       <defs>
        <path id="ArialMT-2e" d="M 581 0 
L 581 641 
L 1222 641 
L 1222 0 
L 581 0 
z
" transform="scale(0.015625)"/>
       </defs>
       <use xlink:href="#ArialMT-30"/>
       <use xlink:href="#ArialMT-2e" x="55.615234"/>
       <use xlink:href="#ArialMT-30" x="83.398438"/>
      </g>
     </g>
    </g>
    <g id="ytick_2">
     <g id="line2d_25">
      <g>
       <use xlink:href="#mda9728703d" x="57.377031" y="70.948824" style="stroke: #000000"/>
      </g>
     </g>
     <g id="text_6">
      <!-- 0.5 -->
      <g transform="translate(26.747031 77.032965)scale(0.17 -0.17)">
       <defs>
        <path id="ArialMT-35" d="M 266 1200 
L 856 1250 
Q 922 819 1161 601 
Q 1400 384 1738 384 
Q 2144 384 2425 690 
Q 2706 997 2706 1503 
Q 2706 1984 2436 2262 
Q 2166 2541 1728 2541 
Q 1456 2541 1237 2417 
Q 1019 2294 894 2097 
L 366 2166 
L 809 4519 
L 3088 4519 
L 3088 3981 
L 1259 3981 
L 1013 2750 
Q 1425 3038 1878 3038 
Q 2478 3038 2890 2622 
Q 3303 2206 3303 1553 
Q 3303 931 2941 478 
Q 2500 -78 1738 -78 
Q 1113 -78 717 272 
Q 322 622 266 1200 
z
" transform="scale(0.015625)"/>
       </defs>
       <use xlink:href="#ArialMT-30"/>
       <use xlink:href="#ArialMT-2e" x="55.615234"/>
       <use xlink:href="#ArialMT-35" x="83.398438"/>
      </g>
     </g>
    </g>
    <g id="ytick_3">
     <g id="line2d_26">
      <g>
       <use xlink:href="#mda9728703d" x="57.377031" y="25.41395" style="stroke: #000000"/>
      </g>
     </g>
     <g id="text_7">
      <!-- 1.0 -->
      <g transform="translate(26.747031 31.49809)scale(0.17 -0.17)">
       <use xlink:href="#ArialMT-31"/>
       <use xlink:href="#ArialMT-2e" x="55.615234"/>
       <use xlink:href="#ArialMT-30" x="83.398438"/>
      </g>
     </g>
    </g>
    <g id="text_8">
     <!-- DR-NED -->
     <g transform="translate(19.368281 94.896224)rotate(-90)scale(0.17 -0.17)">
      <defs>
       <path id="ArialMT-44" d="M 494 0 
L 494 4581 
L 2072 4581 
Q 2606 4581 2888 4516 
Q 3281 4425 3559 4188 
Q 3922 3881 4101 3404 
Q 4281 2928 4281 2316 
Q 4281 1794 4159 1391 
Q 4038 988 3847 723 
Q 3656 459 3429 307 
Q 3203 156 2883 78 
Q 2563 0 2147 0 
L 494 0 
z
M 1100 541 
L 2078 541 
Q 2531 541 2789 625 
Q 3047 709 3200 863 
Q 3416 1078 3536 1442 
Q 3656 1806 3656 2325 
Q 3656 3044 3420 3430 
Q 3184 3816 2847 3947 
Q 2603 4041 2063 4041 
L 1100 4041 
L 1100 541 
z
" transform="scale(0.015625)"/>
       <path id="ArialMT-52" d="M 503 0 
L 503 4581 
L 2534 4581 
Q 3147 4581 3465 4457 
Q 3784 4334 3975 4021 
Q 4166 3709 4166 3331 
Q 4166 2844 3850 2509 
Q 3534 2175 2875 2084 
Q 3116 1969 3241 1856 
Q 3506 1613 3744 1247 
L 4541 0 
L 3778 0 
L 3172 953 
Q 2906 1366 2734 1584 
Q 2563 1803 2427 1890 
Q 2291 1978 2150 2013 
Q 2047 2034 1813 2034 
L 1109 2034 
L 1109 0 
L 503 0 
z
M 1109 2559 
L 2413 2559 
Q 2828 2559 3062 2645 
Q 3297 2731 3419 2920 
Q 3541 3109 3541 3331 
Q 3541 3656 3305 3865 
Q 3069 4075 2559 4075 
L 1109 4075 
L 1109 2559 
z
" transform="scale(0.015625)"/>
       <path id="ArialMT-2d" d="M 203 1375 
L 203 1941 
L 1931 1941 
L 1931 1375 
L 203 1375 
z
" transform="scale(0.015625)"/>
       <path id="ArialMT-4e" d="M 488 0 
L 488 4581 
L 1109 4581 
L 3516 984 
L 3516 4581 
L 4097 4581 
L 4097 0 
L 3475 0 
L 1069 3600 
L 1069 0 
L 488 0 
z
" transform="scale(0.015625)"/>
       <path id="ArialMT-45" d="M 506 0 
L 506 4581 
L 3819 4581 
L 3819 4041 
L 1113 4041 
L 1113 2638 
L 3647 2638 
L 3647 2100 
L 1113 2100 
L 1113 541 
L 3925 541 
L 3925 0 
L 506 0 
z
" transform="scale(0.015625)"/>
      </defs>
      <use xlink:href="#ArialMT-44"/>
      <use xlink:href="#ArialMT-52" x="72.216797"/>
      <use xlink:href="#ArialMT-2d" x="144.433594"/>
      <use xlink:href="#ArialMT-4e" x="177.734375"/>
      <use xlink:href="#ArialMT-45" x="249.951172"/>
      <use xlink:href="#ArialMT-44" x="316.650391"/>
     </g>
    </g>
   </g>
   <g id="line2d_27">
    <path d="M 54.987518 48.371422 
L 64.071109 66.739754 
L 74.954977 30.768437 
L 78.742631 25.41395 
L 81.91645 25.41395 
L 84.647924 25.793684 
L 87.045406 26.559035 
L 89.181745 26.176365 
L 91.108284 25.41395 
L 104.065194 25.41395 
L 104.991542 28.472398 
L 105.87615 25.41395 
L 119.615384 25.41395 
L 120.0404 25.793684 
L 120.456409 25.41395 
L 122.413703 25.41395 
L 122.78279 30.385766 
L 123.14507 26.176365 
L 123.500786 25.41395 
L 124.193448 25.41395 
L 124.530827 27.324376 
L 124.862506 25.41395 
L 130.287863 25.41395 
L 130.535783 31.916459 
L 130.78061 30.768437 
L 131.022423 25.41395 
L 131.261295 25.793684 
L 131.497293 25.41395 
L 133.28964 25.41395 
L 133.502602 26.176365 
L 133.713279 25.41395 
L 138.023316 25.41395 
L 138.19085 26.559035 
L 138.356966 25.41395 
L 143.04367 25.41395 
L 143.173531 30.768437 
L 143.30254 25.41395 
L 144.426986 25.41395 
L 144.54804 26.176365 
L 144.668352 25.41395 
L 147.144261 25.41395 
L 147.249712 26.559035 
L 147.458931 25.41395 
L 149.342634 25.41395 
L 149.436943 25.793684 
L 149.624211 25.41395 
L 150.355921 25.41395 
L 150.445495 26.941706 
L 150.623431 25.41395 
L 150.799767 25.41395 
L 150.974533 29.23775 
L 151.14776 25.41395 
L 152.319344 25.41395 
L 152.400414 26.176365 
L 152.561555 25.41395 
L 153.348002 25.41395 
L 153.424941 26.559035 
L 153.577922 25.41395 
L 154.02984 25.41395 
L 154.104157 25.793684 
L 154.251957 25.41395 
L 156.145442 25.41395 
L 156.212182 25.793684 
L 156.344986 25.41395 
L 156.995855 25.41395 
L 157.059772 27.707057 
L 157.186982 25.41395 
L 160.342816 25.41395 
L 160.396729 26.176365 
L 160.450494 25.41395 
L 165.655211 25.41395 
L 165.655211 25.41395 
" clip-path="url(#pa425fc9eb8)" style="fill: none; stroke: #ff0000; stroke-width: 1.5; stroke-linecap: square"/>
   </g>
   <g id="line2d_28">
    <path d="M 98.001169 116.483699 
L 98.001169 7.2 
" clip-path="url(#pa425fc9eb8)" style="fill: none; stroke-dasharray: 10,3; stroke-dashoffset: 5; stroke: #000000"/>
   </g>
   <g id="patch_3">
    <path d="M 57.377031 116.483699 
L 57.377031 7.2 
" style="fill: none; stroke: #000000; stroke-linejoin: miter; stroke-linecap: square"/>
   </g>
   <g id="patch_4">
    <path d="M 165.790668 116.483699 
L 165.790668 7.2 
" style="fill: none; stroke: #000000; stroke-linejoin: miter; stroke-linecap: square"/>
   </g>
   <g id="patch_5">
    <path d="M 57.377031 116.483699 
L 165.790668 116.483699 
" style="fill: none; stroke: #000000; stroke-linejoin: miter; stroke-linecap: square"/>
   </g>
   <g id="patch_6">
    <path d="M 57.377031 7.2 
L 165.790668 7.2 
" style="fill: none; stroke: #000000; stroke-linejoin: miter; stroke-linecap: square"/>
   </g>
  </g>
 </g>
 <defs>
  <clipPath id="pa425fc9eb8">
   <rect x="57.377031" y="7.2" width="108.413636" height="109.283699"/>
  </clipPath>
 </defs>
</svg>
