<?xml version="1.0" encoding="utf-8" standalone="no"?>
<!DOCTYPE svg PUBLIC "-//W3C//DTD SVG 1.1//EN"
  "http://www.w3.org/Graphics/SVG/1.1/DTD/svg11.dtd">
<svg xmlns:xlink="http://www.w3.org/1999/xlink" width="172.990668pt" height="170.547136pt" viewBox="0 0 172.990668 170.547136" xmlns="http://www.w3.org/2000/svg" version="1.1">
 <metadata>
  <rdf:RDF xmlns:dc="http://purl.org/dc/elements/1.1/" xmlns:cc="http://creativecommons.org/ns#" xmlns:rdf="http://www.w3.org/1999/02/22-rdf-syntax-ns#">
   <cc:Work>
    <dc:type rdf:resource="http://purl.org/dc/dcmitype/StillImage"/>
    <dc:date>2024-08-16T06:10:06.758268</dc:date>
    <dc:format>image/svg+xml</dc:format>
    <dc:creator>
     <cc:Agent>
      <dc:title>Matplotlib v3.5.3, https://matplotlib.org/</dc:title>
     </cc:Agent>
    </dc:creator>
   </cc:Work>
  </rdf:RDF>
 </metadata>
 <defs>
  <style type="text/css">*{stroke-linejoin: round; stroke-linecap: butt}</style>
 </defs>
 <g id="figure_1">
  <g id="patch_1">
   <path d="M 0 170.547136 
L 172.990668 170.547136 
L 172.990668 0 
L 0 0 
z
" style="fill: #ffffff"/>
  </g>
  <g id="axes_1">
   <g id="patch_2">
    <path d="M 57.377031 116.483699 
L 165.790668 116.483699 
L 165.790668 7.2 
L 57.377031 7.2 
z
" style="fill: #ffffff"/>
   </g>
   <g id="line2d_1">
    <path d="M 57.336083 73.455254 
L 57.417894 69.933429 
L 57.580503 59.599586 
L 57.620947 59.769156 
L 57.661308 60.11346 
L 57.701582 60.089984 
L 57.741778 59.830701 
L 57.781889 59.886867 
L 57.86187 62.38295 
L 58.020857 70.052317 
L 58.060405 69.927268 
L 58.335024 62.67871 
L 58.373945 63.248718 
L 58.528854 71.299705 
L 58.567393 70.044902 
L 58.644243 68.58762 
L 58.682554 69.844374 
L 58.758956 71.772179 
L 58.797044 70.692701 
L 58.91087 67.111074 
L 58.948666 68.429894 
L 59.211219 78.49543 
L 59.248442 78.52348 
L 59.396633 76.593304 
L 59.507043 74.712958 
L 59.543711 75.176112 
L 59.653302 78.616756 
L 59.689696 77.902898 
L 59.834603 73.083966 
L 59.870665 73.329746 
L 59.906659 73.297758 
L 60.014248 71.647779 
L 60.049981 71.806097 
L 60.263019 77.119161 
L 60.298303 76.583142 
L 60.578306 64.902119 
L 60.647689 63.993545 
L 60.682287 64.392886 
L 60.820076 66.85735 
L 60.854374 66.744313 
L 60.956907 63.574349 
L 60.990967 64.073899 
L 61.126614 72.313575 
L 61.16038 71.056712 
L 61.261331 65.869351 
L 61.294866 66.300864 
L 61.561107 73.202499 
L 61.692887 77.16469 
L 61.758445 76.170609 
L 62.050782 67.037647 
L 62.11516 67.753233 
L 62.433915 75.558668 
L 62.497051 73.130358 
L 62.591374 67.290589 
L 62.654005 68.485055 
L 62.747579 70.340939 
L 62.778672 70.086759 
L 62.902552 65.730004 
L 62.9642 67.698142 
L 63.056311 72.751395 
L 63.117481 72.473494 
L 63.178458 72.137984 
L 63.269571 69.136404 
L 63.299848 69.522993 
L 63.420495 78.004975 
L 63.45054 76.697715 
L 63.570265 69.73441 
L 63.600083 70.203144 
L 63.748497 76.240733 
L 63.807549 75.135172 
L 63.837008 74.698557 
L 63.895796 75.280067 
L 64.071109 76.567444 
L 64.129201 75.38019 
L 64.474188 59.315648 
L 64.559495 43.89471 
L 64.616161 48.397168 
L 64.841206 76.358103 
L 64.869157 76.158748 
L 64.95277 64.634309 
L 65.036028 52.572508 
L 65.063702 55.212232 
L 65.228934 90.62148 
L 65.283703 82.283413 
L 65.365572 69.888288 
L 65.392787 74.719507 
L 65.501267 102.800489 
L 65.555283 98.216133 
L 65.823159 46.414308 
L 65.876298 57.277497 
L 66.00852 89.40154 
L 66.034859 87.527827 
L 66.296313 50.324737 
L 66.348188 53.028844 
L 66.579949 73.771095 
L 66.605531 73.656688 
L 66.809003 57.277464 
L 66.834291 58.650707 
L 67.035418 86.017805 
L 67.110315 80.400333 
L 67.135215 79.497082 
L 67.184923 80.804855 
L 67.209731 81.110073 
L 67.234508 80.174806 
L 67.382511 68.261718 
L 67.431598 70.309569 
L 67.650985 79.948475 
L 67.675209 79.547477 
L 67.795893 68.357536 
L 67.867948 72.291989 
L 67.93974 76.71851 
L 67.987454 74.910207 
L 68.129909 64.123224 
L 68.177165 65.180091 
L 68.27134 69.155006 
L 68.294812 68.235521 
L 68.48159 61.558909 
L 68.504813 61.434316 
L 68.551176 63.428445 
L 68.666608 76.545248 
L 68.735545 73.618482 
L 68.872693 67.744195 
L 68.895459 68.02747 
L 69.008889 74.674173 
L 69.054079 71.842596 
L 69.099164 69.738785 
L 69.144148 71.230227 
L 69.30078 84.449658 
L 69.345305 80.91442 
L 69.456174 67.972342 
L 69.500346 71.263765 
L 69.544421 73.186038 
L 69.610347 71.537247 
L 69.719734 67.570255 
L 69.763318 69.062136 
L 69.828516 74.231199 
L 69.871858 71.726837 
L 69.915108 68.526434 
L 69.979803 71.474288 
L 70.022815 72.587144 
L 70.044286 71.381192 
L 70.236473 62.574304 
L 70.278928 63.745608 
L 70.489831 75.740501 
L 70.510798 75.236188 
L 70.594439 71.746789 
L 70.636126 73.70225 
L 70.698494 76.297102 
L 70.739961 74.741467 
L 70.801999 72.845808 
L 70.863841 73.639663 
L 70.904961 73.068792 
L 71.027808 66.512704 
L 71.088944 69.875896 
L 71.149893 72.654725 
L 71.210649 71.001945 
L 71.251051 70.358276 
L 71.311496 71.252265 
L 71.451818 67.854919 
L 71.491728 68.750455 
L 71.571303 72.855285 
L 71.630771 71.52122 
L 71.690063 70.030116 
L 71.749173 70.527576 
L 71.827714 71.615359 
L 71.886413 71.076699 
L 71.905941 71.005169 
L 71.925448 71.278483 
L 72.003288 73.905798 
L 72.061466 72.569923 
L 72.292468 68.414602 
L 72.330705 69.385205 
L 72.425974 75.482961 
L 72.463953 72.969692 
L 72.520784 70.4444 
L 72.577451 71.793281 
L 72.615139 72.12557 
L 72.671532 71.656863 
L 72.783841 68.331752 
L 72.858356 69.824388 
L 72.876941 69.837486 
L 72.895509 69.71767 
L 72.988083 68.344329 
L 73.02499 69.357857 
L 73.116957 71.581017 
L 73.153625 71.08965 
L 73.244992 69.127415 
L 73.29961 70.01325 
L 73.480579 72.1586 
L 73.516573 72.368095 
L 73.624162 74.106212 
L 73.659895 73.479936 
L 73.71337 72.24851 
L 73.748942 73.173461 
L 73.802176 74.364982 
L 73.855269 73.174229 
L 73.908217 71.465853 
L 73.978592 72.377551 
L 74.031211 71.218988 
L 74.118594 67.618972 
L 74.170836 68.94189 
L 74.240279 73.505543 
L 74.27491 71.984795 
L 74.378434 56.218893 
L 74.42999 61.570069 
L 74.515621 77.22969 
L 74.56682 72.767384 
L 74.617887 69.026597 
L 74.651857 71.850754 
L 74.702703 77.744113 
L 74.753419 73.511001 
L 74.804001 67.206816 
L 74.854456 71.213044 
L 75.021705 77.975576 
L 75.038352 79.108836 
L 75.088208 75.188814 
L 75.137936 71.209553 
L 75.187542 74.7983 
L 75.204049 75.742418 
L 75.23702 73.333684 
L 75.3028 62.705123 
L 75.351989 69.624397 
L 75.417385 83.77902 
L 75.466289 78.709548 
L 75.579926 55.257579 
L 75.628428 63.162898 
L 75.741134 73.786101 
L 75.773218 71.123756 
L 75.853197 58.197248 
L 75.901029 63.546817 
L 76.012184 76.418888 
L 76.075421 72.748231 
L 76.138455 71.796405 
L 76.169896 72.112936 
L 76.263918 80.479332 
L 76.357493 76.978588 
L 76.373045 76.448249 
L 76.404113 77.806054 
L 76.450623 79.966692 
L 76.497023 77.237838 
L 76.63557 63.183558 
L 76.742656 63.840796 
L 76.757906 63.746444 
L 76.773144 64.040038 
L 76.939994 69.249408 
L 76.970178 67.151584 
L 77.000315 64.996852 
L 77.030408 68.518357 
L 77.07546 75.21311 
L 77.105436 67.943138 
L 77.135367 58.323279 
L 77.195094 73.815753 
L 77.209996 75.918019 
L 77.23977 70.431779 
L 77.269498 64.843191 
L 77.314003 76.701289 
L 77.34362 82.754676 
L 77.402716 75.053826 
L 77.417463 75.147494 
L 77.491029 88.036651 
L 77.549685 79.577237 
L 77.71009 67.690006 
L 77.854785 63.347038 
L 77.897986 54.397337 
L 77.941093 64.727278 
L 77.984104 80.523675 
L 78.055582 70.151224 
L 78.084101 66.7636 
L 78.126801 73.746706 
L 78.141013 74.770703 
L 78.169409 68.993518 
L 78.211923 57.876269 
L 78.268469 69.274198 
L 78.352981 68.117203 
L 78.42313 80.878879 
L 78.479071 71.659159 
L 78.548772 77.393594 
L 78.562683 77.398173 
L 78.77017 70.494084 
L 78.797668 72.293078 
L 78.838847 77.591039 
L 78.879938 68.781233 
L 78.907285 66.532457 
L 78.948234 68.794439 
L 78.989098 67.253254 
L 79.043451 69.348423 
L 79.070571 66.744862 
L 79.111181 63.034592 
L 79.178678 65.981204 
L 79.19215 65.953075 
L 79.219066 65.538042 
L 79.232509 66.066963 
L 79.326361 76.160322 
L 79.366445 71.235847 
L 79.393123 67.912024 
L 79.44637 74.281189 
L 79.45966 74.755021 
L 79.512727 73.145929 
L 79.565652 70.286141 
L 79.57886 69.986891 
L 79.592061 71.269746 
L 79.644772 84.191279 
L 79.697343 73.25094 
L 79.815113 67.260821 
L 79.749772 73.262144 
L 79.841189 68.664673 
L 79.854213 69.195473 
L 79.893235 67.201822 
L 79.906227 66.638491 
L 79.945146 68.996254 
L 79.971051 70.540918 
L 80.03566 68.36931 
L 80.074323 63.963821 
L 80.100058 61.447485 
L 80.138596 69.964348 
L 80.291995 77.833084 
L 80.304723 79.110989 
L 80.342864 74.555454 
L 80.380926 68.6311 
L 80.456835 73.86551 
L 80.507279 65.995442 
L 80.595243 69.067162 
L 80.620305 70.077352 
L 80.632822 70.895335 
L 80.670329 66.994943 
L 80.707765 62.019854 
L 80.757567 68.064132 
L 80.844422 91.073997 
L 80.930892 77.457728 
L 81.090476 60.337595 
L 81.127119 54.219977 
L 81.175873 62.456458 
L 81.285123 73.80969 
L 81.30932 71.418897 
L 81.333486 69.772532 
L 81.357623 74.184191 
L 81.393773 83.258791 
L 81.453872 69.913888 
L 81.549653 85.225356 
L 81.585451 78.00931 
L 81.644969 57.260279 
L 81.716154 67.353453 
L 81.763466 77.773871 
L 81.834223 69.848082 
L 81.869506 63.71825 
L 81.91645 75.541038 
L 82.033327 65.039925 
L 82.056619 61.329812 
L 82.126327 65.413041 
L 82.276521 86.683392 
L 82.322506 79.874023 
L 82.402718 59.34445 
L 82.448409 71.800628 
L 82.516744 79.710556 
L 82.562169 72.863818 
L 82.607488 68.31322 
L 82.663992 72.405574 
L 82.686549 73.691198 
L 82.731582 68.83527 
L 82.866069 63.038137 
L 82.910693 71.645461 
L 82.932968 74.889938 
L 82.977443 66.769821 
L 82.999641 62.779522 
L 83.043963 74.384455 
L 83.055027 75.624325 
L 83.088187 69.796177 
L 83.11026 67.313578 
L 83.165337 75.166043 
L 83.176334 74.420485 
L 83.19831 77.343142 
L 83.231227 89.792697 
L 83.285966 72.791805 
L 83.329648 67.28153 
L 83.373232 73.925861 
L 83.394989 76.457825 
L 83.43843 67.224344 
L 83.460113 63.412567 
L 83.525022 70.846362 
L 83.568177 68.341631 
L 83.589717 70.703047 
L 83.621985 73.66311 
L 83.6542 65.421037 
L 83.675648 59.734389 
L 83.718471 68.0643 
L 83.761204 65.590831 
L 83.793189 70.314303 
L 83.878236 68.098981 
L 83.888842 67.653583 
L 83.910033 69.669234 
L 84.015656 79.912221 
L 84.047232 76.193874 
L 84.183476 69.780832 
L 84.099745 78.166111 
L 84.193917 70.084088 
L 84.204352 70.473381 
L 84.225208 68.234729 
L 84.256449 61.624308 
L 84.298026 73.121168 
L 84.329153 78.163117 
L 84.380918 69.261051 
L 84.422233 60.058826 
L 84.473755 69.744507 
L 84.484044 69.656082 
L 84.494325 69.52498 
L 84.504603 70.12582 
L 84.535403 73.982173 
L 84.566155 66.603783 
L 84.596859 61.405389 
L 84.647924 69.195207 
L 84.6785 63.98473 
L 84.698858 66.820677 
L 84.749661 82.012921 
L 84.820563 76.508266 
L 84.881135 63.62666 
L 84.931467 75.566889 
L 84.97164 84.211847 
L 85.031749 74.057025 
L 85.071716 67.696937 
L 85.091671 64.342007 
L 85.141469 70.280279 
L 85.161353 70.170814 
L 85.210972 73.331464 
L 85.240685 69.283839 
L 85.299977 60.324839 
L 85.339402 68.8546 
L 85.437627 75.015009 
L 85.457214 70.337894 
L 85.506092 60.13222 
L 85.56459 70.423908 
L 85.622909 77.710849 
L 85.71973 82.524758 
L 85.739036 79.921375 
L 85.777592 63.02315 
L 85.825684 81.492209 
L 85.86407 72.071445 
L 86.06438 58.404251 
L 86.08335 61.066622 
L 86.168493 77.63089 
L 86.206217 70.448829 
L 86.234462 67.176114 
L 86.290829 71.542521 
L 86.318954 78.817604 
L 86.365738 65.770818 
L 86.412409 76.266432 
L 86.440359 70.010059 
L 86.477564 84.399097 
L 86.486855 85.523651 
L 86.505423 77.789373 
L 86.542503 63.0894 
L 86.597997 81.669985 
L 86.60723 81.069609 
L 86.690136 60.424935 
L 86.781845 64.798392 
L 86.900431 79.379548 
L 86.936775 71.640749 
L 87.036375 65.186594 
L 87.054431 67.435315 
L 87.180354 78.71452 
L 87.198277 76.993941 
L 87.323284 66.943501 
L 87.269809 78.721522 
L 87.341078 69.251188 
L 87.447501 75.653759 
L 87.403229 60.720239 
L 87.456343 75.212657 
L 87.491674 55.856693 
L 87.55335 75.231357 
L 87.579723 68.436853 
L 87.606061 71.218803 
L 87.632364 66.971847 
L 87.641125 66.640885 
L 87.676122 68.773318 
L 87.728507 98.46396 
L 87.780749 72.642099 
L 87.832856 43.482076 
L 87.884824 75.033003 
L 87.919392 93.044961 
L 87.971131 67.421398 
L 88.014142 63.535358 
L 88.048484 71.372988 
L 88.05706 71.287358 
L 88.091328 60.384148 
L 88.159682 70.523201 
L 88.210794 78.581144 
L 88.253284 71.705825 
L 88.278734 58.677425 
L 88.329536 86.552657 
L 88.337991 86.606244 
L 88.46437 60.106502 
L 88.506315 74.287429 
L 88.514693 76.170188 
L 88.556532 65.74739 
L 88.598283 71.21211 
L 88.631618 65.781979 
L 88.664897 77.715485 
L 88.681517 81.55748 
L 88.756127 71.667412 
L 88.896289 58.577915 
L 88.904503 61.319407 
L 89.002801 85.969185 
L 89.027298 71.368113 
L 89.051766 57.760686 
L 89.092476 80.186051 
L 89.133104 69.569627 
L 89.173646 90.454048 
L 89.20602 66.446572 
L 89.238342 52.324407 
L 89.310869 69.546785 
L 89.367096 77.11271 
L 89.399152 66.967965 
L 89.415162 64.594456 
L 89.455128 76.604282 
L 89.495012 68.566749 
L 89.526859 75.350677 
L 89.590405 64.65181 
L 89.606258 63.167322 
L 89.630015 70.807062 
L 89.661645 83.908222 
L 89.7405 75.390593 
L 89.842542 59.801313 
L 89.795512 75.674221 
L 89.866014 68.652547 
L 89.951841 75.281541 
L 89.912876 66.879714 
L 89.975184 71.423394 
L 90.037297 55.983039 
L 90.08375 68.532079 
L 90.130097 82.740503 
L 90.222459 79.880325 
L 90.253152 66.789671 
L 90.268479 61.17607 
L 90.314391 79.236537 
L 90.337308 77.837171 
L 90.360197 80.945887 
L 90.390672 75.177235 
L 90.413501 75.7845 
L 90.459075 54.685443 
L 90.549908 59.63197 
L 90.58763 81.806278 
L 90.670367 65.655828 
L 90.700367 60.760006 
L 90.722837 68.072014 
L 90.752758 86.165042 
L 90.834802 71.45108 
L 90.864553 67.382792 
L 90.886836 72.904085 
L 90.916507 82.137242 
L 90.975716 67.607307 
L 91.005252 61.585056 
L 91.049475 71.665591 
L 91.086252 67.371914 
L 91.130292 78.876193 
L 91.174236 66.466266 
L 91.225378 54.932013 
L 91.261827 73.319908 
L 91.312741 84.605745 
L 91.349029 66.107479 
L 91.370769 55.108744 
L 91.421402 78.170744 
L 91.443062 76.345966 
L 91.47911 88.113202 
L 91.51509 71.661677 
L 91.65836 56.851037 
L 91.543829 74.693997 
L 91.67263 60.717801 
L 91.750927 76.878253 
L 91.786414 65.993005 
L 91.793505 65.932817 
L 91.828914 74.340829 
L 91.906592 66.565287 
L 91.920683 65.117032 
L 91.955865 75.539355 
L 92.019034 81.531007 
L 92.040045 74.71051 
L 92.075014 56.457321 
L 92.130834 76.626245 
L 92.144765 75.564137 
L 92.283529 58.17547 
L 92.297351 64.735881 
L 92.318066 78.771304 
L 92.352544 62.071101 
L 92.414452 74.912392 
L 92.469317 66.540496 
L 92.510366 77.856379 
L 92.530858 84.249917 
L 92.564965 58.982467 
L 92.571778 57.242735 
L 92.599011 76.967949 
L 92.612614 80.67073 
L 92.687258 70.663042 
L 92.714332 58.460889 
L 92.748122 75.115346 
L 92.808795 64.142223 
L 92.875992 77.445425 
L 92.916201 64.07988 
L 92.922894 63.614115 
L 92.983032 66.016118 
L 93.049636 83.818266 
L 93.096126 66.518832 
L 93.116016 61.671516 
L 93.175566 77.297472 
L 93.182171 77.757103 
L 93.201974 71.838709 
L 93.261265 57.948257 
L 93.313818 69.244305 
L 93.346591 78.332273 
L 93.418502 67.351613 
L 93.431548 65.451793 
L 93.464127 70.177925 
L 93.509647 69.273704 
L 93.55506 85.216831 
L 93.600367 66.96993 
L 93.613295 64.859503 
L 93.645574 69.350252 
L 93.690673 69.276625 
L 93.722825 79.609708 
L 93.780566 64.773466 
L 93.793375 62.508401 
L 93.83175 74.418313 
L 93.87005 69.927702 
L 93.908272 80.573286 
L 93.940071 64.112042 
L 93.952778 60.279063 
L 94.016176 71.470247 
L 94.035156 70.561307 
L 94.041477 70.514228 
L 94.047801 70.821946 
L 94.129783 80.226094 
L 94.091987 69.989752 
L 94.180063 73.488485 
L 94.236479 61.729658 
L 94.305209 69.102711 
L 94.361264 77.38293 
L 94.379911 66.965593 
L 94.398546 57.609398 
L 94.472895 79.236746 
L 94.571597 85.47877 
L 94.516138 69.514547 
L 94.583899 82.511477 
L 94.730932 51.678698 
L 94.743134 61.353626 
L 94.797955 83.356276 
L 94.840489 57.975952 
L 94.852623 60.950079 
L 94.979593 80.382315 
L 94.949435 58.746498 
L 94.991645 76.952896 
L 95.051781 64.290619 
L 95.093769 76.844968 
L 95.11772 84.411113 
L 95.165538 66.610227 
L 95.189402 70.245935 
L 95.213239 72.724501 
L 95.254883 62.896201 
L 95.266764 59.978874 
L 95.320144 76.986461 
L 95.326067 77.681578 
L 95.349737 70.456988 
L 95.402894 60.785431 
L 95.444136 77.682566 
L 95.45002 77.720539 
L 95.590733 55.938957 
L 95.497037 85.783829 
L 95.608251 63.237508 
L 95.654889 80.023268 
L 95.718839 66.741719 
L 95.788362 55.179462 
L 95.817259 71.365554 
L 95.874923 84.691739 
L 95.915189 67.051407 
L 95.972568 61.718628 
L 95.995471 75.525562 
L 96.035491 82.323318 
L 96.098212 71.922583 
L 96.262619 60.671825 
L 96.273906 61.98266 
L 96.397645 90.106734 
L 96.442447 74.166039 
L 96.448041 74.266132 
L 96.459222 73.242654 
L 96.487148 59.886541 
L 96.542882 73.890968 
L 96.565132 73.446392 
L 96.587357 68.899084 
L 96.620644 59.848598 
L 96.681529 69.715607 
L 96.70914 84.222258 
L 96.775251 60.060123 
L 96.780751 59.299081 
L 96.813714 69.612493 
L 96.8521 83.55793 
L 96.934106 72.989106 
L 96.972259 63.472896 
L 97.010336 73.280591 
L 97.064607 66.102252 
L 97.221149 76.700654 
L 97.29092 73.359099 
L 97.317688 66.513317 
L 97.381783 71.313131 
L 97.397777 79.636721 
L 97.472231 59.887241 
L 97.482844 57.392059 
L 97.546407 73.799433 
L 97.562263 77.69999 
L 97.630835 67.060608 
L 97.646625 62.364744 
L 97.683419 79.871222 
L 97.714903 77.967236 
L 97.730625 74.535152 
L 97.762033 65.017267 
L 97.824696 75.784263 
L 97.850748 69.264037 
L 97.866363 75.224594 
L 97.923508 65.743623 
L 97.970141 72.586026 
L 97.990832 73.798725 
L 97.996002 73.571564 
" clip-path="url(#pe1ae171297)" style="fill: none; stroke: #c0c0c0; stroke-linecap: square"/>
   </g>
   <g id="line2d_2">
    <path d="M 98.001168 70.664893 
L 98.006335 70.636167 
L 98.063077 70.858478 
L 98.068226 70.846992 
L 98.206772 71.329009 
L 98.216997 71.322446 
L 98.435532 70.570616 
L 98.511196 70.774368 
L 98.661656 71.297153 
L 98.716539 71.19031 
L 98.885207 70.634983 
L 98.949316 70.761509 
L 99.111125 71.227523 
L 99.164765 71.133931 
L 99.329644 70.701033 
L 99.387505 70.794213 
L 99.550532 71.167138 
L 99.602989 71.089159 
L 99.768965 70.757655 
L 99.82084 70.831212 
L 99.984995 71.115491 
L 100.036303 71.047468 
L 100.198671 70.804245 
L 100.249427 70.865523 
L 100.41462 71.071422 
L 100.460261 71.019952 
L 100.628218 70.845586 
L 100.668856 70.886818 
L 100.848458 71.029967 
L 100.884183 70.993911 
L 101.070677 70.889293 
L 101.09276 70.910235 
L 101.303513 70.980359 
L 101.499061 70.943391 
L 101.74399 70.937968 
L 102.053276 70.962596 
L 102.815934 70.962246 
L 103.71685 70.932285 
L 103.943402 70.976334 
L 109.679641 70.948824 
L 165.790505 70.948824 
L 165.790505 70.948824 
" clip-path="url(#pe1ae171297)" style="fill: none; stroke: #808080; stroke-linecap: square"/>
   </g>
   <g id="line2d_3">
    <path d="M 57.377031 25.41395 
L 165.790668 25.41395 
" clip-path="url(#pe1ae171297)" style="fill: none; stroke-dasharray: 6.4,1.6,1,1.6; stroke-dashoffset: 0; stroke: #808080"/>
   </g>
   <g id="matplotlib.axis_1">
    <g id="xtick_1">
     <g id="line2d_4">
      <defs>
       <path id="m9a5dfd12b7" d="M 0 0 
L 0 6 
" style="stroke: #000000"/>
      </defs>
      <g>
       <use xlink:href="#m9a5dfd12b7" x="57.377031" y="116.483699" style="stroke: #000000"/>
      </g>
     </g>
     <g id="text_1">
      <!-- $\mathdefault{10^{1}}$ -->
      <g transform="translate(44.032031 140.014949)scale(0.17 -0.17)">
       <defs>
        <path id="ArialMT-31" d="M 2384 0 
L 1822 0 
L 1822 3584 
Q 1619 3391 1289 3197 
Q 959 3003 697 2906 
L 697 3450 
Q 1169 3672 1522 3987 
Q 1875 4303 2022 4600 
L 2384 4600 
L 2384 0 
z
" transform="scale(0.015625)"/>
        <path id="ArialMT-30" d="M 266 2259 
Q 266 3072 433 3567 
Q 600 4063 929 4331 
Q 1259 4600 1759 4600 
Q 2128 4600 2406 4451 
Q 2684 4303 2865 4023 
Q 3047 3744 3150 3342 
Q 3253 2941 3253 2259 
Q 3253 1453 3087 958 
Q 2922 463 2592 192 
Q 2263 -78 1759 -78 
Q 1097 -78 719 397 
Q 266 969 266 2259 
z
M 844 2259 
Q 844 1131 1108 757 
Q 1372 384 1759 384 
Q 2147 384 2411 759 
Q 2675 1134 2675 2259 
Q 2675 3391 2411 3762 
Q 2147 4134 1753 4134 
Q 1366 4134 1134 3806 
Q 844 3388 844 2259 
z
" transform="scale(0.015625)"/>
       </defs>
       <use xlink:href="#ArialMT-31" transform="translate(0 0.99375)"/>
       <use xlink:href="#ArialMT-30" transform="translate(55.615234 0.99375)"/>
       <use xlink:href="#ArialMT-31" transform="translate(112.972813 70.6875)scale(0.7)"/>
      </g>
     </g>
    </g>
    <g id="xtick_2">
     <g id="line2d_5">
      <g>
       <use xlink:href="#m9a5dfd12b7" x="102.588186" y="116.483699" style="stroke: #000000"/>
      </g>
     </g>
     <g id="text_2">
      <!-- $\mathdefault{10^{2}}$ -->
      <g transform="translate(89.243186 140.014949)scale(0.17 -0.17)">
       <defs>
        <path id="ArialMT-32" d="M 3222 541 
L 3222 0 
L 194 0 
Q 188 203 259 391 
Q 375 700 629 1000 
Q 884 1300 1366 1694 
Q 2113 2306 2375 2664 
Q 2638 3022 2638 3341 
Q 2638 3675 2398 3904 
Q 2159 4134 1775 4134 
Q 1369 4134 1125 3890 
Q 881 3647 878 3216 
L 300 3275 
Q 359 3922 746 4261 
Q 1134 4600 1788 4600 
Q 2447 4600 2831 4234 
Q 3216 3869 3216 3328 
Q 3216 3053 3103 2787 
Q 2991 2522 2730 2228 
Q 2469 1934 1863 1422 
Q 1356 997 1212 845 
Q 1069 694 975 541 
L 3222 541 
z
" transform="scale(0.015625)"/>
       </defs>
       <use xlink:href="#ArialMT-31" transform="translate(0 0.99375)"/>
       <use xlink:href="#ArialMT-30" transform="translate(55.615234 0.99375)"/>
       <use xlink:href="#ArialMT-32" transform="translate(112.972813 70.6875)scale(0.7)"/>
      </g>
     </g>
    </g>
    <g id="xtick_3">
     <g id="line2d_6">
      <g>
       <use xlink:href="#m9a5dfd12b7" x="147.79934" y="116.483699" style="stroke: #000000"/>
      </g>
     </g>
     <g id="text_3">
      <!-- $\mathdefault{10^{3}}$ -->
      <g transform="translate(134.45434 140.014949)scale(0.17 -0.17)">
       <defs>
        <path id="ArialMT-33" d="M 269 1209 
L 831 1284 
Q 928 806 1161 595 
Q 1394 384 1728 384 
Q 2125 384 2398 659 
Q 2672 934 2672 1341 
Q 2672 1728 2419 1979 
Q 2166 2231 1775 2231 
Q 1616 2231 1378 2169 
L 1441 2663 
Q 1497 2656 1531 2656 
Q 1891 2656 2178 2843 
Q 2466 3031 2466 3422 
Q 2466 3731 2256 3934 
Q 2047 4138 1716 4138 
Q 1388 4138 1169 3931 
Q 950 3725 888 3313 
L 325 3413 
Q 428 3978 793 4289 
Q 1159 4600 1703 4600 
Q 2078 4600 2393 4439 
Q 2709 4278 2876 4000 
Q 3044 3722 3044 3409 
Q 3044 3113 2884 2869 
Q 2725 2625 2413 2481 
Q 2819 2388 3044 2092 
Q 3269 1797 3269 1353 
Q 3269 753 2831 336 
Q 2394 -81 1725 -81 
Q 1122 -81 723 278 
Q 325 638 269 1209 
z
" transform="scale(0.015625)"/>
       </defs>
       <use xlink:href="#ArialMT-31" transform="translate(0 0.99375)"/>
       <use xlink:href="#ArialMT-30" transform="translate(55.615234 0.99375)"/>
       <use xlink:href="#ArialMT-33" transform="translate(112.972813 70.6875)scale(0.7)"/>
      </g>
     </g>
    </g>
    <g id="xtick_4">
     <g id="line2d_7">
      <defs>
       <path id="mc2d3b53b50" d="M 0 0 
L 0 3 
" style="stroke: #000000"/>
      </defs>
      <g>
       <use xlink:href="#mc2d3b53b50" x="70.986945" y="116.483699" style="stroke: #000000"/>
      </g>
     </g>
    </g>
    <g id="xtick_5">
     <g id="line2d_8">
      <g>
       <use xlink:href="#mc2d3b53b50" x="78.948234" y="116.483699" style="stroke: #000000"/>
      </g>
     </g>
    </g>
    <g id="xtick_6">
     <g id="line2d_9">
      <g>
       <use xlink:href="#mc2d3b53b50" x="84.596859" y="116.483699" style="stroke: #000000"/>
      </g>
     </g>
    </g>
    <g id="xtick_7">
     <g id="line2d_10">
      <g>
       <use xlink:href="#mc2d3b53b50" x="88.978272" y="116.483699" style="stroke: #000000"/>
      </g>
     </g>
    </g>
    <g id="xtick_8">
     <g id="line2d_11">
      <g>
       <use xlink:href="#mc2d3b53b50" x="92.558148" y="116.483699" style="stroke: #000000"/>
      </g>
     </g>
    </g>
    <g id="xtick_9">
     <g id="line2d_12">
      <g>
       <use xlink:href="#mc2d3b53b50" x="95.584889" y="116.483699" style="stroke: #000000"/>
      </g>
     </g>
    </g>
    <g id="xtick_10">
     <g id="line2d_13">
      <g>
       <use xlink:href="#mc2d3b53b50" x="98.206772" y="116.483699" style="stroke: #000000"/>
      </g>
     </g>
    </g>
    <g id="xtick_11">
     <g id="line2d_14">
      <g>
       <use xlink:href="#mc2d3b53b50" x="100.519437" y="116.483699" style="stroke: #000000"/>
      </g>
     </g>
    </g>
    <g id="xtick_12">
     <g id="line2d_15">
      <g>
       <use xlink:href="#mc2d3b53b50" x="116.198099" y="116.483699" style="stroke: #000000"/>
      </g>
     </g>
    </g>
    <g id="xtick_13">
     <g id="line2d_16">
      <g>
       <use xlink:href="#mc2d3b53b50" x="124.159389" y="116.483699" style="stroke: #000000"/>
      </g>
     </g>
    </g>
    <g id="xtick_14">
     <g id="line2d_17">
      <g>
       <use xlink:href="#mc2d3b53b50" x="129.808013" y="116.483699" style="stroke: #000000"/>
      </g>
     </g>
    </g>
    <g id="xtick_15">
     <g id="line2d_18">
      <g>
       <use xlink:href="#mc2d3b53b50" x="134.189427" y="116.483699" style="stroke: #000000"/>
      </g>
     </g>
    </g>
    <g id="xtick_16">
     <g id="line2d_19">
      <g>
       <use xlink:href="#mc2d3b53b50" x="137.769302" y="116.483699" style="stroke: #000000"/>
      </g>
     </g>
    </g>
    <g id="xtick_17">
     <g id="line2d_20">
      <g>
       <use xlink:href="#mc2d3b53b50" x="140.796044" y="116.483699" style="stroke: #000000"/>
      </g>
     </g>
    </g>
    <g id="xtick_18">
     <g id="line2d_21">
      <g>
       <use xlink:href="#mc2d3b53b50" x="143.417927" y="116.483699" style="stroke: #000000"/>
      </g>
     </g>
    </g>
    <g id="xtick_19">
     <g id="line2d_22">
      <g>
       <use xlink:href="#mc2d3b53b50" x="145.730591" y="116.483699" style="stroke: #000000"/>
      </g>
     </g>
    </g>
    <g id="xtick_20">
     <g id="line2d_23">
      <g>
       <use xlink:href="#mc2d3b53b50" x="161.409254" y="116.483699" style="stroke: #000000"/>
      </g>
     </g>
    </g>
    <g id="text_4">
     <!-- Time (ms) -->
     <g transform="translate(73.663224 159.769168)scale(0.17 -0.17)">
      <defs>
       <path id="ArialMT-54" d="M 1659 0 
L 1659 4041 
L 150 4041 
L 150 4581 
L 3781 4581 
L 3781 4041 
L 2266 4041 
L 2266 0 
L 1659 0 
z
" transform="scale(0.015625)"/>
       <path id="ArialMT-69" d="M 425 3934 
L 425 4581 
L 988 4581 
L 988 3934 
L 425 3934 
z
M 425 0 
L 425 3319 
L 988 3319 
L 988 0 
L 425 0 
z
" transform="scale(0.015625)"/>
       <path id="ArialMT-6d" d="M 422 0 
L 422 3319 
L 925 3319 
L 925 2853 
Q 1081 3097 1340 3245 
Q 1600 3394 1931 3394 
Q 2300 3394 2536 3241 
Q 2772 3088 2869 2813 
Q 3263 3394 3894 3394 
Q 4388 3394 4653 3120 
Q 4919 2847 4919 2278 
L 4919 0 
L 4359 0 
L 4359 2091 
Q 4359 2428 4304 2576 
Q 4250 2725 4106 2815 
Q 3963 2906 3769 2906 
Q 3419 2906 3187 2673 
Q 2956 2441 2956 1928 
L 2956 0 
L 2394 0 
L 2394 2156 
Q 2394 2531 2256 2718 
Q 2119 2906 1806 2906 
Q 1569 2906 1367 2781 
Q 1166 2656 1075 2415 
Q 984 2175 984 1722 
L 984 0 
L 422 0 
z
" transform="scale(0.015625)"/>
       <path id="ArialMT-65" d="M 2694 1069 
L 3275 997 
Q 3138 488 2766 206 
Q 2394 -75 1816 -75 
Q 1088 -75 661 373 
Q 234 822 234 1631 
Q 234 2469 665 2931 
Q 1097 3394 1784 3394 
Q 2450 3394 2872 2941 
Q 3294 2488 3294 1666 
Q 3294 1616 3291 1516 
L 816 1516 
Q 847 969 1125 678 
Q 1403 388 1819 388 
Q 2128 388 2347 550 
Q 2566 713 2694 1069 
z
M 847 1978 
L 2700 1978 
Q 2663 2397 2488 2606 
Q 2219 2931 1791 2931 
Q 1403 2931 1139 2672 
Q 875 2413 847 1978 
z
" transform="scale(0.015625)"/>
       <path id="ArialMT-20" transform="scale(0.015625)"/>
       <path id="ArialMT-28" d="M 1497 -1347 
Q 1031 -759 709 28 
Q 388 816 388 1659 
Q 388 2403 628 3084 
Q 909 3875 1497 4659 
L 1900 4659 
Q 1522 4009 1400 3731 
Q 1209 3300 1100 2831 
Q 966 2247 966 1656 
Q 966 153 1900 -1347 
L 1497 -1347 
z
" transform="scale(0.015625)"/>
       <path id="ArialMT-73" d="M 197 991 
L 753 1078 
Q 800 744 1014 566 
Q 1228 388 1613 388 
Q 2000 388 2187 545 
Q 2375 703 2375 916 
Q 2375 1106 2209 1216 
Q 2094 1291 1634 1406 
Q 1016 1563 777 1677 
Q 538 1791 414 1992 
Q 291 2194 291 2438 
Q 291 2659 392 2848 
Q 494 3038 669 3163 
Q 800 3259 1026 3326 
Q 1253 3394 1513 3394 
Q 1903 3394 2198 3281 
Q 2494 3169 2634 2976 
Q 2775 2784 2828 2463 
L 2278 2388 
Q 2241 2644 2061 2787 
Q 1881 2931 1553 2931 
Q 1166 2931 1000 2803 
Q 834 2675 834 2503 
Q 834 2394 903 2306 
Q 972 2216 1119 2156 
Q 1203 2125 1616 2013 
Q 2213 1853 2448 1751 
Q 2684 1650 2818 1456 
Q 2953 1263 2953 975 
Q 2953 694 2789 445 
Q 2625 197 2315 61 
Q 2006 -75 1616 -75 
Q 969 -75 630 194 
Q 291 463 197 991 
z
" transform="scale(0.015625)"/>
       <path id="ArialMT-29" d="M 791 -1347 
L 388 -1347 
Q 1322 153 1322 1656 
Q 1322 2244 1188 2822 
Q 1081 3291 891 3722 
Q 769 4003 388 4659 
L 791 4659 
Q 1378 3875 1659 3084 
Q 1900 2403 1900 1659 
Q 1900 816 1576 28 
Q 1253 -759 791 -1347 
z
" transform="scale(0.015625)"/>
      </defs>
      <use xlink:href="#ArialMT-54"/>
      <use xlink:href="#ArialMT-69" x="57.333984"/>
      <use xlink:href="#ArialMT-6d" x="79.550781"/>
      <use xlink:href="#ArialMT-65" x="162.851562"/>
      <use xlink:href="#ArialMT-20" x="218.466797"/>
      <use xlink:href="#ArialMT-28" x="246.25"/>
      <use xlink:href="#ArialMT-6d" x="279.550781"/>
      <use xlink:href="#ArialMT-73" x="362.851562"/>
      <use xlink:href="#ArialMT-29" x="412.851562"/>
     </g>
    </g>
   </g>
   <g id="matplotlib.axis_2">
    <g id="ytick_1">
     <g id="line2d_24">
      <defs>
       <path id="m737c3659f3" d="M 0 0 
L -6 0 
" style="stroke: #000000"/>
      </defs>
      <g>
       <use xlink:href="#m737c3659f3" x="57.377031" y="116.483699" style="stroke: #000000"/>
      </g>
     </g>
     <g id="text_5">
      <!-- 0.0 -->
      <g transform="translate(26.747031 122.567839)scale(0.17 -0.17)">
       <defs>
        <path id="ArialMT-2e" d="M 581 0 
L 581 641 
L 1222 641 
L 1222 0 
L 581 0 
z
" transform="scale(0.015625)"/>
       </defs>
       <use xlink:href="#ArialMT-30"/>
       <use xlink:href="#ArialMT-2e" x="55.615234"/>
       <use xlink:href="#ArialMT-30" x="83.398438"/>
      </g>
     </g>
    </g>
    <g id="ytick_2">
     <g id="line2d_25">
      <g>
       <use xlink:href="#m737c3659f3" x="57.377031" y="70.948824" style="stroke: #000000"/>
      </g>
     </g>
     <g id="text_6">
      <!-- 0.5 -->
      <g transform="translate(26.747031 77.032965)scale(0.17 -0.17)">
       <defs>
        <path id="ArialMT-35" d="M 266 1200 
L 856 1250 
Q 922 819 1161 601 
Q 1400 384 1738 384 
Q 2144 384 2425 690 
Q 2706 997 2706 1503 
Q 2706 1984 2436 2262 
Q 2166 2541 1728 2541 
Q 1456 2541 1237 2417 
Q 1019 2294 894 2097 
L 366 2166 
L 809 4519 
L 3088 4519 
L 3088 3981 
L 1259 3981 
L 1013 2750 
Q 1425 3038 1878 3038 
Q 2478 3038 2890 2622 
Q 3303 2206 3303 1553 
Q 3303 931 2941 478 
Q 2500 -78 1738 -78 
Q 1113 -78 717 272 
Q 322 622 266 1200 
z
" transform="scale(0.015625)"/>
       </defs>
       <use xlink:href="#ArialMT-30"/>
       <use xlink:href="#ArialMT-2e" x="55.615234"/>
       <use xlink:href="#ArialMT-35" x="83.398438"/>
      </g>
     </g>
    </g>
    <g id="ytick_3">
     <g id="line2d_26">
      <g>
       <use xlink:href="#m737c3659f3" x="57.377031" y="25.41395" style="stroke: #000000"/>
      </g>
     </g>
     <g id="text_7">
      <!-- 1.0 -->
      <g transform="translate(26.747031 31.49809)scale(0.17 -0.17)">
       <use xlink:href="#ArialMT-31"/>
       <use xlink:href="#ArialMT-2e" x="55.615234"/>
       <use xlink:href="#ArialMT-30" x="83.398438"/>
      </g>
     </g>
    </g>
    <g id="text_8">
     <!-- DR-NED -->
     <g transform="translate(19.368281 94.896224)rotate(-90)scale(0.17 -0.17)">
      <defs>
       <path id="ArialMT-44" d="M 494 0 
L 494 4581 
L 2072 4581 
Q 2606 4581 2888 4516 
Q 3281 4425 3559 4188 
Q 3922 3881 4101 3404 
Q 4281 2928 4281 2316 
Q 4281 1794 4159 1391 
Q 4038 988 3847 723 
Q 3656 459 3429 307 
Q 3203 156 2883 78 
Q 2563 0 2147 0 
L 494 0 
z
M 1100 541 
L 2078 541 
Q 2531 541 2789 625 
Q 3047 709 3200 863 
Q 3416 1078 3536 1442 
Q 3656 1806 3656 2325 
Q 3656 3044 3420 3430 
Q 3184 3816 2847 3947 
Q 2603 4041 2063 4041 
L 1100 4041 
L 1100 541 
z
" transform="scale(0.015625)"/>
       <path id="ArialMT-52" d="M 503 0 
L 503 4581 
L 2534 4581 
Q 3147 4581 3465 4457 
Q 3784 4334 3975 4021 
Q 4166 3709 4166 3331 
Q 4166 2844 3850 2509 
Q 3534 2175 2875 2084 
Q 3116 1969 3241 1856 
Q 3506 1613 3744 1247 
L 4541 0 
L 3778 0 
L 3172 953 
Q 2906 1366 2734 1584 
Q 2563 1803 2427 1890 
Q 2291 1978 2150 2013 
Q 2047 2034 1813 2034 
L 1109 2034 
L 1109 0 
L 503 0 
z
M 1109 2559 
L 2413 2559 
Q 2828 2559 3062 2645 
Q 3297 2731 3419 2920 
Q 3541 3109 3541 3331 
Q 3541 3656 3305 3865 
Q 3069 4075 2559 4075 
L 1109 4075 
L 1109 2559 
z
" transform="scale(0.015625)"/>
       <path id="ArialMT-2d" d="M 203 1375 
L 203 1941 
L 1931 1941 
L 1931 1375 
L 203 1375 
z
" transform="scale(0.015625)"/>
       <path id="ArialMT-4e" d="M 488 0 
L 488 4581 
L 1109 4581 
L 3516 984 
L 3516 4581 
L 4097 4581 
L 4097 0 
L 3475 0 
L 1069 3600 
L 1069 0 
L 488 0 
z
" transform="scale(0.015625)"/>
       <path id="ArialMT-45" d="M 506 0 
L 506 4581 
L 3819 4581 
L 3819 4041 
L 1113 4041 
L 1113 2638 
L 3647 2638 
L 3647 2100 
L 1113 2100 
L 1113 541 
L 3925 541 
L 3925 0 
L 506 0 
z
" transform="scale(0.015625)"/>
      </defs>
      <use xlink:href="#ArialMT-44"/>
      <use xlink:href="#ArialMT-52" x="72.216797"/>
      <use xlink:href="#ArialMT-2d" x="144.433594"/>
      <use xlink:href="#ArialMT-4e" x="177.734375"/>
      <use xlink:href="#ArialMT-45" x="249.951172"/>
      <use xlink:href="#ArialMT-44" x="316.650391"/>
     </g>
    </g>
   </g>
   <g id="line2d_27">
    <path d="M 54.987518 48.371422 
L 64.071109 66.739754 
L 70.257712 46.075383 
L 74.954977 30.768437 
L 78.742631 25.41395 
L 81.91645 25.41395 
L 84.647924 25.793684 
L 87.045406 26.559035 
L 89.181745 26.176365 
L 91.108284 25.41395 
L 92.862572 25.41395 
L 94.472895 25.41395 
L 95.961104 25.41395 
L 97.34442 28.855074 
" clip-path="url(#pe1ae171297)" style="fill: none; stroke: #ff0000; stroke-width: 1.5; stroke-linecap: square"/>
   </g>
   <g id="line2d_28">
    <path d="M 97.34442 28.855074 
L 98.636658 25.41395 
L 165.655211 25.41395 
L 165.655211 25.41395 
" clip-path="url(#pe1ae171297)" style="fill: none; stroke-dasharray: 5.55,2.4; stroke-dashoffset: 0; stroke: #ff0000; stroke-width: 1.5"/>
   </g>
   <g id="line2d_29">
    <path d="M 98.001169 116.483699 
L 98.001169 7.2 
" clip-path="url(#pe1ae171297)" style="fill: none; stroke-dasharray: 10,3; stroke-dashoffset: 5; stroke: #000000"/>
   </g>
   <g id="patch_3">
    <path d="M 57.377031 116.483699 
L 57.377031 7.2 
" style="fill: none; stroke: #000000; stroke-linejoin: miter; stroke-linecap: square"/>
   </g>
   <g id="patch_4">
    <path d="M 165.790668 116.483699 
L 165.790668 7.2 
" style="fill: none; stroke: #000000; stroke-linejoin: miter; stroke-linecap: square"/>
   </g>
   <g id="patch_5">
    <path d="M 57.377031 116.483699 
L 165.790668 116.483699 
" style="fill: none; stroke: #000000; stroke-linejoin: miter; stroke-linecap: square"/>
   </g>
   <g id="patch_6">
    <path d="M 57.377031 7.2 
L 165.790668 7.2 
" style="fill: none; stroke: #000000; stroke-linejoin: miter; stroke-linecap: square"/>
   </g>
  </g>
 </g>
 <defs>
  <clipPath id="pe1ae171297">
   <rect x="57.377031" y="7.2" width="108.413636" height="109.283699"/>
  </clipPath>
 </defs>
</svg>
