<?xml version="1.0" encoding="utf-8" standalone="no"?>
<!DOCTYPE svg PUBLIC "-//W3C//DTD SVG 1.1//EN"
  "http://www.w3.org/Graphics/SVG/1.1/DTD/svg11.dtd">
<svg xmlns:xlink="http://www.w3.org/1999/xlink" width="172.990668pt" height="170.547136pt" viewBox="0 0 172.990668 170.547136" xmlns="http://www.w3.org/2000/svg" version="1.1">
 <metadata>
  <rdf:RDF xmlns:dc="http://purl.org/dc/elements/1.1/" xmlns:cc="http://creativecommons.org/ns#" xmlns:rdf="http://www.w3.org/1999/02/22-rdf-syntax-ns#">
   <cc:Work>
    <dc:type rdf:resource="http://purl.org/dc/dcmitype/StillImage"/>
    <dc:date>2024-08-16T06:09:52.850081</dc:date>
    <dc:format>image/svg+xml</dc:format>
    <dc:creator>
     <cc:Agent>
      <dc:title>Matplotlib v3.5.3, https://matplotlib.org/</dc:title>
     </cc:Agent>
    </dc:creator>
   </cc:Work>
  </rdf:RDF>
 </metadata>
 <defs>
  <style type="text/css">*{stroke-linejoin: round; stroke-linecap: butt}</style>
 </defs>
 <g id="figure_1">
  <g id="patch_1">
   <path d="M 0 170.547136 
L 172.990668 170.547136 
L 172.990668 0 
L 0 0 
z
" style="fill: #ffffff"/>
  </g>
  <g id="axes_1">
   <g id="patch_2">
    <path d="M 57.377031 116.483699 
L 165.790668 116.483699 
L 165.790668 7.2 
L 57.377031 7.2 
z
" style="fill: #ffffff"/>
   </g>
   <g id="line2d_1">
    <path d="M 57.336083 76.974576 
L 57.417894 72.164707 
L 57.458672 74.265659 
L 57.580503 76.49925 
L 57.620947 75.911495 
L 57.781889 65.890841 
L 57.821921 66.952137 
L 57.86187 67.163961 
L 57.901737 64.58957 
L 57.941525 64.838897 
L 57.981231 67.507092 
L 58.020857 64.44429 
L 58.060405 59.208453 
L 58.099872 64.450039 
L 58.17857 64.009613 
L 58.256952 70.142224 
L 58.335024 66.774445 
L 58.373945 69.51826 
L 58.412785 72.763175 
L 58.490243 71.366686 
L 58.567393 69.241651 
L 58.605856 72.897169 
L 58.644243 70.26001 
L 58.797044 63.50426 
L 58.835059 63.475339 
L 58.873002 62.863485 
L 58.91087 59.899856 
L 58.948666 63.925308 
L 59.136562 81.284296 
L 59.248442 76.321026 
L 59.285596 77.222886 
L 59.322676 78.140509 
L 59.359689 77.393067 
L 59.433503 73.4702 
L 59.470309 76.338225 
L 59.507043 78.441596 
L 59.543711 76.354613 
L 59.580309 76.156734 
L 59.653302 69.531765 
L 59.689696 73.494901 
L 59.798477 77.380903 
L 59.834603 76.392038 
L 59.978449 73.206888 
L 60.121251 77.300788 
L 60.473772 55.492825 
L 60.50868 59.598304 
L 60.578306 68.088743 
L 60.647689 62.052195 
L 60.682287 61.845788 
L 60.785721 62.014702 
L 60.820076 58.807343 
L 60.922788 73.396366 
L 60.990967 60.404308 
L 61.024966 68.812217 
L 61.058907 64.360338 
L 61.092789 64.932414 
L 61.227739 85.831059 
L 61.261331 82.444431 
L 61.461689 63.068535 
L 61.528023 74.11005 
L 61.660024 84.051308 
L 61.725692 79.983384 
L 61.758445 90.445813 
L 61.823786 81.300703 
L 61.88891 83.257087 
L 62.050782 59.268043 
L 62.338831 79.230612 
L 62.370578 77.733762 
L 62.497051 54.524623 
L 62.528542 56.880485 
L 62.559982 65.10763 
L 62.622714 56.601281 
L 62.654005 64.815372 
L 62.685247 66.458248 
L 62.716438 62.052564 
L 62.747579 72.171807 
L 62.778672 76.76963 
L 62.809715 67.734875 
L 62.840709 68.795856 
L 62.871656 74.470638 
L 62.902552 69.470905 
L 63.025657 55.634186 
L 63.086919 72.218109 
L 63.178458 68.183997 
L 63.208876 68.163663 
L 63.269571 69.65486 
L 63.390402 77.182248 
L 63.420495 74.478127 
L 63.45054 74.80426 
L 63.480539 74.168036 
L 63.510495 67.145825 
L 63.600083 67.788272 
L 63.659584 77.492398 
L 63.718903 75.262078 
L 63.778044 71.782131 
L 63.925124 79.869015 
L 64.041999 69.241461 
L 64.071109 71.964144 
L 64.187121 81.088084 
L 64.129201 71.207936 
L 64.216018 79.048478 
L 64.302451 68.937971 
L 64.359865 69.419538 
L 64.417109 73.390222 
L 64.502664 72.928539 
L 64.644434 68.21953 
L 64.672665 68.541861 
L 64.729007 78.344076 
L 64.813217 75.09315 
L 64.869157 66.028347 
L 64.924938 60.326891 
L 64.98056 64.739931 
L 65.008313 63.82874 
L 65.036028 64.280517 
L 65.063702 66.657289 
L 65.091337 62.598014 
L 65.20149 56.822219 
L 65.146491 65.492581 
L 65.228934 59.031098 
L 65.392787 76.102784 
L 65.419963 75.779582 
L 65.447101 76.018476 
L 65.474202 78.267471 
L 65.501267 75.424665 
L 65.609152 68.147151 
L 65.63603 70.615198 
L 65.662872 76.260326 
L 65.743179 76.085375 
L 65.902814 64.051198 
L 66.061161 81.024813 
L 66.087429 82.949011 
L 66.11366 78.558964 
L 66.139858 81.075672 
L 66.166022 80.514865 
L 66.296313 70.455224 
L 66.425747 78.297058 
L 66.374074 70.163578 
L 66.451532 77.176972 
L 66.682081 65.121543 
L 66.73295 68.278985 
L 66.758333 64.186647 
L 66.809003 67.634899 
L 66.935113 47.680301 
L 66.960236 56.376462 
L 67.060416 73.403295 
L 67.085381 56.068174 
L 67.135215 76.181994 
L 67.160084 67.544134 
L 67.184923 68.998067 
L 67.283966 92.631747 
L 67.308647 91.722057 
L 67.407071 72.404771 
L 67.431598 74.082521 
L 67.456096 74.854715 
L 67.650985 52.844004 
L 67.867948 86.27921 
L 67.891908 84.425736 
L 67.91584 71.133133 
L 67.987454 73.290259 
L 68.035056 85.373855 
L 68.10624 83.309083 
L 68.224309 65.653977 
L 68.247839 69.096805 
L 68.27134 68.862818 
L 68.318255 76.980708 
L 68.341672 72.394018 
L 68.458338 53.779773 
L 68.620517 78.251211 
L 68.666608 70.940649 
L 68.712592 78.137336 
L 68.804236 84.575052 
L 68.963594 64.267077 
L 69.054079 56.828673 
L 69.076635 61.558713 
L 69.121669 60.469755 
L 69.256155 73.666405 
L 69.278479 66.682096 
L 69.367529 70.368747 
L 69.389727 70.404486 
L 69.411899 63.791796 
L 69.456174 74.154469 
L 69.500346 82.094406 
L 69.56642 77.651522 
L 69.632272 80.586048 
L 69.676053 70.451022 
L 69.719734 75.96322 
L 69.763318 71.64025 
L 69.806808 64.946061 
L 69.871858 66.603914 
L 69.979803 80.404234 
L 70.001322 74.89731 
L 70.022815 74.386998 
L 70.044286 76.755837 
L 70.087157 71.183865 
L 70.129936 75.014439 
L 70.278928 64.788714 
L 70.384663 75.511063 
L 70.342436 64.067955 
L 70.405742 70.566235 
L 70.489831 64.441745 
L 70.447832 70.939347 
L 70.510798 70.084522 
L 70.531741 71.051338 
L 70.552663 62.62268 
L 70.636126 69.483341 
L 70.656937 78.130969 
L 70.698494 63.380356 
L 70.739961 71.576403 
L 70.760661 69.193964 
L 70.801999 75.055006 
L 70.822635 76.405209 
L 70.863841 75.493739 
L 70.966481 69.211584 
L 70.986945 75.410403 
L 71.027808 65.003795 
L 71.048208 66.803399 
L 71.088944 61.020574 
L 71.129598 74.397705 
L 71.230861 74.309641 
L 71.271221 76.379789 
L 71.291369 76.196862 
L 71.311496 71.278385 
L 71.351691 77.385191 
L 71.391803 72.966688 
L 71.491728 82.424418 
L 71.511651 76.659728 
L 71.650555 63.290102 
L 71.690063 68.327963 
L 71.709786 61.719008 
L 71.749173 65.041711 
L 71.768838 60.738087 
L 71.8473 64.298712 
L 71.944938 77.572919 
L 71.983858 72.868791 
L 72.003288 66.82318 
L 72.042092 79.900946 
L 72.080821 76.710466 
L 72.100157 85.602218 
L 72.138768 76.43558 
L 72.177307 79.530256 
L 72.330705 62.652497 
L 72.387924 66.91789 
L 72.425974 69.879875 
L 72.444973 66.723806 
L 72.50186 67.539629 
L 72.520784 67.658305 
L 72.577451 66.434533 
L 72.633954 83.278596 
L 72.652753 87.934566 
L 72.690295 80.310668 
L 72.709041 80.387469 
L 72.858356 54.943184 
L 72.914058 65.585815 
L 72.988083 76.894733 
L 73.061828 75.08884 
L 73.135299 68.335253 
L 73.171931 73.290932 
L 73.190222 72.704447 
L 73.208495 75.207769 
L 73.226752 75.673184 
L 73.244992 73.472608 
L 73.29961 75.308869 
L 73.390303 63.867134 
L 73.408391 65.15688 
L 73.444517 61.740737 
L 73.498583 59.08393 
L 73.516573 62.546045 
L 73.659895 78.160889 
L 73.731164 83.616031 
L 73.748942 80.76812 
L 73.802176 69.060295 
L 73.837587 81.656583 
L 73.872933 78.077593 
L 74.031211 59.823167 
L 74.048718 63.833805 
L 74.118594 78.696783 
L 74.170836 73.566684 
L 74.18822 69.724259 
L 74.240279 76.89808 
L 74.257602 79.142573 
L 74.292201 71.786469 
L 74.41282 60.807144 
L 74.447146 67.726592 
L 74.464288 69.717702 
L 74.515621 64.771892 
L 74.532701 60.003817 
L 74.583858 69.644547 
L 74.617887 66.889398 
L 74.702703 64.750407 
L 74.66882 69.497476 
L 74.719622 65.10604 
L 74.837652 81.02934 
L 74.904779 73.868811 
L 74.938259 64.779665 
L 75.005043 71.973035 
L 75.021705 72.587475 
L 75.038352 70.072016 
L 75.071603 72.090468 
L 75.088208 70.838654 
L 75.121375 72.946424 
L 75.154485 80.951093 
L 75.220541 74.671945 
L 75.3028 63.384579 
L 75.335605 69.859405 
L 75.417385 82.792473 
L 75.466289 76.31363 
L 75.482562 77.165838 
L 75.498823 72.674893 
L 75.547527 61.235216 
L 75.628428 68.021912 
L 75.741134 72.622492 
L 75.660696 67.802868 
L 75.757182 69.520507 
L 75.805248 62.439501 
L 75.869154 66.932199 
L 75.932851 72.78004 
L 75.980491 69.488221 
L 76.012184 64.382729 
L 76.091199 65.97767 
L 76.263918 81.458641 
L 76.279546 76.726658 
L 76.341927 68.287409 
L 76.388586 74.639498 
L 76.404113 75.134828 
L 76.435133 84.448866 
L 76.512466 76.949984 
L 76.650903 65.195437 
L 76.71212 74.587306 
L 76.742656 63.990093 
L 76.757906 63.803668 
L 76.818789 72.833855 
L 76.879485 67.684784 
L 76.894629 62.7639 
L 76.955092 73.922883 
L 76.970178 73.793942 
L 77.060454 61.734668 
L 77.105436 65.849798 
L 77.135367 67.277041 
L 77.180179 65.874518 
L 77.209996 60.517111 
L 77.254639 73.800524 
L 77.299179 73.521331 
L 77.34362 75.053286 
L 77.37319 80.944533 
L 77.432199 71.344908 
L 77.578948 80.017039 
L 77.608165 77.311737 
L 77.75361 66.478354 
L 77.768096 66.618917 
L 77.825932 75.380287 
L 77.869196 68.530375 
L 77.941093 64.974477 
L 77.912365 70.040853 
L 77.984104 67.598155 
L 78.055582 76.195244 
L 78.126801 71.970516 
L 78.268469 63.228508 
L 78.282579 62.889877 
L 78.45112 77.738267 
L 78.4651 77.567784 
L 78.576583 70.092301 
L 78.590474 71.009547 
L 78.618227 73.394225 
L 78.645941 68.455401 
L 78.673615 70.161711 
L 78.687437 68.793565 
L 78.728846 73.404061 
L 78.742631 74.803538 
L 78.797668 70.815742 
L 78.811404 71.171106 
L 78.838847 69.459761 
L 78.879938 73.423719 
L 78.907285 77.529896 
L 78.975485 74.788521 
L 79.124699 63.539494 
L 79.138208 65.083328 
L 79.19215 70.598229 
L 79.232509 67.284548 
L 79.259369 63.830684 
L 79.312981 74.383752 
L 79.406449 66.934213 
L 79.47294 72.283964 
L 79.57886 76.5886 
L 79.499475 71.033395 
L 79.605252 72.763327 
L 79.644772 68.140963 
L 79.671075 73.573936 
L 79.697343 72.700949 
L 79.775935 78.589227 
L 79.749772 71.366819 
L 79.815113 75.435894 
L 79.880238 66.614537 
L 79.945146 68.820006 
L 79.971051 74.154851 
L 80.03566 68.684513 
L 80.048556 69.547556 
L 80.100058 67.568018 
L 80.151426 67.864967 
L 80.26651 76.218293 
L 80.279258 73.987864 
L 80.393597 68.429085 
L 80.519869 77.458748 
L 80.532453 76.501999 
L 80.620305 60.564922 
L 80.670329 69.847257 
L 80.757567 73.235019 
L 80.707765 67.822611 
L 80.769998 72.467084 
L 80.807246 66.291077 
L 80.869167 71.247776 
L 80.943213 69.324854 
L 81.004707 76.500941 
L 81.078247 67.836333 
L 81.127119 73.111924 
L 81.13932 73.260027 
L 81.200205 61.147502 
L 81.260899 70.703411 
L 81.381731 75.91023 
L 81.417834 75.200376 
L 81.429853 70.967584 
L 81.501822 80.636199 
L 81.51379 76.286384 
L 81.537707 77.744762 
L 81.561594 73.806359 
L 81.573524 74.572506 
L 81.644969 76.357615 
L 81.704308 64.255243 
L 81.775276 69.849748 
L 81.798876 63.709977 
L 81.869506 59.546357 
L 81.91645 62.877864 
L 82.044976 78.67883 
L 82.056619 77.242281 
L 82.114727 73.295883 
L 82.091503 79.352521 
L 82.172665 74.85269 
L 82.299527 71.643479 
L 82.218891 77.831043 
L 82.311021 71.78351 
L 82.322506 72.365511 
L 82.345458 70.791185 
L 82.368384 64.052696 
L 82.436995 75.314978 
L 82.448409 72.376637 
L 82.516744 77.404494 
L 82.562169 74.908161 
L 82.776513 58.853927 
L 82.932968 76.679522 
L 82.944095 75.345286 
L 82.955218 71.675012 
L 83.01073 77.052167 
L 83.055027 75.053332 
L 83.099226 72.387506 
L 83.154335 75.406641 
L 83.176334 77.777043 
L 83.242186 71.511105 
L 83.253141 71.325814 
L 83.264088 73.586027 
L 83.329648 69.452025 
L 83.362345 71.226763 
L 83.384114 65.302567 
L 83.460113 68.154435 
L 83.481772 72.694975 
L 83.557396 66.46924 
L 83.57895 63.271217 
L 83.632728 70.166287 
L 83.643466 69.266696 
L 83.69707 70.275079 
L 83.675648 66.889479 
L 83.707775 67.663424 
L 83.718471 65.617184 
L 83.793189 72.208732 
L 83.80384 70.919827 
L 83.83576 77.65837 
L 83.846387 76.581468 
L 83.867626 79.582947 
L 83.910033 69.021126 
L 83.92062 66.298079 
L 83.973474 76.888038 
L 83.994576 72.410956 
L 84.089252 79.855086 
L 84.026186 71.490136 
L 84.099745 76.501619 
L 84.141654 66.076452 
L 84.225208 68.495862 
L 84.24604 66.266042 
L 84.308408 72.103444 
L 84.318782 72.976445 
L 84.339517 67.864978 
L 84.380918 70.106962 
L 84.411913 63.443274 
L 84.494325 68.622431 
L 84.658122 77.784113 
L 84.545659 66.943566 
L 84.668314 75.735752 
L 84.719195 70.132529 
L 84.780079 74.396438 
L 84.790207 74.638926 
L 84.81045 80.996937 
L 84.891211 70.658981 
L 84.921409 67.936456 
L 84.951563 72.828077 
L 84.991697 70.298105 
L 85.011733 72.622397 
L 85.041748 67.409808 
L 85.081697 63.262793 
L 85.121564 69.383652 
L 85.141469 68.631057 
L 85.25058 75.761042 
L 85.201059 67.654712 
L 85.260469 74.204972 
L 85.388576 66.343421 
L 85.54511 77.083124 
L 85.593772 74.131214 
L 85.71007 64.923582 
L 85.661696 75.056667 
L 85.748681 67.00092 
L 85.892809 73.839124 
L 85.911947 70.956877 
L 85.95971 71.029805 
L 86.04539 64.018781 
L 86.092829 78.52893 
L 86.187364 76.734496 
L 86.290829 69.542323 
L 86.328319 72.678986 
L 86.33768 76.945348 
L 86.431046 71.51152 
L 86.440359 72.7526 
L 86.477564 65.658194 
L 86.49614 61.199107 
L 86.588758 63.63199 
L 86.61646 67.981814 
L 86.736045 78.169525 
L 86.745213 77.699016 
L 86.873129 68.013574 
L 86.891335 70.07441 
L 86.954922 79.324628 
L 87.009263 72.054146 
L 87.045406 74.024678 
L 87.07247 68.68523 
L 87.189318 64.803028 
L 87.198277 63.730577 
L 87.234075 68.853932 
L 87.269809 68.025521 
L 87.358856 74.830342 
L 87.403229 70.487532 
L 87.41209 67.986992 
L 87.491674 73.799829 
L 87.500497 72.248287 
L 87.562144 80.512238 
L 87.588506 71.614664 
L 87.606061 67.120085 
L 87.64988 72.297429 
L 87.702333 70.588751 
L 87.728507 72.323831 
L 87.789444 68.921296 
L 87.798134 68.304014 
L 87.850193 72.260837 
L 87.867516 70.886802 
L 87.876172 70.848153 
L 87.945278 65.586874 
L 87.988347 70.702054 
L 88.022734 74.33441 
L 88.065633 70.022619 
L 88.10844 73.234153 
L 88.2278 67.857058 
L 88.193771 75.216891 
L 88.244793 69.460195 
L 88.380207 75.297065 
L 88.388639 73.464419 
L 88.506315 65.052366 
L 88.514693 67.716609 
L 88.74785 74.017993 
L 88.53144 67.068414 
L 88.780934 73.196213 
L 88.822211 69.924858 
L 88.879851 74.914726 
L 88.888071 76.616545 
L 88.953713 67.76067 
L 88.961902 67.753537 
L 88.978272 66.388127 
L 89.027298 70.832384 
L 89.068059 74.273131 
L 89.100609 69.102445 
L 89.141219 71.75499 
L 89.189839 69.230719 
L 89.230266 73.716995 
L 89.254483 71.345527 
L 89.294775 67.202186 
L 89.343019 73.056397 
L 89.359074 71.92172 
L 89.439151 74.756106 
L 89.399152 69.257968 
L 89.46311 72.048069 
L 89.574538 67.991248 
L 89.534815 72.272109 
L 89.582472 68.030613 
L 89.693226 73.793495 
L 89.653743 66.929029 
L 89.708998 72.764825 
L 89.748369 68.792132 
L 89.77981 73.714916 
L 89.787663 73.709632 
L 89.795512 75.381346 
L 89.83471 66.050961 
L 89.881648 73.538842 
L 89.944054 76.013539 
L 90.006265 67.943909 
L 90.037297 73.28786 
L 90.091483 67.698832 
L 90.11466 69.040157 
L 90.14552 67.068349 
L 90.130097 69.734649 
L 90.168634 68.629352 
L 90.245484 67.882972 
L 90.299098 75.497466 
L 90.405894 68.916552 
L 90.428703 71.189637 
L 90.496972 75.356786 
L 90.549908 74.07776 
L 90.670367 68.059453 
L 90.700367 72.570159 
L 90.752758 64.290711 
L 90.76023 64.390486 
L 90.871983 74.241794 
L 90.901676 72.618796 
L 90.99049 67.223975 
L 90.953533 74.096384 
L 90.997871 71.31413 
L 91.049475 77.892294 
L 91.100943 72.359047 
L 91.122959 75.399378 
L 91.232672 65.350883 
L 91.239966 65.434564 
L 91.261827 39.417732 
L 91.305475 93.089459 
L 91.341776 72.87874 
L 91.349029 78.653941 
L 91.421402 59.008994 
L 91.450277 75.812712 
L 91.522278 73.244312 
L 91.543829 80.856645 
L 91.586856 61.775368 
L 91.67976 74.908644 
L 91.701138 80.08912 
L 91.75803 67.647932 
L 91.772228 69.660126 
L 91.786414 70.088963 
L 91.828914 66.697577 
L 91.885439 50.672422 
L 91.899543 75.157976 
L 91.920683 82.137047 
L 91.990984 65.23579 
L 91.998 65.271502 
L 92.088985 80.19618 
L 92.033044 62.652524 
L 92.123866 75.265739 
L 92.151726 65.089745 
L 92.235072 70.872135 
L 92.262777 73.451753 
L 92.283529 69.995571 
L 92.393837 63.185946 
L 92.33876 71.703873 
L 92.400711 65.484894 
L 92.524029 80.014064 
L 92.599011 72.530181 
L 92.612614 68.978417 
L 92.673707 75.104121 
L 92.707567 70.019835 
L 92.714332 71.783317 
L 92.748122 64.790771 
L 92.815526 71.624331 
L 92.835703 64.885965 
L 92.889404 73.775568 
L 92.922894 71.127504 
L 92.969683 64.440643 
L 93.049636 74.599085 
L 93.056284 74.598361 
L 93.155735 66.5505 
L 93.122641 75.749892 
L 93.175566 69.806974 
L 93.234935 76.155266 
L 93.280988 71.234078 
L 93.340041 66.336901 
L 93.392384 70.770758 
L 93.431548 71.227032 
L 93.418502 68.521614 
L 93.438068 69.086188 
L 93.503148 66.534113 
L 93.451103 70.179478 
L 93.509647 68.708794 
L 93.600367 76.136484 
L 93.626212 74.609062 
L 93.690673 68.594438 
L 93.742092 73.605813 
L 93.793375 65.888707 
L 93.901908 70.163752 
L 93.965473 68.502213 
L 94.022506 73.901526 
L 94.161223 68.150853 
L 94.060435 80.557875 
L 94.167506 68.871129 
L 94.21769 74.526535 
L 94.236479 67.106281 
L 94.286486 70.346535 
L 94.355043 67.545285 
L 94.336369 72.593395 
L 94.386127 70.863303 
L 94.410956 74.4311 
L 94.44195 69.689953 
L 94.491441 73.097854 
L 94.553126 77.179995 
L 94.614621 66.371881 
L 94.620758 66.391276 
L 94.730932 78.328517 
L 94.663679 64.561941 
L 94.749234 73.520848 
L 94.797955 66.25911 
L 94.870812 67.496404 
L 95.01572 78.992171 
L 94.888984 67.078733 
L 95.057785 73.217814 
L 95.111736 63.696 
L 95.081782 74.191006 
L 95.195364 67.745302 
L 95.213239 67.622419 
L 95.207282 68.068192 
L 95.219192 67.719964 
L 95.302367 76.318936 
L 95.343823 73.36871 
L 95.379287 67.831746 
L 95.438249 73.090993 
L 95.45002 75.138258 
L 95.473543 68.192547 
L 95.532225 69.372047 
L 95.619921 73.744883 
L 95.584889 69.172974 
L 95.649065 70.140004 
L 95.747837 66.822821 
L 95.718839 72.575693 
L 95.759423 68.681316 
L 95.805706 74.72633 
L 95.897942 73.900975 
L 95.9439 67.680229 
L 95.915189 74.142755 
L 96.024064 71.4267 
L 96.172082 67.16826 
L 96.064027 74.771769 
L 96.177754 67.534825 
L 96.22306 75.31357 
L 96.290825 69.463142 
L 96.380817 73.843966 
L 96.425658 72.073579 
L 96.537317 66.376744 
L 96.470397 74.571043 
L 96.559571 68.013064 
L 96.687053 72.783148 
L 96.692577 72.779402 
L 96.70362 73.198246 
L 96.720173 70.684309 
L 96.819201 69.494626 
L 96.76975 76.000666 
L 96.824689 70.346351 
L 96.830175 71.080363 
L 96.857578 66.87193 
L 96.928649 69.916493 
L 96.955917 68.635611 
L 96.939561 70.265737 
L 96.983145 69.392875 
L 97.037491 75.36451 
L 97.097097 70.912646 
L 97.178091 68.667116 
L 97.151129 73.989715 
L 97.194247 71.029867 
L 97.221149 74.266951 
L 97.280201 67.823653 
L 97.296275 70.578329 
L 97.323036 66.95262 
L 97.381783 72.645847 
L 97.40843 70.28879 
L 97.419079 69.191185 
L 97.466922 73.71778 
L 97.47754 73.427424 
L 97.48815 75.69006 
L 97.51465 69.670852 
L 97.572829 70.158362 
L 97.672913 67.108311 
L 97.60449 74.046003 
L 97.683419 68.664603 
L 97.693919 72.728841 
L 97.741099 66.798574 
L 97.79861 70.675619 
L 97.876765 72.311572 
L 97.840333 69.16868 
L 97.907939 71.316247 
L 97.913131 70.66518 
L 97.970141 76.452917 
L 97.975316 76.848018 
L 97.996002 74.687787 
L 97.996002 74.687787 
" clip-path="url(#p0ad2354952)" style="fill: none; stroke: #c0c0c0; stroke-linecap: square"/>
   </g>
   <g id="line2d_2">
    <path d="M 98.001168 72.834859 
L 98.042463 65.192592 
L 98.119654 71.269082 
L 98.150446 71.911379 
L 98.242533 68.533333 
L 98.318944 76.109531 
L 98.374789 72.606257 
L 98.445638 67.021145 
L 98.491049 68.719596 
L 98.621647 74.714372 
L 98.531323 66.553204 
L 98.636658 72.125852 
L 98.671646 70.006378 
L 98.731478 73.93786 
L 98.741433 71.83428 
L 98.766297 75.884712 
L 98.815931 67.252065 
L 98.825842 64.847317 
L 98.90989 72.378121 
L 98.919754 69.576483 
L 98.959161 71.869512 
L 98.934541 68.77714 
L 98.973919 69.132588 
L 98.988665 65.698113 
L 99.047541 76.625987 
L 99.081804 70.091232 
L 99.120888 68.311348 
L 99.159894 71.621446 
L 99.179369 72.61932 
L 99.237676 68.945951 
L 99.247378 69.201075 
L 99.286132 67.196904 
L 99.324814 72.133516 
L 99.329644 71.556634 
L 99.401946 73.584309 
L 99.421181 70.17811 
L 99.531424 68.071666 
L 99.48836 72.69365 
L 99.536204 68.480245 
L 99.545758 68.086317 
L 99.555307 70.08937 
L 99.61251 75.018602 
L 99.64105 65.359492 
L 99.655304 56.261743 
L 99.683781 87.93795 
L 99.74534 67.119319 
L 99.787844 75.685647 
L 99.881972 69.958969 
L 99.89136 64.617395 
L 99.961627 74.112639 
L 99.989663 70.163866 
L 100.073534 75.985966 
L 100.026985 69.724612 
L 100.096769 70.553647 
L 100.157049 59.533427 
L 100.124613 74.005658 
L 100.212526 65.968122 
L 100.304646 73.871883 
L 100.327607 69.675395 
L 100.405478 75.00555 
L 100.350542 69.447037 
L 100.460261 71.410372 
L 100.483043 67.103371 
L 100.523982 71.768537 
L 100.578435 68.61443 
L 100.592025 65.977583 
L 100.668856 72.703142 
L 100.704909 74.756839 
L 100.731904 70.674506 
L 100.781299 73.096568 
L 100.785784 73.410892 
L 100.817147 68.364365 
L 100.919844 66.181911 
L 100.884183 72.807878 
L 100.928748 67.797516 
L 101.057414 73.818019 
L 101.19842 67.057997 
L 101.075096 74.301846 
L 101.215975 68.08807 
L 101.316612 75.403889 
L 101.264169 66.211912 
L 101.33406 72.128514 
L 101.438433 63.820555 
L 101.403704 78.806348 
L 101.447105 69.407976 
L 101.4731 75.09384 
L 101.499061 68.298933 
L 101.559503 71.738972 
L 101.628352 65.556264 
L 101.576737 74.095991 
L 101.658398 71.53529 
L 101.684115 74.684381 
L 101.714075 69.36759 
L 101.765331 72.068115 
L 101.803685 67.309903 
L 101.833463 73.047372 
L 101.875927 71.123172 
L 101.964802 74.254472 
L 101.918297 67.651194 
L 101.990121 72.421335 
L 102.078481 68.185441 
L 102.107846 70.004136 
L 102.237369 75.591824 
L 102.187332 69.265122 
L 102.241532 74.856783 
L 102.274811 68.122566 
L 102.357764 70.635846 
L 102.378448 73.750702 
L 102.44449 66.641672 
L 102.452729 59.824459 
L 102.477427 79.556086 
L 102.551336 70.964962 
L 102.612714 76.189819 
L 102.645372 70.087421 
L 102.653527 71.268837 
L 102.726777 66.750208 
L 102.706458 73.216251 
L 102.771406 68.983573 
L 102.856327 72.692481 
L 102.896636 72.149988 
L 102.900663 72.16209 
L 102.98503 68.07774 
L 102.928826 73.28621 
L 103.01307 71.459293 
L 103.049064 67.262298 
L 103.081005 71.994683 
L 103.124837 70.474391 
L 103.212209 74.66792 
L 103.164601 69.556632 
L 103.23597 73.066189 
L 103.30314 66.635641 
L 103.322851 74.071526 
L 103.350414 71.252593 
L 103.37401 67.40451 
L 103.401501 72.473804 
L 103.472019 69.162465 
L 103.491562 74.440957 
L 103.585097 70.783971 
L 103.643334 71.747019 
L 103.709125 67.250138 
L 103.801634 74.512427 
L 103.843888 70.590754 
L 103.855398 68.521527 
L 103.893709 72.264637 
L 103.954854 70.57542 
L 103.962483 69.678978 
L 104.004394 71.884651 
L 104.019611 74.21042 
L 104.057604 67.446997 
L 104.110672 71.103346 
L 104.171144 66.710328 
L 104.137152 74.971106 
L 104.220143 71.059695 
L 104.265265 72.750511 
L 104.246476 68.930442 
L 104.31028 70.327781 
L 104.317773 69.075923 
L 104.347717 72.903116 
L 104.411193 71.70973 
L 104.504171 74.031349 
L 104.448438 68.2897 
L 104.515299 71.18881 
L 104.556046 67.32667 
L 104.615166 72.955188 
L 104.618856 73.202618 
L 104.644659 70.144156 
L 104.692491 71.182681 
L 104.76219 68.900463 
L 104.787806 73.607471 
L 104.802429 70.992771 
L 104.846233 69.310996 
L 104.864455 71.785565 
L 104.911756 70.61434 
L 104.991542 73.424145 
L 104.973438 70.319964 
L 105.006015 70.35388 
L 105.013248 67.02241 
L 105.11062 71.938941 
L 105.114217 71.396611 
L 105.200351 67.886989 
L 105.157332 74.924263 
L 105.218247 72.863666 
L 105.225403 73.805952 
L 105.268274 69.46875 
L 105.30749 70.142457 
L 105.311051 69.950088 
L 105.385689 71.765923 
L 105.403419 73.069324 
L 105.445902 69.264411 
L 105.449439 69.125569 
L 105.460044 72.582772 
L 105.498879 71.485272 
L 105.586857 73.34358 
L 105.544677 69.105333 
L 105.604405 70.797964 
L 105.614927 72.210271 
L 105.670947 70.181291 
L 105.723321 71.988505 
L 105.841521 69.339966 
L 105.80683 72.1637 
L 105.851916 70.334349 
L 105.945226 73.868626 
L 105.910719 69.325489 
L 105.962458 70.44554 
L 106.079231 68.319512 
L 106.017495 72.961539 
L 106.089501 69.026836 
L 106.133943 73.472193 
L 106.202119 69.894558 
L 106.222528 72.557631 
L 106.310713 69.619105 
L 106.347904 68.649545 
L 106.385024 71.380294 
L 106.418709 69.71451 
L 106.445616 72.883471 
L 106.526115 68.859181 
L 106.532808 68.477863 
L 106.592946 72.200774 
L 106.606285 71.104339 
L 106.669522 73.170502 
L 106.649573 68.927234 
L 106.692768 70.531517 
L 106.798688 69.331878 
L 106.755727 72.33424 
L 106.801989 69.437331 
L 106.861309 72.616367 
L 106.890902 68.473471 
L 106.91717 70.965359 
L 106.963054 69.441994 
L 106.940125 72.88792 
L 107.02189 70.767626 
L 107.113062 72.815057 
L 107.070785 69.420151 
L 107.129301 70.924045 
L 107.158493 68.174254 
L 107.203815 73.084449 
L 107.239354 70.181779 
L 107.342375 73.114663 
L 107.319885 70.099124 
L 107.355214 71.360907 
L 107.422485 68.63541 
L 107.454438 72.575338 
L 107.46082 73.050285 
L 107.479963 68.342218 
L 107.553161 71.298405 
L 107.610258 67.646852 
L 107.575387 74.328743 
L 107.641906 72.9072 
L 107.648231 72.683958 
L 107.651391 72.978524 
L 107.739696 73.354176 
L 107.714509 67.938665 
L 107.745989 72.076347 
L 107.77742 68.920579 
L 107.824472 73.328291 
L 107.862033 70.313635 
L 107.871412 71.885872 
L 107.88391 69.914257 
L 107.968068 70.043149 
L 108.005354 67.624308 
L 108.054962 73.684825 
L 108.076625 69.993096 
L 108.088995 69.374663 
L 108.116795 74.389531 
L 108.119881 74.979327 
L 108.190736 67.311705 
L 108.193813 67.022763 
L 108.218393 72.345107 
L 108.252144 71.260641 
L 108.328636 74.039787 
L 108.304191 69.252686 
L 108.353048 69.537764 
L 108.359148 69.069485 
L 108.432185 72.519102 
L 108.447368 71.565824 
L 108.459505 72.63539 
L 108.477696 68.082284 
L 108.556332 71.551016 
L 108.571419 69.611315 
L 108.628643 72.355448 
L 108.670699 70.571018 
L 108.742589 71.619503 
L 108.727633 68.868018 
L 108.769481 69.266962 
L 108.778436 68.842718 
L 108.811239 72.421234 
L 108.84101 72.0846 
L 108.843985 72.46041 
L 108.933019 69.825338 
L 108.938941 69.036325 
L 109.0246 72.831496 
L 109.109885 73.355747 
L 109.174338 69.734367 
L 109.253154 72.946856 
L 109.229834 69.392115 
L 109.288079 70.475677 
L 109.311331 70.078019 
L 109.340356 71.893626 
L 109.392492 70.727338 
L 109.484836 75.935083 
L 109.470437 68.758635 
L 109.490594 70.293757 
L 109.496348 63.253179 
L 109.513607 78.651678 
L 109.599662 70.662244 
L 109.645404 68.384292 
L 109.66253 71.923772 
L 109.702434 70.965872 
L 109.753618 73.702757 
L 109.739413 69.761529 
L 109.793335 71.399404 
L 109.903557 68.443605 
L 109.872532 72.808144 
L 109.909193 69.094759 
L 110.018768 72.98687 
L 110.029974 70.911554 
L 110.03837 69.39979 
L 110.130521 72.738843 
L 110.133306 72.686746 
L 110.180603 69.069686 
L 110.138878 72.854658 
L 110.277621 71.555575 
L 110.294205 71.987431 
L 110.332846 69.75228 
L 110.371409 70.330234 
L 110.426371 69.415971 
L 110.453794 73.136804 
L 110.483916 69.449545 
L 110.503059 72.796077 
L 110.598501 70.635222 
L 110.612098 67.929079 
L 110.658257 74.331997 
L 110.698894 72.391472 
L 110.701599 72.428204 
L 110.709717 71.538547 
L 110.731344 69.751037 
L 110.744849 72.178117 
L 110.820308 71.213771 
L 110.895475 69.07481 
L 110.871345 71.6452 
L 110.916897 70.573726 
L 110.930276 74.104909 
L 111.023667 69.108612 
L 111.042293 68.870331 
L 111.05293 71.274214 
L 111.158964 73.332333 
L 111.087453 69.375884 
L 111.166893 72.439118 
L 111.272316 69.352212 
L 111.282826 69.971519 
L 111.335299 72.068861 
L 111.290708 69.956423 
L 111.403304 70.817175 
L 111.486678 69.786347 
L 111.445035 71.499695 
L 111.507468 70.888045 
L 111.572292 72.527792 
L 111.551571 69.909355 
L 111.613665 70.664323 
L 111.680714 69.929825 
L 111.714152 71.787416 
L 111.721861 70.949658 
L 111.729568 69.785848 
L 111.796222 72.614168 
L 111.83202 70.695231 
L 111.93394 72.069486 
L 111.860101 69.256177 
L 111.941562 71.13963 
L 111.989773 69.012028 
L 112.02522 72.641187 
L 112.050499 71.591046 
L 112.118591 69.888397 
L 112.080792 72.262571 
L 112.156321 70.987685 
L 112.166369 72.929309 
L 112.204006 69.340444 
L 112.269071 71.754974 
L 112.34886 68.576683 
L 112.366267 72.330378 
L 112.368755 72.469575 
L 112.398561 70.11562 
L 112.455564 71.330808 
L 112.549382 70.036744 
L 112.517336 71.751321 
L 112.573996 70.563836 
L 112.645205 72.277667 
L 112.608403 70.122009 
L 112.686826 71.005796 
L 112.738121 71.314825 
L 112.703939 69.886964 
L 112.772244 70.638316 
L 112.777113 70.069128 
L 112.823315 72.365997 
L 112.876679 71.228215 
L 112.949213 71.629697 
L 112.900886 70.150708 
L 112.980562 70.96515 
L 113.067111 69.912731 
L 113.026289 72.368508 
L 113.083897 71.005579 
L 113.098273 72.133337 
L 113.184306 69.661244 
L 113.248587 67.52139 
L 113.215283 72.219901 
L 113.250963 68.917632 
L 113.260468 77.530371 
L 113.284207 65.959887 
L 113.35998 68.521988 
L 113.400117 72.374834 
L 113.482494 70.501466 
L 113.538782 72.754829 
L 113.57154 68.278578 
L 113.709004 72.781101 
L 113.722929 69.966079 
L 113.72525 69.622183 
L 113.753067 71.330377 
L 113.82475 71.078322 
L 113.857035 72.068009 
L 113.877763 70.291151 
L 113.932932 70.94192 
L 114.010819 69.479861 
L 113.981075 71.8018 
L 114.019963 71.501258 
L 114.029102 72.160394 
L 114.095232 69.845107 
L 114.127077 70.88025 
L 114.12935 70.879175 
L 114.17475 69.922182 
L 114.149793 71.504339 
L 114.244911 70.140118 
L 114.258461 71.958184 
L 114.31032 69.812663 
L 114.36204 71.245461 
L 114.395698 69.16234 
L 114.415865 72.625342 
L 114.456137 72.180226 
L 114.460607 72.581279 
L 114.494097 69.460206 
L 114.558683 70.997754 
L 114.56535 70.190307 
L 114.585345 72.015432 
L 114.67175 70.222078 
L 114.737958 69.849922 
L 114.702674 71.908309 
L 114.773177 70.783086 
L 114.867518 69.390253 
L 114.889394 72.194328 
L 114.891579 72.279274 
L 114.917794 69.363937 
L 114.948335 70.288139 
L 115.011446 69.911537 
L 114.983179 72.535099 
L 115.03316 71.504114 
L 115.072187 71.88496 
L 115.059187 70.105882 
L 115.124103 70.671819 
L 115.214625 69.661189 
L 115.182345 72.118195 
L 115.225376 70.760374 
L 115.302593 71.90461 
L 115.330404 70.182398 
L 115.405081 69.779763 
L 115.424238 71.588316 
L 115.526095 71.872953 
L 115.468866 70.316257 
L 115.530328 71.26149 
L 115.591597 69.390812 
L 115.616895 72.138402 
L 115.644264 70.433652 
L 115.669494 71.592037 
L 115.738709 70.124989 
L 115.765909 71.384107 
L 115.849364 70.315557 
L 115.830618 71.948649 
L 115.882647 70.673496 
L 115.90342 70.118492 
L 115.959398 71.749085 
L 115.961469 71.696708 
L 115.971818 71.719854 
L 115.975954 71.26504 
L 116.04822 69.415483 
L 116.023473 71.782709 
L 116.089397 70.408514 
L 116.136644 71.882664 
L 116.20219 70.736561 
L 116.208322 69.946744 
L 116.22467 71.808219 
L 116.31027 70.814276 
L 116.330595 71.656203 
L 116.361047 70.12398 
L 116.419781 70.687077 
L 116.470275 70.125511 
L 116.439995 71.811121 
L 116.52064 71.326618 
L 116.582912 70.327281 
L 116.552806 71.467525 
L 116.626985 71.353028 
L 116.682938 72.094784 
L 116.648986 70.115072 
L 116.728778 71.192501 
L 116.804282 70.193982 
L 116.782455 71.580835 
L 116.851821 70.561035 
L 116.952456 71.607491 
L 116.934735 70.404296 
L 116.962296 70.80564 
L 116.970164 70.050716 
L 117.011414 71.936924 
L 117.070196 71.016777 
L 117.083887 71.490711 
L 117.095613 70.188054 
L 117.175561 70.889787 
L 117.220268 70.080006 
L 117.202786 71.621517 
L 117.284235 70.870925 
L 117.336417 71.516322 
L 117.367274 70.210538 
L 117.392311 70.870919 
L 117.425003 70.14262 
L 117.415393 71.511732 
L 117.505537 70.376743 
L 117.593362 72.124666 
L 117.578117 69.760585 
L 117.621918 71.269358 
L 117.694071 72.197303 
L 117.682694 69.987087 
L 117.73383 71.472538 
L 117.762181 70.104737 
L 117.781058 71.970003 
L 117.85827 70.663383 
L 117.955761 71.602461 
L 117.944535 70.510922 
L 117.965108 70.745463 
L 117.970717 70.303929 
L 118.058351 71.889498 
L 118.076946 70.390471 
L 118.115941 71.485389 
L 118.195543 70.935162 
L 118.206625 70.501287 
L 118.293215 71.475491 
L 118.304242 70.983071 
L 118.34462 71.96109 
L 118.364778 70.123828 
L 118.410516 70.775351 
L 118.415998 70.124257 
L 118.436082 71.724639 
L 118.518036 71.212542 
L 118.577917 71.525636 
L 118.597837 70.232989 
L 118.624969 71.189925 
L 118.697136 70.291792 
L 118.722332 72.046858 
L 118.736716 71.005229 
L 118.738513 71.006257 
L 118.792351 72.713748 
L 118.808474 69.066929 
L 118.851404 71.500517 
L 118.858549 67.569478 
L 118.871049 72.946777 
L 118.961873 71.214024 
L 118.967203 71.826659 
L 119.029275 69.976062 
L 119.069957 70.94731 
L 119.084089 70.333801 
L 119.129943 71.510551 
L 119.180964 70.882856 
L 119.265122 71.685846 
L 119.275616 70.468088 
L 119.293094 71.01383 
L 119.294841 71.009408 
L 119.296588 71.223341 
L 119.394162 71.878886 
L 119.314047 70.029562 
L 119.401113 70.544344 
L 119.460098 70.083051 
L 119.449701 71.60866 
L 119.50854 71.058026 
L 119.563759 70.601014 
L 119.546519 71.41425 
L 119.60335 71.372714 
L 119.66173 71.524073 
L 119.632562 70.503638 
L 119.702836 70.740366 
L 119.740442 70.274042 
L 119.759217 71.422968 
L 119.810332 70.966406 
L 119.818839 71.478389 
L 119.830742 70.523157 
L 119.920627 70.971791 
L 120.033672 71.514674 
L 119.9747 70.333698 
L 120.035353 71.40633 
L 120.131007 70.479857 
L 120.146067 71.358581 
L 120.14774 71.414692 
L 120.166131 70.658938 
L 120.246178 71.111387 
L 120.28774 70.59089 
L 120.297702 71.202662 
L 120.355712 71.163091 
L 120.359022 71.158417 
L 120.365641 71.318611 
L 120.406951 71.747326 
L 120.383827 70.102403 
L 120.467931 70.966059 
L 120.5041 70.515183 
L 120.532004 71.321694 
L 120.574604 71.162331 
L 120.661157 71.707917 
L 120.646485 70.307577 
L 120.672558 70.70391 
L 120.784604 70.320871 
L 120.722976 71.397694 
L 120.786223 70.429809 
L 120.808879 71.415537 
L 120.904064 70.804804 
L 121.003596 70.570811 
L 120.968337 71.345814 
L 121.011603 70.964685 
L 121.024403 71.459304 
L 121.033997 70.272989 
L 121.123328 71.033173 
L 121.226506 68.141462 
L 121.212252 73.310094 
L 121.232839 70.624024 
L 121.243913 72.363088 
L 121.259726 69.802724 
L 121.341743 70.34254 
L 121.343315 70.3208 
L 121.351182 71.222985 
L 121.388904 71.181042 
L 121.395185 71.653245 
L 121.414009 70.062652 
L 121.496948 71.079622 
L 121.56709 70.266372 
L 121.554639 71.410551 
L 121.607506 71.064466 
L 121.694271 71.573298 
L 121.683446 70.497846 
L 121.712811 70.894032 
L 121.7945 70.542981 
L 121.78219 71.357957 
L 121.822166 70.921613 
L 121.855925 71.408469 
L 121.889629 70.435557 
L 121.937022 71.201837 
L 122.001049 70.192505 
L 121.993436 71.648511 
L 122.048172 70.757052 
L 122.072451 71.739656 
L 122.061834 70.248529 
L 122.158698 70.736778 
L 122.190379 70.452993 
L 122.199421 71.393664 
L 122.259594 71.022876 
L 122.343531 71.431305 
L 122.321084 70.537461 
L 122.349511 70.607989 
L 122.352503 70.335489 
L 122.452412 71.347052 
L 122.455386 71.609192 
L 122.522194 70.503605 
L 122.560693 71.20568 
L 122.61387 70.607745 
L 122.590254 71.303352 
L 122.67426 70.833736 
L 122.744728 71.391473 
L 122.690432 70.638582 
L 122.790101 71.084209 
L 122.881995 70.51051 
L 122.867437 71.498205 
L 122.900902 71.059361 
L 122.947368 70.649194 
L 122.927053 71.201908 
L 123.009635 71.011067 
L 123.081792 71.397208 
L 123.024088 70.610795 
L 123.119208 71.035168 
L 123.200988 70.572548 
L 123.183797 71.281781 
L 123.232459 70.772533 
L 123.328 70.552687 
L 123.256746 71.3185 
L 123.335113 71.113328 
L 123.389074 71.151385 
L 123.355008 70.64832 
L 123.396163 70.900606 
L 123.471151 70.601008 
L 123.413166 71.246747 
L 123.505016 70.878139 
L 123.512063 71.427126 
L 123.56835 70.573379 
L 123.614669 70.921189 
L 123.646886 70.533607 
L 123.634283 71.287727 
L 123.726501 70.86719 
L 123.825221 71.302031 
L 123.808571 70.671167 
L 123.834928 70.861192 
L 123.841857 70.713046 
L 123.859865 71.458463 
L 123.944139 70.846737 
L 123.962051 71.498799 
L 123.97169 70.588111 
L 124.055487 70.912673 
L 124.11434 71.215799 
L 124.067818 70.769211 
L 124.119807 70.782738 
L 124.213855 70.428213 
L 124.202973 71.405611 
L 124.22473 71.232452 
L 124.227447 71.409237 
L 124.241031 70.578731 
L 124.33315 71.039065 
L 124.414074 70.518218 
L 124.377701 71.338055 
L 124.445006 70.876239 
L 124.450382 71.319596 
L 124.462469 70.653195 
L 124.554895 70.811464 
L 124.593612 71.307874 
L 124.58294 70.617239 
L 124.672143 71.016386 
L 124.780771 70.675363 
L 124.7702 71.31689 
L 124.786053 70.916065 
L 124.834859 71.288536 
L 124.824317 70.616147 
L 124.895366 70.944248 
L 124.976628 70.549831 
L 124.987088 71.269258 
L 125.007994 70.62753 
L 125.097892 72.031901 
L 125.077084 69.725638 
L 125.121277 71.292379 
L 125.134257 70.485589 
L 125.165372 71.352912 
L 125.237782 70.846145 
L 125.34975 71.287643 
L 125.32792 70.707645 
L 125.352316 71.140141 
L 125.356165 70.682474 
L 125.390775 71.26764 
L 125.463637 70.988502 
L 125.487863 71.137288 
L 125.480216 70.713317 
L 125.510788 70.797183 
L 125.60222 70.384386 
L 125.593348 71.289915 
L 125.608553 71.037073 
L 125.613619 71.444542 
L 125.628807 70.590347 
L 125.718432 70.998986 
L 125.732281 70.601643 
L 125.743607 71.149385 
L 125.830205 70.895471 
L 125.907696 71.264568 
L 125.922659 70.672009 
L 125.941346 70.948808 
L 125.966235 70.655735 
L 125.956284 71.225835 
L 126.051861 70.94851 
L 126.153136 71.224144 
L 126.128484 70.787662 
L 126.159296 70.871755 
L 126.161758 70.701468 
L 126.18022 71.147759 
L 126.264917 71.104925 
L 126.339494 71.331503 
L 126.349255 70.720483 
L 126.354132 70.558343 
L 126.362666 71.231421 
L 126.432015 70.929049 
L 126.543435 71.328868 
L 126.534977 70.640835 
L 126.545849 71.223615 
L 126.644613 70.688055 
L 126.657825 71.025413 
L 126.744079 71.218627 
L 126.751251 70.614818 
L 126.769165 71.055784 
L 126.77036 71.056522 
L 126.772746 70.977824 
L 126.863253 69.84578 
L 126.856123 71.833637 
L 126.872757 71.780253 
L 126.873945 71.813075 
L 126.887 70.024313 
L 126.945064 70.845629 
L 127.002954 70.599809 
L 126.958073 71.263159 
L 127.054793 71.009153 
L 127.086534 70.770655 
L 127.142838 71.152617 
L 127.16976 70.793676 
L 127.219996 71.165601 
L 127.208324 70.680108 
L 127.285224 70.935607 
L 127.359507 70.735383 
L 127.369929 71.17243 
L 127.395386 70.994169 
L 127.445045 70.538128 
L 127.451966 71.129648 
L 127.508382 70.890341 
L 127.514131 71.252398 
L 127.521026 70.666776 
L 127.616161 70.802736 
L 127.619591 70.564645 
L 127.626449 71.266579 
L 127.725624 70.941969 
L 127.79373 71.107873 
L 127.801659 70.812669 
L 127.840133 71.055814 
L 127.857084 70.78492 
L 127.886429 71.118428 
L 127.947235 71.071005 
L 128.015698 71.278991 
L 128.031378 70.762931 
L 128.055992 71.022322 
L 128.060463 70.715879 
L 128.089505 71.172417 
L 128.168596 70.885749 
L 128.24183 71.135787 
L 128.227428 70.811953 
L 128.279452 70.964113 
L 128.344567 70.775736 
L 128.370992 71.151781 
L 128.390787 70.952857 
L 128.493841 71.117293 
L 128.440187 70.786495 
L 128.500399 70.881178 
L 128.523341 70.872526 
L 128.503678 70.990686 
L 128.524433 70.93375 
L 128.617013 71.089059 
L 128.623531 70.809581 
L 128.635476 70.965304 
L 128.743734 70.787369 
L 128.697257 71.100789 
L 128.746974 70.845911 
L 128.842809 71.164722 
L 128.832066 70.743053 
L 128.859989 71.0359 
L 128.898588 71.077236 
L 128.88573 70.831055 
L 128.964886 71.057062 
L 129.035216 70.777869 
L 129.046915 71.148478 
L 129.076657 70.823705 
L 129.122246 71.152525 
L 129.115892 70.7254 
L 129.185683 70.855823 
L 129.263643 70.675049 
L 129.256281 71.17113 
L 129.29516 70.983573 
L 129.39672 70.835896 
L 129.362227 71.060593 
L 129.409246 70.932355 
L 129.437405 71.054761 
L 129.449905 70.854396 
L 129.520599 70.991859 
L 129.611709 70.79005 
L 129.559995 71.064822 
L 129.632356 70.878855 
L 129.738348 71.090353 
L 129.705482 70.79708 
L 129.742455 70.924056 
L 129.823347 70.194345 
L 129.83152 71.59392 
L 129.847856 71.431113 
L 129.848877 71.539492 
L 129.8978 70.728093 
L 129.952696 70.850569 
L 129.988194 71.129279 
L 130.015534 70.797481 
L 130.074137 71.021527 
L 130.139605 70.852148 
L 130.150662 71.071385 
L 130.184802 70.940009 
L 130.261899 71.130742 
L 130.235899 70.73775 
L 130.296841 70.995067 
L 130.301829 70.805396 
L 130.34566 71.075496 
L 130.408246 70.977735 
L 130.518037 71.092766 
L 130.479532 70.824264 
L 130.520009 71.041994 
L 130.567291 70.851524 
L 130.632117 70.921184 
L 130.672283 71.092408 
L 130.709436 70.793285 
L 130.742617 70.928398 
L 130.829212 70.827787 
L 130.816587 71.077714 
L 130.855405 70.864384 
L 130.856375 70.836097 
L 130.867038 71.045557 
L 130.960802 71.001969 
L 130.961766 71.074511 
L 131.065635 70.850661 
L 131.071388 71.01751 
L 131.109708 71.061953 
L 131.077142 70.821116 
L 131.171819 70.920305 
L 131.238487 70.236452 
L 131.244193 71.574086 
L 131.27933 71.198784 
L 131.289763 70.685856 
L 131.398519 70.76837 
L 131.489786 71.085965 
L 131.511364 70.954201 
L 131.604909 70.829024 
L 131.521676 71.066209 
L 131.621699 70.967185 
L 131.713793 71.16676 
L 131.719359 70.801444 
L 131.729563 70.9456 
L 131.80915 70.798556 
L 131.815615 71.099125 
L 131.840527 70.914687 
L 131.845136 71.080178 
L 131.883817 70.87752 
L 131.951784 70.940812 
L 132.021343 71.041356 
L 131.9637 70.850971 
L 132.056031 70.897425 
L 132.136125 70.827108 
L 132.12704 71.113836 
L 132.164263 70.931791 
L 132.244821 71.048445 
L 132.264683 70.851258 
L 132.276411 70.98737 
L 132.336743 70.840022 
L 132.332246 71.044415 
L 132.387922 70.936703 
L 132.48007 70.842405 
L 132.411224 71.027549 
L 132.485424 70.96867 
L 132.486317 71.031783 
L 132.505936 70.882041 
L 132.595757 70.923258 
L 132.673686 70.829893 
L 132.664846 71.013849 
L 132.707241 70.915322 
L 132.719588 71.054565 
L 132.72576 70.836363 
L 132.819848 70.961163 
L 132.861034 70.86066 
L 132.868036 71.03551 
L 132.930068 70.963201 
L 133.000599 71.035553 
L 132.993645 70.854721 
L 133.038807 70.940856 
L 133.119319 70.823379 
L 133.124502 71.046727 
L 133.149532 70.906837 
L 133.241617 71.025389 
L 133.251059 70.844126 
L 133.261354 71.011767 
L 133.322158 70.879257 
L 133.327289 71.01999 
L 133.373395 70.90021 
L 133.384479 71.043348 
L 133.422798 70.869736 
L 133.484801 70.971381 
L 133.569419 70.870903 
L 133.492432 71.010421 
L 133.589674 70.93241 
L 133.663762 71.420156 
L 133.669644 70.528358 
L 133.700702 70.978112 
L 133.709088 71.088806 
L 133.714955 70.783292 
L 133.809438 70.966721 
L 133.904295 70.861349 
L 133.840275 71.048279 
L 133.92089 70.951715 
L 133.969764 71.04062 
L 134.009435 70.845971 
L 134.026766 70.928626 
L 134.099225 70.866571 
L 134.066323 71.002664 
L 134.133716 70.975029 
L 134.134537 71.026548 
L 134.185336 70.861512 
L 134.244164 70.983842 
L 134.254767 70.873335 
L 134.260476 71.038294 
L 134.35643 70.948401 
L 134.461602 71.013108 
L 134.456762 70.878947 
L 134.466443 70.963904 
L 134.49224 70.879756 
L 134.499489 71.028746 
L 134.577449 70.929125 
L 134.650304 71.000832 
L 134.592684 70.845928 
L 134.688627 70.94085 
L 134.756304 70.868818 
L 134.725283 71.00284 
L 134.775371 70.982034 
L 134.817412 71.268609 
L 134.840378 70.578498 
L 134.886228 70.979561 
L 134.948507 70.879387 
L 134.951656 71.063405 
L 134.998818 70.914491 
L 135.030195 70.875538 
L 135.002741 71.037952 
L 135.109984 70.891383 
L 135.261624 71.001711 
L 135.111544 70.864644 
L 135.267821 70.908314 
L 135.270142 70.843539 
L 135.276338 71.030459 
L 135.378248 70.935818 
L 135.411334 71.025014 
L 135.389026 70.848707 
L 135.488826 70.93736 
L 135.593451 70.872477 
L 135.536243 71.025592 
L 135.598781 70.947087 
L 135.683124 71.043603 
L 135.658846 70.868965 
L 135.708883 70.968523 
L 135.733099 70.881005 
L 135.748219 71.007158 
L 135.819879 70.952901 
L 135.918265 70.885434 
L 135.913769 71.014877 
L 135.931745 70.929527 
L 135.987814 71.016698 
L 135.945966 70.879968 
L 136.043726 70.951593 
L 136.117283 70.88101 
L 136.144703 71.004797 
L 136.154327 70.923073 
L 136.182436 71.019133 
L 136.178739 70.875647 
L 136.265047 70.949028 
L 136.346579 71.013971 
L 136.279761 70.891096 
L 136.370753 70.913785 
L 136.472252 70.882492 
L 136.476624 71.018123 
L 136.480263 70.962604 
L 136.549305 70.897034 
L 136.491909 71.009503 
L 136.591336 70.963307 
L 136.703945 70.90598 
L 136.615934 71.017306 
L 136.707542 70.958392 
L 136.805888 71.015273 
L 136.750676 70.880326 
L 136.818775 70.992185 
L 136.860948 70.702613 
L 136.865945 71.137193 
L 136.930801 70.915164 
L 136.985512 71.017092 
L 136.981963 70.868466 
L 137.042192 70.958378 
L 137.134653 70.875924 
L 137.044314 70.985478 
L 137.140992 70.990849 
L 137.141695 71.023071 
L 137.197928 70.872466 
L 137.2505 70.930336 
L 137.314099 71.010714 
L 137.351046 70.890319 
L 137.362882 70.958742 
L 137.390007 70.888181 
L 137.402516 71.012842 
L 137.473238 70.966159 
L 137.5237 71.012269 
L 137.556118 70.884066 
L 137.578161 70.948813 
L 137.667454 70.889587 
L 137.59674 71.016508 
L 137.688003 70.978614 
L 137.688689 71.008947 
L 137.70853 70.898315 
L 137.797916 70.963727 
L 137.861126 70.72799 
L 137.866555 71.145403 
L 137.909924 70.884479 
L 138.01793 71.018072 
L 138.021296 70.927432 
L 138.103241 70.998109 
L 138.121999 70.883947 
L 138.13271 70.936329 
L 138.186179 70.876309 
L 138.156788 71.012472 
L 138.2415 70.924039 
L 138.310596 70.995604 
L 138.294009 70.888316 
L 138.352337 70.960861 
L 138.436867 70.890873 
L 138.35432 71.005701 
L 138.463207 70.961597 
L 138.559056 71.00652 
L 138.466498 70.889652 
L 138.56102 70.952122 
L 138.561676 70.886433 
L 138.566913 71.030437 
L 138.672025 70.943684 
L 138.762974 71.004384 
L 138.69025 70.888593 
L 138.78241 70.932974 
L 138.801176 70.895335 
L 138.829619 71.001014 
L 138.892173 70.935124 
L 138.951319 71.010377 
L 138.910195 70.88843 
L 139.002608 70.961502 
L 139.049293 70.908102 
L 139.028842 71.002514 
L 139.113063 70.924061 
L 139.195657 71.016554 
L 139.190582 70.882877 
L 139.224165 70.966865 
L 139.288635 70.887437 
L 139.258955 71.003994 
L 139.335272 70.968382 
L 139.349116 70.880663 
L 139.342825 71.00547 
L 139.44638 70.926938 
L 139.549392 71.017111 
L 139.475154 70.887258 
L 139.557485 70.942126 
L 139.607216 70.807143 
L 139.610941 71.105471 
L 139.666727 70.929918 
L 139.748262 71.014945 
L 139.68405 70.898717 
L 139.777827 70.94918 
L 139.793207 70.869937 
L 139.850319 71.008762 
L 139.887688 70.913623 
L 139.904206 71.007248 
L 139.910933 70.880847 
L 139.998768 70.939119 
L 140.08742 71.009533 
L 140.066204 70.896638 
L 140.109219 70.940411 
L 140.115271 70.893902 
L 140.128574 70.997833 
L 140.219655 70.914193 
L 140.319895 70.989997 
L 140.244313 70.878909 
L 140.330671 70.955175 
L 140.394593 70.882432 
L 140.356981 70.99577 
L 140.441061 70.935916 
L 140.483263 71.061144 
L 140.489201 70.859574 
L 140.55261 70.977181 
L 140.659412 70.893017 
L 140.654703 71.011403 
L 140.663528 70.921542 
L 140.760365 71.009577 
L 140.772071 70.885901 
L 140.774411 70.98458 
L 140.78903 70.890309 
L 140.82991 71.020623 
L 140.88525 70.951476 
L 140.961888 71.004458 
L 140.934054 70.879979 
L 140.995467 70.985703 
L 141.04573 70.882791 
L 141.05323 71.006295 
L 141.106797 70.918177 
L 141.109097 71.014144 
L 141.156774 70.898798 
L 141.21807 70.987508 
L 141.27632 70.886878 
L 141.328146 71.001651 
L 141.329282 70.951978 
L 141.35429 70.886199 
L 141.383237 71.003435 
L 141.439872 70.92272 
L 141.440437 70.998506 
L 141.477725 70.887491 
L 141.550964 70.951875 
L 141.589726 71.017211 
L 141.595899 70.896638 
L 141.661432 70.932898 
L 141.732878 70.894912 
L 141.764052 71.005796 
L 141.771839 70.941209 
L 141.791844 71.006227 
L 141.774062 70.897946 
L 141.883286 70.962634 
L 141.912015 70.904167 
L 141.904837 71.011107 
L 141.995205 70.94547 
L 142.012239 71.039565 
L 142.014986 70.867689 
L 142.105941 70.935661 
L 142.191036 70.889896 
L 142.179056 71.016777 
L 142.213883 70.942902 
L 142.24159 71.002466 
L 142.247562 70.900063 
L 142.324478 70.987364 
L 142.357427 70.893223 
L 142.376308 70.996123 
L 142.435528 70.988092 
L 142.534192 70.897289 
L 142.483851 71.026377 
L 142.546489 70.957222 
L 142.602002 71.003983 
L 142.591339 70.896893 
L 142.656296 70.963687 
L 142.753329 70.894184 
L 142.670642 71.009715 
L 142.767605 70.939776 
L 142.796655 70.857256 
L 142.793486 71.048795 
L 142.877761 70.904004 
L 142.904025 71.014589 
L 142.943875 70.898033 
L 142.988873 70.964696 
L 143.052006 70.888691 
L 143.043149 71.004015 
L 143.099877 70.956367 
L 143.196298 71.006672 
L 143.104552 70.889625 
L 143.210774 70.952013 
L 143.317964 70.992779 
L 143.231949 70.894135 
L 143.322076 70.972459 
L 143.422017 70.89331 
L 143.348776 71.012239 
L 143.433771 70.935048 
L 143.539754 70.908998 
L 143.440923 71.009739 
L 143.54128 70.942587 
L 143.643653 70.995165 
L 143.645675 70.889255 
L 143.652245 70.956901 
L 143.759069 70.889527 
L 143.694138 71.007169 
L 143.762587 70.923692 
L 143.789698 70.996288 
L 143.803742 70.895292 
L 143.87331 70.979122 
L 143.943628 70.900606 
L 143.906258 71.012996 
L 143.984407 70.951286 
L 144.045912 71.006949 
L 144.008238 70.89648 
L 144.094386 70.938788 
L 144.160964 70.864899 
L 144.149637 71.016959 
L 144.204734 70.934179 
L 144.297847 70.994663 
L 144.243993 70.89191 
L 144.316418 70.959719 
L 144.381275 71.018967 
L 144.335458 70.890857 
L 144.428443 70.974315 
L 144.438639 70.890667 
L 144.506482 71.000962 
L 144.539832 70.938891 
L 144.547557 71.007468 
L 144.594809 70.880929 
L 144.651553 71.000351 
L 144.747358 70.882845 
L 144.763119 70.956025 
L 144.862183 70.857164 
L 144.859332 71.01177 
L 144.872631 70.950822 
L 144.889717 70.995423 
L 144.943252 70.89242 
L 144.982953 70.977705 
L 144.994754 70.884707 
L 145.09031 71.009894 
L 145.094065 70.941192 
L 145.175119 70.996275 
L 145.159217 70.893245 
L 145.205021 70.945443 
L 145.23068 70.892561 
L 145.209222 71.001079 
L 145.316281 70.934342 
L 145.332984 70.885054 
L 145.319529 70.99932 
L 145.426913 70.932372 
L 145.43199 71.006165 
L 145.470255 70.893294 
L 145.538302 70.959412 
L 145.647696 70.893625 
L 145.570406 70.992567 
L 145.649064 70.927508 
L 145.708308 71.003261 
L 145.672784 70.889174 
L 145.759658 70.979944 
L 145.765558 70.886232 
L 145.763744 71.002631 
L 145.870536 70.943782 
L 145.916513 71.022846 
L 145.953397 70.887898 
L 145.981688 70.973911 
L 146.004112 70.898831 
L 145.992454 71.002599 
L 146.093554 70.919469 
L 146.187474 71.001198 
L 146.105597 70.890379 
L 146.205229 70.960093 
L 146.27299 70.888268 
L 146.266357 71.015474 
L 146.316272 70.952062 
L 146.411331 70.890987 
L 146.397717 71.013072 
L 146.427129 70.927877 
L 146.493257 71.001727 
L 146.449489 70.871619 
L 146.538673 70.969913 
L 146.611816 70.898255 
L 146.558292 71.00759 
L 146.649153 70.960837 
L 146.682524 71.004273 
L 146.729664 70.886916 
L 146.759446 70.96547 
L 146.858398 70.887252 
L 146.777552 71.011479 
L 146.870411 70.926259 
L 146.923947 71.002398 
L 146.889272 70.900926 
L 146.982031 70.959914 
L 147.091746 70.893669 
L 147.056517 71.001863 
L 147.092596 70.933978 
L 147.104464 71.026721 
L 147.189464 70.898478 
L 147.203805 70.96195 
L 147.279558 71.01361 
L 147.285857 70.886476 
L 147.313551 70.935536 
L 147.384287 70.897968 
L 147.366313 70.999711 
L 147.422269 70.947114 
L 147.431441 71.015425 
L 147.462676 70.885841 
L 147.532877 70.947706 
L 147.595804 70.889619 
L 147.576367 71.016948 
L 147.643691 70.958098 
L 147.675413 71.019757 
L 147.669237 70.885657 
L 147.751831 70.954741 
L 147.861011 70.890938 
L 147.852037 70.998804 
L 147.862233 70.937637 
L 147.862642 70.997996 
L 147.865904 70.891638 
L 147.973238 70.991172 
L 148.00079 70.893511 
L 147.997146 71.002965 
L 148.086033 70.923024 
L 148.087245 71.006287 
L 148.173722 70.896377 
L 148.196985 70.941974 
L 148.264614 70.888126 
L 148.249828 71.020134 
L 148.308109 70.918899 
L 148.364231 71.014218 
L 148.340369 70.891573 
L 148.419796 70.956443 
L 148.493773 70.89356 
L 148.520605 71.008941 
L 148.530854 70.935981 
L 148.567863 71.002145 
L 148.559207 70.894233 
L 148.64246 70.963839 
L 148.739794 70.894016 
L 148.713259 71.010358 
L 148.753826 70.930694 
L 148.837811 71.006301 
L 148.806746 70.887801 
L 148.864953 71.00116 
L 148.902886 70.863846 
L 148.928005 71.008852 
L 148.976221 70.908292 
L 149.028933 71.013433 
L 148.988161 70.891074 
L 149.087632 70.969145 
L 149.156084 70.893191 
L 149.09644 71.003467 
L 149.198415 70.949348 
L 149.242931 71.005655 
L 149.275969 70.889207 
L 149.309331 70.981529 
L 149.338475 70.891573 
L 149.335449 71.011417 
L 149.420753 70.949283 
L 149.51694 71.005356 
L 149.461765 70.891622 
L 149.531925 70.994266 
L 149.618621 70.886911 
L 149.548398 71.015116 
L 149.643212 70.946968 
L 150.935871 70.929305 
L 149.643958 70.974635 
L 150.936221 70.952942 
L 150.936568 71.024444 
L 150.9627 70.897539 
L 151.047129 70.927893 
L 151.108745 71.003695 
L 151.072075 70.879105 
L 151.158448 70.96119 
L 151.237924 70.887415 
L 151.183254 71.009427 
L 151.269486 70.949891 
L 151.317077 70.90123 
L 151.275997 71.00937 
L 151.379897 70.960484 
L 151.44082 71.022501 
L 151.462217 70.890857 
L 151.49003 70.952165 
L 151.519161 70.894716 
L 151.52119 71.012391 
L 151.601236 70.922709 
L 151.676254 71.003831 
L 151.608648 70.900714 
L 151.712149 70.963939 
L 151.744298 70.886194 
L 151.739947 71.008898 
L 151.823105 70.948759 
L 151.915867 70.995805 
L 151.852411 70.899916 
L 151.933106 70.962487 
L 151.954305 70.888468 
L 151.959602 71.009096 
L 152.044145 70.966775 
L 152.0968 70.896182 
L 152.126683 71.006716 
L 152.154886 70.971389 
L 152.166022 71.007213 
L 152.193185 70.874067 
L 152.265654 70.979051 
L 152.327467 70.885847 
L 152.341104 71.018053 
L 152.376776 70.960319 
L 152.480828 70.889907 
L 152.436302 71.005052 
L 152.490815 70.942468 
L 152.510134 71.020373 
L 152.567331 70.877873 
L 152.601633 70.960281 
L 152.611882 70.883871 
L 152.6774 71.00851 
L 152.712469 70.953042 
L 152.763999 71.010624 
L 152.755102 70.896926 
L 152.822682 70.944238 
L 152.893183 70.867494 
L 152.895707 71.002341 
L 152.933536 70.92462 
L 153.004585 71.011384 
L 152.962491 70.897865 
L 153.04471 70.980791 
L 153.170511 70.903537 
L 153.052226 70.997659 
L 153.183264 70.93888 
L 153.260851 71.014489 
L 153.219303 70.882932 
L 153.294583 70.971862 
L 153.389587 70.877389 
L 153.332886 71.010776 
L 153.405888 70.905621 
L 153.423099 70.997322 
L 153.490258 70.879593 
L 153.517178 70.959944 
L 153.589501 70.886541 
L 153.579751 71.013553 
L 153.627841 70.910838 
L 153.684909 71.009229 
L 153.63544 70.887242 
L 153.739093 70.946344 
L 153.834081 70.995474 
L 153.743627 70.891144 
L 153.849718 70.963757 
L 153.917532 70.893571 
L 153.912139 71.007012 
L 153.960919 70.941013 
L 153.979739 71.002292 
L 153.972274 70.88906 
L 154.07179 70.947435 
L 154.164299 70.989017 
L 154.076841 70.894119 
L 154.174058 70.977292 
L 154.174353 70.883469 
L 154.241648 71.015417 
L 154.285205 70.962343 
L 154.30225 70.891161 
L 154.330428 71.019914 
L 154.39602 70.978161 
L 154.42027 70.871342 
L 154.448862 71.007742 
L 154.508248 70.899184 
L 154.554701 71.002748 
L 154.514351 70.889364 
L 154.619549 70.955474 
L 154.711821 71.025839 
L 154.628506 70.899982 
L 154.729934 70.944086 
L 154.826552 70.863895 
L 154.775866 71.02673 
L 154.840846 70.94351 
L 154.855416 71.017211 
L 154.897922 70.890965 
L 154.951988 70.990003 
L 155.051197 70.884153 
L 155.006757 71.010678 
L 155.063068 70.943136 
L 155.145407 71.000666 
L 155.110202 70.886531 
L 155.174087 70.94395 
L 155.234406 71.002221 
L 155.189817 70.896589 
L 155.28532 70.96198 
L 155.331643 70.889223 
L 155.369236 71.003106 
L 155.396203 70.932735 
L 155.446148 71.000338 
L 155.409257 70.886851 
L 155.507294 70.957398 
L 155.572104 70.882731 
L 155.513921 70.992738 
L 155.618857 70.914567 
L 155.649048 71.010611 
L 155.719135 70.89464 
L 155.730064 70.965874 
L 155.732248 70.88748 
L 155.806391 71.003736 
L 155.840914 70.967096 
L 155.94385 70.907201 
L 155.855033 70.999122 
L 155.951953 70.96516 
L 156.01693 71.013854 
L 155.961403 70.890091 
L 156.062906 70.957037 
L 156.102342 71.006024 
L 156.130729 70.890227 
L 156.173233 70.950738 
L 156.249991 70.88589 
L 156.235622 71.017323 
L 156.284273 70.926856 
L 156.375668 71.017092 
L 156.323533 70.884424 
L 156.395218 70.920082 
L 156.490566 70.891356 
L 156.446899 71.031371 
L 156.503174 70.945763 
L 156.578131 71.012426 
L 156.593558 70.882101 
L 156.613936 70.959143 
L 156.621767 70.89198 
L 156.614719 71.002205 
L 156.725115 70.935259 
L 156.788622 70.998245 
L 156.797677 70.880543 
L 156.836184 70.980359 
L 156.905509 70.889739 
L 156.881569 70.997298 
L 156.947654 70.935053 
L 156.998673 71.027169 
L 156.994832 70.880125 
L 157.058752 71.000853 
L 157.063346 70.895205 
L 157.077886 71.010521 
L 157.169732 70.940373 
L 157.258116 71.005144 
L 157.261906 70.864541 
L 157.280844 70.943619 
L 157.392587 70.999638 
L 157.282106 70.906039 
L 157.396351 70.936595 
L 157.46923 70.890558 
L 157.485972 71.024116 
L 157.50744 70.915115 
L 157.604999 71.014049 
L 157.514424 70.888794 
L 157.618649 70.989145 
L 157.725776 70.888034 
L 157.699851 71.005448 
L 157.729724 70.933989 
L 157.81612 71.003929 
L 157.816612 70.886954 
L 157.841155 70.974839 
L 157.945372 70.885917 
L 157.950252 71.015567 
L 157.952203 70.952296 
L 158.041755 71.006564 
L 158.005302 70.877124 
L 158.06311 70.936394 
L 158.141051 70.884804 
L 158.081049 71.010472 
L 158.173877 70.900894 
L 158.18328 71.02236 
L 158.189789 70.879876 
L 158.284983 70.949886 
L 158.340539 71.011341 
L 158.377808 70.878068 
L 158.395938 70.945828 
L 158.478985 71.007419 
L 158.397607 70.895221 
L 158.507694 70.95096 
L 158.52002 70.884739 
L 158.586963 71.000273 
L 158.618582 70.943792 
L 158.619996 71.014402 
L 158.650385 70.889 
L 158.729316 70.949573 
L 158.789709 70.883208 
L 158.794382 71.00633 
L 158.84036 70.945215 
L 158.938724 71.001396 
L 158.871806 70.880038 
L 158.951708 70.993208 
L 159.012346 70.891975 
L 158.999632 71.006702 
L 159.062889 70.94002 
L 159.133295 71.006322 
L 159.128471 70.896236 
L 159.173445 70.97283 
L 159.200929 70.894114 
L 159.200472 71.002886 
L 159.28452 70.916565 
L 159.305248 71.009256 
L 159.353227 70.875272 
L 159.395877 70.997018 
L 159.493759 70.891763 
L 159.458776 71.007213 
L 159.507058 70.954719 
L 159.575441 70.884745 
L 159.53363 70.997113 
L 159.618059 70.903863 
L 159.712612 71.025584 
L 159.709936 70.892599 
L 159.729107 70.905247 
L 159.794502 71.009015 
L 159.791614 70.888474 
L 159.839971 70.939852 
L 159.840193 70.866555 
L 159.867866 71.011696 
L 159.950875 70.964878 
L 160.012243 70.887437 
L 159.961005 71.007424 
L 160.062031 70.925451 
L 160.078454 71.018688 
L 160.082393 70.894515 
L 160.172997 70.958503 
L 160.227596 70.889967 
L 160.251041 71.011181 
L 160.284208 70.926922 
L 160.28659 70.999431 
L 160.337634 70.87562 
L 160.395222 70.965022 
L 160.404481 70.890309 
L 160.488256 71.00842 
L 160.506468 70.93596 
L 160.609847 70.883985 
L 160.512677 71.018875 
L 160.617301 70.949704 
L 160.624966 70.89077 
L 160.721369 71.012478 
L 160.727723 70.941865 
L 160.772352 71.007454 
L 160.792836 70.879061 
L 160.839002 70.982224 
L 160.928077 70.892784 
L 160.862571 71.016535 
L 160.950073 70.928968 
L 161.044481 71.010412 
L 161.032809 70.888447 
L 161.061143 70.935737 
L 161.073421 71.007954 
L 161.115198 70.893913 
L 161.172416 70.952556 
L 161.231327 70.884006 
L 161.185247 71.012147 
L 161.283474 70.953607 
L 161.385718 71.003836 
L 161.299935 70.892605 
L 161.394727 70.976085 
L 161.433578 70.896551 
L 161.490693 71.005514 
L 161.505759 70.942126 
L 161.588219 71.014196 
L 161.546626 70.898728 
L 161.616977 70.981681 
L 161.674772 70.891894 
L 161.662056 71.010008 
L 161.728574 70.95238 
L 161.830134 71.014201 
L 161.827932 70.877949 
L 161.838742 70.953047 
L 161.857342 70.883512 
L 161.87932 71.011284 
L 161.949884 70.926379 
L 162.00413 71.014964 
L 161.97653 70.889771 
L 162.060403 70.9604 
L 162.078399 70.869041 
L 162.132686 71.010611 
L 162.171484 70.905084 
L 162.18859 70.999798 
L 162.187609 70.887057 
L 162.282719 70.962691 
L 162.353023 70.885711 
L 162.366662 71.005207 
L 162.39372 70.942718 
L 162.425402 71.03685 
L 162.464791 70.89198 
L 162.505064 70.981893 
L 162.562235 70.886308 
L 162.601348 71.017884 
L 162.616164 70.94943 
L 162.67819 71.01029 
L 162.65325 70.887339 
L 162.72702 70.972252 
L 162.835736 70.886753 
L 162.794418 71.014551 
L 162.838016 70.9707 
L 162.946309 71.012242 
L 162.905224 70.895851 
L 162.948009 70.940546 
L 163.015785 70.886259 
L 163.017859 71.012909 
L 163.059271 70.906886 
L 163.170095 71.00392 
L 163.15513 70.8798 
L 163.170468 70.973949 
L 163.213428 70.880663 
L 163.270622 71.006748 
L 163.281781 70.919072 
L 163.30705 71.016715 
L 163.305566 70.876749 
L 163.392837 70.959301 
L 163.418701 70.873601 
L 163.417963 71.017542 
L 163.504001 70.925869 
L 163.59918 71.00702 
L 163.58051 70.898939 
L 163.614907 70.983459 
L 163.696632 70.880554 
L 163.630988 71.012155 
L 163.7261 70.939998 
L 163.833772 71.001985 
L 163.731551 70.895997 
L 163.837388 70.932719 
L 163.903788 70.891047 
L 163.942657 71.011129 
L 163.948229 70.920104 
L 163.988086 71.004908 
L 163.983603 70.878035 
L 164.059162 70.969036 
L 164.123394 70.89026 
L 164.097905 71.006425 
L 164.170361 70.912526 
L 164.251756 71.009555 
L 164.219879 70.881596 
L 164.281466 70.983022 
L 164.320478 70.882563 
L 164.315538 71.012931 
L 164.392646 70.935281 
L 164.468576 71.019461 
L 164.484498 70.880885 
L 164.503898 70.961309 
L 164.524156 70.878139 
L 164.512108 71.02135 
L 164.615048 70.95054 
L 164.671079 71.01184 
L 164.652361 70.883599 
L 164.725741 70.949736 
L 164.793858 70.888973 
L 164.816741 71.017472 
L 164.836846 70.922688 
L 164.943569 71.014095 
L 164.927161 70.895264 
L 164.947838 70.936644 
L 165.036966 70.882932 
L 164.989811 71.011514 
L 165.057868 70.917607 
L 165.085362 71.025131 
L 165.132121 70.883757 
L 165.168974 70.957974 
L 165.23641 70.882503 
L 165.22951 71.005541 
L 165.280123 70.933799 
L 165.374945 71.025514 
L 165.368593 70.877672 
L 165.391149 70.944677 
L 165.457499 70.892203 
L 165.404504 71.011612 
L 165.502049 70.915028 
L 165.56637 71.009965 
L 165.515329 70.894342 
L 165.613153 70.954087 
L 165.696193 70.883187 
L 165.620748 71.017466 
L 165.724122 70.964116 
L 165.730855 70.889152 
L 165.789686 71.009199 
L 165.790505 71.000118 
" clip-path="url(#p0ad2354952)" style="fill: none; stroke: #808080; stroke-linecap: square"/>
   </g>
   <g id="line2d_3">
    <path d="M 57.377031 25.41395 
L 165.790668 25.41395 
" clip-path="url(#p0ad2354952)" style="fill: none; stroke-dasharray: 6.4,1.6,1,1.6; stroke-dashoffset: 0; stroke: #808080"/>
   </g>
   <g id="matplotlib.axis_1">
    <g id="xtick_1">
     <g id="line2d_4">
      <defs>
       <path id="mc476278edd" d="M 0 0 
L 0 6 
" style="stroke: #000000"/>
      </defs>
      <g>
       <use xlink:href="#mc476278edd" x="57.377031" y="116.483699" style="stroke: #000000"/>
      </g>
     </g>
     <g id="text_1">
      <!-- $\mathdefault{10^{1}}$ -->
      <g transform="translate(44.032031 140.014949)scale(0.17 -0.17)">
       <defs>
        <path id="ArialMT-31" d="M 2384 0 
L 1822 0 
L 1822 3584 
Q 1619 3391 1289 3197 
Q 959 3003 697 2906 
L 697 3450 
Q 1169 3672 1522 3987 
Q 1875 4303 2022 4600 
L 2384 4600 
L 2384 0 
z
" transform="scale(0.015625)"/>
        <path id="ArialMT-30" d="M 266 2259 
Q 266 3072 433 3567 
Q 600 4063 929 4331 
Q 1259 4600 1759 4600 
Q 2128 4600 2406 4451 
Q 2684 4303 2865 4023 
Q 3047 3744 3150 3342 
Q 3253 2941 3253 2259 
Q 3253 1453 3087 958 
Q 2922 463 2592 192 
Q 2263 -78 1759 -78 
Q 1097 -78 719 397 
Q 266 969 266 2259 
z
M 844 2259 
Q 844 1131 1108 757 
Q 1372 384 1759 384 
Q 2147 384 2411 759 
Q 2675 1134 2675 2259 
Q 2675 3391 2411 3762 
Q 2147 4134 1753 4134 
Q 1366 4134 1134 3806 
Q 844 3388 844 2259 
z
" transform="scale(0.015625)"/>
       </defs>
       <use xlink:href="#ArialMT-31" transform="translate(0 0.99375)"/>
       <use xlink:href="#ArialMT-30" transform="translate(55.615234 0.99375)"/>
       <use xlink:href="#ArialMT-31" transform="translate(112.972813 70.6875)scale(0.7)"/>
      </g>
     </g>
    </g>
    <g id="xtick_2">
     <g id="line2d_5">
      <g>
       <use xlink:href="#mc476278edd" x="102.588186" y="116.483699" style="stroke: #000000"/>
      </g>
     </g>
     <g id="text_2">
      <!-- $\mathdefault{10^{2}}$ -->
      <g transform="translate(89.243186 140.014949)scale(0.17 -0.17)">
       <defs>
        <path id="ArialMT-32" d="M 3222 541 
L 3222 0 
L 194 0 
Q 188 203 259 391 
Q 375 700 629 1000 
Q 884 1300 1366 1694 
Q 2113 2306 2375 2664 
Q 2638 3022 2638 3341 
Q 2638 3675 2398 3904 
Q 2159 4134 1775 4134 
Q 1369 4134 1125 3890 
Q 881 3647 878 3216 
L 300 3275 
Q 359 3922 746 4261 
Q 1134 4600 1788 4600 
Q 2447 4600 2831 4234 
Q 3216 3869 3216 3328 
Q 3216 3053 3103 2787 
Q 2991 2522 2730 2228 
Q 2469 1934 1863 1422 
Q 1356 997 1212 845 
Q 1069 694 975 541 
L 3222 541 
z
" transform="scale(0.015625)"/>
       </defs>
       <use xlink:href="#ArialMT-31" transform="translate(0 0.99375)"/>
       <use xlink:href="#ArialMT-30" transform="translate(55.615234 0.99375)"/>
       <use xlink:href="#ArialMT-32" transform="translate(112.972813 70.6875)scale(0.7)"/>
      </g>
     </g>
    </g>
    <g id="xtick_3">
     <g id="line2d_6">
      <g>
       <use xlink:href="#mc476278edd" x="147.79934" y="116.483699" style="stroke: #000000"/>
      </g>
     </g>
     <g id="text_3">
      <!-- $\mathdefault{10^{3}}$ -->
      <g transform="translate(134.45434 140.014949)scale(0.17 -0.17)">
       <defs>
        <path id="ArialMT-33" d="M 269 1209 
L 831 1284 
Q 928 806 1161 595 
Q 1394 384 1728 384 
Q 2125 384 2398 659 
Q 2672 934 2672 1341 
Q 2672 1728 2419 1979 
Q 2166 2231 1775 2231 
Q 1616 2231 1378 2169 
L 1441 2663 
Q 1497 2656 1531 2656 
Q 1891 2656 2178 2843 
Q 2466 3031 2466 3422 
Q 2466 3731 2256 3934 
Q 2047 4138 1716 4138 
Q 1388 4138 1169 3931 
Q 950 3725 888 3313 
L 325 3413 
Q 428 3978 793 4289 
Q 1159 4600 1703 4600 
Q 2078 4600 2393 4439 
Q 2709 4278 2876 4000 
Q 3044 3722 3044 3409 
Q 3044 3113 2884 2869 
Q 2725 2625 2413 2481 
Q 2819 2388 3044 2092 
Q 3269 1797 3269 1353 
Q 3269 753 2831 336 
Q 2394 -81 1725 -81 
Q 1122 -81 723 278 
Q 325 638 269 1209 
z
" transform="scale(0.015625)"/>
       </defs>
       <use xlink:href="#ArialMT-31" transform="translate(0 0.99375)"/>
       <use xlink:href="#ArialMT-30" transform="translate(55.615234 0.99375)"/>
       <use xlink:href="#ArialMT-33" transform="translate(112.972813 70.6875)scale(0.7)"/>
      </g>
     </g>
    </g>
    <g id="xtick_4">
     <g id="line2d_7">
      <defs>
       <path id="mb5c22f839e" d="M 0 0 
L 0 3 
" style="stroke: #000000"/>
      </defs>
      <g>
       <use xlink:href="#mb5c22f839e" x="70.986945" y="116.483699" style="stroke: #000000"/>
      </g>
     </g>
    </g>
    <g id="xtick_5">
     <g id="line2d_8">
      <g>
       <use xlink:href="#mb5c22f839e" x="78.948234" y="116.483699" style="stroke: #000000"/>
      </g>
     </g>
    </g>
    <g id="xtick_6">
     <g id="line2d_9">
      <g>
       <use xlink:href="#mb5c22f839e" x="84.596859" y="116.483699" style="stroke: #000000"/>
      </g>
     </g>
    </g>
    <g id="xtick_7">
     <g id="line2d_10">
      <g>
       <use xlink:href="#mb5c22f839e" x="88.978272" y="116.483699" style="stroke: #000000"/>
      </g>
     </g>
    </g>
    <g id="xtick_8">
     <g id="line2d_11">
      <g>
       <use xlink:href="#mb5c22f839e" x="92.558148" y="116.483699" style="stroke: #000000"/>
      </g>
     </g>
    </g>
    <g id="xtick_9">
     <g id="line2d_12">
      <g>
       <use xlink:href="#mb5c22f839e" x="95.584889" y="116.483699" style="stroke: #000000"/>
      </g>
     </g>
    </g>
    <g id="xtick_10">
     <g id="line2d_13">
      <g>
       <use xlink:href="#mb5c22f839e" x="98.206772" y="116.483699" style="stroke: #000000"/>
      </g>
     </g>
    </g>
    <g id="xtick_11">
     <g id="line2d_14">
      <g>
       <use xlink:href="#mb5c22f839e" x="100.519437" y="116.483699" style="stroke: #000000"/>
      </g>
     </g>
    </g>
    <g id="xtick_12">
     <g id="line2d_15">
      <g>
       <use xlink:href="#mb5c22f839e" x="116.198099" y="116.483699" style="stroke: #000000"/>
      </g>
     </g>
    </g>
    <g id="xtick_13">
     <g id="line2d_16">
      <g>
       <use xlink:href="#mb5c22f839e" x="124.159389" y="116.483699" style="stroke: #000000"/>
      </g>
     </g>
    </g>
    <g id="xtick_14">
     <g id="line2d_17">
      <g>
       <use xlink:href="#mb5c22f839e" x="129.808013" y="116.483699" style="stroke: #000000"/>
      </g>
     </g>
    </g>
    <g id="xtick_15">
     <g id="line2d_18">
      <g>
       <use xlink:href="#mb5c22f839e" x="134.189427" y="116.483699" style="stroke: #000000"/>
      </g>
     </g>
    </g>
    <g id="xtick_16">
     <g id="line2d_19">
      <g>
       <use xlink:href="#mb5c22f839e" x="137.769302" y="116.483699" style="stroke: #000000"/>
      </g>
     </g>
    </g>
    <g id="xtick_17">
     <g id="line2d_20">
      <g>
       <use xlink:href="#mb5c22f839e" x="140.796044" y="116.483699" style="stroke: #000000"/>
      </g>
     </g>
    </g>
    <g id="xtick_18">
     <g id="line2d_21">
      <g>
       <use xlink:href="#mb5c22f839e" x="143.417927" y="116.483699" style="stroke: #000000"/>
      </g>
     </g>
    </g>
    <g id="xtick_19">
     <g id="line2d_22">
      <g>
       <use xlink:href="#mb5c22f839e" x="145.730591" y="116.483699" style="stroke: #000000"/>
      </g>
     </g>
    </g>
    <g id="xtick_20">
     <g id="line2d_23">
      <g>
       <use xlink:href="#mb5c22f839e" x="161.409254" y="116.483699" style="stroke: #000000"/>
      </g>
     </g>
    </g>
    <g id="text_4">
     <!-- Time (ms) -->
     <g transform="translate(73.663224 159.769168)scale(0.17 -0.17)">
      <defs>
       <path id="ArialMT-54" d="M 1659 0 
L 1659 4041 
L 150 4041 
L 150 4581 
L 3781 4581 
L 3781 4041 
L 2266 4041 
L 2266 0 
L 1659 0 
z
" transform="scale(0.015625)"/>
       <path id="ArialMT-69" d="M 425 3934 
L 425 4581 
L 988 4581 
L 988 3934 
L 425 3934 
z
M 425 0 
L 425 3319 
L 988 3319 
L 988 0 
L 425 0 
z
" transform="scale(0.015625)"/>
       <path id="ArialMT-6d" d="M 422 0 
L 422 3319 
L 925 3319 
L 925 2853 
Q 1081 3097 1340 3245 
Q 1600 3394 1931 3394 
Q 2300 3394 2536 3241 
Q 2772 3088 2869 2813 
Q 3263 3394 3894 3394 
Q 4388 3394 4653 3120 
Q 4919 2847 4919 2278 
L 4919 0 
L 4359 0 
L 4359 2091 
Q 4359 2428 4304 2576 
Q 4250 2725 4106 2815 
Q 3963 2906 3769 2906 
Q 3419 2906 3187 2673 
Q 2956 2441 2956 1928 
L 2956 0 
L 2394 0 
L 2394 2156 
Q 2394 2531 2256 2718 
Q 2119 2906 1806 2906 
Q 1569 2906 1367 2781 
Q 1166 2656 1075 2415 
Q 984 2175 984 1722 
L 984 0 
L 422 0 
z
" transform="scale(0.015625)"/>
       <path id="ArialMT-65" d="M 2694 1069 
L 3275 997 
Q 3138 488 2766 206 
Q 2394 -75 1816 -75 
Q 1088 -75 661 373 
Q 234 822 234 1631 
Q 234 2469 665 2931 
Q 1097 3394 1784 3394 
Q 2450 3394 2872 2941 
Q 3294 2488 3294 1666 
Q 3294 1616 3291 1516 
L 816 1516 
Q 847 969 1125 678 
Q 1403 388 1819 388 
Q 2128 388 2347 550 
Q 2566 713 2694 1069 
z
M 847 1978 
L 2700 1978 
Q 2663 2397 2488 2606 
Q 2219 2931 1791 2931 
Q 1403 2931 1139 2672 
Q 875 2413 847 1978 
z
" transform="scale(0.015625)"/>
       <path id="ArialMT-20" transform="scale(0.015625)"/>
       <path id="ArialMT-28" d="M 1497 -1347 
Q 1031 -759 709 28 
Q 388 816 388 1659 
Q 388 2403 628 3084 
Q 909 3875 1497 4659 
L 1900 4659 
Q 1522 4009 1400 3731 
Q 1209 3300 1100 2831 
Q 966 2247 966 1656 
Q 966 153 1900 -1347 
L 1497 -1347 
z
" transform="scale(0.015625)"/>
       <path id="ArialMT-73" d="M 197 991 
L 753 1078 
Q 800 744 1014 566 
Q 1228 388 1613 388 
Q 2000 388 2187 545 
Q 2375 703 2375 916 
Q 2375 1106 2209 1216 
Q 2094 1291 1634 1406 
Q 1016 1563 777 1677 
Q 538 1791 414 1992 
Q 291 2194 291 2438 
Q 291 2659 392 2848 
Q 494 3038 669 3163 
Q 800 3259 1026 3326 
Q 1253 3394 1513 3394 
Q 1903 3394 2198 3281 
Q 2494 3169 2634 2976 
Q 2775 2784 2828 2463 
L 2278 2388 
Q 2241 2644 2061 2787 
Q 1881 2931 1553 2931 
Q 1166 2931 1000 2803 
Q 834 2675 834 2503 
Q 834 2394 903 2306 
Q 972 2216 1119 2156 
Q 1203 2125 1616 2013 
Q 2213 1853 2448 1751 
Q 2684 1650 2818 1456 
Q 2953 1263 2953 975 
Q 2953 694 2789 445 
Q 2625 197 2315 61 
Q 2006 -75 1616 -75 
Q 969 -75 630 194 
Q 291 463 197 991 
z
" transform="scale(0.015625)"/>
       <path id="ArialMT-29" d="M 791 -1347 
L 388 -1347 
Q 1322 153 1322 1656 
Q 1322 2244 1188 2822 
Q 1081 3291 891 3722 
Q 769 4003 388 4659 
L 791 4659 
Q 1378 3875 1659 3084 
Q 1900 2403 1900 1659 
Q 1900 816 1576 28 
Q 1253 -759 791 -1347 
z
" transform="scale(0.015625)"/>
      </defs>
      <use xlink:href="#ArialMT-54"/>
      <use xlink:href="#ArialMT-69" x="57.333984"/>
      <use xlink:href="#ArialMT-6d" x="79.550781"/>
      <use xlink:href="#ArialMT-65" x="162.851562"/>
      <use xlink:href="#ArialMT-20" x="218.466797"/>
      <use xlink:href="#ArialMT-28" x="246.25"/>
      <use xlink:href="#ArialMT-6d" x="279.550781"/>
      <use xlink:href="#ArialMT-73" x="362.851562"/>
      <use xlink:href="#ArialMT-29" x="412.851562"/>
     </g>
    </g>
   </g>
   <g id="matplotlib.axis_2">
    <g id="ytick_1">
     <g id="line2d_24">
      <defs>
       <path id="m6eae4d0bf1" d="M 0 0 
L -6 0 
" style="stroke: #000000"/>
      </defs>
      <g>
       <use xlink:href="#m6eae4d0bf1" x="57.377031" y="116.483699" style="stroke: #000000"/>
      </g>
     </g>
     <g id="text_5">
      <!-- 0.0 -->
      <g transform="translate(26.747031 122.567839)scale(0.17 -0.17)">
       <defs>
        <path id="ArialMT-2e" d="M 581 0 
L 581 641 
L 1222 641 
L 1222 0 
L 581 0 
z
" transform="scale(0.015625)"/>
       </defs>
       <use xlink:href="#ArialMT-30"/>
       <use xlink:href="#ArialMT-2e" x="55.615234"/>
       <use xlink:href="#ArialMT-30" x="83.398438"/>
      </g>
     </g>
    </g>
    <g id="ytick_2">
     <g id="line2d_25">
      <g>
       <use xlink:href="#m6eae4d0bf1" x="57.377031" y="70.948824" style="stroke: #000000"/>
      </g>
     </g>
     <g id="text_6">
      <!-- 0.5 -->
      <g transform="translate(26.747031 77.032965)scale(0.17 -0.17)">
       <defs>
        <path id="ArialMT-35" d="M 266 1200 
L 856 1250 
Q 922 819 1161 601 
Q 1400 384 1738 384 
Q 2144 384 2425 690 
Q 2706 997 2706 1503 
Q 2706 1984 2436 2262 
Q 2166 2541 1728 2541 
Q 1456 2541 1237 2417 
Q 1019 2294 894 2097 
L 366 2166 
L 809 4519 
L 3088 4519 
L 3088 3981 
L 1259 3981 
L 1013 2750 
Q 1425 3038 1878 3038 
Q 2478 3038 2890 2622 
Q 3303 2206 3303 1553 
Q 3303 931 2941 478 
Q 2500 -78 1738 -78 
Q 1113 -78 717 272 
Q 322 622 266 1200 
z
" transform="scale(0.015625)"/>
       </defs>
       <use xlink:href="#ArialMT-30"/>
       <use xlink:href="#ArialMT-2e" x="55.615234"/>
       <use xlink:href="#ArialMT-35" x="83.398438"/>
      </g>
     </g>
    </g>
    <g id="ytick_3">
     <g id="line2d_26">
      <g>
       <use xlink:href="#m6eae4d0bf1" x="57.377031" y="25.41395" style="stroke: #000000"/>
      </g>
     </g>
     <g id="text_7">
      <!-- 1.0 -->
      <g transform="translate(26.747031 31.49809)scale(0.17 -0.17)">
       <use xlink:href="#ArialMT-31"/>
       <use xlink:href="#ArialMT-2e" x="55.615234"/>
       <use xlink:href="#ArialMT-30" x="83.398438"/>
      </g>
     </g>
    </g>
    <g id="text_8">
     <!-- DR-NED -->
     <g transform="translate(19.368281 94.896224)rotate(-90)scale(0.17 -0.17)">
      <defs>
       <path id="ArialMT-44" d="M 494 0 
L 494 4581 
L 2072 4581 
Q 2606 4581 2888 4516 
Q 3281 4425 3559 4188 
Q 3922 3881 4101 3404 
Q 4281 2928 4281 2316 
Q 4281 1794 4159 1391 
Q 4038 988 3847 723 
Q 3656 459 3429 307 
Q 3203 156 2883 78 
Q 2563 0 2147 0 
L 494 0 
z
M 1100 541 
L 2078 541 
Q 2531 541 2789 625 
Q 3047 709 3200 863 
Q 3416 1078 3536 1442 
Q 3656 1806 3656 2325 
Q 3656 3044 3420 3430 
Q 3184 3816 2847 3947 
Q 2603 4041 2063 4041 
L 1100 4041 
L 1100 541 
z
" transform="scale(0.015625)"/>
       <path id="ArialMT-52" d="M 503 0 
L 503 4581 
L 2534 4581 
Q 3147 4581 3465 4457 
Q 3784 4334 3975 4021 
Q 4166 3709 4166 3331 
Q 4166 2844 3850 2509 
Q 3534 2175 2875 2084 
Q 3116 1969 3241 1856 
Q 3506 1613 3744 1247 
L 4541 0 
L 3778 0 
L 3172 953 
Q 2906 1366 2734 1584 
Q 2563 1803 2427 1890 
Q 2291 1978 2150 2013 
Q 2047 2034 1813 2034 
L 1109 2034 
L 1109 0 
L 503 0 
z
M 1109 2559 
L 2413 2559 
Q 2828 2559 3062 2645 
Q 3297 2731 3419 2920 
Q 3541 3109 3541 3331 
Q 3541 3656 3305 3865 
Q 3069 4075 2559 4075 
L 1109 4075 
L 1109 2559 
z
" transform="scale(0.015625)"/>
       <path id="ArialMT-2d" d="M 203 1375 
L 203 1941 
L 1931 1941 
L 1931 1375 
L 203 1375 
z
" transform="scale(0.015625)"/>
       <path id="ArialMT-4e" d="M 488 0 
L 488 4581 
L 1109 4581 
L 3516 984 
L 3516 4581 
L 4097 4581 
L 4097 0 
L 3475 0 
L 1069 3600 
L 1069 0 
L 488 0 
z
" transform="scale(0.015625)"/>
       <path id="ArialMT-45" d="M 506 0 
L 506 4581 
L 3819 4581 
L 3819 4041 
L 1113 4041 
L 1113 2638 
L 3647 2638 
L 3647 2100 
L 1113 2100 
L 1113 541 
L 3925 541 
L 3925 0 
L 506 0 
z
" transform="scale(0.015625)"/>
      </defs>
      <use xlink:href="#ArialMT-44"/>
      <use xlink:href="#ArialMT-52" x="72.216797"/>
      <use xlink:href="#ArialMT-2d" x="144.433594"/>
      <use xlink:href="#ArialMT-4e" x="177.734375"/>
      <use xlink:href="#ArialMT-45" x="249.951172"/>
      <use xlink:href="#ArialMT-44" x="316.650391"/>
     </g>
    </g>
   </g>
   <g id="line2d_27">
    <path d="M 54.987518 57.555588 
L 64.071109 25.41395 
L 84.647924 25.41395 
L 87.045406 29.23775 
L 89.181745 50.284791 
L 91.108284 54.494198 
L 92.862572 50.284791 
L 94.472895 25.41395 
L 97.34442 25.41395 
L 98.636658 41.483301 
L 99.849078 44.162015 
L 100.990968 51.050142 
L 102.070082 26.176365 
L 103.092968 31.151118 
L 104.065194 25.41395 
L 108.313361 25.41395 
L 109.062877 40.717954 
L 109.784833 40.717954 
L 110.48118 43.396669 
L 111.153675 25.41395 
L 111.8039 25.41395 
L 112.433279 49.902115 
L 113.043108 47.988752 
L 113.634568 45.692708 
L 114.20873 25.41395 
L 117.816877 25.41395 
L 118.282183 43.013999 
L 118.736716 41.865971 
L 119.180964 49.902115 
L 119.615384 25.41395 
L 120.456409 25.41395 
L 120.863789 57.938258 
L 121.262888 66.357078 
L 121.654034 57.938258 
L 122.037542 25.41395 
L 122.413703 25.793684 
L 122.78279 25.41395 
L 124.530827 25.41395 
L 124.862506 49.519444 
L 125.188676 49.902115 
L 125.509516 55.642225 
L 125.825196 31.916459 
L 126.135883 25.41395 
L 126.44173 62.913017 
L 126.742884 56.024896 
L 127.039491 63.678363 
L 127.619591 25.41395 
L 129.263643 25.41395 
L 129.52475 67.5051 
L 129.782431 69.418468 
L 130.036772 65.209061 
L 130.287863 25.41395 
L 130.535783 27.707057 
L 130.78061 25.41395 
L 131.022423 76.30659 
L 131.261295 74.775898 
L 131.497293 70.566485 
L 131.730491 25.41395 
L 133.28964 25.41395 
L 133.502602 75.541244 
L 133.921721 73.245202 
L 134.127971 25.41395 
L 134.332079 25.41395 
L 134.534086 71.331834 
L 134.734037 73.245202 
L 134.931971 72.862526 
L 135.127929 59.851632 
L 135.321953 25.41395 
L 136.447474 25.41395 
L 136.628944 56.024896 
L 136.808751 55.642225 
L 136.98693 53.728851 
L 137.163503 25.41395 
L 137.51196 25.41395 
L 137.683895 48.371422 
L 137.854338 47.606076 
L 138.023316 46.075383 
L 138.19085 25.41395 
L 139.325197 25.41395 
L 139.482027 27.324376 
L 139.637614 33.829827 
L 139.791977 33.064481 
L 139.945137 25.41395 
L 142.781342 25.41395 
L 142.912945 29.23775 
L 143.04367 25.41395 
L 144.059279 25.41395 
L 144.182614 26.941706 
L 144.305179 25.41395 
L 154.616658 25.41395 
L 154.688793 26.559035 
L 154.760662 26.176365 
L 154.903619 25.41395 
L 163.341003 25.41395 
L 163.433467 26.176365 
L 163.571354 25.41395 
L 165.655211 25.41395 
L 165.655211 25.41395 
" clip-path="url(#p0ad2354952)" style="fill: none; stroke: #ff0000; stroke-width: 1.5; stroke-linecap: square"/>
   </g>
   <g id="line2d_28">
    <path d="M 98.001169 116.483699 
L 98.001169 7.2 
" clip-path="url(#p0ad2354952)" style="fill: none; stroke-dasharray: 10,3; stroke-dashoffset: 5; stroke: #000000"/>
   </g>
   <g id="patch_3">
    <path d="M 57.377031 116.483699 
L 57.377031 7.2 
" style="fill: none; stroke: #000000; stroke-linejoin: miter; stroke-linecap: square"/>
   </g>
   <g id="patch_4">
    <path d="M 165.790668 116.483699 
L 165.790668 7.2 
" style="fill: none; stroke: #000000; stroke-linejoin: miter; stroke-linecap: square"/>
   </g>
   <g id="patch_5">
    <path d="M 57.377031 116.483699 
L 165.790668 116.483699 
" style="fill: none; stroke: #000000; stroke-linejoin: miter; stroke-linecap: square"/>
   </g>
   <g id="patch_6">
    <path d="M 57.377031 7.2 
L 165.790668 7.2 
" style="fill: none; stroke: #000000; stroke-linejoin: miter; stroke-linecap: square"/>
   </g>
  </g>
 </g>
 <defs>
  <clipPath id="p0ad2354952">
   <rect x="57.377031" y="7.2" width="108.413636" height="109.283699"/>
  </clipPath>
 </defs>
</svg>
