<?xml version="1.0" encoding="utf-8" standalone="no"?>
<!DOCTYPE svg PUBLIC "-//W3C//DTD SVG 1.1//EN"
  "http://www.w3.org/Graphics/SVG/1.1/DTD/svg11.dtd">
<svg xmlns:xlink="http://www.w3.org/1999/xlink" width="172.990668pt" height="170.547136pt" viewBox="0 0 172.990668 170.547136" xmlns="http://www.w3.org/2000/svg" version="1.1">
 <metadata>
  <rdf:RDF xmlns:dc="http://purl.org/dc/elements/1.1/" xmlns:cc="http://creativecommons.org/ns#" xmlns:rdf="http://www.w3.org/1999/02/22-rdf-syntax-ns#">
   <cc:Work>
    <dc:type rdf:resource="http://purl.org/dc/dcmitype/StillImage"/>
    <dc:date>2024-08-16T06:10:04.838468</dc:date>
    <dc:format>image/svg+xml</dc:format>
    <dc:creator>
     <cc:Agent>
      <dc:title>Matplotlib v3.5.3, https://matplotlib.org/</dc:title>
     </cc:Agent>
    </dc:creator>
   </cc:Work>
  </rdf:RDF>
 </metadata>
 <defs>
  <style type="text/css">*{stroke-linejoin: round; stroke-linecap: butt}</style>
 </defs>
 <g id="figure_1">
  <g id="patch_1">
   <path d="M 0 170.547136 
L 172.990668 170.547136 
L 172.990668 0 
L 0 0 
z
" style="fill: #ffffff"/>
  </g>
  <g id="axes_1">
   <g id="patch_2">
    <path d="M 57.377031 116.483699 
L 165.790668 116.483699 
L 165.790668 7.2 
L 57.377031 7.2 
z
" style="fill: #ffffff"/>
   </g>
   <g id="line2d_1">
    <path d="M 57.336083 73.455254 
L 57.417894 69.933429 
L 57.580503 59.599586 
L 57.620947 59.769156 
L 57.661308 60.11346 
L 57.701582 60.089984 
L 57.741778 59.830701 
L 57.781889 59.886867 
L 57.86187 62.38295 
L 58.020857 70.052317 
L 58.060405 69.927268 
L 58.335024 62.67871 
L 58.373945 63.248718 
L 58.528854 71.299705 
L 58.567393 70.044902 
L 58.644243 68.58762 
L 58.682554 69.844374 
L 58.758956 71.772179 
L 58.797044 70.692701 
L 58.91087 67.111074 
L 58.948666 68.429894 
L 59.211219 78.49543 
L 59.248442 78.52348 
L 59.396633 76.593304 
L 59.507043 74.712958 
L 59.543711 75.176112 
L 59.653302 78.616756 
L 59.689696 77.902898 
L 59.834603 73.083966 
L 59.870665 73.329746 
L 59.906659 73.297758 
L 60.014248 71.647779 
L 60.049981 71.806097 
L 60.263019 77.119161 
L 60.298303 76.583142 
L 60.578306 64.902119 
L 60.647689 63.993545 
L 60.682287 64.392886 
L 60.820076 66.85735 
L 60.854374 66.744313 
L 60.956907 63.574349 
L 60.990967 64.073899 
L 61.126614 72.313575 
L 61.16038 71.056712 
L 61.261331 65.869351 
L 61.294866 66.300864 
L 61.561107 73.202499 
L 61.692887 77.16469 
L 61.758445 76.170609 
L 62.050782 67.037647 
L 62.11516 67.753233 
L 62.433915 75.558668 
L 62.497051 73.130358 
L 62.591374 67.290589 
L 62.654005 68.485055 
L 62.747579 70.340939 
L 62.778672 70.086759 
L 62.902552 65.730004 
L 62.9642 67.698142 
L 63.056311 72.751395 
L 63.117481 72.473494 
L 63.178458 72.137984 
L 63.269571 69.136404 
L 63.299848 69.522993 
L 63.420495 78.004975 
L 63.45054 76.697715 
L 63.570265 69.73441 
L 63.600083 70.203144 
L 63.748497 76.240733 
L 63.807549 75.135172 
L 63.837008 74.698557 
L 63.895796 75.280067 
L 64.071109 76.567444 
L 64.129201 75.38019 
L 64.474188 59.315648 
L 64.559495 43.89471 
L 64.616161 48.397168 
L 64.841206 76.358103 
L 64.869157 76.158748 
L 64.95277 64.634309 
L 65.036028 52.572508 
L 65.063702 55.212232 
L 65.228934 90.62148 
L 65.283703 82.283413 
L 65.365572 69.888288 
L 65.392787 74.719507 
L 65.501267 102.800489 
L 65.555283 98.216133 
L 65.823159 46.414308 
L 65.876298 57.277497 
L 66.00852 89.40154 
L 66.034859 87.527827 
L 66.296313 50.324737 
L 66.348188 53.028844 
L 66.579949 73.771095 
L 66.605531 73.656688 
L 66.809003 57.277464 
L 66.834291 58.650707 
L 67.035418 86.017805 
L 67.110315 80.400333 
L 67.135215 79.497082 
L 67.184923 80.804855 
L 67.209731 81.110073 
L 67.234508 80.174806 
L 67.382511 68.261718 
L 67.431598 70.309569 
L 67.650985 79.948475 
L 67.675209 79.547477 
L 67.795893 68.357536 
L 67.867948 72.291989 
L 67.93974 76.71851 
L 67.987454 74.910207 
L 68.129909 64.123224 
L 68.177165 65.180091 
L 68.27134 69.155006 
L 68.294812 68.235521 
L 68.48159 61.558909 
L 68.504813 61.434316 
L 68.551176 63.428445 
L 68.666608 76.545248 
L 68.735545 73.618482 
L 68.872693 67.744195 
L 68.895459 68.02747 
L 69.008889 74.674173 
L 69.054079 71.842596 
L 69.099164 69.738785 
L 69.144148 71.230227 
L 69.30078 84.449658 
L 69.345305 80.91442 
L 69.456174 67.972342 
L 69.500346 71.263765 
L 69.544421 73.186038 
L 69.610347 71.537247 
L 69.719734 67.570255 
L 69.763318 69.062136 
L 69.828516 74.231199 
L 69.871858 71.726837 
L 69.915108 68.526434 
L 69.979803 71.474288 
L 70.022815 72.587144 
L 70.044286 71.381192 
L 70.236473 62.574304 
L 70.278928 63.745608 
L 70.489831 75.740501 
L 70.510798 75.236188 
L 70.594439 71.746789 
L 70.636126 73.70225 
L 70.698494 76.297102 
L 70.739961 74.741467 
L 70.801999 72.845808 
L 70.863841 73.639663 
L 70.904961 73.068792 
L 71.027808 66.512704 
L 71.088944 69.875896 
L 71.149893 72.654725 
L 71.210649 71.001945 
L 71.251051 70.358276 
L 71.311496 71.252265 
L 71.451818 67.854919 
L 71.491728 68.750455 
L 71.571303 72.855285 
L 71.630771 71.52122 
L 71.690063 70.030116 
L 71.749173 70.527576 
L 71.827714 71.615359 
L 71.886413 71.076699 
L 71.905941 71.005169 
L 71.925448 71.278483 
L 72.003288 73.905798 
L 72.061466 72.569923 
L 72.292468 68.414602 
L 72.330705 69.385205 
L 72.425974 75.482961 
L 72.463953 72.969692 
L 72.520784 70.4444 
L 72.577451 71.793281 
L 72.615139 72.12557 
L 72.671532 71.656863 
L 72.783841 68.331752 
L 72.858356 69.824388 
L 72.876941 69.837486 
L 72.895509 69.71767 
L 72.988083 68.344329 
L 73.02499 69.357857 
L 73.116957 71.581017 
L 73.153625 71.08965 
L 73.244992 69.127415 
L 73.29961 70.01325 
L 73.480579 72.1586 
L 73.516573 72.368095 
L 73.624162 74.106212 
L 73.659895 73.479936 
L 73.71337 72.24851 
L 73.748942 73.173461 
L 73.802176 74.364982 
L 73.855269 73.174229 
L 73.908217 71.465853 
L 73.978592 72.377551 
L 74.031211 71.218988 
L 74.118594 67.618972 
L 74.170836 68.94189 
L 74.240279 73.505543 
L 74.27491 71.984795 
L 74.378434 56.218893 
L 74.42999 61.570069 
L 74.515621 77.22969 
L 74.56682 72.767384 
L 74.617887 69.026597 
L 74.651857 71.850754 
L 74.702703 77.744113 
L 74.753419 73.511001 
L 74.804001 67.206816 
L 74.854456 71.213044 
L 75.021705 77.975576 
L 75.038352 79.108836 
L 75.088208 75.188814 
L 75.137936 71.209553 
L 75.187542 74.7983 
L 75.204049 75.742418 
L 75.23702 73.333684 
L 75.3028 62.705123 
L 75.351989 69.624397 
L 75.417385 83.77902 
L 75.466289 78.709548 
L 75.579926 55.257579 
L 75.628428 63.162898 
L 75.741134 73.786101 
L 75.773218 71.123756 
L 75.853197 58.197248 
L 75.901029 63.546817 
L 76.012184 76.418888 
L 76.075421 72.748231 
L 76.138455 71.796405 
L 76.169896 72.112936 
L 76.263918 80.479332 
L 76.357493 76.978588 
L 76.373045 76.448249 
L 76.404113 77.806054 
L 76.450623 79.966692 
L 76.497023 77.237838 
L 76.63557 63.183558 
L 76.742656 63.840796 
L 76.757906 63.746444 
L 76.773144 64.040038 
L 76.939994 69.249408 
L 76.970178 67.151584 
L 77.000315 64.996852 
L 77.030408 68.518357 
L 77.07546 75.21311 
L 77.105436 67.943138 
L 77.135367 58.323279 
L 77.195094 73.815753 
L 77.209996 75.918019 
L 77.23977 70.431779 
L 77.269498 64.843191 
L 77.314003 76.701289 
L 77.34362 82.754676 
L 77.402716 75.053826 
L 77.417463 75.147494 
L 77.491029 88.036651 
L 77.549685 79.577237 
L 77.71009 67.690006 
L 77.854785 63.347038 
L 77.897986 54.397337 
L 77.941093 64.727278 
L 77.984104 80.523675 
L 78.055582 70.151224 
L 78.084101 66.7636 
L 78.126801 73.746706 
L 78.141013 74.770703 
L 78.169409 68.993518 
L 78.211923 57.876269 
L 78.268469 69.274198 
L 78.352981 68.117203 
L 78.42313 80.878879 
L 78.479071 71.659159 
L 78.548772 77.393594 
L 78.562683 77.398173 
L 78.77017 70.494084 
L 78.797668 72.293078 
L 78.838847 77.591039 
L 78.879938 68.781233 
L 78.907285 66.532457 
L 78.948234 68.794439 
L 78.989098 67.253254 
L 79.043451 69.348423 
L 79.070571 66.744862 
L 79.111181 63.034592 
L 79.178678 65.981204 
L 79.19215 65.953075 
L 79.219066 65.538042 
L 79.232509 66.066963 
L 79.326361 76.160322 
L 79.366445 71.235847 
L 79.393123 67.912024 
L 79.44637 74.281189 
L 79.45966 74.755021 
L 79.512727 73.145929 
L 79.565652 70.286141 
L 79.57886 69.986891 
L 79.592061 71.269746 
L 79.644772 84.191279 
L 79.697343 73.25094 
L 79.815113 67.256587 
L 79.749772 73.270967 
L 79.841189 68.655435 
L 79.854213 69.183824 
L 79.893235 67.183448 
L 79.906227 66.618076 
L 79.945146 68.970443 
L 79.971051 70.512198 
L 80.03566 68.336013 
L 80.074323 63.929753 
L 80.100058 61.413732 
L 80.138596 69.932278 
L 80.291995 77.819397 
L 80.304723 79.099389 
L 80.342864 74.550349 
L 80.380926 68.632566 
L 80.444204 74.531711 
L 80.507279 66.015895 
L 80.620305 70.106061 
L 80.632822 70.924278 
L 80.670329 67.023751 
L 80.707765 62.047288 
L 80.757567 68.087962 
L 80.844422 91.087655 
L 80.930892 77.458572 
L 81.090476 60.317848 
L 81.13932 54.197341 
L 81.175873 62.431842 
L 81.285123 73.787342 
L 81.30932 71.39827 
L 81.333486 69.753995 
L 81.357623 74.168083 
L 81.393773 83.246822 
L 81.453872 69.909681 
L 81.549653 85.233683 
L 81.585451 78.02171 
L 81.644969 57.27804 
L 81.716154 67.374617 
L 81.763466 77.795247 
L 81.834223 69.866765 
L 81.869506 63.734382 
L 81.91645 75.5528 
L 82.033327 65.038247 
L 82.056619 61.325443 
L 82.126327 65.40149 
L 82.276521 86.66489 
L 82.322506 79.856332 
L 82.402718 59.331249 
L 82.448409 71.791348 
L 82.516744 79.708178 
L 82.562169 72.866191 
L 82.607488 68.320033 
L 82.663992 72.417014 
L 82.686549 73.70409 
L 82.731582 68.850252 
L 82.866069 63.052174 
L 82.910693 71.656968 
L 82.932968 74.899866 
L 82.977443 66.776117 
L 82.999641 62.783843 
L 83.043963 74.384691 
L 83.055027 75.62354 
L 83.088187 69.792427 
L 83.11026 67.307965 
L 83.165337 75.156416 
L 83.176334 74.410198 
L 83.19831 77.331699 
L 83.231227 89.779968 
L 83.285966 72.778205 
L 83.329648 67.26841 
L 83.373232 73.914204 
L 83.394989 76.447223 
L 83.43843 67.216397 
L 83.460113 63.406156 
L 83.525022 70.845038 
L 83.568177 68.343759 
L 83.589717 70.70682 
L 83.621985 73.669157 
L 83.6542 65.42906 
L 83.675648 59.743514 
L 83.718471 68.075048 
L 83.761204 65.602338 
L 83.793189 70.325794 
L 83.878236 68.108138 
L 83.888842 67.66224 
L 83.910033 69.676785 
L 84.015656 79.912858 
L 84.047232 76.192327 
L 84.183476 69.772158 
L 84.099745 78.161215 
L 84.193917 70.075121 
L 84.204352 70.464169 
L 84.225208 68.225159 
L 84.256449 61.614559 
L 84.298026 73.111835 
L 84.329153 78.154549 
L 84.380918 69.254505 
L 84.422233 60.054402 
L 84.473755 69.74309 
L 84.484044 69.655284 
L 84.494325 69.524796 
L 84.504603 70.126249 
L 84.535403 73.984393 
L 84.566155 66.607654 
L 84.596859 61.410709 
L 84.647924 69.202335 
L 84.6785 63.992519 
L 84.698858 66.828711 
L 84.749661 82.0209 
L 84.820563 76.514641 
L 84.881135 63.630579 
L 84.931467 75.568336 
L 84.97164 84.211252 
L 85.031749 74.053632 
L 85.071716 67.692047 
L 85.091671 64.336514 
L 85.141469 70.273808 
L 85.161353 70.164165 
L 85.210972 73.324937 
L 85.240685 69.277754 
L 85.299977 60.320328 
L 85.339402 68.851522 
L 85.437627 75.016024 
L 85.457214 70.33969 
L 85.506092 60.135716 
L 85.56459 70.42881 
L 85.622909 77.716272 
L 85.71973 82.529076 
L 85.739036 79.925224 
L 85.777592 63.02588 
L 85.825684 81.493335 
L 85.86407 72.071242 
L 86.06438 58.399941 
L 86.08335 61.062339 
L 86.168493 77.627641 
L 86.206217 70.446419 
L 86.234462 67.174421 
L 86.290829 71.54238 
L 86.318954 78.818225 
L 86.365738 65.772582 
L 86.412409 76.269076 
L 86.440359 70.013071 
L 86.477564 84.402389 
L 86.486855 85.526975 
L 86.505423 77.792714 
L 86.542503 63.092598 
L 86.597997 81.672552 
L 86.60723 81.07203 
L 86.690136 60.425749 
L 86.781845 64.797328 
L 86.900431 79.377092 
L 86.936775 71.638236 
L 87.036375 65.184781 
L 87.054431 67.43373 
L 87.180354 78.714878 
L 87.198277 76.994558 
L 87.323284 66.945281 
L 87.269809 78.722972 
L 87.341078 69.253012 
L 87.447501 75.65523 
L 87.403229 60.721976 
L 87.456343 75.214055 
L 87.491674 55.857767 
L 87.55335 75.231745 
L 87.579723 68.436939 
L 87.606061 71.218597 
L 87.632364 66.971369 
L 87.641125 66.640326 
L 87.676122 68.77245 
L 87.728507 98.474962 
L 87.780749 72.659225 
L 87.832856 43.501976 
L 87.884824 75.051991 
L 87.919392 93.061439 
L 87.971131 67.431868 
L 88.014142 63.539538 
L 88.048484 71.371897 
L 88.05706 71.284973 
L 88.091328 60.376868 
L 88.159682 70.50868 
L 88.210794 78.564436 
L 88.253284 71.6897 
L 88.278734 58.66266 
L 88.329536 86.542496 
L 88.337991 86.597041 
L 88.46437 60.113623 
L 88.506315 74.298769 
L 88.514693 76.182203 
L 88.556532 65.761693 
L 88.598283 71.226796 
L 88.631618 65.795582 
L 88.664897 77.726895 
L 88.681517 81.567436 
L 88.756127 71.668921 
L 88.896289 58.565474 
L 88.904503 61.306585 
L 89.002801 85.957354 
L 89.027298 71.358014 
L 89.051766 57.752767 
L 89.092476 80.182506 
L 89.133104 69.570854 
L 89.173646 90.459848 
L 89.20602 66.45548 
L 89.238342 52.335676 
L 89.310869 69.559753 
L 89.367096 77.123352 
L 89.399152 66.976042 
L 89.415162 64.600997 
L 89.455128 76.606478 
L 89.495012 68.564361 
L 89.526859 75.34482 
L 89.590405 64.640709 
L 89.606258 63.155423 
L 89.630015 70.794409 
L 89.661645 83.895473 
L 89.7405 75.381856 
L 89.842542 59.803435 
L 89.795512 75.670977 
L 89.866014 68.657264 
L 89.951841 75.293206 
L 89.912876 66.888882 
L 89.975184 71.43589 
L 90.037297 55.995035 
L 90.08375 68.541258 
L 90.130097 82.745283 
L 90.222459 79.874761 
L 90.253152 66.781165 
L 90.268479 61.166321 
L 90.314391 79.224264 
L 90.337308 77.824399 
L 90.360197 80.933164 
L 90.390672 75.16541 
L 90.413501 75.773939 
L 90.459075 54.678685 
L 90.549908 59.63539 
L 90.58763 81.813671 
L 90.670367 65.668508 
L 90.700367 60.772973 
L 90.722837 68.084564 
L 90.752758 86.176243 
L 90.834802 71.454842 
L 90.864553 67.383069 
L 90.886836 72.90171 
L 90.916507 82.131491 
L 90.975716 67.596217 
L 91.005252 61.572387 
L 91.049475 71.652254 
L 91.086252 67.359657 
L 91.130292 78.867019 
L 91.174236 66.461674 
L 91.225378 54.933696 
L 91.261827 73.326012 
L 91.312741 84.616884 
L 91.349029 66.120876 
L 91.370769 55.122803 
L 91.421402 78.184208 
L 91.443062 76.358258 
L 91.47911 88.122468 
L 91.51509 71.666837 
L 91.65836 56.838411 
L 91.543829 74.695381 
L 91.67263 60.704068 
L 91.750927 76.862938 
L 91.786414 65.979657 
L 91.793505 65.920061 
L 91.828914 74.331837 
L 91.906592 66.567751 
L 91.920683 65.121706 
L 91.955865 75.549237 
L 92.019034 81.547574 
L 92.040045 74.728157 
L 92.075014 56.475228 
L 92.130834 76.640475 
L 92.144765 75.57672 
L 92.283529 58.164033 
L 92.297351 64.72223 
L 92.318066 78.754732 
L 92.352544 62.051093 
L 92.414452 74.891727 
L 92.469317 66.525628 
L 92.510366 77.849073 
L 92.530858 84.24707 
L 92.564965 58.98745 
L 92.571778 57.249287 
L 92.599011 76.980518 
L 92.612614 80.686059 
L 92.687258 70.688082 
L 92.714332 58.486385 
L 92.748122 75.138785 
L 92.808795 64.155153 
L 92.875992 77.440298 
L 92.916201 64.063775 
L 92.922894 63.596344 
L 92.983032 65.987338 
L 93.049636 83.789133 
L 93.096126 66.497711 
L 93.116016 61.65559 
L 93.175566 77.301003 
L 93.182171 77.762933 
L 93.201974 71.851381 
L 93.261265 57.978058 
L 93.313818 69.280994 
L 93.346591 78.367898 
L 93.418502 67.3363 
L 93.431548 65.428208 
L 93.464127 70.135488 
L 93.509647 69.212084 
L 93.55506 85.147912 
L 93.600367 66.907322 
L 93.613295 64.801155 
L 93.645574 69.306778 
L 93.690673 69.261675 
L 93.722825 79.617994 
L 93.780566 64.821212 
L 93.793375 62.563399 
L 93.83175 74.48949 
L 93.863671 69.487319 
L 93.908272 80.644346 
L 93.933715 67.977867 
L 93.952778 60.329068 
L 94.016176 71.471482 
L 94.035156 70.546075 
L 94.041477 70.493557 
L 94.054118 71.282758 
L 94.129783 80.145062 
L 94.091987 69.929325 
L 94.180063 73.399238 
L 94.236479 61.661056 
L 94.305209 69.093782 
L 94.361264 77.431865 
L 94.379911 67.031687 
L 94.398546 57.690315 
L 94.472895 79.341936 
L 94.571597 85.51547 
L 94.516138 69.602847 
L 94.583899 82.53357 
L 94.730932 51.555983 
L 94.743134 61.228924 
L 94.797955 83.251306 
L 94.840489 57.915645 
L 94.852623 60.906045 
L 94.979593 80.509988 
L 94.949435 58.843239 
L 94.991645 77.089171 
L 95.051781 64.430525 
L 95.093769 76.947354 
L 95.11772 84.47973 
L 95.165538 66.595543 
L 95.189402 70.187848 
L 95.213239 72.626238 
L 95.254883 62.744792 
L 95.266764 59.817901 
L 95.320144 76.820959 
L 95.326067 77.519663 
L 95.349737 70.317201 
L 95.402894 60.733538 
L 95.444136 77.718937 
L 95.45002 77.769609 
L 95.590733 56.129231 
L 95.497037 85.924375 
L 95.608251 63.410798 
L 95.654889 80.11527 
L 95.718839 66.674968 
L 95.788362 54.972741 
L 95.817259 71.135437 
L 95.880681 84.49767 
L 95.915189 66.940792 
L 95.972568 61.774896 
L 95.995471 75.6488 
L 96.035491 82.542008 
L 96.098212 72.18931 
L 96.262619 60.495528 
L 96.273906 61.773202 
L 96.397645 89.865701 
L 96.448041 74.195777 
L 96.464809 71.383749 
L 96.487148 59.979623 
L 96.542882 74.183694 
L 96.570689 73.579111 
L 96.620644 60.194726 
L 96.681529 69.875955 
L 96.70914 84.253353 
L 96.775251 59.777098 
L 96.780751 58.994723 
L 96.813714 69.211872 
L 96.8521 83.129541 
L 96.934106 72.825867 
L 96.972259 63.532003 
L 97.010336 73.5603 
L 97.064607 66.591706 
L 97.221149 76.59269 
L 97.280201 73.067573 
L 97.312337 67.033711 
L 97.317688 65.892572 
L 97.387116 74.494981 
L 97.397777 79.224964 
L 97.472231 60.115404 
L 97.482844 57.717679 
L 97.546407 74.560545 
L 97.562263 78.504984 
L 97.630835 67.652801 
L 97.646625 62.819376 
L 97.683419 79.914142 
L 97.714903 77.608506 
L 97.730625 73.981931 
L 97.762033 64.107955 
L 97.824696 74.620871 
L 97.850748 68.210579 
L 97.866363 74.320191 
L 97.923508 65.715684 
L 97.975316 73.835704 
L 97.990832 75.216169 
L 97.996002 75.07892 
" clip-path="url(#p56ac7ed0c3)" style="fill: none; stroke: #c0c0c0; stroke-linecap: square"/>
   </g>
   <g id="line2d_2">
    <path d="M 98.001168 71.158876 
L 98.052772 78.578617 
L 98.063077 79.68022 
L 98.093958 68.258151 
L 98.109378 65.029318 
L 98.196544 71.751001 
L 98.216997 74.906909 
L 98.273133 66.296386 
L 98.288413 58.223585 
L 98.349425 80.234769 
L 98.359574 79.38449 
L 98.475922 67.995927 
L 98.491049 71.424159 
L 98.501125 73.080292 
L 98.546407 66.480884 
L 98.591586 68.576661 
L 98.60662 65.612424 
L 98.666653 75.507418 
L 98.676639 77.253938 
L 98.731478 70.288638 
L 98.756354 71.10758 
L 98.86544 66.400292 
L 98.83575 75.117401 
L 98.875324 68.146494 
L 98.934541 76.307613 
L 98.90002 67.942633 
L 98.99849 72.280278 
L 99.076913 74.95161 
L 99.130648 62.460193 
L 99.208544 78.582995 
L 99.290972 69.975047 
L 99.392322 62.281845 
L 99.324814 75.221201 
L 99.406756 67.720794 
L 99.425988 77.448997 
L 99.493148 66.434288 
L 99.521861 71.665249 
L 99.54098 81.052269 
L 99.569624 62.458999 
L 99.622027 66.894783 
L 99.792563 81.217112 
L 99.669547 64.679646 
L 99.797278 79.139145 
L 99.910123 61.468519 
L 99.919497 63.988557 
L 100.036303 82.439383 
L 99.989663 62.492708 
L 100.045618 78.179537 
L 100.096769 64.11043 
L 100.147786 81.781922 
L 100.157049 80.724426 
L 100.249427 65.329361 
L 100.286256 72.154 
L 100.341372 66.431075 
L 100.391758 72.099004 
L 100.41005 77.765527 
L 100.469376 65.732446 
L 100.510345 76.673052 
L 100.619176 62.536926 
L 100.551228 80.240919 
L 100.659833 69.000119 
L 100.758862 79.372532 
L 100.695901 63.453333 
L 100.772328 72.725856 
L 100.852929 66.798606 
L 100.875259 73.609137 
L 100.884183 71.882686 
L 100.955436 67.664146 
L 100.906478 76.013783 
L 100.97321 72.690621 
L 100.986531 76.127873 
L 101.013143 62.028441 
L 101.048567 63.84401 
L 101.057414 61.855939 
L 101.088345 81.544377 
L 101.158866 63.068763 
L 101.299147 77.64658 
L 101.19842 59.645323 
L 101.316612 74.58317 
L 101.373265 86.777004 
L 101.399358 69.665879 
L 101.47743 60.736795 
L 101.455773 72.115376 
L 101.507708 67.83382 
L 101.537937 78.128097 
L 101.568122 65.839392 
L 101.619759 68.558639 
L 101.692679 65.667227 
L 101.675547 74.015491 
L 101.70552 72.115153 
L 101.718353 81.295462 
L 101.765331 69.637343 
L 101.807941 70.101171 
L 101.833463 58.091192 
L 101.858952 71.775436 
L 101.92253 65.235231 
L 102.028038 83.649088 
L 102.05748 77.918228 
L 102.153904 60.401995 
L 102.191507 70.755527 
L 102.195681 70.951853 
L 102.233202 68.058313 
L 102.274811 64.769846 
L 102.287276 71.295438 
L 102.337059 79.581178 
L 102.394978 68.819382 
L 102.436246 79.126942 
L 102.44449 80.529133 
L 102.485654 65.723908 
L 102.522628 61.879258 
L 102.551336 70.462264 
L 102.592277 66.607295 
L 102.600454 66.559365 
L 102.604542 66.878357 
L 102.730837 80.305058 
L 102.747075 75.402377 
L 102.819977 60.483467 
L 102.844218 80.850965 
L 102.848256 81.246823 
L 102.856327 74.804075 
L 102.89261 64.91689 
L 102.960961 75.628385 
L 102.968988 79.362655 
L 102.993045 65.560731 
L 103.065041 73.936723 
L 103.112893 60.500723 
L 103.164601 76.978504 
L 103.176512 79.94736 
L 103.239928 66.736231 
L 103.24784 68.137934 
L 103.263656 64.917226 
L 103.271559 67.781807 
L 103.385797 79.248626 
L 103.346479 65.303615 
L 103.389723 78.056399 
L 103.436792 64.956716 
L 103.491562 82.742808 
L 103.499373 81.950879 
L 103.62394 63.071097 
L 103.643334 69.013933 
L 103.689798 67.852428 
L 103.766994 77.73403 
L 103.905188 60.344468 
L 103.909012 60.885885 
L 103.962483 78.77338 
L 104.023414 65.55532 
L 104.046215 73.857905 
L 104.076574 84.078018 
L 104.1031 63.123777 
L 104.156044 73.562984 
L 104.246476 64.67926 
L 104.216379 74.580288 
L 104.280281 68.005877 
L 104.325264 63.542605 
L 104.343977 73.615749 
L 104.407464 82.641238 
L 104.385081 65.244458 
L 104.440995 72.123778 
L 104.455877 61.977519 
L 104.51159 79.78176 
L 104.559747 64.971318 
L 104.607785 72.928661 
L 104.585629 61.752939 
L 104.685139 68.473265 
L 104.688817 68.082414 
L 104.703513 74.765804 
L 104.718197 82.335485 
L 104.769512 68.391191 
L 104.813389 76.278914 
L 104.817042 76.271508 
L 104.868098 62.3562 
L 104.962567 69.149318 
L 105.034928 82.816362 
L 105.006015 65.45124 
L 105.074612 72.474881 
L 105.171682 65.092415 
L 105.11062 80.145152 
L 105.189606 69.54475 
L 105.211092 71.175068 
L 105.236129 62.621502 
L 105.250422 61.95915 
L 105.261135 67.439593 
L 105.357289 83.135675 
L 105.378592 73.854936 
L 105.399874 64.132132 
L 105.495352 70.943407 
L 105.607914 79.724354 
L 105.562263 64.964392 
L 105.614927 77.654524 
L 105.635953 63.767136 
L 105.733779 69.495125 
L 105.831119 79.709277 
L 105.789462 67.106715 
L 105.844986 71.832399 
L 105.917626 61.048052 
L 105.941779 80.327327 
L 105.945226 81.954286 
L 106.010625 66.52552 
L 106.041527 78.223579 
L 106.127113 61.549046 
L 106.157832 71.309087 
L 106.181691 76.53995 
L 106.205524 65.334545 
L 106.280232 75.344643 
L 106.395136 60.28935 
L 106.314098 78.208233 
L 106.408611 64.849352 
L 106.482552 75.834241 
L 106.532808 73.142102 
L 106.5395 73.852418 
L 106.559558 62.314794 
L 106.5629 61.973329 
L 106.582935 70.206038 
L 106.606285 84.878957 
L 106.65955 67.728035 
L 106.682808 67.758059 
L 106.692768 61.619905 
L 106.755727 73.082802 
L 106.78548 71.60732 
L 106.831671 77.421465 
L 106.874467 67.789862 
L 106.897473 73.973265 
L 106.949955 64.65752 
L 106.976143 75.04729 
L 107.038202 70.879789 
L 107.061016 81.266166 
L 107.093563 65.0334 
L 107.145522 71.769728 
L 107.223209 66.047737 
L 107.197347 73.462248 
L 107.255488 70.819672 
L 107.27483 79.249266 
L 107.307023 64.540206 
L 107.358423 66.825497 
L 107.435272 77.294872 
L 107.41289 66.436498 
L 107.505456 71.360042 
L 107.518186 65.961087 
L 107.607091 77.163016 
L 107.648231 59.377573 
L 107.695593 80.148287 
L 107.733401 70.944281 
L 107.739696 70.642393 
L 107.774277 74.990414 
L 107.868285 81.628204 
L 107.811936 55.772404 
L 107.880786 75.556592 
L 107.958733 63.179725 
L 107.983612 79.398829 
L 107.996041 73.866316 
L 108.014664 62.694066 
L 108.04257 80.109128 
L 108.104443 73.676143 
L 108.107531 73.774586 
L 108.113707 70.946528 
L 108.122966 66.728588 
L 108.169199 76.432931 
L 108.227604 68.254645 
L 108.362196 78.968768 
L 108.322524 66.77825 
L 108.371339 74.337048 
L 108.386566 61.561465 
L 108.456472 75.122381 
L 108.483757 71.241615 
L 108.538215 66.220771 
L 108.556332 74.704924 
L 108.601558 67.220805 
L 108.610589 66.533961 
L 108.628643 75.101865 
L 108.64968 81.925942 
L 108.691696 68.190229 
L 108.727633 69.346789 
L 108.730627 69.355344 
L 108.849933 73.697332 
L 108.763507 59.24734 
L 108.855878 73.126008 
L 108.983293 62.972081 
L 108.909317 78.398334 
L 108.998054 69.264031 
L 109.115754 83.593802 
L 109.033438 61.047553 
L 109.124553 77.620926 
L 109.13921 67.795106 
L 109.244413 68.224415 
L 109.328752 60.519011 
L 109.296804 75.304393 
L 109.340356 67.689257 
L 109.35775 84.799276 
L 109.424284 61.231226 
L 109.456026 77.054789 
L 109.565286 59.865908 
L 109.542333 78.555132 
L 109.576751 69.134167 
L 109.628263 80.62474 
L 109.665382 63.090329 
L 109.688191 70.755022 
L 109.773487 63.578192 
L 109.710974 76.83999 
L 109.790501 70.782065 
L 109.909193 78.252861 
L 109.844283 69.080738 
L 109.91201 77.765755 
L 110.027172 63.250645 
L 110.043968 67.29098 
L 110.077518 77.834408 
L 110.161142 71.80259 
L 110.191714 63.241797 
L 110.211146 73.6125 
L 110.272089 68.673548 
L 110.294205 78.303335 
L 110.365906 67.380219 
L 110.376913 59.547062 
L 110.464752 76.619557 
L 110.467492 77.044424 
L 110.497593 66.073331 
L 110.535834 70.443374 
L 110.631117 63.946841 
L 110.568555 78.543174 
L 110.647405 69.566859 
L 110.66639 78.057167 
L 110.728642 68.304942 
L 110.758344 70.590374 
L 110.790698 62.725962 
L 110.812235 76.875718 
L 110.865978 70.436296 
L 110.892794 78.600468 
L 110.940971 67.576719 
L 110.975694 70.236701 
L 111.036973 76.653755 
L 111.005027 66.262682 
L 111.066214 67.281692 
L 111.071525 66.71853 
L 111.092758 78.971843 
L 111.137802 72.805729 
L 111.148385 76.821418 
L 111.177461 63.723797 
L 111.240748 67.995379 
L 111.35363 78.6751 
L 111.290708 62.319674 
L 111.364099 72.335974 
L 111.450246 57.848281 
L 111.413745 76.610375 
L 111.468471 75.047402 
L 111.476276 79.911482 
L 111.504871 65.691274 
L 111.577468 73.575754 
L 111.587816 63.507197 
L 111.608499 75.969777 
L 111.688436 72.127296 
L 111.73727 77.204978 
L 111.714152 69.760373 
L 111.755231 71.025177 
L 111.765486 65.944743 
L 111.791102 76.083801 
L 111.860101 73.07508 
L 111.959339 78.164249 
L 111.916142 64.29849 
L 111.972024 75.658482 
L 112.058077 63.68992 
L 112.085835 74.059706 
L 112.18896 66.998591 
L 112.17139 75.773054 
L 112.204006 72.3403 
L 112.234063 74.694963 
L 112.289048 67.293868 
L 112.296534 64.608238 
L 112.37621 79.003361 
L 112.383663 84.298263 
L 112.450613 64.295862 
L 112.480296 73.203044 
L 112.549382 75.841384 
L 112.527201 67.831307 
L 112.566615 70.18059 
L 112.647655 62.231026 
L 112.625586 76.697707 
L 112.667251 71.28073 
L 112.760064 75.295483 
L 112.694162 69.385036 
L 112.772244 70.169501 
L 112.794149 63.895577 
L 112.811168 74.314334 
L 112.86941 73.447285 
L 112.920231 75.618291 
L 112.956451 69.93484 
L 113.01186 62.841626 
L 113.033499 74.386914 
L 113.064713 70.225367 
L 113.122209 80.815193 
L 113.138946 63.308487 
L 113.143727 60.312593 
L 113.179537 76.129648 
L 113.243832 67.50694 
L 113.317393 74.950829 
L 113.35998 70.474222 
L 113.362345 70.50715 
L 113.38832 69.330027 
L 113.428399 64.791879 
L 113.45429 77.559653 
L 113.461343 81.530741 
L 113.550487 65.603364 
L 113.566865 64.839136 
L 113.578553 71.393642 
L 113.681123 76.23084 
L 113.608915 68.34136 
L 113.692744 75.592977 
L 113.755384 63.819046 
L 113.815516 72.893139 
L 113.907666 76.160265 
L 113.873158 65.933262 
L 113.916856 70.633984 
L 113.923747 67.826307 
L 113.96504 75.214801 
L 114.02225 73.084846 
L 114.133896 77.255278 
L 114.09068 65.198878 
L 114.138438 76.092541 
L 114.177016 76.377694 
L 114.274258 63.908621 
L 114.276515 63.794347 
L 114.283279 67.143833 
L 114.296805 79.353997 
L 114.328324 64.732071 
L 114.395698 69.087545 
L 114.485173 79.640768 
L 114.447196 66.476558 
L 114.514163 70.848767 
L 114.578683 61.798992 
L 114.600882 77.377993 
L 114.618623 72.929814 
L 114.631917 78.090871 
L 114.67396 68.864691 
L 114.724733 72.285601 
L 114.742363 68.01992 
L 114.812724 76.563783 
L 114.819307 78.461645 
L 114.845619 64.693878 
L 114.904691 69.499967 
L 114.911244 69.578453 
L 114.919977 67.822518 
L 114.959229 75.769073 
L 115.000577 72.463485 
L 115.085178 75.037064 
L 115.03533 67.679573 
L 115.096 69.152004 
L 115.106813 65.200626 
L 115.156481 79.471727 
L 115.20172 72.201998 
L 115.216776 65.956815 
L 115.274744 73.97992 
L 115.315433 70.292069 
L 115.396561 76.882797 
L 115.35604 64.928321 
L 115.40721 69.144568 
L 115.413599 64.796862 
L 115.481598 73.840845 
L 115.517628 69.67483 
L 115.532444 69.031103 
L 115.540906 71.161397 
L 115.572603 72.827295 
L 115.559931 67.488425 
L 115.640057 67.614592 
L 115.728238 64.016447 
L 115.658985 75.887507 
L 115.736614 68.908844 
L 115.755452 78.875493 
L 115.826449 66.509974 
L 115.851446 72.85217 
L 115.853527 72.868047 
L 115.855609 72.448446 
L 115.975954 65.75727 
L 115.944901 75.832268 
L 115.980092 67.200818 
L 116.081169 76.423217 
L 116.023473 60.82377 
L 116.099678 73.106523 
L 116.148951 65.52357 
L 116.216499 71.821654 
L 116.293995 74.737754 
L 116.314337 68.061651 
L 116.320436 69.326862 
L 116.417759 77.128449 
L 116.373213 68.163772 
L 116.427869 68.866916 
L 116.494467 66.21505 
L 116.508564 73.266076 
L 116.532708 72.986278 
L 116.552806 75.15964 
L 116.572882 65.264852 
L 116.580907 61.988251 
L 116.600954 77.518388 
L 116.674955 68.784169 
L 116.718823 75.212985 
L 116.688923 67.454233 
L 116.790396 70.760331 
L 116.893321 67.291344 
L 116.81816 76.178203 
L 116.90319 70.390449 
L 117.029067 77.458952 
L 116.997674 67.726418 
L 117.031029 77.204587 
L 117.158041 65.398076 
L 117.130753 78.10722 
L 117.163882 66.986953 
L 117.28617 77.230971 
L 117.29004 76.118273 
L 117.31131 65.650883 
L 117.382685 76.498623 
L 117.415393 67.452474 
L 117.480644 80.079132 
L 117.495965 65.852838 
L 117.54377 73.457289 
L 117.593362 74.622245 
L 117.56286 67.2866 
L 117.631426 70.870762 
L 117.63903 67.615976 
L 117.716799 75.096266 
L 117.741393 71.205186 
L 117.820644 76.160442 
L 117.756514 67.001897 
L 117.839466 68.850659 
L 117.931434 76.275077 
L 117.85639 63.076036 
L 117.944535 68.958322 
L 117.981925 63.837214 
L 118.034151 74.861234 
L 118.05649 68.410048 
L 118.138188 75.42561 
L 118.158558 66.625442 
L 118.16411 65.059922 
L 118.19 78.111547 
L 118.26194 70.22578 
L 118.32077 78.808308 
L 118.291377 64.642213 
L 118.375765 71.404232 
L 118.395891 65.371451 
L 118.448853 77.00932 
L 118.494395 67.621111 
L 118.557977 75.960413 
L 118.586974 64.885678 
L 118.615928 69.958165 
L 118.624969 66.457852 
L 118.657477 75.47188 
L 118.727727 69.052625 
L 118.742106 65.781951 
L 118.795934 73.238026 
L 118.826372 70.118785 
L 118.917403 74.976244 
L 118.88889 66.588829 
L 118.935203 69.498257 
L 118.944098 67.972412 
L 119.013332 73.975173 
L 119.025731 73.030157 
L 119.031045 73.477534 
L 119.054048 65.816024 
L 119.057583 65.474233 
L 119.110555 75.712305 
L 119.11232 76.142732 
L 119.13875 67.879406 
L 119.202037 70.943852 
L 119.223088 65.52642 
L 119.30008 76.671646 
L 119.301827 76.584054 
L 119.315792 64.43161 
L 119.430628 70.089283 
L 119.50854 78.487584 
L 119.479143 65.122607 
L 119.551692 74.464122 
L 119.575815 65.957559 
L 119.66516 72.327349 
L 119.767746 74.082499 
L 119.694279 66.988098 
L 119.77627 72.828739 
L 119.796714 66.757097 
L 119.813735 73.893313 
L 119.868103 73.791806 
L 119.924011 75.909435 
L 119.907085 65.204366 
L 119.96626 69.239545 
L 120.00505 67.312573 
L 119.989881 75.229927 
L 120.023574 72.981884 
L 120.082399 76.399216 
L 120.119286 66.165295 
L 120.131007 69.882496 
L 120.146067 75.176793 
L 120.169472 65.832683 
L 120.232859 68.601207 
L 120.271126 66.471526 
L 120.254497 75.125923 
L 120.340811 70.133175 
L 120.406951 75.479601 
L 120.420151 67.334617 
L 120.476158 64.839516 
L 120.456409 78.462788 
L 120.52052 73.799227 
L 120.57133 68.38896 
L 120.608943 75.074312 
L 120.610577 75.34108 
L 120.63833 68.039613 
L 120.682327 69.074067 
L 120.703476 70.09964 
L 120.716479 75.33392 
L 120.735968 68.038869 
L 120.813729 69.955799 
L 120.899237 75.367439 
L 120.852497 67.852314 
L 120.923369 70.223712 
L 121.003596 67.757358 
L 121.019603 73.927231 
L 121.037194 68.899339 
L 121.038793 68.901608 
L 121.040391 68.788935 
L 121.04359 68.657508 
L 121.054771 73.811204 
L 121.059562 75.850436 
L 121.081905 67.295985 
L 121.159899 70.67075 
L 121.188473 67.797142 
L 121.20433 72.420597 
L 121.269207 70.759251 
L 121.278683 72.743571 
L 121.330721 74.534962 
L 121.341743 67.898155 
L 121.379479 70.332303 
L 121.462563 67.521167 
L 121.476637 74.342973 
L 121.565536 75.37994 
L 121.495386 66.817746 
L 121.57487 71.628329 
L 121.619923 66.235905 
L 121.601293 76.853129 
L 121.683446 73.355962 
L 121.714356 75.791575 
L 121.698908 69.197026 
L 121.757552 69.389167 
L 121.772954 66.364563 
L 121.826773 75.24597 
L 121.866656 70.646344 
L 121.911047 68.615651 
L 121.926329 73.659614 
L 121.976681 70.497623 
L 122.066385 73.701406 
L 121.99648 69.218033 
L 122.070933 70.976551 
L 122.178317 66.574949 
L 122.101243 73.827559 
L 122.182841 68.629059 
L 122.261097 75.754658 
L 122.246073 66.02718 
L 122.303107 75.438022 
L 122.319585 67.095587 
L 122.424131 70.900986 
L 122.436043 66.776839 
L 122.450924 76.774947 
L 122.5133 72.854536 
L 122.579912 74.616705 
L 122.600589 67.951622 
L 122.61092 69.050481 
L 122.618297 67.920812 
L 122.63746 73.097928 
L 122.740331 74.300991 
L 122.67426 66.623135 
L 122.744728 73.237622 
L 122.797411 66.183512 
L 122.778402 76.490388 
L 122.854326 74.178952 
L 122.969114 66.484895 
L 122.976355 71.238505 
L 123.006744 74.159001 
L 123.025534 67.904652 
L 123.087552 71.406363 
L 123.132141 77.737097 
L 123.149377 66.80943 
L 123.182365 70.440725 
L 123.246749 68.023643 
L 123.202418 73.42807 
L 123.289555 71.570223 
L 123.406084 76.351571 
L 123.381981 66.890473 
L 123.408917 75.39598 
L 123.457025 66.565726 
L 123.52474 72.119335 
L 123.538819 73.971392 
L 123.557106 68.259981 
L 123.561323 67.893014 
L 123.62728 74.035328 
L 123.631483 75.10396 
L 123.676255 68.42699 
L 123.729288 70.966159 
L 123.784959 65.734482 
L 123.834928 74.357303 
L 123.836315 74.220179 
L 123.957918 67.344583 
L 123.94276 74.471713 
L 123.96756 68.436174 
L 124.008824 73.908366 
L 124.069188 67.772237 
L 124.084252 70.040874 
L 124.0993 66.466668 
L 124.166204 76.686066 
L 124.190726 70.802084 
L 124.255961 78.151664 
L 124.208415 65.243357 
L 124.296627 69.216171 
L 124.303395 66.980369 
L 124.377701 74.888046 
L 124.403304 70.25082 
L 124.46784 75.297966 
L 124.481259 68.278741 
L 124.482601 68.255367 
L 124.486622 69.705288 
L 124.588275 73.843249 
L 124.52815 68.200244 
L 124.598945 70.424837 
L 124.618935 67.989332 
L 124.633581 73.389435 
L 124.697367 71.834614 
L 124.719907 74.386873 
L 124.735802 67.48146 
L 124.801895 70.616967 
L 124.812449 68.782639 
L 124.828271 72.76239 
L 124.833541 76.289708 
L 124.869082 67.137031 
L 124.936039 71.163484 
L 125.005383 66.666956 
L 124.972704 74.221594 
L 125.047131 70.39261 
L 125.110888 68.183194 
L 125.169258 74.520605 
L 125.218412 66.058208 
L 125.300922 69.961639 
L 125.413813 73.652935 
L 125.377962 68.6228 
L 125.417649 72.475752 
L 125.452149 68.120325 
L 125.468739 72.618348 
L 125.533686 70.33272 
L 125.542584 75.251075 
L 125.583206 68.004058 
L 125.642719 69.45754 
L 125.675563 67.133221 
L 125.659149 73.958929 
L 125.757437 67.765989 
L 125.813919 74.433458 
L 125.800126 66.169806 
L 125.872738 69.357146 
L 125.88523 69.007468 
L 125.911438 72.926774 
L 125.961261 71.89466 
L 126.009716 75.768098 
L 125.997302 67.689088 
L 126.059291 68.926138 
L 126.060527 68.922463 
L 126.061765 69.13325 
L 126.119847 73.041922 
L 126.153136 67.702512 
L 126.175298 70.558712 
L 126.274715 67.258802 
L 126.228138 73.730403 
L 126.28206 71.170199 
L 126.369977 75.384874 
L 126.354132 67.446525 
L 126.385808 68.29363 
L 126.424727 66.185358 
L 126.440514 76.116748 
L 126.493858 69.182619 
L 126.555506 73.820494 
L 126.580834 67.904147 
L 126.601314 69.373094 
L 126.60613 67.445618 
L 126.630191 75.004394 
L 126.710581 70.46868 
L 126.77036 74.074403 
L 126.75842 67.170892 
L 126.818053 69.471996 
L 126.819242 69.430427 
L 126.829958 72.15613 
L 126.854935 71.887055 
L 126.863253 74.645941 
L 126.904794 67.959786 
L 126.965168 71.751679 
L 127.08066 67.532111 
L 127.038313 74.238114 
L 127.084185 68.602933 
L 127.133466 74.261808 
L 127.118225 68.328615 
L 127.201319 71.882645 
L 127.285224 69.214575 
L 127.221161 74.381757 
L 127.307305 72.215186 
L 127.393072 73.133621 
L 127.401168 69.147331 
L 127.423119 68.902536 
L 127.436971 73.343235 
L 127.494583 71.819599 
L 127.555464 73.599665 
L 127.531363 68.37191 
L 127.60129 70.520101 
L 127.665265 69.008348 
L 127.6413 73.560599 
L 127.674389 72.30097 
L 127.682368 74.326056 
L 127.694899 69.257137 
L 127.700594 67.143724 
L 127.741538 73.507943 
L 127.803926 69.957622 
L 127.925861 75.44421 
L 127.864988 68.019556 
L 127.930363 74.12374 
L 127.965217 67.398322 
L 128.0504 69.50203 
L 128.098434 74.47842 
L 128.080574 68.152617 
L 128.167484 71.499616 
L 128.195259 72.374541 
L 128.215232 69.773455 
L 128.270607 68.995961 
L 128.287189 74.073404 
L 128.292715 74.683825 
L 128.337955 68.594259 
L 128.387489 73.298401 
L 128.395182 68.195277 
L 128.501493 71.05304 
L 128.563696 68.125622 
L 128.551708 73.947867 
L 128.608317 71.451799 
L 128.724293 73.722771 
L 128.635476 68.365412 
L 128.725374 73.494543 
L 128.736176 67.709395 
L 128.793336 74.330377 
L 128.843883 69.186897 
L 128.90073 68.740939 
L 128.965954 73.709287 
L 129.024577 74.053705 
L 128.992621 68.135323 
L 129.034152 70.132285 
L 129.108475 68.71166 
L 129.05329 72.543488 
L 129.139183 72.11356 
L 129.170902 68.139741 
L 129.156106 73.135154 
L 129.265745 70.006145 
L 129.389408 72.841001 
L 129.344434 69.482347 
L 129.393585 72.059191 
L 129.488403 68.951656 
L 129.457196 73.357718 
L 129.508143 70.730107 
L 129.607576 73.992237 
L 129.575522 69.126074 
L 129.614806 70.184444 
L 129.707537 66.947583 
L 129.661227 73.465744 
L 129.717812 71.182502 
L 129.727058 74.947889 
L 129.776285 67.602335 
L 129.828457 71.284848 
L 129.837647 66.358495 
L 129.846837 74.168243 
L 129.942542 68.682201 
L 129.954726 74.362951 
L 129.999336 67.781204 
L 130.055969 70.791011 
L 130.098334 66.59474 
L 130.083215 74.134946 
L 130.163723 71.428439 
L 130.208864 74.42968 
L 130.193829 67.232356 
L 130.274884 71.538596 
L 130.379461 67.546805 
L 130.307811 74.24063 
L 130.387406 70.124208 
L 130.432036 67.251637 
L 130.503235 73.955444 
L 130.539723 66.384849 
L 130.550557 74.10656 
L 130.640942 72.024543 
L 130.731888 73.771445 
L 130.685978 68.332794 
L 130.746516 70.887584 
L 130.849589 68.067921 
L 130.836977 74.352394 
L 130.856375 70.639765 
L 130.862191 73.117882 
L 130.870912 68.48379 
L 130.967551 70.778472 
L 131.017616 73.588985 
L 131.02915 69.378007 
L 131.0426 69.881394 
L 131.050281 68.658447 
L 131.072349 72.83345 
L 131.146998 71.092231 
L 131.209944 69.312223 
L 131.234685 73.112942 
L 131.235635 73.115553 
L 131.236586 72.944193 
L 131.289763 67.098513 
L 131.362649 69.010313 
L 131.424906 67.771493 
L 131.411718 73.500519 
L 131.438088 73.418375 
L 131.43997 73.497846 
L 131.454081 69.038317 
L 131.501046 70.443488 
L 131.518863 68.668316 
L 131.541347 72.950759 
L 131.605841 71.282522 
L 131.671055 75.197659 
L 131.646857 68.584912 
L 131.720287 72.162454 
L 131.779574 67.664509 
L 131.769398 72.77709 
L 131.829459 71.982849 
L 131.905886 73.496695 
L 131.92334 68.790325 
L 131.938025 70.69294 
L 132.00489 69.250857 
L 131.966448 73.260884 
L 132.043258 71.738549 
L 132.139758 75.189335 
L 132.064236 68.009324 
L 132.14793 70.931297 
L 132.153375 68.119885 
L 132.216799 73.068233 
L 132.257463 72.074841 
L 132.335842 72.510875 
L 132.310651 69.43991 
L 132.361001 71.061597 
L 132.448806 67.761853 
L 132.43897 73.019765 
L 132.468463 71.686452 
L 132.570898 72.350969 
L 132.536219 68.837914 
L 132.576228 71.422368 
L 132.596645 68.784631 
L 132.668382 73.271711 
L 132.687821 70.591216 
L 132.768902 72.801044 
L 132.734571 68.829066 
L 132.797027 69.823801 
L 132.830371 73.005187 
L 132.899514 69.189193 
L 132.923961 71.585794 
L 132.988427 68.907943 
L 133.021448 72.732489 
L 133.04401 70.056225 
L 133.092518 74.399527 
L 133.10549 67.94468 
L 133.155571 70.889093 
L 133.200362 68.231206 
L 133.232171 73.569677 
L 133.26993 70.31814 
L 133.310185 73.966963 
L 133.328998 68.25382 
L 133.383628 71.152932 
L 133.462741 67.777584 
L 133.431303 73.525188 
L 133.491585 71.425603 
L 133.508532 72.717922 
L 133.518693 68.882218 
L 133.60148 71.257889 
L 133.690634 69.49988 
L 133.609909 72.579851 
L 133.70825 71.543207 
L 133.734223 72.33139 
L 133.753471 69.44765 
L 133.830278 68.579147 
L 133.788572 72.890669 
L 133.859421 70.697114 
L 133.914254 69.095937 
L 133.926695 72.310543 
L 133.971419 70.520791 
L 134.078668 73.337981 
L 134.025941 69.125792 
L 134.084427 70.887372 
L 134.091828 68.683211 
L 134.135356 72.518043 
L 134.192698 71.615337 
L 134.291428 72.334853 
L 134.222942 68.891479 
L 134.297122 70.845076 
L 134.411512 69.345079 
L 134.332889 72.329797 
L 134.412323 69.41094 
L 134.454339 72.773884 
L 134.529262 71.02515 
L 134.617514 69.272222 
L 134.607104 72.869266 
L 134.643113 69.797051 
L 134.652703 73.607571 
L 134.663885 68.196992 
L 134.757894 71.350151 
L 134.768223 71.642247 
L 134.773784 70.414398 
L 134.778549 68.807179 
L 134.800766 73.366408 
L 134.885439 70.079159 
L 134.916208 72.100698 
L 134.924092 69.505167 
L 135.002741 72.011893 
L 135.035681 69.552349 
L 135.045867 72.191959 
L 135.117788 71.657973 
L 135.159884 72.527828 
L 135.191005 69.547263 
L 135.225181 70.786826 
L 135.275563 72.189457 
L 135.285622 69.438303 
L 135.287171 69.131746 
L 135.356675 72.293455 
L 135.394412 70.18014 
L 135.407489 72.283777 
L 135.440526 68.528898 
L 135.501838 70.077124 
L 135.559909 68.861217 
L 135.582784 72.815893 
L 135.585073 73.115689 
L 135.668712 68.700559 
L 135.691461 72.311558 
L 135.729319 69.958171 
L 135.761062 72.806065 
L 135.804061 72.123048 
L 135.859743 72.469228 
L 135.842452 68.803092 
L 135.909273 71.135651 
L 135.945216 69.696266 
L 135.959425 72.588998 
L 136.019143 71.483771 
L 136.040746 72.409613 
L 136.064555 68.374146 
L 136.0653 68.217722 
L 136.077193 73.23215 
L 136.170607 69.27074 
L 136.184653 71.148296 
L 136.203858 73.440229 
L 136.214193 68.904349 
L 136.291527 71.195218 
L 136.295937 68.137168 
L 136.315769 72.649945 
L 136.40367 70.234954 
L 136.45841 69.468115 
L 136.478806 73.36526 
L 136.479535 73.434893 
L 136.490453 69.431849 
L 136.561632 70.760146 
L 136.583371 69.966307 
L 136.58989 72.065043 
L 136.671528 70.774536 
L 136.707542 72.09512 
L 136.731278 69.664924 
L 136.784395 71.248547 
L 136.785113 71.249684 
L 136.785829 71.137443 
L 136.843087 70.12088 
L 136.849518 72.335979 
L 136.897331 70.963793 
L 136.962081 72.584639 
L 136.970606 69.419272 
L 137.012454 71.5196 
L 137.104353 69.178836 
L 137.073297 72.348076 
L 137.1107 72.126349 
L 137.114929 73.27262 
L 137.202139 69.671275 
L 137.217571 70.846563 
L 137.249801 69.518526 
L 137.27848 72.35266 
L 137.330141 70.515726 
L 137.413626 72.662683 
L 137.390007 68.818671 
L 137.439988 70.511237 
L 137.504361 68.808276 
L 137.52439 74.002306 
L 137.549226 70.746766 
L 137.576096 72.21086 
L 137.633846 70.150529 
L 137.663342 71.443524 
L 137.716735 69.099433 
L 137.705795 72.953541 
L 137.772709 71.655381 
L 137.777482 71.350711 
L 137.881473 69.602201 
L 137.831926 72.315301 
L 137.886217 71.46509 
L 137.890283 72.549999 
L 137.975473 69.737146 
L 137.992332 69.787161 
L 137.993007 69.751455 
L 138.01995 72.114442 
L 138.075069 71.28 
L 138.135386 72.477169 
L 138.109942 69.512577 
L 138.142746 70.197787 
L 138.208192 68.689643 
L 138.182174 72.534776 
L 138.24882 70.962802 
L 138.272757 72.126077 
L 138.337108 69.838029 
L 138.360275 71.044146 
L 138.397948 72.5464 
L 138.388701 69.843755 
L 138.423682 70.200349 
L 138.475709 69.810882 
L 138.431595 71.824599 
L 138.532843 70.408596 
L 138.541366 72.384714 
L 138.627045 69.757903 
L 138.645312 71.180974 
L 138.660954 71.512446 
L 138.679839 69.99106 
L 138.774636 69.43909 
L 138.718851 72.135541 
L 138.779818 71.087856 
L 138.797941 72.600511 
L 138.808291 69.949724 
L 138.890885 71.122347 
L 138.947467 72.322366 
L 138.940405 69.470535 
L 138.976341 69.820995 
L 138.977622 69.512512 
L 139.040348 71.772233 
L 139.081842 71.684622 
L 139.106059 69.724243 
L 139.13915 72.005629 
L 139.190582 71.943872 
L 139.191218 71.998678 
L 139.259586 69.769737 
L 139.293049 71.229095 
L 139.310706 69.942744 
L 139.376148 71.739748 
L 139.406905 70.943358 
L 139.51449 72.029374 
L 139.477654 70.011123 
L 139.51761 71.240236 
L 139.522599 70.007176 
L 139.626452 71.778234 
L 139.667966 72.32515 
L 139.643194 69.691511 
L 139.729145 70.814309 
L 139.748262 70.063944 
L 139.806118 71.694852 
L 139.838052 70.970806 
L 139.944528 71.717221 
L 139.850319 70.066544 
L 139.948799 71.085631 
L 140.017624 69.982918 
L 140.034032 72.18268 
L 140.05953 71.186014 
L 140.083785 71.630834 
L 140.109823 70.248643 
L 140.168437 70.995794 
L 140.230484 69.808912 
L 140.207615 72.018255 
L 140.268339 71.4042 
L 140.283941 71.803955 
L 140.315706 70.259907 
L 140.367138 70.834491 
L 140.474948 70.129223 
L 140.461877 71.701973 
L 140.478512 70.766758 
L 140.585716 72.023523 
L 140.521819 69.852886 
L 140.58985 70.907657 
L 140.651759 69.910039 
L 140.632912 71.775224 
L 140.699385 71.320123 
L 140.703495 71.906586 
L 140.785522 70.343685 
L 140.805976 70.804657 
L 140.903275 69.589749 
L 140.886414 72.20633 
L 140.912571 71.534726 
L 140.99836 71.916207 
L 140.956672 70.070686 
L 141.012236 70.810389 
L 141.048037 70.047969 
L 141.055537 72.082169 
L 141.118296 71.355881 
L 141.171113 72.048454 
L 141.148741 70.435248 
L 141.177417 70.510629 
L 141.179711 70.179586 
L 141.269476 71.8501 
L 141.287723 70.631498 
L 141.38267 69.809732 
L 141.324163 71.89428 
L 141.391174 71.016533 
L 141.40761 71.839046 
L 141.489009 70.193537 
L 141.490138 70.156006 
L 141.503671 71.623965 
L 141.516632 71.973344 
L 141.522264 70.16265 
L 141.607678 70.807822 
L 141.617207 70.374675 
L 141.663668 71.517695 
L 141.712251 71.451667 
L 141.712808 71.454609 
L 141.71727 70.938467 
L 141.721174 70.947744 
L 141.83457 69.755206 
L 141.820709 71.663523 
L 141.836234 70.174581 
L 141.850084 72.044663 
L 141.861711 69.945295 
L 141.948971 70.845483 
L 141.968247 70.144715 
L 141.973751 71.637286 
L 142.042975 71.444151 
L 142.123971 71.855149 
L 142.057228 69.9408 
L 142.150169 70.997428 
L 142.193212 70.254419 
L 142.250818 71.586337 
L 142.260581 70.880033 
L 142.301219 71.780655 
L 142.324478 70.04494 
L 142.371455 70.801618 
L 142.455409 69.704892 
L 142.395708 71.822145 
L 142.480096 71.460992 
L 142.503681 70.103255 
L 142.556644 71.75048 
L 142.584405 71.649054 
L 142.585471 71.854766 
L 142.658954 69.708653 
L 142.689755 70.254034 
L 142.691347 70.093756 
L 142.762848 71.67673 
L 142.794543 71.091488 
L 142.860936 71.613204 
L 142.875134 70.393049 
L 142.905598 71.196507 
L 142.999321 70.07055 
L 142.942303 71.801475 
L 143.01603 71.239096 
L 143.02229 71.593581 
L 143.049403 70.360719 
L 143.08116 70.614894 
L 143.084799 70.147978 
L 143.126881 71.40921 
L 143.189575 71.267678 
L 143.213872 70.238433 
L 143.205604 71.478987 
L 143.29894 71.419372 
L 143.395417 71.74697 
L 143.312311 70.039485 
L 143.400022 70.921032 
L 143.439391 70.27491 
L 143.419972 71.569157 
L 143.510259 71.117174 
L 143.593041 71.496036 
L 143.535182 70.515661 
L 143.618364 70.536478 
L 143.647193 70.150192 
L 143.70573 71.678355 
L 143.726377 70.940503 
L 143.818778 71.720044 
L 143.759069 69.956298 
L 143.833802 70.026799 
L 143.837306 69.864659 
L 143.850315 71.770073 
L 143.933171 71.145007 
L 143.944127 71.551675 
L 144.029068 70.264282 
L 144.045418 71.392147 
L 144.156533 70.475373 
L 144.137318 71.606115 
L 144.16638 70.976448 
L 144.275835 71.450958 
L 144.193923 70.620485 
L 144.278771 71.140648 
L 144.331555 70.156587 
L 144.343753 71.67204 
L 144.388577 71.389074 
L 144.503579 70.425206 
L 144.477434 71.548858 
L 144.513252 70.827027 
L 144.595772 71.664888 
L 144.576982 70.300439 
L 144.624644 70.902696 
L 144.628971 70.262952 
L 144.636662 71.623045 
L 144.735408 70.94186 
L 144.738753 70.552448 
L 144.767894 71.389826 
L 144.846025 70.929022 
L 144.884498 71.816237 
L 144.900626 70.082937 
L 144.961694 71.396473 
L 145.060234 70.444655 
L 145.070577 71.460685 
L 145.072457 71.399439 
L 145.120339 70.199057 
L 145.112836 71.524016 
L 145.202686 70.711249 
L 145.212955 71.454147 
L 145.226484 70.3142 
L 145.313494 70.786353 
L 145.408441 70.388951 
L 145.419064 71.553738 
L 145.419527 71.573013 
L 145.441217 70.367341 
L 145.51488 70.924484 
L 145.596965 70.431562 
L 145.578652 71.768585 
L 145.614804 71.357982 
L 145.615719 71.466713 
L 145.669592 70.529058 
L 145.725136 71.334551 
L 145.794573 70.241994 
L 145.800461 71.600621 
L 145.837564 71.171095 
L 145.844343 71.492739 
L 145.927765 70.267262 
L 145.945755 71.033737 
L 145.962832 70.443781 
L 145.97316 71.625851 
L 146.064083 70.709702 
L 146.168371 71.432994 
L 146.085519 70.618693 
L 146.175481 70.826012 
L 146.217203 70.499279 
L 146.233601 71.357941 
L 146.285808 70.797107 
L 146.393322 71.387009 
L 146.317154 70.553132 
L 146.397277 70.968138 
L 146.423181 70.258664 
L 146.413965 71.536566 
L 146.50768 71.014945 
L 146.545215 71.322728 
L 146.595731 70.508659 
L 146.619203 71.16692 
L 146.692912 70.41188 
L 146.669962 71.354711 
L 146.731391 70.873069 
L 146.753838 70.484525 
L 146.742619 71.614398 
L 146.839507 70.951207 
L 146.926514 71.498379 
L 146.881558 70.538389 
L 146.95301 71.10553 
L 147.008026 71.357455 
L 147.001637 70.518907 
L 147.048018 70.946089 
L 147.092171 70.583872 
L 147.099802 71.238127 
L 147.162017 70.741685 
L 147.172155 71.32741 
L 147.20254 70.442918 
L 147.274936 70.937072 
L 147.305163 70.482609 
L 147.357529 71.456622 
L 147.385122 71.101028 
L 147.38721 71.394228 
L 147.442692 70.472192 
L 147.493445 70.658411 
L 147.532463 70.447678 
L 147.538682 71.550332 
L 147.598283 71.071271 
L 147.604481 71.428363 
L 147.619349 70.56091 
L 147.692284 70.741023 
L 147.801386 70.497482 
L 147.760031 71.223995 
L 147.803839 70.675092 
L 147.887093 71.373674 
L 147.880168 70.521599 
L 147.918018 70.913129 
L 147.971617 70.614454 
L 148.006456 71.180874 
L 148.029515 70.848593 
L 148.088453 70.623416 
L 148.054565 71.293123 
L 148.135557 71.173912 
L 148.201393 71.266308 
L 148.206201 70.495946 
L 148.243429 70.843306 
L 148.249828 71.388629 
L 148.262616 70.622558 
L 148.35787 70.99254 
L 148.403938 70.543763 
L 148.422571 71.324283 
L 148.468882 70.938245 
L 148.515478 71.257644 
L 148.501667 70.648472 
L 148.580448 70.997781 
L 148.688256 70.668491 
L 148.597343 71.158064 
L 148.695683 70.847051 
L 148.703106 71.259683 
L 148.790418 70.755565 
L 148.805972 70.821251 
L 148.846735 70.56198 
L 148.882768 71.253741 
L 148.914871 71.014853 
L 148.961576 71.302223 
L 149.012788 70.57606 
L 149.025474 70.989965 
L 149.07422 70.530681 
L 149.115959 71.212316 
L 149.136222 70.943434 
L 149.15074 71.249651 
L 149.156849 70.568993 
L 149.245973 70.856795 
L 149.278247 70.652066 
L 149.319555 71.207632 
L 149.354353 71.101839 
L 149.447103 71.124087 
L 149.393994 70.684999 
L 149.46139 70.978541 
L 149.524434 70.776561 
L 149.480924 71.127493 
L 149.564853 71.032361 
L 149.596234 71.330968 
L 149.581673 70.771279 
L 149.675586 71.026018 
L 149.750172 70.656788 
L 149.76091 71.199943 
L 149.786805 70.999344 
L 149.807866 71.219232 
L 149.800479 70.5964 
L 149.898867 71.122852 
L 149.906953 70.665669 
L 149.996766 71.214564 
L 150.012854 70.896898 
L 150.047906 71.168991 
L 150.042431 70.677551 
L 150.12291 70.845059 
L 150.226209 71.148847 
L 150.133446 70.745371 
L 150.235968 70.847513 
L 150.238495 70.577206 
L 150.251859 71.171016 
L 150.346582 70.91163 
L 150.36023 71.294643 
L 150.354843 70.657374 
L 150.45729 70.90725 
L 150.551741 70.740268 
L 150.561692 71.142233 
L 150.567376 71.015423 
L 150.6011 70.631205 
L 150.596488 71.143552 
L 150.678618 71.002666 
L 150.730127 71.169599 
L 150.725898 70.675049 
L 150.787125 70.866142 
L 150.857612 71.164084 
L 150.80398 70.68749 
L 150.904814 71.006998 
L 150.908306 70.852632 
L 150.905511 71.01821 
L 150.912843 70.875218 
L 151.021455 70.661462 
L 150.953296 71.324851 
L 151.023888 70.856779 
L 151.036378 71.206364 
L 151.109089 70.803192 
L 151.136028 71.079505 
L 151.173612 70.682366 
L 151.167756 71.158222 
L 151.246848 71.077263 
L 151.24822 71.191429 
L 151.258512 70.688201 
L 151.355681 70.905931 
L 151.357389 70.719978 
L 151.438102 71.145797 
L 151.46595 70.968195 
L 151.561423 71.125026 
L 151.516115 70.735676 
L 151.563786 70.833693 
L 151.565139 70.697358 
L 151.668865 71.132359 
L 151.674241 70.942712 
L 151.722535 71.23372 
L 151.749314 70.721823 
L 151.789083 71.018061 
L 151.830103 70.641443 
L 151.838762 71.136677 
L 151.900935 70.843295 
L 151.954637 71.11839 
L 151.914541 70.785024 
L 152.015124 70.993846 
L 152.100414 70.737364 
L 152.064565 71.139951 
L 152.127995 70.819872 
L 152.228801 71.080754 
L 152.177155 70.789762 
L 152.241201 70.997447 
L 152.306667 70.822462 
L 152.320644 71.095027 
L 152.353109 70.880456 
L 152.45632 71.116376 
L 152.421115 70.816339 
L 152.464061 70.896719 
L 152.504018 70.801683 
L 152.541323 71.088147 
L 152.573749 70.964037 
L 152.638435 71.123688 
L 152.633959 70.739139 
L 152.684419 70.930808 
L 152.691116 70.776919 
L 152.705779 71.124016 
L 152.792253 70.947066 
L 152.795105 71.136867 
L 152.891922 70.76482 
L 152.904227 71.07529 
L 152.931333 71.096083 
L 152.942038 70.700398 
L 152.997052 70.882611 
L 153.016193 70.766752 
L 153.006782 71.107539 
L 153.107556 70.9347 
L 153.143421 71.158336 
L 153.152767 70.774824 
L 153.218061 70.895612 
L 153.307256 70.787249 
L 153.301385 71.086654 
L 153.324552 70.975447 
L 153.341216 71.074408 
L 153.347077 70.842942 
L 153.435076 70.934418 
L 153.50464 70.755972 
L 153.491788 71.089363 
L 153.545895 70.975922 
L 153.597114 71.147615 
L 153.631488 70.804142 
L 153.656094 70.919409 
L 153.740606 70.807583 
L 153.750578 71.12273 
L 153.751785 71.184131 
L 153.839797 70.776496 
L 153.860235 70.992301 
L 153.928312 70.808365 
L 153.87315 71.108426 
L 153.971376 70.943619 
L 154.011663 71.124673 
L 153.999437 70.773027 
L 154.083675 71.000018 
L 154.159565 70.712997 
L 154.102379 71.131369 
L 154.196514 70.931183 
L 154.249307 71.043581 
L 154.256669 70.854575 
L 154.308417 71.010782 
L 154.369401 70.767523 
L 154.356809 71.116707 
L 154.418518 70.993042 
L 154.461686 71.097877 
L 154.449154 70.811475 
L 154.528583 70.905138 
L 154.612033 70.802633 
L 154.561657 71.111287 
L 154.639194 70.910664 
L 154.742002 71.091564 
L 154.739129 70.798323 
L 154.750904 70.961051 
L 154.801655 70.822397 
L 154.853418 71.027899 
L 154.861698 70.990491 
L 154.880531 71.020772 
L 154.86541 70.893538 
L 154.889941 70.873736 
L 154.91131 70.819596 
L 154.922982 71.087835 
L 154.999955 70.90548 
L 155.061375 71.084268 
L 155.072957 70.833193 
L 155.111048 70.929625 
L 155.205813 71.070986 
L 155.174369 70.804055 
L 155.215628 70.878502 
L 155.321049 70.778271 
L 155.311006 71.09722 
L 155.324674 70.960956 
L 155.430345 71.075632 
L 155.344461 70.841493 
L 155.435338 70.902365 
L 155.547033 71.063989 
L 155.536553 70.807773 
L 155.548135 71.03862 
L 155.61391 70.854135 
L 155.643563 71.050714 
L 155.659742 70.923659 
L 155.711481 71.053805 
L 155.673444 70.85483 
L 155.770989 70.941648 
L 155.779164 71.051004 
L 155.775077 70.821485 
L 155.88161 70.954475 
L 155.971388 70.863835 
L 155.923576 71.04207 
L 155.992421 70.960633 
L 156.072838 71.058642 
L 156.023121 70.848973 
L 156.097784 70.928838 
L 156.203385 70.837829 
L 156.109843 71.040669 
L 156.207652 71.028092 
L 156.226302 71.05361 
L 156.295422 70.826213 
L 156.316641 70.94002 
L 156.384653 71.072058 
L 156.382012 70.843159 
L 156.421076 70.877498 
L 156.511576 70.860264 
L 156.484521 71.028952 
L 156.522595 70.963328 
L 156.591728 71.127392 
L 156.557455 70.840315 
L 156.63377 70.986176 
L 156.737055 70.822641 
L 156.726154 71.087867 
L 156.744838 70.939151 
L 156.8527 71.049788 
L 156.808539 70.880022 
L 156.855795 70.916874 
L 156.920167 71.105159 
L 156.907566 70.846438 
L 156.967411 70.993403 
L 157.064622 70.85635 
L 157.002258 71.045932 
L 157.079162 70.933463 
L 157.15475 71.04182 
L 157.121191 70.845352 
L 157.190279 70.935601 
L 157.197378 70.850477 
L 157.236626 71.039475 
L 157.301782 70.889934 
L 157.366721 71.036492 
L 157.317911 70.853294 
L 157.414408 70.950697 
L 157.450974 70.845157 
L 157.420172 71.048828 
L 157.525395 70.964219 
L 157.574937 70.851133 
L 157.630058 71.060482 
L 157.636503 70.941849 
L 157.741561 71.032817 
L 157.690957 70.857718 
L 157.747231 70.928973 
L 157.807031 70.841976 
L 157.816612 71.091743 
L 157.858075 70.969465 
L 157.956593 71.034489 
L 157.949276 70.835451 
L 157.969512 70.992415 
L 158.037385 71.042707 
L 158.040785 70.849255 
L 158.079111 70.937572 
L 158.128485 70.87271 
L 158.102361 71.061679 
L 158.189789 70.967866 
L 158.284743 71.016033 
L 158.282344 70.875506 
L 158.300562 70.955762 
L 158.355598 70.877107 
L 158.337669 71.014397 
L 158.41191 70.94002 
L 158.491565 70.86954 
L 158.435482 71.044512 
L 158.523337 70.90288 
L 158.553875 71.056365 
L 158.610564 70.795104 
L 158.634608 70.920929 
L 158.736113 70.858977 
L 158.639083 71.033764 
L 158.744782 70.989297 
L 158.782228 71.02905 
L 158.755087 70.850297 
L 158.855041 70.952648 
L 158.92573 70.879175 
L 158.957967 71.017048 
L 158.966075 70.912933 
L 159.076024 71.049504 
L 159.028516 70.870251 
L 159.077175 70.959461 
L 159.18009 70.868379 
L 159.120428 71.02078 
L 159.188108 70.963565 
L 159.216488 71.045636 
L 159.215343 70.880147 
L 159.298873 70.971471 
L 159.306159 70.849201 
L 159.308891 71.018305 
L 159.410375 70.918003 
L 159.512691 71.029083 
L 159.453807 70.868151 
L 159.520572 70.913775 
L 159.558591 70.851275 
L 159.561964 71.031995 
L 159.630378 70.968906 
L 159.738684 71.049422 
L 159.641125 70.847355 
L 159.741356 70.978514 
L 159.74759 70.852637 
L 159.771837 71.014375 
L 159.852595 70.954502 
L 159.909856 71.032163 
L 159.886 70.87771 
L 159.964308 70.995925 
L 159.997523 70.867803 
L 160.059621 71.030258 
L 160.075608 70.948884 
L 160.142262 71.041307 
L 160.156001 70.872157 
L 160.186715 70.95948 
L 160.209775 70.885125 
L 160.210645 71.011932 
L 160.298065 70.905573 
L 160.405342 71.026165 
L 160.383589 70.885749 
L 160.409216 70.943032 
L 160.490828 70.895226 
L 160.451783 71.013281 
L 160.519527 70.972149 
L 160.588532 71.024474 
L 160.54733 70.877373 
L 160.630286 70.965209 
L 160.653895 70.883567 
L 160.650068 71.042995 
L 160.742117 70.920565 
L 160.769184 71.043679 
L 160.819622 70.84069 
L 160.853736 70.955946 
L 160.928916 70.868585 
L 160.92053 71.013555 
L 160.964723 70.965036 
L 161.050522 70.86877 
L 160.974135 71.034828 
L 161.076126 70.933875 
L 161.145902 71.028562 
L 161.119142 70.853657 
L 161.187316 70.996614 
L 161.23112 70.882454 
L 161.215429 71.010108 
L 161.298702 70.912987 
L 161.329941 71.014245 
L 161.39575 70.861181 
L 161.409664 70.949343 
L 161.433782 70.885385 
L 161.488452 71.055439 
L 161.520409 70.983296 
L 161.593487 71.045826 
L 161.55008 70.866137 
L 161.630733 70.924012 
L 161.631745 70.86764 
L 161.63963 71.022455 
L 161.741451 70.96668 
L 161.837742 71.018207 
L 161.779019 70.885342 
L 161.852345 70.968284 
L 161.954461 70.863271 
L 161.949289 71.030071 
L 161.963809 70.936622 
L 162.060206 71.0114 
L 161.998574 70.884376 
L 162.074841 70.932605 
L 162.137613 70.885537 
L 162.179941 71.032483 
L 162.18584 70.952847 
L 162.233165 70.885928 
L 162.189574 71.037781 
L 162.297193 70.922221 
L 162.307745 71.022344 
L 162.306183 70.85705 
L 162.409081 70.966751 
L 162.439576 70.873356 
L 162.43084 71.031656 
L 162.520339 70.930613 
L 162.528649 71.036028 
L 162.536183 70.873302 
L 162.631544 70.96699 
L 162.735625 70.866533 
L 162.714203 71.01111 
L 162.743462 70.922259 
L 162.845621 71.013097 
L 162.823558 70.85971 
L 162.854555 70.955791 
L 162.896313 70.879919 
L 162.875068 71.029615 
L 162.965591 70.917683 
L 162.975789 71.026673 
L 163.052878 70.881347 
L 163.076754 70.931628 
L 163.155878 71.035385 
L 163.159807 70.878291 
L 163.187101 70.950667 
L 163.243444 70.860242 
L 163.266342 71.021 
L 163.298137 70.951796 
L 163.375265 71.019399 
L 163.334883 70.8566 
L 163.408915 70.9881 
L 163.444903 70.881401 
L 163.461489 71.012234 
L 163.520173 70.925244 
L 163.552475 71.01643 
L 163.568788 70.876032 
L 163.631536 70.988442 
L 163.653805 70.877617 
L 163.736275 71.007905 
L 163.742814 70.94623 
L 163.757522 71.021766 
L 163.785446 70.889435 
L 163.854733 70.966621 
L 163.9387 70.882883 
L 163.946432 71.020968 
L 163.966013 70.902631 
L 163.991674 71.020202 
L 163.974272 70.878888 
L 164.077026 70.924777 
L 164.078275 70.874936 
L 164.128025 71.014714 
L 164.187945 70.930048 
L 164.256712 71.013702 
L 164.195047 70.882259 
L 164.298597 70.938044 
L 164.299127 70.851774 
L 164.300186 71.01643 
L 164.409681 70.936546 
L 164.439502 71.009845 
L 164.4789 70.876271 
L 164.521362 71.003337 
L 164.591753 70.875582 
L 164.576616 71.02563 
L 164.632758 70.937751 
L 164.702581 71.018188 
L 164.663455 70.872868 
L 164.744045 70.97713 
L 164.848353 70.886232 
L 164.779047 71.018772 
L 164.855218 70.954855 
L 164.87957 70.896252 
L 164.875971 71.010885 
L 164.964741 71.003603 
L 165.075354 71.00921 
L 165.031185 70.870816 
L 165.075694 71.001983 
L 165.154105 70.897007 
L 165.118579 71.023136 
L 165.187371 70.933463 
L 165.253068 71.013303 
L 165.249031 70.886232 
L 165.29842 70.951283 
L 165.325582 70.873557 
L 165.389813 71.021519 
L 165.41001 70.911842 
L 165.454503 71.021204 
L 165.457 70.881075 
L 165.521302 70.981361 
L 165.575472 70.878301 
L 165.571169 71.014367 
L 165.632295 70.939786 
L 165.726094 71.059543 
L 165.724944 70.782613 
L 165.743324 70.945497 
L 165.790177 70.884864 
L 165.782812 71.005017 
L 165.790505 70.907445 
" clip-path="url(#p56ac7ed0c3)" style="fill: none; stroke: #808080; stroke-linecap: square"/>
   </g>
   <g id="line2d_3">
    <path d="M 57.377031 25.41395 
L 165.790668 25.41395 
" clip-path="url(#p56ac7ed0c3)" style="fill: none; stroke-dasharray: 6.4,1.6,1,1.6; stroke-dashoffset: 0; stroke: #808080"/>
   </g>
   <g id="matplotlib.axis_1">
    <g id="xtick_1">
     <g id="line2d_4">
      <defs>
       <path id="m453f5449cd" d="M 0 0 
L 0 6 
" style="stroke: #000000"/>
      </defs>
      <g>
       <use xlink:href="#m453f5449cd" x="57.377031" y="116.483699" style="stroke: #000000"/>
      </g>
     </g>
     <g id="text_1">
      <!-- $\mathdefault{10^{1}}$ -->
      <g transform="translate(44.032031 140.014949)scale(0.17 -0.17)">
       <defs>
        <path id="ArialMT-31" d="M 2384 0 
L 1822 0 
L 1822 3584 
Q 1619 3391 1289 3197 
Q 959 3003 697 2906 
L 697 3450 
Q 1169 3672 1522 3987 
Q 1875 4303 2022 4600 
L 2384 4600 
L 2384 0 
z
" transform="scale(0.015625)"/>
        <path id="ArialMT-30" d="M 266 2259 
Q 266 3072 433 3567 
Q 600 4063 929 4331 
Q 1259 4600 1759 4600 
Q 2128 4600 2406 4451 
Q 2684 4303 2865 4023 
Q 3047 3744 3150 3342 
Q 3253 2941 3253 2259 
Q 3253 1453 3087 958 
Q 2922 463 2592 192 
Q 2263 -78 1759 -78 
Q 1097 -78 719 397 
Q 266 969 266 2259 
z
M 844 2259 
Q 844 1131 1108 757 
Q 1372 384 1759 384 
Q 2147 384 2411 759 
Q 2675 1134 2675 2259 
Q 2675 3391 2411 3762 
Q 2147 4134 1753 4134 
Q 1366 4134 1134 3806 
Q 844 3388 844 2259 
z
" transform="scale(0.015625)"/>
       </defs>
       <use xlink:href="#ArialMT-31" transform="translate(0 0.99375)"/>
       <use xlink:href="#ArialMT-30" transform="translate(55.615234 0.99375)"/>
       <use xlink:href="#ArialMT-31" transform="translate(112.972813 70.6875)scale(0.7)"/>
      </g>
     </g>
    </g>
    <g id="xtick_2">
     <g id="line2d_5">
      <g>
       <use xlink:href="#m453f5449cd" x="102.588186" y="116.483699" style="stroke: #000000"/>
      </g>
     </g>
     <g id="text_2">
      <!-- $\mathdefault{10^{2}}$ -->
      <g transform="translate(89.243186 140.014949)scale(0.17 -0.17)">
       <defs>
        <path id="ArialMT-32" d="M 3222 541 
L 3222 0 
L 194 0 
Q 188 203 259 391 
Q 375 700 629 1000 
Q 884 1300 1366 1694 
Q 2113 2306 2375 2664 
Q 2638 3022 2638 3341 
Q 2638 3675 2398 3904 
Q 2159 4134 1775 4134 
Q 1369 4134 1125 3890 
Q 881 3647 878 3216 
L 300 3275 
Q 359 3922 746 4261 
Q 1134 4600 1788 4600 
Q 2447 4600 2831 4234 
Q 3216 3869 3216 3328 
Q 3216 3053 3103 2787 
Q 2991 2522 2730 2228 
Q 2469 1934 1863 1422 
Q 1356 997 1212 845 
Q 1069 694 975 541 
L 3222 541 
z
" transform="scale(0.015625)"/>
       </defs>
       <use xlink:href="#ArialMT-31" transform="translate(0 0.99375)"/>
       <use xlink:href="#ArialMT-30" transform="translate(55.615234 0.99375)"/>
       <use xlink:href="#ArialMT-32" transform="translate(112.972813 70.6875)scale(0.7)"/>
      </g>
     </g>
    </g>
    <g id="xtick_3">
     <g id="line2d_6">
      <g>
       <use xlink:href="#m453f5449cd" x="147.79934" y="116.483699" style="stroke: #000000"/>
      </g>
     </g>
     <g id="text_3">
      <!-- $\mathdefault{10^{3}}$ -->
      <g transform="translate(134.45434 140.014949)scale(0.17 -0.17)">
       <defs>
        <path id="ArialMT-33" d="M 269 1209 
L 831 1284 
Q 928 806 1161 595 
Q 1394 384 1728 384 
Q 2125 384 2398 659 
Q 2672 934 2672 1341 
Q 2672 1728 2419 1979 
Q 2166 2231 1775 2231 
Q 1616 2231 1378 2169 
L 1441 2663 
Q 1497 2656 1531 2656 
Q 1891 2656 2178 2843 
Q 2466 3031 2466 3422 
Q 2466 3731 2256 3934 
Q 2047 4138 1716 4138 
Q 1388 4138 1169 3931 
Q 950 3725 888 3313 
L 325 3413 
Q 428 3978 793 4289 
Q 1159 4600 1703 4600 
Q 2078 4600 2393 4439 
Q 2709 4278 2876 4000 
Q 3044 3722 3044 3409 
Q 3044 3113 2884 2869 
Q 2725 2625 2413 2481 
Q 2819 2388 3044 2092 
Q 3269 1797 3269 1353 
Q 3269 753 2831 336 
Q 2394 -81 1725 -81 
Q 1122 -81 723 278 
Q 325 638 269 1209 
z
" transform="scale(0.015625)"/>
       </defs>
       <use xlink:href="#ArialMT-31" transform="translate(0 0.99375)"/>
       <use xlink:href="#ArialMT-30" transform="translate(55.615234 0.99375)"/>
       <use xlink:href="#ArialMT-33" transform="translate(112.972813 70.6875)scale(0.7)"/>
      </g>
     </g>
    </g>
    <g id="xtick_4">
     <g id="line2d_7">
      <defs>
       <path id="m02b67896cc" d="M 0 0 
L 0 3 
" style="stroke: #000000"/>
      </defs>
      <g>
       <use xlink:href="#m02b67896cc" x="70.986945" y="116.483699" style="stroke: #000000"/>
      </g>
     </g>
    </g>
    <g id="xtick_5">
     <g id="line2d_8">
      <g>
       <use xlink:href="#m02b67896cc" x="78.948234" y="116.483699" style="stroke: #000000"/>
      </g>
     </g>
    </g>
    <g id="xtick_6">
     <g id="line2d_9">
      <g>
       <use xlink:href="#m02b67896cc" x="84.596859" y="116.483699" style="stroke: #000000"/>
      </g>
     </g>
    </g>
    <g id="xtick_7">
     <g id="line2d_10">
      <g>
       <use xlink:href="#m02b67896cc" x="88.978272" y="116.483699" style="stroke: #000000"/>
      </g>
     </g>
    </g>
    <g id="xtick_8">
     <g id="line2d_11">
      <g>
       <use xlink:href="#m02b67896cc" x="92.558148" y="116.483699" style="stroke: #000000"/>
      </g>
     </g>
    </g>
    <g id="xtick_9">
     <g id="line2d_12">
      <g>
       <use xlink:href="#m02b67896cc" x="95.584889" y="116.483699" style="stroke: #000000"/>
      </g>
     </g>
    </g>
    <g id="xtick_10">
     <g id="line2d_13">
      <g>
       <use xlink:href="#m02b67896cc" x="98.206772" y="116.483699" style="stroke: #000000"/>
      </g>
     </g>
    </g>
    <g id="xtick_11">
     <g id="line2d_14">
      <g>
       <use xlink:href="#m02b67896cc" x="100.519437" y="116.483699" style="stroke: #000000"/>
      </g>
     </g>
    </g>
    <g id="xtick_12">
     <g id="line2d_15">
      <g>
       <use xlink:href="#m02b67896cc" x="116.198099" y="116.483699" style="stroke: #000000"/>
      </g>
     </g>
    </g>
    <g id="xtick_13">
     <g id="line2d_16">
      <g>
       <use xlink:href="#m02b67896cc" x="124.159389" y="116.483699" style="stroke: #000000"/>
      </g>
     </g>
    </g>
    <g id="xtick_14">
     <g id="line2d_17">
      <g>
       <use xlink:href="#m02b67896cc" x="129.808013" y="116.483699" style="stroke: #000000"/>
      </g>
     </g>
    </g>
    <g id="xtick_15">
     <g id="line2d_18">
      <g>
       <use xlink:href="#m02b67896cc" x="134.189427" y="116.483699" style="stroke: #000000"/>
      </g>
     </g>
    </g>
    <g id="xtick_16">
     <g id="line2d_19">
      <g>
       <use xlink:href="#m02b67896cc" x="137.769302" y="116.483699" style="stroke: #000000"/>
      </g>
     </g>
    </g>
    <g id="xtick_17">
     <g id="line2d_20">
      <g>
       <use xlink:href="#m02b67896cc" x="140.796044" y="116.483699" style="stroke: #000000"/>
      </g>
     </g>
    </g>
    <g id="xtick_18">
     <g id="line2d_21">
      <g>
       <use xlink:href="#m02b67896cc" x="143.417927" y="116.483699" style="stroke: #000000"/>
      </g>
     </g>
    </g>
    <g id="xtick_19">
     <g id="line2d_22">
      <g>
       <use xlink:href="#m02b67896cc" x="145.730591" y="116.483699" style="stroke: #000000"/>
      </g>
     </g>
    </g>
    <g id="xtick_20">
     <g id="line2d_23">
      <g>
       <use xlink:href="#m02b67896cc" x="161.409254" y="116.483699" style="stroke: #000000"/>
      </g>
     </g>
    </g>
    <g id="text_4">
     <!-- Time (ms) -->
     <g transform="translate(73.663224 159.769168)scale(0.17 -0.17)">
      <defs>
       <path id="ArialMT-54" d="M 1659 0 
L 1659 4041 
L 150 4041 
L 150 4581 
L 3781 4581 
L 3781 4041 
L 2266 4041 
L 2266 0 
L 1659 0 
z
" transform="scale(0.015625)"/>
       <path id="ArialMT-69" d="M 425 3934 
L 425 4581 
L 988 4581 
L 988 3934 
L 425 3934 
z
M 425 0 
L 425 3319 
L 988 3319 
L 988 0 
L 425 0 
z
" transform="scale(0.015625)"/>
       <path id="ArialMT-6d" d="M 422 0 
L 422 3319 
L 925 3319 
L 925 2853 
Q 1081 3097 1340 3245 
Q 1600 3394 1931 3394 
Q 2300 3394 2536 3241 
Q 2772 3088 2869 2813 
Q 3263 3394 3894 3394 
Q 4388 3394 4653 3120 
Q 4919 2847 4919 2278 
L 4919 0 
L 4359 0 
L 4359 2091 
Q 4359 2428 4304 2576 
Q 4250 2725 4106 2815 
Q 3963 2906 3769 2906 
Q 3419 2906 3187 2673 
Q 2956 2441 2956 1928 
L 2956 0 
L 2394 0 
L 2394 2156 
Q 2394 2531 2256 2718 
Q 2119 2906 1806 2906 
Q 1569 2906 1367 2781 
Q 1166 2656 1075 2415 
Q 984 2175 984 1722 
L 984 0 
L 422 0 
z
" transform="scale(0.015625)"/>
       <path id="ArialMT-65" d="M 2694 1069 
L 3275 997 
Q 3138 488 2766 206 
Q 2394 -75 1816 -75 
Q 1088 -75 661 373 
Q 234 822 234 1631 
Q 234 2469 665 2931 
Q 1097 3394 1784 3394 
Q 2450 3394 2872 2941 
Q 3294 2488 3294 1666 
Q 3294 1616 3291 1516 
L 816 1516 
Q 847 969 1125 678 
Q 1403 388 1819 388 
Q 2128 388 2347 550 
Q 2566 713 2694 1069 
z
M 847 1978 
L 2700 1978 
Q 2663 2397 2488 2606 
Q 2219 2931 1791 2931 
Q 1403 2931 1139 2672 
Q 875 2413 847 1978 
z
" transform="scale(0.015625)"/>
       <path id="ArialMT-20" transform="scale(0.015625)"/>
       <path id="ArialMT-28" d="M 1497 -1347 
Q 1031 -759 709 28 
Q 388 816 388 1659 
Q 388 2403 628 3084 
Q 909 3875 1497 4659 
L 1900 4659 
Q 1522 4009 1400 3731 
Q 1209 3300 1100 2831 
Q 966 2247 966 1656 
Q 966 153 1900 -1347 
L 1497 -1347 
z
" transform="scale(0.015625)"/>
       <path id="ArialMT-73" d="M 197 991 
L 753 1078 
Q 800 744 1014 566 
Q 1228 388 1613 388 
Q 2000 388 2187 545 
Q 2375 703 2375 916 
Q 2375 1106 2209 1216 
Q 2094 1291 1634 1406 
Q 1016 1563 777 1677 
Q 538 1791 414 1992 
Q 291 2194 291 2438 
Q 291 2659 392 2848 
Q 494 3038 669 3163 
Q 800 3259 1026 3326 
Q 1253 3394 1513 3394 
Q 1903 3394 2198 3281 
Q 2494 3169 2634 2976 
Q 2775 2784 2828 2463 
L 2278 2388 
Q 2241 2644 2061 2787 
Q 1881 2931 1553 2931 
Q 1166 2931 1000 2803 
Q 834 2675 834 2503 
Q 834 2394 903 2306 
Q 972 2216 1119 2156 
Q 1203 2125 1616 2013 
Q 2213 1853 2448 1751 
Q 2684 1650 2818 1456 
Q 2953 1263 2953 975 
Q 2953 694 2789 445 
Q 2625 197 2315 61 
Q 2006 -75 1616 -75 
Q 969 -75 630 194 
Q 291 463 197 991 
z
" transform="scale(0.015625)"/>
       <path id="ArialMT-29" d="M 791 -1347 
L 388 -1347 
Q 1322 153 1322 1656 
Q 1322 2244 1188 2822 
Q 1081 3291 891 3722 
Q 769 4003 388 4659 
L 791 4659 
Q 1378 3875 1659 3084 
Q 1900 2403 1900 1659 
Q 1900 816 1576 28 
Q 1253 -759 791 -1347 
z
" transform="scale(0.015625)"/>
      </defs>
      <use xlink:href="#ArialMT-54"/>
      <use xlink:href="#ArialMT-69" x="57.333984"/>
      <use xlink:href="#ArialMT-6d" x="79.550781"/>
      <use xlink:href="#ArialMT-65" x="162.851562"/>
      <use xlink:href="#ArialMT-20" x="218.466797"/>
      <use xlink:href="#ArialMT-28" x="246.25"/>
      <use xlink:href="#ArialMT-6d" x="279.550781"/>
      <use xlink:href="#ArialMT-73" x="362.851562"/>
      <use xlink:href="#ArialMT-29" x="412.851562"/>
     </g>
    </g>
   </g>
   <g id="matplotlib.axis_2">
    <g id="ytick_1">
     <g id="line2d_24">
      <defs>
       <path id="m3090d3361c" d="M 0 0 
L -6 0 
" style="stroke: #000000"/>
      </defs>
      <g>
       <use xlink:href="#m3090d3361c" x="57.377031" y="116.483699" style="stroke: #000000"/>
      </g>
     </g>
     <g id="text_5">
      <!-- 0.0 -->
      <g transform="translate(26.747031 122.567839)scale(0.17 -0.17)">
       <defs>
        <path id="ArialMT-2e" d="M 581 0 
L 581 641 
L 1222 641 
L 1222 0 
L 581 0 
z
" transform="scale(0.015625)"/>
       </defs>
       <use xlink:href="#ArialMT-30"/>
       <use xlink:href="#ArialMT-2e" x="55.615234"/>
       <use xlink:href="#ArialMT-30" x="83.398438"/>
      </g>
     </g>
    </g>
    <g id="ytick_2">
     <g id="line2d_25">
      <g>
       <use xlink:href="#m3090d3361c" x="57.377031" y="70.948824" style="stroke: #000000"/>
      </g>
     </g>
     <g id="text_6">
      <!-- 0.5 -->
      <g transform="translate(26.747031 77.032965)scale(0.17 -0.17)">
       <defs>
        <path id="ArialMT-35" d="M 266 1200 
L 856 1250 
Q 922 819 1161 601 
Q 1400 384 1738 384 
Q 2144 384 2425 690 
Q 2706 997 2706 1503 
Q 2706 1984 2436 2262 
Q 2166 2541 1728 2541 
Q 1456 2541 1237 2417 
Q 1019 2294 894 2097 
L 366 2166 
L 809 4519 
L 3088 4519 
L 3088 3981 
L 1259 3981 
L 1013 2750 
Q 1425 3038 1878 3038 
Q 2478 3038 2890 2622 
Q 3303 2206 3303 1553 
Q 3303 931 2941 478 
Q 2500 -78 1738 -78 
Q 1113 -78 717 272 
Q 322 622 266 1200 
z
" transform="scale(0.015625)"/>
       </defs>
       <use xlink:href="#ArialMT-30"/>
       <use xlink:href="#ArialMT-2e" x="55.615234"/>
       <use xlink:href="#ArialMT-35" x="83.398438"/>
      </g>
     </g>
    </g>
    <g id="ytick_3">
     <g id="line2d_26">
      <g>
       <use xlink:href="#m3090d3361c" x="57.377031" y="25.41395" style="stroke: #000000"/>
      </g>
     </g>
     <g id="text_7">
      <!-- 1.0 -->
      <g transform="translate(26.747031 31.49809)scale(0.17 -0.17)">
       <use xlink:href="#ArialMT-31"/>
       <use xlink:href="#ArialMT-2e" x="55.615234"/>
       <use xlink:href="#ArialMT-30" x="83.398438"/>
      </g>
     </g>
    </g>
    <g id="text_8">
     <!-- DR-NED -->
     <g transform="translate(19.368281 94.896224)rotate(-90)scale(0.17 -0.17)">
      <defs>
       <path id="ArialMT-44" d="M 494 0 
L 494 4581 
L 2072 4581 
Q 2606 4581 2888 4516 
Q 3281 4425 3559 4188 
Q 3922 3881 4101 3404 
Q 4281 2928 4281 2316 
Q 4281 1794 4159 1391 
Q 4038 988 3847 723 
Q 3656 459 3429 307 
Q 3203 156 2883 78 
Q 2563 0 2147 0 
L 494 0 
z
M 1100 541 
L 2078 541 
Q 2531 541 2789 625 
Q 3047 709 3200 863 
Q 3416 1078 3536 1442 
Q 3656 1806 3656 2325 
Q 3656 3044 3420 3430 
Q 3184 3816 2847 3947 
Q 2603 4041 2063 4041 
L 1100 4041 
L 1100 541 
z
" transform="scale(0.015625)"/>
       <path id="ArialMT-52" d="M 503 0 
L 503 4581 
L 2534 4581 
Q 3147 4581 3465 4457 
Q 3784 4334 3975 4021 
Q 4166 3709 4166 3331 
Q 4166 2844 3850 2509 
Q 3534 2175 2875 2084 
Q 3116 1969 3241 1856 
Q 3506 1613 3744 1247 
L 4541 0 
L 3778 0 
L 3172 953 
Q 2906 1366 2734 1584 
Q 2563 1803 2427 1890 
Q 2291 1978 2150 2013 
Q 2047 2034 1813 2034 
L 1109 2034 
L 1109 0 
L 503 0 
z
M 1109 2559 
L 2413 2559 
Q 2828 2559 3062 2645 
Q 3297 2731 3419 2920 
Q 3541 3109 3541 3331 
Q 3541 3656 3305 3865 
Q 3069 4075 2559 4075 
L 1109 4075 
L 1109 2559 
z
" transform="scale(0.015625)"/>
       <path id="ArialMT-2d" d="M 203 1375 
L 203 1941 
L 1931 1941 
L 1931 1375 
L 203 1375 
z
" transform="scale(0.015625)"/>
       <path id="ArialMT-4e" d="M 488 0 
L 488 4581 
L 1109 4581 
L 3516 984 
L 3516 4581 
L 4097 4581 
L 4097 0 
L 3475 0 
L 1069 3600 
L 1069 0 
L 488 0 
z
" transform="scale(0.015625)"/>
       <path id="ArialMT-45" d="M 506 0 
L 506 4581 
L 3819 4581 
L 3819 4041 
L 1113 4041 
L 1113 2638 
L 3647 2638 
L 3647 2100 
L 1113 2100 
L 1113 541 
L 3925 541 
L 3925 0 
L 506 0 
z
" transform="scale(0.015625)"/>
      </defs>
      <use xlink:href="#ArialMT-44"/>
      <use xlink:href="#ArialMT-52" x="72.216797"/>
      <use xlink:href="#ArialMT-2d" x="144.433594"/>
      <use xlink:href="#ArialMT-4e" x="177.734375"/>
      <use xlink:href="#ArialMT-45" x="249.951172"/>
      <use xlink:href="#ArialMT-44" x="316.650391"/>
     </g>
    </g>
   </g>
   <g id="line2d_27">
    <path d="M 54.987518 48.371422 
L 64.071109 66.739754 
L 74.954977 30.768437 
L 78.742631 25.41395 
L 81.91645 25.41395 
L 84.647924 25.793684 
L 87.045406 26.559035 
L 89.181745 26.941706 
L 91.108284 25.41395 
L 106.722616 25.41395 
L 107.534094 31.533789 
L 108.313361 31.533789 
L 109.062877 25.41395 
L 111.8039 25.41395 
L 112.433279 28.472398 
L 113.043108 27.324376 
L 113.634568 25.41395 
L 114.20873 25.41395 
L 115.309016 31.533789 
L 115.836869 27.324376 
L 116.350901 25.41395 
L 129.263643 25.41395 
L 129.52475 28.855074 
L 129.782431 25.41395 
L 136.264309 25.41395 
L 136.447474 33.064481 
L 136.808751 25.41395 
L 137.163503 25.41395 
L 137.51196 43.013999 
L 137.683895 41.865971 
L 137.854338 25.41395 
L 141.695512 25.41395 
L 141.83457 35.36052 
L 141.97265 25.41395 
L 144.182614 25.41395 
L 144.305179 26.176365 
L 144.426986 25.41395 
L 144.906788 25.41395 
L 145.024929 25.793684 
L 145.142364 25.41395 
L 146.279621 25.41395 
L 146.389806 26.559035 
L 146.608339 25.41395 
L 146.824467 25.41395 
L 146.931644 25.793684 
L 147.144261 25.41395 
L 149.152648 25.41395 
L 149.247872 28.472398 
L 149.436943 25.41395 
L 150.534664 25.41395 
L 150.623431 28.472398 
L 150.799767 25.41395 
L 150.974533 25.41395 
L 151.061338 29.23775 
L 151.233801 25.41395 
L 152.958715 25.41395 
L 153.037192 29.620426 
L 153.193211 25.41395 
L 153.653967 25.41395 
L 153.72972 27.324376 
L 153.880352 25.41395 
L 154.178196 25.41395 
L 154.32544 29.23775 
L 154.398651 27.324376 
L 154.544257 25.41395 
L 154.616658 25.41395 
L 154.688793 30.768437 
L 154.760662 25.41395 
L 154.832271 30.385766 
L 154.974708 25.41395 
L 155.740166 25.41395 
L 155.808294 25.793684 
L 155.94385 25.41395 
L 156.011276 26.559035 
L 156.145442 25.41395 
L 156.278696 25.41395 
L 156.344986 28.472398 
L 156.476897 25.41395 
L 156.542523 31.533789 
L 156.673118 25.41395 
L 159.739797 25.41395 
L 159.795389 26.559035 
L 159.850823 25.41395 
L 160.125674 25.41395 
L 160.180184 25.793684 
L 160.234545 25.41395 
L 160.504112 25.41395 
L 160.557584 26.176365 
L 160.610912 25.41395 
L 161.495987 25.41395 
L 161.546828 28.855074 
L 161.59754 26.941706 
L 161.648118 27.707057 
L 161.79908 25.41395 
L 163.799035 25.41395 
L 163.844255 28.855074 
L 163.889374 25.41395 
L 165.364749 25.41395 
L 165.406507 26.176365 
L 165.448178 25.41395 
L 165.655211 25.41395 
L 165.655211 25.41395 
" clip-path="url(#p56ac7ed0c3)" style="fill: none; stroke: #ff0000; stroke-width: 1.5; stroke-linecap: square"/>
   </g>
   <g id="line2d_28">
    <path d="M 98.001169 116.483699 
L 98.001169 7.2 
" clip-path="url(#p56ac7ed0c3)" style="fill: none; stroke-dasharray: 10,3; stroke-dashoffset: 5; stroke: #000000"/>
   </g>
   <g id="patch_3">
    <path d="M 57.377031 116.483699 
L 57.377031 7.2 
" style="fill: none; stroke: #000000; stroke-linejoin: miter; stroke-linecap: square"/>
   </g>
   <g id="patch_4">
    <path d="M 165.790668 116.483699 
L 165.790668 7.2 
" style="fill: none; stroke: #000000; stroke-linejoin: miter; stroke-linecap: square"/>
   </g>
   <g id="patch_5">
    <path d="M 57.377031 116.483699 
L 165.790668 116.483699 
" style="fill: none; stroke: #000000; stroke-linejoin: miter; stroke-linecap: square"/>
   </g>
   <g id="patch_6">
    <path d="M 57.377031 7.2 
L 165.790668 7.2 
" style="fill: none; stroke: #000000; stroke-linejoin: miter; stroke-linecap: square"/>
   </g>
  </g>
 </g>
 <defs>
  <clipPath id="p56ac7ed0c3">
   <rect x="57.377031" y="7.2" width="108.413636" height="109.283699"/>
  </clipPath>
 </defs>
</svg>
